<svg width="883" height="883" viewBox="0 0 883 883" fill="none" xmlns="http://www.w3.org/2000/svg">
<mask id="mask0_1855_2994" style="mask-type:alpha" maskUnits="userSpaceOnUse" x="104" y="104" width="675" height="675">
<circle cx="441.499" cy="441.501" r="336" transform="rotate(-157.043 441.499 441.501)" fill="#C4C4C4"/>
<circle cx="441.499" cy="441.501" r="336" transform="rotate(-157.043 441.499 441.501)" stroke="white"/>
<circle cx="441.499" cy="441.501" r="336" transform="rotate(-157.043 441.499 441.501)" stroke="white"/>
</mask>
<g mask="url(#mask0_1855_2994)">
<g filter="url(#filter0_b_1855_2994)">
<circle cx="441.499" cy="441.501" r="336.5" transform="rotate(-157.043 441.499 441.501)" fill="white" fill-opacity="0.01"/>
<circle cx="441.499" cy="441.501" r="335" transform="rotate(-157.043 441.499 441.501)" stroke="#95CEF5" stroke-opacity="0.3" stroke-width="3"/>
<circle cx="441.499" cy="441.501" r="335" transform="rotate(-157.043 441.499 441.501)" stroke="#95CEF5" stroke-opacity="0.3" stroke-width="3"/>
</g>
<mask id="mask1_1855_2994" style="mask-type:alpha" maskUnits="userSpaceOnUse" x="-22" y="-82" width="465" height="837">
<path d="M439.23 448.141L309.543 754.307L208.627 752.829L-21.6429 405.508L442.379 -81.0419L439.23 448.141Z" fill="#C4C4C4"/>
</mask>
<g mask="url(#mask1_1855_2994)">
<circle cx="441.499" cy="441.501" r="332.5" transform="rotate(-157.043 441.499 441.501)" stroke="url(#paint0_linear_1855_2994)" stroke-width="8"/>
</g>
</g>
<mask id="mask2_1855_2994" style="mask-type:alpha" maskUnits="userSpaceOnUse" x="176" y="176" width="531" height="532">
<circle cx="441.5" cy="441.5" r="265" transform="rotate(90.1975 441.5 441.5)" fill="#C4C4C4"/>
<circle cx="441.5" cy="441.5" r="265" transform="rotate(90.1975 441.5 441.5)" stroke="white"/>
<circle cx="441.5" cy="441.5" r="265" transform="rotate(90.1975 441.5 441.5)" stroke="white"/>
</mask>
<g mask="url(#mask2_1855_2994)">
<circle cx="441.5" cy="441.5" r="264" transform="rotate(90.1975 441.5 441.5)" stroke="#95CEF5" stroke-opacity="0.3" stroke-width="3"/>
<circle cx="441.5" cy="441.5" r="264" transform="rotate(90.1975 441.5 441.5)" stroke="#95CEF5" stroke-opacity="0.3" stroke-width="3"/>
<mask id="mask3_1855_2994" style="mask-type:alpha" maskUnits="userSpaceOnUse" x="294" y="441" width="525" height="353">
<path d="M442.5 441.024L781 442.171L818.678 535.801L631.446 747.657L294 794L442.5 441.024Z" fill="#C4C4C4"/>
</mask>
<g mask="url(#mask3_1855_2994)">
<circle cx="441.5" cy="441.5" r="261.5" transform="rotate(90.1975 441.5 441.5)" stroke="url(#paint1_linear_1855_2994)" stroke-width="8"/>
</g>
</g>
<mask id="mask4_1855_2994" style="mask-type:alpha" maskUnits="userSpaceOnUse" x="246" y="246" width="391" height="391">
<circle cx="441.5" cy="441.501" r="194" transform="rotate(23.1287 441.5 441.501)" fill="#C4C4C4"/>
<circle cx="441.5" cy="441.501" r="194" transform="rotate(23.1287 441.5 441.501)" stroke="white"/>
<circle cx="441.5" cy="441.501" r="194" transform="rotate(23.1287 441.5 441.501)" stroke="white"/>
</mask>
<g mask="url(#mask4_1855_2994)">
<circle cx="441.5" cy="441.501" r="193" transform="rotate(23.1287 441.5 441.501)" stroke="#95CEF5" stroke-opacity="0.3" stroke-width="3"/>
<circle cx="441.5" cy="441.501" r="193" transform="rotate(23.1287 441.5 441.501)" stroke="#95CEF5" stroke-opacity="0.3" stroke-width="3"/>
<mask id="mask5_1855_2994" style="mask-type:alpha" maskUnits="userSpaceOnUse" x="443" y="129" width="336" height="319">
<path d="M443.789 434.867L574.395 129.092L675.306 130.873L778.5 448L443.789 434.867Z" fill="#C4C4C4"/>
</mask>
<g mask="url(#mask5_1855_2994)">
<circle cx="441.5" cy="441.501" r="190.5" transform="rotate(23.1287 441.5 441.501)" stroke="url(#paint2_linear_1855_2994)" stroke-width="8"/>
</g>
</g>
<mask id="mask6_1855_2994" style="mask-type:alpha" maskUnits="userSpaceOnUse" x="325" y="325" width="233" height="234">
<circle cx="441.5" cy="441.5" r="116" fill="#C4C4C4"/>
<circle cx="441.5" cy="441.5" r="116" stroke="white"/>
<circle cx="441.5" cy="441.5" r="116" stroke="white"/>
</mask>
<g mask="url(#mask6_1855_2994)">
<circle cx="441.5" cy="441.5" r="115" stroke="#95CEF5" stroke-opacity="0.3" stroke-width="3"/>
<circle cx="441.5" cy="441.5" r="115" stroke="#95CEF5" stroke-opacity="0.3" stroke-width="3"/>
<mask id="mask7_1855_2994" style="mask-type:alpha" maskUnits="userSpaceOnUse" x="441" y="64" width="151" height="371">
<path d="M441 434.5V102L534.5 64.0005L591.5 112.5L441 434.5Z" fill="#C4C4C4"/>
</mask>
<g mask="url(#mask7_1855_2994)">
<circle cx="441.5" cy="441.5" r="112.5" stroke="url(#paint3_linear_1855_2994)" stroke-width="8"/>
</g>
</g>
<defs>
<filter id="filter0_b_1855_2994" x="20.9121" y="20.9137" width="841.174" height="841.174" filterUnits="userSpaceOnUse" color-interpolation-filters="sRGB">
<feFlood flood-opacity="0" result="BackgroundImageFix"/>
<feGaussianBlur in="BackgroundImage" stdDeviation="42"/>
<feComposite in2="SourceAlpha" operator="in" result="effect1_backgroundBlur_1855_2994"/>
<feBlend mode="normal" in="SourceGraphic" in2="effect1_backgroundBlur_1855_2994" result="shape"/>
</filter>
<linearGradient id="paint0_linear_1855_2994" x1="308.385" y1="-1082.06" x2="441.499" y2="778.001" gradientUnits="userSpaceOnUse">
<stop stop-color="#04C9E4"/>
<stop offset="0.479167" stop-color="#FA41A5"/>
<stop offset="1" stop-color="#F3BD2F"/>
</linearGradient>
<linearGradient id="paint1_linear_1855_2994" x1="492.556" y1="-279.791" x2="532.268" y2="809.19" gradientUnits="userSpaceOnUse">
<stop stop-color="#04C9E4"/>
<stop offset="0.479167" stop-color="#FA41A5"/>
<stop offset="1" stop-color="#F3BD2F"/>
</linearGradient>
<linearGradient id="paint2_linear_1855_2994" x1="353.58" y1="234.388" x2="883.5" y2="457.001" gradientUnits="userSpaceOnUse">
<stop stop-color="#04C9E4"/>
<stop offset="0.479167" stop-color="#FA41A5"/>
<stop offset="1" stop-color="#F3BD2F"/>
</linearGradient>
<linearGradient id="paint3_linear_1855_2994" x1="441.5" y1="325" x2="441.5" y2="558" gradientUnits="userSpaceOnUse">
<stop stop-color="#04C9E4"/>
<stop offset="0.479167" stop-color="#FA41A5"/>
<stop offset="1" stop-color="#F3BD2F"/>
</linearGradient>
</defs>
</svg>
