<svg width="1728" height="199" viewBox="0 0 1728 199" fill="none" xmlns="http://www.w3.org/2000/svg">
<path d="M-126.055 46.0273V45.0273H-127.055V46.0273H-126.055ZM-126.055 193V194H-125.055V193H-126.055ZM-176.777 193H-177.777V194H-176.777V193ZM-176.777 46.0273H-175.777V45.0273H-176.777V46.0273ZM-256.484 46.0273H-257.484V47.0273H-256.484V46.0273ZM-256.484 5.14844V4.14844H-257.484V5.14844H-256.484ZM-46.2109 5.14844H-45.2109V4.14844H-46.2109V5.14844ZM-46.2109 46.0273V47.0273H-45.2109V46.0273H-46.2109ZM-127.055 46.0273V193H-125.055V46.0273H-127.055ZM-126.055 192H-176.777V194H-126.055V192ZM-175.777 193V46.0273H-177.777V193H-175.777ZM-176.777 45.0273H-256.484V47.0273H-176.777V45.0273ZM-255.484 46.0273V5.14844H-257.484V46.0273H-255.484ZM-256.484 6.14844H-46.2109V4.14844H-256.484V6.14844ZM-47.2109 5.14844V46.0273H-45.2109V5.14844H-47.2109ZM-46.2109 45.0273H-126.055V47.0273H-46.2109V45.0273ZM221.621 142.004L222.522 142.438L222.523 142.435L221.621 142.004ZM196.191 172.902L195.59 172.103L196.191 172.902ZM155.996 191.77L156.254 192.736L156.258 192.735L155.996 191.77ZM49.9023 191.77L49.6402 192.735L49.6468 192.736L49.9023 191.77ZM-16.1328 142.004L-17.0325 142.441L-17.0312 142.443L-16.1328 142.004ZM-16.1328 56.5547L-15.2344 56.9939L-15.2332 56.9913L-16.1328 56.5547ZM49.9023 6.78906L50.1593 7.75549L50.1631 7.75446L49.9023 6.78906ZM155.996 6.78906L155.732 7.75372L155.739 7.75549L155.996 6.78906ZM221.621 56.5547L220.719 56.9859L220.72 56.9885L221.621 56.5547ZM175.82 78.293L174.866 78.5905L174.868 78.598L174.87 78.6054L175.82 78.293ZM163.926 59.4258L163.224 60.1386L163.23 60.1442L163.926 59.4258ZM76.1523 43.1562L76.3485 44.1369L76.3595 44.1346L76.1523 43.1562ZM41.8359 59.6992L42.5345 60.4148L42.543 60.4063L41.8359 59.6992ZM32.6758 71.8672L33.5587 72.3368L33.5627 72.3291L32.6758 71.8672ZM27.7539 85.4023L26.7755 85.1954L26.774 85.2027L26.7726 85.2099L27.7539 85.4023ZM27.7539 113.293L26.7719 113.482L26.7737 113.491L26.7755 113.5L27.7539 113.293ZM32.6758 126.965L31.7888 127.427L31.7929 127.434L32.6758 126.965ZM56.0547 148.84L55.6074 149.734L55.6191 149.74L56.0547 148.84ZM76.1523 155.402L75.9452 156.381L75.9562 156.383L76.1523 155.402ZM163.926 138.996L163.23 138.278L163.224 138.283L163.926 138.996ZM175.82 120.266L174.869 119.957L174.867 119.964L175.82 120.266ZM229.508 99.2109C229.508 115.22 226.569 129.333 220.719 141.573L222.523 142.435C228.522 129.883 231.508 115.467 231.508 99.2109H229.508ZM220.72 141.57C214.866 153.729 206.493 163.904 195.59 172.103L196.792 173.702C207.947 165.312 216.528 154.888 222.522 142.438L220.72 141.57ZM195.59 172.103C184.68 180.308 171.402 186.548 155.734 190.805L156.258 192.735C172.127 188.423 185.646 182.085 196.792 173.702L195.59 172.103ZM155.738 190.803C140.16 194.97 122.612 197.059 103.086 197.059V199.059C122.752 199.059 140.478 196.955 156.254 192.736L155.738 190.803ZM103.086 197.059C83.5597 197.059 65.9196 194.97 50.1579 190.803L49.6468 192.736C65.6039 196.955 83.4195 199.059 103.086 199.059V197.059ZM50.1645 190.805C34.4963 186.548 21.1711 180.308 10.1682 172.101L8.97241 173.704C20.209 182.085 33.7719 188.424 49.6402 192.735L50.1645 190.805ZM10.1682 172.101C-0.825714 163.9 -9.28963 153.725 -15.2344 141.565L-17.0312 142.443C-10.9447 154.893 -2.27325 165.316 8.97241 173.704L10.1682 172.101ZM-15.2332 141.567C-21.1724 129.329 -24.1562 115.218 -24.1562 99.2109H-26.1562C-26.1562 115.469 -23.1245 129.887 -17.0325 142.441L-15.2332 141.567ZM-24.1562 99.2109C-24.1562 83.2034 -21.1723 69.1395 -15.2344 56.9939L-17.0312 56.1155C-23.1246 68.5792 -26.1562 82.9528 -26.1562 99.2109H-24.1562ZM-15.2332 56.9913C-9.28793 44.7405 -0.824127 34.5203 10.1682 26.3211L8.97241 24.718C-2.27481 33.1073 -10.9464 43.5772 -17.0325 56.1181L-15.2332 56.9913ZM10.1682 26.3211C21.1696 18.1152 34.4929 11.9211 50.1593 7.75549L49.6454 5.82264C33.7754 10.0424 20.2106 16.3354 8.97241 24.718L10.1682 26.3211ZM50.1631 7.75446C65.923 3.49749 83.5613 1.36328 103.086 1.36328V-0.636719C83.4179 -0.636719 65.6005 1.51293 49.6416 5.82366L50.1631 7.75446ZM103.086 1.36328C122.611 1.36328 140.157 3.49755 155.733 7.7537L156.26 5.82442C140.481 1.51287 122.754 -0.636719 103.086 -0.636719V1.36328ZM155.739 7.75549C171.405 11.921 184.682 18.1146 195.59 26.3187L196.792 24.7203C185.644 16.336 172.123 10.0425 156.253 5.82264L155.739 7.75549ZM195.59 26.3187C206.491 34.5168 214.864 44.7358 220.719 56.9859L222.523 56.1235C216.529 43.5819 207.949 33.1108 196.792 24.7203L195.59 26.3187ZM220.72 56.9885C226.569 69.1355 229.508 83.2013 229.508 99.2109H231.508C231.508 82.9549 228.523 68.5833 222.522 56.1209L220.72 56.9885ZM180.238 99.2109C180.238 92.0824 179.081 85.0044 176.77 77.9805L174.87 78.6054C177.117 85.4357 178.238 92.303 178.238 99.2109H180.238ZM176.775 77.9954C174.533 70.8037 170.473 64.3732 164.621 58.7074L163.23 60.1442C168.863 65.5981 172.732 71.7458 174.866 78.5905L176.775 77.9954ZM164.627 58.713C158.844 53.0228 150.956 48.4449 141.016 44.9473L140.352 46.8339C150.099 50.2635 157.706 54.7089 163.224 60.1386L164.627 58.713ZM141.016 44.9473C131.028 41.4333 118.373 39.6953 103.086 39.6953V41.6953C118.241 41.6953 130.651 43.4209 140.352 46.8339L141.016 44.9473ZM103.086 39.6953C92.8268 39.6953 83.7769 40.5195 75.9452 42.1779L76.3595 44.1346C84.0226 42.5118 92.9284 41.6953 103.086 41.6953V39.6953ZM75.9562 42.1757C68.1424 43.7384 61.3549 45.9506 55.6075 48.8243L56.5019 50.6132C62.0565 47.8359 68.6674 45.673 76.3484 44.1368L75.9562 42.1757ZM55.6075 48.8243C49.876 51.6901 45.0444 55.0765 41.1288 58.9921L42.543 60.4063C46.2837 56.6657 50.9313 53.3985 56.5019 50.6132L55.6075 48.8243ZM41.1374 58.9836C37.2398 62.7884 34.1204 66.9286 31.7889 71.4053L33.5627 72.3291C35.7884 68.0557 38.7758 64.084 42.5345 60.4148L41.1374 58.9836ZM31.7929 71.3976C29.4704 75.7639 27.7976 80.3641 26.7755 85.1954L28.7323 85.6093C29.7155 80.9615 31.3239 76.5381 33.5587 72.3368L31.7929 71.3976ZM26.7726 85.2099C25.8492 89.9193 25.3867 94.5866 25.3867 99.2109H27.3867C27.3867 94.7207 27.8357 90.1823 28.7352 85.5948L26.7726 85.2099ZM25.3867 99.2109C25.3867 103.925 25.8489 108.682 26.7719 113.482L28.7359 113.104C27.836 108.424 27.3867 103.794 27.3867 99.2109H25.3867ZM26.7755 113.5C27.7973 118.33 29.4691 122.973 31.7889 127.427L33.5627 126.503C31.3252 122.207 29.7158 117.735 28.7323 113.086L26.7755 113.5ZM31.7929 127.434C34.1246 131.818 37.243 135.91 41.1374 139.712L42.5345 138.281C38.7726 134.608 35.7842 130.679 33.5587 126.495L31.7929 127.434ZM41.1374 139.712C45.0515 143.533 49.8802 146.871 55.6075 149.734L56.5019 147.945C50.9271 145.158 46.2766 141.934 42.5345 138.281L41.1374 139.712ZM55.6191 149.74C61.3589 152.517 68.1383 154.727 75.9452 156.381L76.3595 154.424C68.6716 152.796 62.0526 150.631 56.4902 147.94L55.6191 149.74ZM75.9562 156.383C83.7837 157.948 92.8297 158.727 103.086 158.727V156.727C92.9255 156.727 84.0158 155.955 76.3484 154.422L75.9562 156.383ZM103.086 158.727C118.373 158.727 131.028 156.989 141.016 153.475L140.352 151.588C130.651 155.001 118.241 156.727 103.086 156.727V158.727ZM141.016 153.475C150.956 149.977 158.844 145.399 164.627 139.709L163.224 138.283C157.706 143.713 150.099 148.158 140.352 151.588L141.016 153.475ZM164.621 139.715C170.471 134.051 174.531 127.668 176.774 120.567L174.867 119.964C172.734 126.718 168.865 132.821 163.23 138.278L164.621 139.715ZM176.771 120.574C179.081 113.462 180.238 106.339 180.238 99.2109H178.238C178.238 106.119 177.117 113.033 174.869 119.957L176.771 120.574ZM455.137 193L454.141 193.089L454.222 194H455.137V193ZM447.754 166.203L446.866 166.663L446.868 166.667L447.754 166.203ZM432.578 146.242L431.899 146.977L431.905 146.982L432.578 146.242ZM412.07 132.434L411.636 133.334L411.64 133.336L412.07 132.434ZM388.691 123.82L388.428 124.785L388.439 124.788L388.691 123.82ZM364.629 119.309L364.515 120.302L364.527 120.303L364.629 119.309ZM327.441 117.941V116.941H326.441V117.941H327.441ZM327.441 193V194H328.441V193H327.441ZM276.719 193H275.719V194H276.719V193ZM276.719 5.14844V4.14844H275.719V5.14844H276.719ZM327.441 5.14844H328.441V4.14844H327.441V5.14844ZM327.441 77.6094H326.441V78.6094H327.441V77.6094ZM382.539 70.7734L382.24 69.8192L382.237 69.8202L382.539 70.7734ZM404.277 61.6133L404.752 62.4934L404.277 61.6133ZM422.871 47.9414L422.17 47.2284L422.871 47.9414ZM436.543 29.3477L437.43 29.8087L437.433 29.804L436.543 29.3477ZM443.379 5.14844V4.14844H442.475L442.384 5.04794L443.379 5.14844ZM495.059 5.14844L496.054 5.2398L496.155 4.14844H495.059V5.14844ZM489.043 32.082L488.11 31.7216L488.107 31.7309L489.043 32.082ZM477.695 53.6836L476.882 53.1024L476.88 53.1046L477.695 53.6836ZM445.566 82.5312L446.067 83.397L446.077 83.3911L445.566 82.5312ZM428.066 91.0078L428.422 91.9423L428.43 91.9393L428.066 91.0078ZM411.934 96.0664L411.704 95.0932L411.778 97.0543L411.934 96.0664ZM431.758 100.852L431.453 101.804L431.461 101.806L431.468 101.809L431.758 100.852ZM452.266 109.328L451.799 110.213L451.809 110.218L452.266 109.328ZM471.543 122.18L470.902 122.947L470.907 122.952L471.543 122.18ZM506.816 193V194H507.903L507.813 192.917L506.816 193ZM456.133 192.911C455.212 182.596 452.721 173.531 448.64 165.739L446.868 166.667C450.807 174.187 453.239 182.988 454.141 193.089L456.133 192.911ZM448.642 165.743C444.58 157.897 439.451 151.147 433.251 145.503L431.905 146.982C437.919 152.457 442.907 159.015 446.866 166.663L448.642 165.743ZM433.257 145.508C427.165 139.877 420.244 135.218 412.5 131.531L411.64 133.336C419.209 136.941 425.96 141.487 431.899 146.977L433.257 145.508ZM412.504 131.533C404.882 127.859 397.028 124.966 388.944 122.853L388.439 124.788C396.396 126.868 404.128 129.716 411.636 133.334L412.504 131.533ZM388.955 122.856C380.882 120.654 372.808 119.14 364.731 118.314L364.527 120.303C372.492 121.118 380.459 122.612 388.428 124.785L388.955 122.856ZM364.743 118.315C356.782 117.4 349.36 116.941 342.48 116.941V118.941C349.273 118.941 356.617 119.394 364.515 120.302L364.743 118.315ZM342.48 116.941H327.441V118.941H342.48V116.941ZM326.441 117.941V193H328.441V117.941H326.441ZM327.441 192H276.719V194H327.441V192ZM277.719 193V5.14844H275.719V193H277.719ZM276.719 6.14844H327.441V4.14844H276.719V6.14844ZM326.441 5.14844V77.6094H328.441V5.14844H326.441ZM327.441 78.6094H337.832V76.6094H327.441V78.6094ZM337.832 78.6094C344.902 78.6094 352.287 78.0585 359.985 76.9587L359.702 74.9788C352.088 76.0665 344.798 76.6094 337.832 76.6094V78.6094ZM359.985 76.9587C367.697 75.8571 375.316 74.1129 382.841 71.7267L382.237 69.8202C374.815 72.1736 367.303 73.8929 359.702 74.9788L359.985 76.9587ZM382.838 71.7277C390.464 69.339 397.768 66.2609 404.752 62.4934L403.803 60.7332C396.932 64.4397 389.745 67.4683 382.24 69.8192L382.838 71.7277ZM404.752 62.4934C411.76 58.7128 418.035 54.0998 423.572 48.6544L422.17 47.2284C416.77 52.5382 410.649 57.0398 403.803 60.7332L404.752 62.4934ZM423.572 48.6544C429.118 43.2008 433.738 36.9172 437.43 29.8086L435.656 28.8867C432.057 35.8146 427.561 41.9268 422.17 47.2284L423.572 48.6544ZM437.433 29.804C441.143 22.5696 443.452 14.3799 444.374 5.24894L442.384 5.04794C441.483 13.9639 439.235 21.9069 435.653 28.8913L437.433 29.804ZM443.379 6.14844H495.059V4.14844H443.379V6.14844ZM494.063 5.05708C493.158 14.9142 491.171 23.7996 488.11 31.7216L489.976 32.4424C493.113 24.3228 495.136 15.2525 496.054 5.2398L494.063 5.05708ZM488.107 31.7309C485.127 39.6775 481.384 46.7994 476.882 53.1024L478.509 54.2648C483.122 47.8074 486.944 40.5282 489.979 32.4332L488.107 31.7309ZM476.88 53.1046C472.459 59.3301 467.501 64.7824 462.008 69.4655L463.305 70.9876C468.931 66.1915 473.999 60.6152 478.511 54.2626L476.88 53.1046ZM462.008 69.4655C456.488 74.1711 450.837 78.2389 445.056 81.6714L446.077 83.3911C451.963 79.8965 457.705 75.7612 463.305 70.9876L462.008 69.4655ZM445.066 81.6655C439.273 85.0145 433.485 87.8175 427.703 90.0764L428.43 91.9393C434.314 89.6409 440.193 86.7928 446.067 83.397L445.066 81.6655ZM427.71 90.0733C422.002 92.2481 416.667 93.9202 411.704 95.0932L412.164 97.0396C417.227 95.8429 422.647 94.1426 428.422 91.9423L427.71 90.0733ZM411.778 97.0543C418.103 98.0481 424.661 99.6304 431.453 101.804L432.063 99.8991C425.183 97.6977 418.525 96.0899 412.089 95.0785L411.778 97.0543ZM431.468 101.809C438.331 103.886 445.108 106.686 451.799 110.213L452.732 108.443C445.934 104.861 439.039 102.01 432.047 99.8944L431.468 101.809ZM451.809 110.218C458.485 113.646 464.849 117.888 470.902 122.947L472.184 121.412C466.024 116.263 459.536 111.938 452.722 108.439L451.809 110.218ZM470.907 122.952C477.036 127.998 482.537 133.905 487.411 140.674L489.034 139.506C484.065 132.603 478.446 126.569 472.179 121.408L470.907 122.952ZM487.411 140.674C492.276 147.431 496.338 155.144 499.591 163.82L501.464 163.118C498.155 154.294 494.013 146.421 489.034 139.506L487.411 140.674ZM499.591 163.82C502.835 172.47 504.915 182.222 505.82 193.083L507.813 192.917C506.895 181.903 504.782 171.967 501.464 163.118L499.591 163.82ZM506.816 192H455.137V194H506.816V192ZM759.883 183.703L760.197 184.652L760.883 184.425V183.703H759.883ZM713.672 194.641L713.531 193.651L713.525 193.652L713.672 194.641ZM611.816 191.496L611.547 192.459L611.553 192.461L611.816 191.496ZM546.465 60.793L545.562 60.362L545.561 60.3649L546.465 60.793ZM571.074 29.0742L571.72 29.8381L571.72 29.8376L571.074 29.0742ZM609.629 8.01953L609.945 8.96823L609.95 8.96648L609.629 8.01953ZM706.699 7.33594L706.387 8.28587L706.394 8.28822L706.699 7.33594ZM743.203 27.707L742.537 28.4533L742.541 28.4563L743.203 27.707ZM766.855 61.0664L765.934 61.4542L765.936 61.4596L766.855 61.0664ZM775.332 119.309V120.309H776.332V119.309H775.332ZM590.215 119.309V118.309H588.9L589.251 119.575L590.215 119.309ZM598.281 135.578L597.485 136.183L597.492 136.192L598.281 135.578ZM637.52 156.223L637.32 157.202L637.322 157.203L637.52 156.223ZM698.77 157.453L698.891 158.446L698.901 158.444L698.77 157.453ZM723.789 152.941L724.018 153.915L724.029 153.912L723.789 152.941ZM744.707 146.652L744.366 145.712L744.362 145.714L744.707 146.652ZM759.883 139.816H760.883V138.057L759.371 138.957L759.883 139.816ZM724.883 82.1211V83.1211H725.986L725.878 82.0235L724.883 82.1211ZM720.645 67.7656L719.734 68.1794L719.739 68.1895L719.744 68.1994L720.645 67.7656ZM709.707 54.2305L710.332 53.4496L709.707 54.2305ZM690.02 44.3867L689.71 45.3376L689.719 45.3406L690.02 44.3867ZM609.219 55.1875L608.623 54.3844L608.617 54.3891L609.219 55.1875ZM596.23 68.7227L597.072 69.2626L596.23 68.7227ZM590.215 82.1211L589.239 81.9042L588.968 83.1211H590.215V82.1211ZM759.568 182.754C744.219 187.84 728.873 191.472 713.531 193.651L713.812 195.631C729.278 193.434 744.74 189.775 760.197 184.652L759.568 182.754ZM713.525 193.652C698.263 195.923 682.635 197.059 666.641 197.059V199.059C682.73 199.059 698.456 197.916 713.819 195.63L713.525 193.652ZM666.641 197.059C646.202 197.059 628.018 194.878 612.08 190.531L611.553 192.461C627.698 196.864 646.064 199.059 666.641 199.059V197.059ZM612.086 190.533C596.234 186.095 582.911 179.719 572.093 171.425L570.876 173.012C581.933 181.489 595.498 187.965 611.547 192.459L612.086 190.533ZM572.093 171.425C561.278 163.134 553.041 153.004 547.369 141.029L545.561 141.885C551.373 154.155 559.816 164.533 570.876 173.012L572.093 171.425ZM547.369 141.029C541.698 129.058 538.852 115.49 538.852 100.305H536.852C536.852 115.744 539.747 129.611 545.561 141.885L547.369 141.029ZM538.852 100.305C538.852 86.2249 541.694 73.2017 547.369 61.2211L545.561 60.3649C539.752 72.6291 536.852 85.947 536.852 100.305H538.852ZM547.367 61.2239C553.138 49.1413 561.252 38.681 571.72 29.8381L570.429 28.3103C559.75 37.332 551.458 48.0176 545.562 60.362L547.367 61.2239ZM571.72 29.8376C582.275 20.9067 595.011 13.9464 609.945 8.96822L609.313 7.07085C594.169 12.1187 581.202 19.1949 570.428 28.3108L571.72 29.8376ZM609.95 8.96648C624.87 3.9027 641.53 1.36328 659.941 1.36328V-0.636719C641.347 -0.636719 624.466 1.92803 609.307 7.07259L609.95 8.96648ZM659.941 1.36328C676.895 1.36328 692.373 3.67503 706.387 8.28584L707.012 6.38603C692.77 1.69997 677.077 -0.636719 659.941 -0.636719V1.36328ZM706.394 8.28822C720.493 12.8072 732.535 19.5321 742.538 28.4533L743.869 26.9607C733.637 17.8351 721.343 10.9793 707.004 6.38365L706.394 8.28822ZM742.541 28.4563C752.631 37.375 760.429 48.369 765.934 61.4542L767.777 60.6786C762.162 47.3315 754.192 36.0859 743.865 26.9578L742.541 28.4563ZM765.936 61.4596C771.524 74.5293 774.332 89.6127 774.332 106.73H776.332C776.332 89.3951 773.489 74.0358 767.775 60.6733L765.936 61.4596ZM774.332 106.73V119.309H776.332V106.73H774.332ZM775.332 118.309H590.215V120.309H775.332V118.309ZM589.251 119.575C590.926 125.623 593.672 131.161 597.485 136.183L599.078 134.973C595.417 130.152 592.785 124.843 591.179 119.042L589.251 119.575ZM597.492 136.192C601.42 141.242 606.685 145.52 613.259 149.038L614.202 147.275C607.833 143.866 602.799 139.758 599.071 134.964L597.492 136.192ZM613.259 149.038C619.837 152.559 627.864 155.275 637.32 157.202L637.719 155.243C628.399 153.343 620.567 150.681 614.202 147.275L613.259 149.038ZM637.322 157.203C646.884 159.134 658.256 160.094 671.426 160.094V158.094C658.345 158.094 647.113 157.14 637.717 155.242L637.322 157.203ZM671.426 160.094C680.762 160.094 689.917 159.545 698.891 158.446L698.648 156.461C689.757 157.549 680.683 158.094 671.426 158.094V160.094ZM698.901 158.444C707.862 157.256 716.235 155.746 724.018 153.915L723.56 151.968C715.849 153.782 707.542 155.281 698.638 156.462L698.901 158.444ZM724.029 153.912C731.805 151.991 738.814 149.885 745.052 147.591L744.362 145.714C738.205 147.977 731.268 150.064 723.549 151.971L724.029 153.912ZM745.048 147.593C751.37 145.302 756.492 142.998 760.394 140.676L759.371 138.957C755.617 141.192 750.622 143.445 744.366 145.712L745.048 147.593ZM758.883 139.816V183.703H760.883V139.816H758.883ZM725.878 82.0235C725.409 77.2404 723.958 72.3418 721.546 67.3318L719.744 68.1994C722.071 73.0332 723.445 77.7049 723.888 82.2187L725.878 82.0235ZM721.555 67.3518C719.201 62.1737 715.447 57.5419 710.332 53.4496L709.082 55.0113C713.993 58.9398 717.531 63.3315 719.734 68.1794L721.555 67.3518ZM710.332 53.4496C705.196 49.3413 698.513 46.0106 690.32 43.4328L689.719 45.3406C697.75 47.867 704.192 51.0988 709.082 55.0113L710.332 53.4496ZM690.329 43.4359C682.085 40.7496 671.855 39.4219 659.668 39.4219V41.4219C671.726 41.4219 681.73 42.7374 689.71 45.3375L690.329 43.4359ZM659.668 39.4219C648.196 39.4219 638.238 40.8439 629.814 43.7136L630.459 45.6067C638.624 42.8254 648.353 41.4219 659.668 41.4219V39.4219ZM629.814 43.7136C621.445 46.5647 614.375 50.117 608.623 54.3844L609.815 55.9906C615.365 51.8726 622.24 48.4067 630.459 45.6067L629.814 43.7136ZM608.617 54.3891C602.982 58.6383 598.564 63.2336 595.389 68.1827L597.072 69.2626C600.095 64.5503 604.336 60.1221 609.821 55.9859L608.617 54.3891ZM595.389 68.1827C592.248 73.0786 590.183 77.6543 589.239 81.9042L591.191 82.338C592.07 78.3847 594.015 74.0282 597.072 69.2626L595.389 68.1827ZM590.215 83.1211H724.883V81.1211H590.215V83.1211ZM1000.37 193H999.371V194H1000.37V193ZM998.594 68.7227L997.614 68.9248L997.615 68.9279L998.594 68.7227ZM991.895 54.0938L991.105 54.7077L991.113 54.7174L991.121 54.727L991.895 54.0938ZM978.359 44.6602L977.99 45.5896L977.999 45.5931L978.008 45.5965L978.359 44.6602ZM934.199 44.1133L934.433 45.0855L934.442 45.0834L934.199 44.1133ZM911.641 51.4961L912.024 52.4198L911.641 51.4961ZM890.176 62.2969L889.661 61.4394L889.656 61.4425L890.176 62.2969ZM872.129 75.1484L871.484 74.3846L871.129 74.6842V75.1484H872.129ZM872.129 193V194H873.129V193H872.129ZM821.406 193H820.406V194H821.406V193ZM821.406 5.14844V4.14844H820.406V5.14844H821.406ZM872.129 5.14844H873.129V4.14844H872.129V5.14844ZM872.129 30.8516H871.129V32.5747L872.625 31.7198L872.129 30.8516ZM892.5 20.0508L892.943 20.9475L892.952 20.9429L892.5 20.0508ZM915.469 10.207L915.13 9.26601L915.469 10.207ZM1004.06 5.01172L1003.76 5.96641L1003.78 5.96954L1004.06 5.01172ZM1029.49 18L1028.86 18.7749L1028.87 18.7799L1029.49 18ZM1045.35 38.3711L1044.44 38.7849L1044.45 38.7974L1045.35 38.3711ZM1050.96 193V194H1051.96V193H1050.96ZM1001.37 193V87.7266H999.371V193H1001.37ZM1001.37 87.7266C1001.37 80.6536 1000.77 74.2486 999.573 68.5174L997.615 68.9279C998.783 74.4988 999.371 80.7631 999.371 87.7266H1001.37ZM999.573 68.5206C998.36 62.6412 996.065 57.6116 992.668 53.4605L991.121 54.727C994.287 58.5968 996.458 63.3197 997.614 68.9248L999.573 68.5206ZM992.684 53.4798C989.359 49.2057 984.682 45.9632 978.71 43.7238L978.008 45.5965C983.703 47.7321 988.049 50.7787 991.105 54.7077L992.684 53.4798ZM978.728 43.7307C972.827 41.3888 965.26 40.2422 956.074 40.2422V42.2422C965.117 42.2422 972.408 43.3742 977.99 45.5896L978.728 43.7307ZM956.074 40.2422C949.055 40.2422 941.682 41.2119 933.957 43.1431L934.442 45.0834C942.029 43.1865 949.239 42.2422 956.074 42.2422V40.2422ZM933.965 43.1411C926.347 44.9767 918.778 47.4542 911.258 50.5723L912.024 52.4198C919.451 49.3401 926.921 46.8957 934.433 45.0855L933.965 43.1411ZM911.258 50.5723C903.739 53.6898 896.54 57.3122 889.661 61.4394L890.69 63.1544C897.483 59.0785 904.594 55.5003 912.024 52.4198L911.258 50.5723ZM889.656 61.4425C882.873 65.5672 876.815 69.8808 871.484 74.3846L872.774 75.9123C878.016 71.4838 883.989 67.2296 890.695 63.1513L889.656 61.4425ZM871.129 75.1484V193H873.129V75.1484H871.129ZM872.129 192H821.406V194H872.129V192ZM822.406 193V5.14844H820.406V193H822.406ZM821.406 6.14844H872.129V4.14844H821.406V6.14844ZM871.129 5.14844V30.8516H873.129V5.14844H871.129ZM872.625 31.7198C878.986 28.0849 885.759 24.494 892.943 20.9475L892.057 19.1541C884.84 22.7169 878.032 26.3266 871.633 29.9833L872.625 31.7198ZM892.952 20.9429C900.113 17.3169 907.731 14.0517 915.807 11.1481L915.13 9.26601C906.982 12.1957 899.288 15.493 892.048 19.1586L892.952 20.9429ZM915.807 11.1481C923.869 8.2493 932.435 5.89223 941.505 4.07824L941.112 2.11708C931.953 3.94891 923.292 6.33144 915.13 9.26601L915.807 11.1481ZM941.505 4.07824C950.549 2.26931 960.099 1.36328 970.156 1.36328V-0.636719C959.979 -0.636719 950.297 0.280167 941.112 2.11708L941.505 4.07824ZM970.156 1.36328C982.746 1.36328 993.944 2.90317 1003.76 5.96635L1004.36 4.05708C994.311 0.922352 982.905 -0.636719 970.156 -0.636719V1.36328ZM1003.78 5.96954C1013.7 8.94597 1022.05 13.2198 1028.86 18.7749L1030.12 17.2251C1023.08 11.4781 1014.48 7.09309 1004.35 4.05389L1003.78 5.96954ZM1028.87 18.7799C1035.67 24.2425 1040.86 30.9079 1044.44 38.7849L1046.26 37.9573C1042.55 29.7926 1037.17 22.8773 1030.12 17.2201L1028.87 18.7799ZM1044.45 38.7974C1048.11 46.5782 1049.96 55.3167 1049.96 65.0312H1051.96C1051.96 55.0583 1050.06 46.0234 1046.26 37.9448L1044.45 38.7974ZM1049.96 65.0312V193H1051.96V65.0312H1049.96ZM1050.96 192H1000.37V194H1050.96V192ZM1343.26 142.004L1344.16 142.438L1344.16 142.435L1343.26 142.004ZM1317.83 172.902L1317.23 172.103L1317.83 172.902ZM1277.64 191.77L1277.9 192.736L1277.9 192.735L1277.64 191.77ZM1171.54 191.77L1171.28 192.735L1171.29 192.736L1171.54 191.77ZM1105.51 142.004L1104.61 142.441L1104.61 142.443L1105.51 142.004ZM1105.51 56.5547L1106.41 56.9939L1106.41 56.9913L1105.51 56.5547ZM1171.54 6.78906L1171.8 7.75549L1171.8 7.75446L1171.54 6.78906ZM1277.64 6.78906L1277.37 7.75372L1277.38 7.75549L1277.64 6.78906ZM1343.26 56.5547L1342.36 56.9859L1342.36 56.9885L1343.26 56.5547ZM1297.46 78.293L1296.51 78.5905L1296.51 78.598L1296.51 78.6054L1297.46 78.293ZM1285.57 59.4258L1284.86 60.1386L1284.87 60.1442L1285.57 59.4258ZM1197.79 43.1562L1197.99 44.1369L1198 44.1346L1197.79 43.1562ZM1163.48 59.6992L1164.18 60.4148L1164.18 60.4063L1163.48 59.6992ZM1154.32 71.8672L1155.2 72.3368L1155.2 72.3291L1154.32 71.8672ZM1149.39 85.4023L1148.42 85.1954L1148.41 85.2027L1148.41 85.2099L1149.39 85.4023ZM1149.39 113.293L1148.41 113.482L1148.41 113.491L1148.42 113.5L1149.39 113.293ZM1154.32 126.965L1153.43 127.427L1153.43 127.434L1154.32 126.965ZM1177.7 148.84L1177.25 149.734L1177.26 149.74L1177.7 148.84ZM1197.79 155.402L1197.59 156.381L1197.6 156.383L1197.79 155.402ZM1285.57 138.996L1284.87 138.278L1284.87 138.283L1285.57 138.996ZM1297.46 120.266L1296.51 119.957L1296.51 119.964L1297.46 120.266ZM1351.15 99.2109C1351.15 115.22 1348.21 129.333 1342.36 141.573L1344.16 142.435C1350.16 129.883 1353.15 115.467 1353.15 99.2109H1351.15ZM1342.36 141.57C1336.51 153.729 1328.13 163.904 1317.23 172.103L1318.43 173.702C1329.59 165.312 1338.17 154.888 1344.16 142.438L1342.36 141.57ZM1317.23 172.103C1306.32 180.308 1293.04 186.548 1277.37 190.805L1277.9 192.735C1293.77 188.423 1307.29 182.085 1318.43 173.702L1317.23 172.103ZM1277.38 190.803C1261.8 194.97 1244.25 197.059 1224.73 197.059V199.059C1244.39 199.059 1262.12 196.955 1277.9 192.736L1277.38 190.803ZM1224.73 197.059C1205.2 197.059 1187.56 194.97 1171.8 190.803L1171.29 192.736C1187.24 196.955 1205.06 199.059 1224.73 199.059V197.059ZM1171.81 190.805C1156.14 186.548 1142.81 180.308 1131.81 172.101L1130.61 173.704C1141.85 182.085 1155.41 188.424 1171.28 192.735L1171.81 190.805ZM1131.81 172.101C1120.81 163.9 1112.35 153.725 1106.41 141.565L1104.61 142.443C1110.7 154.893 1119.37 165.316 1130.61 173.704L1131.81 172.101ZM1106.41 141.567C1100.47 129.329 1097.48 115.218 1097.48 99.2109H1095.48C1095.48 115.469 1098.52 129.887 1104.61 142.441L1106.41 141.567ZM1097.48 99.2109C1097.48 83.2034 1100.47 69.1395 1106.41 56.9939L1104.61 56.1155C1098.52 68.5792 1095.48 82.9528 1095.48 99.2109H1097.48ZM1106.41 56.9913C1112.35 44.7405 1120.82 34.5203 1131.81 26.3211L1130.61 24.718C1119.37 33.1073 1110.69 43.5772 1104.61 56.1181L1106.41 56.9913ZM1131.81 26.3211C1142.81 18.1152 1156.13 11.9211 1171.8 7.75549L1171.29 5.82264C1155.42 10.0424 1141.85 16.3354 1130.61 24.718L1131.81 26.3211ZM1171.8 7.75446C1187.56 3.49749 1205.2 1.36328 1224.73 1.36328V-0.636719C1205.06 -0.636719 1187.24 1.51293 1171.28 5.82366L1171.8 7.75446ZM1224.73 1.36328C1244.25 1.36328 1261.8 3.49755 1277.37 7.7537L1277.9 5.82442C1262.12 1.51287 1244.39 -0.636719 1224.73 -0.636719V1.36328ZM1277.38 7.75549C1293.05 11.921 1306.32 18.1146 1317.23 26.3187L1318.43 24.7203C1307.28 16.336 1293.76 10.0425 1277.89 5.82264L1277.38 7.75549ZM1317.23 26.3187C1328.13 34.5168 1336.5 44.7358 1342.36 56.9859L1344.16 56.1235C1338.17 43.5819 1329.59 33.1108 1318.43 24.7203L1317.23 26.3187ZM1342.36 56.9885C1348.21 69.1355 1351.15 83.2013 1351.15 99.2109H1353.15C1353.15 82.9549 1350.16 68.5833 1344.16 56.1209L1342.36 56.9885ZM1301.88 99.2109C1301.88 92.0824 1300.72 85.0044 1298.41 77.9805L1296.51 78.6054C1298.76 85.4357 1299.88 92.303 1299.88 99.2109H1301.88ZM1298.42 77.9954C1296.17 70.8037 1292.11 64.3732 1286.26 58.7074L1284.87 60.1442C1290.5 65.5981 1294.37 71.7458 1296.51 78.5905L1298.42 77.9954ZM1286.27 58.713C1280.48 53.0228 1272.6 48.4449 1262.66 44.9473L1261.99 46.8339C1271.74 50.2635 1279.35 54.7089 1284.87 60.1386L1286.27 58.713ZM1262.66 44.9473C1252.67 41.4333 1240.01 39.6953 1224.73 39.6953V41.6953C1239.88 41.6953 1252.29 43.4209 1261.99 46.8339L1262.66 44.9473ZM1224.73 39.6953C1214.47 39.6953 1205.42 40.5195 1197.59 42.1779L1198 44.1346C1205.66 42.5118 1214.57 41.6953 1224.73 41.6953V39.6953ZM1197.6 42.1757C1189.78 43.7384 1183 45.9506 1177.25 48.8243L1178.14 50.6132C1183.7 47.8359 1190.31 45.673 1197.99 44.1368L1197.6 42.1757ZM1177.25 48.8243C1171.52 51.6901 1166.69 55.0765 1162.77 58.9921L1164.18 60.4063C1167.92 56.6657 1172.57 53.3985 1178.14 50.6132L1177.25 48.8243ZM1162.78 58.9836C1158.88 62.7884 1155.76 66.9286 1153.43 71.4053L1155.2 72.3291C1157.43 68.0557 1160.42 64.084 1164.18 60.4148L1162.78 58.9836ZM1153.43 71.3976C1151.11 75.7639 1149.44 80.3641 1148.42 85.1954L1150.37 85.6093C1151.36 80.9615 1152.96 76.5381 1155.2 72.3368L1153.43 71.3976ZM1148.41 85.2099C1147.49 89.9193 1147.03 94.5866 1147.03 99.2109H1149.03C1149.03 94.7207 1149.48 90.1823 1150.38 85.5948L1148.41 85.2099ZM1147.03 99.2109C1147.03 103.925 1147.49 108.682 1148.41 113.482L1150.38 113.104C1149.48 108.424 1149.03 103.794 1149.03 99.2109H1147.03ZM1148.42 113.5C1149.44 118.33 1151.11 122.973 1153.43 127.427L1155.2 126.503C1152.97 122.207 1151.36 117.735 1150.37 113.086L1148.42 113.5ZM1153.43 127.434C1155.77 131.818 1158.88 135.91 1162.78 139.712L1164.18 138.281C1160.41 134.608 1157.42 130.679 1155.2 126.495L1153.43 127.434ZM1162.78 139.712C1166.69 143.533 1171.52 146.871 1177.25 149.734L1178.14 147.945C1172.57 145.158 1167.92 141.934 1164.18 138.281L1162.78 139.712ZM1177.26 149.74C1183 152.517 1189.78 154.727 1197.59 156.381L1198 154.424C1190.31 152.796 1183.69 150.631 1178.13 147.94L1177.26 149.74ZM1197.6 156.383C1205.42 157.948 1214.47 158.727 1224.73 158.727V156.727C1214.57 156.727 1205.66 155.955 1197.99 154.422L1197.6 156.383ZM1224.73 158.727C1240.01 158.727 1252.67 156.989 1262.66 153.475L1261.99 151.588C1252.29 155.001 1239.88 156.727 1224.73 156.727V158.727ZM1262.66 153.475C1272.6 149.977 1280.48 145.399 1286.27 139.709L1284.87 138.283C1279.35 143.713 1271.74 148.158 1261.99 151.588L1262.66 153.475ZM1286.26 139.715C1292.11 134.051 1296.17 127.668 1298.41 120.567L1296.51 119.964C1294.37 126.718 1290.51 132.821 1284.87 138.278L1286.26 139.715ZM1298.41 120.574C1300.72 113.462 1301.88 106.339 1301.88 99.2109H1299.88C1299.88 106.119 1298.76 113.033 1296.51 119.957L1298.41 120.574ZM1449.08 5.14844H1450.08V4.14844H1449.08V5.14844ZM1449.08 25.793H1448.08V27.6089L1449.62 26.638L1449.08 25.793ZM1463.57 17.043L1463.08 16.1738L1463.07 16.1775L1463.57 17.043ZM1480.66 8.83984L1480.3 7.91042L1480.29 7.91232L1480.66 8.83984ZM1500.49 2.82422L1500.7 3.80075L1500.71 3.79861L1500.49 2.82422ZM1544.51 2.96094L1544.24 3.922L1544.25 3.9257L1544.51 2.96094ZM1560.1 9.52344L1559.57 10.3714L1559.58 10.3779L1559.59 10.384L1560.1 9.52344ZM1571.45 18.5469L1570.71 19.2236L1570.72 19.2335L1571.45 18.5469ZM1579.51 28.3906L1578.69 28.961L1579.24 29.7564L1580.06 29.2299L1579.51 28.3906ZM1637.21 2.41406L1637.4 3.39625L1637.41 3.3936L1637.21 2.41406ZM1688.75 5.14844L1688.42 6.09126L1688.42 6.09229L1688.75 5.14844ZM1726.21 37.9609L1725.29 38.3589L1725.3 38.3656L1725.3 38.3722L1726.21 37.9609ZM1731.27 193V194H1732.27V193H1731.27ZM1680.55 193H1679.55V194H1680.55V193ZM1678.22 56.2812L1677.3 56.6724L1678.22 56.2812ZM1671.93 47.3945L1671.27 48.1405L1671.27 48.1463L1671.28 48.1519L1671.93 47.3945ZM1662.77 42.3359L1662.47 43.2895L1662.48 43.2917L1662.77 42.3359ZM1589.36 65.3047L1588.78 64.4867L1588.26 64.8524L1588.37 65.4785L1589.36 65.3047ZM1589.9 70.7734L1588.9 70.8169L1588.9 70.8385L1588.91 70.8601L1589.9 70.7734ZM1590.18 193V194H1591.18V193H1590.18ZM1539.45 193H1538.45V194H1539.45V193ZM1537.13 55.4609L1536.21 55.8605L1536.22 55.8693L1537.13 55.4609ZM1530.7 46.8477L1530.07 47.618L1530.07 47.6233L1530.08 47.6285L1530.7 46.8477ZM1521.41 42.1992L1521.13 43.1598L1521.14 43.1641L1521.16 43.1679L1521.41 42.1992ZM1495.29 42.7461L1495.04 41.7779L1495.04 41.779L1495.29 42.7461ZM1479.43 48.4883L1479.02 47.579L1479.01 47.5817L1479.43 48.4883ZM1463.71 57.2383L1463.17 56.3995L1463.16 56.4039L1463.71 57.2383ZM1449.08 68.1758L1448.44 67.4113L1448.08 67.7109V68.1758H1449.08ZM1449.08 193V194H1450.08V193H1449.08ZM1398.36 193H1397.36V194H1398.36V193ZM1398.36 5.14844V4.14844H1397.36V5.14844H1398.36ZM1448.08 5.14844V25.793H1450.08V5.14844H1448.08ZM1449.62 26.638C1454.07 23.8204 1458.89 20.9105 1464.08 17.9084L1463.07 16.1775C1457.87 19.1911 1453.03 22.1145 1448.55 24.9479L1449.62 26.638ZM1464.07 17.9121C1469.31 14.9282 1474.97 12.2129 1481.04 9.76736L1480.29 7.91232C1474.15 10.3886 1468.41 13.1421 1463.08 16.1738L1464.07 17.9121ZM1481.03 9.76926C1487.18 7.32956 1493.73 5.33952 1500.7 3.8007L1500.27 1.84773C1493.21 3.40788 1486.55 5.42825 1480.3 7.91043L1481.03 9.76926ZM1500.71 3.79861C1507.74 2.17696 1515.32 1.36328 1523.46 1.36328V-0.636719C1515.19 -0.636719 1507.45 0.190231 1500.26 1.84983L1500.71 3.79861ZM1523.46 1.36328C1531.41 1.36328 1538.33 2.22211 1544.24 3.92191L1544.79 1.99997C1538.66 0.236225 1531.55 -0.636719 1523.46 -0.636719V1.36328ZM1544.25 3.9257C1550.19 5.5458 1555.29 7.69827 1559.57 10.3714L1560.63 8.67544C1556.15 5.87986 1550.87 3.65732 1544.77 1.99617L1544.25 3.9257ZM1559.59 10.384C1563.98 12.9839 1567.68 15.9321 1570.71 19.2235L1572.18 17.8702C1569.01 14.4169 1565.15 11.3494 1560.61 8.66286L1559.59 10.384ZM1570.72 19.2335C1573.79 22.483 1576.44 25.7257 1578.69 28.961L1580.33 27.8202C1578.02 24.4931 1575.3 21.1732 1572.17 17.8603L1570.72 19.2335ZM1580.06 29.2299C1586.51 25.0492 1592.87 21.2334 1599.13 17.7822L1598.17 16.0303C1591.86 19.5061 1585.46 23.3466 1578.97 27.5514L1580.06 29.2299ZM1599.13 17.7822C1605.39 14.3393 1611.68 11.3965 1618.02 8.95253L1617.3 7.08653C1610.87 9.56448 1604.5 12.5461 1598.17 16.0303L1599.13 17.7822ZM1618.02 8.95253C1624.34 6.51284 1630.8 4.66088 1637.4 3.39616L1637.02 1.43196C1630.31 2.71933 1623.73 4.60435 1617.3 7.08653L1618.02 8.95253ZM1637.41 3.3936C1643.99 2.04081 1650.85 1.36328 1657.99 1.36328V-0.636719C1650.72 -0.636719 1643.73 0.0529442 1637.01 1.43453L1637.41 3.3936ZM1657.99 1.36328C1669.38 1.36328 1679.52 2.94571 1688.42 6.09126L1689.08 4.20562C1679.93 0.970963 1669.56 -0.636719 1657.99 -0.636719V1.36328ZM1688.42 6.09229C1697.43 9.24599 1705.01 13.5604 1711.19 19.0226L1712.52 17.5242C1706.12 11.8667 1698.3 7.43109 1689.08 4.20458L1688.42 6.09229ZM1711.19 19.0226C1717.37 24.4873 1722.07 30.9306 1725.29 38.3589L1727.13 37.563C1723.79 29.8611 1718.91 23.1793 1712.52 17.5242L1711.19 19.0226ZM1725.3 38.3722C1728.61 45.7111 1730.27 53.591 1730.27 62.0234H1732.27C1732.27 53.3204 1730.56 45.1587 1727.12 37.5497L1725.3 38.3722ZM1730.27 62.0234V193H1732.27V62.0234H1730.27ZM1731.27 192H1680.55V194H1731.27V192ZM1681.55 193V69.2695H1679.55V193H1681.55ZM1681.55 69.2695C1681.55 64.1565 1680.76 59.6878 1679.14 55.8901L1677.3 56.6724C1678.79 60.1664 1679.55 64.3566 1679.55 69.2695H1681.55ZM1679.14 55.8901C1677.54 52.1225 1675.36 49.0285 1672.59 46.6371L1671.28 48.1519C1673.79 50.3178 1675.8 53.1484 1677.3 56.6724L1679.14 55.8901ZM1672.6 46.6486C1669.93 44.2659 1666.75 42.5125 1663.07 41.3802L1662.48 43.2917C1665.91 44.3468 1668.83 45.9659 1671.27 48.1405L1672.6 46.6486ZM1663.07 41.3824C1659.51 40.2555 1655.71 39.6953 1651.7 39.6953V41.6953C1655.52 41.6953 1659.11 42.2289 1662.47 43.2895L1663.07 41.3824ZM1651.7 39.6953C1633.18 39.6953 1612.19 48.024 1588.78 64.4867L1589.93 66.1227C1613.18 49.7728 1633.76 41.6953 1651.7 41.6953V39.6953ZM1588.37 65.4785C1588.63 66.9734 1588.81 68.7508 1588.9 70.8169L1590.9 70.73C1590.81 68.6034 1590.62 66.7349 1590.34 65.1309L1588.37 65.4785ZM1588.91 70.8601C1589.09 72.9277 1589.18 74.9952 1589.18 77.0625H1591.18C1591.18 74.9371 1591.08 72.8119 1590.9 70.6868L1588.91 70.8601ZM1589.18 77.0625V193H1591.18V77.0625H1589.18ZM1590.18 192H1539.45V194H1590.18V192ZM1540.45 193V68.1758H1538.45V193H1540.45ZM1540.45 68.1758C1540.45 63.0651 1539.66 58.6788 1538.04 55.0526L1536.22 55.8693C1537.69 59.1702 1538.45 63.2605 1538.45 68.1758H1540.45ZM1538.05 55.0614C1536.44 51.374 1534.2 48.3663 1531.33 46.0668L1530.08 47.6285C1532.67 49.704 1534.72 52.4385 1536.21 55.8605L1538.05 55.0614ZM1531.34 46.0773C1528.58 43.7894 1525.34 42.176 1521.65 41.2306L1521.16 43.1679C1524.58 44.0453 1527.54 45.531 1530.07 47.618L1531.34 46.0773ZM1521.68 41.2387C1518.12 40.2077 1514.34 39.6953 1510.33 39.6953V41.6953C1514.17 41.6953 1517.76 42.1855 1521.13 43.1598L1521.68 41.2387ZM1510.33 39.6953C1505.5 39.6953 1500.4 40.3927 1495.04 41.7779L1495.54 43.7142C1500.76 42.3651 1505.69 41.6953 1510.33 41.6953V39.6953ZM1495.04 41.779C1489.78 43.1622 1484.44 45.0965 1479.02 47.579L1479.85 49.3976C1485.18 46.9581 1490.41 45.0644 1495.55 43.7132L1495.04 41.779ZM1479.01 47.5817C1473.68 50.0635 1468.4 53.0032 1463.17 56.3995L1464.26 58.0771C1469.41 54.7285 1474.61 51.8349 1479.86 49.3949L1479.01 47.5817ZM1463.16 56.4039C1458.02 59.7976 1453.12 63.4668 1448.44 67.4113L1449.73 68.9403C1454.35 65.0462 1459.19 61.4237 1464.26 58.0726L1463.16 56.4039ZM1448.08 68.1758V193H1450.08V68.1758H1448.08ZM1449.08 192H1398.36V194H1449.08V192ZM1399.36 193V5.14844H1397.36V193H1399.36ZM1398.36 6.14844H1449.08V4.14844H1398.36V6.14844ZM1789.38 193H1788.38V194H1789.38V193ZM1789.38 5.14844V4.14844H1788.38V5.14844H1789.38ZM1840.1 5.14844H1841.1V4.14844H1840.1V5.14844ZM1840.1 193V194H1841.1V193H1840.1ZM1790.38 193V5.14844H1788.38V193H1790.38ZM1789.38 6.14844H1840.1V4.14844H1789.38V6.14844ZM1839.1 5.14844V193H1841.1V5.14844H1839.1ZM1840.1 192H1789.38V194H1840.1V192ZM2106.02 180.148L2106.4 181.072L2107.02 180.815V180.148H2106.02ZM2065.55 193.137L2065.33 192.16L2065.32 192.162L2065.55 193.137ZM2042.99 196.828L2042.89 195.833L2042.88 195.834L2042.99 196.828ZM1964.79 191.906L1964.54 192.875L1964.54 192.875L1964.79 191.906ZM1923.22 173.449L1922.64 174.262L1922.65 174.267L1923.22 173.449ZM1896.15 142.551L1895.27 143.014L1895.27 143.016L1896.15 142.551ZM1896.15 56.0078L1897.04 56.4733L1897.04 56.4706L1896.15 56.0078ZM1923.22 25.1094L1923.8 25.9253L1923.8 25.9244L1923.22 25.1094ZM1964.79 6.51562L1964.54 5.54646L1964.54 5.54679L1964.79 6.51562ZM2042.99 1.59375L2042.88 2.58832L2042.89 2.58844L2042.99 1.59375ZM2065.55 5.28516L2065.32 6.25962L2065.33 6.26222L2065.55 5.28516ZM2106.02 18.2734H2107.02V17.6068L2106.4 17.3504L2106.02 18.2734ZM2106.02 63.9375L2105.54 64.816L2107.02 65.6197V63.9375H2106.02ZM2089.61 55.5977L2089.17 56.495L2089.18 56.5005L2089.61 55.5977ZM2070.61 48.0781L2070.29 49.0281L2070.3 49.0317L2070.61 48.0781ZM2047.77 42.6094L2047.6 43.5943L2047.61 43.5961L2047.77 42.6094ZM1979.96 45.3438L1979.66 44.3887L1979.66 44.3894L1979.96 45.3438ZM1941.54 77.3359L1942.48 77.6777L1942.48 77.6738L1941.54 77.3359ZM1939.36 114.113L1938.38 114.33L1938.38 114.334L1939.36 114.113ZM1944.82 127.922L1943.96 128.426L1943.97 128.434L1944.82 127.922ZM1991.45 155.539L1991.26 156.521L1991.27 156.524L1991.45 155.539ZM2047.77 155.812L2047.93 156.801L2047.94 156.799L2047.77 155.812ZM2089.61 143.098L2090.04 144.001L2090.05 143.995L2089.61 143.098ZM2106.02 134.484H2107.02V132.776L2105.53 133.612L2106.02 134.484ZM2105.63 179.225C2099.09 181.95 2092.51 184.402 2085.88 186.581L2086.5 188.481C2093.18 186.286 2099.81 183.816 2106.4 181.072L2105.63 179.225ZM2085.88 186.581C2079.26 188.758 2072.41 190.617 2065.33 192.16L2065.76 194.114C2072.9 192.557 2079.82 190.68 2086.5 188.481L2085.88 186.581ZM2065.32 192.162C2058.26 193.793 2050.78 195.017 2042.89 195.833L2043.09 197.823C2051.06 196.999 2058.62 195.762 2065.77 194.111L2065.32 192.162ZM2042.88 195.834C2035.08 196.65 2026.69 197.059 2017.7 197.059V199.059C2026.75 199.059 2035.21 198.647 2043.09 197.823L2042.88 195.834ZM2017.7 197.059C1998.63 197.059 1981.07 195.015 1965.03 190.937L1964.54 192.875C1980.76 197 1998.48 199.059 2017.7 199.059V197.059ZM1965.03 190.937C1949.09 186.861 1935.35 180.754 1923.8 172.631L1922.65 174.267C1934.43 182.55 1948.4 188.748 1964.54 192.875L1965.03 190.937ZM1923.81 172.636C1912.35 164.43 1903.43 154.249 1897.04 142.085L1895.27 143.016C1901.81 155.462 1910.94 165.879 1922.64 174.262L1923.81 172.636ZM1897.04 142.088C1890.65 129.859 1887.45 115.576 1887.45 99.2109H1885.45C1885.45 115.841 1888.71 130.451 1895.27 143.014L1897.04 142.088ZM1887.45 99.2109C1887.45 82.8456 1890.65 68.6099 1897.04 56.4733L1895.27 55.5423C1888.71 68.0151 1885.45 82.5815 1885.45 99.2109H1887.45ZM1897.04 56.4706C1903.44 44.2173 1912.35 34.0382 1923.8 25.9253L1922.64 24.2935C1910.94 32.5868 1901.81 43.0066 1895.27 55.545L1897.04 56.4706ZM1923.8 25.9244C1935.35 17.7116 1949.09 11.5603 1965.03 7.48446L1964.54 5.54679C1948.4 9.6741 1934.42 15.9186 1922.64 24.2943L1923.8 25.9244ZM1965.03 7.48479C1981.07 3.40649 1998.63 1.36328 2017.7 1.36328V-0.636719C1998.48 -0.636719 1980.76 1.42163 1964.54 5.54646L1965.03 7.48479ZM2017.7 1.36328C2026.69 1.36328 2035.08 1.7721 2042.88 2.58832L2043.09 0.599182C2035.21 -0.225224 2026.75 -0.636719 2017.7 -0.636719V1.36328ZM2042.89 2.58844C2050.78 3.4049 2058.26 4.62901 2065.32 6.25954L2065.77 4.31076C2058.62 2.66006 2051.06 1.42323 2043.09 0.59906L2042.89 2.58844ZM2065.33 6.26222C2072.41 7.80466 2079.26 9.66424 2085.88 11.8406L2086.5 9.94065C2079.82 7.74201 2072.9 5.86461 2065.76 4.30809L2065.33 6.26222ZM2085.88 11.8406C2092.51 14.02 2099.09 16.4719 2105.63 19.1965L2106.4 17.3504C2099.81 14.6062 2093.18 12.1363 2086.5 9.94065L2085.88 11.8406ZM2105.02 18.2734V63.9375H2107.02V18.2734H2105.02ZM2106.49 63.059C2101.28 60.2243 2095.8 57.4363 2090.04 54.6948L2089.18 56.5005C2094.91 59.2278 2100.36 61.9996 2105.54 64.816L2106.49 63.059ZM2090.05 54.7004C2084.26 51.8498 2077.88 49.3253 2070.91 47.1245L2070.3 49.0317C2077.19 51.206 2083.48 53.6944 2089.17 56.4949L2090.05 54.7004ZM2070.92 47.1282C2063.94 44.8312 2056.27 42.997 2047.94 41.6227L2047.61 43.5961C2055.86 44.9561 2063.42 46.7677 2070.29 49.0281L2070.92 47.1282ZM2047.95 41.6245C2039.58 40.1541 2030.18 39.4219 2019.75 39.4219V41.4219C2030.09 41.4219 2039.37 42.148 2047.6 43.5943L2047.95 41.6245ZM2019.75 39.4219C2003.74 39.4219 1990.37 41.0677 1979.66 44.3887L1980.26 46.2988C1990.7 43.0573 2003.86 41.4219 2019.75 41.4219V39.4219ZM1979.66 44.3894C1969.09 47.6994 1960.57 52.131 1954.15 57.7141L1955.46 59.2234C1961.62 53.869 1969.87 49.5506 1980.26 46.2981L1979.66 44.3894ZM1954.15 57.7141C1947.74 63.2833 1943.22 69.7115 1940.6 76.9981L1942.48 77.6738C1944.97 70.7417 1949.29 64.5917 1955.46 59.2234L1954.15 57.7141ZM1940.6 76.9942C1938.01 84.1234 1936.71 91.5308 1936.71 99.2109H1938.71C1938.71 91.7608 1939.97 84.5849 1942.48 77.6777L1940.6 76.9942ZM1936.71 99.2109C1936.71 104.297 1937.27 109.338 1938.38 114.33L1940.33 113.896C1939.25 109.045 1938.71 104.151 1938.71 99.2109H1936.71ZM1938.38 114.334C1939.5 119.267 1941.36 123.965 1943.96 128.426L1945.69 127.418C1943.19 123.129 1941.4 118.621 1940.33 113.892L1938.38 114.334ZM1943.97 128.434C1946.57 132.814 1949.97 136.857 1954.14 140.564L1955.47 139.069C1951.44 135.484 1948.18 131.598 1945.68 127.41L1943.97 128.434ZM1954.14 140.564C1958.34 144.293 1963.54 147.491 1969.72 150.168L1970.51 148.332C1964.49 145.723 1959.48 142.631 1955.47 139.069L1954.14 140.564ZM1969.72 150.168C1975.91 152.846 1983.09 154.961 1991.26 156.521L1991.63 154.557C1983.58 153.018 1976.54 150.94 1970.51 148.332L1969.72 150.168ZM1991.27 156.524C1999.54 157.995 2009.04 158.727 2019.75 158.727V156.727C2009.13 156.727 1999.75 156 1991.62 154.555L1991.27 156.524ZM2019.75 158.727C2030.18 158.727 2039.57 158.086 2047.93 156.801L2047.62 154.824C2039.39 156.091 2030.1 156.727 2019.75 156.727V158.727ZM2047.94 156.799C2056.27 155.425 2063.93 153.638 2070.91 151.434L2070.3 149.527C2063.43 151.698 2055.87 153.465 2047.61 154.826L2047.94 156.799ZM2070.91 151.434C2077.87 149.235 2084.25 146.757 2090.04 144.001L2089.18 142.195C2083.48 144.907 2077.19 147.351 2070.3 149.527L2070.91 151.434ZM2090.05 143.995C2095.81 141.162 2101.29 138.283 2106.51 135.356L2105.53 133.612C2100.35 136.52 2094.9 139.382 2089.17 142.2L2090.05 143.995ZM2105.02 134.484V180.148H2107.02V134.484H2105.02ZM2326.41 58.0586L2325.97 58.9576L2327.41 59.6581V58.0586H2326.41ZM2292.5 46.0273L2292.24 46.9924L2292.25 46.9953L2292.5 46.0273ZM2268.44 41.1055L2268.28 42.0933L2268.29 42.0948L2268.44 41.1055ZM2223.05 39.7383L2222.96 38.7421L2222.96 38.7422L2223.05 39.7383ZM2210.06 41.5156L2209.86 40.536L2209.85 40.5371L2210.06 41.5156ZM2201.72 44.1133L2202.13 45.0237L2202.14 45.0196L2202.15 45.0154L2201.72 44.1133ZM2194.88 49.9922L2193.94 49.6504L2193.93 49.6892L2193.92 49.7291L2194.88 49.9922ZM2198.57 59.9727L2197.97 60.7663L2197.97 60.7728L2197.98 60.7791L2198.57 59.9727ZM2209.79 65.4414L2209.46 66.3864L2209.47 66.3892L2209.47 66.3919L2209.79 65.4414ZM2226.33 69.9531L2226.1 70.9274L2226.12 70.9303L2226.33 69.9531ZM2246.29 74.3281L2246.07 75.3046L2246.08 75.3062L2246.09 75.3077L2246.29 74.3281ZM2268.16 79.25L2267.93 80.2215L2267.93 80.2232L2267.94 80.2248L2268.16 79.25ZM2290.04 85.4023L2289.72 86.3498L2289.72 86.351L2290.04 85.4023ZM2310.14 93.7422L2309.68 94.6341L2309.69 94.6392L2310.14 93.7422ZM2337.21 161.145L2336.31 160.702L2337.21 161.145ZM2324.36 177.551L2323.72 176.781L2323.71 176.787L2324.36 177.551ZM2305.9 188.352L2306.25 189.287L2306.26 189.283L2305.9 188.352ZM2283.75 194.504L2283.56 193.521L2283.56 193.522L2283.75 194.504ZM2260.37 197.375L2260.31 196.377L2260.31 196.377L2260.37 197.375ZM2186.27 193.41L2186.46 192.429L2186.46 192.428L2186.27 193.41ZM2144.43 182.062H2143.43V182.755L2144.08 182.999L2144.43 182.062ZM2144.43 137.219L2144.92 136.344L2143.43 135.52V137.219H2144.43ZM2187.09 153.488L2186.85 154.459L2186.85 154.46L2187.09 153.488ZM2264.75 157.727L2264.91 158.714L2264.92 158.712L2264.75 157.727ZM2280.74 153.352L2281.15 154.263L2281.16 154.259L2281.17 154.254L2280.74 153.352ZM2286.48 133.664L2285.84 134.432L2285.85 134.439L2285.86 134.445L2286.48 133.664ZM2275.27 127.785L2274.93 128.724L2274.94 128.727L2274.95 128.73L2275.27 127.785ZM2258.73 123.137L2258.5 124.111L2258.52 124.114L2258.73 123.137ZM2238.63 118.898L2238.43 119.878L2238.44 119.879L2238.44 119.88L2238.63 118.898ZM2195.02 108.508L2194.71 109.459L2194.72 109.461L2194.73 109.464L2195.02 108.508ZM2175.06 100.715L2174.63 101.617L2174.64 101.622L2175.06 100.715ZM2158.52 90.1875L2157.86 90.9437L2157.87 90.9509L2158.52 90.1875ZM2147.3 76.1055L2146.41 76.5587L2146.42 76.5649L2147.3 76.1055ZM2159.34 20.7344L2159.98 21.4956L2159.99 21.4946L2159.34 20.7344ZM2176.56 10.3438L2176.19 9.41615L2176.18 9.418L2176.56 10.3438ZM2262.56 1.45703L2262.46 2.45253L2262.46 2.45263L2262.56 1.45703ZM2285.39 4.60156L2285.21 5.58531L2285.22 5.5873L2285.39 4.60156ZM2306.99 9.11328L2306.75 10.0834L2306.75 10.0842L2306.99 9.11328ZM2326.41 14.582H2327.41V13.8542L2326.71 13.6305L2326.41 14.582ZM2326.84 57.1596C2323.25 55.4085 2318.52 53.4364 2312.68 51.2434L2311.97 53.116C2317.79 55.298 2322.45 57.2451 2325.97 58.9576L2326.84 57.1596ZM2312.68 51.2434C2306.8 49.0412 2300.16 46.9803 2292.75 45.0593L2292.25 46.9953C2299.61 48.9025 2306.18 50.9432 2311.97 53.116L2312.68 51.2434ZM2292.76 45.0623C2285.34 43.0454 2277.28 41.3972 2268.58 40.1162L2268.29 42.0948C2276.92 43.3659 2284.9 44.9989 2292.24 46.9924L2292.76 45.0623ZM2268.59 40.1177C2259.88 38.7421 2250.94 38.0547 2241.78 38.0547V40.0547C2250.84 40.0547 2259.68 40.7345 2268.28 42.0932L2268.59 40.1177ZM2241.78 38.0547C2234.47 38.0547 2228.19 38.2831 2222.96 38.7421L2223.13 40.7345C2228.29 40.2821 2234.5 40.0547 2241.78 40.0547V38.0547ZM2222.96 38.7422C2217.83 39.2001 2213.46 39.7969 2209.86 40.536L2210.26 42.4952C2213.77 41.776 2218.06 41.1879 2223.14 40.7343L2222.96 38.7422ZM2209.85 40.5371C2206.35 41.2751 2203.48 42.1613 2201.29 43.2111L2202.15 45.0154C2204.15 44.0601 2206.84 43.2145 2210.26 42.4942L2209.85 40.5371ZM2201.3 43.2029C2199.25 44.139 2197.59 45.1479 2196.39 46.2472L2197.75 47.7215C2198.73 46.8156 2200.18 45.9105 2202.13 45.0237L2201.3 43.2029ZM2196.39 46.2472C2195.23 47.3184 2194.38 48.4494 2193.94 49.6504L2195.82 50.3339C2196.11 49.5298 2196.73 48.6556 2197.75 47.7215L2196.39 46.2472ZM2193.92 49.7291C2193.63 50.7958 2193.47 51.7974 2193.47 52.7266H2195.47C2195.47 52.0151 2195.59 51.1938 2195.85 50.2553L2193.92 49.7291ZM2193.47 52.7266C2193.47 55.8514 2195.06 58.5349 2197.97 60.7663L2199.18 59.179C2196.62 57.2177 2195.47 55.0705 2195.47 52.7266H2193.47ZM2197.98 60.7791C2200.83 62.8644 2204.66 64.7271 2209.46 66.3864L2210.11 64.4964C2205.43 62.8744 2201.79 61.0913 2199.17 59.1663L2197.98 60.7791ZM2209.47 66.3919C2214.25 67.9527 2219.79 69.4641 2226.1 70.9273L2226.55 68.979C2220.29 67.5255 2214.8 66.0291 2210.1 64.4909L2209.47 66.3919ZM2226.12 70.9303C2232.4 72.2972 2239.06 73.7553 2246.07 75.3046L2246.5 73.3516C2239.49 71.802 2232.83 70.3434 2226.54 68.976L2226.12 70.9303ZM2246.09 75.3077C2253.18 76.7634 2260.46 78.4014 2267.93 80.2215L2268.4 78.2785C2260.92 76.4528 2253.61 74.8095 2246.49 73.3485L2246.09 75.3077ZM2267.94 80.2248C2275.47 81.9494 2282.73 83.9912 2289.72 86.3498L2290.36 84.4549C2283.31 82.0739 2275.98 80.0141 2268.39 78.2752L2267.94 80.2248ZM2289.72 86.351C2296.79 88.7062 2303.44 91.4675 2309.68 94.634L2310.59 92.8504C2304.25 89.6366 2297.51 86.8381 2290.36 84.4537L2289.72 86.351ZM2309.69 94.6392C2315.91 97.703 2321.35 101.301 2326.02 105.429L2327.34 103.931C2322.53 99.6731 2316.94 95.9793 2310.58 92.8452L2309.69 94.6392ZM2326.02 105.429C2330.66 109.54 2334.32 114.269 2337 119.619L2338.79 118.725C2335.99 113.137 2332.17 108.205 2327.34 103.931L2326.02 105.429ZM2337 119.619C2339.65 124.93 2340.99 131.016 2340.99 137.902H2342.99C2342.99 130.752 2341.6 124.351 2338.79 118.725L2337 119.619ZM2340.99 137.902C2340.99 146.81 2339.42 154.399 2336.31 160.702L2338.1 161.587C2341.38 154.948 2342.99 147.042 2342.99 137.902H2340.99ZM2336.31 160.702C2333.18 167.052 2328.98 172.408 2323.72 176.781L2324.99 178.32C2330.48 173.761 2334.85 168.18 2338.1 161.587L2336.31 160.702ZM2323.71 176.787C2318.51 181.176 2312.46 184.722 2305.54 187.42L2306.26 189.283C2313.37 186.512 2319.62 182.858 2325 178.315L2323.71 176.787ZM2305.55 187.416C2298.58 190.037 2291.26 192.073 2283.56 193.521L2283.94 195.487C2291.74 194.018 2299.18 191.952 2306.25 189.287L2305.55 187.416ZM2283.56 193.522C2275.95 194.972 2268.2 195.923 2260.31 196.377L2260.43 198.373C2268.4 197.915 2276.24 196.953 2283.94 195.486L2283.56 193.522ZM2260.31 196.377C2252.49 196.831 2245.04 197.059 2237.95 197.059V199.059C2245.08 199.059 2252.57 198.83 2260.43 198.373L2260.31 196.377ZM2237.95 197.059C2219.41 197.059 2202.25 195.514 2186.46 192.429L2186.08 194.392C2202.01 197.505 2219.3 199.059 2237.95 199.059V197.059ZM2186.46 192.428C2170.73 189.428 2156.84 185.66 2144.79 181.126L2144.08 182.999C2156.27 187.58 2170.27 191.376 2186.08 194.392L2186.46 192.428ZM2145.43 182.062V137.219H2143.43V182.062H2145.43ZM2143.95 138.093C2156.52 145.069 2170.83 150.522 2186.85 154.459L2187.33 152.517C2171.45 148.616 2157.32 143.223 2144.92 136.344L2143.95 138.093ZM2186.85 154.46C2202.98 158.4 2220.2 160.367 2238.5 160.367V158.367C2220.34 158.367 2203.28 156.415 2187.33 152.517L2186.85 154.46ZM2238.5 160.367C2249.28 160.367 2258.09 159.819 2264.91 158.714L2264.59 156.739C2257.92 157.821 2249.22 158.367 2238.5 158.367V160.367ZM2264.92 158.712C2271.79 157.521 2277.22 156.044 2281.15 154.263L2280.33 152.44C2276.61 154.122 2271.37 155.563 2264.58 156.741L2264.92 158.712ZM2281.17 154.254C2285.06 152.401 2287.86 150.342 2289.37 148.019L2287.7 146.926C2286.48 148.796 2284.08 150.656 2280.31 152.449L2281.17 154.254ZM2289.37 148.019C2290.81 145.809 2291.59 143.616 2291.59 141.457H2289.59C2289.59 143.126 2288.99 144.943 2287.7 146.926L2289.37 148.019ZM2291.59 141.457C2291.59 138.094 2290.04 135.226 2287.11 132.883L2285.86 134.445C2288.4 136.478 2289.59 138.805 2289.59 141.457H2291.59ZM2287.12 132.896C2284.27 130.515 2280.41 128.505 2275.6 126.84L2274.95 128.73C2279.61 130.346 2283.23 132.256 2285.84 134.432L2287.12 132.896ZM2275.62 126.846C2270.82 125.095 2265.26 123.534 2258.94 122.16L2258.52 124.114C2264.77 125.474 2270.24 127.012 2274.93 128.724L2275.62 126.846ZM2258.96 122.163C2252.65 120.701 2245.94 119.286 2238.82 117.916L2238.44 119.88C2245.54 121.246 2252.23 122.656 2258.5 124.111L2258.96 122.163ZM2238.84 117.919C2231.82 116.462 2224.58 114.913 2217.11 113.273L2216.68 115.227C2224.16 116.868 2231.41 118.418 2238.43 119.878L2238.84 117.919ZM2217.11 113.273C2209.66 111.638 2202.4 109.731 2195.31 107.552L2194.73 109.464C2201.86 111.659 2209.18 113.58 2216.68 115.227L2217.11 113.273ZM2195.33 107.557C2188.35 105.29 2181.73 102.706 2175.48 99.8077L2174.64 101.622C2180.97 104.557 2187.66 107.169 2194.71 109.459L2195.33 107.557ZM2175.49 99.8127C2169.27 96.8373 2163.83 93.373 2159.16 89.4241L2157.87 90.9509C2162.68 95.0228 2168.27 98.5767 2174.63 101.617L2175.49 99.8127ZM2159.17 89.4313C2154.52 85.4084 2150.87 80.8137 2148.19 75.646L2146.42 76.5649C2149.21 81.9702 2153.03 86.7634 2157.86 90.9437L2159.17 89.4313ZM2148.2 75.6522C2145.54 70.4363 2144.2 64.3982 2144.2 57.5117H2142.2C2142.2 64.6617 2143.6 71.0194 2146.41 76.5587L2148.2 75.6522ZM2144.2 57.5117C2144.2 49.333 2145.64 42.3341 2148.48 36.4831L2146.68 35.6106C2143.68 41.7909 2142.2 49.1019 2142.2 57.5117H2144.2ZM2148.48 36.4831C2151.34 30.5877 2155.17 25.5955 2159.98 21.4956L2158.69 19.9731C2153.66 24.2587 2149.65 29.4748 2146.68 35.6106L2148.48 36.4831ZM2159.99 21.4946C2164.91 17.2841 2170.56 13.8748 2176.94 11.2695L2176.18 9.418C2169.62 12.0991 2163.79 15.6169 2158.69 19.9741L2159.99 21.4946ZM2176.94 11.2713C2183.44 8.65178 2190.26 6.61818 2197.41 5.17151L2197.01 3.21131C2189.75 4.6813 2182.81 6.74926 2176.19 9.41617L2176.94 11.2713ZM2197.41 5.17151C2204.56 3.72157 2211.81 2.72466 2219.16 2.18086L2219.01 0.186325C2211.58 0.736279 2204.25 1.74458 2197.01 3.21131L2197.41 5.17151ZM2219.16 2.18086C2226.52 1.63561 2233.51 1.36328 2240.14 1.36328V-0.636719C2233.46 -0.636719 2226.41 -0.362171 2219.01 0.186325L2219.16 2.18086ZM2240.14 1.36328C2247.4 1.36328 2254.84 1.7262 2262.46 2.45253L2262.65 0.461536C2254.97 -0.27047 2247.46 -0.636719 2240.14 -0.636719V1.36328ZM2262.46 2.45263C2270.18 3.17914 2277.77 4.2234 2285.21 5.58524L2285.57 3.61789C2278.07 2.24535 2270.43 1.19325 2262.65 0.46143L2262.46 2.45263ZM2285.22 5.5873C2292.67 6.85934 2299.85 8.35815 2306.75 10.0834L2307.23 8.14314C2300.28 6.40487 2293.06 4.89587 2285.56 3.61583L2285.22 5.5873ZM2306.75 10.0842C2313.75 11.8112 2320.2 13.6278 2326.1 15.5336L2326.71 13.6305C2320.76 11.7081 2314.27 9.87894 2307.23 8.1424L2306.75 10.0842ZM2325.41 14.582V58.0586H2327.41V14.582H2325.41Z" fill="url(#paint0_linear_1855_2572)"/>
<defs>
<linearGradient id="paint0_linear_1855_2572" x1="228.596" y1="-429.398" x2="2427.73" y2="458.772" gradientUnits="userSpaceOnUse">
<stop stop-color="#04C9E4"/>
<stop offset="0.479167" stop-color="#FA41A5" stop-opacity="0.51"/>
<stop offset="1" stop-color="#F3BD2F" stop-opacity="0.22"/>
</linearGradient>
</defs>
</svg>
