<svg xmlns="http://www.w3.org/2000/svg" xmlns:xlink="http://www.w3.org/1999/xlink" viewBox="0 0 749.55 314.78"><defs><style>.cls-1{stroke-miterlimit:10;stroke-width:0.75px;fill:url(#linear-gradient);stroke:url(#linear-gradient-2);}</style><linearGradient id="linear-gradient" x1="1396.4" y1="1038.13" x2="1396.69" y2="1038.13" gradientTransform="matrix(2600.48, 0, 0, -199.72, -3631314.45, 207490.06)" gradientUnits="userSpaceOnUse"><stop offset="0" stop-color="#ffc600"/><stop offset="1" stop-color="#ff00b8"/></linearGradient><linearGradient id="linear-gradient-2" x1="0" y1="157.39" x2="749.55" y2="157.39" gradientTransform="matrix(1, 0, 0, 1, 0, 0)" xlink:href="#linear-gradient"/></defs><g id="Layer_2" data-name="Layer 2"><g id="Layer_1-2" data-name="Layer 1"><path id="Path_44413" data-name="Path 44413" class="cls-1" d="M75.59,27.06v-.57H75v.57Zm0,84v.57h.57v-.57Zm-29,0H46v.57h.57Zm0-84h.57v-.57h-.57ZM1,27.06H.44v.57H1ZM1,3.69V3.11H.44v.58Zm120.23,0h.58V3.11h-.58Zm0,23.37v.57h.58v-.57ZM75,27.06v84h1.14v-84Zm.57,83.47h-29v1.14h29Zm-28.43.57v-84H46v84Zm-.57-84.61H1v1.14H46.59Zm-45,.57V3.69H.44V27.06ZM1,4.26H121.24V3.11H1Zm119.66-.57V27.06h1.15V3.69Zm.57,22.8H75.59v1.14h45.65ZM274.39,81.94l.51.25h0ZM259.85,99.6l-.34-.45Zm-23,10.79.15.56h0Zm-60.67,0-.15.55h0ZM138.44,81.94l-.51.25h0Zm0-48.86.52.25h0ZM176.2,4.62l.15.56h0Zm60.66,0-.15.55h0Zm37.53,28.46-.52.25h0ZM248.2,45.51l-.55.17h0Zm-6.8-10.79-.4.41h0Zm-50.19-9.3.11.56h0Zm-19.62,9.46.4.4h0Zm-5.24,7,.51.27h0Zm-2.81,7.73-.56-.11h0Zm0,15.95-.56.11h0Zm2.81,7.82-.51.27h0Zm13.37,12.51-.26.51h0Zm11.49,3.75-.12.56h0Zm50.19-9.38-.4-.41h0Zm6.8-10.71-.54-.18h0Zm30.7-12q0,13.73-5,24.22l1,.5A56.41,56.41,0,0,0,280,57.47Zm-5,24.22a47.28,47.28,0,0,1-14.37,17.46l.68.91A48.22,48.22,0,0,0,274.9,82.19ZM259.51,99.15a66.54,66.54,0,0,1-22.79,10.69l.3,1.1a67.64,67.64,0,0,0,23.17-10.88Zm-22.79,10.69a116.74,116.74,0,0,1-30.11,3.58v1.14A117.85,117.85,0,0,0,237,111Zm-30.11,3.58a118.1,118.1,0,0,1-30.26-3.58l-.29,1.11a119.65,119.65,0,0,0,30.55,3.61Zm-30.26-3.58a67.22,67.22,0,0,1-22.87-10.69l-.68.91a68,68,0,0,0,23.25,10.88ZM153.48,99.15A47.63,47.63,0,0,1,139,81.68l-1,.51a48.66,48.66,0,0,0,14.87,17.87ZM139,81.69q-5.1-10.5-5.1-24.22h-1.15a56,56,0,0,0,5.22,24.72Zm-5.1-24.22q0-13.72,5.1-24.14l-1-.5q-5.24,10.7-5.22,24.64ZM139,33.33a47.4,47.4,0,0,1,14.52-17.54l-.68-.91a48.54,48.54,0,0,0-14.87,17.95Zm14.52-17.54A66.3,66.3,0,0,1,176.35,5.18l-.3-1.11A67.31,67.31,0,0,0,152.8,14.88ZM176.35,5.17a116.67,116.67,0,0,1,30.26-3.65V.38a117.47,117.47,0,0,0-30.56,3.69Zm30.26-3.65a114.34,114.34,0,0,1,30.1,3.65l.31-1.1A115.28,115.28,0,0,0,206.61.38Zm30.11,3.66A65.14,65.14,0,0,1,259.5,15.79l.69-.91A66.35,66.35,0,0,0,237,4.07ZM259.5,15.79a47,47,0,0,1,14.37,17.54l1-.5a48,48,0,0,0-14.71-17.95Zm14.37,17.54q5,10.43,5,24.14H280q0-13.95-5.14-24.64ZM250.73,57.47a38.51,38.51,0,0,0-2-12.14l-1.08.36a37.75,37.75,0,0,1,1.92,11.78Zm-2-12.13a26,26,0,0,0-6.95-11l-.8.82a24.85,24.85,0,0,1,6.65,10.55Zm-6.95-11a36,36,0,0,0-13.5-7.87l-.38,1.08q8.36,2.94,13.08,7.61Zm-13.5-7.87q-8.56-3-21.69-3v1.15q13,0,21.31,2.93Zm-21.69-3a75.54,75.54,0,0,0-15.52,1.42l.24,1.11a74.59,74.59,0,0,1,15.28-1.38ZM191.1,24.86a46.41,46.41,0,0,0-11.64,3.8l.51,1A45.44,45.44,0,0,1,191.32,26Zm-11.64,3.8a31.65,31.65,0,0,0-8.28,5.81l.81.81a30.81,30.81,0,0,1,8-5.6Zm-8.27,5.81a28.32,28.32,0,0,0-5.35,7.1l1,.53A26.91,26.91,0,0,1,172,35.28Zm-5.34,7.1A29.63,29.63,0,0,0,163,49.46l1.12.23a28.14,28.14,0,0,1,2.76-7.58ZM163,49.46a41.45,41.45,0,0,0-.8,8h1.15a40,40,0,0,1,.77-7.79Zm-.8,8a43,43,0,0,0,.8,8.16l1.12-.22a41.49,41.49,0,0,1-.77-7.94Zm.8,8.17a31.5,31.5,0,0,0,2.86,8l1-.54a29.37,29.37,0,0,1-2.76-7.66Zm2.87,8a28.3,28.3,0,0,0,5.34,7l.8-.82a27.4,27.4,0,0,1-5.13-6.74Zm5.34,7a32.8,32.8,0,0,0,8.27,5.73l.51-1a31.65,31.65,0,0,1-8-5.53Zm8.28,5.73a50.68,50.68,0,0,0,11.62,3.8l.24-1.12A49.86,49.86,0,0,1,180,85.33Zm11.63,3.8a79.86,79.86,0,0,0,15.51,1.34V90.36A78.38,78.38,0,0,1,191.32,89Zm15.51,1.34q13.11,0,21.69-3l-.38-1.07q-8.32,2.92-21.31,2.94Zm21.69-3a36,36,0,0,0,13.5-7.86l-.8-.82a35.09,35.09,0,0,1-13.08,7.61Zm13.49-7.86a25.93,25.93,0,0,0,7-10.95l-1.09-.35A25,25,0,0,1,241,79.81Zm7-10.95a39.27,39.27,0,0,0,2-12.21h-1.14a37.92,37.92,0,0,1-1.93,11.86ZM407.91,111.1l-.57.05.05.52h.52Zm-4.22-15.33-.51.27h0ZM395,84.36l-.39.42h0Zm-11.72-7.9L383,77h0Zm-13.37-4.92-.15.56h0ZM356.16,69l-.06.57h0Zm-21.26-.78v-.57h-.58v.57Zm0,42.92v.57h.57v-.57Zm-29,0h-.57v.57h.57Zm0-107.41V3.11h-.57v.58Zm29,0h.57V3.11h-.57Zm0,41.43h-.58v.57h.58Zm31.5-3.91-.17-.55h0ZM378.83,36l.27.5Zm10.63-7.82-.4-.4Zm7.82-10.63.51.27h0Zm3.91-13.83V3.11h-.51l-.06.52Zm29.55,0,.57.05.06-.63h-.63ZM427.3,19.08l-.53-.2h0Zm-6.49,12.36-.46-.34h0ZM402.44,47.93l.29.5h0Zm-10,4.85.21.53h0Zm-9.22,2.89-.13-.56,0,1.12Zm11.34,2.74-.18.54h0Zm11.72,4.85-.27.5h0Zm11,7.34-.36.44h0Zm20.17,40.5v.57h.62l-.05-.62Zm-29,0a41.15,41.15,0,0,0-4.28-15.54l-1,.53a39.86,39.86,0,0,1,4.16,15.11ZM404.2,95.51a40.94,40.94,0,0,0-8.8-11.57l-.77.84A39.7,39.7,0,0,1,403.18,96Zm-8.8-11.57a47.41,47.41,0,0,0-11.87-8L383,77a46.11,46.11,0,0,1,11.58,7.8Zm-11.87-8a74.26,74.26,0,0,0-13.47-5l-.29,1.11A73.07,73.07,0,0,1,383,77Zm-13.46-5a86.9,86.9,0,0,0-13.85-2.6l-.12,1.14a84.67,84.67,0,0,1,13.67,2.57ZM356.22,68.4a110.41,110.41,0,0,0-12.73-.79v1.14a110.55,110.55,0,0,1,12.6.78Zm-12.73-.79H334.9v1.14h8.6Zm-9.17.57V111.1h1.15V68.18Zm.57,42.35h-29v1.14h29Zm-28.43.57V3.69h-1.14V111.1ZM305.89,4.26h29V3.11h-29Zm28.43-.57V45.12h1.15V3.69Zm.57,42h5.95V44.55H334.9Zm5.95,0a89.45,89.45,0,0,0,12.66-.94l-.16-1.13a90.19,90.19,0,0,1-12.5.93Zm12.66-.94a82.47,82.47,0,0,0,13.07-3l-.34-1.1a80.25,80.25,0,0,1-12.89,3Zm13.07-3a71.1,71.1,0,0,0,12.53-5.29l-.54-1a70.16,70.16,0,0,1-12.33,5.19Zm12.53-5.29a47.19,47.19,0,0,0,10.76-7.91l-.8-.81a46.26,46.26,0,0,1-10.5,7.72Zm10.76-7.91a42.55,42.55,0,0,0,7.93-10.77l-1-.53a41.37,41.37,0,0,1-7.71,10.49Zm7.93-10.78a39.13,39.13,0,0,0,4-14l-1.14-.11a38,38,0,0,1-3.85,13.63Zm3.4-13.52h29.55V3.11H401.19Zm29-.62a56.58,56.58,0,0,1-3.41,15.24l1.07.41a58,58,0,0,0,3.48-15.55Zm-3.41,15.24a52.24,52.24,0,0,1-6.42,12.22l.93.67a53.72,53.72,0,0,0,6.56-12.48ZM420.34,31.1a50.72,50.72,0,0,1-8.5,9.36l.74.87a52,52,0,0,0,8.7-9.56Zm-8.5,9.36a70.64,70.64,0,0,1-9.69,7l.58,1a70.87,70.87,0,0,0,9.85-7.09Zm-9.69,7a73.15,73.15,0,0,1-9.92,4.81l.41,1.06a74.4,74.4,0,0,0,10.09-4.88Zm-9.92,4.8a71.35,71.35,0,0,1-9.15,2.87l.26,1.12a74.23,74.23,0,0,0,9.3-2.92Zm-9.11,4A76.49,76.49,0,0,1,394.37,59l.35-1.09a76,76,0,0,0-11.42-2.75ZM394.38,59A65.08,65.08,0,0,1,406,63.76l.54-1a67.46,67.46,0,0,0-11.83-4.89ZM406,63.76A59.67,59.67,0,0,1,416.93,71l.73-.88a60.54,60.54,0,0,0-11.13-7.41ZM416.93,71a54,54,0,0,1,9.44,10.14l.92-.67a55,55,0,0,0-9.63-10.35Zm9.44,10.14a56.51,56.51,0,0,1,7,13.23l1.07-.4a57.71,57.71,0,0,0-7.11-13.5Zm7,13.23a62.3,62.3,0,0,1,3.56,16.73l1.14-.09a63.37,63.37,0,0,0-3.63-17Zm4.13,16.12H407.91v1.14h29.55Zm144.7-4.75.18.54.39-.12v-.42ZM555.74,112l-.08-.57h0Zm-58.24-1.8-.15.55h0ZM460.13,35.5l-.51-.24h0ZM474.2,17.36l.37.44h0Zm22.05-12,.18.54h0Zm55.5-.39-.18.54h0Zm20.87,11.65-.38.42h0Zm13.53,19.07-.53.22h0ZM591,69v.57h.58V69ZM485.15,69v-.57h-.75l.2.73Zm4.61,9.31-.46.34h0Zm22.43,11.8-.11.56h0Zm35,.7.07.57h0Zm14.3-2.58.13.56h0Zm12-3.59-.19-.54h0Zm8.68-3.91h.57v-1l-.86.52Zm-20-33v.57h.63l-.06-.63Zm-2.43-8.21-.52.24h0Zm-6.25-7.74.36-.45Zm-11.26-5.63-.17.55h0ZM496,32.3l-.34-.46h0ZM488.59,40l.48.3Zm-3.44,7.66-.56-.13-.16.7h.72ZM582,105.24a151.48,151.48,0,0,1-26.32,6.23l.16,1.13a152.66,152.66,0,0,0,26.52-6.28Zm-26.33,6.23a182.06,182.06,0,0,1-26.8,2v1.14a181.74,181.74,0,0,0,27-2Zm-26.8,2a119,119,0,0,1-31.2-3.73l-.3,1.1a120.27,120.27,0,0,0,31.5,3.77Zm-31.2-3.73a66.73,66.73,0,0,1-22.87-10.93l-.69.91a67.75,67.75,0,0,0,23.25,11.12ZM474.78,98.76a47,47,0,0,1-14.13-17.38l-1,.49a48.17,48.17,0,0,0,14.48,17.8ZM460.65,81.38a53.64,53.64,0,0,1-4.87-23.29h-1.15a55,55,0,0,0,5,23.78Zm-4.87-23.29a51.47,51.47,0,0,1,4.87-22.34l-1-.5a52.71,52.71,0,0,0-5,22.84Zm4.87-22.34A53.52,53.52,0,0,1,474.57,17.8l-.74-.87a54.71,54.71,0,0,0-14.22,18.32ZM474.57,17.8A65.68,65.68,0,0,1,496.43,5.87l-.36-1.09a66.82,66.82,0,0,0-22.24,12.15ZM496.43,5.87A88.46,88.46,0,0,1,525,1.52V.38a89.78,89.78,0,0,0-29,4.4ZM525,1.52a84.45,84.45,0,0,1,26.55,4l.36-1.08A85.09,85.09,0,0,0,525,.38Zm26.56,4A56.42,56.42,0,0,1,572.24,17l.76-.85A57.56,57.56,0,0,0,551.93,4.39ZM572.25,17a51.49,51.49,0,0,1,13.37,18.87l1.06-.44A52.44,52.44,0,0,0,573,16.16Zm13.37,18.87q4.8,11.22,4.81,25.89h1.14q0-14.87-4.89-26.34Zm4.81,25.89V69h1.14V61.77Zm.57,6.62H485.15v1.14H591Zm-106.4.73a27.86,27.86,0,0,0,4.71,9.49l.91-.69a26.64,26.64,0,0,1-4.52-9.11Zm4.71,9.49a27.8,27.8,0,0,0,9,7.35l.53-1a26.79,26.79,0,0,1-8.65-7Zm9,7.35a50.66,50.66,0,0,0,13.75,4.67l.23-1.12A49.58,49.58,0,0,1,498.86,85Zm13.75,4.67a100.21,100.21,0,0,0,19.5,1.65V91.14a99,99,0,0,1-19.27-1.63Zm19.5,1.65a130.91,130.91,0,0,0,15.71-.94l-.14-1.14a128.72,128.72,0,0,1-15.57.94Zm15.71-.94a145.42,145.42,0,0,0,14.36-2.59l-.26-1.11q-6.61,1.55-14.25,2.56Zm14.37-2.59a117,117,0,0,0,12-3.62l-.39-1.07a114.67,114.67,0,0,1-11.9,3.58Zm12-3.62a51.94,51.94,0,0,0,8.77-3.95l-.58-1a52,52,0,0,1-8.58,3.86Zm7.91-4.44v25.09h1.14V80.69Zm-18.87-33a25.21,25.21,0,0,0-2.48-8.4l-1,.5a23.67,23.67,0,0,1,2.37,8Zm-2.47-8.39a21.86,21.86,0,0,0-6.42-7.95l-.72.9a20.55,20.55,0,0,1,6.09,7.53Zm-6.42-7.95a34.88,34.88,0,0,0-11.44-5.73l-.35,1.1a33.57,33.57,0,0,1,11.07,5.53Zm-11.44-5.72a57.14,57.14,0,0,0-17.53-2.3v1.15q10.35,0,17.18,2.24Zm-17.53-2.3a53.4,53.4,0,0,0-17.07,2.45l.37,1.09a52,52,0,0,1,16.7-2.39Zm-17.07,2.45a44.13,44.13,0,0,0-12.12,6.11l.69.92a42.77,42.77,0,0,1,11.8-5.94Zm-12.12,6.11a31,31,0,0,0-7.57,7.89l1,.61a29.69,29.69,0,0,1,7.29-7.58Zm-7.57,7.89a25.06,25.06,0,0,0-3.51,7.84l1.11.25a23.71,23.71,0,0,1,3.37-7.48Zm-3,8.54h77V47.13h-77ZM719.67,111.1h-.57v.57h.57Zm-1-71.06-.56.11h0Zm-3.83-8.37-.45.35h0Zm-7.74-5.39-.21.53h0ZM681.84,26l.13.56h0Zm-12.9,4.23.22.53Zm-12.28,6.17-.29-.49h0Zm-10.31,7.35-.37-.44-.21.17v.27Zm0,67.39v.57h.57v-.57Zm-29,0h-.57v.57h.57Zm0-107.41V3.11h-.57v.58Zm29,0h.57V3.11h-.57Zm0,14.69h-.58v1l.86-.49ZM658,12.21l.26.51h0Zm13.14-5.63-.2-.54Zm50.65-3-.17.55h0ZM736.32,11l-.36.44h0Zm9.07,11.65-.52.24h0Zm3.21,88.42v.57h.57v-.57Zm-28.36,0V50.91H719.1V111.1Zm0-60.19a54,54,0,0,0-1-11l-1.12.24a52.35,52.35,0,0,1,1,10.75Zm-1-11a19.67,19.67,0,0,0-4-8.61l-.88.73a18.51,18.51,0,0,1,3.71,8.11Zm-3.94-8.6a17.76,17.76,0,0,0-8-5.58l-.4,1.08a16.51,16.51,0,0,1,7.49,5.2Zm-8-5.57a35.57,35.57,0,0,0-13-2v1.14a34.36,34.36,0,0,1,12.53,1.92Zm-13-2a51.89,51.89,0,0,0-12.64,1.66l.27,1.11a51.21,51.21,0,0,1,12.37-1.63ZM681.7,25.41a86,86,0,0,0-13,4.25l.44,1.06A85.66,85.66,0,0,1,682,26.52Zm-13,4.25a92.61,92.61,0,0,0-12.35,6.21l.59,1a92.64,92.64,0,0,1,12.19-6.13Zm-12.35,6.21A82.56,82.56,0,0,0,646,43.27l.73.88A80.77,80.77,0,0,1,657,36.85Zm-10.6,7.84V111.1h1.15V43.71Zm.57,66.82h-29v1.14h29Zm-28.43.57V3.69h-1.14V111.1ZM617.34,4.26h29V3.11h-29Zm28.43-.57V18.38h1.15V3.69Zm.86,15.19q5.46-3.12,11.62-6.16l-.51-1q-6.18,3.06-11.68,6.19Zm11.62-6.16a113.17,113.17,0,0,1,13.07-5.6L670.93,6a114.55,114.55,0,0,0-13.19,5.66Zm13.07-5.6A103.85,103.85,0,0,1,686,3.07L685.79,2A104.63,104.63,0,0,0,670.94,6ZM686,3.07A84.09,84.09,0,0,1,702.4,1.52V.38A84.21,84.21,0,0,0,685.79,2ZM702.4,1.52a64.14,64.14,0,0,1,19.21,2.64l.34-1.1A65.32,65.32,0,0,0,702.4.38Zm19.23,2.64A41.22,41.22,0,0,1,736,11.47l.72-.88A42.17,42.17,0,0,0,722,3.06ZM736,11.48a30.77,30.77,0,0,1,8.9,11.44l1-.47a32,32,0,0,0-9.23-11.86Zm8.91,11.45a34.76,34.76,0,0,1,3.15,15h1.14a35.92,35.92,0,0,0-3.25-15.49Zm3.15,15V111.1h1.14V37.93Zm.57,72.6H719.68v1.14H748.6ZM142.05,281.78l.51.25h0Zm-14.54,17.66-.35-.45Zm-23,10.79.15.56h0Zm-60.67,0-.14.55h0ZM6.11,281.78,5.6,282h0Zm0-48.86.51.25h0Zm37.75-28.45L44,205h0Zm60.66,0-.15.55h0ZM142,232.92l-.51.25h0Zm-26.18,12.43-.55.17h0Zm-6.8-10.78-.41.4h0Zm-50.19-9.3.11.56h0Zm-19.62,9.45.4.41h0Zm-5.23,7,.5.27h0Zm-2.82,7.74-.56-.12h0Zm0,15.94-.56.11h0ZM34,273.18l-.51.27h0Zm13.36,12.51-.25.51h0Zm11.49,3.75-.11.56h0Zm50.19-9.38-.4-.41h0Zm6.8-10.71-.55-.17h0Zm30.69-12q0,13.74-5,24.22l1,.5a56.69,56.69,0,0,0,5.14-24.72Zm-5,24.22A47.19,47.19,0,0,1,127.16,299l.69.91A48.22,48.22,0,0,0,142.56,282ZM127.16,299a66.45,66.45,0,0,1-22.79,10.69l.3,1.1a67.61,67.61,0,0,0,23.18-10.88Zm-22.78,10.69a116.8,116.8,0,0,1-30.11,3.58v1.14a117.9,117.9,0,0,0,30.4-3.61Zm-30.11,3.58A118.1,118.1,0,0,1,44,309.68l-.29,1.11a119.6,119.6,0,0,0,30.55,3.61ZM44,309.68A67,67,0,0,1,21.15,299l-.69.91a68.14,68.14,0,0,0,23.25,10.88ZM21.15,299A47.62,47.62,0,0,1,6.62,281.53l-1,.5A48.73,48.73,0,0,0,20.46,299.9ZM6.62,281.53Q1.54,271,1.52,257.31H.38A56,56,0,0,0,5.6,282Zm-5.1-24.22q0-13.73,5.1-24.14l-1-.49Q.37,243.36.38,257.31Zm5.1-24.14a47.39,47.39,0,0,1,14.53-17.53l-.69-.92a48.47,48.47,0,0,0-14.86,18Zm14.53-17.53A66.33,66.33,0,0,1,44,205l-.29-1.11a67.54,67.54,0,0,0-23.26,10.8ZM44,205a116.24,116.24,0,0,1,30.26-3.65v-1.15a117,117,0,0,0-30.56,3.7Zm30.26-3.65a114,114,0,0,1,30.1,3.65l.3-1.1a115.14,115.14,0,0,0-30.4-3.7ZM104.38,205a65,65,0,0,1,22.78,10.61l.69-.92a66.69,66.69,0,0,0-23.18-10.8Zm22.78,10.61a47,47,0,0,1,14.37,17.53l1-.49a48.24,48.24,0,0,0-14.71-18Zm14.37,17.53q5,10.43,5,24.14h1.15a56.27,56.27,0,0,0-5.14-24.63Zm-23.15,24.14a38.59,38.59,0,0,0-2-12.14l-1.09.36a37.47,37.47,0,0,1,1.93,11.78Zm-2-12.12a26,26,0,0,0-7-11l-.79.81a25,25,0,0,1,6.65,10.55Zm-7-11A35.72,35.72,0,0,0,96,226.29l-.38,1.07q8.36,3,13.08,7.61ZM96,226.29q-8.56-3-21.69-3v1.14q13,0,21.31,2.93Zm-21.69-3a74.82,74.82,0,0,0-15.51,1.42l.23,1.11a74.6,74.6,0,0,1,15.28-1.39Zm-15.51,1.42a46.18,46.18,0,0,0-11.63,3.79l.51,1A45,45,0,0,1,59,225.83ZM47.13,228.5a31.52,31.52,0,0,0-8.28,5.82l.8.81a30.23,30.23,0,0,1,8-5.6Zm-8.28,5.81a27.92,27.92,0,0,0-5.34,7.11l1,.52a26.91,26.91,0,0,1,5.13-6.81Zm-5.34,7.1a30,30,0,0,0-2.87,7.89l1.12.24A28.9,28.9,0,0,1,34.52,242Zm-2.87,7.9a41.33,41.33,0,0,0-.79,8H31a41.46,41.46,0,0,1,.77-7.78Zm-.79,8a43,43,0,0,0,.79,8.16l1.12-.22a43.08,43.08,0,0,1-.77-7.94Zm.79,8.17a30.88,30.88,0,0,0,2.87,8l1-.53a30.32,30.32,0,0,1-2.76-7.67Zm2.87,8a28.79,28.79,0,0,0,5.34,7l.8-.82a27.35,27.35,0,0,1-5.13-6.73Zm5.34,7a32.6,32.6,0,0,0,8.28,5.73l.51-1a31.7,31.7,0,0,1-8-5.53Zm8.28,5.73A50.6,50.6,0,0,0,58.76,290l.23-1.12a49.38,49.38,0,0,1-11.36-3.71ZM58.76,290a79.93,79.93,0,0,0,15.51,1.34V290.2A78.52,78.52,0,0,1,59,288.88Zm15.51,1.34q13.11,0,21.69-3l-.38-1.08q-8.33,2.92-21.31,2.94Zm21.69-3a36.15,36.15,0,0,0,13.5-7.87l-.8-.82q-4.74,4.67-13.08,7.61Zm13.49-7.87a26.12,26.12,0,0,0,7-11l-1.09-.34a25,25,0,0,1-6.65,10.47Zm7-11a39.27,39.27,0,0,0,2-12.21h-1.14a38,38,0,0,1-1.93,11.87Zm86.15-66h.57V203h-.57Zm0,11.8H202v1l.88-.56Zm8.28-5-.28-.5h0Zm9.77-4.69-.2-.53h0Zm11.34-3.44.12.56h0Zm25.17.08-.16.55h0ZM266,206l-.3.49h0Zm6.49,5.17-.42.38h0Zm4.61,5.62-.47.33.31.45.47-.3Zm33-14.85.11.56h0Zm29.47,1.56-.19.54h0ZM361,222.29l-.52.23h0Zm2.9,88.65v.57h.57v-.57Zm-29,0h-.57v.57h.57Zm-1.33-78.17L333,233Zm-3.6-5.09-.38.43h0Zm-5.24-2.88-.17.54h0Zm-42,13.12-.33-.46-.3.21.06.36Zm.31,3.13-.57,0h0Zm.16,69.89v.57h.57v-.57Zm-29,0h-.57v.57h.57Zm-1.32-78.64-.53.23h0Zm-3.68-4.92-.36.44h0Zm-5.31-2.66-.16.55h0ZM229,225l-.15-.55h0Zm-9.07,3.28-.24-.52h0Zm-9,5-.31-.48h0Zm-8.36,6.25-.37-.44-.21.17v.27Zm0,71.37v.57h.57v-.57Zm-29,0H173v.57h.58Zm0-107.41V203H173v.57Zm28.42,0v11.8h1.15v-11.8Zm.88,12.29q3.83-2.41,8.27-5l-.58-1q-4.46,2.58-8.3,5Zm8.27-5a78.51,78.51,0,0,1,9.7-4.65l-.43-1.07a83.06,83.06,0,0,0-9.84,4.72Zm9.69-4.65a73.35,73.35,0,0,1,11.25-3.42l-.25-1.11a73.2,73.2,0,0,0-11.41,3.46Zm11.25-3.42a58.11,58.11,0,0,1,13-1.39v-1.15a58.55,58.55,0,0,0-13.26,1.43Zm13-1.39A42.89,42.89,0,0,1,257,202.83l.32-1.1a44.84,44.84,0,0,0-12.2-1.51ZM257,202.84a32.59,32.59,0,0,1,8.76,3.68l.6-1a33.94,33.94,0,0,0-9.06-3.82Zm8.77,3.68a28,28,0,0,1,6.36,5.06l.84-.77a29,29,0,0,0-6.62-5.27Zm6.36,5.06a47.74,47.74,0,0,1,4.56,5.57l.94-.65a48.15,48.15,0,0,0-4.67-5.7Zm5.34,5.72q5.54-3.59,10.91-6.54l-.55-1q-5.42,3-11,6.59Zm10.91-6.54a87.63,87.63,0,0,1,10.8-5l-.42-1.07a89.75,89.75,0,0,0-10.93,5.11Zm10.8-5a64.62,64.62,0,0,1,11.08-3.18l-.22-1.12a66,66,0,0,0-11.28,3.23Zm11.08-3.18A58.21,58.21,0,0,1,322,201.37v-1.15a59.7,59.7,0,0,0-12,1.19ZM322,201.37a52.24,52.24,0,0,1,17.4,2.7l.37-1.07A52.82,52.82,0,0,0,322,200.22Zm17.4,2.7a39,39,0,0,1,13,7.39l.76-.85A39.82,39.82,0,0,0,339.76,203Zm13,7.39a31.31,31.31,0,0,1,8.06,11.06l1-.46a32.33,32.33,0,0,0-8.35-11.45Zm8.06,11.07a32.3,32.3,0,0,1,2.84,13.52h1.15a33.57,33.57,0,0,0-2.95-14Zm2.84,13.52v74.89h1.15V236.05Zm.58,74.32h-29v1.14h29Zm-28.43.57V240.19h-1.14v70.75Zm0-70.75a19.49,19.49,0,0,0-1.38-7.65L333,233a18.3,18.3,0,0,1,1.29,7.2Zm-1.38-7.65a14.16,14.16,0,0,0-3.74-5.28l-.75.86A13.19,13.19,0,0,1,333,233Zm-3.74-5.28a14.25,14.25,0,0,0-5.45-3l-.33,1.09a13.46,13.46,0,0,1,5,2.77Zm-5.45-3a21.32,21.32,0,0,0-6.5-1v1.14a20.38,20.38,0,0,1,6.16.91Zm-6.5-1q-15.88,0-36,14.17l.66.93c13.29-9.34,25.06-14,35.31-14ZM282.18,238a24.06,24.06,0,0,1,.31,3.05l1.14-.05a24.6,24.6,0,0,0-.32-3.2Zm.31,3.07c.11,1.19.16,2.37.16,3.55h1.14c0-1.21-.06-2.43-.16-3.64Zm.16,3.55v66.29h1.14V244.65Zm.57,65.72h-29v1.14h29Zm-28.43.57V239.57h-1.15v71.37Zm0-71.37a18.41,18.41,0,0,0-1.38-7.51l-1,.47a17.31,17.31,0,0,1,1.27,7Zm-1.38-7.5a13.27,13.27,0,0,0-3.84-5.14l-.71.89a12.09,12.09,0,0,1,3.5,4.71Zm-3.83-5.13a14,14,0,0,0-5.54-2.78l-.28,1.11a12.94,12.94,0,0,1,5.09,2.55Zm-5.53-2.77a22.94,22.94,0,0,0-6.49-.88v1.14a22.26,22.26,0,0,1,6.18.84Zm-6.49-.88a34.42,34.42,0,0,0-8.74,1.19l.29,1.1a34,34,0,0,1,8.45-1.15Zm-8.74,1.19a57.57,57.57,0,0,0-9.16,3.31l.48,1a54.91,54.91,0,0,1,9-3.25Zm-9.16,3.31a72.92,72.92,0,0,0-9.06,5.05l.62,1a72.09,72.09,0,0,1,8.92-5Zm-9.06,5.05a89,89,0,0,0-8.42,6.29l.74.88a89.72,89.72,0,0,1,8.3-6.22ZM202,239.57v71.37h1.15V239.57Zm.58,70.8h-29v1.14h29Zm-28.43.57V203.53H173V310.94Zm-.57-106.83h29V203h-29ZM397.11,310.94h-.57v.57h.57Zm0-107.41V203h-.57v.57Zm29,0h.57V203h-.57Zm0,107.41v.57h.57v-.57Zm-28.43,0V203.53h-1.14V310.94Zm-.57-106.83h29V203h-29Zm28.43-.58V310.94h1.14V203.53Zm.57,106.84h-29v1.14h29Zm152-6.78.22.53.35-.15v-.38ZM555,311l-.13-.56h0Zm-12.9,2.11-.06-.58h0Zm-44.71-2.82-.14.56h0Zm-23.77-10.55-.33.46h0Zm-15.47-17.67-.51.27h0Zm0-49.48.51.27h0ZM473.63,215l.34.47h0Zm23.77-10.63-.14-.56h0Zm44.71-2.82-.06.57h0Zm12.9,2.11-.13.56h0ZM578.15,211h.57v-.38l-.35-.15Zm0,26.11-.28.5.85.46v-1Zm-9.38-4.77-.25.51h0Zm-10.87-4.3-.18.54h0ZM544.84,225l-.09.56h0Zm-38.77,1.56-.17-.54h0Zm-22,18.3.54.19h0Zm-1.25,21-.56.13h0Zm3.12,7.9-.49.29h0Zm26.66,15.79-.1.56h0Zm32.2.15.1.57h0Zm23.93-7.26.24.51h0Zm9.38-4.93h.57v-1l-.85.47Zm-.22,25.58q-5.61,2.34-11.3,4.21l.36,1.08q5.73-1.87,11.38-4.23Zm-11.3,4.21a118.44,118.44,0,0,1-11.75,3.19l.25,1.11A116,116,0,0,0,567,308.35Zm-11.75,3.19a104.88,104.88,0,0,1-12.83,2.09l.12,1.14a105.58,105.58,0,0,0,13-2.12Zm-12.83,2.09a138.43,138.43,0,0,1-14.4.71v1.14a138,138,0,0,0,14.52-.71Zm-14.4.71a122.17,122.17,0,0,1-30.11-3.5l-.28,1.11a123.42,123.42,0,0,0,30.39,3.53Zm-30.11-3.5A71,71,0,0,1,474,299.29l-.66.94a72.47,72.47,0,0,0,23.95,10.64ZM474,299.3a49.75,49.75,0,0,1-15.3-17.47l-1,.53a50.86,50.86,0,0,0,15.65,17.86Zm-15.3-17.47q-5.49-10.49-5.49-24.52H452q0,14.26,5.61,25.05Zm-5.49-24.52q0-14,5.49-24.43l-1-.54q-5.62,10.71-5.61,25Zm5.49-24.43A48.83,48.83,0,0,1,474,215.41l-.67-.93a50.06,50.06,0,0,0-15.65,17.87ZM474,215.41a70.39,70.39,0,0,1,23.57-10.54l-.28-1.11a71.51,71.51,0,0,0-24,10.72Zm23.57-10.54a122.17,122.17,0,0,1,30.11-3.5v-1.15a123,123,0,0,0-30.39,3.54Zm30.11-3.5a138.42,138.42,0,0,1,14.4.7l.12-1.14a140.74,140.74,0,0,0-14.52-.71Zm14.4.7a103,103,0,0,1,12.83,2.1l.26-1.12a107.52,107.52,0,0,0-13-2.12Zm12.83,2.1a115.77,115.77,0,0,1,11.75,3.19l.36-1.09a118.67,118.67,0,0,0-11.86-3.22Zm11.75,3.19q5.68,1.88,11.3,4.21l.44-1.06q-5.65-2.35-11.38-4.24Zm11,3.68v26.11h1.14V211Zm.84,25.6q-4.47-2.43-9.41-4.78l-.49,1q4.92,2.34,9.35,4.76Zm-9.4-4.78a79.75,79.75,0,0,0-10.94-4.33l-.35,1.09a78.07,78.07,0,0,1,10.79,4.27Zm-10.94-4.32a87,87,0,0,0-13.14-3.15l-.19,1.13a87.41,87.41,0,0,1,13,3.1ZM545,224.39a92.67,92.67,0,0,0-16.13-1.26v1.14a93.33,93.33,0,0,1,15.93,1.24Zm-16.13-1.26q-13.73,0-22.92,2.84l.35,1.09q9-2.77,22.57-2.79ZM505.9,226a40.57,40.57,0,0,0-14.58,7.61l.75.87a39.49,39.49,0,0,1,14.18-7.39Zm-14.58,7.61a26.37,26.37,0,0,0-7.75,11l1.08.39a25.1,25.1,0,0,1,7.42-10.55Zm-7.75,11a36.92,36.92,0,0,0-2.22,12.7h1.14A35.66,35.66,0,0,1,484.65,245Zm-2.22,12.7a39.94,39.94,0,0,0,.95,8.65l1.12-.25a38.28,38.28,0,0,1-.93-8.4Zm.95,8.65a28.62,28.62,0,0,0,3.19,8.06l1-.58a27.19,27.19,0,0,1-3.06-7.73Zm3.2,8.06a29.07,29.07,0,0,0,5.81,6.93l.76-.85a28.57,28.57,0,0,1-5.59-6.66Zm5.81,6.93a33,33,0,0,0,8.91,5.5l.45-1.05a32,32,0,0,1-8.6-5.3Zm8.91,5.5a59.3,59.3,0,0,0,12.32,3.63l.21-1.12a58.39,58.39,0,0,1-12.08-3.56Zm12.32,3.63a93.48,93.48,0,0,0,16.28,1.26V290.2A92.24,92.24,0,0,1,512.74,289Zm16.28,1.26a106,106,0,0,0,16.12-1.1l-.18-1.13a106.22,106.22,0,0,1-15.94,1.09Zm16.12-1.1a93.84,93.84,0,0,0,13.14-3.07l-.35-1.09a93.29,93.29,0,0,1-13,3Zm13.14-3.07A84.34,84.34,0,0,0,569,282.92l-.49-1a83.6,83.6,0,0,1-10.79,4.19ZM569,282.92q4.93-2.43,9.41-4.94l-.56-1q-4.44,2.49-9.35,4.91Zm8.56-5.44v26.11h1.14V277.48Zm126.58-43.69-.26.51.83.4v-.91Zm-19.39-6.88-.15.55h0ZM671,224.09l-.09.56h0Zm-26-.78,0-.57h0Zm-7.43,1-.11-.56h0Zm-4.76,1.48.23.52h0ZM629,229.17l-.53-.19v0Zm2.11,5.71-.34.45h0Zm6.42,3.12-.19.55h0Zm9.46,2.58-.14.56h0Zm11.41,2.51-.13.55h0Zm12.5,2.81-.13.56h0Zm12.51,3.52-.18.54h0Zm11.49,4.77-.26.5h0Zm15.48,38.53-.51-.25ZM703,302.1l-.36-.44h0Zm-10.55,6.18.2.54h0Zm-12.66,3.51-.11-.56h0Zm-13.37,1.65,0-.57h0ZM624,311.17l.11-.56h0Zm-23.92-6.49h-.57v.4l.37.14Zm0-25.64.28-.5-.85-.47v1Zm24.39,9.31-.14.55h0Zm44.4,2.42.09.56h0Zm9.14-2.5.24.52h0ZM681.33,277l-.37.44h0Zm-6.41-3.36-.2.53h0ZM665.46,271l-.13.56h0ZM654,268.57l-.12.56h0ZM629,262.63l-.17.54h0Zm-11.41-4.46-.24.52h0Zm-9.45-6-.38.42h0Zm-6.42-8.06-.51.26h0Zm6.88-31.66.37.44h0Zm9.85-5.94-.21-.52h0Zm49.17-5.08-.06.57h0Zm13.05,1.8-.1.57h0Zm12.35,2.58-.13.55h0Zm11.11,3.13h.57v-.42l-.4-.13Zm.24,24.34q-3.07-1.5-8.09-3.38L695.9,231q5,1.88,8,3.34Zm-8.09-3.38a113.82,113.82,0,0,0-11.4-3.54l-.28,1.11A111.24,111.24,0,0,1,695.9,231Zm-11.39-3.54a120.6,120.6,0,0,0-13.83-2.82l-.16,1.12a120.82,120.82,0,0,1,13.69,2.81Zm-13.82-2.82a98.39,98.39,0,0,0-15.33-1.19v1.15a97.28,97.28,0,0,1,15.15,1.16Zm-15.33-1.19c-4.18,0-7.77.14-10.76.4l.1,1.14q4.42-.39,10.66-.39Zm-10.76.4a67.42,67.42,0,0,0-7.49,1l.23,1.12a67.45,67.45,0,0,1,7.36-1Zm-7.5,1a22.72,22.72,0,0,0-4.89,1.52l.49,1a21,21,0,0,1,4.64-1.45Zm-4.89,1.52a10.84,10.84,0,0,0-2.8,1.74l.78.84a9.47,9.47,0,0,1,2.5-1.54Zm-2.8,1.74a5,5,0,0,0-1.4,1.95l1.07.39a4,4,0,0,1,1.11-1.5Zm-1.41,2a6.29,6.29,0,0,0-.26,1.72h1.14a5.13,5.13,0,0,1,.22-1.41Zm-.26,1.72a5.75,5.75,0,0,0,2.57,4.59l.69-.9a4.63,4.63,0,0,1-2.12-3.69Zm2.58,4.6a25.45,25.45,0,0,0,6.56,3.21l.37-1.08a24.16,24.16,0,0,1-6.25-3.05Zm6.57,3.21q4.1,1.33,9.5,2.59l.26-1.11q-5.37-1.25-9.4-2.57Zm9.52,2.59,11.4,2.5.25-1.11q-6-1.34-11.41-2.5Zm11.41,2.51q6.09,1.24,12.49,2.81l.27-1.11q-6.42-1.57-12.53-2.82Zm12.5,2.81a127.53,127.53,0,0,1,12.45,3.5l.36-1.09A129.13,129.13,0,0,0,671,245.35Zm12.45,3.5a85.42,85.42,0,0,1,11.41,4.73l.52-1a86,86,0,0,0-11.57-4.81Zm11.42,4.74a41.73,41.73,0,0,1,9.33,6.17l.76-.86a43,43,0,0,0-9.58-6.33Zm9.33,6.17a26.69,26.69,0,0,1,6.28,8.11l1-.51a27.83,27.83,0,0,0-6.54-8.46Zm6.28,8.11a23.05,23.05,0,0,1,2.28,10.45h1.15a24.29,24.29,0,0,0-2.41-11Zm2.28,10.45a29.16,29.16,0,0,1-2.67,13l1,.51a30.26,30.26,0,0,0,2.8-13.55Zm-2.67,13a27.8,27.8,0,0,1-7.2,9.19l.72.88a28.87,28.87,0,0,0,7.5-9.56Zm-7.21,9.2a36.41,36.41,0,0,1-10.39,6.08l.42,1.06a37.58,37.58,0,0,0,10.71-6.27Zm-10.38,6.08a75.06,75.06,0,0,1-12.57,3.48l.21,1.13a77.09,77.09,0,0,0,12.76-3.54Zm-12.57,3.48a102.36,102.36,0,0,1-13.3,1.64l.07,1.14a104.73,104.73,0,0,0,13.44-1.65Zm-13.3,1.64q-6.71.39-12.78.39v1.14q6.12,0,12.85-.39Zm-12.78.39a153.83,153.83,0,0,1-29.44-2.65l-.22,1.12a154.52,154.52,0,0,0,29.66,2.67Zm-29.44-2.65a144.32,144.32,0,0,1-23.82-6.46l-.41,1.07a145.63,145.63,0,0,0,24,6.51Zm-23.46-5.93V279h-1.14v25.64Zm-.84-25.14a98.87,98.87,0,0,0,24.52,9.36l.28-1.11a97.62,97.62,0,0,1-24.25-9.25Zm24.52,9.36a124,124,0,0,0,29.53,3.38v-1.14a122.59,122.59,0,0,1-29.25-3.35Zm29.53,3.38a96.54,96.54,0,0,0,15.1-.95l-.18-1.12a98,98,0,0,1-14.92.93Zm15.11-.95a39.9,39.9,0,0,0,9.28-2.54l-.47-1a39.25,39.25,0,0,1-9,2.46Zm9.29-2.55a11.19,11.19,0,0,0,4.69-3.56l-1-.62a10,10,0,0,1-4.22,3.15Zm4.69-3.56a6.92,6.92,0,0,0,1.27-3.75H683.1A5.73,5.73,0,0,1,682,284.6Zm1.27-3.75a6.17,6.17,0,0,0-2.56-4.91l-.72.9a5,5,0,0,1,2.13,4Zm-2.56-4.9a21.07,21.07,0,0,0-6.58-3.46l-.38,1.08a19.86,19.86,0,0,1,6.23,3.26Zm-6.57-3.45a73.44,73.44,0,0,0-9.54-2.69l-.24,1.12a74.13,74.13,0,0,1,9.38,2.63Zm-9.53-2.69q-5.42-1.24-11.51-2.42l-.22,1.12q6.09,1.17,11.47,2.42ZM654.09,268q-6-1.25-12.43-2.66l-.24,1.12q6.42,1.41,12.43,2.66Zm-12.43-2.66q-6.39-1.39-12.46-3.27l-.33,1.09q6.12,1.89,12.55,3.3Zm-12.45-3.26a102.19,102.19,0,0,1-11.35-4.43l-.48,1a102.57,102.57,0,0,0,11.48,4.48Zm-11.34-4.43a43.61,43.61,0,0,1-9.34-5.94l-.74.87a43.91,43.91,0,0,0,9.59,6.1Zm-9.33-5.94a26.38,26.38,0,0,1-6.28-7.88l-1,.52a27.32,27.32,0,0,0,6.54,8.22Zm-6.28-7.88A22.54,22.54,0,0,1,600,233.47h-1.15a23.87,23.87,0,0,0,2.41,10.89ZM600,233.47a27,27,0,0,1,2.45-12l-1-.5a28.32,28.32,0,0,0-2.57,12.52Zm2.45-12a25.86,25.86,0,0,1,6.57-8.57l-.74-.87A26.92,26.92,0,0,0,601.4,221Zm6.58-8.57A35.2,35.2,0,0,1,618.7,207l-.44-1.05a36.69,36.69,0,0,0-10,6ZM618.7,207a67,67,0,0,1,11.7-3.48l-.23-1.12a66.73,66.73,0,0,0-11.9,3.55Zm11.7-3.48a96.63,96.63,0,0,1,12.44-1.71l-.09-1.14a98.82,98.82,0,0,0-12.58,1.73Zm12.44-1.71q6.3-.47,12-.47v-1.15q-5.73,0-12.08.48Zm12-.47q6.23,0,12.76.62l.11-1.14q-6.59-.61-12.87-.63Zm12.76.62q6.63.63,13,1.8l.21-1.13q-6.43-1.17-13.11-1.81Zm13,1.8q6.39,1.08,12.31,2.56l.27-1.11q-6-1.49-12.39-2.58Zm12.31,2.56q6,1.49,11.06,3.12l.35-1.09q-5.1-1.65-11.14-3.14Zm10.66,2.58v24.86h1.15V208.93Z"/></g></g></svg>