<svg xmlns="http://www.w3.org/2000/svg" xmlns:xlink="http://www.w3.org/1999/xlink" width="2600.475" height="199.699" viewBox="0 0 2600.475 199.699">
  <defs>
    <linearGradient id="linear-gradient" x1="0.005" y1="0.5" x2="0.99" y2="0.5" gradientUnits="objectBoundingBox">
      <stop offset="0" stop-color="#0bc0de"/>
      <stop offset="0.463" stop-color="#862a66"/>
      <stop offset="1" stop-color="#907b59"/>
    </linearGradient>
  </defs>
  <path id="Path_44413" data-name="Path 44413" d="M-126.055,2981.03v-1h-1v1Zm0,146.97v1h1v-1Zm-50.722,0h-1v1h1Zm0-146.97h1v-1h-1Zm-79.707,0h-1v1h1Zm0-40.88v-1h-1v1Zm210.273,0h1v-1h-1Zm0,40.88v1h1v-1Zm-80.844,0V3128h2V2981.03Zm1,145.97h-50.722v2h50.722Zm-49.722,1V2981.03h-2V3128Zm-1-147.97h-79.707v2h79.707Zm-78.707,1v-40.88h-2v40.88Zm-1-39.88H-46.211v-2H-256.484Zm209.273-1v40.88h2v-40.88Zm1,39.88h-79.844v2h79.844ZM221.621,3077l.9.44h0Zm-25.43,30.9-.6-.8ZM156,3126.77l.258.97,0-.01Zm-106.094,0-.262.96.007.01ZM-16.133,3077l-.9.44h0Zm0-85.45.9.44h0ZM49.9,2941.79l.257.97,0-.01Zm106.094,0-.264.96.007.01Zm65.625,49.76-.9.44h0Zm-45.8,21.74-.954.3,0,.01,0,.01Zm-11.894-18.86-.7.71h.006Zm-87.774-16.27.2.98.011-.01ZM41.836,2994.7l.7.71h.008Zm-9.16,12.17.883.47,0-.01Zm-4.922,13.53-.978-.2h0v.01Zm0,27.89-.982.19,0,.01,0,.01Zm4.922,13.67-.887.47h0Zm23.379,21.88-.447.89.012.01Zm20.1,6.56-.207.98h.011Zm87.774-16.4-.7-.72h-.006Zm11.894-18.73-.951-.31h0Zm53.688-21.06q0,24.015-8.789,42.36l1.8.87q9-18.84,8.985-43.23Zm-8.788,42.36a82.453,82.453,0,0,1-25.13,30.53l1.2,1.6a84.461,84.461,0,0,0,25.73-31.26Zm-25.13,30.53q-16.365,12.315-39.856,18.7l.524,1.93q23.8-6.465,40.534-19.03Zm-39.852,18.7q-23.367,6.255-52.652,6.26v2q29.5,0,53.168-6.32Zm-52.652,6.26q-29.289,0-52.928-6.26l-.511,1.94q23.936,6.315,53.439,6.32Zm-52.921-6.26q-23.5-6.375-40-18.7l-1.2,1.6q16.855,12.585,40.668,19.03Zm-40-18.7a83.209,83.209,0,0,1-25.4-30.54l-1.8.88a85.127,85.127,0,0,0,26,31.26Zm-25.4-30.53q-8.909-18.36-8.923-42.36h-2q0,24.39,9.124,43.23Zm-8.923-42.36q0-24.015,8.922-42.22l-1.8-.87q-9.14,18.69-9.125,43.09Zm8.923-42.22a82.912,82.912,0,0,1,25.4-30.67l-1.2-1.6a84.914,84.914,0,0,0-26,31.4Zm25.4-30.67q16.5-12.3,39.991-18.56l-.514-1.94q-23.805,6.33-40.673,18.9Zm39.995-18.57q23.64-6.375,52.923-6.39v-2q-29.5,0-53.444,6.46Zm52.923-6.39q29.288,0,52.647,6.39l.527-1.93q-23.668-6.465-53.174-6.46Zm52.653,6.4q23.5,6.24,39.851,18.56l1.2-1.6q-16.722-12.57-40.539-18.9Zm39.851,18.56a82.208,82.208,0,0,1,25.129,30.67l1.8-.87a84.178,84.178,0,0,0-25.731-31.4Zm25.13,30.67q8.773,18.225,8.788,42.22h2q0-24.39-8.986-43.09Zm-40.482,42.22a67.534,67.534,0,0,0-3.468-21.23l-1.9.63a65.524,65.524,0,0,1,3.368,20.6ZM176.775,3013a45.423,45.423,0,0,0-12.154-19.29l-1.391,1.43a43.585,43.585,0,0,1,11.636,18.45Zm-12.148-19.29q-8.675-8.535-23.611-13.76l-.664,1.88q14.62,5.145,22.872,13.31Zm-23.611-13.76q-14.982-5.28-37.93-5.25v2q22.732,0,37.266,5.13Zm-37.93-5.25a131.965,131.965,0,0,0-27.141,2.48l.414,1.95a130.329,130.329,0,0,1,26.727-2.43Zm-27.13,2.48a81.071,81.071,0,0,0-20.349,6.64l.894,1.79a79.1,79.1,0,0,1,19.846-6.47Zm-20.349,6.64a55.351,55.351,0,0,0-14.479,10.17l1.414,1.42a53.262,53.262,0,0,1,13.959-9.8Zm-14.47,10.16a49.033,49.033,0,0,0-9.349,12.43l1.774.92a47.068,47.068,0,0,1,8.972-11.92Zm-9.345,12.42a52.113,52.113,0,0,0-5.017,13.8l1.957.41a50.218,50.218,0,0,1,4.826-13.27Zm-5.02,13.81a72.66,72.66,0,0,0-1.386,14h2a70.689,70.689,0,0,1,1.349-13.62Zm-1.386,14a75.381,75.381,0,0,0,1.385,14.27l1.964-.38a73.43,73.43,0,0,1-1.349-13.89Zm1.389,14.29a54.5,54.5,0,0,0,5.013,13.93l1.774-.93a52.265,52.265,0,0,1-4.83-13.41Zm5.017,13.93a49.853,49.853,0,0,0,9.345,12.28l1.4-1.43a48,48,0,0,1-8.976-11.78Zm9.345,12.28a56.936,56.936,0,0,0,14.47,10.02l.894-1.78a55.184,55.184,0,0,1-13.967-9.67Zm14.482,10.03a88.851,88.851,0,0,0,20.326,6.64l.414-1.96a86.848,86.848,0,0,1-19.869-6.48Zm20.337,6.64a139.134,139.134,0,0,0,27.13,2.35v-2a137.01,137.01,0,0,1-26.738-2.31Zm27.13,2.35q22.931,0,37.93-5.26l-.664-1.88q-14.552,5.115-37.266,5.14Zm37.93-5.26q14.91-5.235,23.611-13.76l-1.4-1.43q-8.277,8.145-22.872,13.31Zm23.6-13.76a45.582,45.582,0,0,0,12.153-19.14l-1.907-.61a43.636,43.636,0,0,1-11.637,18.32Zm12.15-19.14a68.778,68.778,0,0,0,3.467-21.36h-2a66.883,66.883,0,0,1-3.369,20.75ZM455.137,3128l-1,.09.081.91h.915Zm-7.383-26.8-.888.46,0,.01Zm-15.176-19.96-.679.74h.006Zm-20.508-13.81-.434.9,0,.01Zm-23.379-8.61-.263.97h.011Zm-24.062-4.51-.114.99h.012Zm-37.188-1.37v-1h-1v1Zm0,75.06v1h1v-1Zm-50.722,0h-1v1h1Zm0-187.85v-1h-1v1Zm50.722,0h1v-1h-1Zm0,72.46h-1v1h1Zm55.1-6.84-.3-.95h0Zm21.738-9.16.475.88Zm18.594-13.67-.7-.71Zm13.672-18.59.887.46,0-.01Zm6.836-24.2v-1h-.9l-.091.9Zm51.68,0,.995.09.1-1.09h-1.1Zm-6.016,26.93-.933-.36,0,.01Zm-11.348,21.6-.813-.58h0Zm-32.129,28.85.5.87.01-.01Zm-17.5,8.48.356.93h.008Zm-16.132,5.06-.23-.98.074,1.96Zm19.824,4.78-.3.95.008.01h.007Zm20.508,8.48-.467.88.01.01Zm19.277,12.85-.641.77h.005ZM506.816,3128v1H507.9l-.09-1.08Zm-50.683-.09a71.823,71.823,0,0,0-7.493-27.17l-1.772.93a69.816,69.816,0,0,1,7.273,26.42Zm-7.491-27.17a71.74,71.74,0,0,0-15.391-20.24l-1.346,1.48a69.612,69.612,0,0,1,14.961,19.68Zm-15.385-20.23a82.916,82.916,0,0,0-20.757-13.98l-.86,1.81a80.686,80.686,0,0,1,20.259,13.64ZM412.5,3066.53a130.483,130.483,0,0,0-23.56-8.68l-.505,1.94a128.32,128.32,0,0,1,23.2,8.54Zm-23.549-8.67a149.43,149.43,0,0,0-24.224-4.55l-.2,1.99a147.829,147.829,0,0,1,23.9,4.49Zm-24.212-4.54a194.645,194.645,0,0,0-22.263-1.38v2a193.187,193.187,0,0,1,22.035,1.36Zm-22.263-1.38H327.441v2H342.48Zm-16.039,1V3128h2v-75.06Zm1,74.06H276.719v2h50.722Zm-49.722,1V2940.15h-2V3128Zm-1-186.85h50.722v-2H276.719Zm49.722-1v72.46h2v-72.46Zm1,73.46h10.391v-2H327.441Zm10.391,0a156.706,156.706,0,0,0,22.153-1.65l-.283-1.98a154.414,154.414,0,0,1-21.87,1.63Zm22.153-1.65a142.324,142.324,0,0,0,22.856-5.23l-.6-1.91a140.74,140.74,0,0,1-22.535,5.16Zm22.853-5.23a124.229,124.229,0,0,0,21.914-9.24l-.949-1.76a122.021,122.021,0,0,1-21.563,9.09Zm21.914-9.24a82.466,82.466,0,0,0,18.82-13.84l-1.4-1.42a80.52,80.52,0,0,1-18.367,13.5Zm18.82-13.84a74.067,74.067,0,0,0,13.858-18.84l-1.774-.92a72.319,72.319,0,0,1-13.486,18.34Zm13.861-18.85a68.34,68.34,0,0,0,6.941-24.55l-1.99-.2a66.394,66.394,0,0,1-6.731,23.84Zm5.946-23.65h51.68v-2h-51.68Zm50.684-1.09a98.842,98.842,0,0,1-5.953,26.66l1.866.72a100.8,100.8,0,0,0,6.078-27.2Zm-5.956,26.67a92.193,92.193,0,0,1-11.225,21.37l1.627,1.16a94.012,94.012,0,0,0,11.47-21.83ZM476.88,2988.1a89.47,89.47,0,0,1-14.872,16.37l1.3,1.52a91.264,91.264,0,0,0,15.206-16.73Zm-14.872,16.37a123.058,123.058,0,0,1-16.952,12.2l1.021,1.72a124.719,124.719,0,0,0,17.228-12.4Zm-16.942,12.2a128.406,128.406,0,0,1-17.363,8.41l.727,1.86a130.028,130.028,0,0,0,17.637-8.54Zm-17.356,8.4a126.54,126.54,0,0,1-16.006,5.02l.46,1.95a130.5,130.5,0,0,0,16.258-5.1Zm-15.932,6.98a132.947,132.947,0,0,1,19.675,4.75l.61-1.9a133.806,133.806,0,0,0-19.974-4.82Zm19.69,4.76a115.727,115.727,0,0,1,20.331,8.4l.933-1.77a117.589,117.589,0,0,0-20.685-8.55Zm20.341,8.41a103.442,103.442,0,0,1,19.093,12.73l1.282-1.54a105.361,105.361,0,0,0-19.462-12.97Zm19.1,12.73a93.872,93.872,0,0,1,16.5,17.72l1.623-1.16a95.564,95.564,0,0,0-16.855-18.1Zm16.5,17.72a98.651,98.651,0,0,1,12.18,23.15l1.873-.7a100.416,100.416,0,0,0-12.43-23.61Zm12.18,23.15a108.886,108.886,0,0,1,6.229,29.26l1.993-.16a110.884,110.884,0,0,0-6.349-29.8Zm7.225,28.18H455.137v2h51.679Zm253.067-8.3.314.95.686-.22v-.73Zm-46.211,10.94-.141-.99h-.006Zm-101.856-3.14-.269.96h.006Zm-65.351-130.71-.9-.43h0Zm24.609-31.72.646.77h0Zm38.555-21.05.316.95h.005Zm97.07-.68-.312.95h.007Zm36.5,20.37-.666.74,0,.01Zm23.652,33.36-.921.38,0,.01Zm8.477,58.24v1h1v-1Zm-185.117,0v-1H588.9l.351,1.27Zm8.066,16.27-.8.6.007.01Zm39.239,20.64-.2.98h0Zm61.25,1.23.121,1,.01-.01Zm25.019-4.51.229.97h.011Zm20.918-6.29-.341-.94h0Zm15.176-6.83h1v-1.76l-1.512.9Zm-35-57.7v1h1.1l-.108-1.1Zm-4.238-14.35-.911.41.005.01.005.01Zm-10.938-13.54.625-.78Zm-19.687-9.84-.31.95h.009Zm-80.8,10.8-.6-.81-.006.01Zm-12.989,13.53.842.54Zm-6.015,13.4-.976-.22-.271,1.22h1.247Zm169.353,100.63a264.107,264.107,0,0,1-46.037,10.9l.281,1.98a266.839,266.839,0,0,0,46.385-10.98Zm-46.043,10.9a318.292,318.292,0,0,1-46.884,3.41v2a319.605,319.605,0,0,0,47.178-3.43Zm-46.884,3.41q-30.658,0-54.561-6.53l-.527,1.93q24.218,6.6,55.088,6.6Zm-54.555-6.53q-23.778-6.66-39.993-19.1l-1.217,1.58q16.586,12.72,40.671,19.45Zm-39.993-19.1a82.345,82.345,0,0,1-24.724-30.4l-1.808.86a84.212,84.212,0,0,0,25.315,31.12Zm-24.724-30.4q-8.507-17.955-8.517-40.73h-2q0,23.16,8.709,41.59Zm-8.517-40.73a90.1,90.1,0,0,1,8.517-39.08l-1.808-.86a92.162,92.162,0,0,0-8.709,39.94Zm8.515-39.08a93.377,93.377,0,0,1,24.353-31.38l-1.291-1.53a95.43,95.43,0,0,0-24.867,32.05Zm24.353-31.38q15.833-13.4,38.225-20.87l-.632-1.9q-22.716,7.575-38.885,21.24Zm38.23-20.87q22.38-7.605,49.991-7.61v-2q-27.891,0-50.634,7.71Zm49.991-7.61q25.431,0,46.446,6.93l.625-1.9q-21.363-7.035-47.071-7.03Zm46.453,6.93a98.83,98.83,0,0,1,36.144,20.16l1.331-1.49A100.947,100.947,0,0,0,707,2941.38Zm36.147,20.17a89.838,89.838,0,0,1,23.393,32.99l1.843-.77a91.8,91.8,0,0,0-23.912-33.72Zm23.395,33q8.382,19.605,8.4,45.27h2q0-26-8.557-46.06Zm8.4,45.27v12.58h2v-12.58Zm1,11.58H590.215v2H775.332Zm-186.081,1.27a48.766,48.766,0,0,0,8.234,16.6l1.593-1.21a46.72,46.72,0,0,1-7.9-15.93Zm8.241,16.61a48.719,48.719,0,0,0,15.767,12.85l.943-1.77a46.5,46.5,0,0,1-15.131-12.31Zm15.767,12.85a88.623,88.623,0,0,0,24.061,8.16l.4-1.96a86.434,86.434,0,0,1-23.517-7.97Zm24.063,8.16q14.343,2.895,34.1,2.89v-2q-19.622,0-33.709-2.85Zm34.1,2.89a227.581,227.581,0,0,0,27.465-1.64l-.243-1.99a223.521,223.521,0,0,1-27.222,1.63Zm27.475-1.65a252.764,252.764,0,0,0,25.117-4.53l-.458-1.94q-11.566,2.715-24.922,4.49Zm25.128-4.53a201.263,201.263,0,0,0,21.023-6.32l-.69-1.88a197.813,197.813,0,0,1-20.813,6.26Zm21.019-6.32a91.784,91.784,0,0,0,15.346-6.91l-1.023-1.72a89.525,89.525,0,0,1-15,6.75Zm13.835-7.77v43.88h2v-43.88Zm-33.005-57.8a43.747,43.747,0,0,0-4.332-14.69l-1.8.87a41.7,41.7,0,0,1,4.144,14.02Zm-4.323-14.67a38.034,38.034,0,0,0-11.223-13.9l-1.25,1.56a36.069,36.069,0,0,1,10.652,13.17Zm-11.223-13.9q-7.7-6.165-20.012-10.02l-.6,1.91q12.047,3.8,19.363,9.67Zm-20-10.01q-12.366-4.035-30.661-4.02v2q18.087,0,30.042,3.92Zm-30.661-4.02q-17.208,0-29.854,4.29l.645,1.9q12.248-4.17,29.209-4.19Zm-29.854,4.29a77.262,77.262,0,0,0-21.191,10.67l1.192,1.61a75.026,75.026,0,0,1,20.644-10.38Zm-21.2,10.68a54.168,54.168,0,0,0-13.228,13.79l1.683,1.08a52.114,52.114,0,0,1,12.749-13.27Zm-13.228,13.79a43.424,43.424,0,0,0-6.15,13.72l1.952.44a41.454,41.454,0,0,1,5.881-13.08Zm-5.174,14.94H724.883v-2H590.215ZM1000.37,3128h-1v1h1Zm-1.776-124.28-.98.2v.01Zm-6.7-14.63-.79.62.008.01.008.01Zm-13.536-9.43-.369.93H978l.009.01Zm-44.16-.55.234.98.009-.01Zm-22.558,7.39.383.92Zm-21.465,10.8-.515-.86h-.005Zm-18.047,12.85-.645-.77-.355.3v.47Zm0,117.85v1h1v-1Zm-50.723,0h-1v1h1Zm0-187.85v-1h-1v1Zm50.723,0h1v-1h-1Zm0,25.7h-1v1.72l1.5-.85Zm20.371-10.8.443.9.009-.01Zm22.969-9.84-.339-.94Zm88.591-5.2-.3.96h.02Zm25.43,12.99-.63.77.01.01Zm15.86,20.37-.91.41.01.02Zm5.61,154.63v1h1v-1Zm-49.59,0V3022.73h-2V3128Zm0-105.27a94.209,94.209,0,0,0-1.8-19.21l-1.958.41a91.9,91.9,0,0,1,1.756,18.8Zm-1.8-19.21a34.287,34.287,0,0,0-6.9-15.06l-1.547,1.27a32.3,32.3,0,0,1,6.493,14.19Zm-6.889-15.04a30.993,30.993,0,0,0-13.974-9.76l-.7,1.88a28.907,28.907,0,0,1,13.1,9.11Zm-13.956-9.75c-5.9-2.34-13.468-3.49-22.654-3.49v2c9.043,0,16.334,1.13,21.916,3.35Zm-22.654-3.49a91.291,91.291,0,0,0-22.117,2.9l.485,1.94a89.563,89.563,0,0,1,21.632-2.84Zm-22.109,2.9a152.8,152.8,0,0,0-22.707,7.43l.766,1.85a150.436,150.436,0,0,1,22.409-7.33Zm-22.707,7.43a163.981,163.981,0,0,0-21.6,10.87l1.029,1.71a162.627,162.627,0,0,1,21.334-10.73Zm-21.6,10.87a145.127,145.127,0,0,0-18.172,12.94l1.29,1.53a142.3,142.3,0,0,1,17.921-12.76Zm-18.527,13.71V3128h2V3010.15Zm1,116.85H821.406v2h50.723Zm-49.723,1V2940.15h-2V3128Zm-1-186.85h50.723v-2H821.406Zm49.723-1v25.7h2v-25.7Zm1.5,26.57q9.542-5.46,20.318-10.77l-.886-1.8q-10.825,5.355-20.424,10.83Zm20.327-10.78a201.787,201.787,0,0,1,22.855-9.79l-.677-1.88a202.687,202.687,0,0,0-23.082,9.89Zm22.855-9.79a179.783,179.783,0,0,1,25.7-7.07l-.393-1.96a181.528,181.528,0,0,0-25.982,7.15Zm25.7-7.07a145.775,145.775,0,0,1,28.651-2.72v-2a147.634,147.634,0,0,0-29.044,2.76Zm28.651-2.72q18.885,0,33.6,4.61l.6-1.91q-15.074-4.71-34.2-4.7Zm33.624,4.61a71.938,71.938,0,0,1,25.08,12.8l1.26-1.54a73.717,73.717,0,0,0-25.77-13.18Zm25.09,12.81a54,54,0,0,1,15.57,20l1.82-.82a55.892,55.892,0,0,0-16.14-20.74Zm15.58,20.02a60.873,60.873,0,0,1,5.51,26.23h2a62.908,62.908,0,0,0-5.7-27.09Zm5.51,26.23V3128h2V3000.03Zm1,126.97h-50.59v2h50.59Zm292.3-50,.9.44h0Zm-25.43,30.9-.6-.8Zm-40.19,18.87.26.97v-.01Zm-106.1,0-.26.96.01.01ZM1105.51,3077l-.9.44h0Zm0-85.45.9.44h0Zm66.03-49.76.26.97v-.01Zm106.1,0-.27.96.01.01Zm65.62,49.76-.9.44h0Zm-45.8,21.74-.95.3v.02Zm-11.89-18.86-.71.71h.01Zm-87.78-16.27.2.98.01-.01Zm-34.31,16.54.7.71h0Zm-9.16,12.17.88.47v-.01Zm-4.93,13.53-.97-.2h-.01v.01Zm0,27.89-.98.19v.01l.01.01Zm4.93,13.67-.89.47h0Zm23.38,21.88-.45.89.01.01Zm20.09,6.56-.2.98h.01Zm87.78-16.4-.7-.72h0Zm11.89-18.73-.95-.31h0Zm53.69-21.06q0,24.015-8.79,42.36l1.8.87q9-18.84,8.99-43.23Zm-8.79,42.36a82.442,82.442,0,0,1-25.13,30.53l1.2,1.6a84.375,84.375,0,0,0,25.73-31.26Zm-25.13,30.53q-16.365,12.315-39.86,18.7l.53,1.93q23.8-6.465,40.53-19.03Zm-39.85,18.7q-23.37,6.255-52.65,6.26v2q29.49,0,53.17-6.32Zm-52.65,6.26q-29.3,0-52.93-6.26l-.51,1.94q23.925,6.315,53.44,6.32Zm-52.92-6.26q-23.505-6.375-40-18.7l-1.2,1.6q16.86,12.585,40.67,19.03Zm-40-18.7a83.1,83.1,0,0,1-25.4-30.54l-1.8.88a85.206,85.206,0,0,0,26,31.26Zm-25.4-30.53q-8.91-18.36-8.93-42.36h-2q0,24.39,9.13,43.23Zm-8.93-42.36q0-24.015,8.93-42.22l-1.8-.87q-9.135,18.69-9.13,43.09Zm8.93-42.22a82.879,82.879,0,0,1,25.4-30.67l-1.2-1.6a84.912,84.912,0,0,0-26,31.4Zm25.4-30.67q16.5-12.3,39.99-18.56l-.51-1.94q-23.8,6.33-40.68,18.9Zm39.99-18.57q23.64-6.375,52.93-6.39v-2q-29.5,0-53.45,6.46Zm52.93-6.39q29.28,0,52.64,6.39l.53-1.93q-23.67-6.465-53.17-6.46Zm52.65,6.4q23.505,6.24,39.85,18.56l1.2-1.6q-16.725-12.57-40.54-18.9Zm39.85,18.56a82.268,82.268,0,0,1,25.13,30.67l1.8-.87a84.11,84.11,0,0,0-25.73-31.4Zm25.13,30.67q8.775,18.225,8.79,42.22h2q0-24.39-8.99-43.09Zm-40.48,42.22a67.566,67.566,0,0,0-3.47-21.23l-1.9.63a65.441,65.441,0,0,1,3.37,20.6Zm-3.46-21.21a45.534,45.534,0,0,0-12.16-19.29l-1.39,1.43a43.682,43.682,0,0,1,11.64,18.45Zm-12.15-19.29q-8.685-8.535-23.61-13.76l-.67,1.88q14.625,5.145,22.88,13.31Zm-23.61-13.76q-14.985-5.28-37.93-5.25v2q22.725,0,37.26,5.13Zm-37.93-5.25a131.94,131.94,0,0,0-27.14,2.48l.41,1.95a130.327,130.327,0,0,1,26.73-2.43Zm-27.13,2.48a81.033,81.033,0,0,0-20.35,6.64l.89,1.79a79.214,79.214,0,0,1,19.85-6.47Zm-20.35,6.64a55.457,55.457,0,0,0-14.48,10.17l1.41,1.42a53.265,53.265,0,0,1,13.96-9.8Zm-14.47,10.16a48.947,48.947,0,0,0-9.35,12.43l1.77.92a47.178,47.178,0,0,1,8.98-11.92Zm-9.35,12.42a52.1,52.1,0,0,0-5.01,13.8l1.95.41a50.283,50.283,0,0,1,4.83-13.27Zm-5.02,13.81a72.914,72.914,0,0,0-1.38,14h2a70.651,70.651,0,0,1,1.35-13.62Zm-1.38,14a75.614,75.614,0,0,0,1.38,14.27l1.97-.38a73.421,73.421,0,0,1-1.35-13.89Zm1.39,14.29a54.413,54.413,0,0,0,5.01,13.93l1.77-.93a52.793,52.793,0,0,1-4.83-13.41Zm5.01,13.93a49.944,49.944,0,0,0,9.35,12.28l1.4-1.43a47.691,47.691,0,0,1-8.98-11.78Zm9.35,12.28a56.814,56.814,0,0,0,14.47,10.02l.89-1.78a55.183,55.183,0,0,1-13.96-9.67Zm14.48,10.03a88.839,88.839,0,0,0,20.33,6.64l.41-1.96a86.781,86.781,0,0,1-19.87-6.48Zm20.34,6.64a139.056,139.056,0,0,0,27.13,2.35v-2a137.059,137.059,0,0,1-26.74-2.31Zm27.13,2.35q22.92,0,37.93-5.26l-.67-1.88q-14.55,5.115-37.26,5.14Zm37.93-5.26q14.91-5.235,23.61-13.76l-1.4-1.43q-8.28,8.145-22.88,13.31Zm23.6-13.76a45.546,45.546,0,0,0,12.15-19.14l-1.9-.61a43.663,43.663,0,0,1-11.64,18.32Zm12.15-19.14a68.785,68.785,0,0,0,3.47-21.36h-2a66.826,66.826,0,0,1-3.37,20.75Zm150.67-115.42h1v-1h-1Zm0,20.64h-1v1.82l1.54-.97Zm14.49-8.75-.49-.87-.01.01Zm17.09-8.2-.36-.93h-.01Zm19.83-6.02.21.98h.01Zm44.02.14-.27.96.01.01Zm15.59,6.56-.53.85.01.01h.01Zm11.35,9.03-.74.67.01.01Zm8.06,9.84-.82.57.55.8.82-.53Zm57.7-25.98.19.99.01-.01Zm51.54,2.74-.33.94h0Zm37.46,32.81-.92.4.01.01h0Zm5.06,155.04v1h1v-1Zm-50.72,0h-1v1h1Zm-2.33-136.72-.92.39Zm-6.29-8.89-.66.75v.01h.01Zm-9.16-5.05-.3.95h.01Zm-73.41,22.96-.58-.81-.52.36.11.63Zm.54,5.47-1,.05v.02l.01.02Zm.28,122.23v1h1v-1Zm-50.73,0h-1v1h1Zm-2.32-137.54-.92.4.01.01Zm-6.43-8.61-.63.77h0l.01.01Zm-9.29-4.65-.28.96h.01l.02.01Zm-26.12.55-.25-.97h0Zm-15.86,5.74-.41-.91h-.01Zm-15.72,8.75-.54-.84h-.01Zm-14.63,10.94-.64-.77-.36.3v.47Zm0,124.82v1h1v-1Zm-50.72,0h-1v1h1Zm0-187.85v-1h-1v1Zm49.72,0v20.64h2v-20.64Zm1.54,21.49q6.675-4.23,14.46-8.73l-1.01-1.73q-7.8,4.515-14.52,8.77Zm14.45-8.73a139.7,139.7,0,0,1,16.97-8.14l-.75-1.86a143.63,143.63,0,0,0-17.21,8.26Zm16.96-8.14a128.292,128.292,0,0,1,19.67-5.97l-.43-1.95a130.28,130.28,0,0,0-19.97,6.06Zm19.68-5.97a101.145,101.145,0,0,1,22.75-2.44v-2a103.013,103.013,0,0,0-23.2,2.49Zm22.75-2.44a75.5,75.5,0,0,1,20.78,2.56l.55-1.92a77.57,77.57,0,0,0-21.33-2.64Zm20.79,2.57a57.29,57.29,0,0,1,15.32,6.44l1.06-1.69a58.971,58.971,0,0,0-15.86-6.68Zm15.34,6.45a48.723,48.723,0,0,1,11.12,8.84l1.47-1.35a50.575,50.575,0,0,0-11.57-9.21Zm11.13,8.85a84.845,84.845,0,0,1,7.97,9.73l1.64-1.14a85.434,85.434,0,0,0-8.16-9.96Zm9.34,10q9.675-6.27,19.07-11.45l-.96-1.75q-9.465,5.22-19.2,11.52Zm19.07-11.45a155.876,155.876,0,0,1,18.89-8.83l-.72-1.86a155.4,155.4,0,0,0-19.13,8.94Zm18.89-8.83a112.047,112.047,0,0,1,19.38-5.55l-.38-1.97a114.24,114.24,0,0,0-19.72,5.66Zm19.39-5.56a102.184,102.184,0,0,1,20.58-2.03v-2a104.047,104.047,0,0,0-20.98,2.07Zm20.58-2.03a91.146,91.146,0,0,1,30.43,4.73l.66-1.88q-13.725-4.86-31.09-4.85Zm30.43,4.73a67.811,67.811,0,0,1,22.77,12.93l1.33-1.5a69.852,69.852,0,0,0-23.44-13.32Zm22.77,12.93a54.5,54.5,0,0,1,14.1,19.34l1.84-.8a56.6,56.6,0,0,0-14.61-20.04Zm14.11,19.35a56.851,56.851,0,0,1,4.97,23.65h2a58.713,58.713,0,0,0-5.15-24.47Zm4.97,23.65V3128h2V2997.02Zm1,129.98h-50.72v2h50.72Zm-49.72,1V3004.27h-2V3128Zm0-123.73a33.972,33.972,0,0,0-2.41-13.38l-1.84.78a32.034,32.034,0,0,1,2.25,12.6Zm-2.41-13.38a24.747,24.747,0,0,0-6.55-9.25l-1.31,1.51a22.889,22.889,0,0,1,6.02,8.52Zm-6.54-9.24a25.268,25.268,0,0,0-9.53-5.27l-.59,1.91a23.427,23.427,0,0,1,8.79,4.85Zm-9.53-5.27a37.726,37.726,0,0,0-11.37-1.68v2a35.6,35.6,0,0,1,10.77,1.59Zm-11.37-1.68c-18.52,0-39.51,8.32-62.92,24.79l1.15,1.63c23.25-16.35,43.83-24.42,61.77-24.42Zm-63.33,25.78a42.162,42.162,0,0,1,.53,5.34l2-.09a43.5,43.5,0,0,0-.56-5.6Zm.54,5.38q.27,3.1.27,6.2h2c0-2.12-.1-4.25-.28-6.37Zm.27,6.2V3128h2V3012.06Zm1,114.94h-50.73v2h50.73Zm-49.73,1V3003.18h-2V3128Zm0-124.82a32.142,32.142,0,0,0-2.41-13.13l-1.82.82a30.2,30.2,0,0,1,2.23,12.31Zm-2.4-13.12a23.139,23.139,0,0,0-6.72-8.99l-1.25,1.56a21.085,21.085,0,0,1,6.13,8.23Zm-6.71-8.98a24.538,24.538,0,0,0-9.69-4.85l-.49,1.94a22.608,22.608,0,0,1,8.91,4.45Zm-9.66-4.84a40.635,40.635,0,0,0-11.35-1.54v2a38.827,38.827,0,0,1,10.8,1.46Zm-11.35-1.54a60.945,60.945,0,0,0-15.29,2.08l.5,1.93a59.58,59.58,0,0,1,14.79-2.01Zm-15.29,2.08a98.871,98.871,0,0,0-16.02,5.8l.83,1.82a96.963,96.963,0,0,1,15.7-5.69Zm-16.03,5.8a128.673,128.673,0,0,0-15.84,8.82l1.09,1.68a126.137,126.137,0,0,1,15.6-8.69Zm-15.85,8.82a159.275,159.275,0,0,0-14.72,11.01l1.29,1.53a156.476,156.476,0,0,1,14.53-10.87Zm-15.08,11.78V3128h2V3003.18Zm1,123.82h-50.72v2h50.72Zm-49.72,1V2940.15h-2V3128Zm-1-186.85h50.72v-2h-50.72ZM1789.38,3128h-1v1h1Zm0-187.85v-1h-1v1Zm50.72,0h1v-1h-1Zm0,187.85v1h1v-1Zm-49.72,0V2940.15h-2V3128Zm-1-186.85h50.72v-2h-50.72Zm49.72-1V3128h2V2940.15Zm1,186.85h-50.72v2h50.72Zm265.92-11.85.38.92.62-.25v-.67Zm-40.47,12.99-.22-.98h-.01Zm-22.56,3.69-.1-1h-.01Zm-78.2-4.92-.25.97h0Zm-41.57-18.46-.58.81.01.01Zm-27.07-30.9-.88.46v.01Zm0-86.54.89.46h0Zm27.07-30.9.58.82v-.01Zm41.57-18.59-.25-.97h0Zm78.2-4.93-.11,1h.01Zm22.56,3.7-.23.97h.01Zm40.47,12.98h1v-.66l-.62-.26Zm0,45.67-.48.88,1.48.8v-1.68Zm-16.41-8.34-.44.89.01.01Zm-19-7.52-.32.95h.01Zm-22.84-5.47-.17.98.01.01Zm-67.81,2.73-.3-.95h0Zm-38.42,32,.94.34v-.01Zm-2.18,36.77-.98.22h0Zm5.46,13.81-.86.51h.01Zm46.63,27.62-.19.98h.01Zm56.32.27.16.99h.01Zm41.84-12.71.43.9.01-.01Zm16.41-8.62h1v-1.7l-1.49.83Zm-.39,44.75q-9.81,4.08-19.75,7.35l.62,1.9q10.02-3.285,19.9-7.41Zm-19.75,7.35a204.838,204.838,0,0,1-20.55,5.58l.43,1.95a206.016,206.016,0,0,0,20.74-5.63Zm-20.56,5.58a182.621,182.621,0,0,1-22.43,3.67l.2,1.99a185.14,185.14,0,0,0,22.68-3.71Zm-22.44,3.67a241.471,241.471,0,0,1-25.18,1.23v2a243.03,243.03,0,0,0,25.39-1.24Zm-25.18,1.23a213.428,213.428,0,0,1-52.67-6.12l-.49,1.94a215.646,215.646,0,0,0,53.16,6.18Zm-52.67-6.12q-23.91-6.12-41.23-18.31l-1.15,1.64q17.67,12.42,41.89,18.61Zm-41.22-18.3a86.913,86.913,0,0,1-26.77-30.55l-1.77.93a88.928,88.928,0,0,0,27.37,31.24Zm-26.77-30.55q-9.585-18.345-9.59-42.88h-2q0,24.945,9.82,43.8Zm-9.59-42.88q0-24.54,9.59-42.74l-1.77-.93q-9.84,18.72-9.82,43.67Zm9.59-42.74a85.431,85.431,0,0,1,26.76-30.54l-1.16-1.64a87.454,87.454,0,0,0-27.37,31.26Zm26.76-30.55q17.325-12.315,41.23-18.44l-.49-1.93q-24.21,6.18-41.9,18.74Zm41.23-18.44a213.908,213.908,0,0,1,52.67-6.12v-2a215.156,215.156,0,0,0-53.16,6.19Zm52.67-6.12a241.4,241.4,0,0,1,25.18,1.23l.21-1.99a242.964,242.964,0,0,0-25.39-1.24Zm25.19,1.23a182.575,182.575,0,0,1,22.43,3.67l.45-1.95a185.046,185.046,0,0,0-22.68-3.71Zm22.44,3.67a204.838,204.838,0,0,1,20.55,5.58l.62-1.9a206.016,206.016,0,0,0-20.74-5.63Zm20.55,5.58q9.945,3.27,19.75,7.36l.77-1.85q-9.885-4.11-19.9-7.41Zm19.14,6.43v45.67h2v-45.67Zm1.47,44.79q-7.815-4.26-16.45-8.37l-.86,1.81q8.595,4.095,16.36,8.32Zm-16.44-8.36a137.292,137.292,0,0,0-19.14-7.58l-.61,1.91a134.88,134.88,0,0,1,18.87,7.46Zm-19.13-7.57a153.962,153.962,0,0,0-22.98-5.51l-.33,1.98a151.513,151.513,0,0,1,22.68,5.43Zm-22.97-5.51a163.89,163.89,0,0,0-28.2-2.2v2a162.431,162.431,0,0,1,27.85,2.17Zm-28.2-2.2q-24.015,0-40.09,4.97l.6,1.91q15.66-4.86,39.49-4.88Zm-40.09,4.97q-15.855,4.965-25.51,13.32l1.31,1.51q9.24-8.025,24.8-12.92Zm-25.51,13.32A46.031,46.031,0,0,0,1940.6,3012l1.88.67a44.113,44.113,0,0,1,12.98-18.45Zm-13.55,19.28a64.6,64.6,0,0,0-3.89,22.22h2a62.513,62.513,0,0,1,3.77-21.53Zm-3.89,22.22a69.434,69.434,0,0,0,1.67,15.12l1.95-.43a67.409,67.409,0,0,1-1.62-14.69Zm1.67,15.12a49.768,49.768,0,0,0,5.58,14.1l1.73-1.01a47.61,47.61,0,0,1-5.36-13.53Zm5.59,14.1a51.2,51.2,0,0,0,10.17,12.13l1.33-1.49a49.864,49.864,0,0,1-9.79-11.66Zm10.17,12.13a58.018,58.018,0,0,0,15.58,9.61l.79-1.84a56.032,56.032,0,0,1-15.04-9.26Zm15.58,9.61a102.879,102.879,0,0,0,21.54,6.35l.37-1.96a101.151,101.151,0,0,1-21.12-6.23Zm21.55,6.35a164.119,164.119,0,0,0,28.48,2.21v-2a161.662,161.662,0,0,1-28.13-2.18Zm28.48,2.21a185.934,185.934,0,0,0,28.18-1.93l-.31-1.98a183.948,183.948,0,0,1-27.87,1.91Zm28.19-1.93a164.857,164.857,0,0,0,22.97-5.37l-.61-1.9a163.791,163.791,0,0,1-22.69,5.3Zm22.97-5.37a148.469,148.469,0,0,0,19.13-7.43l-.86-1.81a146.367,146.367,0,0,1-18.88,7.34Zm19.14-7.44q8.64-4.245,16.46-8.63l-.98-1.75q-7.77,4.365-16.36,8.59Zm14.97-9.51v45.67h2v-45.67Zm221.39-76.42-.44.9,1.44.7v-1.6Zm-33.91-12.03-.26.96.01.01Zm-24.06-4.92-.16.98h.01Zm-45.39-1.37-.09-1h0Zm-12.99,1.78-.2-.98h-.01Zm-8.34,2.59.41.91h.02Zm-6.84,5.88-.94-.34-.01.04-.01.04Zm3.69,9.98-.6.8h0l.01.01Zm11.22,5.47-.33.95h.01Zm16.54,4.51-.23.98h.02Zm19.96,4.38-.22.97.01.01h.01Zm21.87,4.92-.23.97h.01Zm21.88,6.15-.32.95h0Zm20.1,8.34-.46.89.01.01Zm27.07,67.4-.9-.44Zm-12.85,16.41-.64-.77-.01.01Zm-18.46,10.8.35.94.01-.01Zm-22.15,6.15-.19-.98h0Zm-23.38,2.88-.06-1h0Zm-74.1-3.97.19-.98h0Zm-41.84-11.35h-1v.69l.65.25Zm0-44.84.49-.88-1.49-.82v1.7Zm42.66,16.27-.24.97h0Zm77.66,4.24.16.98h.01Zm15.99-4.38.41.91h.01l.01-.01Zm5.74-19.69-.64.77.01.01h.01Zm-11.21-5.87-.34.93.01.01h.01Zm-16.54-4.65-.23.97h.02Zm-20.1-4.24-.2.98h.01Zm-43.61-10.39-.31.95h.02Zm-19.96-7.8-.43.91h.01Zm-16.54-10.52-.66.75.01.01Zm-11.22-14.08-.89.45h.01Zm12.04-55.38.64.77.01-.01Zm17.22-10.39-.37-.92h-.01Zm86-8.88-.1.99h0Zm22.83,3.14-.18.99h.01Zm21.6,4.51-.24.97h0Zm19.42,5.47h1v-.73l-.7-.22Zm.43,42.58q-5.385-2.625-14.16-5.92l-.71,1.88q8.73,3.27,14,5.84Zm-14.16-5.92a201.04,201.04,0,0,0-19.93-6.18l-.5,1.94a193.487,193.487,0,0,1,19.72,6.12Zm-19.92-6.18a208.891,208.891,0,0,0-24.18-4.94l-.29,1.97a208.724,208.724,0,0,1,23.95,4.9Zm-24.17-4.94a171.107,171.107,0,0,0-26.81-2.07v2a169.477,169.477,0,0,1,26.5,2.04Zm-26.81-2.07q-10.965,0-18.82.69l.17,1.99q7.74-.675,18.65-.68Zm-18.82.69a119.244,119.244,0,0,0-13.1,1.8l.4,1.96a118.712,118.712,0,0,1,12.88-1.77Zm-13.11,1.8a38.829,38.829,0,0,0-8.56,2.67l.86,1.81a36.553,36.553,0,0,1,8.11-2.53Zm-8.55,2.66a19.036,19.036,0,0,0-4.91,3.05l1.36,1.47a16.907,16.907,0,0,1,4.38-2.7Zm-4.91,3.05a8.965,8.965,0,0,0-2.45,3.4l1.88.68a6.958,6.958,0,0,1,1.93-2.61Zm-2.47,3.48a11.557,11.557,0,0,0-.45,3h2a9.3,9.3,0,0,1,.38-2.47Zm-.45,3c0,3.12,1.59,5.8,4.5,8.04l1.21-1.59c-2.56-1.96-3.71-4.11-3.71-6.45Zm4.51,8.05a43.976,43.976,0,0,0,11.48,5.61l.65-1.89a42.182,42.182,0,0,1-10.94-5.33Zm11.49,5.61q7.17,2.34,16.63,4.54l.45-1.95q-9.39-2.175-16.45-4.49Zm16.65,4.54q9.42,2.055,19.95,4.37l.43-1.95q-10.515-2.325-19.96-4.37Zm19.97,4.38q10.635,2.175,21.84,4.91l.47-1.94q-11.22-2.745-21.91-4.93Zm21.85,4.91q11.3,2.595,21.78,6.13l.64-1.9a225.053,225.053,0,0,0-21.97-6.17Zm21.78,6.13a147.413,147.413,0,0,1,19.96,8.28l.91-1.78a149.933,149.933,0,0,0-20.23-8.4Zm19.97,8.29a73.367,73.367,0,0,1,16.33,10.79l1.32-1.5a75.15,75.15,0,0,0-16.76-11.08Zm16.33,10.79a46.9,46.9,0,0,1,10.98,14.19l1.79-.9a49.019,49.019,0,0,0-11.45-14.79Zm10.98,14.19a40.4,40.4,0,0,1,3.99,18.28h2a42.385,42.385,0,0,0-4.2-19.18Zm3.99,18.28q0,13.365-4.68,22.8l1.79.89c3.28-6.64,4.89-14.55,4.89-23.69Zm-4.68,22.8a48.519,48.519,0,0,1-12.59,16.08l1.27,1.54a50.507,50.507,0,0,0,13.11-16.73Zm-12.6,16.09a63.878,63.878,0,0,1-18.17,10.63l.72,1.86a65.636,65.636,0,0,0,18.74-10.97Zm-18.16,10.63a131.464,131.464,0,0,1-21.99,6.1l.38,1.97a133.415,133.415,0,0,0,22.31-6.2Zm-21.99,6.1a180.088,180.088,0,0,1-23.25,2.86l.12,1.99a180.853,180.853,0,0,0,23.51-2.88Zm-23.25,2.86q-11.73.675-22.36.68v2q10.7,0,22.48-.69Zm-22.36.68a269.105,269.105,0,0,1-51.49-4.63l-.38,1.96a270.864,270.864,0,0,0,51.87,4.67Zm-51.49-4.63a254.369,254.369,0,0,1-41.67-11.3l-.71,1.87a256.047,256.047,0,0,0,42,11.39Zm-41.03-10.37v-44.84h-2v44.84Zm-1.48-43.97a173.223,173.223,0,0,0,42.9,16.37l.48-1.94a171.181,171.181,0,0,1-42.41-16.18Zm42.9,16.37a217.15,217.15,0,0,0,51.65,5.91v-2a214.95,214.95,0,0,1-51.17-5.85Zm51.65,5.91a170.263,170.263,0,0,0,26.41-1.66l-.32-1.97a169.229,169.229,0,0,1-26.09,1.63Zm26.42-1.66a69.369,69.369,0,0,0,16.23-4.45l-.82-1.82q-5.58,2.52-15.75,4.3Zm16.25-4.46c3.89-1.85,6.69-3.91,8.2-6.23l-1.67-1.09c-1.22,1.87-3.62,3.73-7.39,5.52Zm8.2-6.23a12.079,12.079,0,0,0,2.22-6.56h-2a10.14,10.14,0,0,1-1.89,5.47Zm2.22-6.56a10.739,10.739,0,0,0-4.48-8.58l-1.25,1.56c2.54,2.04,3.73,4.36,3.73,7.02Zm-4.47-8.56a36.711,36.711,0,0,0-11.52-6.06l-.65,1.89a34.984,34.984,0,0,1,10.89,5.7Zm-11.5-6.05a126.9,126.9,0,0,0-16.68-4.69l-.42,1.95a127.255,127.255,0,0,1,16.41,4.61Zm-16.66-4.69q-9.465-2.19-20.14-4.24l-.38,1.96q10.65,2.055,20.06,4.23Zm-20.12-4.24q-10.53-2.19-21.73-4.65l-.43,1.96q11.22,2.46,21.75,4.65Zm-21.73-4.65q-11.175-2.445-21.8-5.72l-.58,1.91q10.7,3.3,21.95,5.77Zm-21.78-5.71a177.722,177.722,0,0,1-19.85-7.75l-.84,1.81a178.554,178.554,0,0,0,20.07,7.84Zm-19.84-7.75a75.515,75.515,0,0,1-16.33-10.39l-1.29,1.53a77.6,77.6,0,0,0,16.76,10.67Zm-16.32-10.38a46.385,46.385,0,0,1-10.98-13.78l-1.77.91a48.083,48.083,0,0,0,11.44,14.38Zm-10.97-13.78a39.352,39.352,0,0,1-4-18.14h-2a41.571,41.571,0,0,0,4.21,19.05Zm-4-18.14q0-12.27,4.28-21.03l-1.8-.87q-4.5,9.27-4.48,21.9Zm4.28-21.03a45.58,45.58,0,0,1,11.5-14.98l-1.29-1.53a47.466,47.466,0,0,0-12.01,15.64Zm11.51-14.99a61.619,61.619,0,0,1,16.95-10.22l-.76-1.85a64.082,64.082,0,0,0-17.49,10.55Zm16.95-10.22a116.606,116.606,0,0,1,20.47-6.1l-.4-1.96a118.3,118.3,0,0,0-20.82,6.21Zm20.47-6.1a173.188,173.188,0,0,1,21.75-2.99l-.15-1.99a175.562,175.562,0,0,0-22,3.02Zm21.75-2.99q11.04-.81,20.98-.82v-2q-10.02,0-21.13.83Zm20.98-.82q10.89,0,22.32,1.09l.19-1.99q-11.52-1.095-22.51-1.1Zm22.32,1.09q11.58,1.095,22.75,3.14l.36-1.97q-11.25-2.055-22.92-3.16Zm22.76,3.14q11.175,1.905,21.53,4.49l.48-1.94q-10.425-2.61-21.67-4.52Zm21.53,4.49q10.5,2.595,19.35,5.45l.61-1.9q-8.925-2.88-19.48-5.49Zm18.66,4.5v43.48h2v-43.48Z" transform="translate(257.484 -2934.36)" fill="url(#linear-gradient)"/>
</svg>
