<svg xmlns="http://www.w3.org/2000/svg" xmlns:xlink="http://www.w3.org/1999/xlink" width="1600.564" height="932.874" viewBox="0 0 1600.564 932.874">
  <defs>
    <linearGradient id="linear-gradient" x1="-0.029" y1="0.653" x2="1.039" y2="0.653" gradientUnits="objectBoundingBox">
      <stop offset="0" stop-color="#df2dba"/>
      <stop offset="0.5" stop-color="#ffa900"/>
      <stop offset="1" stop-color="#39fffc"/>
    </linearGradient>
    <linearGradient id="linear-gradient-2" x1="-0.036" y1="0.576" x2="1.041" y2="0.576" xlink:href="#linear-gradient"/>
    <linearGradient id="linear-gradient-3" x1="-0.041" y1="0.501" x2="1.046" y2="0.501" xlink:href="#linear-gradient"/>
    <linearGradient id="linear-gradient-4" x1="-0.024" y1="0.65" x2="1.034" y2="0.65" xlink:href="#linear-gradient"/>
    <linearGradient id="linear-gradient-5" x1="-0.031" y1="0.573" x2="1.036" y2="0.573" xlink:href="#linear-gradient"/>
    <linearGradient id="linear-gradient-6" x1="-0.036" y1="0.497" x2="1.041" y2="0.497" xlink:href="#linear-gradient"/>
    <linearGradient id="linear-gradient-7" x1="-0.02" y1="0.647" x2="1.03" y2="0.647" xlink:href="#linear-gradient"/>
    <linearGradient id="linear-gradient-8" x1="-0.026" y1="0.569" x2="1.032" y2="0.569" xlink:href="#linear-gradient"/>
    <linearGradient id="linear-gradient-9" x1="-0.03" y1="0.493" x2="1.036" y2="0.493" xlink:href="#linear-gradient"/>
    <linearGradient id="linear-gradient-10" x1="-0.016" y1="0.646" x2="1.025" y2="0.646" xlink:href="#linear-gradient"/>
    <linearGradient id="linear-gradient-11" x1="-0.022" y1="0.565" x2="1.027" y2="0.565" xlink:href="#linear-gradient"/>
    <linearGradient id="linear-gradient-12" x1="-0.026" y1="0.488" x2="1.031" y2="0.488" xlink:href="#linear-gradient"/>
    <linearGradient id="linear-gradient-13" x1="-0.013" y1="0.647" x2="1.022" y2="0.647" xlink:href="#linear-gradient"/>
    <linearGradient id="linear-gradient-14" x1="-0.018" y1="0.564" x2="1.023" y2="0.564" xlink:href="#linear-gradient"/>
    <linearGradient id="linear-gradient-15" x1="-0.021" y1="0.483" x2="1.027" y2="0.483" xlink:href="#linear-gradient"/>
    <linearGradient id="linear-gradient-16" x1="-0.009" y1="0.648" x2="1.018" y2="0.648" xlink:href="#linear-gradient"/>
    <linearGradient id="linear-gradient-17" x1="-0.014" y1="0.565" x2="1.02" y2="0.565" xlink:href="#linear-gradient"/>
    <linearGradient id="linear-gradient-18" x1="-0.018" y1="0.482" x2="1.023" y2="0.482" xlink:href="#linear-gradient"/>
    <linearGradient id="linear-gradient-19" x1="-0.007" y1="0.649" x2="1.015" y2="0.649" xlink:href="#linear-gradient"/>
    <linearGradient id="linear-gradient-20" x1="-0.011" y1="0.566" x2="1.016" y2="0.566" xlink:href="#linear-gradient"/>
    <linearGradient id="linear-gradient-21" x1="-0.014" y1="0.483" x2="1.019" y2="0.483" xlink:href="#linear-gradient"/>
    <linearGradient id="linear-gradient-22" x1="-0.004" y1="0.65" x2="1.012" y2="0.65" xlink:href="#linear-gradient"/>
    <linearGradient id="linear-gradient-23" x1="-0.009" y1="0.567" x2="1.013" y2="0.567" xlink:href="#linear-gradient"/>
    <linearGradient id="linear-gradient-24" x1="-0.011" y1="0.484" x2="1.016" y2="0.484" xlink:href="#linear-gradient"/>
    <linearGradient id="linear-gradient-25" x1="-0.002" y1="0.651" x2="1.01" y2="0.651" xlink:href="#linear-gradient"/>
    <linearGradient id="linear-gradient-26" x1="-0.006" y1="0.569" x2="1.01" y2="0.569" xlink:href="#linear-gradient"/>
    <linearGradient id="linear-gradient-27" x1="-0.008" y1="0.486" x2="1.013" y2="0.486" xlink:href="#linear-gradient"/>
    <linearGradient id="linear-gradient-28" x1="-0.001" y1="0.653" x2="1.007" y2="0.653" xlink:href="#linear-gradient"/>
    <linearGradient id="linear-gradient-29" x1="-0.004" y1="0.57" x2="1.008" y2="0.57" xlink:href="#linear-gradient"/>
    <linearGradient id="linear-gradient-30" x1="-0.006" y1="0.488" x2="1.01" y2="0.488" xlink:href="#linear-gradient"/>
    <linearGradient id="linear-gradient-31" x1="0" y1="0.654" x2="1.006" y2="0.654" xlink:href="#linear-gradient"/>
    <linearGradient id="linear-gradient-32" x1="-0.003" y1="0.572" x2="1.005" y2="0.572" xlink:href="#linear-gradient"/>
    <linearGradient id="linear-gradient-33" x1="-0.004" y1="0.49" x2="1.008" y2="0.49" xlink:href="#linear-gradient"/>
    <linearGradient id="linear-gradient-34" x1="0.001" y1="0.656" x2="1.004" y2="0.656" xlink:href="#linear-gradient"/>
    <linearGradient id="linear-gradient-35" x1="-0.001" y1="0.574" x2="1.004" y2="0.574" xlink:href="#linear-gradient"/>
    <linearGradient id="linear-gradient-36" x1="-0.003" y1="0.492" x2="1.005" y2="0.492" xlink:href="#linear-gradient"/>
    <linearGradient id="linear-gradient-37" x1="0.002" y1="0.657" x2="1.003" y2="0.657" xlink:href="#linear-gradient"/>
    <linearGradient id="linear-gradient-38" x1="-0.001" y1="0.575" x2="1.002" y2="0.575" xlink:href="#linear-gradient"/>
    <linearGradient id="linear-gradient-39" x1="-0.001" y1="0.494" x2="1.004" y2="0.494" xlink:href="#linear-gradient"/>
    <linearGradient id="linear-gradient-40" x1="0.002" y1="0.659" x2="1.002" y2="0.659" xlink:href="#linear-gradient"/>
    <linearGradient id="linear-gradient-41" x1="0" y1="0.577" x2="1.001" y2="0.577" xlink:href="#linear-gradient"/>
    <linearGradient id="linear-gradient-42" x1="-0.001" y1="0.496" x2="1.002" y2="0.496" xlink:href="#linear-gradient"/>
    <linearGradient id="linear-gradient-43" x1="0.002" y1="0.661" x2="1.001" y2="0.661" xlink:href="#linear-gradient"/>
    <linearGradient id="linear-gradient-44" x1="0" y1="0.579" x2="1" y2="0.579" xlink:href="#linear-gradient"/>
    <linearGradient id="linear-gradient-45" x1="0" y1="0.498" x2="1.001" y2="0.498" xlink:href="#linear-gradient"/>
    <linearGradient id="linear-gradient-46" x1="0.001" y1="0.662" x2="1.001" y2="0.662" xlink:href="#linear-gradient"/>
    <linearGradient id="linear-gradient-47" x1="0" y1="0.581" x2="0.999" y2="0.581" xlink:href="#linear-gradient"/>
    <linearGradient id="linear-gradient-48" x1="0" y1="0.5" x2="1" y2="0.5" xlink:href="#linear-gradient"/>
  </defs>
  <g id="Group_68264" data-name="Group 68264" transform="translate(5937.258 -3719.241)">
    <g id="Group_68157" data-name="Group 68157" transform="translate(-5887.639 3719.241)">
      <g id="Group_68152" data-name="Group 68152" transform="translate(0 25.021)">
        <g id="Group_68151" data-name="Group 68151">
          <path id="Path_41265" data-name="Path 41265" d="M-5174.589,4641.408c-82.074,0-178.333-6.274-304.677-19.7-180.289-19.156-312.793-81.993-373.1-176.935-59.692-93.969-43.221-211.564,46.377-331.123,60.611-80.878,116.6-142.584,171.167-188.641,54.306-45.838,108.7-78.167,171.168-101.742,55.934-21.107,120.24-35.582,202.374-45.553,76.11-9.241,163.545-14.308,264.785-20.174,54.318-3.148,115.883-6.715,181.62-11.3,85.864-6,161.683,1.673,225.354,22.788,59.207,19.635,106.385,50.267,140.224,91.043,41.738,50.3,60.918,113.935,55.468,184.041-5.481,70.5-35.66,144.164-87.275,213.038l-.433-.192.433.192c-72.8,97.147-134.881,167.049-195.364,219.984-65.058,56.939-129.408,95.615-202.513,121.712-72.231,25.786-152.664,39.125-253.128,41.977C-5145.881,4641.209-5160.013,4641.408-5174.589,4641.408Zm414.843-896.375q-26.77,0-55.04,1.971c-65.745,4.59-127.314,8.157-181.635,11.3-101.218,5.865-188.634,10.931-264.705,20.166-82.032,9.96-146.247,24.412-202.089,45.485-62.356,23.53-116.651,55.8-170.869,101.568-54.518,46.018-110.466,107.679-171.041,188.508-89.426,119.33-105.884,236.667-46.344,330.4,60.158,94.7,192.39,157.39,372.339,176.511,148.724,15.8,255.737,21.7,346.983,19.1,100.327-2.849,180.638-16.165,252.744-41.905,72.976-26.051,137.221-64.666,202.184-121.521,60.438-52.9,122.479-122.759,195.248-219.861,51.538-68.771,81.671-142.321,87.143-212.7,5.437-69.942-13.689-133.423-55.313-183.579-33.729-40.645-80.757-71.178-139.777-90.751C-4639.47,3753.3-4696.414,3745.033-4759.746,3745.033Z" transform="translate(5887.639 -3744.262)" fill="url(#linear-gradient)"/>
        </g>
      </g>
      <g id="Group_68154" data-name="Group 68154" transform="translate(5.068 12.46)">
        <g id="Group_68153" data-name="Group 68153">
          <path id="Path_41266" data-name="Path 41266" d="M-5198,4646.3c-72.465,0-156.727-4.137-261.827-12.684-181.283-14.741-316.788-74.684-381.552-168.787-64.079-93.107-53.1-211.917,30.919-334.543,56.847-82.97,109.967-146.517,162.4-194.271,52.179-47.526,105.075-81.452,166.467-106.767,54.966-22.666,118.618-38.864,200.316-50.978,75.706-11.225,162.935-18.533,263.938-27,54.19-4.54,115.611-9.686,181.157-15.967,85.577-8.2,161.756-2.4,226.421,17.234,60.133,18.257,108.759,47.884,144.529,88.056,44.154,49.587,66.354,113.2,64.2,183.948-2.166,71.145-28.908,146.109-77.333,216.788l-.442-.181.442.181c-68.281,99.659-127.109,171.612-185.135,226.441-62.416,58.977-124.979,99.544-196.89,127.667-71.05,27.788-150.888,43.249-251.256,48.656C-5138.778,4645.559-5167.337,4646.3-5198,4646.3Zm434.656-913.826q-35.1,0-72.717,3.6c-65.554,6.28-126.978,11.427-181.172,15.968-100.981,8.461-188.192,15.767-263.858,26.987-81.6,12.1-145.158,28.272-200.034,50.9-61.277,25.269-114.08,59.136-166.175,106.585-52.383,47.712-105.464,111.214-162.276,194.134-83.857,122.392-94.839,240.944-30.92,333.817,64.6,93.869,199.831,153.668,380.774,168.381,149.518,12.159,256.847,15.39,348,10.478,100.23-5.4,179.947-20.835,250.874-48.575,71.782-28.073,134.243-68.577,196.567-127.467,57.983-54.789,116.777-126.7,185.025-226.314,48.354-70.572,75.054-145.418,77.217-216.445,2.149-70.586-19.99-134.037-64.024-183.489-35.654-40.042-84.126-69.574-144.07-87.775C-4655.707,3739.423-4707.034,3732.474-4763.349,3732.474Z" transform="translate(5882.571 -3731.701)" fill="url(#linear-gradient-2)"/>
        </g>
      </g>
      <g id="Group_68156" data-name="Group 68156" transform="translate(10.547)">
        <g id="Group_68155" data-name="Group 68155">
          <path id="Path_41267" data-name="Path 41267" d="M-5231.1,4652.115c-60.025,0-128.278-2.255-208.779-6.787-182.037-10.249-320.385-67.176-389.56-160.293-68.443-92.132-63-212.049,15.334-337.662,53-84.99,103.177-150.329,153.4-199.747,49.983-49.181,101.317-84.685,161.551-111.733,53.931-24.217,116.851-42.144,198.014-56.413,75.212-13.224,162.133-22.794,262.779-33.876,54-5.946,115.2-12.685,180.477-20.671,85.174-10.418,161.611-6.522,227.189,11.581,60.982,16.835,111,45.4,148.667,84.895,46.547,48.809,71.767,112.313,72.935,183.645,1.174,71.728-22.082,147.929-67.253,220.366-63.659,102.087-119.154,176.033-174.646,232.717-59.689,60.971-120.384,103.408-191.011,133.551-69.781,29.784-148.928,47.376-249.08,55.367C-5133.325,4650.425-5179.131,4652.115-5231.1,4652.115Zm462.75-932.1a736.916,736.916,0,0,0-89.377,5.684c-65.285,7.987-126.491,14.725-180.493,20.672-100.624,11.08-187.526,20.649-262.7,33.866-81.062,14.251-143.893,32.15-197.734,56.327-60.122,27-111.365,62.441-161.267,111.543-50.178,49.373-100.318,114.664-153.286,199.6-78.182,125.374-83.64,245.033-15.368,336.935,69,92.887,207.071,149.678,388.767,159.906,150.14,8.453,257.659,8.985,348.621,1.729,100.015-7.979,179.042-25.543,248.7-55.274,70.5-30.088,131.094-72.458,190.7-133.341,55.45-56.641,110.913-130.547,174.542-232.585l.45.169-.45-.169c45.1-72.329,68.325-148.41,67.153-220.017-1.165-71.167-26.317-134.515-72.738-183.192-37.546-39.371-87.407-67.843-148.2-84.626C-4672.6,3725.771-4718.563,3720.018-4768.354,3720.018Z" transform="translate(5877.092 -3719.241)" fill="url(#linear-gradient-3)"/>
        </g>
      </g>
    </g>
    <g id="Group_68164" data-name="Group 68164" transform="translate(-5894.353 3731.382)">
      <g id="Group_68159" data-name="Group 68159" transform="translate(0 25.271)">
        <g id="Group_68158" data-name="Group 68158">
          <path id="Path_41268" data-name="Path 41268" d="M-5155.5,4639.68c-90.9,0-197.135-8.753-343.983-28.329-179.312-23.9-308.888-90.022-364.858-186.174-55.4-95.167-33.61-211.819,61.349-328.468,64.239-78.91,122.99-138.853,179.61-183.253,56.349-44.187,112.17-74.921,175.673-96.722,56.856-19.519,121.778-32.209,204.314-39.939,76.483-7.162,164.094-9.864,265.538-12.994,54.427-1.679,116.117-3.582,182.021-6.391,86.083-3.668,161.509,6,224.184,28.727,58.281,21.137,104.043,52.9,136.014,94.411,39.434,51.2,55.72,115.081,47.1,184.741-8.671,70.049-42.169,142.595-96.873,209.791l-.424-.2.424.2c-77.159,94.784-142.367,162.724-205.211,213.814-67.6,54.953-133.661,91.74-207.9,115.768-73.355,23.739-154.343,34.866-254.875,35.016Zm394.627-882.26q-17.147,0-34.907.757c-65.913,2.809-127.606,4.712-182.037,6.391-101.422,3.129-189.014,5.832-265.457,12.99-82.433,7.718-147.265,20.39-204.027,39.877-63.384,21.76-119.108,52.442-175.366,96.558-56.57,44.36-115.277,104.259-179.477,183.122-94.777,116.425-116.542,232.822-61.284,327.749,55.83,95.912,185.143,161.872,364.116,185.731,147.918,19.719,254.592,28.487,345.906,28.316,100.394-.149,181.26-11.256,254.488-34.956,74.111-23.985,140.067-60.714,207.566-115.588,62.8-51.051,127.967-118.954,205.091-213.693,54.621-67.1,88.068-139.526,96.724-209.458,8.6-69.5-7.636-133.22-46.961-184.277-31.868-41.375-77.484-73.037-135.582-94.107C-4625.989,3767.281-4689.368,3757.42-4760.876,3757.42Z" transform="translate(5894.353 -3756.653)" fill="url(#linear-gradient-4)"/>
        </g>
      </g>
      <g id="Group_68161" data-name="Group 68161" transform="translate(4.649 12.609)">
        <g id="Group_68160" data-name="Group 68160">
          <path id="Path_41269" data-name="Path 41269" d="M-5172.73,4643.873c-82.767,0-179.885-6.461-307.825-20.321-180.508-19.555-313.226-82.887-373.707-178.328-59.84-94.43-43.507-212.436,45.991-332.275,60.554-81.084,116.509-142.929,171.061-189.068,54.291-45.918,108.685-78.276,171.181-101.83,55.956-21.089,120.3-35.506,202.494-45.37,76.167-9.14,163.673-14.07,265-19.779,54.362-3.063,115.977-6.534,181.766-11.024,85.894-5.863,161.765,1.96,225.5,23.251,59.273,19.8,106.534,50.6,140.47,91.566,41.89,50.562,61.207,114.494,55.863,184.884-5.374,70.781-35.48,144.706-87.064,213.777l-.433-.193.433.193c-72.734,97.394-134.772,167.455-195.236,220.488-65.038,57.044-129.392,95.754-202.528,121.822-72.26,25.756-152.747,39-253.3,41.687Q-5152.387,4643.872-5172.73,4643.873Zm409.835-899.11q-26.187,0-53.79,1.883c-65.8,4.49-127.416,7.962-181.781,11.024-101.3,5.708-188.789,10.636-264.915,19.773-82.092,9.851-146.346,24.246-202.208,45.3-62.38,23.51-116.679,55.813-170.882,101.657-54.5,46.1-110.416,107.9-170.934,188.933-89.326,119.612-105.648,237.359-45.958,331.553,60.33,95.2,192.779,158.385,372.947,177.9,148.88,16.128,256,22.228,347.321,19.8,100.412-2.681,180.777-15.906,252.912-41.617,73-26.022,137.255-64.671,202.2-121.631,60.419-52.994,122.42-123.015,195.121-220.364,51.506-68.969,81.567-142.775,86.932-213.438,5.331-70.226-13.932-134-55.708-184.424-33.827-40.83-80.938-71.539-140.024-91.274C-4641.6,3753.156-4699.025,3744.763-4762.9,3744.763Z" transform="translate(5889.703 -3743.991)" fill="url(#linear-gradient-5)"/>
        </g>
      </g>
      <g id="Group_68163" data-name="Group 68163" transform="translate(9.734)">
        <g id="Group_68162" data-name="Group 68162">
          <path id="Path_41270" data-name="Path 41270" d="M-5195.636,4648.728c-73.287,0-158.61-4.3-265.452-13.2-181.466-15.122-317.174-75.54-382.125-170.12-64.264-93.579-53.436-212.826,30.488-335.773,56.783-83.188,109.864-146.885,162.276-194.73,52.161-47.615,105.058-81.578,166.47-106.881,54.985-22.653,118.672-38.8,200.427-50.816,75.758-11.133,163.056-18.314,264.138-26.627,54.233-4.461,115.7-9.517,181.3-15.7,85.589-8.073,161.8-2.128,226.529,17.668,60.19,18.409,108.9,48.2,144.765,88.541,44.327,49.855,66.68,113.762,64.644,184.816-2.048,71.446-28.711,146.686-77.107,217.586-68.205,99.92-126.987,172.045-184.99,226.982-62.391,59.092-124.954,99.7-196.892,127.808-71.076,27.767-150.965,43.145-251.415,48.393C-5138.732,4648.035-5166.217,4648.728-5195.636,4648.728Zm429.192-916.571q-34.559,0-71.552,3.485c-65.6,6.188-127.076,11.244-181.312,15.705-101.06,8.313-188.339,15.491-264.058,26.619-81.653,12-145.249,28.121-200.143,50.738-61.3,25.255-114.1,59.159-166.177,106.7-52.365,47.8-105.406,111.453-162.155,194.59-83.764,122.714-94.592,241.7-30.489,335.048,64.79,94.348,200.223,154.62,381.349,169.714,149.67,12.474,257.1,15.911,348.332,11.141,100.312-5.242,180.079-20.594,251.032-48.313,71.808-28.052,134.268-68.6,196.567-127.606,57.961-54.9,116.707-126.98,184.881-226.854l.442.181-.442-.181c48.324-70.793,74.947-145.916,76.991-217.242,2.032-70.888-20.261-134.639-64.468-184.358-35.754-40.214-84.307-69.908-144.308-88.26C-4657.889,3739.212-4709.646,3732.156-4766.444,3732.156Z" transform="translate(5884.619 -3731.382)" fill="url(#linear-gradient-6)"/>
        </g>
      </g>
    </g>
    <g id="Group_68171" data-name="Group 68171" transform="translate(-5900.594 3743.566)">
      <g id="Group_68166" data-name="Group 68166" transform="translate(0 25.405)">
        <g id="Group_68165" data-name="Group 68165">
          <path id="Path_41271" data-name="Path 41271" d="M-5142.186,4638.52q-15.909,0-32.472-.419c-91.318-2.3-197.59-13.852-344.58-37.446-178.115-28.589-304.606-97.888-356.171-195.131-51.036-96.246-23.958-211.827,76.248-325.45,67.788-76.865,129.228-134.988,187.833-177.691,58.324-42.5,115.509-71.613,179.964-91.627,57.709-17.918,123.17-28.824,206.007-34.317,76.762-5.091,164.442-5.444,265.968-5.853,54.469-.22,116.207-.468,182.2-1.506,86.194-1.365,161.137,10.283,222.74,34.59,57.285,22.6,101.575,55.456,131.639,97.646,37.082,52.036,50.453,116.085,38.668,185.223-11.851,69.524-48.628,140.87-106.353,206.325-81.422,92.326-149.679,158.241-214.808,207.438-70.056,52.92-137.751,87.787-213.042,109.734C-4984.554,4629.332-5056.357,4638.52-5142.186,4638.52Zm378.4-868.783q-6.649,0-13.386.106c-66,1.038-127.741,1.286-182.214,1.506-101.5.409-189.165.762-265.887,5.85-82.735,5.486-148.1,16.375-205.717,34.265-64.335,19.977-121.42,49.042-179.65,91.473-58.552,42.664-119.947,100.746-187.694,177.563-100.014,113.407-127.058,228.734-76.15,324.737,51.436,97,177.67,166.134,355.45,194.669,146.93,23.584,253.149,35.128,344.407,37.43,100.339,2.533,181.661-6.371,255.923-28.017,75.156-21.907,142.742-56.721,212.7-109.563,65.08-49.162,133.3-115.04,214.682-207.322l.415.214-.415-.214c57.639-65.357,94.359-136.589,106.19-206,11.758-68.977-1.574-132.865-38.554-184.758-29.967-42.052-74.115-74.8-131.219-97.332C-4613.152,3781.366-4683.37,3769.737-4763.784,3769.737Z" transform="translate(5900.594 -3768.971)" fill="url(#linear-gradient-7)"/>
        </g>
      </g>
      <g id="Group_68168" data-name="Group 68168" transform="translate(4.209 12.707)">
        <g id="Group_68167" data-name="Group 68167">
          <path id="Path_41272" data-name="Path 41272" d="M-5154.143,4642.2h-.3c-91.438-.02-198.268-8.975-346.386-29.036-179.512-24.311-309.283-90.934-365.406-187.6-55.528-95.638-33.863-212.708,61-329.646,64.188-79.12,122.909-139.205,179.517-183.688,56.337-44.27,112.162-75.033,175.687-96.813,56.876-19.5,121.833-32.133,204.424-39.751,76.534-7.06,164.209-9.624,265.729-12.593,54.468-1.593,116.2-3.4,182.156-6.1,86.107-3.533,161.578,6.289,224.315,29.2,58.341,21.3,104.178,53.249,136.239,94.948,39.575,51.473,55.986,115.654,47.459,185.6-8.575,70.341-42.01,143.146-96.689,210.546l-.425-.2.425.2c-77.1,95.034-142.271,163.138-205.1,214.327-67.581,55.062-133.649,91.883-207.92,115.881C-4972.722,4631.166-5053.677,4642.2-5154.143,4642.2Zm390.077-885.162q-16.521,0-33.6.7c-65.96,2.708-127.7,4.513-182.171,6.106-101.5,2.968-189.155,5.531-265.648,12.588-82.488,7.61-147.353,20.221-204.135,39.69-63.406,21.739-119.134,52.451-175.38,96.649-56.557,44.442-115.234,104.485-179.383,183.557-94.687,116.714-116.329,233.529-60.94,328.927,55.983,96.421,185.491,162.887,364.666,187.153,148.059,20.052,254.834,29,346.213,29.023h.3c100.337,0,181.155-11.016,254.34-34.663,74.137-23.956,140.1-60.719,207.579-115.7,62.782-51.151,127.915-119.217,204.978-214.208,54.6-67.3,87.982-139.988,96.542-210.21,8.508-69.788-7.857-133.81-47.325-185.143-31.957-41.565-77.649-73.408-135.806-94.644C-4628.124,3767.042-4692,3757.04-4764.066,3757.04Z" transform="translate(5896.385 -3756.272)" fill="url(#linear-gradient-8)"/>
        </g>
      </g>
      <g id="Group_68170" data-name="Group 68170" transform="translate(8.874)">
        <g id="Group_68169" data-name="Group 68169">
          <path id="Path_41273" data-name="Path 41273" d="M-5171.07,4646.37c-83.422,0-181.343-6.644-310.8-20.935-180.673-19.944-313.576-83.758-374.224-179.688-60.007-94.914-43.811-213.365,45.6-333.533,60.5-81.307,116.418-143.305,170.955-189.537,54.275-46.01,108.671-78.4,171.187-101.947,55.972-21.078,120.348-35.443,202.594-45.205,76.215-9.046,163.783-13.846,265.179-19.4,54.4-2.982,116.059-6.362,181.894-10.757,85.9-5.731,161.8,2.238,225.6,23.693,59.323,19.953,106.657,50.928,140.686,92.065,42.052,50.837,61.512,115.076,56.274,185.774-5.267,71.09-35.306,145.294-86.868,214.591-72.667,97.661-134.664,167.9-195.108,221.041-65.017,57.163-129.373,95.917-202.533,121.966-72.284,25.736-152.818,38.9-253.443,41.42Q-5152.133,4646.368-5171.07,4646.37Zm405.049-902.034q-25.614,0-52.576,1.8c-65.842,4.4-127.5,7.775-181.909,10.757-101.374,5.556-188.923,10.355-265.1,19.4-82.143,9.75-146.428,24.093-202.308,45.136-62.4,23.5-116.7,55.837-170.885,101.773-54.488,46.19-110.366,108.144-170.828,189.4-89.244,119.94-105.429,238.133-45.573,332.811,60.5,95.692,193.133,159.356,373.468,179.263,149.016,16.45,256.225,22.764,347.617,20.472,100.488-2.518,180.9-15.658,253.057-41.349,73.029-26,137.279-64.7,202.2-121.774,60.4-53.1,122.359-123.3,194.993-220.917l.434.192-.434-.192c51.485-69.194,81.478-143.281,86.736-214.251,5.226-70.534-14.179-134.615-56.118-185.314-33.92-41.005-81.1-71.882-140.243-91.773C-4643.784,3752.851-4701.647,3744.336-4766.021,3744.336Z" transform="translate(5891.72 -3743.566)" fill="url(#linear-gradient-9)"/>
        </g>
      </g>
    </g>
    <g id="Group_68178" data-name="Group 68178" transform="translate(-5906.343 3755.734)">
      <g id="Group_68173" data-name="Group 68173" transform="translate(0 17.444)">
        <g id="Group_68172" data-name="Group 68172">
          <path id="Path_41274" data-name="Path 41274" d="M-5133.259,4637.74c-20.076,0-40.894-.568-62.577-1.693-91.157-4.734-196.838-19.093-342.661-46.558-176.7-33.281-299.953-105.814-347.049-204.24-46.614-97.418-14.277-212.051,91.052-322.781,71.254-74.906,135.31-131.279,195.828-172.336,60.227-40.86,118.706-68.393,184.035-86.65,58.492-16.346,124.409-25.484,207.446-28.759,76.948-3.034,164.591-1.05,266.073,1.248,54.447,1.233,116.159,2.63,182.158,3.354,86.206.945,160.57,14.557,221.027,40.46,56.218,24.086,98.982,58.055,127.1,100.961,34.684,52.922,45.124,117.2,30.191,185.89-15.017,69.071-55.026,139.3-115.7,203.085-85.587,89.975-156.81,153.94-224.144,201.306-72.428,50.948-141.673,83.943-217.919,103.839C-4997.447,4630.275-5060.47,4637.74-5133.259,4637.74Zm14.666-863.8c-31.043,0-60.5.439-88.54,1.544-82.934,3.271-148.759,12.4-207.155,28.715-65.207,18.222-123.584,45.709-183.714,86.5-60.464,41.019-124.472,97.351-195.683,172.213-105.128,110.517-137.418,224.9-90.922,322.068,46.978,98.18,169.981,170.544,346.349,203.762,145.765,27.455,251.393,41.807,342.489,46.536,100.165,5.2,181.842-1.517,257.046-21.14,76.11-19.86,145.244-52.8,217.565-103.679,67.285-47.33,138.466-111.26,224.012-201.192l.4.225-.4-.225c60.587-63.692,100.535-133.806,115.526-202.762,14.9-68.528,4.491-132.646-30.1-185.422-28.029-42.769-70.656-76.628-126.7-100.638-60.31-25.84-134.515-39.42-220.552-40.362-66.007-.724-127.723-2.122-182.174-3.354C-5005.607,3775.275-5064.5,3773.942-5118.593,3773.942Z" transform="translate(5906.343 -3773.178)" fill="url(#linear-gradient-10)"/>
        </g>
      </g>
      <g id="Group_68175" data-name="Group 68175" transform="translate(3.749 12.744)">
        <g id="Group_68174" data-name="Group 68174">
          <path id="Path_41275" data-name="Path 41275" d="M-5141.338,4641.076q-16.86,0-34.446-.475c-91.383-2.462-197.74-14.234-344.856-38.167-178.3-29.007-304.964-98.82-356.66-196.582-51.15-96.726-24.178-212.733,75.945-326.652,67.744-77.078,129.159-135.347,187.753-178.134,58.314-42.582,115.5-71.726,179.979-91.719,57.728-17.9,123.219-28.745,206.106-34.126,76.808-4.987,164.547-5.2,266.141-5.442,54.506-.131,116.285-.28,182.32-1.215,86.215-1.222,161.194,10.579,222.853,35.07,57.336,22.774,101.694,55.811,131.841,98.193,37.213,52.318,50.7,116.672,39,186.105-11.766,69.82-48.488,141.432-106.2,207.092l-.414-.214.414.214c-81.369,92.581-149.6,158.663-214.712,207.962-70.041,53.027-137.741,87.934-213.058,109.849C-4985.058,4631.96-5056.317,4641.076-5141.338,4641.076Zm374.33-871.832c-3.989,0-7.991.028-12.029.086-66.043.935-127.826,1.083-182.336,1.215-101.572.244-189.292.456-266.059,5.44-82.784,5.375-148.183,16.2-205.815,34.073-64.355,19.956-121.444,49.052-179.664,91.564-58.542,42.749-119.911,100.975-187.614,178.006-99.932,113.7-126.869,229.455-75.848,325.938,51.568,97.518,177.977,167.167,355.941,196.12,147.057,23.924,253.361,35.69,344.682,38.151q17.577.473,34.409.475c84.91,0,156.037-9.1,221.654-28.191,75.181-21.876,142.772-56.728,212.71-109.678,65.068-49.262,133.254-115.306,214.586-207.845,57.622-65.561,94.288-137.059,106.034-206.762,11.674-69.273-1.772-133.466-38.884-185.641-30.049-42.247-74.267-75.178-131.423-97.88C-4615.286,3781.029-4686.009,3769.244-4767.008,3769.244Z" transform="translate(5902.595 -3768.478)" fill="url(#linear-gradient-11)"/>
        </g>
      </g>
      <g id="Group_68177" data-name="Group 68177" transform="translate(7.971)">
        <g id="Group_68176" data-name="Group 68176">
          <path id="Path_41276" data-name="Path 41276" d="M-5153.018,4644.747l-2.538,0c-91.5-.17-198.412-9.338-346.653-29.726-179.661-24.709-309.6-91.824-365.867-188.983-55.677-96.13-34.132-213.657,60.665-330.929,64.139-79.348,122.83-139.589,179.425-184.165,56.324-44.364,112.152-75.165,175.694-96.932,56.892-19.489,121.879-32.067,204.517-39.582,76.577-6.965,164.309-9.4,265.894-12.21,54.5-1.51,116.276-3.221,182.27-5.832,86.108-3.406,161.6,6.569,224.386,29.647,58.384,21.461,104.288,53.579,136.435,95.458,39.727,51.755,56.268,116.251,47.835,186.514-8.479,70.653-41.856,143.744-96.522,211.371l-.425-.2.425.2c-77.041,95.308-142.178,163.591-204.989,214.892-67.563,55.181-133.633,92.05-207.927,116.027C-4973.179,4633.785-5053.514,4644.747-5153.018,4644.747Zm385.8-888.244q-15.912,0-32.346.65c-66,2.611-127.779,4.323-182.285,5.832-101.563,2.814-189.276,5.244-265.813,12.205-82.535,7.506-147.429,20.064-204.227,39.521-63.423,21.727-119.153,52.474-175.386,96.766-56.543,44.537-115.19,104.735-179.291,184.033-94.616,117.049-116.138,234.321-60.6,330.211,56.133,96.919,185.806,163.877,365.131,188.54,148.181,20.38,255.039,29.544,346.479,29.714.84,0,1.7,0,2.534,0,99.376,0,179.575-10.94,252.239-34.392,74.16-23.934,140.122-60.745,207.585-115.845,62.765-51.263,127.864-119.508,204.869-214.771,54.584-67.526,87.91-140.5,96.376-211.037,8.413-70.1-8.082-134.438-47.7-186.052-32.045-41.747-77.8-73.76-136.006-95.155C-4630.3,3766.639-4694.621,3756.5-4767.214,3756.5Z" transform="translate(5898.372 -3755.734)" fill="url(#linear-gradient-12)"/>
        </g>
      </g>
    </g>
    <g id="Group_68185" data-name="Group 68185" transform="translate(-5911.583 3767.834)">
      <g id="Group_68180" data-name="Group 68180" transform="translate(0 4.288)">
        <g id="Group_68179" data-name="Group 68179">
          <path id="Path_41277" data-name="Path 41277" d="M-5127.541,4637.216c-28.272,0-57.929-1.249-89.375-3.727-90.885-7.161-195.845-24.331-340.325-55.67-175.074-37.976-294.935-113.761-337.5-213.4-42.133-98.615-4.578-212.332,105.747-320.2,74.634-72.972,141.226-127.61,203.583-167.035,62.059-39.235,121.76-65.2,187.883-81.7,59.2-14.779,125.5-22.157,208.635-23.215,77.04-.988,164.538,3.338,265.853,8.34,54.357,2.683,115.968,5.726,181.894,8.208,86.11,3.242,159.807,18.83,219.043,46.333,55.083,25.573,96.269,60.666,122.412,104.3,32.245,53.822,39.741,118.35,21.679,186.607-18.164,68.64-61.358,137.766-124.913,199.907-89.646,87.651-163.749,149.689-233.206,195.238-74.712,48.994-145.423,80.128-222.532,97.982C-5010.9,4631.275-5065.9,4637.216-5127.541,4637.216Zm-38.716-864.329q-11.465,0-22.625.14c-83.033,1.058-149.235,8.424-208.34,23.178-66,16.477-125.6,42.395-187.556,81.568-62.3,39.388-128.844,93.987-203.432,166.916-110.115,107.663-147.612,221.129-105.585,319.5,42.463,99.386,162.084,175,336.827,212.9,144.422,31.328,249.329,48.49,340.155,55.646,99.864,7.87,181.8,3.331,257.855-14.278,76.971-17.823,147.568-48.908,222.17-97.831,69.406-45.515,143.466-107.518,233.069-195.127l.4.235-.4-.235c63.46-62.048,106.588-131.065,124.721-199.588,18.021-68.1,10.549-132.464-21.608-186.138-26.058-43.5-67.112-78.476-122.021-103.969-59.093-27.435-132.632-42.987-218.573-46.223-65.934-2.482-127.548-5.525-181.91-8.208C-5014.61,3776.849-5094.844,3772.887-5166.257,3772.887Z" transform="translate(5911.583 -3772.123)" fill="url(#linear-gradient-13)"/>
        </g>
      </g>
      <g id="Group_68182" data-name="Group 68182" transform="translate(3.27 3.993)">
        <g id="Group_68181" data-name="Group 68181">
          <path id="Path_41278" data-name="Path 41278" d="M-5132.786,4640.321c-20.6,0-41.971-.6-64.263-1.8-91.214-4.9-196.97-19.484-342.905-47.3-176.868-33.714-300.272-106.788-347.479-205.761-46.708-97.924-14.464-213.014,90.793-324.066,71.217-75.138,135.251-131.667,195.761-172.818,60.22-40.952,118.7-68.521,184.051-86.76,58.509-16.33,124.455-25.408,207.536-28.568,76.989-2.929,164.684-.8,266.227,1.667,54.479,1.323,116.227,2.823,182.265,3.653,86.218,1.083,160.613,14.862,221.117,40.956,56.264,24.265,99.088,58.429,127.284,101.543,34.8,53.221,45.347,117.824,30.488,186.827-14.942,69.387-54.907,139.895-115.574,203.9-85.542,90.252-156.74,154.4-224.064,201.877-72.416,51.068-141.668,84.107-217.937,103.975C-4998.106,4632.916-5060.652,4640.321-5132.786,4640.321Zm7.136-867.73c-29.226,0-57.047.408-83.592,1.418-82.978,3.156-148.831,12.219-207.243,28.522-65.225,18.2-123.607,45.726-183.73,86.613-60.455,41.113-124.441,97.6-195.616,172.694-105.055,110.841-137.253,225.677-90.663,323.356,47.09,98.727,170.246,171.629,346.782,205.281,145.877,27.807,251.579,42.389,342.733,47.283,100.225,5.382,181.944-1.24,257.17-20.837,76.134-19.833,145.272-52.819,217.582-103.812,67.274-47.441,138.43-111.554,223.932-201.763l.4.224-.4-.224c60.576-63.913,100.48-134.309,115.4-203.579,14.825-68.842,4.315-133.284-30.4-186.36-28.1-42.976-70.793-77.031-126.88-101.219-60.357-26.03-134.592-39.777-220.643-40.857-66.045-.83-127.8-2.33-182.28-3.654C-5009.6,3774.063-5070.155,3772.592-5125.65,3772.592Z" transform="translate(5908.314 -3771.827)" fill="url(#linear-gradient-14)"/>
        </g>
      </g>
      <g id="Group_68184" data-name="Group 68184" transform="translate(7.031)">
        <g id="Group_68183" data-name="Group 68183">
          <path id="Path_41279" data-name="Path 41279" d="M-5140.673,4643.652q-17.745,0-36.309-.532c-91.437-2.616-197.867-14.6-345.092-38.872-178.43-29.413-305.239-99.728-357.065-198-51.278-97.226-24.411-213.7,75.651-327.958,67.7-77.308,129.093-135.734,187.677-178.617,58.3-42.677,115.5-71.859,179.988-91.839,57.742-17.889,123.26-28.677,206.188-33.953,76.847-4.888,164.636-4.963,266.287-5.05,54.537-.047,116.352-.1,182.424-.936,86.208-1.081,161.206,10.863,222.9,35.525,57.375,22.934,101.792,56.147,132.019,98.715,37.353,52.606,50.957,117.281,39.339,187.034-11.682,70.138-48.357,142.039-106.06,207.928-81.321,92.859-149.518,159.123-214.62,208.535-70.027,53.15-137.73,88.1-213.067,109.994C-4985.682,4634.6-5056.41,4643.652-5140.673,4643.652Zm370.5-875.053c-3.563,0-7.135.022-10.737.068-66.08.835-127.9.888-182.44.936-101.629.086-189.4.162-266.2,5.046-82.825,5.269-148.25,16.042-205.9,33.9-64.371,19.943-121.463,49.075-179.672,91.683-58.531,42.844-119.875,101.228-187.537,178.489-99.873,114.042-126.7,230.26-75.555,327.244,51.7,98.025,178.252,168.176,356.348,197.532,147.166,24.258,253.543,36.242,344.919,38.856,100.469,2.871,181.874-5.844,256.18-27.437,75.2-21.854,142.794-56.75,212.718-109.824,65.054-49.375,133.211-115.6,214.494-208.417l.415.213-.415-.213c57.616-65.792,94.236-137.579,105.9-207.6,11.591-69.591-1.973-134.106-39.226-186.569-30.13-42.433-74.407-75.54-131.6-98.4C-4617.455,3780.533-4688.634,3768.6-4770.17,3768.6Z" transform="translate(5904.553 -3767.834)" fill="url(#linear-gradient-15)"/>
        </g>
      </g>
    </g>
    <g id="Group_68192" data-name="Group 68192" transform="translate(-5916.299 3769.857)">
      <g id="Group_68187" data-name="Group 68187">
        <g id="Group_68186" data-name="Group 68186">
          <path id="Path_41280" data-name="Path 41280" d="M-5124.245,4636.845a1078.758,1078.758,0,0,1-113.627-6.441c-90.5-9.584-194.614-29.551-337.574-64.742C-5748.678,4523.02-5865,4444.044-5903,4343.283c-37.6-99.729,5.126-212.435,120.312-317.352,77.923-70.975,146.971-123.832,211.091-161.59,63.813-37.577,124.664-61.943,191.5-76.686,59.842-13.2,126.431-18.812,209.569-17.649,77.037,1.073,164.286,7.726,265.311,15.43,54.2,4.133,115.634,8.818,181.406,13.059,85.909,5.538,158.849,23.091,216.793,52.172,53.881,27.04,93.438,63.228,117.571,107.559,29.767,54.677,34.31,119.4,13.14,187.168-21.289,68.149-67.615,136.118-133.971,196.557l-.383-.246.383.246c-93.6,85.251-170.487,145.307-241.984,189-76.9,47-149,76.242-226.872,92.038C-5024.795,4632.249-5072.335,4636.845-5124.245,4636.845Zm-67.151-866.223c-73.451,0-133.76,5.713-188.417,17.767-66.713,14.715-127.458,39.041-191.168,76.557-64.063,37.725-133.06,90.543-210.936,161.475-114.965,104.717-157.624,217.171-120.117,316.649,37.9,100.511,153.989,179.3,326.9,221.865,142.9,35.176,246.962,55.134,337.405,64.711,99.445,10.531,181.537,8.181,258.35-7.4,77.739-15.768,149.712-44.968,226.5-91.9,71.443-43.659,148.29-103.682,241.842-188.893,66.256-60.349,112.511-128.209,133.764-196.242,21.121-67.611,16.595-132.171-13.09-186.7-24.055-44.187-63.486-80.259-117.2-107.214-57.8-29.008-130.586-46.52-216.328-52.049-65.779-4.241-127.216-8.926-181.421-13.059-101-7.7-188.234-14.354-265.231-15.426Q-5181.143,3770.623-5191.4,3770.622Z" transform="translate(5916.299 -3769.857)" fill="url(#linear-gradient-16)"/>
        </g>
      </g>
      <g id="Group_68189" data-name="Group 68189" transform="translate(2.774 0.715)">
        <g id="Group_68188" data-name="Group 68188">
          <path id="Path_41281" data-name="Path 41281" d="M-5127.383,4639.808c-28.706,0-58.848-1.3-90.83-3.878-90.935-7.329-195.961-24.733-340.537-56.435-175.221-38.421-295.214-114.758-337.876-214.95-42.209-99.131-4.731-213.313,105.531-321.51,74.6-73.207,141.179-128,203.53-167.522,62.053-39.329,121.759-65.326,187.9-81.813,59.218-14.761,125.539-22.076,208.714-23.018,77.076-.872,164.619,3.6,265.988,8.772,54.385,2.776,116.027,5.923,181.987,8.515,86.117,3.383,159.837,19.142,219.113,46.84,55.122,25.757,96.361,61.05,122.571,104.9,32.354,54.127,39.941,118.986,21.941,187.563-18.1,68.96-61.259,138.373-124.811,200.735-89.609,87.933-163.692,150.153-233.142,195.815-74.7,49.114-145.42,80.292-222.55,98.116C-5011.7,4633.919-5066.281,4639.808-5127.383,4639.808Zm-43.73-868.471q-10.032,0-19.824.109c-83.071.94-149.3,8.243-208.418,22.98-66.017,16.457-125.619,42.409-187.572,81.675-62.3,39.482-128.821,94.241-203.379,167.4-110.052,107.992-147.472,221.921-105.369,320.8,42.555,99.942,162.309,176.1,337.2,214.452,144.519,31.688,249.492,49.085,340.367,56.409,99.919,8.054,181.889,3.616,257.964-13.964,76.992-17.793,147.594-48.922,222.188-97.964,69.4-45.627,143.438-107.813,233-195.705l.4.235-.4-.235c63.457-62.27,106.55-131.571,124.62-200.415,17.958-68.419,10.4-133.115-21.87-187.1-26.127-43.708-67.235-78.889-122.183-104.564-59.133-27.63-132.7-43.353-218.643-46.729-65.967-2.591-127.614-5.739-182-8.515C-5017.778,3775.481-5098.963,3771.337-5171.113,3771.337Z" transform="translate(5913.524 -3770.572)" fill="url(#linear-gradient-17)"/>
        </g>
      </g>
      <g id="Group_68191" data-name="Group 68191" transform="translate(6.055 0.494)">
        <g id="Group_68190" data-name="Group 68190">
          <path id="Path_41282" data-name="Path 41282" d="M-5132.49,4642.915c-21.087,0-42.976-.638-65.843-1.905-91.261-5.055-197.081-19.868-343.111-48.033-176.982-34.135-300.509-107.733-347.827-207.239-46.818-98.453-14.661-214.033,90.546-325.451,71.184-75.385,135.2-132.085,195.7-173.339,60.212-41.057,118.7-68.668,184.062-86.9,58.522-16.32,124.492-25.342,207.61-28.395,77.023-2.829,164.761-.56,266.355,2.07,54.506,1.41,116.285,3.008,182.354,3.939,86.208,1.215,160.613,15.153,221.15,41.428,56.295,24.433,99.172,58.783,127.441,102.1,34.934,53.525,45.582,118.468,30.794,187.806-14.87,69.723-54.8,140.538-115.468,204.788-85.5,90.549-156.676,154.893-223.99,202.493-72.405,51.2-141.66,84.292-217.948,104.141C-4998.876,4635.563-5060.98,4642.915-5132.49,4642.915Zm.278-871.8c-27.586,0-53.913.379-79.093,1.3-83.015,3.049-148.891,12.057-207.316,28.35-65.24,18.193-123.624,45.758-183.739,86.748-60.447,41.216-124.414,97.875-195.555,173.216-105.007,111.206-137.117,226.535-90.417,324.741,47.2,99.26,170.482,172.689,347.133,206.759,145.971,28.154,251.737,42.96,342.939,48.012,100.279,5.554,182.029-.978,257.273-20.555,76.151-19.812,145.293-52.852,217.591-103.977,67.264-47.565,138.4-111.872,223.859-202.379l.405.224-.405-.224c60.579-64.155,100.445-134.858,115.291-204.463,14.754-69.179,4.138-133.96-30.7-187.341-28.178-43.175-70.921-77.415-127.039-101.773-60.39-26.21-134.636-40.115-220.675-41.327-66.077-.932-127.86-2.529-182.37-3.939C-5013.381,3772.722-5075.459,3771.117-5132.212,3771.117Z" transform="translate(5910.244 -3770.351)" fill="url(#linear-gradient-18)"/>
        </g>
      </g>
    </g>
    <g id="Group_68199" data-name="Group 68199" transform="translate(-5920.475 3766.896)">
      <g id="Group_68194" data-name="Group 68194">
        <g id="Group_68193" data-name="Group 68193">
          <path id="Path_41283" data-name="Path 41283" d="M-5122.8,4636.557c-42.181,0-86.984-3.26-135.881-9.779-90.01-12-193.146-34.75-334.412-73.76-171.179-47.27-283.828-129.36-317.194-231.148-33.026-100.745,14.823-212.323,134.731-314.179,81.115-68.9,152.535-119.922,218.341-155.972,65.49-35.877,127.416-58.624,194.886-71.583,60.409-11.6,127.215-15.437,210.246-12.059,76.942,3.13,163.833,12.112,264.444,22.513,53.98,5.581,115.163,11.906,180.7,17.9,85.6,7.832,157.7,27.334,214.278,57.963,52.614,28.482,90.494,65.731,112.589,110.709,27.251,55.478,28.836,120.329,4.584,187.542-24.388,67.588-73.79,134.328-142.865,193-97.431,82.763-177.019,140.773-250.467,182.561-79,44.95-152.386,72.274-230.938,85.993A709.953,709.953,0,0,1-5122.8,4636.557Zm-84.6-868.895c-58.3,0-108.377,4.32-154.683,13.215-67.345,12.935-129.163,35.643-194.548,71.462-65.746,36.018-137.113,87-218.18,155.864-119.678,101.66-167.446,212.99-134.5,313.48,33.283,101.533,145.708,183.433,316.564,230.614,141.208,39,244.293,61.733,334.244,73.726,98.9,13.188,181.053,13.027,258.531-.5,78.412-13.695,151.674-40.977,230.563-85.861,73.394-41.757,152.935-99.735,250.321-182.46l.372.256-.372-.256c68.972-58.587,118.3-125.221,142.644-192.694,24.2-67.056,22.62-131.744-4.556-187.069-22.023-44.833-59.783-81.961-112.23-110.354-56.444-30.555-128.383-50.011-213.82-57.829-65.547-6-126.733-12.322-180.717-17.9-100.59-10.4-187.462-19.38-264.363-22.507C-5171.387,3768.057-5189.771,3767.662-5207.4,3767.662Z" transform="translate(5920.475 -3766.896)" fill="url(#linear-gradient-19)"/>
        </g>
      </g>
      <g id="Group_68196" data-name="Group 68196" transform="translate(2.264 1.259)">
        <g id="Group_68195" data-name="Group 68195">
          <path id="Path_41284" data-name="Path 41284" d="M-5124.358,4639.438a1072.066,1072.066,0,0,1-114.894-6.631c-90.545-9.757-194.712-29.965-337.754-65.526-173.361-43.1-289.8-122.635-327.86-223.96-37.659-100.253,5.007-213.426,120.139-318.674,77.9-71.21,146.935-124.226,211.052-162.078,63.81-37.671,124.667-62.071,191.52-76.791,59.855-13.179,126.469-18.725,209.637-17.443,77.068,1.184,164.356,7.992,265.426,15.874,54.226,4.229,115.686,9.022,181.487,13.374,85.91,5.684,158.866,23.41,216.842,52.688,53.913,27.227,93.515,63.619,117.709,108.166,29.864,54.989,34.487,120.046,13.368,188.139-21.237,68.473-67.537,136.729-133.9,197.392-93.568,85.534-170.446,145.773-241.937,189.577-76.9,47.117-149,76.4-226.893,92.167C-5025.734,4634.885-5072.9,4639.438-5124.358,4639.438Zm-71-870.518c-72.6,0-132.338,5.662-186.522,17.592-66.727,14.694-127.478,39.053-191.185,76.662-64.059,37.817-133.043,90.8-210.9,161.964-114.913,105.046-157.51,217.97-119.946,317.972,37.968,101.073,154.173,180.427,327.208,223.444,142.984,35.545,247.1,55.746,337.585,65.5,99.49,10.721,181.613,8.474,258.445-7.076,77.757-15.735,149.736-44.978,226.523-92.025,71.438-43.771,148.27-103.978,241.795-189.472l.383.246-.383-.246c66.26-60.571,112.489-128.719,133.69-197.076,21.07-67.935,16.464-132.83-13.319-187.669-24.115-44.4-63.593-80.679-117.336-107.821-57.835-29.207-130.635-46.893-216.377-52.564-65.809-4.353-127.273-9.146-181.5-13.375-101.048-7.881-188.316-14.686-265.344-15.87Q-5184.159,3768.92-5195.357,3768.92Z" transform="translate(5918.211 -3768.155)" fill="url(#linear-gradient-20)"/>
        </g>
      </g>
      <g id="Group_68198" data-name="Group 68198" transform="translate(5.048 2.013)">
        <g id="Group_68197" data-name="Group 68197">
          <path id="Path_41285" data-name="Path 41285" d="M-5127.4,4642.4c-29.111,0-59.7-1.348-92.185-4.023-90.976-7.491-196.055-25.127-340.712-57.183-175.317-38.85-295.414-115.723-338.166-216.458-42.3-99.668-4.893-214.349,105.33-322.914,74.578-73.458,141.138-128.426,203.484-168.049,62.048-39.433,121.758-65.472,187.912-81.947,59.231-14.75,125.571-22.008,208.778-22.837,77.1-.766,164.686,3.843,266.1,9.186,54.41,2.865,116.079,6.114,182.067,8.809,86.1,3.518,159.823,19.439,219.125,47.321,55.146,25.929,96.431,61.412,122.708,105.465,32.472,54.439,40.153,119.643,22.212,188.562-18.04,69.3-61.173,139.022-124.735,201.629-89.579,88.232-163.643,150.651-233.087,196.436-74.7,49.248-145.416,80.477-222.563,98.28C-5012.62,4636.563-5066.8,4642.4-5127.4,4642.4Zm-48.308-872.731q-8.711,0-17.238.084c-83.1.83-149.35,8.074-208.482,22.8-66.029,16.443-125.635,42.438-187.582,81.807-62.29,39.586-128.8,94.517-203.333,167.929-110.014,108.36-147.363,222.789-105.169,322.208,42.647,100.486,162.5,177.182,337.493,215.959,144.6,32.043,249.625,49.671,340.541,57.157,99.965,8.235,181.962,3.889,258.054-13.672,77.008-17.771,147.614-48.951,222.2-98.127,69.391-45.75,143.413-108.134,232.95-196.324l.394.234-.394-.234c63.467-62.514,106.533-132.125,124.543-201.311,17.9-68.76,10.244-133.8-22.141-188.094-26.193-43.912-67.347-79.283-122.321-105.13-59.158-27.815-132.725-43.7-218.656-47.21-65.995-2.7-127.668-5.944-182.081-8.81C-5020.829,3774-5102.88,3769.674-5175.705,3769.674Z" transform="translate(5915.427 -3768.91)" fill="url(#linear-gradient-21)"/>
        </g>
      </g>
    </g>
    <g id="Group_68206" data-name="Group 68206" transform="translate(-5924.101 3763.477)">
      <g id="Group_68201" data-name="Group 68201">
        <g id="Group_68200" data-name="Group 68200">
          <path id="Path_41286" data-name="Path 41286" d="M-5122.762,4636.292c-48.357,0-99.758-4.546-156.547-13.7-89.408-14.409-191.443-39.918-330.843-82.711-168.918-51.854-277.752-136.974-306.453-239.678-28.408-101.651,24.5-211.977,148.986-310.655,84.21-66.753,157.915-115.877,225.325-150.178,67.088-34.136,130.014-55.233,198.034-66.394,60.9-9.993,127.844-12.04,210.669-6.445,76.752,5.186,163.181,16.492,263.256,29.583,53.693,7.023,114.549,14.984,179.774,22.733,85.195,10.121,156.355,31.554,211.5,63.7,51.282,29.9,87.439,68.164,107.468,113.745,24.7,56.219,23.328,121.128-3.977,187.708-27.457,66.953-79.874,132.388-151.585,189.233l-.359-.267.359.267c-101.149,80.18-183.335,136.078-258.645,175.915-81.007,42.85-155.591,68.22-234.721,79.844A699.832,699.832,0,0,1-5122.762,4636.292Zm-95.313-872.049c-46.131,0-87.277,3.135-125.975,9.484-67.893,11.141-130.711,32.2-197.69,66.284-67.35,34.27-141,83.359-225.16,150.073-124.244,98.488-177.063,208.568-148.727,309.963,28.63,102.447,137.248,187.37,305.848,239.127,139.343,42.776,241.327,68.273,330.676,82.672,98.241,15.832,180.348,17.867,258.4,6.4,78.989-11.6,153.453-36.935,234.341-79.722,75.255-39.807,157.393-95.674,258.5-175.817,71.6-56.759,123.939-122.09,151.35-188.931,27.241-66.425,28.618-131.17,3.983-187.235-19.963-45.433-56.006-83.579-107.126-113.379-55.014-32.071-126.022-53.454-211.05-63.554-65.233-7.75-126.093-15.711-179.789-22.736-100.054-13.088-186.464-24.393-263.175-29.575C-5163.751,3765.265-5191.727,3764.243-5218.075,3764.243Z" transform="translate(5924.101 -3763.477)" fill="url(#linear-gradient-22)"/>
        </g>
      </g>
      <g id="Group_68203" data-name="Group 68203" transform="translate(1.742 1.589)">
        <g id="Group_68202" data-name="Group 68202">
          <path id="Path_41287" data-name="Path 41287" d="M-5123.15,4639.142c-42.5,0-87.663-3.336-136.989-10.007-90.045-12.177-193.227-35.172-334.56-74.561-171.289-47.735-284.027-130.4-317.444-232.752-33.064-101.273,14.738-213.323,134.6-315.509,81.1-69.139,152.511-120.318,218.316-156.461,65.489-35.971,127.421-58.749,194.9-71.684,60.421-11.582,127.246-15.343,210.3-11.844,76.967,3.245,163.891,12.386,264.539,22.97,54,5.679,115.206,12.114,180.769,18.227,85.6,7.979,157.7,27.658,214.307,58.49,52.638,28.672,90.557,66.128,112.7,111.328,27.338,55.793,28.991,120.984,4.779,188.522-24.347,67.914-73.733,134.943-142.819,193.84l-.372-.256.372.256c-97.412,83.046-176.99,141.24-250.436,183.14-79,45.068-152.39,72.433-230.958,86.117A705.938,705.938,0,0,1-5123.15,4639.142Zm-87.731-873.311c-57.664,0-107.287,4.278-153.2,13.079-67.357,12.911-129.181,35.651-194.564,71.563-65.745,36.112-137.1,87.254-218.155,156.351-119.634,101.991-167.356,213.793-134.375,314.812,33.334,102.1,145.849,184.572,316.816,232.219,141.276,39.372,244.406,62.356,334.392,74.526,98.941,13.38,181.116,13.325,258.61-.171,78.427-13.66,151.7-40.982,230.583-85.986,73.391-41.867,152.923-100.028,250.29-183.036,68.982-58.809,118.291-125.731,142.6-193.532,24.156-67.381,22.513-132.407-4.75-188.05-22.076-45.054-59.875-82.391-112.347-110.972-56.468-30.757-128.417-50.392-213.848-58.355-65.571-6.112-126.78-12.549-180.784-18.228-100.626-10.581-187.531-19.721-264.458-22.963C-5173.889,3766.253-5192.782,3765.831-5210.881,3765.831Z" transform="translate(5922.359 -3765.066)" fill="url(#linear-gradient-23)"/>
        </g>
      </g>
      <g id="Group_68205" data-name="Group 68205" transform="translate(4.013 2.873)">
        <g id="Group_68204" data-name="Group 68204">
          <path id="Path_41288" data-name="Path 41288" d="M-5124.639,4642.029a1065.5,1065.5,0,0,1-116.065-6.814c-90.579-9.923-194.79-30.369-337.9-66.291-173.44-43.537-289.958-123.619-328.093-225.493-37.731-100.8,4.882-214.474,119.987-320.091,77.881-71.461,146.906-124.65,211.021-162.6,63.807-37.773,124.668-62.215,191.533-76.921,59.867-13.166,126.5-18.641,209.692-17.256,77.093,1.292,164.411,8.247,265.517,16.3,54.245,4.321,115.728,9.218,181.552,13.678,85.887,5.82,158.841,23.711,216.835,53.178,53.931,27.4,93.573,63.988,117.826,108.742,29.97,55.306,34.674,120.714,13.6,189.151-21.189,68.816-67.474,137.383-133.851,198.289l-.384-.245.384.245c-93.546,85.836-170.411,146.273-241.9,190.2-76.9,47.25-149,76.588-226.908,92.329C-5026.789,4637.516-5073.6,4642.029-5124.639,4642.029Zm-74.476-874.915c-71.807,0-131.019,5.617-184.763,17.437-66.74,14.678-127.494,39.078-191.2,76.79-64.056,37.92-133.031,91.071-210.864,162.49-114.887,105.416-157.43,218.844-119.794,319.388,38.041,101.624,154.329,181.521,327.444,224.977,143.05,35.908,247.208,56.343,337.727,66.26,99.529,10.9,181.675,8.75,258.521-6.773,77.771-15.712,149.755-45,226.538-92.185,71.434-43.9,148.254-104.3,241.757-190.093,66.278-60.815,112.491-129.273,133.644-197.975,21.024-68.28,16.337-133.523-13.553-188.68-24.175-44.611-63.692-81.082-117.455-108.4-57.854-29.4-130.651-47.245-216.37-53.053-65.832-4.461-127.319-9.358-181.568-13.678-101.084-8.051-188.383-15-265.435-16.3Q-5187.043,3767.115-5199.115,3767.115Z" transform="translate(5920.088 -3766.35)" fill="url(#linear-gradient-24)"/>
        </g>
      </g>
    </g>
    <g id="Group_68213" data-name="Group 68213" transform="translate(-5927.166 3759.754)">
      <g id="Group_68208" data-name="Group 68208">
        <g id="Group_68207" data-name="Group 68207">
          <path id="Path_41289" data-name="Path 41289" d="M-5123.794,4636.01c-54.233,0-111.728-5.993-175.946-18.159-88.7-16.8-189.507-45.049-326.87-91.583-166.451-56.388-271.338-144.444-295.339-247.945-23.756-102.443,34.153-211.39,163.059-306.769,87.2-64.523,163.1-111.69,232.035-144.2,68.6-32.353,132.453-51.775,200.941-61.12,61.319-8.366,128.314-8.625,210.834-.814,76.469,7.24,162.329,20.86,261.747,36.632,53.339,8.461,113.8,18.051,178.628,27.547,84.681,12.4,154.82,35.743,208.469,69.376,49.888,31.275,84.279,70.523,102.216,116.653,22.125,56.9,17.792,121.789-12.532,187.661-30.493,66.24-85.862,130.294-160.12,185.239l-.348-.275.348.275c-104.743,77.5-189.428,131.219-266.509,169.055-82.911,40.7-158.606,64.081-238.218,73.592A691.886,691.886,0,0,1-5123.794,4636.01Zm-101.192-875.49a740.991,740.991,0,0,0-100.753,6.468c-68.36,9.328-132.1,28.717-200.592,61.019-68.871,32.479-144.715,79.615-231.865,144.1-128.659,95.2-186.465,203.9-162.769,306.083,23.942,103.245,128.622,191.1,294.759,247.38,137.309,46.515,238.068,74.747,326.706,91.539,97.459,18.464,179.424,22.694,257.947,13.313,79.47-9.5,155.043-32.844,237.833-73.482,77.023-37.807,161.659-91.5,266.353-168.959,74.148-54.863,129.43-118.815,159.872-184.943,30.253-65.718,34.581-130.447,12.517-187.187-17.88-45.981-52.161-85.1-101.891-116.279-53.519-33.551-123.508-56.839-208.024-69.217-64.84-9.5-125.3-19.087-178.643-27.55-99.4-15.768-185.238-29.385-261.667-36.62C-5155.053,3762.408-5191.279,3760.52-5224.986,3760.52Z" transform="translate(5927.166 -3759.754)" fill="url(#linear-gradient-25)"/>
        </g>
      </g>
      <g id="Group_68210" data-name="Group 68210" transform="translate(1.208 1.776)">
        <g id="Group_68209" data-name="Group 68209">
          <path id="Path_41290" data-name="Path 41290" d="M-5123.332,4638.86c-48.636,0-100.351-4.632-157.518-13.957-89.435-14.589-191.506-40.35-330.958-83.528-169.009-52.329-277.91-138.026-306.642-241.3-28.428-102.184,24.452-212.985,148.9-311.991,84.2-66.989,157.9-116.271,225.314-150.664,67.089-34.228,130.022-55.355,198.054-66.489,60.911-9.969,127.868-11.946,210.717-6.222,76.772,5.3,163.226,16.772,263.331,30.051,53.708,7.125,114.582,15.2,179.826,23.065,85.182,10.271,156.345,31.884,211.51,64.238,51.3,30.087,87.488,68.566,107.561,114.37,24.778,56.54,23.458,121.792-3.817,188.7-27.427,67.281-79.838,133.006-151.566,190.07l-.36-.265.36.265c-101.138,80.463-183.32,136.543-258.631,176.489-81.008,42.968-155.6,68.376-234.743,79.963A695.889,695.889,0,0,1-5123.332,4638.86ZM-5221.2,3762.3c-45.648,0-86.414,3.1-124.778,9.381-67.9,11.113-130.727,32.205-197.708,66.377-67.351,34.362-141,83.609-225.148,150.557-124.21,98.817-177,209.372-148.642,311.3,28.661,103.021,137.347,188.521,306.039,240.753,139.4,43.161,241.415,68.91,330.791,83.489,98.271,16.031,180.4,18.173,258.461,6.747,79-11.566,153.472-36.936,234.361-79.841,75.255-39.917,157.389-95.966,258.48-176.39,71.621-56.98,123.95-122.6,151.332-189.769,27.212-66.753,28.534-131.84,3.823-188.228-20.008-45.656-56.082-84.013-107.22-114-55.032-32.277-126.042-53.839-211.058-64.09-65.252-7.868-126.13-15.943-179.841-23.067-100.084-13.276-186.519-24.742-263.251-30.043C-5166.1,3763.359-5194.486,3762.3-5221.2,3762.3Z" transform="translate(5925.958 -3761.53)" fill="url(#linear-gradient-26)"/>
        </g>
      </g>
      <g id="Group_68212" data-name="Group 68212" transform="translate(2.955 3.38)">
        <g id="Group_68211" data-name="Group 68211">
          <path id="Path_41291" data-name="Path 41291" d="M-5123.669,4641.72c-42.8,0-88.287-3.408-138-10.224-90.072-12.349-193.288-35.584-334.672-75.341-171.35-48.184-284.15-131.4-317.62-234.309-33.115-101.823,14.65-214.378,134.5-316.934,81.089-69.389,152.495-120.739,218.3-156.985,65.489-36.071,127.427-58.89,194.921-71.809,60.43-11.567,127.27-15.271,210.35-11.648,76.987,3.355,163.935,12.646,264.613,23.406,54.015,5.773,115.238,12.315,180.818,18.537,85.57,8.119,157.664,27.964,214.281,58.988,52.649,28.85,90.6,66.5,112.8,111.912,27.433,56.118,29.154,121.661,4.978,189.546-24.311,68.261-73.692,135.6-142.8,194.742l-.372-.256.372.256c-97.4,83.346-176.971,141.737-250.417,183.758-79,45.2-152.4,72.614-230.977,86.273A701.911,701.911,0,0,1-5123.669,4641.72Zm-90.509-877.818c-57.082,0-106.281,4.242-151.827,12.959-67.367,12.895-129.2,35.674-194.58,71.688-65.745,36.213-137.1,87.527-218.139,156.875-119.618,102.36-167.3,214.667-134.271,316.237,33.388,102.658,145.965,185.681,317,233.773,141.326,39.742,244.491,62.967,334.5,75.308,98.971,13.568,181.165,13.612,258.671.142,78.44-13.634,151.715-41,230.6-86.138,73.391-41.991,152.916-100.349,250.27-183.657,69.008-59.051,118.313-126.284,142.583-194.431,24.121-67.729,22.409-133.109-4.949-189.075-22.128-45.265-59.96-82.8-112.445-111.557-56.479-30.948-128.419-50.749-213.821-58.852-65.589-6.222-126.815-12.765-180.834-18.539-100.656-10.757-187.585-20.046-264.532-23.4C-5176.287,3764.349-5195.649,3763.9-5214.178,3763.9Z" transform="translate(5924.21 -3763.134)" fill="url(#linear-gradient-27)"/>
        </g>
      </g>
    </g>
    <g id="Group_68220" data-name="Group 68220" transform="translate(-5929.66 3755.838)">
      <g id="Group_68215" data-name="Group 68215">
        <g id="Group_68214" data-name="Group 68214">
          <path id="Path_41292" data-name="Path 41292" d="M-5125.613,4635.677c-59.932,0-123.1-7.585-194.334-23.134-87.876-19.184-187.339-50.136-322.5-100.362-163.78-60.862-264.592-151.755-283.864-255.937-19.075-103.113,43.761-210.546,176.933-302.508,90.088-62.212,168.09-107.364,238.463-138.041,70.035-30.529,134.731-48.248,203.6-55.763,61.663-6.73,128.628-5.195,210.743,4.83,76.093,9.288,161.28,25.211,259.919,43.648,52.921,9.892,112.9,21.1,177.264,32.338,84.064,14.672,153.1,39.9,205.182,74.979,48.433,32.621,81.015,72.8,96.84,119.428,19.52,57.51,12.233,122.308-21.072,187.391-33.492,65.446-91.745,128.041-168.461,181.018l-.335-.285.335.285c-108.21,74.724-195.29,126.195-274.047,161.98-84.715,38.491-161.429,59.858-241.426,67.242C-5083.181,4634.708-5104.192,4635.677-5125.613,4635.677Zm-103.532-879.071a716.547,716.547,0,0,0-78.026,4.086c-68.743,7.5-133.327,25.191-203.249,55.67-70.309,30.648-148.254,75.77-238.288,137.943-132.917,91.786-195.639,198.979-176.612,301.833,19.224,103.919,119.839,194.6,283.31,255.352,135.106,50.206,234.519,81.145,322.337,100.315,96.559,21.079,178.281,27.5,257.184,20.221,79.854-7.371,156.444-28.706,241.035-67.142,78.7-35.759,165.729-87.2,273.887-161.889,76.6-52.9,134.764-115.393,168.2-180.728,33.228-64.932,40.5-129.566,21.036-186.918-15.775-46.474-48.253-86.527-96.533-119.044-51.958-35-120.844-60.164-204.744-74.809-64.367-11.234-124.354-22.447-177.279-32.34-98.618-18.434-183.787-34.354-259.839-43.636C-5145.536,3759.562-5188.989,3756.606-5229.145,3756.606Z" transform="translate(5929.66 -3755.838)" fill="url(#linear-gradient-28)"/>
        </g>
      </g>
      <g id="Group_68217" data-name="Group 68217" transform="translate(0.665 1.864)">
        <g id="Group_68216" data-name="Group 68216">
          <path id="Path_41293" data-name="Path 41293" d="M-5124.563,4638.556c-54.48,0-112.242-6.087-176.8-18.449-88.716-16.988-189.552-45.491-326.952-92.416-166.523-56.871-271.455-145.511-295.467-249.591-23.758-102.979,34.136-212.4,163.017-308.107,87.2-64.755,163.1-112.081,232.037-144.68,68.607-32.443,132.463-51.893,200.961-61.209,61.328-8.342,128.334-8.526,210.871-.583,76.484,7.362,162.363,21.148,261.8,37.111,53.352,8.564,113.822,18.271,178.668,27.887,84.663,12.555,154.8,36.08,208.456,69.922,49.9,31.469,84.312,70.93,102.287,117.285,22.189,57.222,17.9,122.459-12.408,188.66-30.474,66.568-85.846,130.912-160.129,186.075l-.348-.275.348.275c-104.741,77.78-189.426,131.68-266.511,169.623-82.915,40.813-158.617,64.232-238.241,73.7A688.387,688.387,0,0,1-5124.563,4638.556Zm-103.256-880.086a736.243,736.243,0,0,0-99.77,6.39c-68.369,9.3-132.114,28.717-200.61,61.107-68.874,32.57-144.719,79.862-231.867,144.578-128.634,95.524-186.425,204.7-162.728,307.422,23.953,103.821,128.679,192.259,294.89,249.023,137.345,46.906,238.13,75.395,326.787,92.372,97.482,18.667,179.462,23.013,258,13.669,79.481-9.455,155.061-32.84,237.854-73.593,77.027-37.915,161.664-91.783,266.355-169.528,74.172-55.08,129.459-119.322,159.882-185.778,30.235-66.046,34.52-131.12,12.393-188.187-17.917-46.206-52.223-85.541-101.964-116.913-53.528-33.759-123.514-57.229-208.011-69.759-64.854-9.617-125.327-19.324-178.682-27.89-99.418-15.96-185.279-29.743-261.722-37.1C-5157.268,3760.408-5193.825,3758.469-5227.819,3758.469Z" transform="translate(5928.996 -3757.702)" fill="url(#linear-gradient-29)"/>
        </g>
      </g>
      <g id="Group_68219" data-name="Group 68219" transform="translate(1.875 3.652)">
        <g id="Group_68218" data-name="Group 68218">
          <path id="Path_41294" data-name="Path 41294" d="M-5124.065,4641.417c-48.9,0-100.882-4.712-158.4-14.2-89.454-14.764-191.55-40.77-331.038-84.324-169.052-52.785-278-139.042-306.76-242.878-28.46-102.739,24.4-214.046,148.843-313.42,84.2-67.237,157.9-116.688,225.314-151.182,67.091-34.329,130.03-55.495,198.071-66.61,60.92-9.953,127.888-11.865,210.753-6.019,76.787,5.417,163.259,17.039,263.385,30.5,53.72,7.221,114.607,15.405,179.865,23.385,85.147,10.412,156.294,32.195,211.464,64.743,51.3,30.267,87.518,68.946,107.636,114.963,24.862,56.867,23.6,122.476-3.654,189.731-27.4,67.629-79.82,133.665-151.581,190.971-101.135,80.761-183.316,137.037-258.63,177.1-81.01,43.1-155.608,68.553-234.763,80.109A691.974,691.974,0,0,1-5124.065,4641.417Zm-100.08-881.158c-45.206,0-85.625,3.074-123.681,9.291-67.914,11.094-130.742,32.224-197.725,66.5-67.353,34.463-141,83.88-225.147,151.076-124.206,99.184-176.974,210.246-148.586,312.728,28.694,103.58,137.423,189.641,306.159,242.327,139.432,43.536,241.476,69.531,330.872,84.285,98.292,16.222,180.434,18.469,258.507,7.069,79.013-11.537,153.489-36.953,234.381-79.987,75.257-40.037,157.391-96.281,258.478-177l.36.266-.36-.266c71.655-57.22,123.99-123.152,151.347-190.667,27.189-67.1,28.456-132.545,3.661-189.26-20.053-45.87-56.154-84.427-107.3-114.6-55.036-32.469-126.031-54.2-211.011-64.593-65.266-7.981-126.157-16.165-179.88-23.386-100.1-13.455-186.558-25.076-263.305-30.491C-5168.348,3761.358-5197.1,3760.258-5224.145,3760.258Z" transform="translate(5927.785 -3759.49)" fill="url(#linear-gradient-30)"/>
        </g>
      </g>
    </g>
    <g id="Group_68227" data-name="Group 68227" transform="translate(-5931.579 3751.817)">
      <g id="Group_68222" data-name="Group 68222">
        <g id="Group_68221" data-name="Group 68221">
          <path id="Path_41295" data-name="Path 41295" d="M-5127.972,4635.271c-65.569,0-134.052-9.305-211.932-28.6-86.95-21.544-184.943-55.171-317.735-109.036-160.911-65.27-257.525-158.9-272.044-263.63-14.371-103.66,53.316-209.446,190.592-297.873,92.865-59.819,172.874-102.9,244.6-131.7,71.381-28.662,136.844-44.655,206.016-50.327,61.933-5.078,128.787-1.751,210.4,10.476,75.623,11.33,160.034,29.541,257.774,50.627,52.439,11.314,111.874,24.136,175.684,37.1,83.345,16.93,151.189,44.014,201.645,80.5,46.919,33.929,77.652,75,91.346,122.064,16.891,58.051,6.66,122.678-29.588,186.89-36.449,64.572-97.515,125.628-176.6,176.566l-.321-.293.321.293c-111.544,71.852-200.913,121.007-281.251,154.694-86.415,36.236-164.055,55.556-244.339,60.8Q-5105.533,4635.267-5127.972,4635.271Zm-103.283-882.688c-19.658,0-38.6.765-57.114,2.284-69.043,5.663-134.392,21.628-205.659,50.245-71.66,28.775-151.611,71.824-244.42,131.607-137.013,88.257-204.575,193.806-190.241,297.2,14.483,104.472,110.91,197.884,271.517,263.031,132.739,53.843,230.683,87.455,317.576,108.985,95.541,23.672,176.92,32.288,256.106,27.117,80.141-5.234,157.656-24.524,243.944-60.708,80.279-33.662,169.6-82.791,281.088-154.607,78.963-50.864,139.933-111.822,176.322-176.285,36.162-64.062,46.374-128.525,29.53-186.417-13.651-46.914-44.286-87.85-91.057-121.673-50.334-36.4-118.032-63.422-201.215-80.318-63.817-12.963-123.256-25.786-175.7-37.1-97.718-21.083-182.111-39.289-257.695-50.613C-5135.377,3756.778-5185.251,3752.584-5231.255,3752.584Z" transform="translate(5931.579 -3751.817)" fill="url(#linear-gradient-31)"/>
        </g>
      </g>
      <g id="Group_68224" data-name="Group 68224" transform="translate(0.113 1.877)">
        <g id="Group_68223" data-name="Group 68223">
          <path id="Path_41296" data-name="Path 41296" d="M-5126.564,4638.193c-60.152,0-123.552-7.687-195.077-23.452-87.889-19.373-187.367-50.586-322.548-101.21-163.835-61.353-264.67-152.836-283.932-257.6-19.058-103.65,43.779-211.559,176.935-303.846,90.094-62.442,168.1-107.75,238.479-138.513,70.041-30.616,134.743-48.362,203.623-55.847,61.671-6.7,128.645-5.09,210.77,5.069,76.1,9.414,161.3,25.505,259.955,44.138,52.929,10,112.92,21.328,177.288,32.685,84.04,14.827,153.062,40.24,205.148,75.532,48.436,32.817,81.034,73.213,96.889,120.068,19.572,57.836,12.316,122.981-20.983,188.392-33.485,65.776-91.75,128.659-168.5,181.85-108.215,75-195.3,126.65-274.065,162.54-84.722,38.606-161.444,60.006-241.45,67.347C-5084.612,4637.24-5105.388,4638.193-5126.564,4638.193Zm-105.17-883.731a711.988,711.988,0,0,0-77.21,4.028c-68.751,7.47-133.34,25.187-203.268,55.753-70.315,30.735-148.265,76.012-238.3,138.416-132.9,92.112-195.625,199.779-176.615,303.169,19.214,104.5,119.853,195.776,283.38,257.014,135.127,50.6,234.554,81.8,322.386,101.162,96.573,21.286,178.305,27.83,257.217,20.585,79.862-7.328,156.46-28.695,241.057-67.244,78.706-35.864,165.741-87.484,273.906-162.45l.335.285-.335-.285c76.633-53.113,134.808-115.9,168.237-181.56,33.221-65.259,40.464-130.241,20.946-187.92-15.8-46.7-48.3-86.972-96.582-119.686-51.96-35.206-120.835-60.56-204.711-75.359-64.376-11.358-124.371-22.69-177.3-32.688-98.632-18.629-183.813-34.718-259.875-44.126C-5147.625,3757.476-5191.342,3754.461-5231.734,3754.461Z" transform="translate(5931.466 -3753.694)" fill="url(#linear-gradient-32)"/>
        </g>
      </g>
      <g id="Group_68226" data-name="Group 68226" transform="translate(0.779 3.748)">
        <g id="Group_68225" data-name="Group 68225">
          <path id="Path_41297" data-name="Path 41297" d="M-5125.492,4641.083c-54.7,0-112.7-6.176-177.558-18.724-88.729-17.167-189.58-45.918-327-93.227-166.548-57.334-271.5-146.539-295.526-251.182-23.769-103.535,34.121-213.463,163.008-309.535,87.2-65,163.11-112.5,232.052-145.194,68.612-32.542,132.475-52.027,200.98-61.322,61.336-8.324,128.351-8.441,210.9-.373,76.5,7.477,162.386,21.423,261.839,37.568,53.359,8.663,113.836,18.483,178.691,28.214,84.622,12.7,154.735,36.395,208.391,70.433,49.9,31.652,84.329,71.315,102.341,117.887,22.26,57.552,18.013,123.149-12.281,189.7-30.463,66.917-85.85,131.572-160.175,186.972-104.746,78.078-189.437,132.17-266.527,170.231-82.921,40.941-158.632,64.4-238.264,73.845A684.541,684.541,0,0,1-5125.492,4641.083Zm-104.992-884.75a731.436,731.436,0,0,0-98.88,6.323c-68.376,9.278-132.127,28.73-200.628,61.22-68.88,32.669-144.729,80.129-231.882,145.092-128.641,95.889-186.429,205.574-162.719,308.851,23.965,104.384,128.714,193.388,294.951,250.614,137.366,47.29,238.166,76.027,326.836,93.182,97.5,18.862,179.485,23.31,258.028,14,79.489-9.423,155.076-32.851,237.876-73.732,77.033-38.033,161.674-92.094,266.371-170.135l.349.275-.349-.275c74.214-55.319,129.516-119.87,159.928-186.675,30.225-66.395,34.467-131.828,12.267-189.224-17.955-46.423-52.28-85.961-102.02-117.515-53.526-33.956-123.489-57.6-207.946-70.271-64.862-9.732-125.344-19.552-178.706-28.215-99.431-16.143-185.3-30.084-261.758-37.558C-5159.379,3758.319-5196.229,3756.333-5230.484,3756.333Z" transform="translate(5930.8 -3755.565)" fill="url(#linear-gradient-33)"/>
        </g>
      </g>
    </g>
    <g id="Group_68234" data-name="Group 68234" transform="translate(-5933.361 3747.748)">
      <g id="Group_68229" data-name="Group 68229" transform="translate(0.444)">
        <g id="Group_68228" data-name="Group 68228">
          <path id="Path_41298" data-name="Path 41298" d="M-5130.657,4634.776c-71.238,0-144.739-11.139-228.929-34.542-85.918-23.882-182.323-60.149-312.585-117.591-157.845-69.607-250.144-165.854-259.893-271.01-9.649-104.079,62.807-208.085,204.019-292.86,95.528-57.349,177.447-98.3,250.438-125.184,72.642-26.759,138.792-41,208.179-44.82,62.125-3.423,128.788,1.7,209.791,16.121,75.061,13.361,158.593,33.841,255.314,57.556,51.893,12.723,110.71,27.144,173.891,41.82,82.526,19.171,149.1,48.083,197.863,85.936,45.348,35.2,74.195,77.105,85.741,124.553,14.241,58.524,1.078,122.9-38.067,186.159-39.364,63.615-103.168,123.054-184.516,171.889l-.308-.3.308.3c-114.743,68.884-206.293,115.66-288.113,147.2-88.01,33.93-166.481,51.173-246.954,54.266Q-5117.53,4634.776-5130.657,4634.776Zm-101.176-886.259c-12.741,0-25.216.341-37.523,1.019-69.258,3.813-135.294,18.031-207.818,44.746-72.926,26.863-154.785,67.782-250.255,125.1-140.942,84.612-213.262,188.384-203.637,292.2,9.724,104.893,101.845,200.922,259.393,270.4,130.21,57.42,226.566,93.669,312.427,117.536,94.406,26.242,175.344,37.043,254.718,33.994,80.33-3.086,158.674-20.305,246.555-54.185,81.76-31.522,173.257-78.27,287.946-147.122,81.226-48.763,144.932-108.106,184.229-171.614,39.053-63.115,52.189-127.324,37.987-185.688-11.509-47.295-40.264-89.066-85.469-124.154-48.648-37.761-115.077-66.608-197.441-85.741-63.189-14.678-122.009-29.1-173.906-41.823-96.7-23.71-180.214-44.185-255.236-57.54C-5124.712,3754.1-5180.362,3748.517-5231.833,3748.517Z" transform="translate(5932.917 -3747.748)" fill="url(#linear-gradient-34)"/>
        </g>
      </g>
      <g id="Group_68231" data-name="Group 68231" transform="translate(0 1.836)">
        <g id="Group_68230" data-name="Group 68230">
          <path id="Path_41299" data-name="Path 41299" d="M-5129.1,4637.75c-65.767,0-134.44-9.414-212.575-28.944-86.955-21.736-184.954-55.629-317.752-109.9-160.946-65.77-257.562-159.989-272.051-265.3-14.334-104.2,53.369-210.458,190.638-299.206,92.878-60.047,172.9-103.279,244.63-132.165,71.39-28.748,136.86-44.764,206.038-50.4,61.938-5.049,128.8-1.643,210.411,10.723,75.628,11.458,160.045,29.841,257.791,51.127,52.442,11.42,111.881,24.364,175.694,37.451,83.315,17.087,151.139,44.36,201.59,81.061,46.914,34.128,77.656,75.414,91.372,122.709,16.931,58.381,6.718,123.355-29.534,187.9-36.453,64.9-97.542,126.242-176.66,177.395-111.559,72.125-200.939,121.455-281.287,155.246-86.424,36.347-164.072,55.7-244.363,60.893Q-5106.972,4637.746-5129.1,4637.75Zm-104.535-887.4c-19.414,0-38.135.752-56.432,2.244-69.049,5.628-134.4,21.618-205.679,50.32-71.668,28.859-151.629,72.061-244.45,132.072-137.007,88.577-204.586,194.6-190.287,298.537,14.452,105.051,110.882,199.059,271.526,264.705,132.745,54.245,230.693,88.123,317.591,109.843,95.547,23.883,176.93,32.619,256.124,27.492,80.148-5.188,157.67-24.507,243.967-60.8,80.288-33.766,169.617-83.069,281.123-155.16l.322.294-.322-.294c79-51.076,139.994-112.319,176.386-177.111,36.168-64.391,46.36-129.2,29.476-187.424-13.672-47.144-44.317-88.3-91.084-122.319-50.328-36.612-118.008-63.822-201.16-80.875-63.821-13.089-123.263-26.033-175.709-37.455-97.725-21.281-182.123-39.66-257.712-51.113C-5137.344,3754.614-5187.433,3750.353-5233.631,3750.353Z" transform="translate(5933.361 -3749.584)" fill="url(#linear-gradient-35)"/>
        </g>
      </g>
      <g id="Group_68233" data-name="Group 68233" transform="translate(0.113 3.721)">
        <g id="Group_68232" data-name="Group 68232">
          <path id="Path_41300" data-name="Path 41300" d="M-5127.677,4640.685c-60.347,0-123.947-7.784-195.731-23.753-87.9-19.552-187.378-51.021-322.566-102.031-163.841-61.824-264.677-153.877-283.932-259.2-19.051-104.208,43.8-212.623,176.973-305.271,90.106-62.686,168.123-108.16,238.51-139.02,70.049-30.713,134.758-48.492,203.644-55.953,61.677-6.678,128.656-5,210.787,5.287,76.108,9.532,161.314,25.786,259.973,44.607,52.932,10.1,112.926,21.542,177.3,33.017,83.994,14.973,152.987,40.559,205.063,76.049,48.428,33,81.037,73.6,96.923,120.675,19.631,58.17,12.406,123.676-20.894,189.436-33.485,66.123-91.777,129.313-168.573,182.741l-.336-.285.336.285c-108.231,75.294-195.328,127.134-274.1,163.141-84.731,38.73-161.461,60.171-241.474,67.478C-5086.154,4639.745-5106.72,4640.685-5127.677,4640.685Zm-106.482-888.448a707.53,707.53,0,0,0-76.48,3.98c-68.757,7.446-133.353,25.2-203.289,55.858-70.322,30.832-148.282,76.274-238.334,138.922-132.92,92.471-195.657,200.645-176.654,304.595,19.207,105.064,119.848,196.909,283.383,258.616,135.134,50.991,234.567,82.444,322.4,101.984,71.685,15.947,135.207,23.722,195.456,23.723,20.922,0,41.438-.937,61.779-2.795,79.869-7.293,156.474-28.7,241.081-67.376,78.715-35.979,165.761-87.79,273.941-163.05,76.682-53.346,134.883-116.437,168.312-182.45,33.224-65.607,40.436-130.949,20.858-188.962-15.835-46.921-48.342-87.393-96.618-120.293-51.95-35.4-120.8-60.931-204.626-75.874-64.38-11.477-124.378-22.923-177.313-33.021-98.638-18.815-183.825-35.067-259.893-44.593C-5149.6,3755.308-5193.562,3752.237-5234.159,3752.237Z" transform="translate(5933.248 -3751.469)" fill="url(#linear-gradient-36)"/>
        </g>
      </g>
    </g>
    <g id="Group_68241" data-name="Group 68241" transform="translate(-5935.122 3743.679)">
      <g id="Group_68236" data-name="Group 68236" transform="translate(1.452)">
        <g id="Group_68235" data-name="Group 68235">
          <path id="Path_41301" data-name="Path 41301" d="M-5133.463,4634.186c-77.044,0-155.3-13.07-245.508-40.942-84.781-26.2-179.479-65.06-307.053-126.016-154.588-73.863-242.458-172.615-247.425-278.064-4.916-104.371,72.22-206.463,217.2-287.473,98.075-54.8,181.8-93.562,255.972-118.5,73.812-24.817,140.569-37.288,210.088-39.247,62.242-1.76,128.632,5.16,208.931,21.757,74.409,15.38,156.96,38.108,252.545,64.426,51.283,14.119,109.409,30.123,171.885,46.5,81.6,21.39,146.82,52.1,193.838,91.271,43.721,36.426,70.648,79.119,80.031,126.891,11.574,58.923-4.5,122.962-46.5,185.192-42.229,62.578-108.695,120.322-192.211,166.988l-.294-.311.294.311c-117.8,65.825-211.421,110.157-294.625,139.513-89.5,31.579-168.7,46.721-249.268,47.656C-5128.193,4634.169-5130.833,4634.186-5133.463,4634.186Zm-97.815-889.735q-9.516,0-18.877.264c-69.389,1.955-136.031,14.406-209.724,39.183-74.1,24.914-157.769,63.647-255.785,118.416-144.7,80.855-221.689,182.717-216.786,286.822,4.955,105.186,92.658,203.715,246.954,277.439,127.522,60.932,222.173,99.779,306.9,125.957,93.156,28.783,173.552,41.757,253.018,40.84,80.421-.932,159.5-16.053,248.866-47.584,83.142-29.336,176.707-73.644,294.454-139.437,83.392-46.6,149.753-104.249,191.911-166.721,41.9-62.085,57.941-125.961,46.4-184.723-9.354-47.618-36.195-90.173-79.778-126.485-46.9-39.077-111.981-69.715-193.426-91.064-62.483-16.379-120.613-32.383-171.9-46.5-95.565-26.312-178.1-49.036-252.468-64.407C-5113.653,3751.536-5174.547,3744.45-5231.278,3744.45Z" transform="translate(5933.67 -3743.679)" fill="url(#linear-gradient-37)"/>
        </g>
      </g>
      <g id="Group_68238" data-name="Group 68238" transform="translate(0.447 1.756)">
        <g id="Group_68237" data-name="Group 68237">
          <path id="Path_41302" data-name="Path 41302" d="M-5131.947,4637.212c-71.415,0-145.072-11.253-229.479-34.908-85.915-24.078-182.314-60.612-312.567-118.463-157.862-70.111-250.141-166.956-259.838-272.694-9.595-104.617,62.892-209.094,204.108-294.186,95.547-57.573,177.481-98.67,250.482-125.64,72.652-26.841,138.809-41.1,208.2-44.889,62.128-3.389,128.793,1.815,209.8,16.376,75.062,13.493,158.592,34.147,255.311,58.065,51.892,12.832,110.707,27.375,173.888,42.18,82.488,19.33,149.033,48.433,197.786,86.5,45.336,35.4,74.185,77.523,85.745,125.2,14.269,58.855,1.112,123.576-38.048,187.164-39.379,63.943-103.215,123.665-184.608,172.71l-.309-.3.309.3c-114.766,69.154-206.332,116.1-288.165,147.746-88.022,34.038-166.5,51.309-246.979,54.353Q-5119.091,4637.211-5131.947,4637.212Zm-102.068-891.006c-12.543,0-24.832.333-36.954.993-69.262,3.777-135.3,18.018-207.839,44.814-72.935,26.946-154.809,68.014-250.3,125.553-140.946,84.93-213.3,189.173-203.727,293.527,9.673,105.474,101.775,202.1,259.34,272.082,130.2,57.827,226.551,94.344,312.41,118.407,84.285,23.621,157.85,34.859,229.14,34.861q12.837,0,25.579-.483c80.334-3.039,158.687-20.284,246.58-54.272,81.772-31.621,173.285-78.542,288-147.664,81.272-48.971,145.009-108.6,184.321-172.433,39.07-63.441,52.2-128,37.969-186.694-11.523-47.525-40.281-89.515-85.474-124.8-48.635-37.976-115.039-67.012-197.366-86.3-63.187-14.807-122.007-29.351-173.9-42.185-96.7-23.912-180.21-44.563-255.233-58.048C-5126.563,3751.857-5182.382,3746.207-5234.015,3746.207Z" transform="translate(5934.675 -3745.436)" fill="url(#linear-gradient-38)"/>
        </g>
      </g>
      <g id="Group_68240" data-name="Group 68240" transform="translate(0 3.598)">
        <g id="Group_68239" data-name="Group 68239">
          <path id="Path_41303" data-name="Path 41303" d="M-5130.382,4640.2c-65.935,0-134.78-9.517-213.13-29.268-86.953-21.92-184.947-56.071-317.737-110.731-160.936-66.245-257.531-161.038-271.993-266.917-14.308-104.757,53.425-211.521,190.724-300.624,92.9-60.289,172.93-103.684,244.674-132.665,71.4-28.841,136.878-44.889,206.06-50.5,61.942-5.027,128.8-1.547,210.418,10.949,75.629,11.579,160.044,30.126,257.788,51.6,52.442,11.523,111.881,24.584,175.7,37.791,83.263,17.233,151.052,44.681,201.486,81.581,46.9,34.315,77.646,75.806,91.385,123.321,16.979,58.719,6.784,124.052-29.481,188.939-36.466,65.248-97.591,126.9-176.766,178.278l-.323-.294.323.294c-111.583,72.415-200.98,121.934-281.34,155.837-86.438,36.467-164.094,55.856-244.39,61.017Q-5108.54,4640.2-5130.382,4640.2Zm-105.464-892.152c-19.2,0-37.723.741-55.833,2.21-69.052,5.6-134.415,21.624-205.7,50.419-71.679,28.955-151.654,72.318-244.5,132.57-137.037,88.934-204.646,195.461-190.373,299.957,14.426,105.617,110.835,200.2,271.47,266.318,132.736,54.638,230.681,88.772,317.577,110.678,95.544,24.086,176.932,32.931,256.127,27.844,80.152-5.151,157.683-24.511,243.994-60.925,80.3-33.879,169.645-83.37,281.175-155.751,79.057-51.306,140.087-112.855,176.492-177.993,36.182-64.739,46.357-129.911,29.424-188.469-13.7-47.363-44.345-88.722-91.1-122.93-50.312-36.811-117.957-64.2-201.057-81.4-63.821-13.21-123.264-26.27-175.71-37.794-97.723-21.472-182.119-40.015-257.708-51.589C-5139.2,3752.371-5189.48,3748.048-5235.846,3748.048Z" transform="translate(5935.122 -3747.278)" fill="url(#linear-gradient-39)"/>
        </g>
      </g>
    </g>
    <g id="Group_68248" data-name="Group 68248" transform="translate(-5936.417 3739.648)">
      <g id="Group_68243" data-name="Group 68243" transform="translate(2.579)">
        <g id="Group_68242" data-name="Group 68242">
          <path id="Path_41304" data-name="Path 41304" d="M-5136.239,4633.5c-3.47,0-6.928-.027-10.4-.08-79.594-1.216-159.477-16.378-251.4-47.713-83.54-28.479-176.417-69.9-301.147-134.3-151.141-78.035-234.477-179.172-234.655-284.783-.176-104.528,81.545-204.574,230.111-281.71,100.5-52.181,185.939-88.7,261.193-111.653,74.894-22.839,142.176-33.521,211.741-33.613h.872c62.031,0,127.816,8.7,206.943,27.376,73.666,17.383,155.135,42.334,249.468,71.225,50.611,15.5,107.976,33.07,169.671,51.129,80.583,23.588,144.367,56.057,189.578,96.5,42.041,37.609,67.014,81.036,74.224,129.073,8.893,59.25-10.082,122.873-54.875,183.99-45.043,61.459-114.089,117.432-199.673,161.869-120.717,62.676-216.29,104.5-300.776,131.634C-4982.319,4620.37-5059.19,4633.5-5136.239,4633.5Zm-93.679-893.079h-.873c-69.435.092-136.6,10.755-211.374,33.559-75.186,22.93-160.561,59.427-261,111.577-148.281,76.987-229.846,176.807-229.67,281.071.178,105.345,83.356,206.256,234.212,284.144,124.68,64.373,217.51,105.771,301,134.231,91.794,31.294,171.555,46.435,251.011,47.648,80.412,1.21,160.132-11.773,250.874-40.913,84.423-27.109,179.941-68.915,300.6-131.562l.28.319-.28-.319c85.456-44.369,154.394-100.252,199.361-161.608,44.688-60.975,63.621-124.437,54.753-183.523-7.187-47.88-32.081-91.168-73.989-128.659-45.1-40.348-108.749-72.743-189.176-96.284-61.7-18.062-119.07-35.632-169.685-51.133-94.312-28.886-175.763-53.833-249.391-71.205C-5102.294,3749.112-5167.993,3740.418-5229.918,3740.418Z" transform="translate(5933.837 -3739.648)" fill="url(#linear-gradient-40)"/>
        </g>
      </g>
      <g id="Group_68245" data-name="Group 68245" transform="translate(1.011 1.648)">
        <g id="Group_68244" data-name="Group 68244">
          <path id="Path_41305" data-name="Path 41305" d="M-5134.912,4636.573c-77.2,0-155.592-13.191-245.968-41.328-84.771-26.394-179.454-65.531-307-126.9-154.585-74.375-242.414-173.728-247.308-279.756-4.843-104.906,72.34-207.467,217.33-288.789,98.1-55.023,181.849-93.93,256.029-118.946,73.825-24.9,140.589-37.386,210.111-39.307,62.245-1.722,128.632,5.277,208.925,22.018,74.4,15.513,156.947,38.419,252.523,64.942,51.277,14.23,109.4,30.359,171.866,46.866,81.562,21.552,146.746,52.451,193.742,91.839,43.7,36.628,70.623,79.54,80.012,127.544,11.591,59.256-4.494,123.642-46.515,186.2-42.256,62.9-108.763,120.928-192.331,167.8-117.833,66.089-211.474,110.589-294.692,140.044-89.513,31.683-168.728,46.85-249.295,47.733Q-5131.194,4636.574-5134.912,4636.573Zm-98.369-894.507q-9.276,0-18.405.252c-69.391,1.917-136.039,14.387-209.745,39.243-74.113,24.993-157.8,63.874-255.841,118.864-144.714,81.166-221.75,183.5-216.92,288.138,4.882,105.766,92.545,204.9,246.839,279.131,127.5,61.343,222.133,100.46,306.848,126.836,93.146,29,173.541,42.105,253,41.233,80.423-.882,159.51-16.026,248.892-47.663,83.156-29.432,176.742-73.909,294.52-139.968l.295.311-.295-.311c83.443-46.8,149.847-104.733,192.031-167.53,41.924-62.409,57.974-126.633,46.415-185.729-9.359-47.849-36.194-90.625-79.759-127.137-46.883-39.293-111.928-70.123-193.33-91.633-62.477-16.508-120.6-32.639-171.881-46.869-95.555-26.518-178.08-49.42-252.445-64.924C-5115.385,3749.231-5176.415,3742.067-5233.281,3742.067Z" transform="translate(5935.406 -3741.296)" fill="url(#linear-gradient-41)"/>
        </g>
      </g>
      <g id="Group_68247" data-name="Group 68247" transform="translate(0 3.41)">
        <g id="Group_68246" data-name="Group 68246">
          <path id="Path_41306" data-name="Path 41306" d="M-5133.4,4639.614c-71.564,0-145.359-11.362-229.942-35.252-85.907-24.265-182.292-61.061-312.522-119.308-157.833-70.592-250.071-168.012-259.722-274.314-9.548-105.177,62.986-210.156,204.242-295.6,95.574-57.811,177.527-99.069,250.542-126.129,72.665-26.932,138.83-41.225,208.225-44.981,62.132-3.359,128.8,1.917,209.794,16.609,75.057,13.615,158.58,34.439,255.291,58.55,51.887,12.936,110.7,27.6,173.872,42.525,82.431,19.478,148.934,48.757,197.664,87.026,45.315,35.586,74.16,77.917,85.736,125.817,14.3,59.194,1.154,124.275-38.032,188.21-39.4,64.287-103.286,124.313-184.744,173.584-114.8,69.438-206.387,116.57-288.235,148.324-88.04,34.156-166.528,51.464-247.01,54.467Q-5120.779,4639.614-5133.4,4639.614Zm-102.643-895.787c-12.372,0-24.5.326-36.464.974-69.264,3.749-135.314,18.017-207.861,44.905-72.949,27.037-154.842,68.266-250.358,126.042-140.988,85.279-213.387,190.024-203.862,294.938,9.627,106.039,101.688,203.242,259.226,273.7,130.178,58.224,226.514,95,312.364,119.251,94.394,26.662,175.329,37.7,254.709,34.737,80.336-3,158.7-20.279,246.608-54.386,81.787-31.731,173.323-78.836,288.068-148.242l.308.3-.308-.3c81.335-49.2,145.12-109.127,184.457-173.308,39.1-63.787,52.219-128.707,37.953-187.74-11.539-47.746-40.294-89.944-85.467-125.419-48.612-38.177-114.974-67.389-197.243-86.829-63.183-14.929-122-29.592-173.887-42.529-96.69-24.1-180.2-44.924-255.213-58.533C-5128.3,3749.546-5184.266,3743.827-5236.038,3743.827Z" transform="translate(5936.417 -3743.058)" fill="url(#linear-gradient-42)"/>
        </g>
      </g>
    </g>
    <g id="Group_68255" data-name="Group 68255" transform="translate(-5937.129 3735.665)">
      <g id="Group_68250" data-name="Group 68250" transform="translate(3.709)">
        <g id="Group_68249" data-name="Group 68249">
          <path id="Path_41307" data-name="Path 41307" d="M-5139.128,4632.708q-14.294,0-28.546-.6c-79.49-3.356-158.637-20.667-249.08-54.481-82.2-30.731-173.14-74.655-294.874-142.421-147.511-82.114-226.21-185.514-221.6-291.151,4.564-104.555,90.772-202.426,242.744-275.583,102.807-49.49,189.848-83.723,266.1-104.655,75.884-20.832,143.607-29.7,213.136-27.927,62.251,1.593,127.851,12.068,206.448,32.968,72.833,19.367,153.121,46.513,246.086,77.947,49.878,16.865,106.41,35.979,167.249,55.7,79.465,25.76,141.737,59.949,185.087,101.619,40.311,38.748,63.3,82.856,68.327,131.1,6.2,59.5-15.648,122.626-63.185,182.553-47.8,60.262-119.344,114.39-206.89,156.534-123.486,59.445-220.9,98.713-306.561,123.577C-4995.94,4621.464-5068.054,4632.708-5139.128,4632.708Zm-89.413-896.274c-63.427,0-126.037,9.034-195.51,28.1-76.181,20.914-163.158,55.122-265.9,104.583-151.681,73.018-237.722,170.666-242.274,274.957-4.6,105.372,73.953,208.54,221.186,290.5,121.685,67.738,212.581,111.641,294.725,142.352,90.319,33.768,169.345,51.056,248.7,54.405,80.309,3.389,160.567-7.469,252.576-34.176,85.6-24.846,182.956-64.093,306.384-123.509l.265.326-.265-.326c87.415-42.081,158.845-96.124,206.567-156.283,47.425-59.787,69.225-122.752,63.041-182.09-5.012-48.084-27.927-92.05-68.11-130.676-43.245-41.568-105.385-75.681-184.695-101.39-60.846-19.723-117.382-38.84-167.263-55.705-92.945-31.427-173.216-58.569-246.01-77.925-78.5-20.874-144.007-31.335-206.155-32.926Q-5219.924,3736.436-5228.541,3736.435Z" transform="translate(5933.419 -3735.665)" fill="url(#linear-gradient-43)"/>
        </g>
      </g>
      <g id="Group_68252" data-name="Group 68252" transform="translate(1.577 1.532)">
        <g id="Group_68251" data-name="Group 68251">
          <path id="Path_41308" data-name="Path 41308" d="M-5137.842,4635.832c-3.6,0-7.2-.028-10.8-.086-79.594-1.269-159.468-16.558-251.368-48.114-83.523-28.68-176.375-70.373-301.065-135.186-151.119-78.55-234.391-180.29-234.477-286.477-.085-105.063,81.7-205.573,230.287-283.015,100.535-52.4,186-89.063,261.264-112.09,74.909-22.917,142.2-33.615,211.764-33.666h.484c62.145,0,128.035,8.787,207.316,27.642,73.656,17.519,155.11,42.65,249.425,71.751,50.6,15.612,107.955,33.309,169.639,51.5,80.534,23.75,144.278,56.411,189.461,97.073,42.016,37.812,66.974,81.459,74.182,129.728,8.9,59.583-10.1,123.552-54.926,184.993-45.081,61.782-114.177,118.033-199.82,162.668l-.28-.319.28.319c-120.756,62.938-216.357,104.931-300.859,132.154C-4984.163,4622.679-5060.926,4635.832-5137.842,4635.832Zm-93.91-897.864h-.484c-69.436.052-136.608,10.731-211.4,33.612-75.2,23.006-160.6,59.645-261.073,112.012-148.3,77.294-229.932,177.578-229.847,282.377.085,105.922,83.2,207.435,234.036,285.839,124.641,64.787,217.445,106.46,300.913,135.12,91.775,31.514,171.526,46.781,250.982,48.048,80.413,1.31,160.139-11.739,250.9-40.979,84.44-27.2,179.985-69.174,300.685-132.082,85.514-44.569,154.5-100.729,199.508-162.408,44.727-61.3,63.678-125.105,54.8-184.526-7.185-48.114-32.065-91.622-73.949-129.315-45.073-40.562-108.682-73.15-189.059-96.854-61.691-18.194-119.048-35.891-169.653-51.5-94.3-29.094-175.731-54.221-249.348-71.73C-5103.91,3746.744-5169.714,3737.968-5231.752,3737.968Z" transform="translate(5935.552 -3737.197)" fill="url(#linear-gradient-44)"/>
        </g>
      </g>
      <g id="Group_68254" data-name="Group 68254" transform="translate(0 3.184)">
        <g id="Group_68253" data-name="Group 68253">
          <path id="Path_41309" data-name="Path 41309" d="M-5136.517,4638.922c-77.328,0-155.825-13.3-246.343-41.694-84.755-26.583-179.414-65.983-306.926-127.75-154.538-74.86-242.306-174.791-247.134-281.383-4.777-105.464,72.47-208.521,217.511-290.186,98.136-55.257,181.908-94.321,256.1-119.425,73.842-24.985,140.614-37.5,210.137-39.391,62.245-1.695,128.629,5.38,208.913,22.258,74.394,15.639,156.922,38.716,252.482,65.435,51.27,14.336,109.38,30.585,171.84,47.216,81.5,21.7,146.634,52.778,193.6,92.369,43.675,36.815,70.585,79.935,79.983,128.161,11.615,59.594-4.477,124.342-46.536,187.24-42.292,63.247-108.857,121.569-192.5,168.663l-.3-.311.3.311c-117.875,66.372-211.544,111.052-294.781,140.613-89.533,31.8-168.758,47-249.326,47.838C-5131.827,4638.91-5134.178,4638.922-5136.517,4638.922Zm-98.608-899.3q-9.072,0-18.008.243c-69.392,1.886-136.048,14.383-209.77,39.326-74.129,25.083-157.84,64.119-255.916,119.341-144.765,81.512-221.867,184.337-217.1,289.538,4.817,106.33,92.418,206.037,246.667,280.756,127.461,61.744,222.072,101.125,306.77,127.69,93.129,29.209,173.515,42.438,252.98,41.6,80.424-.837,159.52-16.015,248.922-47.767,83.175-29.54,176.789-74.2,294.609-140.535,83.516-47.024,149.977-105.254,192.2-168.4,41.962-62.753,58.019-127.338,46.437-186.772-9.369-48.071-36.194-91.054-79.733-127.755-46.852-39.494-111.85-70.5-193.188-92.16-62.468-16.633-120.582-32.883-171.855-47.22-95.539-26.714-178.049-49.785-252.405-65.416C-5117.008,3746.856-5178.144,3739.621-5235.125,3739.621Z" transform="translate(5937.129 -3738.849)" fill="url(#linear-gradient-45)"/>
        </g>
      </g>
    </g>
    <g id="Group_68262" data-name="Group 68262" transform="translate(-5937.258 3731.734)">
      <g id="Group_68257" data-name="Group 68257" transform="translate(4.84)">
        <g id="Group_68256" data-name="Group 68256">
          <path id="Path_41310" data-name="Path 41310" d="M-5142,4631.819c-15.627,0-31.146-.541-46.643-1.615-79.29-5.495-157.6-24.939-246.46-61.191-80.756-32.95-169.653-79.327-288.242-150.379-143.7-86.1-217.668-191.63-208.274-297.162,9.3-104.449,99.887-200.017,255.081-269.1,104.986-46.733,193.525-78.629,270.676-97.514,76.781-18.793,144.867-25.848,214.271-22.2,62.14,3.268,127.226,15.51,204.828,38.527,71.911,21.33,150.92,50.641,242.4,84.581,49.084,18.209,104.716,38.849,164.625,60.21,78.25,27.9,138.935,63.773,180.371,106.616,38.53,39.839,59.506,84.573,62.345,132.956,3.5,59.678-21.194,122.227-71.416,180.884-50.5,58.985-124.454,111.2-213.856,150.993-126.1,56.133-225.235,92.786-311.973,115.35C-5009.547,4622.365-5076.711,4631.819-5142,4631.819Zm-84.73-899.313c-57.438,0-115.128,7.5-178.83,23.09-77.081,18.867-165.555,50.742-270.478,97.446-154.9,68.949-245.31,164.3-254.584,268.485-9.37,105.267,64.46,210.565,207.89,296.5,118.542,71.023,207.394,117.378,288.1,150.306,88.734,36.2,166.928,55.619,246.081,61.1,80.109,5.551,160.808-3.15,253.971-27.386,86.674-22.547,185.748-59.18,311.793-115.287l.25.334-.25-.334c89.268-39.736,163.1-91.865,213.521-150.751,50.1-58.521,74.744-120.91,71.252-180.424-2.83-48.227-23.739-92.817-62.148-132.53-41.335-42.739-101.892-78.53-179.989-106.377-59.915-21.365-115.552-42.005-164.638-60.216-91.465-33.932-170.457-63.238-242.33-84.556-77.506-22.99-142.5-35.216-204.537-38.478Q-5209.223,3732.51-5226.732,3732.506Z" transform="translate(5932.417 -3731.734)" fill="url(#linear-gradient-46)"/>
        </g>
      </g>
      <g id="Group_68259" data-name="Group 68259" transform="translate(2.143 1.416)">
        <g id="Group_68258" data-name="Group 68258">
          <path id="Path_41311" data-name="Path 41311" d="M-5140.887,4634.984q-14.457,0-28.87-.62c-79.488-3.411-158.621-20.853-249.036-54.89-82.174-30.934-173.081-75.135-294.76-143.317-147.47-82.635-226.084-186.636-221.361-292.847,4.673-105.086,90.959-203.415,242.964-276.875,102.846-49.7,189.915-84.075,266.181-105.081,75.9-20.905,143.634-29.8,213.159-27.972,62.249,1.63,127.841,12.194,206.422,33.242,72.817,19.5,153.083,46.833,246.023,78.479,49.864,16.977,106.381,36.222,167.2,56.077,79.41,25.923,141.636,60.306,184.95,102.193,40.277,38.951,63.244,83.277,68.262,131.751,6.194,59.834-15.685,123.3-63.271,183.551-47.851,60.583-119.453,114.983-207.064,157.324l-.265-.327.265.327c-123.533,59.7-220.977,99.128-306.661,124.084C-4997.89,4623.714-5069.919,4634.984-5140.887,4634.984Zm-89.333-901.063c-63.319,0-125.841,9.052-195.213,28.16-76.2,20.987-163.2,55.335-265.986,105.009-151.715,73.318-237.834,171.425-242.5,276.246-4.712,105.948,73.756,209.718,220.949,292.2,121.63,68.155,212.491,112.334,294.61,143.248,90.292,33.991,169.3,51.408,248.654,54.813,80.306,3.446,160.572-7.432,252.6-34.235,85.621-24.937,183.008-64.343,306.484-124.016,87.48-42.276,158.97-96.591,206.741-157.07,47.476-60.107,69.305-123.418,63.128-183.089-5-48.316-27.9-92.5-68.047-131.332-43.209-41.785-105.3-76.09-184.558-101.962-60.83-19.858-117.351-39.1-167.218-56.082-92.92-31.639-173.168-58.962-245.947-78.456-78.483-21.022-143.982-31.571-206.128-33.2Q-5221.443,3733.922-5230.22,3733.921Z" transform="translate(5935.115 -3733.149)" fill="url(#linear-gradient-47)"/>
        </g>
      </g>
      <g id="Group_68261" data-name="Group 68261" transform="translate(0 2.954)">
        <g id="Group_68260" data-name="Group 68260">
          <path id="Path_41312" data-name="Path 41312" d="M-5139.6,4638.122c-3.711,0-7.411-.031-11.124-.092-79.593-1.314-159.454-16.722-251.33-48.491-83.5-28.872-176.317-70.83-300.955-136.045-151.055-79.04-234.245-181.357-234.245-288.1,0-105.619,81.865-206.621,230.515-284.4,100.577-52.626,186.067-89.445,261.355-112.557,74.927-23,142.225-33.725,211.792-33.742h.168c62.238,0,128.208,8.862,207.61,27.89,73.642,17.646,155.075,42.951,249.367,72.251,50.589,15.719,107.928,33.536,169.6,51.854,80.465,23.9,144.155,56.739,189.3,97.6,41.982,38,66.924,81.856,74.133,130.345,8.909,59.922-10.1,124.252-54.985,186.033-45.129,62.123-114.293,118.668-200.015,163.521l-.28-.319.28.319c-120.807,63.213-216.442,105.382-300.966,132.709C-4986.116,4624.934-5062.8,4638.122-5139.6,4638.122Zm-93.824-902.662h-.168c-69.435.018-136.616,10.722-211.422,33.688-75.22,23.092-160.647,59.884-261.164,112.479-148.367,77.632-230.076,178.408-230.076,283.763,0,106.483,83.034,208.575,233.806,287.466,124.588,65.19,217.359,107.128,300.8,135.981,91.749,31.724,171.488,47.111,250.943,48.423,80.414,1.318,160.148-11.725,250.932-41.076,84.462-27.307,180.041-69.453,300.792-132.636,85.594-44.787,154.65-101.241,199.7-163.259,44.777-61.639,63.749-125.807,54.863-185.568-7.186-48.335-32.049-92.051-73.9-129.933-45.036-40.766-108.59-73.53-188.9-97.384-61.676-18.32-119.018-36.138-169.61-51.859-94.272-29.293-175.688-54.592-249.291-72.229C-5105.413,3744.312-5171.3,3735.459-5233.428,3735.459Z" transform="translate(5937.258 -3734.688)" fill="url(#linear-gradient-48)"/>
        </g>
      </g>
    </g>
  </g>
</svg>
