<svg xmlns="http://www.w3.org/2000/svg" xmlns:xlink="http://www.w3.org/1999/xlink" viewBox="0 0 2601.23 200.47"><defs><style>.cls-1{stroke-miterlimit:10;stroke-width:0.75px;fill:url(#linear-gradient);stroke:url(#linear-gradient-2);}</style><linearGradient id="linear-gradient" x1="2364.99" y1="1871.43" x2="2365.97" y2="1871.43" gradientTransform="matrix(2600.48, 0, 0, -199.72, -6150087.82, 373856.81)" gradientUnits="userSpaceOnUse"><stop offset="0" stop-color="#04c9e4"/><stop offset="0.48" stop-color="#fa41a5"/><stop offset="1" stop-color="#f3bd2f"/></linearGradient><linearGradient id="linear-gradient-2" x1="0" y1="100.23" x2="2601.23" y2="100.23" gradientTransform="matrix(1, 0, 0, 1, 0, 0)" xlink:href="#linear-gradient"/></defs><g id="Layer_2" data-name="Layer 2"><g id="Layer_1-2" data-name="Layer 1"><path id="Path_44413" data-name="Path 44413" class="cls-1" d="M131.8,47.05v-1h-1v1Zm0,147v1h1v-1Zm-50.72,0h-1v1h1Zm0-147h1v-1h-1Zm-79.7,0h-1v1h1Zm0-40.88v-1h-1v1Zm210.27,0h1v-1h-1Zm0,40.88v1h1v-1Zm-80.85,0V194h2v-147Zm1,146H81.08v2H131.8Zm-49.72,1v-147h-2V194Zm-1-148H1.38v2h79.7Zm-78.7,1V6.17h-2V47.05Zm-1-39.88H211.65v-2H1.38Zm209.27-1V47.05h2V6.17Zm1,39.88H131.8v2h79.85Zm267.83,97,.9.44h0Zm-25.43,30.9-.6-.8Zm-40.19,18.87.26,1h0Zm-106.09,0-.27,1h0Zm-66-49.77-.9.44h0Zm0-85.45.9.44h0Zm66-49.76.26,1h0Zm106.09,0-.26,1h0Zm65.63,49.76-.9.44h0Zm-45.8,21.74-1,.3h0Zm-11.9-18.86-.7.71h0ZM334,44.18l.2,1h0ZM299.7,60.72l.7.71h0Zm-9.16,12.17.88.47h0Zm-4.93,13.53-1-.2h0Zm0,27.89-1,.19h0ZM290.54,128l-.89.47h0Zm23.37,21.88-.44.89h0Zm20.1,6.56-.2,1h0ZM421.79,140l-.7-.72h0Zm11.89-18.73-.95-.31h0Zm53.69-21.06q0,24-8.79,42.36l1.8.87q9-18.84,9-43.23Zm-8.79,42.36a82.28,82.28,0,0,1-25.13,30.53l1.2,1.6a84.29,84.29,0,0,0,25.73-31.26Zm-25.13,30.53q-16.36,12.31-39.85,18.7l.52,1.93q23.81-6.47,40.53-19Zm-39.85,18.7q-23.37,6.26-52.65,6.26v2q29.49,0,53.17-6.32ZM361,198.08q-29.29,0-52.93-6.26l-.51,1.94q23.94,6.31,53.44,6.32ZM308,191.82q-23.5-6.37-40-18.7l-1.2,1.6q16.85,12.59,40.67,19Zm-40-18.7a83,83,0,0,1-25.4-30.54l-1.8.88a85,85,0,0,0,26,31.26Zm-25.4-30.53q-8.91-18.36-8.93-42.36h-2q0,24.39,9.13,43.23Zm-8.93-42.36q0-24,8.93-42.22l-1.8-.87q-9.15,18.69-9.13,43.09ZM242.63,58A82.9,82.9,0,0,1,268,27.34l-1.2-1.6a84.93,84.93,0,0,0-26,31.4ZM268,27.34Q284.53,15,308,8.78l-.52-1.94q-23.81,6.33-40.67,18.9ZM308,8.77Q331.66,2.39,361,2.38v-2q-29.51,0-53.45,6.46ZM361,2.38q29.28,0,52.64,6.39l.53-1.93Q390.45.37,361,.38Zm52.65,6.4Q437.09,15,453.45,27.34l1.2-1.6q-16.72-12.57-40.54-18.9Zm39.85,18.56A82.26,82.26,0,0,1,478.58,58l1.8-.87a84.35,84.35,0,0,0-25.73-31.4ZM478.58,58q8.78,18.23,8.79,42.22h2q0-24.39-9-43.09ZM438.1,100.23A67.83,67.83,0,0,0,434.63,79l-1.9.63a65.62,65.62,0,0,1,3.37,20.6ZM434.63,79a45.42,45.42,0,0,0-12.15-19.29l-1.39,1.43a43.63,43.63,0,0,1,11.63,18.45ZM422.49,59.73Q413.8,51.2,398.88,46l-.67,1.88Q412.84,53,421.08,61.16ZM398.88,46q-15-5.28-37.94-5.25v2q22.74,0,37.27,5.13Zm-37.94-5.25A132.27,132.27,0,0,0,333.8,43.2l.42,1.95a131,131,0,0,1,26.72-2.43ZM333.82,43.2a81.39,81.39,0,0,0-20.35,6.64l.89,1.79a79.56,79.56,0,0,1,19.85-6.47Zm-20.35,6.64A55.67,55.67,0,0,0,299,60l1.41,1.42a53.54,53.54,0,0,1,14-9.8ZM299,60a49,49,0,0,0-9.35,12.43l1.77.92a47.48,47.48,0,0,1,9-11.92Zm-9.35,12.42a52.61,52.61,0,0,0-5,13.8l2,.41a50.41,50.41,0,0,1,4.83-13.27Zm-5,13.81a72.39,72.39,0,0,0-1.38,14h2a70,70,0,0,1,1.34-13.62Zm-1.38,14a75.09,75.09,0,0,0,1.38,14.27l2-.38a72.65,72.65,0,0,1-1.34-13.89Zm1.38,14.29a54.36,54.36,0,0,0,5,13.93l1.77-.93a52.32,52.32,0,0,1-4.83-13.41Zm5,13.93A49.56,49.56,0,0,0,299,140.73l1.4-1.43a47.53,47.53,0,0,1-9-11.78ZM299,140.73a56.74,56.74,0,0,0,14.47,10l.89-1.78a55,55,0,0,1-14-9.67Zm14.48,10a88.22,88.22,0,0,0,20.32,6.64l.42-2A86.38,86.38,0,0,1,314.35,149Zm20.34,6.64a138.61,138.61,0,0,0,27.12,2.35v-2a136.17,136.17,0,0,1-26.73-2.31Zm27.12,2.35q22.94,0,37.94-5.26l-.67-1.88q-14.55,5.12-37.27,5.14Zm37.94-5.26q14.91-5.24,23.61-13.76l-1.4-1.43q-8.28,8.14-22.88,13.31Zm23.6-13.76a45.63,45.63,0,0,0,12.15-19.14l-1.91-.61a43.54,43.54,0,0,1-11.64,18.32Zm12.14-19.14a68.59,68.59,0,0,0,3.47-21.36h-2A66.74,66.74,0,0,1,432.72,121ZM713,194l-1,.09.08.91H713Zm-7.39-26.8-.88.46h0Zm-15.17-20-.68.74h0Zm-20.51-13.81-.43.9h0Zm-23.38-8.61-.26,1h0Zm-24.06-4.51-.12,1h0ZM585.3,119v-1h-1v1Zm0,75.06v1h1v-1Zm-50.72,0h-1v1h1Zm0-187.85v-1h-1v1Zm50.72,0h1v-1h-1Zm0,72.46h-1v1h1Zm55.1-6.84-.3-1h0Zm21.74-9.16.47.88ZM680.73,49l-.7-.71ZM694.4,30.37l.89.46h0Zm6.84-24.2v-1h-.9l-.09.9Zm51.68,0,1,.09.1-1.09h-1.1Zm-6,26.93-.93-.36h0ZM735.56,54.7l-.82-.58h0ZM703.43,83.55l.5.87h0ZM685.93,92l.35.93h0ZM669.8,97.09l-.23-1,.07,2Zm19.82,4.78-.3.95h0Zm20.51,8.48-.47.88h0ZM729.4,123.2l-.64.77h0ZM764.68,194v1h1.08l-.09-1.08ZM714,193.93a71.85,71.85,0,0,0-7.49-27.17l-1.77.93A70,70,0,0,1,712,194.11Zm-7.49-27.17a71.92,71.92,0,0,0-15.39-20.24L689.76,148a69.68,69.68,0,0,1,15,19.68Zm-15.38-20.23a83.29,83.29,0,0,0-20.76-14l-.86,1.81A81.19,81.19,0,0,1,689.76,148Zm-20.76-14a131.06,131.06,0,0,0-23.56-8.68l-.51,1.94a129.33,129.33,0,0,1,23.2,8.54Zm-23.55-8.67a150,150,0,0,0-24.22-4.55l-.2,2a148.26,148.26,0,0,1,23.9,4.49Zm-24.21-4.54A197.23,197.23,0,0,0,600.33,118v2a195.48,195.48,0,0,1,22,1.36ZM600.33,118h-15v2h15Zm-16,1V194h2V119Zm1,74.06H534.58v2H585.3Zm-49.73,1V6.17h-2V194Zm-1-186.85H585.3v-2H534.58Zm49.73-1V78.63h2V6.17Zm1,73.46h10.39v-2H585.3Zm10.39,0A155,155,0,0,0,617.84,78l-.28-2a152.55,152.55,0,0,1-21.87,1.63ZM617.84,78a142.27,142.27,0,0,0,22.86-5.23l-.6-1.91A139.37,139.37,0,0,1,617.56,76Zm22.85-5.23a123.69,123.69,0,0,0,21.92-9.24l-1-1.76a121.23,121.23,0,0,1-21.57,9.09Zm21.92-9.24a82.13,82.13,0,0,0,18.82-13.84L680,48.25a80.31,80.31,0,0,1-18.37,13.5Zm18.82-13.84a74,74,0,0,0,13.85-18.84l-1.77-.92A72.14,72.14,0,0,1,680,48.25Zm13.86-18.85a68.33,68.33,0,0,0,6.94-24.55l-2-.2a66.39,66.39,0,0,1-6.73,23.84Zm5.94-23.65h51.68v-2H701.23Zm50.69-1.09a98.69,98.69,0,0,1-6,26.66l1.87.72a100.71,100.71,0,0,0,6.08-27.2Zm-6,26.67a92.17,92.17,0,0,1-11.22,21.37l1.62,1.16a93.46,93.46,0,0,0,11.47-21.83ZM734.74,54.12a89.28,89.28,0,0,1-14.87,16.37l1.3,1.52a90.81,90.81,0,0,0,15.2-16.73ZM719.87,70.49a123,123,0,0,1-17,12.2l1,1.72A124,124,0,0,0,721.16,72Zm-16.94,12.2a127.5,127.5,0,0,1-17.37,8.41l.73,1.86a129.11,129.11,0,0,0,17.64-8.54Zm-17.36,8.4a124.79,124.79,0,0,1-16,5l.46,2A128.21,128.21,0,0,0,686.28,93Zm-15.93,7a134.18,134.18,0,0,1,19.67,4.75l.61-1.9a135.4,135.4,0,0,0-20-4.82Zm19.69,4.76a116.68,116.68,0,0,1,20.33,8.4l.93-1.77a118.07,118.07,0,0,0-20.68-8.55Zm20.34,8.41A104.39,104.39,0,0,1,728.76,124l1.28-1.54a105.33,105.33,0,0,0-19.46-13ZM728.77,124a94,94,0,0,1,16.5,17.72l1.62-1.16A96.11,96.11,0,0,0,730,122.43Zm16.5,17.72a99.07,99.07,0,0,1,12.18,23.15l1.87-.7a100.37,100.37,0,0,0-12.43-23.61Zm12.18,23.15a109,109,0,0,1,6.23,29.26l2-.16a110.72,110.72,0,0,0-6.35-29.8ZM764.67,193H713v2h51.67Zm253.07-8.3.31.95.69-.22v-.73Zm-46.21,10.94-.14-1h0Zm-101.86-3.14-.27,1h0ZM804.32,61.81l-.9-.43h0Zm24.61-31.72.65.77h0ZM867.49,9l.31,1h0Zm97.07-.68-.32,1h0Zm36.5,20.37-.67.74h0Zm23.65,33.36-.92.38h0Zm8.47,58.24v1h1v-1Zm-185.11,0v-1h-1.31l.35,1.27Zm8.06,16.27-.8.6h0Zm39.24,20.64-.2,1h0Zm61.25,1.23.12,1h0Zm25-4.51.23,1h0Zm20.92-6.29-.34-.94h0Zm15.18-6.83h1v-1.76l-1.52.9Zm-35-57.7v1h1.1l-.11-1.1ZM978.5,68.79l-.91.41h0ZM967.56,55.25l.62-.78Zm-19.69-9.84-.31,1h0Zm-80.8,10.8-.6-.81h0Zm-13,13.53.85.54Zm-6,13.4-1-.22-.27,1.22h1.25Zm169.35,100.63a262.68,262.68,0,0,1-46,10.9l.28,2a265.76,265.76,0,0,0,46.38-11Zm-46,10.9a318.39,318.39,0,0,1-46.88,3.41v2a318.33,318.33,0,0,0,47.17-3.43Zm-46.88,3.41q-30.66,0-54.57-6.53l-.52,1.93q24.21,6.6,55.09,6.6Zm-54.56-6.53q-23.78-6.66-40-19.1L828.73,174q16.59,12.72,40.67,19.45Zm-40-19.1a82.29,82.29,0,0,1-24.73-30.4l-1.8.86A84,84,0,0,0,828.73,174Zm-24.73-30.4q-8.51-18-8.51-40.73h-2q0,23.16,8.71,41.59Zm-8.51-40.73a90.05,90.05,0,0,1,8.51-39.08l-1.8-.86a92.06,92.06,0,0,0-8.71,39.94Zm8.51-39.08a93.51,93.51,0,0,1,24.35-31.38l-1.29-1.53a95.37,95.37,0,0,0-24.86,32.05Zm24.35-31.38Q845.41,17.47,867.8,10l-.63-1.9q-22.73,7.58-38.89,21.24ZM867.8,10q22.38-7.6,50-7.61v-2q-27.9,0-50.64,7.71Zm50-7.61q25.43,0,46.44,6.93l.63-1.9q-21.37-7-47.07-7Zm46.45,6.93a99,99,0,0,1,36.14,20.16l1.33-1.49A101,101,0,0,0,964.86,7.4Zm36.15,20.17a89.93,89.93,0,0,1,23.39,33l1.84-.77A91.81,91.81,0,0,0,1001.72,28Zm23.39,33q8.39,19.6,8.4,45.27h2q0-26-8.56-46.06Zm8.4,45.27v12.58h2V107.75Zm1,11.58H848.07v2h185.12ZM847.11,120.6a48.72,48.72,0,0,0,8.23,16.6l1.6-1.21a46.64,46.64,0,0,1-7.9-15.93Zm8.24,16.61a48.57,48.57,0,0,0,15.77,12.85l.94-1.77A46.37,46.37,0,0,1,856.93,136Zm15.77,12.85a88.25,88.25,0,0,0,24.06,8.16l.4-2a86.32,86.32,0,0,1-23.52-8Zm24.06,8.16a173.88,173.88,0,0,0,34.1,2.89v-2q-19.62,0-33.71-2.85Zm34.1,2.89a227.3,227.3,0,0,0,27.47-1.64l-.25-2a223.07,223.07,0,0,1-27.22,1.63Zm27.48-1.65a248.75,248.75,0,0,0,25.11-4.53l-.46-1.94q-11.56,2.72-24.92,4.49Zm25.12-4.53a200.16,200.16,0,0,0,21-6.32l-.69-1.88A196.21,196.21,0,0,1,981.4,153Zm21-6.32a90.78,90.78,0,0,0,15.35-6.91l-1-1.72a89.29,89.29,0,0,1-15,6.75Zm13.84-7.77v43.88h2V140.84Zm-33-57.8a43.75,43.75,0,0,0-4.33-14.69l-1.8.87a41.55,41.55,0,0,1,4.14,14Zm-4.32-14.67a38.2,38.2,0,0,0-11.22-13.9L966.94,56A36.27,36.27,0,0,1,977.59,69.2Zm-11.22-13.9q-7.71-6.16-20-10l-.6,1.91q12.06,3.81,19.37,9.67Zm-20-10q-12.37-4-30.66-4v2q18.08,0,30,3.92Zm-30.66-4q-17.22,0-29.86,4.29l.65,1.9q12.24-4.17,29.21-4.19Zm-29.86,4.29A77.58,77.58,0,0,0,866.48,55.4L867.67,57a75.42,75.42,0,0,1,20.65-10.38Zm-21.2,10.68A54.38,54.38,0,0,0,853.24,69.2l1.69,1.08A52.05,52.05,0,0,1,867.68,57ZM853.24,69.2a43.6,43.6,0,0,0-6.15,13.72l2,.44a41.36,41.36,0,0,1,5.88-13.08Zm-5.17,14.94H982.74v-2H848.07ZM1258.23,194h-1v1h1Zm-1.78-124.28-1,.2h0Zm-6.7-14.63-.79.62h0Zm-13.53-9.43-.37.93h0Zm-44.16-.55.23,1h0Zm-22.56,7.39.38.92ZM1148,63.32l-.51-.86h0Zm-18,12.85-.65-.77-.35.3v.47ZM1130,194v1h1v-1Zm-50.73,0h-1v1h1Zm0-187.85v-1h-1v1Zm50.73,0h1v-1h-1Zm0,25.7h-1v1.72l1.5-.85Zm20.37-10.8.44.9h0Zm23-9.84-.34-.94ZM1261.92,6l-.3,1h0Zm25.43,13-.63.77h0Zm15.86,20.37-.91.41v0ZM1308.82,194v1h1v-1Zm-49.59,0V88.75h-2V194Zm0-105.27a94.64,94.64,0,0,0-1.8-19.21l-2,.41a92,92,0,0,1,1.76,18.8Zm-1.8-19.21a34.51,34.51,0,0,0-6.9-15.06L1249,55.75a32.35,32.35,0,0,1,6.49,14.19Zm-6.89-15a31.15,31.15,0,0,0-14-9.76l-.71,1.88a28.91,28.91,0,0,1,13.1,9.11Zm-14-9.75c-5.9-2.34-13.47-3.49-22.65-3.49v2c9,0,16.33,1.13,21.92,3.35Zm-22.65-3.49a91.76,91.76,0,0,0-22.12,2.9l.49,1.94a90.14,90.14,0,0,1,21.63-2.84Zm-22.11,2.9a153.75,153.75,0,0,0-22.71,7.43l.77,1.85a152,152,0,0,1,22.41-7.33Zm-22.71,7.43a165.31,165.31,0,0,0-21.6,10.87l1,1.71a163.15,163.15,0,0,1,21.34-10.73Zm-21.6,10.87a146.7,146.7,0,0,0-18.17,12.94l1.29,1.53a144.46,144.46,0,0,1,17.92-12.76ZM1129,76.17V194h2V76.17ZM1130,193h-50.72v2H1130Zm-49.73,1V6.17h-2V194Zm-1-186.85H1130v-2h-50.72Zm49.73-1v25.7h2V6.17Zm1.5,26.57Q1140,27.28,1150.8,22l-.88-1.8q-10.83,5.35-20.43,10.83ZM1150.81,22a203.81,203.81,0,0,1,22.86-9.79l-.68-1.88a203.31,203.31,0,0,0-23.08,9.89Zm22.86-9.79a181.35,181.35,0,0,1,25.7-7.07l-.39-2a182.4,182.4,0,0,0-26,7.15Zm25.7-7.07A145.77,145.77,0,0,1,1228,2.38v-2a148.14,148.14,0,0,0-29,2.76ZM1228,2.38q18.88,0,33.6,4.61l.6-1.91Q1247.15.37,1228,.38ZM1261.64,7a72.15,72.15,0,0,1,25.08,12.8l1.26-1.54a73.75,73.75,0,0,0-25.77-13.18Zm25.09,12.81a54,54,0,0,1,15.57,20l1.82-.82A56,56,0,0,0,1288,18.24Zm15.58,20a60.72,60.72,0,0,1,5.51,26.23h2a62.83,62.83,0,0,0-5.7-27.09Zm5.51,26.23V194h2v-128Zm1,127h-50.59v2h50.59Zm292.3-50,.9.44h0Zm-25.43,30.9-.6-.8Zm-40.19,18.87.26,1h0Zm-106.1,0-.26,1h0Zm-66-49.77-.9.44h0Zm0-85.45.9.44h0Zm66-49.76.26,1h0Zm106.1,0-.27,1h0Zm65.62,49.76-.9.44h0Zm-45.8,21.74-1,.3v0Zm-11.89-18.86-.71.71h0Zm-87.78-16.27.2,1h0Zm-34.31,16.54.7.71h0Zm-9.16,12.17.88.47h0Zm-4.93,13.53-1-.2h0Zm0,27.89-1,.19h0Zm4.93,13.67-.89.47h0Zm23.38,21.88-.45.89h0Zm20.09,6.56-.2,1h0Zm87.78-16.4-.7-.72h0Zm11.89-18.73-1-.31h0ZM1609,100.23q0,24-8.79,42.36l1.8.87q9-18.84,9-43.23Zm-8.79,42.36a82.37,82.37,0,0,1-25.13,30.53l1.2,1.6A84.21,84.21,0,0,0,1602,143.46Zm-25.13,30.53q-16.36,12.31-39.86,18.7l.53,1.93q23.81-6.47,40.53-19Zm-39.85,18.7q-23.37,6.26-52.65,6.26v2q29.49,0,53.17-6.32Zm-52.65,6.26q-29.29,0-52.93-6.26l-.51,1.94q23.92,6.31,53.44,6.32Zm-52.92-6.26q-23.51-6.37-40-18.7l-1.2,1.6q16.86,12.59,40.67,19Zm-40-18.7a83,83,0,0,1-25.4-30.54l-1.8.88a85.15,85.15,0,0,0,26,31.26Zm-25.4-30.53q-8.91-18.36-8.93-42.36h-2q0,24.39,9.13,43.23Zm-8.93-42.36q0-24,8.93-42.22l-1.8-.87q-9.13,18.69-9.13,43.09ZM1364.27,58a83,83,0,0,1,25.4-30.67l-1.2-1.6a84.93,84.93,0,0,0-26,31.4Zm25.4-30.67q16.5-12.3,40-18.56l-.51-1.94q-23.81,6.33-40.68,18.9Zm40-18.57q23.64-6.37,52.93-6.39v-2q-29.5,0-53.45,6.46Zm52.93-6.39q29.28,0,52.64,6.39l.53-1.93Q1512.09.37,1482.59.38Zm52.65,6.4q23.51,6.24,39.85,18.56l1.2-1.6q-16.72-12.57-40.54-18.9Zm39.85,18.56A82.42,82.42,0,0,1,1600.22,58l1.8-.87a84.19,84.19,0,0,0-25.73-31.4ZM1600.22,58q8.77,18.23,8.79,42.22h2q0-24.39-9-43.09Zm-40.48,42.22A67.83,67.83,0,0,0,1556.27,79l-1.9.63a65.62,65.62,0,0,1,3.37,20.6ZM1556.28,79a45.63,45.63,0,0,0-12.16-19.29l-1.39,1.43a43.74,43.74,0,0,1,11.64,18.45Zm-12.15-19.29q-8.69-8.53-23.61-13.76l-.67,1.88q14.63,5.15,22.88,13.31ZM1520.52,46q-15-5.28-37.93-5.25v2q22.73,0,37.26,5.13Zm-37.93-5.25a132.2,132.2,0,0,0-27.14,2.48l.41,1.95a131,131,0,0,1,26.73-2.43Zm-27.13,2.48a81.39,81.39,0,0,0-20.35,6.64l.89,1.79a79.7,79.7,0,0,1,19.85-6.47Zm-20.35,6.64A55.67,55.67,0,0,0,1420.63,60l1.41,1.42a53.54,53.54,0,0,1,14-9.8ZM1420.64,60a49,49,0,0,0-9.35,12.43l1.77.92a47.29,47.29,0,0,1,9-11.92Zm-9.35,12.42a52.23,52.23,0,0,0-5,13.8l2,.41a50.41,50.41,0,0,1,4.83-13.27Zm-5,13.81a73.18,73.18,0,0,0-1.38,14h2a70.83,70.83,0,0,1,1.35-13.62Zm-1.38,14a75.92,75.92,0,0,0,1.38,14.27l2-.38a73.47,73.47,0,0,1-1.35-13.89Zm1.39,14.29a54.33,54.33,0,0,0,5,13.93l1.77-.93a52.84,52.84,0,0,1-4.83-13.41Zm5,13.93a49.56,49.56,0,0,0,9.35,12.28l1.4-1.43a47.53,47.53,0,0,1-9-11.78Zm9.35,12.28a56.24,56.24,0,0,0,14.47,10L1436,149a54.91,54.91,0,0,1-14-9.67Zm14.48,10a88.15,88.15,0,0,0,20.33,6.64l.41-2A86.38,86.38,0,0,1,1436,149Zm20.34,6.64a138.65,138.65,0,0,0,27.13,2.35v-2a136.27,136.27,0,0,1-26.74-2.31Zm27.13,2.35q22.92,0,37.93-5.26l-.67-1.88q-14.55,5.12-37.26,5.14Zm37.93-5.26q14.91-5.24,23.61-13.76l-1.4-1.43q-8.28,8.14-22.88,13.31Zm23.6-13.76a45.44,45.44,0,0,0,12.15-19.14l-1.9-.61a43.7,43.7,0,0,1-11.64,18.32Zm12.15-19.14a68.59,68.59,0,0,0,3.47-21.36h-2a66.74,66.74,0,0,1-3.37,20.75ZM1706.94,6.17h1v-1h-1Zm0,20.64h-1v1.82l1.54-1Zm14.49-8.75-.49-.87h0Zm17.09-8.2-.36-.93h0Zm19.83-6,.21,1h0Zm44,.14-.27,1h0ZM1818,10.54l-.53.85h0Zm11.35,9-.74.67h0Zm8.06,9.84-.82.57.55.8.82-.53Zm57.7-26,.19,1h0Zm51.54,2.74-.33.94h0ZM1984.07,39l-.92.4h0Zm5.06,155v1h1v-1Zm-50.72,0h-1v1h1ZM1936.08,57.3l-.92.39Zm-6.29-8.89-.66.75h0Zm-9.16-5-.3,1h0Zm-73.41,23-.58-.81-.52.36.11.63Zm.54,5.47-1,0v0ZM1848,194v1h1v-1Zm-50.73,0h-1v1h1ZM1795,56.48l-.92.4h0Zm-6.43-8.61-.63.77h0Zm-9.29-4.65-.28,1h0Zm-26.12.55-.25-1h0Zm-15.86,5.74-.41-.91h0Zm-15.72,8.75-.54-.84h0ZM1706.94,69.2l-.64-.77-.36.3v.47Zm0,124.82v1h1v-1Zm-50.72,0h-1v1h1Zm0-187.85v-1h-1v1Zm49.72,0V26.81h2V6.17Zm1.54,21.49q6.68-4.23,14.46-8.73l-1-1.73q-7.8,4.52-14.52,8.77Zm14.45-8.73a140.57,140.57,0,0,1,17-8.14l-.75-1.86a144.6,144.6,0,0,0-17.21,8.26Zm17-8.14a129.65,129.65,0,0,1,19.67-6l-.43-1.95a131,131,0,0,0-20,6.06Zm19.68-6a101.23,101.23,0,0,1,22.75-2.44v-2a103.43,103.43,0,0,0-23.2,2.49Zm22.75-2.44a75.93,75.93,0,0,1,20.78,2.56l.55-1.92A77.91,77.91,0,0,0,1781.32.38ZM1802.11,5a57.67,57.67,0,0,1,15.32,6.44l1.06-1.69A59.05,59.05,0,0,0,1802.63,3Zm15.34,6.45a49,49,0,0,1,11.12,8.84l1.47-1.35a50.73,50.73,0,0,0-11.57-9.21Zm11.13,8.85a86.26,86.26,0,0,1,8,9.73l1.64-1.14a85.59,85.59,0,0,0-8.16-10Zm9.34,10Q1847.59,24,1857,18.8l-1-1.75q-9.46,5.22-19.2,11.52ZM1857,18.8A156,156,0,0,1,1875.88,10l-.72-1.86A156.88,156.88,0,0,0,1856,17.05ZM1875.88,10a113.45,113.45,0,0,1,19.38-5.55l-.38-2a115.38,115.38,0,0,0-19.72,5.66Zm19.39-5.56a102.3,102.3,0,0,1,20.58-2v-2a104.75,104.75,0,0,0-21,2.07Zm20.58-2a91.18,91.18,0,0,1,30.43,4.73l.66-1.88Q1933.22.37,1915.85.38Zm30.43,4.73A68,68,0,0,1,1969.05,20l1.33-1.5a70,70,0,0,0-23.44-13.32ZM1969.05,20a54.66,54.66,0,0,1,14.1,19.34l1.84-.8a56.73,56.73,0,0,0-14.61-20Zm14.11,19.35a56.89,56.89,0,0,1,5,23.65h2A58.81,58.81,0,0,0,1985,38.57Zm5,23.65V194h2V63Zm1,130h-50.72v2h50.72Zm-49.72,1V70.29h-2V194Zm0-123.73A33.9,33.9,0,0,0,1937,56.91l-1.84.78a32.17,32.17,0,0,1,2.25,12.6ZM1937,56.91a24.87,24.87,0,0,0-6.55-9.25l-1.31,1.51a23.08,23.08,0,0,1,6,8.52Zm-6.54-9.24a25.53,25.53,0,0,0-9.53-5.27l-.59,1.91a23.66,23.66,0,0,1,8.79,4.85Zm-9.53-5.27a38.1,38.1,0,0,0-11.37-1.68v2a36.07,36.07,0,0,1,10.77,1.59Zm-11.37-1.68c-18.52,0-39.51,8.32-62.92,24.79l1.15,1.63c23.25-16.35,43.83-24.42,61.77-24.42ZM1846.23,66.5a41.8,41.8,0,0,1,.53,5.34l2-.09a44.07,44.07,0,0,0-.56-5.6Zm.54,5.38q.27,3.11.27,6.2h2c0-2.12-.1-4.25-.28-6.37Zm.27,6.2V194h2V78.08ZM1848,193h-50.73v2H1848Zm-49.73,1V69.2h-2V194Zm0-124.82a32.29,32.29,0,0,0-2.41-13.13l-1.82.82a30.38,30.38,0,0,1,2.23,12.31Zm-2.4-13.12a23.22,23.22,0,0,0-6.72-9l-1.25,1.56a21.21,21.21,0,0,1,6.13,8.23Zm-6.71-9a24.75,24.75,0,0,0-9.69-4.85l-.49,1.94a22.82,22.82,0,0,1,8.91,4.45Zm-9.66-4.84a41.05,41.05,0,0,0-11.35-1.54v2a39,39,0,0,1,10.8,1.46Zm-11.35-1.54a61.65,61.65,0,0,0-15.29,2.08l.5,1.93a60,60,0,0,1,14.79-2ZM1752.9,42.8a98.84,98.84,0,0,0-16,5.8l.83,1.82a98.11,98.11,0,0,1,15.7-5.69Zm-16,5.8A130.27,130.27,0,0,0,1721,57.42l1.09,1.68a127.11,127.11,0,0,1,15.6-8.69ZM1721,57.42a159.67,159.67,0,0,0-14.72,11l1.29,1.53a156.93,156.93,0,0,1,14.53-10.87ZM1705.94,69.2V194h2V69.2Zm1,123.82h-50.72v2h50.72Zm-49.72,1V6.17h-2V194Zm-1-186.85h50.72v-2h-50.72Zm391,186.85h-1v1h1Zm0-187.85v-1h-1v1Zm50.72,0h1v-1h-1ZM2098,194v1h1v-1Zm-49.72,0V6.17h-2V194Zm-1-186.85H2098v-2h-50.72Zm49.72-1V194h2V6.17ZM2098,193h-50.72v2H2098Zm265.92-11.85.38.92.62-.25v-.67Zm-40.47,13-.22-1h0Zm-22.56,3.69-.1-1h0Zm-78.2-4.92-.25,1h0Zm-41.57-18.46-.58.81h0ZM2154,143.57l-.88.46h0ZM2154,57l.89.46h0Zm27.07-30.9.58.82h0Zm41.57-18.59-.25-1h0Zm78.2-4.93-.11,1h0Zm22.56,3.7-.23,1h0Zm40.47,13h1v-.66l-.62-.26Zm0,45.67-.48.88,1.48.8V65Zm-16.41-8.34-.44.89h0Zm-19-7.52-.32.95h0Zm-22.84-5.47-.17,1h0Zm-67.81,2.73-.3-1h0Zm-38.42,32,.94.34h0Zm-2.18,36.77-1,.22h0Zm5.46,13.81-.86.51h0Zm46.63,27.62-.19,1h0Zm56.32.27.16,1h0Zm41.84-12.71.43.9h0Zm16.41-8.62h1v-1.7l-1.49.83Zm-.39,44.75q-9.81,4.08-19.75,7.35l.62,1.9q10-3.28,19.9-7.41Zm-19.75,7.35a203.12,203.12,0,0,1-20.55,5.58l.43,1.95a203.54,203.54,0,0,0,20.74-5.63Zm-20.56,5.58a181.07,181.07,0,0,1-22.43,3.67l.2,2a183.23,183.23,0,0,0,22.68-3.71Zm-22.44,3.67a240.66,240.66,0,0,1-25.18,1.23v2a241.94,241.94,0,0,0,25.39-1.24Zm-25.18,1.23a212.89,212.89,0,0,1-52.67-6.12l-.49,1.94a215.36,215.36,0,0,0,53.16,6.18ZM2222.89,192q-23.91-6.12-41.23-18.31l-1.15,1.64q17.67,12.42,41.89,18.61Zm-41.22-18.3a86.78,86.78,0,0,1-26.77-30.55l-1.77.93a88.86,88.86,0,0,0,27.37,31.24Zm-26.77-30.55q-9.58-18.35-9.59-42.88h-2q0,24.94,9.82,43.8Zm-9.59-42.88q0-24.54,9.59-42.74l-1.77-.93q-9.84,18.72-9.82,43.67Zm9.59-42.74A85.42,85.42,0,0,1,2181.66,27l-1.16-1.64a87.54,87.54,0,0,0-27.37,31.26Zm26.76-30.55Q2199,14.63,2222.89,8.5l-.49-1.93q-24.21,6.18-41.9,18.74ZM2222.89,8.5a214.32,214.32,0,0,1,52.67-6.12v-2a215.84,215.84,0,0,0-53.16,6.19Zm52.67-6.12a246.23,246.23,0,0,1,25.18,1.23l.21-2A244.68,244.68,0,0,0,2275.56.38Zm25.19,1.23a184.9,184.9,0,0,1,22.43,3.67l.45-1.95A187.06,187.06,0,0,0,2301,1.62Zm22.44,3.67a208.52,208.52,0,0,1,20.55,5.58l.62-1.9a208.85,208.85,0,0,0-20.74-5.63Zm20.55,5.58q9.95,3.27,19.75,7.36l.77-1.85q-9.89-4.11-19.9-7.41Zm19.14,6.43V65h2V19.29Zm1.47,44.79q-7.82-4.26-16.45-8.37l-.86,1.81q8.6,4.09,16.36,8.32Zm-16.44-8.36a138.26,138.26,0,0,0-19.14-7.58l-.61,1.91A135.55,135.55,0,0,1,2347,57.51Zm-19.13-7.57a155,155,0,0,0-23-5.51l-.33,2a152.14,152.14,0,0,1,22.68,5.43Zm-23-5.51a164.4,164.4,0,0,0-28.2-2.2v2a163.35,163.35,0,0,1,27.85,2.17Zm-28.2-2.2q-24,0-40.09,5l.6,1.91q15.66-4.86,39.49-4.88Zm-40.09,5q-15.86,5-25.51,13.32l1.31,1.51q9.24-8,24.8-12.92ZM2212,58.73A46,46,0,0,0,2198.46,78l1.88.67a44.16,44.16,0,0,1,13-18.45ZM2198.46,78a64.58,64.58,0,0,0-3.89,22.22h2a62.5,62.5,0,0,1,3.77-21.53Zm-3.89,22.22a69.23,69.23,0,0,0,1.67,15.12l2-.43a67.14,67.14,0,0,1-1.62-14.69Zm1.67,15.12a49.67,49.67,0,0,0,5.58,14.1l1.73-1a47.39,47.39,0,0,1-5.36-13.53Zm5.59,14.1A51,51,0,0,0,2212,141.58l1.33-1.49a49.8,49.8,0,0,1-9.79-11.66ZM2212,141.58a57.69,57.69,0,0,0,15.58,9.61l.79-1.84a55.77,55.77,0,0,1-15-9.26Zm15.58,9.61a102.46,102.46,0,0,0,21.54,6.35l.37-2a100.86,100.86,0,0,1-21.12-6.23Zm21.55,6.35a162.7,162.7,0,0,0,28.48,2.21v-2a160.63,160.63,0,0,1-28.13-2.18Zm28.48,2.21a184.51,184.51,0,0,0,28.18-1.93l-.31-2a181.82,181.82,0,0,1-27.87,1.91Zm28.19-1.93a163.24,163.24,0,0,0,23-5.37l-.61-1.9a162,162,0,0,1-22.69,5.3Zm23-5.37A147.53,147.53,0,0,0,2347.9,145l-.86-1.81a145.72,145.72,0,0,1-18.88,7.34Zm19.14-7.44q8.64-4.24,16.46-8.63l-1-1.75q-7.77,4.37-16.36,8.59Zm15-9.51v45.67h2V135.5Zm221.39-76.42-.44.9,1.44.7v-1.6Zm-33.91-12-.26,1h0Zm-24.06-4.92-.16,1h0Zm-45.39-1.37-.09-1h0Zm-13,1.78-.2-1h0Zm-8.34,2.59.41.91h0ZM2452.74,51l-.94-.34v.08Zm3.69,10-.6.8h0Zm11.22,5.47-.33,1h0ZM2484.19,71l-.23,1h0Zm20,4.38-.22,1h0ZM2526,80.27l-.23,1h0Zm21.88,6.15-.32,1h0Zm20.1,8.34-.46.89h0Zm27.07,67.4-.9-.44Zm-12.85,16.41-.64-.77h0Zm-18.46,10.8.35.94h0Zm-22.15,6.15-.19-1h0Zm-23.38,2.88-.06-1h0Zm-74.1-4,.19-1h0Zm-41.84-11.35h-1v.69l.65.25Zm0-44.84.49-.88-1.49-.82v1.7ZM2445,154.51l-.24,1h0Zm77.66,4.24.16,1h0Zm16-4.38.41.91h0Zm5.74-19.69-.64.77h0Zm-11.21-5.87-.34.93h0Zm-16.54-4.65-.23,1h0Zm-20.1-4.24-.2,1h0Zm-43.61-10.39-.31,1h0Zm-20-7.8-.43.91h0Zm-16.54-10.52-.66.75h0Zm-11.22-14.08-.89.45h0Zm12-55.38.64.77h0Zm17.22-10.39-.37-.92h0Zm86-8.88-.1,1h0Zm22.83,3.14-.18,1h0Zm21.6,4.51-.24,1h0Zm19.42,5.47h1v-.73l-.7-.22Zm.43,42.58q-5.38-2.62-14.16-5.92l-.71,1.88q8.73,3.27,14,5.84Zm-14.16-5.92a204.06,204.06,0,0,0-19.93-6.18l-.5,1.94a193.81,193.81,0,0,1,19.72,6.12Zm-19.92-6.18a209.74,209.74,0,0,0-24.18-4.94l-.29,2A210,210,0,0,1,2550.1,48Zm-24.17-4.94a171.89,171.89,0,0,0-26.81-2.07v2a170.45,170.45,0,0,1,26.5,2Zm-26.81-2.07q-11,0-18.82.69l.17,2q7.74-.68,18.65-.68Zm-18.82.69a120.25,120.25,0,0,0-13.1,1.8l.4,2A121.54,121.54,0,0,1,2481,41.75Zm-13.11,1.8a39.37,39.37,0,0,0-8.56,2.67L2460,46a37.05,37.05,0,0,1,8.11-2.53Zm-8.55,2.66a19.32,19.32,0,0,0-4.91,3.05l1.36,1.47A17.3,17.3,0,0,1,2460,46Zm-4.91,3.05a9,9,0,0,0-2.45,3.4l1.88.68a7,7,0,0,1,1.93-2.61Zm-2.47,3.48a11.78,11.78,0,0,0-.45,3h2a9.08,9.08,0,0,1,.38-2.47Zm-.45,3c0,3.12,1.59,5.8,4.5,8L2457,60.2c-2.56-2-3.71-4.11-3.71-6.45Zm4.51,8a43.85,43.85,0,0,0,11.48,5.61l.65-1.89A41.72,41.72,0,0,1,2457,60.19Zm11.49,5.61Q2474.5,69.75,2484,72l.45-2Q2475,67.82,2468,65.51ZM2484,72l19.95,4.37.43-1.95q-10.52-2.33-20-4.37Zm20,4.38q10.64,2.17,21.84,4.91l.47-1.94q-11.22-2.74-21.91-4.93Zm21.85,4.91q11.29,2.6,21.78,6.13l.64-1.9q-10.83-3.63-22-6.17Zm21.78,6.13a148,148,0,0,1,20,8.28l.91-1.78a150.76,150.76,0,0,0-20.23-8.4Zm20,8.29a73.76,73.76,0,0,1,16.33,10.79l1.32-1.5a75.55,75.55,0,0,0-16.76-11.08Zm16.33,10.79a46.88,46.88,0,0,1,11,14.19l1.79-.9A49.12,49.12,0,0,0,2585.2,105Zm11,14.19a40.42,40.42,0,0,1,4,18.28h2a42.44,42.44,0,0,0-4.2-19.18Zm4,18.28q0,13.37-4.68,22.8l1.79.89c3.28-6.64,4.89-14.55,4.89-23.69Zm-4.68,22.8a48.4,48.4,0,0,1-12.59,16.08l1.27,1.54A50.32,50.32,0,0,0,2596,162.61Zm-12.6,16.09a63.72,63.72,0,0,1-18.17,10.63l.72,1.86a65.54,65.54,0,0,0,18.74-11Zm-18.16,10.63a131.06,131.06,0,0,1-22,6.1l.38,2a132.75,132.75,0,0,0,22.31-6.2Zm-22,6.1a178.29,178.29,0,0,1-23.25,2.86l.12,2a178.83,178.83,0,0,0,23.51-2.88Zm-23.25,2.86q-11.73.67-22.36.68v2q10.7,0,22.48-.69Zm-22.36.68a267.88,267.88,0,0,1-51.49-4.63l-.38,2a270.23,270.23,0,0,0,51.87,4.67Zm-51.49-4.63a252.31,252.31,0,0,1-41.67-11.3l-.71,1.87a254.34,254.34,0,0,0,42,11.39Zm-41-10.37V138.24h-2v44.84Zm-1.48-44a172.77,172.77,0,0,0,42.9,16.37l.48-1.94a170.55,170.55,0,0,1-42.41-16.18Zm42.9,16.37a216.48,216.48,0,0,0,51.65,5.91v-2a214.52,214.52,0,0,1-51.17-5.85Zm51.65,5.91a169.12,169.12,0,0,0,26.41-1.66l-.32-2a168.69,168.69,0,0,1-26.09,1.63Zm26.42-1.66a68.77,68.77,0,0,0,16.23-4.45l-.82-1.82q-5.58,2.52-15.75,4.3Zm16.25-4.46c3.89-1.85,6.69-3.91,8.2-6.23l-1.67-1.09c-1.22,1.87-3.62,3.73-7.39,5.52Zm8.2-6.23a12.15,12.15,0,0,0,2.22-6.56h-2a10.15,10.15,0,0,1-1.89,5.47Zm2.22-6.56a10.77,10.77,0,0,0-4.48-8.58l-1.25,1.56c2.54,2,3.73,4.36,3.73,7Zm-4.47-8.56a36.78,36.78,0,0,0-11.52-6.06l-.65,1.89a35.34,35.34,0,0,1,10.89,5.7Zm-11.5-6a128.63,128.63,0,0,0-16.68-4.69l-.42,1.95a127.64,127.64,0,0,1,16.41,4.61Zm-16.66-4.69q-9.46-2.19-20.14-4.24l-.38,2q10.65,2.05,20.06,4.23Zm-20.12-4.24q-10.53-2.19-21.73-4.65l-.43,2q11.22,2.46,21.75,4.65ZM2475,114.29q-11.17-2.45-21.8-5.72l-.58,1.91q10.69,3.3,21.95,5.77Zm-21.78-5.71a175.84,175.84,0,0,1-19.85-7.75l-.84,1.81a176,176,0,0,0,20.07,7.84Zm-19.84-7.75A75,75,0,0,1,2417,90.44L2415.73,92a77.32,77.32,0,0,0,16.76,10.67ZM2417,90.45a46,46,0,0,1-11-13.78l-1.77.91A48,48,0,0,0,2415.72,92Zm-11-13.78a39.29,39.29,0,0,1-4-18.14h-2a41.44,41.44,0,0,0,4.21,19Zm-4-18.14q0-12.27,4.28-21l-1.8-.87q-4.5,9.27-4.48,21.9Zm4.28-21a45.53,45.53,0,0,1,11.5-15L2416.55,21a47.45,47.45,0,0,0-12,15.64Zm11.51-15a61.9,61.9,0,0,1,17-10.22l-.76-1.85A64.31,64.31,0,0,0,2416.55,21Zm17-10.22a117.51,117.51,0,0,1,20.47-6.1l-.4-2a118.69,118.69,0,0,0-20.82,6.21Zm20.47-6.1a175,175,0,0,1,21.75-3l-.15-2a177.08,177.08,0,0,0-22,3Zm21.75-3q11-.81,21-.82v-2q-10,0-21.13.83Zm21-.82q10.89,0,22.32,1.09l.19-2Q2509,.39,2498,.38Zm22.32,1.09q11.58,1.11,22.75,3.14l.36-2q-11.25-2.05-22.92-3.16Zm22.76,3.14q11.18,1.91,21.53,4.49l.48-1.94q-10.43-2.61-21.67-4.52Zm21.53,4.49q10.5,2.6,19.35,5.45l.61-1.9q-8.93-2.88-19.48-5.49Zm18.66,4.5V59.08h2V15.6Z"/></g></g></svg>