<svg xmlns="http://www.w3.org/2000/svg" xmlns:xlink="http://www.w3.org/1999/xlink" width="180" height="117.089" viewBox="0 0 180 117.089">
  <defs>
    <linearGradient id="linear-gradient" x1="-0.029" y1="0.653" x2="1.039" y2="0.653" gradientUnits="objectBoundingBox">
      <stop offset="0" stop-color="#df2dba"/>
      <stop offset="0.5" stop-color="#ffa900"/>
      <stop offset="1" stop-color="#39fffc"/>
    </linearGradient>
    <linearGradient id="linear-gradient-2" x1="-0.036" y1="0.576" x2="1.041" y2="0.576" xlink:href="#linear-gradient"/>
    <linearGradient id="linear-gradient-3" x1="-0.041" y1="0.501" x2="1.046" y2="0.501" xlink:href="#linear-gradient"/>
    <linearGradient id="linear-gradient-4" x1="-0.024" y1="0.65" x2="1.034" y2="0.65" xlink:href="#linear-gradient"/>
    <linearGradient id="linear-gradient-5" x1="-0.031" y1="0.573" x2="1.036" y2="0.573" xlink:href="#linear-gradient"/>
    <linearGradient id="linear-gradient-6" x1="-0.036" y1="0.497" x2="1.041" y2="0.497" xlink:href="#linear-gradient"/>
    <linearGradient id="linear-gradient-7" x1="-0.02" y1="0.647" x2="1.03" y2="0.647" xlink:href="#linear-gradient"/>
    <linearGradient id="linear-gradient-8" x1="-0.026" y1="0.569" x2="1.032" y2="0.569" xlink:href="#linear-gradient"/>
    <linearGradient id="linear-gradient-9" x1="-0.03" y1="0.493" x2="1.036" y2="0.493" xlink:href="#linear-gradient"/>
    <linearGradient id="linear-gradient-10" x1="-0.016" y1="0.646" x2="1.025" y2="0.646" xlink:href="#linear-gradient"/>
    <linearGradient id="linear-gradient-11" x1="-0.022" y1="0.565" x2="1.027" y2="0.565" xlink:href="#linear-gradient"/>
    <linearGradient id="linear-gradient-12" x1="-0.026" y1="0.488" x2="1.031" y2="0.488" xlink:href="#linear-gradient"/>
    <linearGradient id="linear-gradient-13" x1="-0.013" y1="0.647" x2="1.022" y2="0.647" xlink:href="#linear-gradient"/>
    <linearGradient id="linear-gradient-14" x1="-0.018" y1="0.564" x2="1.023" y2="0.564" xlink:href="#linear-gradient"/>
    <linearGradient id="linear-gradient-15" x1="-0.021" y1="0.483" x2="1.027" y2="0.483" xlink:href="#linear-gradient"/>
    <linearGradient id="linear-gradient-16" x1="-0.009" y1="0.648" x2="1.018" y2="0.648" xlink:href="#linear-gradient"/>
    <linearGradient id="linear-gradient-17" x1="-0.014" y1="0.565" x2="1.02" y2="0.565" xlink:href="#linear-gradient"/>
    <linearGradient id="linear-gradient-18" x1="-0.018" y1="0.482" x2="1.023" y2="0.482" xlink:href="#linear-gradient"/>
    <linearGradient id="linear-gradient-19" x1="-0.007" y1="0.649" x2="1.015" y2="0.649" xlink:href="#linear-gradient"/>
    <linearGradient id="linear-gradient-20" x1="-0.011" y1="0.566" x2="1.016" y2="0.566" xlink:href="#linear-gradient"/>
    <linearGradient id="linear-gradient-21" x1="-0.014" y1="0.483" x2="1.019" y2="0.483" xlink:href="#linear-gradient"/>
    <linearGradient id="linear-gradient-22" x1="-0.004" y1="0.65" x2="1.012" y2="0.65" xlink:href="#linear-gradient"/>
    <linearGradient id="linear-gradient-23" x1="-0.009" y1="0.567" x2="1.013" y2="0.567" xlink:href="#linear-gradient"/>
    <linearGradient id="linear-gradient-24" x1="-0.011" y1="0.484" x2="1.016" y2="0.484" xlink:href="#linear-gradient"/>
    <linearGradient id="linear-gradient-25" x1="-0.002" y1="0.651" x2="1.01" y2="0.651" xlink:href="#linear-gradient"/>
    <linearGradient id="linear-gradient-26" x1="-0.006" y1="0.569" x2="1.01" y2="0.569" xlink:href="#linear-gradient"/>
    <linearGradient id="linear-gradient-27" x1="-0.008" y1="0.486" x2="1.013" y2="0.486" xlink:href="#linear-gradient"/>
    <linearGradient id="linear-gradient-28" x1="-0.001" y1="0.653" x2="1.007" y2="0.653" xlink:href="#linear-gradient"/>
    <linearGradient id="linear-gradient-29" x1="-0.004" y1="0.57" x2="1.008" y2="0.57" xlink:href="#linear-gradient"/>
    <linearGradient id="linear-gradient-30" x1="-0.006" y1="0.488" x2="1.01" y2="0.488" xlink:href="#linear-gradient"/>
    <linearGradient id="linear-gradient-31" x1="0" y1="0.654" x2="1.006" y2="0.654" xlink:href="#linear-gradient"/>
    <linearGradient id="linear-gradient-32" x1="-0.003" y1="0.572" x2="1.005" y2="0.572" xlink:href="#linear-gradient"/>
    <linearGradient id="linear-gradient-33" x1="-0.004" y1="0.49" x2="1.008" y2="0.49" xlink:href="#linear-gradient"/>
    <linearGradient id="linear-gradient-34" x1="0.001" y1="0.656" x2="1.004" y2="0.656" xlink:href="#linear-gradient"/>
    <linearGradient id="linear-gradient-35" x1="-0.001" y1="0.574" x2="1.004" y2="0.574" xlink:href="#linear-gradient"/>
    <linearGradient id="linear-gradient-36" x1="-0.003" y1="0.492" x2="1.005" y2="0.492" xlink:href="#linear-gradient"/>
    <linearGradient id="linear-gradient-37" x1="0.002" y1="0.657" x2="1.003" y2="0.657" xlink:href="#linear-gradient"/>
    <linearGradient id="linear-gradient-38" x1="-0.001" y1="0.575" x2="1.002" y2="0.575" xlink:href="#linear-gradient"/>
    <linearGradient id="linear-gradient-39" x1="-0.001" y1="0.494" x2="1.004" y2="0.494" xlink:href="#linear-gradient"/>
    <linearGradient id="linear-gradient-40" x1="0.002" y1="0.659" x2="1.002" y2="0.659" xlink:href="#linear-gradient"/>
    <linearGradient id="linear-gradient-41" x1="0" y1="0.577" x2="1.001" y2="0.577" xlink:href="#linear-gradient"/>
    <linearGradient id="linear-gradient-42" x1="-0.001" y1="0.496" x2="1.002" y2="0.496" xlink:href="#linear-gradient"/>
    <linearGradient id="linear-gradient-43" x1="0.002" y1="0.661" x2="1.001" y2="0.661" xlink:href="#linear-gradient"/>
    <linearGradient id="linear-gradient-44" x1="0" y1="0.579" x2="1" y2="0.579" xlink:href="#linear-gradient"/>
    <linearGradient id="linear-gradient-45" x1="0" y1="0.498" x2="1.001" y2="0.498" xlink:href="#linear-gradient"/>
    <linearGradient id="linear-gradient-46" x1="0.001" y1="0.662" x2="1.001" y2="0.662" xlink:href="#linear-gradient"/>
    <linearGradient id="linear-gradient-47" x1="0" y1="0.581" x2="0.999" y2="0.581" xlink:href="#linear-gradient"/>
    <linearGradient id="linear-gradient-48" x1="0" y1="0.5" x2="1" y2="0.5" xlink:href="#linear-gradient"/>
  </defs>
  <g id="Group_68264" data-name="Group 68264" transform="translate(5937.258 -3719.241)">
    <g id="Group_68157" data-name="Group 68157" transform="translate(-5931.011 3719.241)">
      <g id="Group_68152" data-name="Group 68152" transform="translate(0 3.15)">
        <g id="Group_68151" data-name="Group 68151">
          <path id="Path_41265" data-name="Path 41265" d="M-5808.128,3856.853a289.2,289.2,0,0,1-33.974-2.472c-20.1-2.4-34.879-10.29-41.6-22.205-6.656-11.793-4.82-26.551,5.172-41.556,6.758-10.15,13-17.895,19.086-23.675a62.628,62.628,0,0,1,19.087-12.769c6.237-2.649,13.408-4.466,22.566-5.717,8.487-1.16,18.237-1.8,29.526-2.532,6.056-.395,12.922-.843,20.252-1.419,9.575-.752,18.029.21,25.129,2.86a33.489,33.489,0,0,1,15.636,11.426c4.654,6.312,6.793,14.3,6.185,23.1-.611,8.847-3.976,18.093-9.732,26.736l-.048-.024.048.024c-8.118,12.192-15.041,20.964-21.785,27.608-7.255,7.146-14.43,12-22.583,15.275-8.054,3.236-17.023,4.91-28.226,5.268Q-5805.694,3856.853-5808.128,3856.853Zm46.258-112.494q-2.985,0-6.137.247c-7.331.576-14.2,1.024-20.254,1.419-11.287.736-21.034,1.372-29.517,2.531-9.147,1.25-16.308,3.064-22.535,5.708a62.531,62.531,0,0,0-19.053,12.747c-6.079,5.775-12.318,13.513-19.073,23.658-9.971,14.976-11.807,29.7-5.167,41.465,6.708,11.885,21.453,19.752,41.519,22.152,16.585,1.983,28.517,2.723,38.692,2.4,11.188-.357,20.143-2.029,28.183-5.259,8.138-3.27,15.3-8.116,22.545-15.251,6.739-6.638,13.658-15.406,21.772-27.593,5.747-8.631,9.107-17.861,9.717-26.693.606-8.778-1.527-16.745-6.168-23.039a33.382,33.382,0,0,0-15.586-11.389A54.066,54.066,0,0,0-5761.87,3744.359Z" transform="translate(5887.64 -3744.262)" fill="url(#linear-gradient)"/>
        </g>
      </g>
      <g id="Group_68154" data-name="Group 68154" transform="translate(0.638 1.569)">
        <g id="Group_68153" data-name="Group 68153">
          <path id="Path_41266" data-name="Path 41266" d="M-5806.322,3846.49c-8.071,0-17.457-.52-29.162-1.592-20.192-1.85-35.286-9.373-42.5-21.184-7.137-11.686-5.914-26.6,3.445-41.988,6.332-10.413,12.248-18.389,18.088-24.383a61.5,61.5,0,0,1,18.541-13.4c6.124-2.845,13.212-4.878,22.313-6.4,8.432-1.409,18.147-2.326,29.4-3.388,6.036-.57,12.878-1.216,20.178-2,9.532-1.029,18.017-.3,25.22,2.163a34.1,34.1,0,0,1,16.1,11.052c4.918,6.224,7.391,14.207,7.15,23.087-.241,8.929-3.219,18.338-8.613,27.208l-.049-.023.049.023c-7.6,12.508-14.158,21.538-20.621,28.42-6.952,7.4-13.92,12.493-21.93,16.023-7.914,3.487-16.806,5.428-27.985,6.107C-5799.725,3846.4-5802.906,3846.49-5806.322,3846.49Zm48.413-114.692a75.527,75.527,0,0,0-8.1.452c-7.3.789-14.144,1.434-20.18,2-11.248,1.062-20.961,1.979-29.39,3.387-9.088,1.519-16.167,3.549-22.279,6.389a61.384,61.384,0,0,0-18.51,13.377c-5.834,5.988-11.748,13.958-18.074,24.365-9.34,15.361-10.564,30.24-3.444,41.9,7.2,11.781,22.257,19.286,42.412,21.133,16.653,1.526,28.608,1.932,38.761,1.315,11.164-.678,20.042-2.615,27.943-6.1,7.994-3.523,14.952-8.607,21.894-16,6.458-6.876,13.006-15.9,20.608-28.4,5.386-8.857,8.36-18.251,8.6-27.165.24-8.859-2.226-16.823-7.131-23.03a34,34,0,0,0-16.047-11.016A52.626,52.626,0,0,0-5757.909,3731.8Z" transform="translate(5882.571 -3731.701)" fill="url(#linear-gradient-2)"/>
        </g>
      </g>
      <g id="Group_68156" data-name="Group 68156" transform="translate(1.328)">
        <g id="Group_68155" data-name="Group 68155">
          <path id="Path_41267" data-name="Path 41267" d="M-5805.228,3836.33c-6.678,0-14.271-.283-23.226-.852-20.251-1.287-35.642-8.432-43.338-20.119-7.614-11.564-7.008-26.615,1.706-42.382,5.9-10.667,11.479-18.868,17.065-25.071a60.407,60.407,0,0,1,17.973-14.024c6-3.04,13-5.29,22.028-7.081,8.367-1.66,18.037-2.861,29.233-4.252,6.007-.746,12.815-1.592,20.078-2.595,9.475-1.308,17.979-.818,25.274,1.454a34.687,34.687,0,0,1,16.539,10.656c5.178,6.126,7.983,14.1,8.114,23.05.131,9-2.457,18.568-7.482,27.659-7.082,12.813-13.255,22.1-19.429,29.21-6.641,7.653-13.393,12.979-21.25,16.762-7.763,3.738-16.568,5.946-27.71,6.949C-5794.35,3836.118-5799.445,3836.33-5805.228,3836.33Zm51.48-116.991a72.832,72.832,0,0,0-9.943.713c-7.263,1-14.072,1.848-20.08,2.595-11.194,1.391-20.862,2.592-29.224,4.251-9.018,1.789-16.008,4.035-22,7.07a60.3,60.3,0,0,0-17.941,14c-5.582,6.2-11.16,14.392-17.052,25.053-8.7,15.736-9.3,30.755-1.709,42.29,7.677,11.659,23.036,18.787,43.25,20.071,16.7,1.061,28.664,1.127,38.784.217,11.126-1,19.917-3.206,27.667-6.938,7.842-3.777,14.583-9.095,21.214-16.736,6.168-7.11,12.339-16.386,19.417-29.193l.05.021-.05-.021c5.018-9.078,7.6-18.628,7.471-27.615-.13-8.933-2.928-16.884-8.092-22.993a34.573,34.573,0,0,0-16.487-10.622A51.278,51.278,0,0,0-5753.748,3719.339Z" transform="translate(5877.092 -3719.241)" fill="url(#linear-gradient-3)"/>
        </g>
      </g>
    </g>
    <g id="Group_68164" data-name="Group 68164" transform="translate(-5931.856 3720.77)">
      <g id="Group_68159" data-name="Group 68159" transform="translate(0 3.181)">
        <g id="Group_68158" data-name="Group 68158">
          <path id="Path_41268" data-name="Path 41268" d="M-5811.87,3867.467c-10.148,0-22.007-1.1-38.4-3.555-20.018-3-34.483-11.3-40.731-23.364-6.185-11.943-3.752-26.582,6.849-41.22,7.171-9.9,13.73-17.425,20.051-23a63.623,63.623,0,0,1,19.611-12.138c6.347-2.449,13.595-4.042,22.809-5.012,8.539-.9,18.319-1.238,29.644-1.63,6.076-.211,12.962-.45,20.32-.8,9.61-.46,18.03.753,25.027,3.605a33.04,33.04,0,0,1,15.184,11.848c4.4,6.425,6.22,14.442,5.258,23.184-.968,8.791-4.708,17.895-10.814,26.327l-.047-.025.047.025c-8.614,11.895-15.893,20.42-22.909,26.832-7.547,6.9-14.922,11.513-23.21,14.528-8.189,2.979-17.23,4.376-28.454,4.394Zm44.055-110.718q-1.913,0-3.9.095c-7.358.352-14.245.591-20.322.8-11.322.392-21.1.732-29.635,1.63-9.2.969-16.44,2.559-22.777,5a63.487,63.487,0,0,0-19.577,12.118c-6.315,5.567-12.87,13.083-20.036,22.98-10.581,14.61-13.011,29.217-6.842,41.13,6.233,12.037,20.668,20.314,40.649,23.308,16.513,2.474,28.421,3.575,38.615,3.553,11.208-.018,20.236-1.412,28.411-4.386,8.273-3.01,15.637-7.619,23.172-14.506,7.011-6.406,14.286-14.928,22.9-26.817,6.1-8.42,9.832-17.51,10.8-26.286.96-8.721-.852-16.718-5.243-23.125a32.925,32.925,0,0,0-15.136-11.81A55.734,55.734,0,0,0-5767.815,3756.75Z" transform="translate(5894.353 -3756.653)" fill="url(#linear-gradient-4)"/>
        </g>
      </g>
      <g id="Group_68161" data-name="Group 68161" transform="translate(0.585 1.587)">
        <g id="Group_68160" data-name="Group 68160">
          <path id="Path_41269" data-name="Path 41269" d="M-5809.748,3856.927a286.738,286.738,0,0,1-34.328-2.55c-20.13-2.454-34.931-10.4-41.676-22.38-6.673-11.851-4.851-26.661,5.129-41.7,6.753-10.176,12.993-17.938,19.077-23.728a62.412,62.412,0,0,1,19.089-12.78c6.24-2.646,13.416-4.456,22.582-5.694,8.494-1.147,18.252-1.766,29.552-2.482,6.063-.385,12.934-.82,20.271-1.384,9.579-.736,18.04.246,25.148,2.918a33.685,33.685,0,0,1,15.665,11.491c4.672,6.346,6.826,14.369,6.229,23.2-.6,8.883-3.956,18.161-9.709,26.829l-.048-.024.048.024c-8.111,12.223-15.029,21.015-21.772,27.671-7.253,7.159-14.429,12.017-22.586,15.289-8.058,3.232-17.034,4.895-28.247,5.232Q-5807.479,3856.927-5809.748,3856.927Zm45.7-112.839q-2.921,0-6,.236c-7.338.563-14.209,1-20.272,1.384-11.3.717-21.054,1.335-29.542,2.481-9.155,1.237-16.321,3.043-22.55,5.685a62.288,62.288,0,0,0-19.057,12.758c-6.078,5.785-12.313,13.541-19.062,23.711-9.962,15.011-11.782,29.789-5.125,41.61,6.728,11.948,21.5,19.877,41.59,22.327,16.6,2.024,28.548,2.79,38.732,2.484,11.2-.336,20.16-2,28.2-5.223,8.141-3.266,15.307-8.116,22.549-15.265,6.738-6.651,13.652-15.439,21.76-27.656,5.744-8.656,9.1-17.919,9.694-26.787.594-8.813-1.554-16.817-6.212-23.145a33.583,33.583,0,0,0-15.616-11.455A54.168,54.168,0,0,0-5764.044,3744.089Z" transform="translate(5889.704 -3743.992)" fill="url(#linear-gradient-5)"/>
        </g>
      </g>
      <g id="Group_68163" data-name="Group 68163" transform="translate(1.225)">
        <g id="Group_68162" data-name="Group 68162">
          <path id="Path_41270" data-name="Path 41270" d="M-5807.872,3846.516c-8.163,0-17.667-.54-29.569-1.657-20.214-1.9-35.331-9.481-42.565-21.351-7.158-11.745-5.953-26.711,3.4-42.142,6.325-10.441,12.238-18.435,18.076-24.44a61.275,61.275,0,0,1,18.543-13.415c6.125-2.843,13.219-4.87,22.326-6.378,8.438-1.4,18.163-2.3,29.422-3.342,6.042-.56,12.889-1.195,20.2-1.971,9.534-1.013,18.023-.267,25.233,2.218a34.306,34.306,0,0,1,16.125,11.113c4.938,6.257,7.428,14.278,7.2,23.2-.228,8.967-3.2,18.41-8.589,27.309-7.6,12.541-14.146,21.593-20.607,28.488-6.949,7.417-13.918,12.514-21.932,16.041-7.917,3.485-16.816,5.415-28.005,6.073C-5801.533,3846.429-5804.6,3846.516-5807.872,3846.516Zm47.808-115.037a75.437,75.437,0,0,0-7.971.438c-7.307.776-14.154,1.411-20.2,1.971-11.257,1.043-20.979,1.945-29.414,3.341-9.1,1.506-16.179,3.53-22.294,6.368a61.155,61.155,0,0,0-18.511,13.392c-5.833,6-11.742,13.988-18.062,24.423-9.331,15.4-10.538,30.336-3.4,42.051,7.217,11.842,22.3,19.406,42.479,21.3,16.672,1.566,28.639,2,38.8,1.4,11.174-.658,20.059-2.585,27.962-6.064,8-3.521,14.957-8.61,21.9-16.016,6.457-6.89,13-15.937,20.594-28.472l.049.023-.049-.023c5.382-8.885,8.348-18.314,8.576-27.266.227-8.9-2.257-16.9-7.181-23.138a34.192,34.192,0,0,0-16.075-11.077A52.721,52.721,0,0,0-5760.064,3731.479Z" transform="translate(5884.619 -3731.382)" fill="url(#linear-gradient-6)"/>
        </g>
      </g>
    </g>
    <g id="Group_68171" data-name="Group 68171" transform="translate(-5932.642 3722.303)">
      <g id="Group_68166" data-name="Group 68166" transform="translate(0 3.198)">
        <g id="Group_68165" data-name="Group 68165">
          <path id="Path_41271" data-name="Path 41271" d="M-5815.839,3878.088q-1.778,0-3.629-.053c-10.205-.289-22.082-1.738-38.507-4.7-19.906-3.588-34.042-12.284-39.8-24.486-5.7-12.078-2.678-26.582,8.521-40.84,7.575-9.646,14.441-16.939,20.991-22.3a64.612,64.612,0,0,1,20.112-11.5c6.449-2.249,13.765-3.617,23.022-4.306,8.578-.639,18.376-.683,29.723-.734,6.087-.028,12.986-.059,20.361-.189,9.632-.171,18.008,1.291,24.892,4.341a32.548,32.548,0,0,1,14.711,12.253c4.144,6.53,5.638,14.567,4.321,23.243-1.324,8.724-5.434,17.677-11.885,25.891-9.1,11.586-16.727,19.857-24.005,26.031-7.829,6.641-15.395,11.016-23.809,13.77A78.892,78.892,0,0,1-5815.839,3878.088Zm42.288-109.021q-.742,0-1.5.013c-7.375.13-14.275.161-20.363.189-11.344.051-21.14.1-29.714.734-9.246.689-16.551,2.055-22.99,4.3a64.508,64.508,0,0,0-20.077,11.479c-6.543,5.354-13.4,12.642-20.976,22.282-11.177,14.231-14.2,28.7-8.51,40.75,5.749,12.172,19.855,20.848,39.723,24.428,16.42,2.959,28.291,4.408,38.489,4.7,11.213.318,20.3-.8,28.6-3.516,8.4-2.749,15.952-7.117,23.77-13.749,7.273-6.169,14.9-14.436,23.991-26.016l.047.027-.047-.027c6.442-8.2,10.546-17.14,11.868-25.85,1.313-8.656-.177-16.673-4.309-23.185a32.447,32.447,0,0,0-14.664-12.214C-5756.718,3770.526-5764.565,3769.067-5773.552,3769.067Z" transform="translate(5900.595 -3768.971)" fill="url(#linear-gradient-7)"/>
        </g>
      </g>
      <g id="Group_68168" data-name="Group 68168" transform="translate(0.53 1.6)">
        <g id="Group_68167" data-name="Group 68167">
          <path id="Path_41272" data-name="Path 41272" d="M-5813.518,3867.452h-.034c-10.208,0-22.135-1.127-38.672-3.644-20.042-3.051-34.529-11.412-40.795-23.542-6.2-12-3.781-26.694,6.811-41.369,7.167-9.929,13.722-17.469,20.042-23.052a63.382,63.382,0,0,1,19.615-12.149c6.35-2.448,13.6-4.032,22.822-4.989,8.545-.886,18.333-1.208,29.667-1.58,6.081-.2,12.973-.427,20.336-.766,9.613-.444,18.039.789,25.043,3.664a33.234,33.234,0,0,1,15.21,11.916c4.418,6.459,6.25,14.514,5.3,23.292-.958,8.827-4.69,17.964-10.795,26.422l-.047-.026.047.026c-8.607,11.926-15.883,20.473-22.9,26.9-7.545,6.91-14.921,11.531-23.213,14.542C-5793.263,3866.067-5802.3,3867.452-5813.518,3867.452Zm43.549-111.083q-1.844,0-3.751.088c-7.364.34-14.256.567-20.338.766-11.332.373-21.118.694-29.658,1.58-9.209.955-16.45,2.538-22.791,4.981a63.264,63.264,0,0,0-19.58,12.129c-6.314,5.577-12.865,13.112-20.027,23.035-10.571,14.647-12.987,29.307-6.8,41.279,6.25,12.1,20.709,20.441,40.713,23.487,16.53,2.517,28.451,3.64,38.653,3.642h.034c11.2,0,20.225-1.382,28.4-4.35,8.277-3.006,15.642-7.62,23.175-14.52,7.01-6.419,14.281-14.961,22.885-26.882,6.1-8.446,9.823-17.568,10.778-26.38.95-8.758-.877-16.792-5.283-23.234a33.126,33.126,0,0,0-15.162-11.877A55.843,55.843,0,0,0-5769.969,3756.369Z" transform="translate(5896.385 -3756.273)" fill="url(#linear-gradient-8)"/>
        </g>
      </g>
      <g id="Group_68170" data-name="Group 68170" transform="translate(1.117)">
        <g id="Group_68169" data-name="Group 68169">
          <path id="Path_41273" data-name="Path 41273" d="M-5811.35,3856.869c-9.3,0-20.225-.834-34.663-2.627-20.149-2.5-34.972-10.512-41.735-22.551-6.693-11.912-4.887-26.778,5.086-41.859,6.747-10.2,12.984-17.985,19.065-23.787a62.186,62.186,0,0,1,19.091-12.794c6.243-2.646,13.422-4.448,22.6-5.674,8.5-1.135,18.266-1.738,29.574-2.435,6.067-.374,12.943-.8,20.286-1.35,9.58-.719,18.044.281,25.159,2.974a33.879,33.879,0,0,1,15.69,11.554c4.689,6.38,6.86,14.442,6.276,23.315-.587,8.922-3.937,18.235-9.688,26.932-8.1,12.256-15.019,21.071-21.759,27.741-7.251,7.174-14.429,12.038-22.588,15.307-8.062,3.23-17.043,4.882-28.266,5.2Q-5809.237,3856.869-5811.35,3856.869Zm45.173-113.207q-2.856,0-5.864.226c-7.342.552-14.219.976-20.287,1.35-11.306.7-21.07,1.3-29.565,2.434-9.161,1.224-16.331,3.024-22.562,5.665a62.07,62.07,0,0,0-19.059,12.773c-6.077,5.8-12.308,13.572-19.052,23.77-9.953,15.052-11.757,29.886-5.083,41.768,6.747,12.01,21.54,20,41.651,22.5,16.619,2.064,28.575,2.857,38.768,2.569,11.208-.316,20.175-1.965,28.223-5.189,8.144-3.263,15.31-8.12,22.55-15.283,6.736-6.665,13.646-15.475,21.747-27.726l.048.024-.048-.024c5.741-8.684,9.086-17.982,9.673-26.889.583-8.852-1.581-16.895-6.259-23.257a33.775,33.775,0,0,0-15.641-11.518A54.262,54.262,0,0,0-5766.177,3743.662Z" transform="translate(5891.721 -3743.566)" fill="url(#linear-gradient-9)"/>
        </g>
      </g>
    </g>
    <g id="Group_68178" data-name="Group 68178" transform="translate(-5933.366 3723.835)">
      <g id="Group_68173" data-name="Group 68173" transform="translate(0 2.196)">
        <g id="Group_68172" data-name="Group 68172">
          <path id="Path_41274" data-name="Path 41274" d="M-5819.864,3881.667c-2.246,0-4.574-.071-7-.212-10.2-.594-22.019-2.4-38.331-5.842-19.767-4.177-33.553-13.278-38.822-25.629-5.214-12.225-1.6-26.609,10.186-40.5,7.971-9.4,15.136-16.473,21.905-21.625a65.6,65.6,0,0,1,20.587-10.873c6.543-2.051,13.916-3.2,23.205-3.609,8.607-.381,18.412-.132,29.763.156,6.091.155,12.994.33,20.376.421,9.645.118,17.963,1.827,24.726,5.077a32.058,32.058,0,0,1,14.218,12.669c3.879,6.641,5.047,14.707,3.377,23.326-1.68,8.667-6.155,17.48-12.942,25.484-9.574,11.291-17.541,19.317-25.073,25.261-8.1,6.393-15.848,10.533-24.377,13.03A76.344,76.344,0,0,1-5819.864,3881.667Zm1.641-108.393c-3.474,0-6.768.055-9.9.193-9.277.411-16.641,1.556-23.173,3.6a65.473,65.473,0,0,0-20.55,10.855c-6.765,5.147-13.924,12.216-21.89,21.61-11.761,13.868-15.373,28.221-10.171,40.415,5.255,12.32,19.014,21.4,38.743,25.569,16.306,3.445,28.122,5.246,38.312,5.84,11.206.652,20.342-.19,28.754-2.653,8.513-2.492,16.247-6.626,24.337-13.01,7.526-5.939,15.488-13.962,25.059-25.246l.044.028-.044-.028c6.777-7.993,11.246-16.791,12.923-25.444,1.667-8.6.5-16.645-3.367-23.268a31.953,31.953,0,0,0-14.173-12.629c-6.746-3.242-15.047-4.946-24.671-5.065-7.384-.091-14.288-.266-20.379-.421C-5805.585,3773.441-5812.172,3773.274-5818.224,3773.274Z" transform="translate(5906.343 -3773.178)" fill="url(#linear-gradient-10)"/>
        </g>
      </g>
      <g id="Group_68175" data-name="Group 68175" transform="translate(0.472 1.604)">
        <g id="Group_68174" data-name="Group 68174">
          <path id="Path_41275" data-name="Path 41275" d="M-5817.516,3877.979q-1.885,0-3.85-.06c-10.213-.309-22.1-1.786-38.542-4.79-19.926-3.64-34.083-12.4-39.86-24.669-5.717-12.138-2.7-26.7,8.488-40.991,7.571-9.672,14.435-16.985,20.983-22.354a64.376,64.376,0,0,1,20.115-11.51c6.452-2.246,13.771-3.607,23.035-4.283,8.584-.625,18.39-.652,29.744-.683,6.092-.016,13-.035,20.376-.152,9.636-.153,18.016,1.328,24.907,4.4a32.746,32.746,0,0,1,14.734,12.322c4.159,6.565,5.666,14.641,4.358,23.354-1.314,8.761-5.418,17.748-11.869,25.988l-.046-.027.046.027c-9.094,11.618-16.719,19.91-24,26.1-7.828,6.654-15.394,11.034-23.812,13.784A78.387,78.387,0,0,1-5817.516,3877.979Zm41.836-109.4c-.446,0-.893,0-1.345.01-7.381.117-14.286.136-20.377.152-11.352.031-21.155.057-29.735.683-9.251.675-16.561,2.033-23,4.276a64.254,64.254,0,0,0-20.08,11.49c-6.542,5.364-13.4,12.671-20.968,22.338-11.168,14.268-14.179,28.794-8.477,40.9,5.764,12.237,19.891,20.978,39.78,24.611,16.436,3,28.317,4.479,38.522,4.787q1.964.06,3.845.06a78.248,78.248,0,0,0,24.772-3.538c8.4-2.745,15.956-7.119,23.773-13.763,7.271-6.182,14.893-14.469,23.981-26.082,6.44-8.227,10.539-17.2,11.852-25.946,1.3-8.693-.2-16.748-4.347-23.3a32.636,32.636,0,0,0-14.688-12.282C-5758.724,3770.053-5766.628,3768.574-5775.68,3768.574Z" transform="translate(5902.595 -3768.478)" fill="url(#linear-gradient-11)"/>
        </g>
      </g>
      <g id="Group_68177" data-name="Group 68177" transform="translate(1.004)">
        <g id="Group_68176" data-name="Group 68176">
          <path id="Path_41276" data-name="Path 41276" d="M-5815.153,3867.3h-.283c-10.216-.021-22.153-1.172-38.7-3.73-20.06-3.1-34.566-11.524-40.849-23.717-6.216-12.064-3.811-26.813,6.773-41.53,7.161-9.958,13.714-17.518,20.033-23.112a63.134,63.134,0,0,1,19.617-12.165c6.352-2.446,13.607-4.024,22.834-4.967,8.55-.874,18.345-1.179,29.687-1.532,6.086-.19,12.982-.4,20.351-.732,9.614-.427,18.042.824,25.052,3.72a33.422,33.422,0,0,1,15.233,11.979c4.436,6.5,6.282,14.589,5.341,23.407-.947,8.866-4.673,18.039-10.777,26.526l-.047-.025.047.025c-8.6,11.961-15.874,20.53-22.887,26.968-7.543,6.925-14.92,11.552-23.215,14.561C-5795.074,3865.926-5804.043,3867.3-5815.153,3867.3Zm43.076-111.471q-1.778,0-3.612.082c-7.369.328-14.267.542-20.352.732-11.339.353-21.133.658-29.678,1.532-9.216.942-16.461,2.518-22.8,4.96a63.019,63.019,0,0,0-19.582,12.144c-6.313,5.589-12.862,13.144-20.018,23.1-10.564,14.689-12.967,29.406-6.767,41.44,6.268,12.163,20.745,20.566,40.767,23.661,16.544,2.558,28.475,3.708,38.685,3.729h.283c11.1,0,20.049-1.373,28.163-4.316,8.28-3,15.644-7.623,23.177-14.538,7.008-6.433,14.276-15,22.874-26.953,6.094-8.474,9.815-17.632,10.76-26.484.939-8.8-.9-16.871-5.326-23.349a33.31,33.31,0,0,0-15.186-11.942A55.907,55.907,0,0,0-5772.078,3755.831Z" transform="translate(5898.372 -3755.734)" fill="url(#linear-gradient-12)"/>
        </g>
      </g>
    </g>
    <g id="Group_68185" data-name="Group 68185" transform="translate(-5934.026 3725.358)">
      <g id="Group_68180" data-name="Group 68180" transform="translate(0 0.54)">
        <g id="Group_68179" data-name="Group 68179">
          <path id="Path_41277" data-name="Path 41277" d="M-5823.8,3880.678c-3.165,0-6.485-.156-10.006-.467-10.175-.9-21.927-3.053-38.1-6.986-19.6-4.765-33.021-14.276-37.787-26.778-4.717-12.375-.513-26.645,11.839-40.181,8.356-9.157,15.812-16.013,22.793-20.96a66.532,66.532,0,0,1,21.036-10.252c6.628-1.855,14.05-2.781,23.358-2.913,8.626-.124,18.422.419,29.766,1.046,6.085.337,12.984.719,20.365,1.03,9.641.406,17.892,2.363,24.525,5.814a31.578,31.578,0,0,1,13.7,13.089c3.61,6.754,4.45,14.851,2.427,23.416-2.034,8.613-6.87,17.288-13.985,25.085-10.036,11-18.333,18.783-26.109,24.5-8.365,6.148-16.282,10.055-24.915,12.3A74.309,74.309,0,0,1-5823.8,3880.678Zm-4.334-108.46q-1.283,0-2.533.018c-9.3.133-16.708,1.057-23.326,2.908a66.42,66.42,0,0,0-21,10.236c-6.976,4.943-14.426,11.794-22.776,20.946-12.329,13.51-16.527,27.748-11.822,40.092,4.754,12.471,18.147,21.959,37.712,26.716,16.169,3.931,27.915,6.085,38.084,6.983,11.18.988,20.354.418,28.869-1.792,8.618-2.236,16.522-6.137,24.875-12.276,7.771-5.711,16.063-13.492,26.094-24.486l.044.03-.044-.03c7.1-7.786,11.934-16.447,13.964-25.045,2.017-8.545,1.18-16.622-2.419-23.357a31.477,31.477,0,0,0-13.662-13.047c-6.616-3.442-14.849-5.394-24.472-5.8-7.382-.311-14.28-.693-20.366-1.03C-5811.158,3772.716-5820.141,3772.218-5828.136,3772.218Z" transform="translate(5911.583 -3772.123)" fill="url(#linear-gradient-13)"/>
        </g>
      </g>
      <g id="Group_68182" data-name="Group 68182" transform="translate(0.412 0.503)">
        <g id="Group_68181" data-name="Group 68181">
          <path id="Path_41278" data-name="Path 41278" d="M-5821.558,3880.812c-2.3,0-4.7-.076-7.189-.226-10.2-.614-22.035-2.445-38.36-5.936-19.786-4.231-33.591-13.4-38.872-25.82-5.225-12.288-1.618-26.73,10.157-40.666,7.967-9.429,15.13-16.522,21.9-21.686a65.341,65.341,0,0,1,20.59-10.887c6.545-2.049,13.922-3.188,23.216-3.585,8.613-.368,18.422-.1,29.783.209,6.094.166,13,.354,20.389.458,9.645.136,17.967,1.865,24.736,5.139a32.257,32.257,0,0,1,14.239,12.742c3.894,6.679,5.072,14.786,3.41,23.445-1.671,8.707-6.142,17.555-12.929,25.587-9.569,11.325-17.534,19.375-25.066,25.333-8.1,6.408-15.848,10.554-24.38,13.047A75.866,75.866,0,0,1-5821.558,3880.812Zm.8-108.888c-3.27,0-6.382.051-9.352.178-9.282.4-16.649,1.533-23.184,3.579a65.23,65.23,0,0,0-20.553,10.869c-6.764,5.159-13.921,12.248-21.884,21.671-11.752,13.909-15.354,28.32-10.142,40.577,5.268,12.389,19.044,21.537,38.793,25.76,16.319,3.49,28.144,5.32,38.341,5.934,11.212.675,20.354-.156,28.769-2.615,8.517-2.489,16.252-6.628,24.341-13.027,7.525-5.953,15.485-14,25.051-25.318l.045.028-.045-.028c6.776-8.02,11.24-16.854,12.909-25.546,1.658-8.639.483-16.725-3.4-23.386a32.151,32.151,0,0,0-14.193-12.7c-6.752-3.267-15.057-4.991-24.683-5.127-7.388-.1-14.3-.292-20.392-.458C-5807.776,3772.108-5814.551,3771.923-5820.759,3771.923Z" transform="translate(5908.314 -3771.827)" fill="url(#linear-gradient-14)"/>
        </g>
      </g>
      <g id="Group_68184" data-name="Group 68184" transform="translate(0.885)">
        <g id="Group_68183" data-name="Group 68183">
          <path id="Path_41279" data-name="Path 41279" d="M-5819.176,3877.74q-1.983,0-4.058-.067c-10.22-.329-22.115-1.833-38.57-4.878-19.942-3.691-34.115-12.515-39.908-24.847-5.731-12.2-2.729-26.817,8.456-41.155,7.566-9.7,14.428-17.033,20.976-22.415a64.116,64.116,0,0,1,20.117-11.525c6.453-2.245,13.775-3.6,23.044-4.261,8.589-.614,18.4-.623,29.762-.634,6.1-.006,13-.012,20.389-.117,9.634-.135,18.017,1.363,24.913,4.458a32.935,32.935,0,0,1,14.756,12.388c4.174,6.6,5.695,14.718,4.4,23.471-1.305,8.8-5.4,17.824-11.854,26.093-9.089,11.653-16.711,19.968-23.987,26.169-7.827,6.67-15.394,11.056-23.813,13.8A77.872,77.872,0,0,1-5819.176,3877.74Zm41.409-109.81q-.6,0-1.2.009c-7.386.1-14.3.111-20.391.117-11.358.011-21.168.021-29.753.634-9.256.661-16.569,2.013-23.012,4.254a64.014,64.014,0,0,0-20.082,11.505c-6.542,5.376-13.4,12.7-20.96,22.4-11.162,14.311-14.161,28.9-8.445,41.066,5.779,12.3,19.923,21.1,39.828,24.788,16.448,3.044,28.337,4.548,38.55,4.876,11.229.36,20.328-.733,28.632-3.443,8.4-2.742,15.96-7.122,23.775-13.782,7.271-6.2,14.888-14.507,23.973-26.154l.046.027-.046-.027c6.439-8.256,10.532-17.265,11.835-26.052,1.3-8.733-.22-16.829-4.383-23.413a32.832,32.832,0,0,0-14.709-12.348C-5760.7,3769.427-5768.653,3767.93-5777.767,3767.93Z" transform="translate(5904.552 -3767.834)" fill="url(#linear-gradient-15)"/>
        </g>
      </g>
    </g>
    <g id="Group_68192" data-name="Group 68192" transform="translate(-5934.619 3725.613)">
      <g id="Group_68187" data-name="Group 68187">
        <g id="Group_68186" data-name="Group 68186">
          <path id="Path_41280" data-name="Path 41280" d="M-5827.549,3878.652a108.078,108.078,0,0,1-12.732-.808c-10.141-1.2-21.807-3.708-37.825-8.124-19.41-5.351-32.445-15.262-36.7-27.906-4.213-12.515.575-26.657,13.481-39.823,8.731-8.906,16.469-15.539,23.653-20.277a67.423,67.423,0,0,1,21.458-9.623c6.706-1.656,14.167-2.36,23.482-2.215,8.632.135,18.408.969,29.729,1.936,6.073.519,12.956,1.106,20.326,1.639,9.626.7,17.8,2.9,24.292,6.547a31.1,31.1,0,0,1,13.174,13.5c3.336,6.861,3.844,14.983,1.472,23.487-2.385,8.552-7.576,17.081-15.011,24.665l-.043-.031.043.031c-10.487,10.7-19.1,18.234-27.114,23.717-8.617,5.9-16.7,9.567-25.421,11.55A72.652,72.652,0,0,1-5827.549,3878.652Zm-7.524-108.7a86.987,86.987,0,0,0-21.112,2.229,67.309,67.309,0,0,0-21.42,9.607c-7.178,4.734-14.91,11.362-23.635,20.263-12.882,13.14-17.662,27.252-13.459,39.735,4.246,12.613,17.254,22.5,36.629,27.841,16.012,4.414,27.671,6.918,37.806,8.12,11.143,1.321,20.341,1.026,28.948-.929,8.71-1.978,16.775-5.643,25.38-11.531,8.005-5.479,16.616-13.01,27.1-23.7,7.424-7.573,12.606-16.089,14.988-24.626,2.366-8.484,1.859-16.585-1.467-23.428a31,31,0,0,0-13.131-13.454c-6.477-3.64-14.633-5.838-24.24-6.531-7.371-.532-14.255-1.12-20.328-1.638-11.318-.967-21.092-1.8-29.719-1.936Q-5833.925,3769.953-5835.074,3769.953Z" transform="translate(5916.299 -3769.857)" fill="url(#linear-gradient-16)"/>
        </g>
      </g>
      <g id="Group_68189" data-name="Group 68189" transform="translate(0.349 0.09)">
        <g id="Group_68188" data-name="Group 68188">
          <path id="Path_41281" data-name="Path 41281" d="M-5825.5,3879.65c-3.214,0-6.589-.163-10.17-.487-10.181-.92-21.941-3.1-38.128-7.082-19.619-4.822-33.054-14.4-37.83-26.973-4.727-12.44-.53-26.768,11.815-40.345,8.354-9.187,15.808-16.063,22.789-21.022a66.266,66.266,0,0,1,21.039-10.267c6.63-1.852,14.056-2.77,23.369-2.888,8.629-.11,18.431.451,29.781,1.1,6.089.348,12.991.743,20.376,1.069,9.642.424,17.9,2.4,24.533,5.878a31.774,31.774,0,0,1,13.724,13.164c3.622,6.792,4.472,14.931,2.457,23.537-2.026,8.653-6.859,17.364-13.974,25.189-10.034,11.034-18.328,18.842-26.1,24.572-8.364,6.163-16.282,10.076-24.917,12.312A73.843,73.843,0,0,1-5825.5,3879.65Zm-4.9-108.982q-1.123,0-2.219.014c-9.3.118-16.716,1.034-23.335,2.884a66.151,66.151,0,0,0-21,10.249c-6.975,4.955-14.423,11.826-22.771,21.007-12.322,13.552-16.512,27.848-11.8,40.257,4.765,12.542,18.173,22.1,37.755,26.911,16.181,3.977,27.935,6.159,38.11,7.079,11.188,1.011,20.365.454,28.883-1.752,8.62-2.233,16.525-6.139,24.877-12.293,7.771-5.725,16.06-13.529,26.088-24.558l.044.03-.044-.03c7.1-7.814,11.93-16.51,13.953-25.149,2.011-8.585,1.164-16.7-2.448-23.478a31.675,31.675,0,0,0-13.681-13.121c-6.621-3.467-14.857-5.44-24.48-5.864-7.386-.325-14.289-.72-20.378-1.069C-5813.232,3771.188-5822.322,3770.668-5830.4,3770.668Z" transform="translate(5913.525 -3770.572)" fill="url(#linear-gradient-17)"/>
        </g>
      </g>
      <g id="Group_68191" data-name="Group 68191" transform="translate(0.762 0.062)">
        <g id="Group_68190" data-name="Group 68190">
          <path id="Path_41282" data-name="Path 41282" d="M-5823.234,3879.847c-2.359,0-4.808-.08-7.367-.239-10.209-.635-22.047-2.493-38.384-6.028-19.8-4.284-33.619-13.519-38.912-26.006-5.238-12.355-1.641-26.859,10.129-40.841,7.964-9.46,15.125-16.575,21.893-21.752a65.093,65.093,0,0,1,20.592-10.9c6.547-2.048,13.927-3.18,23.226-3.563,8.617-.355,18.432-.07,29.8.26,6.1.177,13.009.377,20.4.494,9.645.152,17.968,1.9,24.74,5.2a32.444,32.444,0,0,1,14.257,12.812c3.908,6.717,5.1,14.866,3.445,23.568-1.664,8.749-6.13,17.636-12.917,25.7-9.565,11.363-17.528,19.437-25.059,25.411-8.1,6.425-15.848,10.577-24.382,13.068A75.391,75.391,0,0,1-5823.234,3879.847Zm.031-109.4c-3.086,0-6.031.047-8.849.164-9.287.383-16.657,1.513-23.193,3.558a64.959,64.959,0,0,0-20.555,10.886c-6.762,5.172-13.919,12.282-21.878,21.737-11.747,13.955-15.339,28.428-10.115,40.751,5.281,12.456,19.072,21.67,38.834,25.946,16.33,3.533,28.162,5.391,38.365,6.025,11.219.7,20.365-.123,28.782-2.579,8.519-2.486,16.254-6.632,24.342-13.048,7.525-5.969,15.483-14.039,25.044-25.4l.045.028-.045-.028c6.777-8.05,11.237-16.923,12.9-25.657,1.651-8.681.463-16.81-3.435-23.509a32.339,32.339,0,0,0-14.212-12.771c-6.756-3.289-15.062-5.034-24.687-5.186-7.392-.117-14.3-.317-20.4-.494C-5809.91,3770.648-5816.854,3770.447-5823.2,3770.447Z" transform="translate(5910.244 -3770.351)" fill="url(#linear-gradient-18)"/>
        </g>
      </g>
    </g>
    <g id="Group_68199" data-name="Group 68199" transform="translate(-5935.145 3725.24)">
      <g id="Group_68194" data-name="Group 68194">
        <g id="Group_68193" data-name="Group 68193">
          <path id="Path_41283" data-name="Path 41283" d="M-5831.033,3876.028a103.156,103.156,0,0,1-15.236-1.227c-10.093-1.506-21.657-4.361-37.5-9.256-19.194-5.932-31.826-16.233-35.566-29.006-3.7-12.642,1.662-26.644,15.107-39.425,9.1-8.646,17.1-15.049,24.482-19.573a68.255,68.255,0,0,1,21.853-8.983c6.773-1.456,14.264-1.937,23.574-1.513,8.627.393,18.371,1.52,29.652,2.825,6.053.7,12.913,1.494,20.262,2.246,9.6.983,17.682,3.43,24.026,7.274a30.63,30.63,0,0,1,12.624,13.893c3.056,6.962,3.234,15.1.514,23.534-2.733,8.481-8.273,16.856-16.019,24.22-10.925,10.385-19.849,17.665-28.085,22.909-8.858,5.641-17.086,9.07-25.895,10.791A71.361,71.361,0,0,1-5831.033,3876.028Zm-9.486-109.035a81.675,81.675,0,0,0-17.345,1.658,68.147,68.147,0,0,0-21.814,8.968c-7.372,4.52-15.375,10.918-24.464,19.559-13.419,12.757-18.776,26.728-15.083,39.338,3.732,12.741,16.338,23.018,35.5,28.939,15.833,4.893,27.392,7.747,37.478,9.251,11.09,1.655,20.3,1.635,28.99-.063,8.792-1.718,17.007-5.142,25.852-10.774,8.23-5.24,17.149-12.516,28.068-22.9l.042.032-.042-.032c7.733-7.352,13.265-15.714,16-24.181,2.713-8.415,2.536-16.532-.511-23.475a30.537,30.537,0,0,0-12.584-13.848c-6.33-3.834-14.4-6.276-23.976-7.257-7.35-.753-14.21-1.547-20.264-2.247-11.278-1.3-21.02-2.432-29.643-2.824C-5836.481,3767.042-5838.542,3766.993-5840.519,3766.993Z" transform="translate(5920.475 -3766.897)" fill="url(#linear-gradient-19)"/>
        </g>
      </g>
      <g id="Group_68196" data-name="Group 68196" transform="translate(0.285 0.158)">
        <g id="Group_68195" data-name="Group 68195">
          <path id="Path_41284" data-name="Path 41284" d="M-5829.256,3877.49a107.284,107.284,0,0,1-12.875-.832c-10.146-1.224-21.818-3.76-37.847-8.222-19.425-5.408-32.473-15.389-36.738-28.1-4.22-12.581.562-26.782,13.462-39.99,8.729-8.936,16.464-15.589,23.649-20.339a67.133,67.133,0,0,1,21.461-9.636c6.707-1.654,14.171-2.35,23.49-2.189,8.636.148,18.417,1,29.742,1.992,6.077.531,12.964,1.133,20.336,1.678,9.626.713,17.8,2.938,24.3,6.612a31.305,31.305,0,0,1,13.189,13.573c3.346,6.9,3.864,15.065,1.5,23.609-2.38,8.593-7.567,17.157-15,24.77-10.485,10.733-19.1,18.292-27.11,23.79-8.617,5.913-16.7,9.588-25.424,11.566A72.211,72.211,0,0,1-5829.256,3877.49Zm-7.957-109.239a86.252,86.252,0,0,0-20.9,2.207,67.03,67.03,0,0,0-21.424,9.62c-7.178,4.745-14.908,11.393-23.631,20.324-12.876,13.182-17.649,27.353-13.44,39.9,4.254,12.684,17.275,22.642,36.665,28.04,16.022,4.461,27.689,7,37.828,8.219,11.148,1.345,20.351,1.063,28.96-.888,8.712-1.975,16.777-5.644,25.382-11.548,8.005-5.493,16.615-13.048,27.094-23.776l.043.031-.043-.031c7.425-7.6,12.6-16.153,14.981-24.731,2.361-8.525,1.844-16.668-1.493-23.55a31.2,31.2,0,0,0-13.148-13.53c-6.48-3.665-14.638-5.884-24.246-6.6-7.375-.546-14.261-1.148-20.338-1.678-11.322-.989-21.1-1.843-29.732-1.991Q-5835.957,3768.251-5837.212,3768.251Z" transform="translate(5918.211 -3768.155)" fill="url(#linear-gradient-20)"/>
        </g>
      </g>
      <g id="Group_68198" data-name="Group 68198" transform="translate(0.635 0.253)">
        <g id="Group_68197" data-name="Group 68197">
          <path id="Path_41285" data-name="Path 41285" d="M-5827.193,3878.524c-3.259,0-6.684-.169-10.321-.5-10.187-.94-21.953-3.153-38.149-7.176-19.63-4.875-33.078-14.522-37.864-27.163-4.737-12.507-.549-26.9,11.793-40.522,8.35-9.218,15.8-16.116,22.784-21.088a65.981,65.981,0,0,1,21.041-10.284c6.631-1.851,14.06-2.761,23.377-2.865,8.632-.1,18.439.482,29.793,1.153,6.093.36,13,.767,20.387,1.105,9.64.442,17.9,2.439,24.535,5.938a31.962,31.962,0,0,1,13.74,13.235c3.636,6.832,4.5,15.014,2.487,23.663-2.02,8.7-6.849,17.446-13.967,25.3-10.029,11.072-18.323,18.905-26.1,24.651-8.363,6.18-16.282,10.1-24.92,12.333A73.39,73.39,0,0,1-5827.193,3878.524Zm-5.409-109.518q-.975,0-1.93.01c-9.305.1-16.723,1.013-23.344,2.861a65.881,65.881,0,0,0-21,10.266c-6.975,4.968-14.422,11.861-22.767,21.073-12.318,13.6-16.5,27.958-11.776,40.434,4.775,12.61,18.2,22.235,37.789,27.1,16.19,4.021,27.951,6.233,38.131,7.173,11.193,1.033,20.374.488,28.894-1.716,8.623-2.23,16.528-6.143,24.879-12.314,7.77-5.741,16.058-13.57,26.083-24.636l.044.029-.044-.029c7.106-7.845,11.928-16.58,13.945-25.262,2-8.629,1.147-16.79-2.479-23.6a31.861,31.861,0,0,0-13.7-13.192c-6.624-3.491-14.861-5.484-24.483-5.925-7.389-.338-14.294-.746-20.388-1.105C-5815.26,3769.548-5824.447,3769.006-5832.6,3769.006Z" transform="translate(5915.428 -3768.91)" fill="url(#linear-gradient-21)"/>
        </g>
      </g>
    </g>
    <g id="Group_68206" data-name="Group 68206" transform="translate(-5935.602 3724.81)">
      <g id="Group_68201" data-name="Group 68201">
        <g id="Group_68200" data-name="Group 68200">
          <path id="Path_41286" data-name="Path 41286" d="M-5834.191,3873.006a98.806,98.806,0,0,1-17.564-1.719c-10.031-1.808-21.479-5.009-37.12-10.379-18.953-6.507-31.164-17.189-34.384-30.077-3.188-12.756,2.749-26.6,16.716-38.984,9.448-8.376,17.718-14.541,25.282-18.845a69.047,69.047,0,0,1,22.219-8.332c6.833-1.254,14.343-1.511,23.637-.809,8.612.651,18.308,2.07,29.538,3.712,6.024.881,12.852,1.88,20.17,2.853,9.558,1.27,17.542,3.96,23.73,7.994a30.186,30.186,0,0,1,12.058,14.274c2.772,7.055,2.618,15.2-.446,23.555-3.081,8.4-8.962,16.614-17.008,23.747l-.041-.033.041.033c-11.349,10.062-20.57,17.076-29.02,22.075-9.089,5.377-17.457,8.561-26.336,10.02A70.367,70.367,0,0,1-5834.191,3873.006Zm-10.693-109.432a77.7,77.7,0,0,0-14.135,1.19,68.942,68.942,0,0,0-22.181,8.318c-7.556,4.3-15.82,10.461-25.263,18.833-13.94,12.359-19.866,26.173-16.687,38.9,3.211,12.856,15.4,23.513,34.315,30.008,15.634,5.368,27.077,8.568,37.1,10.375,11.022,1.987,20.235,2.242,28.992.8,8.862-1.456,17.217-4.635,26.293-10,8.443-5,17.659-12.006,29-22.063,8.034-7.123,13.906-15.321,16.982-23.708,3.056-8.336,3.21-16.46.447-23.5a30.089,30.089,0,0,0-12.021-14.228c-6.172-4.024-14.139-6.708-23.679-7.975-7.319-.972-14.148-1.972-20.173-2.853-11.226-1.642-20.921-3.061-29.528-3.711C-5838.79,3763.7-5841.929,3763.573-5844.884,3763.573Z" transform="translate(5924.101 -3763.477)" fill="url(#linear-gradient-22)"/>
        </g>
      </g>
      <g id="Group_68203" data-name="Group 68203" transform="translate(0.219 0.2)">
        <g id="Group_68202" data-name="Group 68202">
          <path id="Path_41287" data-name="Path 41287" d="M-5832.742,3874.753a102.569,102.569,0,0,1-15.361-1.256c-10.1-1.528-21.667-4.414-37.515-9.356-19.207-5.99-31.849-16.363-35.6-29.208-3.708-12.709,1.652-26.77,15.093-39.593,9.093-8.676,17.1-15.1,24.48-19.634a67.962,67.962,0,0,1,21.855-9c6.775-1.453,14.268-1.925,23.583-1.486,8.63.407,18.378,1.554,29.663,2.883,6.055.713,12.918,1.52,20.27,2.287,9.6,1,17.684,3.47,24.031,7.34a30.837,30.837,0,0,1,12.638,13.97c3.065,7,3.251,15.182.536,23.658-2.73,8.522-8.268,16.934-16.015,24.325l-.042-.032.042.032c-10.923,10.421-19.846,17.724-28.082,22.982-8.859,5.656-17.087,9.09-25.9,10.807A70.942,70.942,0,0,1-5832.742,3874.753Zm-9.837-109.591a81.054,81.054,0,0,0-17.179,1.641,67.857,67.857,0,0,0-21.817,8.98c-7.372,4.531-15.373,10.949-24.462,19.62-13.415,12.8-18.766,26.828-15.067,39.505,3.738,12.813,16.354,23.162,35.526,29.141,15.841,4.941,27.405,7.825,37.5,9.352,11.095,1.679,20.31,1.672,29-.021,8.794-1.714,17.01-5.143,25.855-10.79,8.23-5.254,17.148-12.552,28.066-22.969,7.735-7.38,13.264-15.778,15.99-24.286,2.708-8.456,2.524-16.616-.533-23.6a30.733,30.733,0,0,0-12.6-13.926c-6.332-3.86-14.4-6.323-23.979-7.323-7.353-.767-14.216-1.575-20.272-2.287-11.283-1.328-21.028-2.475-29.655-2.882C-5838.432,3765.216-5840.55,3765.162-5842.579,3765.162Z" transform="translate(5922.359 -3765.067)" fill="url(#linear-gradient-23)"/>
        </g>
      </g>
      <g id="Group_68205" data-name="Group 68205" transform="translate(0.505 0.362)">
        <g id="Group_68204" data-name="Group 68204">
          <path id="Path_41288" data-name="Path 41288" d="M-5830.953,3876.239a106.688,106.688,0,0,1-13.005-.855c-10.15-1.245-21.828-3.811-37.864-8.318-19.435-5.464-32.491-15.513-36.765-28.3-4.228-12.649.547-26.915,13.445-40.169,8.727-8.967,16.462-15.642,23.646-20.405a66.867,66.867,0,0,1,21.462-9.653c6.709-1.652,14.175-2.34,23.5-2.165,8.639.162,18.423,1.035,29.752,2.045,6.079.542,12.968,1.157,20.344,1.717,9.624.73,17.8,2.975,24.3,6.674a31.483,31.483,0,0,1,13.2,13.646c3.358,6.94,3.886,15.148,1.525,23.736-2.375,8.635-7.561,17.24-15,24.883l-.043-.031.043.031c-10.482,10.772-19.1,18.356-27.106,23.868-8.617,5.93-16.7,9.611-25.427,11.587A71.825,71.825,0,0,1-5830.953,3876.239Zm-8.345-109.793a85.538,85.538,0,0,0-20.7,2.188,66.741,66.741,0,0,0-21.425,9.636c-7.178,4.759-14.907,11.428-23.629,20.391-12.874,13.229-17.641,27.463-13.423,40.08,4.263,12.753,17.293,22.779,36.692,28.232,16.029,4.506,27.7,7.071,37.844,8.315,11.153,1.368,20.358,1.1,28.969-.85,8.715-1.972,16.781-5.648,25.385-11.568,8-5.508,16.613-13.088,27.09-23.855,7.427-7.632,12.605-16.223,14.976-24.844,2.356-8.568,1.832-16.756-1.519-23.677a31.389,31.389,0,0,0-13.162-13.6c-6.483-3.689-14.641-5.929-24.246-6.657-7.377-.56-14.268-1.174-20.346-1.717-11.327-1.01-21.109-1.883-29.744-2.045Q-5837.945,3766.446-5839.3,3766.446Z" transform="translate(5920.088 -3766.35)" fill="url(#linear-gradient-24)"/>
        </g>
      </g>
    </g>
    <g id="Group_68213" data-name="Group 68213" transform="translate(-5935.987 3724.341)">
      <g id="Group_68208" data-name="Group 68208">
        <g id="Group_68207" data-name="Group 68207">
          <path id="Path_41289" data-name="Path 41289" d="M-5836.979,3869.715a94.971,94.971,0,0,1-19.751-2.279c-9.957-2.109-21.274-5.653-36.694-11.493-18.686-7.076-30.46-18.126-33.155-31.115-2.667-12.856,3.834-26.528,18.306-38.5,9.789-8.1,18.31-14.016,26.048-18.1a69.788,69.788,0,0,1,22.557-7.67,91.391,91.391,0,0,1,23.668-.1c8.585.909,18.224,2.618,29.384,4.6,5.987,1.062,12.774,2.265,20.053,3.457,9.507,1.556,17.381,4.485,23.4,8.706a29.752,29.752,0,0,1,11.475,14.639c2.484,7.14,2,15.283-1.407,23.55-3.423,8.313-9.639,16.351-17.975,23.246l-.04-.034.04.034c-11.758,9.726-21.266,16.467-29.918,21.215-9.308,5.107-17.806,8.042-26.743,9.235A69.609,69.609,0,0,1-5836.979,3869.715Zm-11.36-109.865a74.541,74.541,0,0,0-11.31.812,69.652,69.652,0,0,0-22.519,7.657c-7.731,4.076-16.245,9.991-26.029,18.083-14.443,11.947-20.933,25.588-18.272,38.41,2.688,12.956,14.439,23.981,33.09,31.044,15.415,5.837,26.725,9.38,36.675,11.487,10.941,2.317,20.142,2.848,28.957,1.671,8.921-1.192,17.406-4.122,26.7-9.221,8.647-4.745,18.148-11.482,29.9-21.2,8.324-6.885,14.529-14.91,17.948-23.208,3.4-8.247,3.881-16.37,1.4-23.49a29.653,29.653,0,0,0-11.438-14.592c-6.008-4.21-13.865-7.133-23.353-8.686-7.279-1.192-14.066-2.4-20.055-3.457-11.158-1.979-20.794-3.687-29.375-4.6A117.127,117.127,0,0,0-5848.339,3759.85Z" transform="translate(5927.166 -3759.754)" fill="url(#linear-gradient-25)"/>
        </g>
      </g>
      <g id="Group_68210" data-name="Group 68210" transform="translate(0.152 0.224)">
        <g id="Group_68209" data-name="Group 68209">
          <path id="Path_41290" data-name="Path 41290" d="M-5835.9,3871.626a98.253,98.253,0,0,1-17.673-1.751c-10.034-1.831-21.487-5.063-37.134-10.482-18.963-6.567-31.182-17.321-34.406-30.281-3.19-12.823,2.743-26.728,16.707-39.152,9.447-8.406,17.717-14.591,25.281-18.907a68.747,68.747,0,0,1,22.223-8.344c6.833-1.251,14.346-1.5,23.642-.781,8.614.666,18.314,2.1,29.546,3.771,6.027.894,12.856,1.907,20.176,2.895,9.559,1.289,17.543,4,23.733,8.062a30.386,30.386,0,0,1,12.068,14.352c2.779,7.095,2.631,15.284-.428,23.68-3.078,8.443-8.958,16.691-17.006,23.852l-.04-.033.04.033c-11.348,10.1-20.57,17.135-29.02,22.148-9.089,5.393-17.458,8.581-26.338,10.035A69.971,69.971,0,0,1-5835.9,3871.626Zm-10.98-110a77.136,77.136,0,0,0-14,1.177,68.623,68.623,0,0,0-22.183,8.33c-7.557,4.312-15.82,10.492-25.262,18.893-13.937,12.4-19.86,26.274-16.678,39.065,3.216,12.928,15.411,23.658,34.339,30.212,15.641,5.416,27.086,8.647,37.115,10.477,11.026,2.012,20.242,2.28,29,.846,8.864-1.451,17.219-4.635,26.3-10.019,8.444-5.01,17.66-12.043,29-22.136,8.036-7.15,13.908-15.385,16.98-23.814,3.053-8.377,3.2-16.545.429-23.621a30.286,30.286,0,0,0-12.03-14.306c-6.175-4.051-14.142-6.757-23.682-8.043-7.321-.988-14.151-2-20.178-2.9-11.229-1.666-20.928-3.1-29.537-3.77C-5840.7,3761.76-5843.885,3761.626-5846.882,3761.626Z" transform="translate(5925.958 -3761.53)" fill="url(#linear-gradient-26)"/>
        </g>
      </g>
      <g id="Group_68212" data-name="Group 68212" transform="translate(0.372 0.426)">
        <g id="Group_68211" data-name="Group 68211">
          <path id="Path_41291" data-name="Path 41291" d="M-5834.441,3873.389a101.958,101.958,0,0,1-15.476-1.283c-10.1-1.55-21.675-4.466-37.528-9.455-19.215-6.046-31.863-16.489-35.617-29.4-3.713-12.778,1.643-26.9,15.082-39.772,9.093-8.708,17.1-15.152,24.479-19.7a67.682,67.682,0,0,1,21.858-9.011c6.776-1.452,14.271-1.917,23.588-1.462,8.632.421,18.382,1.587,29.672,2.937,6.058.725,12.922,1.545,20.276,2.326,9.6,1.019,17.68,3.509,24.028,7.4a31.023,31.023,0,0,1,12.649,14.044c3.077,7.042,3.27,15.267.559,23.786-2.727,8.566-8.264,17.017-16.014,24.438l-.042-.032.042.032c-10.922,10.459-19.845,17.787-28.081,23.06-8.858,5.672-17.088,9.113-25.9,10.826A70.552,70.552,0,0,1-5834.441,3873.389Zm-10.15-110.158a80.473,80.473,0,0,0-17.025,1.626,67.573,67.573,0,0,0-21.819,9c-7.372,4.544-15.373,10.984-24.461,19.687-13.414,12.845-18.761,26.939-15.056,39.685,3.744,12.883,16.367,23.3,35.546,29.336,15.848,4.987,27.416,7.9,37.51,9.45,11.1,1.7,20.314,1.708,29.006.018,8.8-1.711,17.013-5.146,25.858-10.81,8.23-5.27,17.148-12.593,28.064-23.047,7.738-7.41,13.267-15.847,15.988-24.4,2.7-8.5,2.513-16.7-.555-23.727a30.93,30.93,0,0,0-12.609-14c-6.333-3.884-14.4-6.369-23.976-7.385-7.355-.781-14.221-1.6-20.278-2.327-11.287-1.35-21.035-2.516-29.664-2.937C-5840.341,3763.287-5842.513,3763.23-5844.591,3763.23Z" transform="translate(5924.21 -3763.134)" fill="url(#linear-gradient-27)"/>
        </g>
      </g>
    </g>
    <g id="Group_68220" data-name="Group 68220" transform="translate(-5936.301 3723.848)">
      <g id="Group_68215" data-name="Group 68215">
        <g id="Group_68214" data-name="Group 68214">
          <path id="Path_41292" data-name="Path 41292" d="M-5839.356,3866.251a91.563,91.563,0,0,1-21.827-2.9c-9.87-2.407-21.04-6.292-36.22-12.595-18.395-7.638-29.717-19.044-31.881-32.118-2.143-12.94,4.915-26.422,19.872-37.962,10.118-7.807,18.878-13.473,26.782-17.323a70.461,70.461,0,0,1,22.866-7,91.365,91.365,0,0,1,23.669.606c8.546,1.166,18.114,3.164,29.192,5.478,5.943,1.241,12.681,2.648,19.909,4.058,9.441,1.841,17.194,5.007,23.044,9.409a29.33,29.33,0,0,1,10.876,14.987c2.192,7.217,1.374,15.349-2.367,23.516-3.762,8.213-10.3,16.068-18.92,22.717l-.038-.036.038.036c-12.152,9.377-21.933,15.836-30.778,20.327-9.515,4.83-18.131,7.512-27.115,8.438A69.037,69.037,0,0,1-5839.356,3866.251Zm-11.628-110.316a72.088,72.088,0,0,0-8.763.512,70.312,70.312,0,0,0-22.828,6.987c-7.9,3.846-16.65,9.508-26.763,17.31-14.928,11.518-21.972,24.971-19.835,37.878,2.16,13.041,13.459,24.421,31.819,32.045,15.174,6.3,26.339,10.183,36.2,12.589,10.844,2.645,20.023,3.451,28.884,2.537,8.969-.925,17.571-3.6,27.071-8.426,8.838-4.487,18.614-10.943,30.761-20.315,8.6-6.638,15.136-14.481,18.891-22.68,3.732-8.148,4.549-16.26,2.363-23.456a29.23,29.23,0,0,0-10.842-14.939c-5.834-4.392-13.572-7.55-22.995-9.388-7.229-1.409-13.966-2.817-19.91-4.058-11.077-2.313-20.642-4.311-29.183-5.476A110.071,110.071,0,0,0-5850.985,3755.935Z" transform="translate(5929.661 -3755.838)" fill="url(#linear-gradient-28)"/>
        </g>
      </g>
      <g id="Group_68217" data-name="Group 68217" transform="translate(0.084 0.235)">
        <g id="Group_68216" data-name="Group 68216">
          <path id="Path_41293" data-name="Path 41293" d="M-5838.689,3868.243a94.444,94.444,0,0,1-19.847-2.315c-9.959-2.132-21.28-5.709-36.7-11.6-18.694-7.137-30.474-18.26-33.17-31.322-2.667-12.923,3.833-26.654,18.3-38.665,9.79-8.126,18.31-14.065,26.049-18.156a69.468,69.468,0,0,1,22.56-7.681c6.885-1.047,14.407-1.07,23.673-.073,8.586.924,18.228,2.654,29.39,4.657,5.99,1.075,12.778,2.293,20.058,3.5,9.5,1.576,17.378,4.528,23.4,8.775a29.945,29.945,0,0,1,11.483,14.718c2.491,7.181,2.01,15.368-1.393,23.676-3.42,8.354-9.637,16.428-17.976,23.351l-.04-.034.04.034c-11.759,9.761-21.266,16.525-29.919,21.286-9.309,5.122-17.807,8.061-26.746,9.249A69.192,69.192,0,0,1-5838.689,3868.243ZM-5850.28,3757.8a74.08,74.08,0,0,0-11.2.8,69.349,69.349,0,0,0-22.521,7.669c-7.731,4.087-16.246,10.022-26.029,18.143-14.44,11.987-20.929,25.688-18.268,38.579,2.689,13.029,14.445,24.127,33.1,31.25,15.419,5.886,26.733,9.461,36.686,11.592,10.944,2.343,20.147,2.888,28.964,1.715,8.922-1.187,17.407-4.121,26.7-9.235,8.646-4.758,18.148-11.518,29.9-21.274,8.327-6.912,14.533-14.974,17.949-23.313,3.394-8.289,3.875-16.455,1.392-23.616a29.857,29.857,0,0,0-11.447-14.672c-6.009-4.236-13.866-7.182-23.352-8.754-7.281-1.207-14.069-2.425-20.059-3.5-11.161-2-20.8-3.732-29.382-4.656A116.386,116.386,0,0,0-5850.28,3757.8Z" transform="translate(5928.997 -3757.703)" fill="url(#linear-gradient-29)"/>
        </g>
      </g>
      <g id="Group_68219" data-name="Group 68219" transform="translate(0.236 0.46)">
        <g id="Group_68218" data-name="Group 68218">
          <path id="Path_41294" data-name="Path 41294" d="M-5837.6,3870.166a97.717,97.717,0,0,1-17.773-1.782c-10.038-1.853-21.492-5.116-37.144-10.582-18.967-6.624-31.191-17.448-34.419-30.479-3.193-12.893,2.738-26.861,16.7-39.332,9.448-8.438,17.717-14.644,25.281-18.972a68.445,68.445,0,0,1,22.225-8.359c6.835-1.249,14.349-1.489,23.647-.756,8.616.68,18.318,2.139,29.553,3.827,6.027.906,12.859,1.933,20.181,2.935,9.554,1.306,17.537,4.04,23.727,8.125a30.574,30.574,0,0,1,12.077,14.427c2.789,7.136,2.648,15.37-.41,23.81-3.075,8.487-8.956,16.774-17.008,23.966-11.348,10.135-20.569,17.2-29.02,22.225-9.089,5.408-17.459,8.6-26.341,10.053A69.548,69.548,0,0,1-5837.6,3870.166Zm-11.229-110.579a76.6,76.6,0,0,0-13.877,1.166,68.352,68.352,0,0,0-22.186,8.345c-7.557,4.325-15.82,10.526-25.262,18.959-13.937,12.447-19.857,26.385-16.672,39.245,3.22,13,15.42,23.8,34.353,30.41,15.645,5.463,27.095,8.726,37.125,10.577,11.029,2.036,20.246,2.318,29.005.887,8.866-1.448,17.222-4.638,26.3-10.038,8.444-5.024,17.66-12.083,29-22.213l.041.033-.041-.033c8.04-7.181,13.912-15.455,16.982-23.927,3.051-8.421,3.193-16.634.411-23.751a30.484,30.484,0,0,0-12.04-14.382c-6.175-4.074-14.141-6.8-23.676-8.106-7.323-1-14.156-2.029-20.184-2.935-11.232-1.688-20.933-3.147-29.544-3.826C-5842.573,3759.725-5845.8,3759.587-5848.834,3759.587Z" transform="translate(5927.785 -3759.49)" fill="url(#linear-gradient-30)"/>
        </g>
      </g>
    </g>
    <g id="Group_68227" data-name="Group 68227" transform="translate(-5936.543 3723.342)">
      <g id="Group_68222" data-name="Group 68222">
        <g id="Group_68221" data-name="Group 68221">
          <path id="Path_41295" data-name="Path 41295" d="M-5841.292,3862.685a88.479,88.479,0,0,1-23.812-3.589c-9.769-2.7-20.779-6.924-35.7-13.683-18.079-8.191-28.934-19.94-30.565-33.083-1.614-13.009,5.991-26.284,21.414-37.381,10.434-7.507,19.423-12.913,27.481-16.527a71.031,71.031,0,0,1,23.146-6.316,91.227,91.227,0,0,1,23.638,1.315c8.5,1.422,17.981,3.707,28.962,6.353,5.892,1.42,12.57,3.029,19.739,4.656,9.364,2.124,16.986,5.523,22.655,10.1a28.933,28.933,0,0,1,10.263,15.318c1.9,7.285.748,15.4-3.325,23.453-4.1,8.1-10.956,15.766-19.841,22.158l-.036-.037.036.037c-12.532,9.017-22.573,15.186-31.6,19.413-9.709,4.547-18.432,6.972-27.452,7.63Q-5838.771,3862.685-5841.292,3862.685Zm-11.6-110.771c-2.209,0-4.338.1-6.417.287a70.917,70.917,0,0,0-23.106,6.305c-8.051,3.611-17.034,9.013-27.461,16.516-15.395,11.075-22.984,24.321-21.374,37.3,1.627,13.11,12.46,24.833,30.505,33.009,14.914,6.757,25.918,10.975,35.681,13.677,10.734,2.97,19.877,4.052,28.774,3.4,9-.657,17.713-3.077,27.408-7.618,9.02-4.225,19.055-10.39,31.581-19.4,8.872-6.383,15.722-14.033,19.81-22.122,4.063-8.04,5.21-16.129,3.318-23.394a28.84,28.84,0,0,0-10.231-15.269c-5.654-4.568-13.261-7.959-22.606-10.08-7.17-1.626-13.848-3.236-19.74-4.656-10.979-2.646-20.461-4.931-28.953-6.352A104,104,0,0,0-5852.9,3751.914Z" transform="translate(5931.58 -3751.817)" fill="url(#linear-gradient-31)"/>
        </g>
      </g>
      <g id="Group_68224" data-name="Group 68224" transform="translate(0.014 0.236)">
        <g id="Group_68223" data-name="Group 68223">
          <path id="Path_41296" data-name="Path 41296" d="M-5841.065,3864.693a91.039,91.039,0,0,1-21.91-2.943c-9.871-2.431-21.043-6.348-36.227-12.7-18.4-7.7-29.726-19.18-31.889-32.327-2.141-13.007,4.917-26.549,19.872-38.131,10.119-7.836,18.88-13.522,26.785-17.382a70.111,70.111,0,0,1,22.869-7.009,90.955,90.955,0,0,1,23.672.636c8.547,1.181,18.116,3.2,29.2,5.539,5.945,1.255,12.683,2.677,19.912,4.1,9.439,1.861,17.19,5.05,23.041,9.479a29.528,29.528,0,0,1,10.882,15.068c2.2,7.258,1.383,15.433-2.357,23.642-3.761,8.255-10.3,16.146-18.924,22.821-12.154,9.413-21.935,15.894-30.781,20.4-9.516,4.845-18.132,7.53-27.118,8.451A68.617,68.617,0,0,1-5841.065,3864.693Zm-11.812-110.9a71.659,71.659,0,0,0-8.672.505,70,70,0,0,0-22.83,7c-7.9,3.857-16.652,9.539-26.765,17.37-14.926,11.559-21.971,25.071-19.836,38.046,2.158,13.114,13.461,24.569,31.827,32.254,15.177,6.35,26.343,10.266,36.208,12.7,10.846,2.671,20.025,3.492,28.888,2.583,8.969-.92,17.573-3.6,27.074-8.439,8.84-4.5,18.615-10.979,30.764-20.386l.038.036-.038-.036c8.606-6.666,15.141-14.544,18.895-22.785,3.731-8.19,4.545-16.344,2.353-23.583a29.435,29.435,0,0,0-10.847-15.02c-5.836-4.418-13.571-7.6-22.992-9.457-7.23-1.426-13.968-2.848-19.913-4.1-11.078-2.338-20.645-4.357-29.188-5.538A109.31,109.31,0,0,0-5852.876,3753.791Z" transform="translate(5931.466 -3753.694)" fill="url(#linear-gradient-32)"/>
        </g>
      </g>
      <g id="Group_68226" data-name="Group 68226" transform="translate(0.098 0.472)">
        <g id="Group_68225" data-name="Group 68225">
          <path id="Path_41297" data-name="Path 41297" d="M-5840.393,3866.692a93.919,93.919,0,0,1-19.934-2.35c-9.961-2.154-21.283-5.762-36.71-11.7-18.7-7.2-30.479-18.39-33.176-31.522-2.669-12.993,3.831-26.788,18.3-38.845,9.791-8.157,18.311-14.117,26.051-18.221a69.148,69.148,0,0,1,22.563-7.7c6.886-1.045,14.409-1.06,23.677-.047,8.586.938,18.229,2.688,29.395,4.715,5.99,1.087,12.779,2.319,20.061,3.541,9.5,1.594,17.371,4.568,23.394,8.839a30.142,30.142,0,0,1,11.489,14.794c2.5,7.223,2.023,15.455-1.378,23.806-3.42,8.4-9.638,16.512-17.981,23.464-11.76,9.8-21.268,16.586-29.921,21.363-9.31,5.138-17.809,8.083-26.749,9.267A68.828,68.828,0,0,1-5840.393,3866.692Zm-11.788-111.031a73.57,73.57,0,0,0-11.1.793,69.048,69.048,0,0,0-22.524,7.683c-7.732,4.1-16.247,10.055-26.031,18.208-14.441,12.034-20.929,25.8-18.267,38.759,2.69,13.1,14.45,24.269,33.112,31.451,15.422,5.935,26.738,9.541,36.692,11.694,10.945,2.367,20.15,2.925,28.967,1.757,8.923-1.182,17.409-4.123,26.7-9.253,8.648-4.772,18.151-11.557,29.9-21.351l.039.035-.039-.035c8.332-6.942,14.54-15.043,17.953-23.427,3.394-8.332,3.87-16.544,1.378-23.747a30.056,30.056,0,0,0-11.453-14.748c-6.009-4.261-13.863-7.228-23.345-8.818-7.282-1.222-14.072-2.454-20.062-3.541-11.163-2.026-20.8-3.776-29.386-4.714A115.579,115.579,0,0,0-5852.181,3755.661Z" transform="translate(5930.8 -3755.565)" fill="url(#linear-gradient-33)"/>
        </g>
      </g>
    </g>
    <g id="Group_68234" data-name="Group 68234" transform="translate(-5936.768 3722.83)">
      <g id="Group_68229" data-name="Group 68229" transform="translate(0.056)">
        <g id="Group_68228" data-name="Group 68228">
          <path id="Path_41298" data-name="Path 41298" d="M-5842.755,3859.065a85.729,85.729,0,0,1-25.728-4.335c-9.655-3-20.491-7.549-35.13-14.757-17.739-8.735-28.112-20.814-29.208-34.011-1.084-13.061,7.059-26.114,22.928-36.752,10.736-7.2,19.943-12.336,28.146-15.71a71.566,71.566,0,0,1,23.4-5.625,90.968,90.968,0,0,1,23.577,2.023c8.437,1.677,17.824,4.247,28.694,7.223,5.832,1.6,12.442,3.406,19.542,5.248,9.274,2.406,16.757,6.034,22.237,10.784a28.56,28.56,0,0,1,9.636,15.631c1.6,7.345.121,15.423-4.278,23.362-4.424,7.984-11.595,15.443-20.737,21.571l-.035-.038.035.038c-12.9,8.645-23.185,14.515-32.379,18.474-9.891,4.258-18.71,6.422-27.755,6.81Q-5841.28,3859.065-5842.755,3859.065Zm-11.37-111.221c-1.432,0-2.834.043-4.218.128a71.428,71.428,0,0,0-23.355,5.615c-8.2,3.371-17.4,8.506-28.125,15.7-15.84,10.618-23.966,23.641-22.885,36.67,1.092,13.164,11.445,25.215,29.151,33.934,14.634,7.206,25.463,11.755,35.112,14.75,10.61,3.293,19.707,4.649,28.627,4.266,9.027-.387,17.833-2.548,27.709-6.8,9.189-3.956,19.472-9.823,32.361-18.463,9.128-6.119,16.288-13.567,20.7-21.536,4.389-7.921,5.865-15.979,4.269-23.3a28.459,28.459,0,0,0-9.606-15.581c-5.467-4.739-12.932-8.359-22.189-10.76-7.1-1.842-13.711-3.652-19.543-5.249-10.868-2.976-20.254-5.545-28.686-7.221A98.805,98.805,0,0,0-5854.125,3747.844Z" transform="translate(5932.917 -3747.747)" fill="url(#linear-gradient-34)"/>
        </g>
      </g>
      <g id="Group_68231" data-name="Group 68231" transform="translate(0 0.231)">
        <g id="Group_68230" data-name="Group 68230">
          <path id="Path_41299" data-name="Path 41299" d="M-5843,3861.045a88.04,88.04,0,0,1-23.884-3.632c-9.77-2.728-20.78-6.981-35.7-13.792-18.083-8.254-28.938-20.078-30.566-33.294-1.611-13.076,6-26.411,21.419-37.549,10.435-7.536,19.426-12.961,27.485-16.586a70.723,70.723,0,0,1,23.149-6.325,90.776,90.776,0,0,1,23.64,1.346c8.5,1.438,17.981,3.745,28.964,6.416,5.892,1.433,12.57,3.057,19.739,4.7,9.361,2.144,16.981,5.567,22.65,10.173a29.134,29.134,0,0,1,10.266,15.4c1.9,7.327.755,15.48-3.318,23.58-4.1,8.145-10.958,15.843-19.848,22.262-12.534,9.051-22.576,15.242-31.6,19.482-9.71,4.562-18.434,6.99-27.455,7.642Q-5840.513,3861.044-5843,3861.045Zm-11.745-111.364c-2.182,0-4.285.094-6.341.281a70.582,70.582,0,0,0-23.108,6.315c-8.052,3.622-17.037,9.043-27.465,16.574-15.393,11.116-22.985,24.422-21.379,37.465,1.624,13.184,12.458,24.981,30.507,33.219,14.915,6.808,25.919,11.059,35.683,13.785,10.735,3,19.878,4.094,28.776,3.45,9.005-.651,17.715-3.076,27.411-7.631,9.021-4.238,19.058-10.425,31.585-19.472l.036.037-.036-.037c8.876-6.41,15.729-14.1,19.818-22.227,4.063-8.081,5.208-16.214,3.312-23.521a29.046,29.046,0,0,0-10.233-15.351c-5.655-4.594-13.259-8.009-22.6-10.149-7.17-1.643-13.849-3.267-19.741-4.7-10.98-2.671-20.463-4.977-28.956-6.414A103.339,103.339,0,0,0-5854.742,3749.681Z" transform="translate(5933.36 -3749.584)" fill="url(#linear-gradient-35)"/>
        </g>
      </g>
      <g id="Group_68233" data-name="Group 68233" transform="translate(0.014 0.468)">
        <g id="Group_68232" data-name="Group 68232">
          <path id="Path_41300" data-name="Path 41300" d="M-5842.771,3863.061a90.561,90.561,0,0,1-21.983-2.981c-9.872-2.454-21.045-6.4-36.229-12.8-18.4-7.759-29.727-19.311-31.889-32.529-2.14-13.078,4.919-26.684,19.876-38.311,10.12-7.867,18.882-13.573,26.788-17.446a69.807,69.807,0,0,1,22.872-7.022,90.491,90.491,0,0,1,23.675.664c8.547,1.2,18.117,3.236,29.2,5.6,5.945,1.267,12.683,2.7,19.913,4.144,9.434,1.879,17.183,5.09,23.032,9.544a29.726,29.726,0,0,1,10.886,15.144c2.205,7.3,1.394,15.521-2.347,23.773-3.761,8.3-10.308,16.229-18.934,22.933l-.038-.036.038.036c-12.155,9.449-21.937,15.955-30.785,20.474-9.516,4.861-18.135,7.551-27.121,8.468A68.373,68.373,0,0,1-5842.771,3863.061Zm-11.959-111.5a71.177,71.177,0,0,0-8.59.5,69.69,69.69,0,0,0-22.832,7.01c-7.9,3.869-16.654,9.572-26.769,17.434-14.929,11.6-21.975,25.18-19.84,38.226,2.157,13.185,13.461,24.711,31.828,32.455,15.177,6.4,26.346,10.346,36.21,12.8a90.463,90.463,0,0,0,21.952,2.977,68.177,68.177,0,0,0,6.939-.351c8.97-.915,17.574-3.6,27.077-8.455,8.841-4.515,18.617-11.017,30.768-20.462,8.613-6.695,15.149-14.613,18.9-22.9,3.731-8.234,4.542-16.434,2.342-23.714a29.633,29.633,0,0,0-10.851-15.1c-5.835-4.443-13.568-7.647-22.983-9.522-7.23-1.44-13.969-2.877-19.915-4.144-11.078-2.361-20.646-4.4-29.189-5.6A108.585,108.585,0,0,0-5854.73,3751.565Z" transform="translate(5933.248 -3751.469)" fill="url(#linear-gradient-36)"/>
        </g>
      </g>
    </g>
    <g id="Group_68241" data-name="Group 68241" transform="translate(-5936.989 3722.317)">
      <g id="Group_68236" data-name="Group 68236" transform="translate(0.183)">
        <g id="Group_68235" data-name="Group 68235">
          <path id="Path_41301" data-name="Path 41301" d="M-5843.721,3855.435c-8.66,0-17.457-1.64-27.6-5.138-9.531-3.288-20.175-8.165-34.515-15.815-17.377-9.27-27.255-21.663-27.813-34.9-.553-13.1,8.118-25.91,24.415-36.077,11.024-6.877,20.436-11.742,28.773-14.871a72.024,72.024,0,0,1,23.615-4.926,90.648,90.648,0,0,1,23.486,2.73c8.364,1.93,17.644,4.783,28.388,8.085,5.765,1.772,12.3,3.78,19.321,5.836,9.173,2.684,16.5,6.538,21.789,11.454a28.2,28.2,0,0,1,9,15.925c1.3,7.395-.507,15.431-5.227,23.241-4.747,7.853-12.218,15.1-21.606,20.956l-.033-.039.033.039c-13.242,8.261-23.766,13.824-33.118,17.509-10.061,3.963-18.964,5.863-28.02,5.98C-5843.128,3855.433-5843.425,3855.435-5843.721,3855.435Zm-11-111.658q-1.069,0-2.122.033a71.906,71.906,0,0,0-23.575,4.917c-8.329,3.127-17.734,7.988-28.752,14.861-16.266,10.147-24.919,22.93-24.369,36,.557,13.2,10.416,25.566,27.76,34.818,14.334,7.647,24.974,12.522,34.5,15.807,10.471,3.612,19.508,5.24,28.44,5.125,9.041-.117,17.929-2.014,27.975-5.972,9.346-3.682,19.863-9.242,33.1-17.5,9.374-5.848,16.833-13.083,21.573-20.923,4.709-7.792,6.513-15.807,5.215-23.182a28.108,28.108,0,0,0-8.968-15.874c-5.272-4.9-12.587-8.749-21.743-11.428-7.023-2.056-13.558-4.064-19.323-5.836-10.742-3.3-20.02-6.154-28.379-8.083A94.3,94.3,0,0,0-5854.716,3743.776Z" transform="translate(5933.67 -3743.679)" fill="url(#linear-gradient-37)"/>
        </g>
      </g>
      <g id="Group_68238" data-name="Group 68238" transform="translate(0.056 0.221)">
        <g id="Group_68237" data-name="Group 68237">
          <path id="Path_41302" data-name="Path 41302" d="M-5844.459,3857.351a85.3,85.3,0,0,1-25.791-4.381c-9.656-3.021-20.489-7.607-35.128-14.867-17.742-8.8-28.112-20.953-29.2-34.222-1.078-13.129,7.068-26.24,22.939-36.919,10.738-7.225,19.946-12.383,28.15-15.768a71.227,71.227,0,0,1,23.4-5.633,90.544,90.544,0,0,1,23.578,2.055c8.436,1.693,17.823,4.286,28.693,7.287,5.832,1.61,12.442,3.436,19.542,5.293,9.271,2.426,16.75,6.078,22.229,10.856a28.757,28.757,0,0,1,9.637,15.712c1.6,7.386.125,15.509-4.276,23.489-4.426,8.024-11.6,15.52-20.748,21.674l-.035-.038.035.038c-12.9,8.679-23.188,14.571-32.386,18.542-9.892,4.272-18.712,6.439-27.756,6.821Q-5843.015,3857.351-5844.459,3857.351Zm-11.472-111.819c-1.409,0-2.79.042-4.152.125a71.106,71.106,0,0,0-23.358,5.624c-8.2,3.382-17.4,8.536-28.13,15.757-15.84,10.658-23.972,23.741-22.9,36.837,1.087,13.237,11.438,25.363,29.146,34.146,14.633,7.257,25.462,11.84,35.111,14.86a85.183,85.183,0,0,0,25.752,4.375q1.443,0,2.875-.061c9.028-.381,17.834-2.545,27.712-6.811,9.189-3.968,19.474-9.857,32.366-18.531,9.134-6.146,16.3-13.629,20.715-21.64,4.391-7.961,5.866-16.063,4.267-23.429a28.667,28.667,0,0,0-9.606-15.662c-5.466-4.766-12.929-8.41-22.181-10.831-7.1-1.858-13.712-3.684-19.544-5.294-10.868-3-20.253-5.593-28.685-7.285A98.212,98.212,0,0,0-5855.931,3745.532Z" transform="translate(5934.675 -3745.435)" fill="url(#linear-gradient-38)"/>
        </g>
      </g>
      <g id="Group_68240" data-name="Group 68240" transform="translate(0 0.453)">
        <g id="Group_68239" data-name="Group 68239">
          <path id="Path_41303" data-name="Path 41303" d="M-5844.706,3859.337a87.57,87.57,0,0,1-23.946-3.673c-9.77-2.751-20.779-7.037-35.7-13.9-18.082-8.313-28.935-20.209-30.56-33.5-1.607-13.146,6-26.545,21.429-37.728,10.438-7.566,19.43-13.012,27.49-16.649a70.4,70.4,0,0,1,23.152-6.338,90.335,90.335,0,0,1,23.642,1.374c8.5,1.453,17.981,3.781,28.964,6.476,5.892,1.446,12.57,3.085,19.74,4.743,9.355,2.163,16.971,5.608,22.638,10.238a29.331,29.331,0,0,1,10.268,15.477c1.908,7.369.762,15.568-3.312,23.711-4.1,8.188-10.965,15.925-19.86,22.374l-.037-.037.037.037c-12.537,9.088-22.582,15.3-31.61,19.557-9.711,4.576-18.437,7.01-27.458,7.657Q-5842.252,3859.337-5844.706,3859.337Zm-11.849-111.963c-2.158,0-4.239.093-6.273.277a70.267,70.267,0,0,0-23.112,6.327c-8.053,3.634-17.039,9.076-27.47,16.637-15.4,11.161-22.993,24.53-21.39,37.644,1.621,13.255,12.453,25.124,30.5,33.422,14.914,6.857,25.918,11.141,35.681,13.89,10.735,3.023,19.879,4.133,28.777,3.494,9.005-.646,17.716-3.076,27.414-7.646,9.021-4.252,19.06-10.463,31.591-19.546,8.883-6.439,15.739-14.163,19.83-22.338,4.065-8.125,5.208-16.3,3.306-23.653a29.24,29.24,0,0,0-10.235-15.427c-5.653-4.62-13.253-8.057-22.59-10.215-7.17-1.658-13.849-3.3-19.742-4.743-10.979-2.695-20.462-5.022-28.955-6.474A102.713,102.713,0,0,0-5856.555,3747.375Z" transform="translate(5935.123 -3747.278)" fill="url(#linear-gradient-39)"/>
        </g>
      </g>
    </g>
    <g id="Group_68248" data-name="Group 68248" transform="translate(-5937.152 3721.81)">
      <g id="Group_68243" data-name="Group 68243" transform="translate(0.325)">
        <g id="Group_68242" data-name="Group 68242">
          <path id="Path_41304" data-name="Path 41304" d="M-5844.17,3851.824c-.39,0-.779,0-1.169-.01-8.948-.153-17.929-2.055-28.263-5.988-9.392-3.574-19.833-8.772-33.855-16.854-16.991-9.793-26.361-22.486-26.38-35.74-.02-13.118,9.167-25.673,25.869-35.354,11.3-6.548,20.9-11.132,29.365-14.012a72.4,72.4,0,0,1,23.8-4.218h.1a90.4,90.4,0,0,1,23.265,3.436c8.282,2.181,17.44,5.313,28.045,8.938,5.69,1.945,12.139,4.15,19.075,6.417,9.059,2.96,16.23,7.035,21.313,12.111a27.874,27.874,0,0,1,8.345,16.2c1,7.436-1.134,15.42-6.17,23.09-5.063,7.713-12.826,14.738-22.447,20.314-13.571,7.866-24.316,13.115-33.813,16.52C-5826.866,3850.177-5835.508,3851.824-5844.17,3851.824Zm-10.532-112.08h-.1a72.287,72.287,0,0,0-23.763,4.212c-8.452,2.878-18.05,7.458-29.342,14-16.669,9.662-25.839,22.189-25.819,35.274.019,13.221,9.37,25.885,26.33,35.66,14.017,8.079,24.453,13.274,33.838,16.846,10.319,3.927,19.287,5.827,28.219,5.98,9.04.152,18-1.478,28.2-5.134,9.491-3.4,20.229-8.649,33.794-16.511l.031.04-.031-.04c9.607-5.568,17.357-12.581,22.413-20.281,5.024-7.652,7.152-15.617,6.156-23.032a27.784,27.784,0,0,0-8.319-16.146c-5.07-5.063-12.226-9.129-21.267-12.083-6.936-2.267-13.386-4.472-19.076-6.417-10.6-3.625-19.759-6.756-28.037-8.936A90.278,90.278,0,0,0-5854.7,3739.744Z" transform="translate(5933.837 -3739.648)" fill="url(#linear-gradient-40)"/>
        </g>
      </g>
      <g id="Group_68245" data-name="Group 68245" transform="translate(0.127 0.207)">
        <g id="Group_68244" data-name="Group 68244">
          <path id="Path_41305" data-name="Path 41305" d="M-5845.424,3853.652c-8.677,0-17.489-1.656-27.648-5.187-9.529-3.312-20.172-8.224-34.51-15.926-17.376-9.334-27.25-21.8-27.8-35.109-.545-13.166,8.132-26.037,24.43-36.243,11.027-6.905,20.441-11.788,28.78-14.927a71.678,71.678,0,0,1,23.618-4.933,90.221,90.221,0,0,1,23.485,2.763c8.363,1.947,17.642,4.822,28.385,8.15,5.764,1.786,12.3,3.81,19.319,5.882,9.168,2.705,16.5,6.583,21.778,11.526a28.4,28.4,0,0,1,8.994,16.007c1.3,7.436-.505,15.517-5.229,23.367-4.75,7.894-12.226,15.176-21.62,21.059-13.246,8.294-23.771,13.879-33.126,17.575-10.062,3.976-18.966,5.88-28.023,5.99C-5844.866,3853.65-5845.146,3853.652-5845.424,3853.652Zm-11.058-112.26q-1.042,0-2.069.032a71.555,71.555,0,0,0-23.577,4.925c-8.331,3.136-17.738,8.016-28.759,14.917-16.267,10.186-24.927,23.029-24.384,36.161.549,13.274,10.4,25.714,27.748,35.031,14.332,7.7,24.969,12.607,34.492,15.917,10.47,3.64,19.507,5.284,28.44,5.175,9.04-.111,17.93-2.011,27.977-5.981,9.348-3.694,19.867-9.275,33.106-17.566l.033.039-.033-.039c9.38-5.874,16.844-13.144,21.586-21.025,4.713-7.832,6.517-15.892,5.217-23.309a28.315,28.315,0,0,0-8.965-15.956c-5.27-4.931-12.582-8.8-21.732-11.5-7.023-2.072-13.556-4.1-19.321-5.882-10.742-3.328-20.018-6.2-28.377-8.148A93.721,93.721,0,0,0-5856.481,3741.392Z" transform="translate(5935.406 -3741.295)" fill="url(#linear-gradient-41)"/>
        </g>
      </g>
      <g id="Group_68247" data-name="Group 68247" transform="translate(0 0.429)">
        <g id="Group_68246" data-name="Group 68246">
          <path id="Path_41306" data-name="Path 41306" d="M-5846.168,3855.575c-8.042,0-16.335-1.426-25.842-4.424-9.655-3.045-20.486-7.663-35.123-14.972-17.738-8.86-28.1-21.086-29.189-34.427-1.073-13.2,7.079-26.374,22.954-37.1,10.742-7.255,19.952-12.433,28.158-15.829a70.908,70.908,0,0,1,23.4-5.646,90.171,90.171,0,0,1,23.579,2.085c8.436,1.708,17.822,4.322,28.691,7.348,5.832,1.623,12.44,3.463,19.542,5.337,9.263,2.444,16.738,6.119,22.214,10.921a28.956,28.956,0,0,1,9.636,15.791c1.608,7.429.13,15.6-4.274,23.62-4.428,8.068-11.608,15.6-20.763,21.785-12.9,8.714-23.195,14.629-32.394,18.615-9.894,4.286-18.714,6.458-27.76,6.835Q-5844.75,3855.575-5846.168,3855.575Zm-11.535-112.42c-1.391,0-2.753.041-4.1.122a70.772,70.772,0,0,0-23.361,5.636c-8.2,3.393-17.4,8.567-28.137,15.818-15.845,10.7-23.981,23.847-22.911,37.014,1.082,13.308,11.428,25.507,29.133,34.35,14.629,7.307,25.458,11.923,35.105,14.966,10.609,3.346,19.7,4.732,28.625,4.359,9.029-.376,17.836-2.545,27.716-6.825,9.191-3.982,19.479-9.894,32.375-18.6l.034.038-.034-.038c9.141-6.175,16.31-13.7,20.73-21.75,4.394-8.006,5.868-16.153,4.265-23.561a28.864,28.864,0,0,0-9.605-15.74c-5.464-4.791-12.921-8.457-22.167-10.9-7.1-1.874-13.711-3.714-19.543-5.337-10.866-3.025-20.25-5.638-28.682-7.346A97.594,97.594,0,0,0-5857.7,3743.154Z" transform="translate(5936.416 -3743.058)" fill="url(#linear-gradient-42)"/>
        </g>
      </g>
    </g>
    <g id="Group_68255" data-name="Group 68255" transform="translate(-5937.242 3721.309)">
      <g id="Group_68250" data-name="Group 68250" transform="translate(0.467)">
        <g id="Group_68249" data-name="Group 68249">
          <path id="Path_41307" data-name="Path 41307" d="M-5844.121,3848.244q-1.606,0-3.209-.075c-8.937-.421-17.834-2.594-28-6.838-9.241-3.857-19.465-9.369-33.151-17.874-16.584-10.305-25.432-23.282-24.914-36.539.513-13.121,10.205-25.4,27.291-34.585,11.558-6.211,21.343-10.507,29.916-13.134a72.724,72.724,0,0,1,23.962-3.5,89.761,89.761,0,0,1,23.21,4.137c8.188,2.43,17.214,5.837,27.666,9.782,5.608,2.116,11.963,4.515,18.8,6.99,8.934,3.233,15.935,7.524,20.808,12.753a27.568,27.568,0,0,1,7.682,16.452c.7,7.467-1.759,15.389-7.1,22.91-5.374,7.563-13.417,14.356-23.259,19.645-13.883,7.46-24.834,12.388-34.465,15.509A80.664,80.664,0,0,1-5844.121,3848.244Zm-10.052-112.482a73.579,73.579,0,0,0-21.98,3.527c-8.564,2.625-18.342,6.918-29.894,13.125-17.053,9.163-26.726,21.418-27.238,34.507-.516,13.224,8.314,26.172,24.867,36.458,13.68,8.5,23.9,14.011,33.135,17.865,10.154,4.238,19.038,6.407,27.959,6.828,9.029.425,18.052-.937,28.4-4.289,9.624-3.118,20.569-8.044,34.445-15.5l.03.041-.03-.041c9.828-5.281,17.858-12.063,23.224-19.613,5.332-7.5,7.782-15.405,7.087-22.852a27.482,27.482,0,0,0-7.657-16.4c-4.862-5.217-11.848-9.5-20.765-12.725-6.84-2.475-13.2-4.874-18.8-6.991-10.45-3.944-19.474-7.351-27.658-9.78a89.633,89.633,0,0,0-23.177-4.132Q-5853.2,3735.762-5854.173,3735.762Z" transform="translate(5933.419 -3735.665)" fill="url(#linear-gradient-43)"/>
        </g>
      </g>
      <g id="Group_68252" data-name="Group 68252" transform="translate(0.199 0.193)">
        <g id="Group_68251" data-name="Group 68251">
          <path id="Path_41308" data-name="Path 41308" d="M-5845.873,3849.976c-.405,0-.809,0-1.214-.011-8.948-.159-17.928-2.078-28.259-6.038-9.39-3.6-19.829-8.832-33.846-16.966-16.989-9.858-26.351-22.626-26.361-35.953-.009-13.185,9.185-25.8,25.89-35.518,11.3-6.576,20.91-11.177,29.372-14.067a72.048,72.048,0,0,1,23.807-4.225h.055a89.9,89.9,0,0,1,23.307,3.469c8.28,2.2,17.437,5.353,28.04,9,5.688,1.959,12.136,4.18,19.071,6.463,9.054,2.981,16.22,7.08,21.3,12.183a28.076,28.076,0,0,1,8.34,16.281c1,7.478-1.135,15.506-6.175,23.217-5.068,7.754-12.836,14.813-22.464,20.415l-.032-.04.032.04c-13.576,7.9-24.323,13.169-33.823,16.585C-5828.6,3848.325-5837.225,3849.976-5845.873,3849.976Zm-10.557-112.682h-.055a71.937,71.937,0,0,0-23.766,4.219c-8.454,2.887-18.055,7.485-29.35,14.057-16.672,9.7-25.849,22.286-25.839,35.438.01,13.293,9.354,26.033,26.311,35.873,14.012,8.131,24.446,13.361,33.829,16.958,10.317,3.955,19.283,5.871,28.215,6.03,9.041.165,18-1.473,28.207-5.143,9.493-3.414,20.234-8.681,33.8-16.576,9.614-5.593,17.37-12.641,22.429-20.382,5.028-7.693,7.158-15.7,6.161-23.158a27.986,27.986,0,0,0-8.313-16.229c-5.067-5.091-12.218-9.181-21.254-12.156-6.935-2.283-13.383-4.5-19.073-6.464-10.6-3.651-19.755-6.8-28.032-9A89.794,89.794,0,0,0-5856.43,3737.294Z" transform="translate(5935.553 -3737.198)" fill="url(#linear-gradient-44)"/>
        </g>
      </g>
      <g id="Group_68254" data-name="Group 68254" transform="translate(0 0.401)">
        <g id="Group_68253" data-name="Group 68253">
          <path id="Path_41309" data-name="Path 41309" d="M-5847.133,3851.809c-8.692,0-17.517-1.67-27.691-5.233-9.527-3.336-20.167-8.281-34.5-16.033-17.372-9.395-27.238-21.936-27.78-35.313-.537-13.236,8.146-26.17,24.45-36.419,11.031-6.935,20.448-11.837,28.788-14.988a71.354,71.354,0,0,1,23.622-4.944,89.781,89.781,0,0,1,23.483,2.794c8.363,1.962,17.639,4.859,28.381,8.212,5.763,1.8,12.295,3.838,19.316,5.926,9.161,2.723,16.483,6.624,21.762,11.592a28.608,28.608,0,0,1,8.991,16.084c1.306,7.479-.5,15.605-5.231,23.5-4.753,7.938-12.236,15.257-21.638,21.167l-.033-.039.033.039c-13.25,8.33-23.78,13.937-33.136,17.647-10.064,3.991-18.969,5.9-28.026,6C-5846.606,3851.807-5846.87,3851.809-5847.133,3851.809Zm-11.084-112.863q-1.02,0-2.024.031a71.232,71.232,0,0,0-23.581,4.935c-8.332,3.148-17.742,8.047-28.767,14.977-16.272,10.23-24.939,23.135-24.4,36.337.542,13.344,10.389,25.858,27.728,35.235,14.327,7.749,24.963,12.691,34.483,16.025,10.468,3.666,19.5,5.326,28.438,5.221,9.04-.1,17.931-2.01,27.98-5.995,9.35-3.707,19.873-9.312,33.117-17.637,9.388-5.9,16.858-13.209,21.6-21.134,4.717-7.875,6.521-15.981,5.22-23.44a28.519,28.519,0,0,0-8.962-16.033c-5.267-4.957-12.573-8.848-21.716-11.566-7.022-2.088-13.554-4.127-19.318-5.926-10.739-3.353-20.014-6.248-28.373-8.21A93.177,93.177,0,0,0-5858.218,3738.946Z" transform="translate(5937.129 -3738.849)" fill="url(#linear-gradient-45)"/>
        </g>
      </g>
    </g>
    <g id="Group_68262" data-name="Group 68262" transform="translate(-5937.258 3720.814)">
      <g id="Group_68257" data-name="Group 68257" transform="translate(0.609)">
        <g id="Group_68256" data-name="Group 68256">
          <path id="Path_41310" data-name="Path 41310" d="M-5843.56,3844.7c-1.757,0-3.5-.068-5.244-.2-8.913-.689-17.717-3.13-27.706-7.679-9.079-4.135-19.073-9.956-32.4-18.873-16.155-10.805-24.47-24.05-23.414-37.294,1.045-13.108,11.229-25.1,28.676-33.772,11.8-5.865,21.756-9.868,30.429-12.238a72.933,72.933,0,0,1,24.088-2.786,89.177,89.177,0,0,1,23.027,4.835c8.084,2.677,16.966,6.355,27.251,10.615,5.518,2.285,11.771,4.875,18.507,7.557,8.8,3.5,15.619,8,20.276,13.38a27.293,27.293,0,0,1,7.009,16.686c.394,7.49-2.382,15.34-8.028,22.7-5.678,7.4-13.992,13.955-24.042,18.95-14.176,7.045-25.32,11.645-35.071,14.477A82.818,82.818,0,0,1-5843.56,3844.7Zm-9.525-112.865a75.147,75.147,0,0,0-20.1,2.9c-8.665,2.368-18.611,6.368-30.407,12.23-17.414,8.653-27.578,20.619-28.62,33.7-1.054,13.211,7.247,26.426,23.371,37.211,13.326,8.913,23.315,14.731,32.387,18.863,9.976,4.543,18.766,6.98,27.665,7.669,9.006.7,18.078-.4,28.551-3.437,9.744-2.83,20.881-7.427,35.052-14.469l.028.042-.028-.042c10.035-4.987,18.335-11.529,24-18.919,5.632-7.344,8.4-15.174,8.01-22.643a27.207,27.207,0,0,0-6.987-16.632c-4.646-5.364-11.454-9.855-20.234-13.351-6.735-2.681-12.99-5.272-18.508-7.557-10.283-4.258-19.163-7.936-27.243-10.612a89.019,89.019,0,0,0-22.994-4.829Q-5851.116,3731.831-5853.084,3731.831Z" transform="translate(5932.417 -3731.734)" fill="url(#linear-gradient-46)"/>
        </g>
      </g>
      <g id="Group_68259" data-name="Group 68259" transform="translate(0.27 0.178)">
        <g id="Group_68258" data-name="Group 68258">
          <path id="Path_41311" data-name="Path 41311" d="M-5845.824,3846.331q-1.625,0-3.245-.078c-8.937-.428-17.833-2.617-28-6.889-9.238-3.882-19.459-9.43-33.139-17.987-16.579-10.371-25.417-23.423-24.887-36.753.525-13.188,10.226-25.529,27.315-34.748,11.563-6.238,21.352-10.552,29.926-13.188a72.343,72.343,0,0,1,23.964-3.51,89.287,89.287,0,0,1,23.207,4.172c8.187,2.448,17.211,5.877,27.659,9.849,5.605,2.131,11.961,4.546,18.8,7.038,8.927,3.253,15.923,7.569,20.792,12.825a27.78,27.78,0,0,1,7.675,16.535c.7,7.509-1.764,15.475-7.113,23.036-5.38,7.6-13.43,14.43-23.279,19.744l-.029-.041.029.041c-13.889,7.492-24.844,12.441-34.476,15.573A80.328,80.328,0,0,1-5845.824,3846.331Zm-10.043-113.085a73.251,73.251,0,0,0-21.947,3.534c-8.566,2.634-18.348,6.945-29.9,13.179-17.057,9.2-26.738,21.514-27.263,34.669-.529,13.3,8.293,26.32,24.841,36.671,13.674,8.553,23.89,14.1,33.121,17.978,10.151,4.266,19.034,6.452,27.955,6.879,9.028.433,18.053-.933,28.4-4.3,9.625-3.129,20.574-8.075,34.456-15.564,9.835-5.306,17.872-12.122,23.243-19.713,5.337-7.543,7.792-15.489,7.1-22.978a27.689,27.689,0,0,0-7.65-16.482c-4.857-5.244-11.838-9.549-20.749-12.8-6.838-2.492-13.193-4.907-18.8-7.038-10.446-3.971-19.469-7.4-27.651-9.846a89.2,89.2,0,0,0-23.174-4.167Q-5854.88,3733.246-5855.867,3733.247Z" transform="translate(5935.115 -3733.15)" fill="url(#linear-gradient-47)"/>
        </g>
      </g>
      <g id="Group_68261" data-name="Group 68261" transform="translate(0 0.372)">
        <g id="Group_68260" data-name="Group 68260">
          <path id="Path_41312" data-name="Path 41312" d="M-5847.584,3848.071c-.417,0-.833,0-1.25-.011-8.949-.165-17.926-2.1-28.255-6.086-9.387-3.624-19.822-8.89-33.833-17.074-16.982-9.92-26.334-22.761-26.334-36.158,0-13.255,9.2-25.931,25.915-35.693,11.308-6.6,20.918-11.226,29.382-14.126a71.713,71.713,0,0,1,23.81-4.235h.02a89.4,89.4,0,0,1,23.339,3.5c8.279,2.215,17.434,5.39,28.034,9.068,5.688,1.973,12.134,4.208,19.066,6.508,9.047,3,16.207,7.121,21.282,12.25a28.289,28.289,0,0,1,8.334,16.358c1,7.52-1.136,15.594-6.182,23.348-5.075,7.8-12.85,14.893-22.486,20.522l-.032-.04.032.04c-13.582,7.933-24.334,13.226-33.836,16.655C-5830.329,3846.416-5838.949,3848.071-5847.584,3848.071Zm-10.547-113.286h-.02a71.6,71.6,0,0,0-23.768,4.228c-8.456,2.9-18.061,7.516-29.361,14.117-16.68,9.743-25.865,22.391-25.865,35.613,0,13.364,9.334,26.177,26.284,36.078,14.006,8.181,24.437,13.445,33.818,17.066,10.313,3.982,19.278,5.913,28.21,6.077,9.04.166,18-1.471,28.211-5.155,9.495-3.427,20.24-8.717,33.815-16.646,9.623-5.621,17.386-12.706,22.451-20.49,5.034-7.736,7.167-15.789,6.168-23.289a28.191,28.191,0,0,0-8.309-16.307c-5.063-5.116-12.208-9.228-21.236-12.222-6.933-2.3-13.38-4.535-19.068-6.508-10.6-3.677-19.751-6.852-28.026-9.065A89.257,89.257,0,0,0-5858.131,3734.785Z" transform="translate(5937.258 -3734.688)" fill="url(#linear-gradient-48)"/>
        </g>
      </g>
    </g>
  </g>
</svg>
