<svg width="60" height="64" viewBox="0 0 60 64" fill="none" xmlns="http://www.w3.org/2000/svg">
<path d="M59.9623 32C59.9623 29.7261 58.7753 27.706 56.7872 26.596L54.6439 25.3994L56.7872 24.2028C58.7753 23.0928 59.9623 21.0726 59.9623 18.7988C59.9623 16.525 58.7753 14.5048 56.7872 13.3949L35.2022 1.34343C31.9939 -0.447747 28.0075 -0.447872 24.799 1.34343L3.21416 13.3949C1.22605 14.5048 0.0390625 16.5251 0.0390625 18.7989C0.0390625 21.0727 1.22605 23.0928 3.21416 24.2028L5.35744 25.3994L3.21416 26.596C1.22605 27.706 0.0390625 29.7263 0.0390625 32.0001C0.0390625 34.2739 1.22605 36.294 3.21416 37.404L5.35744 38.6006L3.21416 39.7972C1.22605 40.9072 0.0390625 42.9274 0.0390625 45.2012C0.0390625 47.4751 1.22605 49.4952 3.21416 50.6053L24.799 62.6565C26.4035 63.5522 28.2018 64.0001 30.0007 64C31.7992 63.9999 33.5981 63.5521 35.202 62.6566L35.4644 62.5102C36.6704 61.837 37.1024 60.3138 36.4292 59.1078C35.7561 57.9018 34.2327 57.4699 33.0268 58.143L32.7641 58.2896C31.0595 59.2412 28.9419 59.2412 27.2373 58.2896L5.65228 46.2382C5.12012 45.9411 5.0406 45.461 5.0406 45.2012C5.0406 44.9415 5.12012 44.4614 5.65228 44.1643L10.4873 41.4649L24.799 49.4554C26.4033 50.3512 28.2019 50.799 30.0006 50.799C31.7993 50.799 33.598 50.3511 35.2022 49.4554L49.5141 41.4649L54.3491 44.1644C54.8813 44.4615 54.9608 44.9417 54.9608 45.2014C54.9608 45.4611 54.8813 45.9412 54.3491 46.2383L43.9451 52.0471C42.7392 52.7203 42.3074 54.2438 42.9807 55.4496C43.4386 56.2698 44.2895 56.7318 45.1664 56.7318C45.579 56.7318 45.9974 56.6295 46.3831 56.4141L56.7871 50.6054C58.7752 49.4954 59.9622 47.4752 59.9622 45.2014C59.9622 42.9276 58.7752 40.9074 56.7872 39.7975L54.6439 38.6009L56.7872 37.4042C58.7753 36.294 59.9623 34.2739 59.9623 32ZM5.0406 18.7988C5.0406 18.5391 5.12 18.0589 5.65228 17.7618L27.2373 5.71052C28.0897 5.23462 29.0451 4.9968 30.0007 4.9968C30.9562 4.9968 31.912 5.23475 32.7641 5.71052L54.3491 17.7618C54.8813 18.0589 54.9608 18.5391 54.9608 18.7988C54.9608 19.0585 54.8814 19.5386 54.3491 19.8357L32.7641 31.887C31.0596 32.8387 28.9419 32.8387 27.2374 31.887L5.65228 19.8358C5.12012 19.5386 5.0406 19.0585 5.0406 18.7988ZM54.349 33.037L32.764 45.0883C31.0594 46.0399 28.9418 46.0399 27.2373 45.0883L5.65228 33.0369C5.12012 32.7398 5.0406 32.2597 5.0406 32C5.0406 31.7402 5.12 31.2601 5.65228 30.963L10.4873 28.2636L24.799 36.2541C26.4033 37.1499 28.2019 37.5977 30.0006 37.5977C31.7993 37.5977 33.598 37.1498 35.2022 36.2541L49.514 28.2636L54.349 30.9631C54.8811 31.2602 54.9607 31.7404 54.9607 32.0001C54.9607 32.2598 54.8813 32.7398 54.349 33.037Z" fill="#879BA8"/>
</svg>
