<svg xmlns="http://www.w3.org/2000/svg" width="63.525" height="64" viewBox="0 0 63.525 64">
  <g id="Group_69468" data-name="Group 69468" transform="translate(-273.228 -523.413)">
    <path id="Path_44806" data-name="Path 44806" d="M336.007,565.833a6.951,6.951,0,0,0-9.328-3.062l-12.549,6.337a6.951,6.951,0,0,0-6.895-6.14H295.78l-6.923-3.413H273.228v24.194l1.656.494c.135.039,3.417,1.015,13.146,3.72a47.2,47.2,0,0,0,12.3,2.072,13.106,13.106,0,0,0,2.07-.137,6.944,6.944,0,0,0,2.834-.741l10.193-5.146a2.318,2.318,0,1,0-2.09-4.139l-10.2,5.149a2.294,2.294,0,0,1-1.005.246l-.212-.008-.252.061c-.035.006-3.541.642-12.4-1.822-5.981-1.664-9.548-2.681-11.407-3.216V564.192h9.91l6.923,3.413h12.536a2.305,2.305,0,0,1,1.629,3.935,2.283,2.283,0,0,1-1.619.675H296.4a2.319,2.319,0,1,0,0,4.637h12.679l19.692-9.945a2.306,2.306,0,0,1,2.082,4.116l-11.531,5.824a2.319,2.319,0,1,0,2.091,4.139l11.533-5.826A6.952,6.952,0,0,0,336.007,565.833Z" transform="translate(0 -2.622)" fill="#485363"/>
    <path id="Path_44807" data-name="Path 44807" d="M283.219,556.648a2.319,2.319,0,0,0,1.736-2.782,21.053,21.053,0,1,1,40.806.844,2.318,2.318,0,0,0,1.62,2.851,2.283,2.283,0,0,0,.617.084,2.321,2.321,0,0,0,2.234-1.7,25.691,25.691,0,0,0-11.168-28.622,25.691,25.691,0,0,0-38.627,27.594A2.318,2.318,0,0,0,283.219,556.648Z" transform="translate(-0.474)" fill="#485363"/>
    <path id="Path_44808" data-name="Path 44808" d="M311.607,556.477a6.149,6.149,0,0,0,1.609-1.9,5.279,5.279,0,0,0,.628-2.562,7.516,7.516,0,0,0-.493-2.952,5.154,5.154,0,0,0-1.475-2.008,7,7,0,0,0-2.142-1.173c-.56-.2-1.172-.383-1.825-.557V539.8c.046.015.093.032.138.049a2.568,2.568,0,0,1,.826.5,2.363,2.363,0,0,1,.554.762,2.261,2.261,0,0,1,.2.963l-.01.939H313.3l-.031-.958a6.5,6.5,0,0,0-.543-2.41,5.36,5.36,0,0,0-1.371-1.852,5.714,5.714,0,0,0-2-1.112,7.45,7.45,0,0,0-1.442-.312v-1.726H304.8v1.712a6.926,6.926,0,0,0-1.488.33,6.151,6.151,0,0,0-2.057,1.183,5.685,5.685,0,0,0-1.95,4.353,5.917,5.917,0,0,0,.514,2.6,5.124,5.124,0,0,0,1.434,1.8,7.145,7.145,0,0,0,2,1.1c.5.185,1.009.351,1.527.5v6.328a3.561,3.561,0,0,1-1.422-.949,3.432,3.432,0,0,1-.682-1.123,4.013,4.013,0,0,1-.247-1.42l.007-.935h-2.72l-1,.087.131,1.574c.019.242.049.492.092.761a6.571,6.571,0,0,0,2.395,4.068A7.814,7.814,0,0,0,304.8,558v2.163h3.126L307.913,558a8.155,8.155,0,0,0,1.5-.355A7.161,7.161,0,0,0,311.607,556.477Zm-6.835-16.69v4.746l-.2-.073a3.384,3.384,0,0,1-.922-.5,1.839,1.839,0,0,1-.519-.647,2.6,2.6,0,0,1-.212-1.151,2.409,2.409,0,0,1,.209-1.011,2.262,2.262,0,0,1,.564-.771,2.728,2.728,0,0,1,.884-.523C304.638,539.827,304.7,539.807,304.772,539.787Zm3.148,14.825v-5.645c.143.042.285.085.428.131a3.524,3.524,0,0,1,1.037.53,2.074,2.074,0,0,1,.6.717,3.369,3.369,0,0,1,.008,2.564,2.8,2.8,0,0,1-.677.938,3.475,3.475,0,0,1-1.057.651A3.422,3.422,0,0,1,307.92,554.612Z" transform="translate(-1.848 -0.815)" fill="#485363"/>
  </g>
</svg>
