<svg xmlns="http://www.w3.org/2000/svg" width="45.424" height="64" viewBox="0 0 45.424 64">
  <g id="Group_69456" data-name="Group 69456" transform="translate(-358.572 -523.414)">
    <g id="Group_69461" data-name="Group 69461" transform="translate(358.572 523.414)">
      <g id="Path_44793" data-name="Path 44793">
        <path id="Path_44795" data-name="Path 44795" d="M381.285,587.414A22.739,22.739,0,0,1,358.572,564.7c0-5.123,3.559-13.283,10.58-24.254,5.108-7.982,10.29-14.665,10.341-14.732l1.79-2.3,1.79,2.3c.167.215,4.145,5.346,8.63,12.109a2.267,2.267,0,1,1-3.779,2.506c-2.6-3.921-5.063-7.328-6.648-9.468C374.919,539.407,363.1,556.9,363.1,564.7a18.178,18.178,0,1,0,36.357,0c0-2.169-.991-6.521-5.714-14.928a2.268,2.268,0,0,1,3.955-2.222C401.937,555.092,404,560.7,404,564.7A22.739,22.739,0,0,1,381.285,587.414Z" transform="translate(-358.572 -523.414)" fill="#f48415"/>
      </g>
      <path id="Path_44796" data-name="Path 44796" d="M390.009,566.568a5.572,5.572,0,0,0-1.59-2.165,7.517,7.517,0,0,0-2.31-1.265c-.606-.211-1.264-.412-1.967-.6v-5.955c.05.016.1.033.148.051a2.727,2.727,0,0,1,.889.541,2.592,2.592,0,0,1,.6.823,2.425,2.425,0,0,1,.221,1.037l-.012,1.011h3.97l-.032-1.03a7.021,7.021,0,0,0-.584-2.6,5.772,5.772,0,0,0-1.478-2,6.16,6.16,0,0,0-2.156-1.2,8.169,8.169,0,0,0-1.555-.336v-1.86h-3.371v1.846a7.386,7.386,0,0,0-1.6.355,6.589,6.589,0,0,0-2.216,1.274,6.1,6.1,0,0,0-2.108,4.7,6.413,6.413,0,0,0,.558,2.8,5.526,5.526,0,0,0,1.545,1.942,7.721,7.721,0,0,0,2.153,1.188c.538.2,1.089.376,1.646.532v6.824a3.976,3.976,0,0,1-.394-.166,3.887,3.887,0,0,1-1.141-.858,3.651,3.651,0,0,1-.735-1.214,4.294,4.294,0,0,1-.264-1.528l.007-1.008h-4l.134,1.784c.02.264.052.541.1.83a7.092,7.092,0,0,0,2.583,4.386,8.451,8.451,0,0,0,3.745,1.5v2.333h3.369l-.012-2.333a8.938,8.938,0,0,0,1.616-.382,7.709,7.709,0,0,0,2.371-1.26,6.643,6.643,0,0,0,1.729-2.047,5.692,5.692,0,0,0,.682-2.765A8.121,8.121,0,0,0,390.009,566.568Zm-9.25-10v5.115l-.22-.079a3.606,3.606,0,0,1-.994-.544,1.978,1.978,0,0,1-.559-.69,2.9,2.9,0,0,1-.228-1.246,2.584,2.584,0,0,1,.223-1.088,2.435,2.435,0,0,1,.611-.834,2.883,2.883,0,0,1,.953-.564c.071-.027.143-.051.215-.071Zm3.394,15.986v-6.087c.157.045.312.093.462.143a3.8,3.8,0,0,1,1.116.566,2.242,2.242,0,0,1,.648.776,3.629,3.629,0,0,1,.01,2.762,3,3,0,0,1-.735,1.014,3.7,3.7,0,0,1-1.137.7,3.4,3.4,0,0,1-.365.129Z" transform="translate(-359.707 -525.416)" fill="#f48415"/>
    </g>
  </g>
</svg>
