<svg width="64" height="64" viewBox="0 0 64 64" fill="none" xmlns="http://www.w3.org/2000/svg">
<path d="M54.2445 25.0018V61.4922C54.2445 62.8725 53.1255 63.9915 51.7451 63.9915C50.3648 63.9915 49.2458 62.8725 49.2458 61.4922V25.0018C49.2458 23.6214 50.3648 22.5024 51.7451 22.5024C53.1255 22.5024 54.2445 23.6214 54.2445 25.0018ZM41.8728 28.7508C40.4924 28.7508 39.3734 29.8697 39.3734 31.2501V61.4922C39.3734 62.8725 40.4924 63.9915 41.8728 63.9915C43.2531 63.9915 44.3721 62.8725 44.3721 61.4922V31.2501C44.3721 29.8697 43.2531 28.7508 41.8728 28.7508ZM32.0004 34.9991C30.62 34.9991 29.501 36.1181 29.501 37.4985V61.4922C29.501 62.8725 30.62 63.9915 32.0004 63.9915C33.3807 63.9915 34.4997 62.8725 34.4997 61.4922V37.4985C34.4997 36.1181 33.3807 34.9991 32.0004 34.9991ZM22.128 41.2475C20.7476 41.2475 19.6286 42.3665 19.6286 43.7468V61.4922C19.6286 62.8725 20.7476 63.9915 22.128 63.9915C23.5083 63.9915 24.6273 62.8725 24.6273 61.4922V43.7468C24.6273 42.3665 23.5083 41.2475 22.128 41.2475ZM12.2556 47.4958C10.8752 47.4958 9.75622 48.6148 9.75622 49.9952V61.4922C9.75622 62.8725 10.8752 63.9915 12.2556 63.9915C13.6359 63.9915 14.7549 62.8725 14.7549 61.4922V49.9952C14.7549 48.6148 13.6359 47.4958 12.2556 47.4958ZM2.50813 53.7442C1.12774 53.7442 0.00878906 54.8632 0.00878906 56.2435V61.4922C0.00878906 62.8725 1.12774 63.9915 2.50813 63.9915C3.88852 63.9915 5.00747 62.8725 5.00747 61.4922V56.2435C5.00747 54.8632 3.88852 53.7442 2.50813 53.7442ZM63.9919 7.49802V35.8739C63.9919 37.2543 62.873 38.3733 61.4926 38.3733C60.1122 38.3733 58.9932 37.2543 58.9932 35.8739V17.5038H42.9975C42.0092 17.5038 41.1138 16.9215 40.7131 16.0182C40.3122 15.1149 40.4812 14.0603 41.1442 13.3275L45.1674 8.88103L41.0982 4.12391C40.464 3.38248 40.3193 2.34001 40.7273 1.45387C41.1353 0.567725 42.022 0 42.9975 0H56.4939C60.6283 0 63.9919 3.36361 63.9919 7.49802ZM58.9932 7.49802C58.9932 6.11989 57.872 4.99868 56.4939 4.99868H48.4244L50.3953 7.30282C51.2125 8.2582 51.1928 9.67195 50.3493 10.6043L48.6295 12.5051H58.9932V7.49802ZM61.4926 45.8713C60.1122 45.8713 58.9932 46.9902 58.9932 48.3706V61.5005C58.9932 62.8809 60.1122 63.9999 61.4926 63.9999C62.873 63.9999 63.9919 62.8809 63.9919 61.5005V48.3706C63.9919 46.9902 62.873 45.8713 61.4926 45.8713Z" fill="#F4AC3C"/>
</svg>
