<svg width="64" height="64" viewBox="0 0 64 64" fill="none" xmlns="http://www.w3.org/2000/svg">
<path d="M55.9956 8.00438C50.8339 2.84263 43.9711 0 36.6714 0C35.2906 0 34.1714 1.11925 34.1714 2.5V27.3288C34.1714 28.7095 35.2906 29.8288 36.6714 29.8288H61.5C62.8807 29.8288 64 28.7095 64 27.3288C64 20.0289 61.1574 13.1661 55.9956 8.00438ZM49.7526 24.8288V18.9176C49.7526 17.5369 48.6334 16.4176 47.2526 16.4176C45.8719 16.4176 44.7526 17.5369 44.7526 18.9176V24.8288H39.1712V5.139C49.491 6.29338 57.7065 14.509 58.8609 24.8288H49.7526ZM54.6574 36.6714C54.6574 40.6683 53.8133 44.5214 52.1484 48.1237C51.5691 49.377 50.0836 49.9233 48.8302 49.3445C47.5769 48.7653 47.0305 47.2796 47.6096 46.0264C48.6184 43.8435 49.258 41.5467 49.5205 39.1714H27.3286C25.9479 39.1714 24.8286 38.0521 24.8286 36.6714V14.4817C13.6884 15.7279 5 25.204 5 36.6714C5 48.9834 15.0166 59 27.3286 59C32.1156 59 36.6786 57.508 40.5245 54.6854C41.6374 53.8681 43.202 54.1084 44.0191 55.2215C44.836 56.3346 44.596 57.8993 43.4829 58.7161C38.7733 62.1729 33.1872 64 27.3286 64C20.0289 64 13.1661 61.1574 8.00438 55.9956C2.84275 50.8339 0 43.9711 0 36.6714C0 29.3716 2.84275 22.5086 8.00438 17.347C13.166 12.1853 20.0289 9.34262 27.3286 9.34262C28.7094 9.34262 29.8286 10.4619 29.8286 11.8426V34.1714H52.1572C53.5381 34.1714 54.6574 35.2906 54.6574 36.6714Z" fill="#879BA8"/>
</svg>
