<svg xmlns="http://www.w3.org/2000/svg" width="59.09" height="64" viewBox="0 0 59.09 64">
  <g id="Group_69466" data-name="Group 69466" transform="translate(-196.697 -523.415)">
    <g id="Rectangle_10584" data-name="Rectangle 10584" transform="translate(201.498 581.485)">
      <path id="Path_44803" data-name="Path 44803" d="M253.191,591.955H204.837a2.965,2.965,0,0,1,0-5.93h48.353a2.965,2.965,0,0,1,0,5.93Z" transform="translate(-201.873 -586.025)" fill="#485363"/>
    </g>
    <g id="Path_44800" data-name="Path 44800" transform="translate(196.697 523.415)">
      <path id="Path_44804" data-name="Path 44804" d="M250.964,577.718H206.321a4.829,4.829,0,0,1-4.823-4.824v-.38a4.829,4.829,0,0,1-4.8-4.823V557.226a4.828,4.828,0,0,1,4.8-4.823v-2.558a4.83,4.83,0,0,1-4.8-4.823V534.558a4.829,4.829,0,0,1,4.8-4.823v-1.5a4.828,4.828,0,0,1,4.823-4.822h44.64a4.828,4.828,0,0,1,4.823,4.822v22.318a2.319,2.319,0,0,1-4.637,0V528.237a.185.185,0,0,0-.185-.185h-44.64a.185.185,0,0,0-.185.185v6.135H201.52a.186.186,0,0,0-.185.185v10.465a.186.186,0,0,0,.185.185h4.616v11.833H201.52a.185.185,0,0,0-.185.186v10.465a.186.186,0,0,0,.185.185h4.616v5.018a.186.186,0,0,0,.186.186h44.642a.186.186,0,0,0,.185-.186V560.31a2.319,2.319,0,1,1,4.637,0v12.584A4.829,4.829,0,0,1,250.964,577.718Z" transform="translate(-196.697 -523.415)" fill="#485363"/>
    </g>
    <g id="Group_69467" data-name="Group 69467" transform="translate(234.168 539.398)">
      <path id="Path_44805" data-name="Path 44805" d="M243.2,563.09a3.9,3.9,0,0,1-3.887-3.682,4.057,4.057,0,0,1,0-.425l0-7.536a6.1,6.1,0,1,1,9.06-1.459,6.134,6.134,0,0,1-1.276,1.456v7.615a3.815,3.815,0,0,1-.991,2.736,3.873,3.873,0,0,1-2.689,1.29C243.339,563.088,243.268,563.09,243.2,563.09Zm.009-19.659a3.317,3.317,0,0,0-1.769,6.128l.653.409v9.091c0,.117,0,.157,0,.2a1.113,1.113,0,0,0,2.223-.121l0-9.168.654-.408a3.318,3.318,0,0,0,0-5.621A3.3,3.3,0,0,0,243.205,543.431Z" transform="translate(-237.098 -540.648)" fill="#485363"/>
    </g>
  </g>
</svg>
