<svg width="64" height="64" viewBox="0 0 64 64" fill="none" xmlns="http://www.w3.org/2000/svg">
<path d="M45.8742 64C44.4934 64 43.3742 62.8809 43.3742 61.5V21.999H32.6252C30.653 21.999 28.8884 20.8198 28.1291 18.9946C27.3669 17.1621 27.7776 15.0698 29.175 13.6636L40.5617 2.20947C41.9782 0.784668 43.865 0 45.8742 0C47.8835 0 49.7702 0.784668 51.1867 2.20947L62.5735 13.6636C63.9714 15.0693 64.382 17.1621 63.6198 18.9946C62.8606 20.8198 61.0954 21.999 59.1233 21.999H56.3747C54.9939 21.999 53.8747 20.8799 53.8747 19.499C53.8747 18.1182 54.9939 16.999 56.3747 16.999H58.8386L47.6408 5.73486C47.1696 5.26123 46.5427 5 45.8742 5C45.2063 5 44.5788 5.26123 44.1076 5.73486L32.9099 16.999H43.3742C46.1316 16.999 48.3742 19.2422 48.3742 21.999V61.5C48.3742 62.8804 47.2551 64 45.8742 64Z" fill="#DA3DB0"/>
<path d="M18.1236 64C16.1143 64 14.2276 63.2153 12.8111 61.7905L1.42437 50.3364C0.0264224 48.9302 -0.384222 46.8379 0.378473 45.0054C1.13726 43.1802 2.9024 42.0005 4.87457 42.0005H15.6236V2.5C15.6236 1.11914 16.7427 0 18.1236 0C19.5044 0 20.6236 1.11914 20.6236 2.5V42.001C20.6236 44.7578 18.3804 47.001 15.6236 47.001H5.15923L16.357 58.2651C16.8282 58.7388 17.4556 59 18.1236 59C18.7916 59 19.419 58.7388 19.8902 58.2651L31.0879 47.001H28.6241C27.2432 47.001 26.1241 45.8818 26.1241 44.501C26.1241 43.1201 27.2432 42.001 28.6241 42.001H31.3726C33.3448 42.001 35.1094 43.1802 35.8687 45.0054C36.6309 46.8379 36.2207 48.9307 34.8228 50.3364L23.4361 61.7905C22.0196 63.2153 20.1329 64 18.1236 64Z" fill="#DA3DB0"/>
</svg>
