<svg xmlns="http://www.w3.org/2000/svg" xmlns="http://www.w3.org/1999/xlink" width="1291.837" height="369.157" viewBox="0 0 1291.837 369.157">
  <defs>
    <linearGradient id="linear-gradient" x1="-0.029" y1="0.653" x2="1.039" y2="0.653" gradientUnits="objectBoundingBox">
      <stop offset="0" stop-color="#df2dba"/>
      <stop offset="0.5" stop-color="#ffa900"/>
      <stop offset="1" stop-color="#39fffc"/>
    </linearGradient>
    <linearGradient id="linear-gradient-2" x1="-0.036" y1="0.576" x2="1.041" y2="0.576" xlink:href="#linear-gradient"/>
    <linearGradient id="linear-gradient-3" x1="-0.041" y1="0.501" x2="1.046" y2="0.501" xlink:href="#linear-gradient"/>
    <linearGradient id="linear-gradient-4" x1="-0.024" y1="0.65" x2="1.034" y2="0.65" xlink:href="#linear-gradient"/>
    <linearGradient id="linear-gradient-5" x1="-0.031" y1="0.573" x2="1.036" y2="0.573" xlink:href="#linear-gradient"/>
    <linearGradient id="linear-gradient-6" x1="-0.036" y1="0.497" x2="1.041" y2="0.497" xlink:href="#linear-gradient"/>
    <linearGradient id="linear-gradient-7" x1="-0.02" y1="0.647" x2="1.03" y2="0.647" xlink:href="#linear-gradient"/>
    <linearGradient id="linear-gradient-8" x1="-0.026" y1="0.569" x2="1.032" y2="0.569" xlink:href="#linear-gradient"/>
    <linearGradient id="linear-gradient-9" x1="-0.03" y1="0.493" x2="1.036" y2="0.493" xlink:href="#linear-gradient"/>
    <linearGradient id="linear-gradient-10" x1="-0.016" y1="0.646" x2="1.025" y2="0.646" xlink:href="#linear-gradient"/>
    <linearGradient id="linear-gradient-11" x1="-0.022" y1="0.565" x2="1.027" y2="0.565" xlink:href="#linear-gradient"/>
    <linearGradient id="linear-gradient-12" x1="-0.026" y1="0.488" x2="1.031" y2="0.488" xlink:href="#linear-gradient"/>
    <linearGradient id="linear-gradient-13" x1="-0.013" y1="0.647" x2="1.022" y2="0.647" xlink:href="#linear-gradient"/>
    <linearGradient id="linear-gradient-14" x1="-0.018" y1="0.564" x2="1.023" y2="0.564" xlink:href="#linear-gradient"/>
    <linearGradient id="linear-gradient-15" x1="-0.021" y1="0.483" x2="1.027" y2="0.483" xlink:href="#linear-gradient"/>
    <linearGradient id="linear-gradient-16" x1="-0.009" y1="0.648" x2="1.018" y2="0.648" xlink:href="#linear-gradient"/>
    <linearGradient id="linear-gradient-17" x1="-0.014" y1="0.565" x2="1.02" y2="0.565" xlink:href="#linear-gradient"/>
    <linearGradient id="linear-gradient-18" x1="-0.018" y1="0.482" x2="1.023" y2="0.482" xlink:href="#linear-gradient"/>
    <linearGradient id="linear-gradient-19" x1="-0.007" y1="0.649" x2="1.015" y2="0.649" xlink:href="#linear-gradient"/>
    <linearGradient id="linear-gradient-20" x1="-0.011" y1="0.566" x2="1.016" y2="0.566" xlink:href="#linear-gradient"/>
    <linearGradient id="linear-gradient-21" x1="-0.014" y1="0.483" x2="1.019" y2="0.483" xlink:href="#linear-gradient"/>
    <linearGradient id="linear-gradient-22" x1="-0.004" y1="0.65" x2="1.012" y2="0.65" xlink:href="#linear-gradient"/>
    <linearGradient id="linear-gradient-23" x1="-0.009" y1="0.567" x2="1.013" y2="0.567" xlink:href="#linear-gradient"/>
    <linearGradient id="linear-gradient-24" x1="-0.011" y1="0.484" x2="1.016" y2="0.484" xlink:href="#linear-gradient"/>
    <linearGradient id="linear-gradient-25" x1="-0.002" y1="0.651" x2="1.01" y2="0.651" xlink:href="#linear-gradient"/>
    <linearGradient id="linear-gradient-26" x1="-0.006" y1="0.569" x2="1.01" y2="0.569" xlink:href="#linear-gradient"/>
    <linearGradient id="linear-gradient-27" x1="-0.008" y1="0.486" x2="1.013" y2="0.486" xlink:href="#linear-gradient"/>
    <linearGradient id="linear-gradient-28" x1="-0.001" y1="0.653" x2="1.007" y2="0.653" xlink:href="#linear-gradient"/>
    <linearGradient id="linear-gradient-29" x1="-0.004" y1="0.57" x2="1.008" y2="0.57" xlink:href="#linear-gradient"/>
    <linearGradient id="linear-gradient-30" x1="-0.006" y1="0.488" x2="1.01" y2="0.488" xlink:href="#linear-gradient"/>
    <linearGradient id="linear-gradient-31" x1="0" y1="0.654" x2="1.006" y2="0.654" xlink:href="#linear-gradient"/>
    <linearGradient id="linear-gradient-32" x1="-0.003" y1="0.572" x2="1.005" y2="0.572" xlink:href="#linear-gradient"/>
    <linearGradient id="linear-gradient-33" x1="-0.004" y1="0.49" x2="1.008" y2="0.49" xlink:href="#linear-gradient"/>
    <linearGradient id="linear-gradient-34" x1="0.001" y1="0.656" x2="1.004" y2="0.656" xlink:href="#linear-gradient"/>
    <linearGradient id="linear-gradient-35" x1="-0.001" y1="0.574" x2="1.004" y2="0.574" xlink:href="#linear-gradient"/>
    <linearGradient id="linear-gradient-36" x1="-0.003" y1="0.492" x2="1.005" y2="0.492" xlink:href="#linear-gradient"/>
    <linearGradient id="linear-gradient-37" x1="0.002" y1="0.657" x2="1.003" y2="0.657" xlink:href="#linear-gradient"/>
    <linearGradient id="linear-gradient-38" x1="-0.001" y1="0.575" x2="1.002" y2="0.575" xlink:href="#linear-gradient"/>
    <linearGradient id="linear-gradient-39" x1="-0.001" y1="0.494" x2="1.004" y2="0.494" xlink:href="#linear-gradient"/>
    <linearGradient id="linear-gradient-40" x1="0.002" y1="0.659" x2="1.002" y2="0.659" xlink:href="#linear-gradient"/>
    <linearGradient id="linear-gradient-41" x1="0" y1="0.577" x2="1.001" y2="0.577" xlink:href="#linear-gradient"/>
    <linearGradient id="linear-gradient-42" x1="-0.001" y1="0.496" x2="1.002" y2="0.496" xlink:href="#linear-gradient"/>
    <linearGradient id="linear-gradient-43" x1="0.002" y1="0.661" x2="1.001" y2="0.661" xlink:href="#linear-gradient"/>
    <linearGradient id="linear-gradient-44" x1="0" y1="0.579" x2="1" y2="0.579" xlink:href="#linear-gradient"/>
    <linearGradient id="linear-gradient-45" x1="0" y1="0.498" x2="1.001" y2="0.498" xlink:href="#linear-gradient"/>
    <linearGradient id="linear-gradient-46" x1="0.001" y1="0.662" x2="1.001" y2="0.662" xlink:href="#linear-gradient"/>
    <linearGradient id="linear-gradient-47" x1="0" y1="0.581" x2="0.999" y2="0.581" xlink:href="#linear-gradient"/>
    <linearGradient id="linear-gradient-48" x1="0" y1="0.5" x2="1" y2="0.5" xlink:href="#linear-gradient"/>
  </defs>
  <g id="_2022" data-name="2022" transform="translate(12 -3656.001)">
    <g id="Roadmap_2022" data-name="Roadmap 2022">
      <path id="Roadmap_line" d="M-6091.943-1552.257h812.456a49.9,49.9,0,0,0,49.773-49.9v-35.175a49.9,49.9,0,0,0-49.773-49.9h-1046.4l1046.4.332a49.563,49.563,0,0,1,49.441,49.573v35.175a49.563,49.563,0,0,1-49.441,49.573h-812.456a49.9,49.9,0,0,0-49.771,49.9v38.539a49.9,49.9,0,0,0,49.771,49.9h1047.065l-1047.065-.332a49.563,49.563,0,0,1-49.441-49.573v-38.539A49.563,49.563,0,0,1-6091.943-1552.257Z" transform="translate(6324.714 5352.241)" fill="none" stroke="#fff" stroke-width="4"/>
      <g id="Group_68264" data-name="Group 68264" transform="translate(6158.269 188.476)">
        <g id="Group_68157" data-name="Group 68157" transform="translate(-5931.011 3719.241)">
          <g id="Group_68152" data-name="Group 68152" transform="translate(0 3.15)">
            <g id="Group_68151" data-name="Group 68151">
              <path id="Path_41265" data-name="Path 41265" d="M-5807.869,3857.206a290.15,290.15,0,0,1-34.084-2.48c-20.169-2.412-34.993-10.322-41.74-22.275-6.678-11.83-4.835-26.634,5.188-41.686,6.78-10.182,13.044-17.95,19.148-23.749a62.838,62.838,0,0,1,19.149-12.809c6.258-2.657,13.452-4.479,22.64-5.735,8.514-1.163,18.3-1.8,29.622-2.54,6.076-.4,12.964-.845,20.318-1.423,9.606-.755,18.088.211,25.211,2.869a33.6,33.6,0,0,1,15.687,11.462c4.669,6.332,6.815,14.344,6.205,23.169-.613,8.875-3.989,18.149-9.764,26.82l-.048-.024.048.024c-8.144,12.23-15.089,21.03-21.855,27.694-7.278,7.168-14.477,12.037-22.656,15.323-8.081,3.246-17.079,4.926-28.317,5.285Q-5805.427,3857.2-5807.869,3857.206Zm46.409-112.847q-2.994,0-6.157.248c-7.354.578-14.243,1.027-20.32,1.423-11.323.739-21.1,1.376-29.613,2.539-9.177,1.254-16.361,3.073-22.608,5.726a62.733,62.733,0,0,0-19.115,12.787c-6.1,5.793-12.358,13.556-19.135,23.732-10,15.022-11.846,29.794-5.185,41.594,6.729,11.923,21.523,19.814,41.654,22.221,16.639,1.989,28.61,2.731,38.818,2.405,11.224-.359,20.208-2.035,28.274-5.276,8.164-3.28,15.351-8.141,22.619-15.3,6.761-6.659,13.7-15.455,21.843-27.679,5.766-8.658,9.137-17.917,9.749-26.777.608-8.805-1.532-16.8-6.188-23.111a33.489,33.489,0,0,0-15.637-11.425A54.245,54.245,0,0,0-5761.46,3744.359Z" transform="translate(5887.64 -3744.262)" fill="url(#linear-gradient)"/>
            </g>
          </g>
          <g id="Group_68154" data-name="Group 68154" transform="translate(0.638 1.569)">
            <g id="Group_68153" data-name="Group 68153">
              <path id="Path_41266" data-name="Path 41266" d="M-5806.072,3846.843c-8.1,0-17.514-.521-29.258-1.6-20.259-1.855-35.4-9.4-42.639-21.249-7.16-11.722-5.934-26.679,3.456-42.117,6.353-10.445,12.288-18.445,18.147-24.458a61.7,61.7,0,0,1,18.6-13.441c6.144-2.854,13.256-4.893,22.386-6.418,8.46-1.413,18.207-2.333,29.494-3.4,6.056-.572,12.92-1.219,20.244-2.01,9.563-1.032,18.076-.3,25.3,2.17a34.215,34.215,0,0,1,16.15,11.085c4.935,6.243,7.415,14.25,7.174,23.158-.241,8.957-3.229,18.394-8.642,27.292l-.049-.023.049.023c-7.63,12.546-14.2,21.6-20.688,28.507-6.975,7.425-13.966,12.532-22,16.072-7.939,3.5-16.861,5.444-28.077,6.125C-5799.453,3846.75-5802.645,3846.843-5806.072,3846.843ZM-5757.5,3731.8a75.781,75.781,0,0,0-8.125.453c-7.326.791-14.19,1.438-20.246,2.01-11.285,1.065-21.03,1.985-29.486,3.4-9.118,1.523-16.221,3.56-22.353,6.408a61.584,61.584,0,0,0-18.57,13.418c-5.854,6.007-11.786,14-18.134,24.44-9.371,15.408-10.6,30.333-3.455,42.025,7.219,11.817,22.33,19.346,42.551,21.2,16.708,1.531,28.7,1.938,38.889,1.319,11.2-.68,20.108-2.623,28.035-6.115,8.021-3.534,15-8.633,21.966-16.047,6.479-6.9,13.049-15.951,20.676-28.491,5.4-8.884,8.388-18.307,8.629-27.249.24-8.886-2.233-16.875-7.154-23.1a34.111,34.111,0,0,0-16.1-11.05A52.811,52.811,0,0,0-5757.5,3731.8Z" transform="translate(5882.571 -3731.701)" fill="url(#linear-gradient-2)"/>
            </g>
          </g>
          <g id="Group_68156" data-name="Group 68156" transform="translate(1.328)">
            <g id="Group_68155" data-name="Group 68155">
              <path id="Path_41267" data-name="Path 41267" d="M-5804.989,3836.683c-6.7,0-14.318-.284-23.3-.854-20.318-1.291-35.76-8.457-43.481-20.18-7.639-11.6-7.032-26.7,1.711-42.509,5.916-10.7,11.517-18.925,17.122-25.146a60.61,60.61,0,0,1,18.032-14.066c6.02-3.049,13.042-5.306,22.1-7.1,8.4-1.665,18.1-2.87,29.331-4.265,6.027-.749,12.858-1.6,20.145-2.6,9.507-1.312,18.038-.821,25.358,1.458a34.8,34.8,0,0,1,16.593,10.688c5.2,6.145,8.01,14.139,8.141,23.12.131,9.03-2.465,18.624-7.507,27.742-7.105,12.852-13.3,22.162-19.493,29.3-6.663,7.676-13.437,13.018-21.32,16.813-7.789,3.75-16.623,5.964-27.8,6.97C-5794.075,3836.47-5799.188,3836.683-5804.989,3836.683Zm51.651-117.344a73.1,73.1,0,0,0-9.976.715c-7.287,1.005-14.119,1.854-20.146,2.6-11.231,1.4-20.931,2.6-29.321,4.264-9.048,1.794-16.061,4.047-22.07,7.091a60.5,60.5,0,0,0-18,14.042c-5.6,6.216-11.2,14.436-17.109,25.128-8.726,15.784-9.335,30.848-1.715,42.417,7.7,11.694,23.112,18.844,43.393,20.131,16.758,1.064,28.759,1.131,38.913.217,11.163-1,19.983-3.215,27.759-6.958,7.868-3.788,14.632-9.122,21.284-16.787,6.189-7.131,12.38-16.435,19.482-29.281l.05.021-.05-.021c5.035-9.105,7.626-18.684,7.5-27.7-.13-8.959-2.937-16.935-8.119-23.062a34.69,34.69,0,0,0-16.542-10.654A51.462,51.462,0,0,0-5753.338,3719.339Z" transform="translate(5877.092 -3719.241)" fill="url(#linear-gradient-3)"/>
            </g>
          </g>
        </g>
        <g id="Group_68164" data-name="Group 68164" transform="translate(-5931.856 3720.77)">
          <g id="Group_68159" data-name="Group 68159" transform="translate(0 3.181)">
            <g id="Group_68158" data-name="Group 68158">
              <path id="Path_41268" data-name="Path 41268" d="M-5811.6,3867.82c-10.181,0-22.078-1.1-38.524-3.566-20.082-3.009-34.594-11.333-40.862-23.438-6.2-11.981-3.765-26.667,6.871-41.352,7.194-9.934,13.774-17.48,20.116-23.07a63.826,63.826,0,0,1,19.674-12.177c6.368-2.457,13.639-4.055,22.882-5.028,8.566-.9,18.378-1.242,29.739-1.636,6.1-.211,13-.451,20.386-.8,9.641-.461,18.088.755,25.107,3.617a33.145,33.145,0,0,1,15.233,11.886c4.417,6.445,6.24,14.488,5.275,23.257-.971,8.819-4.723,17.952-10.849,26.411l-.048-.025.048.025c-8.642,11.933-15.944,20.485-22.983,26.917-7.571,6.918-14.97,11.549-23.285,14.574-8.215,2.989-17.286,4.39-28.545,4.408Zm44.2-111.07q-1.92,0-3.91.1c-7.381.354-14.291.593-20.387.8-11.359.394-21.169.734-29.73,1.635-9.232.972-16.493,2.567-22.85,5.02a63.7,63.7,0,0,0-19.64,12.156c-6.335,5.584-12.911,13.125-20.1,23.054-10.615,14.657-13.053,29.31-6.864,41.261,6.253,12.075,20.735,20.378,40.78,23.382,16.566,2.482,28.513,3.586,38.739,3.564,11.244-.019,20.3-1.417,28.5-4.4,8.3-3.02,15.687-7.644,23.247-14.552,7.033-6.427,14.332-14.975,22.969-26.9,6.117-8.447,9.863-17.565,10.833-26.37.963-8.749-.855-16.771-5.259-23.2a33.035,33.035,0,0,0-15.185-11.848A55.917,55.917,0,0,0-5767.408,3756.75Z" transform="translate(5894.353 -3756.653)" fill="url(#linear-gradient-4)"/>
            </g>
          </g>
          <g id="Group_68161" data-name="Group 68161" transform="translate(0.585 1.587)">
            <g id="Group_68160" data-name="Group 68160">
              <path id="Path_41269" data-name="Path 41269" d="M-5809.488,3857.28a287.67,287.67,0,0,1-34.439-2.558c-20.2-2.462-35.044-10.435-41.811-22.45-6.695-11.888-4.867-26.744,5.146-41.831,6.775-10.208,13.035-17.994,19.139-23.8a62.61,62.61,0,0,1,19.151-12.82c6.26-2.655,13.459-4.47,22.655-5.712,8.522-1.151,18.312-1.771,29.648-2.49,6.083-.386,12.976-.823,20.336-1.388,9.609-.738,18.1.247,25.229,2.927a33.794,33.794,0,0,1,15.715,11.527c4.687,6.365,6.848,14.414,6.25,23.276-.6,8.911-3.969,18.218-9.741,26.913l-.048-.024.048.024c-8.138,12.261-15.078,21.081-21.843,27.758-7.276,7.181-14.476,12.055-22.659,15.336-8.084,3.242-17.089,4.91-28.339,5.248Q-5807.212,3857.28-5809.488,3857.28Zm45.853-113.191q-2.93,0-6.018.237c-7.362.565-14.255,1-20.338,1.388-11.333.719-21.122,1.339-29.639,2.489-9.185,1.24-16.374,3.052-22.623,5.7a62.5,62.5,0,0,0-19.119,12.8c-6.1,5.8-12.354,13.584-19.124,23.785-9.994,15.058-11.82,29.882-5.142,41.74,6.75,11.986,21.568,19.939,41.726,22.4,16.657,2.031,28.641,2.8,38.858,2.492,11.234-.337,20.225-2,28.3-5.24,8.167-3.276,15.356-8.141,22.622-15.312,6.76-6.671,13.7-15.487,21.83-27.742,5.763-8.683,9.125-17.975,9.726-26.87.6-8.841-1.559-16.87-6.232-23.218a33.691,33.691,0,0,0-15.667-11.491A54.355,54.355,0,0,0-5763.636,3744.089Z" transform="translate(5889.704 -3743.992)" fill="url(#linear-gradient-5)"/>
            </g>
          </g>
          <g id="Group_68163" data-name="Group 68163" transform="translate(1.225)">
            <g id="Group_68162" data-name="Group 68162">
              <path id="Path_41270" data-name="Path 41270" d="M-5807.62,3846.869c-8.19,0-17.726-.542-29.666-1.662-20.28-1.9-35.446-9.51-42.705-21.417-7.182-11.781-5.972-26.793,3.407-42.271,6.346-10.473,12.278-18.492,18.135-24.515a61.476,61.476,0,0,1,18.6-13.456c6.145-2.852,13.263-4.885,22.4-6.4,8.466-1.4,18.223-2.306,29.519-3.352,6.062-.562,12.931-1.2,20.262-1.977,9.565-1.016,18.083-.268,25.316,2.225a34.416,34.416,0,0,1,16.178,11.146c4.954,6.276,7.452,14.322,7.225,23.267-.229,8.994-3.209,18.467-8.617,27.392-7.623,12.579-14.192,21.659-20.674,28.575-6.972,7.439-13.964,12.552-22,16.09-7.943,3.5-16.871,5.432-28.1,6.092C-5801.261,3846.781-5804.333,3846.869-5807.62,3846.869Zm47.965-115.389a75.736,75.736,0,0,0-8,.439c-7.331.779-14.2,1.416-20.263,1.977-11.294,1.047-21.048,1.95-29.51,3.351-9.125,1.511-16.232,3.541-22.367,6.388a61.354,61.354,0,0,0-18.571,13.433c-5.852,6.018-11.78,14.031-18.122,24.5-9.361,15.449-10.572,30.429-3.407,42.18,7.24,11.878,22.376,19.466,42.618,21.366,16.727,1.57,28.733,2,38.929,1.4,11.21-.66,20.125-2.593,28.054-6.082,8.025-3.531,15.005-8.636,21.968-16.065,6.478-6.911,13.042-15.986,20.661-28.559l.05.023-.05-.023c5.4-8.912,8.376-18.37,8.6-27.349.228-8.924-2.265-16.95-7.2-23.209a34.305,34.305,0,0,0-16.127-11.111A52.907,52.907,0,0,0-5759.655,3731.479Z" transform="translate(5884.619 -3731.382)" fill="url(#linear-gradient-6)"/>
            </g>
          </g>
        </g>
        <g id="Group_68171" data-name="Group 68171" transform="translate(-5932.642 3722.303)">
          <g id="Group_68166" data-name="Group 68166" transform="translate(0 3.198)">
            <g id="Group_68165" data-name="Group 68165">
              <path id="Path_41271" data-name="Path 41271" d="M-5815.569,3878.44q-1.783,0-3.641-.053c-10.238-.29-22.152-1.744-38.63-4.714-19.969-3.6-34.15-12.323-39.931-24.565-5.722-12.117-2.687-26.667,8.548-40.972,7.6-9.677,14.487-16.994,21.058-22.37a64.821,64.821,0,0,1,20.176-11.535c6.47-2.256,13.809-3.629,23.1-4.32,8.605-.641,18.435-.685,29.818-.737,6.106-.028,13.028-.059,20.426-.19,9.663-.172,18.065,1.295,24.971,4.355a32.654,32.654,0,0,1,14.758,12.293c4.157,6.551,5.656,14.614,4.335,23.318-1.329,8.752-5.451,17.734-11.923,25.975-9.128,11.623-16.78,19.921-24.082,26.115-7.854,6.662-15.443,11.052-23.884,13.815A79.141,79.141,0,0,1-5815.569,3878.44Zm42.423-109.373q-.745,0-1.5.013c-7.4.13-14.321.162-20.428.19-11.38.051-21.208.1-29.809.736-9.275.691-16.6,2.062-23.063,4.314a64.71,64.71,0,0,0-20.141,11.516c-6.564,5.371-13.447,12.683-21.042,22.354-11.212,14.277-14.244,28.8-8.537,40.882,5.767,12.211,19.919,20.915,39.85,24.507,16.473,2.969,28.381,4.422,38.612,4.712,11.249.319,20.366-.8,28.691-3.527,8.426-2.758,16-7.141,23.845-13.793,7.3-6.189,14.944-14.482,24.068-26.1l.047.027-.047-.027c6.462-8.228,10.579-17.2,11.906-25.933,1.318-8.684-.177-16.727-4.323-23.26a32.551,32.551,0,0,0-14.71-12.253C-5756.259,3770.531-5764.131,3769.067-5773.146,3769.067Z" transform="translate(5900.595 -3768.971)" fill="url(#linear-gradient-7)"/>
            </g>
          </g>
          <g id="Group_68168" data-name="Group 68168" transform="translate(0.53 1.6)">
            <g id="Group_68167" data-name="Group 68167">
              <path id="Path_41272" data-name="Path 41272" d="M-5813.251,3867.8h-.034c-10.241,0-22.207-1.13-38.8-3.656-20.106-3.061-34.641-11.448-40.926-23.617-6.22-12.04-3.793-26.778,6.833-41.5,7.189-9.96,13.766-17.525,20.106-23.125a63.575,63.575,0,0,1,19.678-12.188c6.37-2.455,13.646-4.045,22.9-5,8.572-.889,18.392-1.211,29.763-1.585,6.1-.2,13.015-.428,20.4-.769,9.644-.445,18.1.792,25.124,3.676a33.339,33.339,0,0,1,15.259,11.953c4.433,6.48,6.271,14.56,5.315,23.366-.96,8.855-4.705,18.021-10.83,26.506l-.047-.026.047.026c-8.635,11.964-15.935,20.538-22.972,26.982-7.569,6.932-14.969,11.567-23.288,14.588C-5792.932,3866.415-5802,3867.8-5813.251,3867.8Zm43.689-111.435q-1.849,0-3.763.088c-7.388.341-14.3.568-20.4.769-11.368.374-21.186.7-29.753,1.585-9.239.958-16.5,2.546-22.864,5a63.461,63.461,0,0,0-19.643,12.167c-6.334,5.595-12.906,13.154-20.091,23.108-10.605,14.693-13.029,29.4-6.826,41.409,6.27,12.139,20.775,20.506,40.844,23.561,16.583,2.525,28.542,3.651,38.777,3.654h.034c11.238,0,20.29-1.387,28.486-4.364,8.3-3.016,15.692-7.644,23.25-14.566,7.032-6.439,14.327-15.008,22.958-26.967,6.115-8.472,9.854-17.623,10.813-26.464.953-8.786-.88-16.845-5.3-23.308a33.234,33.234,0,0,0-15.21-11.915A56.027,56.027,0,0,0-5769.562,3756.369Z" transform="translate(5896.385 -3756.272)" fill="url(#linear-gradient-8)"/>
            </g>
          </g>
          <g id="Group_68170" data-name="Group 68170" transform="translate(1.117)">
            <g id="Group_68169" data-name="Group 68169">
              <path id="Path_41273" data-name="Path 41273" d="M-5811.088,3857.222c-9.333,0-20.29-.836-34.775-2.635-20.215-2.511-35.085-10.545-41.871-22.621-6.714-11.949-4.9-26.861,5.1-41.989,6.769-10.236,13.026-18.041,19.127-23.861a62.384,62.384,0,0,1,19.153-12.834c6.263-2.654,13.466-4.462,22.668-5.691,8.527-1.139,18.325-1.743,29.67-2.443,6.087-.375,12.985-.8,20.352-1.354,9.611-.721,18.1.282,25.241,2.983a33.988,33.988,0,0,1,15.741,11.59c4.705,6.4,6.882,14.487,6.3,23.387-.589,8.95-3.95,18.292-9.719,27.016-8.13,12.295-15.067,21.137-21.83,27.827-7.275,7.2-14.476,12.075-22.661,15.354-8.088,3.24-17.1,4.9-28.357,5.214Q-5808.969,3857.222-5811.088,3857.222Zm45.32-113.559q-2.865,0-5.883.227c-7.366.553-14.266.979-20.353,1.354-11.343.7-21.139,1.3-29.662,2.442-9.191,1.228-16.383,3.033-22.635,5.682a62.277,62.277,0,0,0-19.121,12.813c-6.1,5.815-12.348,13.615-19.113,23.844-9.985,15.1-11.8,29.979-5.1,41.9,6.769,12.047,21.609,20.062,41.787,22.568,16.673,2.071,28.668,2.866,38.894,2.577,11.244-.317,20.24-1.971,28.314-5.206,8.171-3.273,15.36-8.145,22.624-15.33,6.758-6.685,13.691-15.523,21.818-27.812l.048.024-.048-.024c5.76-8.711,9.116-18.038,9.7-26.972.585-8.88-1.586-16.947-6.279-23.33a33.883,33.883,0,0,0-15.691-11.554A54.448,54.448,0,0,0-5765.769,3743.663Z" transform="translate(5891.72 -3743.566)" fill="url(#linear-gradient-9)"/>
            </g>
          </g>
        </g>
        <g id="Group_68178" data-name="Group 68178" transform="translate(-5933.366 3723.835)">
          <g id="Group_68173" data-name="Group 68173" transform="translate(0 2.196)">
            <g id="Group_68172" data-name="Group 68172">
              <path id="Path_41274" data-name="Path 41274" d="M-5819.591,3882.02c-2.253,0-4.589-.072-7.022-.213-10.229-.6-22.088-2.4-38.452-5.861-19.829-4.19-33.659-13.321-38.944-25.712-5.23-12.264-1.6-26.7,10.218-40.636,8-9.43,15.184-16.527,21.975-21.7a65.8,65.8,0,0,1,20.652-10.909c6.563-2.058,13.96-3.208,23.278-3.621,8.635-.382,18.47-.132,29.857.157,6.11.155,13.035.331,20.44.422,9.675.119,18.02,1.833,24.8,5.094a32.159,32.159,0,0,1,14.263,12.71c3.892,6.663,5.063,14.755,3.388,23.4-1.686,8.7-6.175,17.537-12.983,25.567-9.6,11.327-17.6,19.38-25.152,25.343-8.128,6.414-15.9,10.568-24.454,13.073A76.588,76.588,0,0,1-5819.591,3882.02Zm1.646-108.746c-3.484,0-6.789.055-9.936.194-9.307.412-16.693,1.561-23.246,3.615a65.679,65.679,0,0,0-20.615,10.89c-6.786,5.164-13.968,12.256-21.959,21.68-11.8,13.913-15.421,28.313-10.2,40.546,5.271,12.36,19.074,21.47,38.865,25.652,16.357,3.456,28.211,5.263,38.433,5.859,11.241.655,20.406-.191,28.846-2.662,8.54-2.5,16.3-6.647,24.414-13.052,7.55-5.958,15.537-14.007,25.138-25.328l.045.028-.045-.028c6.8-8.019,11.281-16.845,12.964-25.526,1.672-8.627.5-16.7-3.378-23.343a32.054,32.054,0,0,0-14.218-12.67c-6.768-3.253-15.095-4.962-24.749-5.081-7.407-.091-14.333-.267-20.443-.422C-5805.267,3773.442-5811.875,3773.274-5817.945,3773.274Z" transform="translate(5906.343 -3773.178)" fill="url(#linear-gradient-10)"/>
            </g>
          </g>
          <g id="Group_68175" data-name="Group 68175" transform="translate(0.472 1.604)">
            <g id="Group_68174" data-name="Group 68174">
              <path id="Path_41275" data-name="Path 41275" d="M-5817.245,3878.332q-1.89,0-3.862-.06c-10.246-.31-22.17-1.792-38.665-4.8-19.99-3.652-34.191-12.441-39.987-24.748-5.735-12.177-2.71-26.781,8.515-41.123,7.6-9.7,14.48-17.039,21.05-22.426a64.575,64.575,0,0,1,20.179-11.547c6.473-2.254,13.815-3.619,23.108-4.3,8.611-.628,18.448-.654,29.838-.685,6.111-.017,13.038-.035,20.441-.153,9.667-.154,18.073,1.332,24.986,4.415a32.849,32.849,0,0,1,14.781,12.362c4.172,6.587,5.684,14.688,4.373,23.429-1.319,8.79-5.436,17.805-11.907,26.071l-.046-.027.046.027c-9.123,11.655-16.772,19.974-24.073,26.181-7.853,6.676-15.443,11.07-23.888,13.829A78.632,78.632,0,0,1-5817.245,3878.332Zm41.969-109.757c-.447,0-.9,0-1.349.01-7.4.118-14.332.136-20.443.153-11.388.031-21.223.058-29.83.685-9.281.677-16.613,2.04-23.075,4.29a64.458,64.458,0,0,0-20.144,11.527c-6.563,5.382-13.444,12.712-21.035,22.41-11.2,14.314-14.224,28.887-8.5,41.033,5.782,12.277,19.955,21.045,39.907,24.69,16.488,3.012,28.407,4.493,38.645,4.8q1.971.06,3.857.06a78.5,78.5,0,0,0,24.852-3.549c8.429-2.754,16.007-7.142,23.849-13.808,7.295-6.2,14.94-14.516,24.058-26.166,6.46-8.254,10.572-17.255,11.889-26.03,1.308-8.721-.2-16.8-4.36-23.371a32.742,32.742,0,0,0-14.735-12.322C-5758.266,3770.058-5766.195,3768.575-5775.276,3768.575Z" transform="translate(5902.595 -3768.479)" fill="url(#linear-gradient-11)"/>
            </g>
          </g>
          <g id="Group_68177" data-name="Group 68177" transform="translate(1.004)">
            <g id="Group_68176" data-name="Group 68176">
              <path id="Path_41276" data-name="Path 41276" d="M-5814.886,3867.655h-.284c-10.249-.021-22.224-1.176-38.829-3.742-20.124-3.111-34.677-11.56-40.98-23.792-6.236-12.1-3.823-26.9,6.8-41.661,7.184-9.989,13.758-17.573,20.1-23.185a63.338,63.338,0,0,1,19.68-12.2c6.372-2.454,13.651-4.037,22.907-4.983,8.578-.877,18.4-1.183,29.783-1.537,6.105-.19,13.024-.405,20.417-.734,9.645-.429,18.1.827,25.133,3.732a33.527,33.527,0,0,1,15.282,12.017c4.45,6.516,6.3,14.635,5.358,23.481-.95,8.895-4.688,18.1-10.812,26.61l-.047-.025.047.025c-8.629,12-15.925,20.595-22.96,27.053-7.568,6.947-14.968,11.588-23.29,14.607C-5794.742,3866.274-5803.74,3867.655-5814.886,3867.655Zm43.214-111.823q-1.783,0-3.624.082c-7.393.329-14.312.544-20.417.734-11.376.354-21.2.66-29.773,1.537-9.245.945-16.514,2.526-22.875,4.975a63.233,63.233,0,0,0-19.645,12.182c-6.333,5.607-12.9,13.186-20.082,23.168-10.6,14.736-13.009,29.5-6.788,41.571,6.288,12.2,20.812,20.631,40.9,23.736,16.6,2.566,28.567,3.719,38.809,3.741h.284c11.131,0,20.114-1.377,28.253-4.33,8.307-3.013,15.694-7.647,23.251-14.584,7.031-6.454,14.322-15.045,22.948-27.038,6.114-8.5,9.847-17.688,10.795-26.568.942-8.825-.905-16.925-5.343-23.423a33.421,33.421,0,0,0-15.234-11.979A56.09,56.09,0,0,0-5771.671,3755.831Z" transform="translate(5898.372 -3755.735)" fill="url(#linear-gradient-12)"/>
            </g>
          </g>
        </g>
        <g id="Group_68185" data-name="Group 68185" transform="translate(-5934.026 3725.358)">
          <g id="Group_68180" data-name="Group 68180" transform="translate(0 0.54)">
            <g id="Group_68179" data-name="Group 68179">
              <path id="Path_41277" data-name="Path 41277" d="M-5823.526,3881.031c-3.175,0-6.506-.157-10.038-.469-10.207-.9-22-3.063-38.222-7.009-19.663-4.781-33.125-14.322-37.906-26.865-4.732-12.415-.514-26.731,11.876-40.311,8.382-9.187,15.861-16.065,22.865-21.028a66.743,66.743,0,0,1,21.1-10.286c6.649-1.861,14.095-2.79,23.432-2.923,8.653-.125,18.479.42,29.859,1.05,6.1.338,13.024.721,20.429,1.033,9.671.408,17.948,2.371,24.6,5.833a31.677,31.677,0,0,1,13.748,13.131c3.622,6.776,4.464,14.9,2.435,23.492-2.04,8.641-6.891,17.344-14.029,25.167-10.068,11.035-18.391,18.844-26.191,24.579-8.391,6.168-16.333,10.088-24.993,12.335A74.522,74.522,0,0,1-5823.526,3881.031Zm-4.348-108.812q-1.288,0-2.541.018c-9.326.133-16.761,1.06-23.4,2.918a66.614,66.614,0,0,0-21.064,10.269c-7,4.959-14.471,11.832-22.848,21.013-12.368,13.554-16.579,27.838-11.859,40.222,4.769,12.512,18.2,22.031,37.83,26.8,16.22,3.944,28,6.1,38.2,7.005,11.215.991,20.418.419,28.96-1.8,8.645-2.244,16.574-6.157,24.953-12.316,7.795-5.73,16.113-13.536,26.176-24.565l.044.03-.044-.03c7.127-7.811,11.972-16.5,14.008-25.126,2.023-8.573,1.184-16.676-2.427-23.433a31.579,31.579,0,0,0-13.705-13.089c-6.637-3.454-14.9-5.412-24.548-5.819-7.405-.312-14.325-.7-20.43-1.033C-5810.843,3772.718-5819.854,3772.219-5827.875,3772.219Z" transform="translate(5911.583 -3772.123)" fill="url(#linear-gradient-13)"/>
            </g>
          </g>
          <g id="Group_68182" data-name="Group 68182" transform="translate(0.412 0.503)">
            <g id="Group_68181" data-name="Group 68181">
              <path id="Path_41278" data-name="Path 41278" d="M-5821.283,3881.164c-2.311,0-4.71-.076-7.212-.227-10.235-.616-22.1-2.453-38.481-5.955-19.849-4.244-33.7-13.444-38.995-25.9-5.241-12.328-1.623-26.817,10.189-40.8,7.992-9.459,15.178-16.576,21.968-21.756a65.543,65.543,0,0,1,20.655-10.922c6.565-2.056,13.966-3.2,23.29-3.6,8.64-.369,18.481-.1,29.877.21,6.114.167,13.043.355,20.454.46,9.676.136,18.024,1.871,24.814,5.156a32.357,32.357,0,0,1,14.284,12.783c3.906,6.7,5.088,14.833,3.421,23.52-1.677,8.735-6.162,17.612-12.97,25.67-9.6,11.362-17.59,19.438-25.145,25.415-8.126,6.429-15.9,10.588-24.457,13.09A76.106,76.106,0,0,1-5821.283,3881.164Zm.8-109.24c-3.28,0-6.4.051-9.381.178-9.311.4-16.7,1.538-23.257,3.591a65.442,65.442,0,0,0-20.618,10.9c-6.785,5.176-13.965,12.288-21.953,21.741-11.789,13.954-15.4,28.411-10.174,40.708,5.284,12.429,19.1,21.607,38.916,25.843,16.371,3.5,28.233,5.337,38.462,5.953,11.248.677,20.418-.156,28.86-2.623,8.544-2.5,16.3-6.65,24.418-13.069,7.549-5.973,15.534-14.044,25.13-25.4l.045.028-.045-.028c6.8-8.046,11.276-16.908,12.95-25.629,1.664-8.667.484-16.78-3.411-23.461a32.254,32.254,0,0,0-14.238-12.743c-6.773-3.277-15.1-5.008-24.761-5.144-7.412-.1-14.342-.293-20.457-.46C-5807.458,3772.109-5814.255,3771.924-5820.482,3771.924Z" transform="translate(5908.314 -3771.827)" fill="url(#linear-gradient-14)"/>
            </g>
          </g>
          <g id="Group_68184" data-name="Group 68184" transform="translate(0.885)">
            <g id="Group_68183" data-name="Group 68183">
              <path id="Path_41279" data-name="Path 41279" d="M-5818.9,3878.093q-1.989,0-4.071-.067c-10.252-.33-22.186-1.839-38.692-4.894-20.006-3.7-34.224-12.555-40.035-24.926-5.749-12.24-2.737-26.9,8.482-41.287,7.591-9.732,14.474-17.088,21.043-22.487A64.324,64.324,0,0,1-5852,3772.87c6.474-2.252,13.819-3.61,23.118-4.274,8.616-.615,18.459-.625,29.856-.636,6.115-.006,13.046-.013,20.454-.118,9.665-.136,18.074,1.368,24.992,4.472a33.038,33.038,0,0,1,14.8,12.427c4.188,6.623,5.713,14.765,4.41,23.546-1.31,8.83-5.422,17.882-11.892,26.177-9.118,11.69-16.765,20.032-24.063,26.253-7.852,6.691-15.443,11.092-23.89,13.847A78.118,78.118,0,0,1-5818.9,3878.093Zm41.541-110.163q-.6,0-1.2.009c-7.409.1-14.341.112-20.456.117-11.395.011-21.235.021-29.848.635-9.286.663-16.622,2.02-23.085,4.268A64.217,64.217,0,0,0-5872.1,3784.5c-6.562,5.394-13.441,12.744-21.027,22.47-11.2,14.357-14.206,28.988-8.472,41.2,5.8,12.341,19.986,21.172,39.955,24.868,16.5,3.054,28.428,4.563,38.673,4.892,11.265.362,20.393-.736,28.724-3.454,8.432-2.751,16.011-7.145,23.851-13.826,7.294-6.216,14.936-14.553,24.05-26.238l.046.027-.046-.027c6.46-8.283,10.565-17.32,11.873-26.135,1.3-8.761-.221-16.883-4.4-23.488a32.935,32.935,0,0,0-14.756-12.388C-5760.24,3769.433-5768.221,3767.93-5777.363,3767.93Z" transform="translate(5904.552 -3767.834)" fill="url(#linear-gradient-15)"/>
            </g>
          </g>
        </g>
        <g id="Group_68192" data-name="Group 68192" transform="translate(-5934.619 3725.613)">
          <g id="Group_68187" data-name="Group 68187">
            <g id="Group_68186" data-name="Group 68186">
              <path id="Path_41280" data-name="Path 41280" d="M-5827.273,3879a108.411,108.411,0,0,1-12.771-.811c-10.172-1.207-21.875-3.72-37.943-8.15-19.471-5.369-32.546-15.311-36.816-28-4.226-12.555.577-26.744,13.523-39.952,8.759-8.935,16.52-15.59,23.727-20.343a67.625,67.625,0,0,1,21.525-9.654c6.726-1.662,14.21-2.368,23.555-2.222,8.659.135,18.465.973,29.821,1.942,6.092.521,13,1.11,20.389,1.644,9.656.7,17.855,2.907,24.368,6.568a31.2,31.2,0,0,1,13.215,13.541c3.346,6.884,3.856,15.031,1.477,23.563-2.393,8.579-7.6,17.136-15.058,24.745l-.043-.031.043.031c-10.52,10.732-19.162,18.293-27.2,23.793-8.644,5.917-16.747,9.6-25.5,11.587A72.872,72.872,0,0,1-5827.273,3879Zm-7.548-109.051A87.247,87.247,0,0,0-5856,3772.19a67.516,67.516,0,0,0-21.487,9.638c-7.2,4.749-14.956,11.4-23.709,20.329-12.922,13.183-17.717,27.34-13.5,39.864,4.259,12.654,17.308,22.573,36.743,27.931,16.062,4.428,27.758,6.941,37.924,8.147,11.178,1.326,20.4,1.03,29.038-.932,8.738-1.985,16.828-5.661,25.459-11.569,8.03-5.5,16.668-13.053,27.183-23.78,7.447-7.6,12.646-16.141,15.035-24.706,2.374-8.512,1.865-16.639-1.472-23.5a31.1,31.1,0,0,0-13.172-13.5c-6.5-3.652-14.678-5.857-24.315-6.553-7.394-.534-14.3-1.123-20.392-1.644-11.353-.97-21.158-1.807-29.812-1.942Q-5833.669,3769.954-5834.821,3769.953Z" transform="translate(5916.299 -3769.857)" fill="url(#linear-gradient-16)"/>
            </g>
          </g>
          <g id="Group_68189" data-name="Group 68189" transform="translate(0.349 0.09)">
            <g id="Group_68188" data-name="Group 68188">
              <path id="Path_41281" data-name="Path 41281" d="M-5825.228,3880c-3.224,0-6.609-.164-10.2-.488-10.213-.923-22.01-3.114-38.248-7.1-19.68-4.837-33.157-14.447-37.949-27.061-4.741-12.48-.532-26.854,11.853-40.476,8.379-9.216,15.857-16.115,22.86-21.09a66.47,66.47,0,0,1,21.1-10.3c6.651-1.858,14.1-2.779,23.442-2.9,8.657-.11,18.489.453,29.875,1.1,6.108.35,13.032.746,20.44,1.072,9.672.426,17.953,2.41,24.61,5.9a31.875,31.875,0,0,1,13.767,13.206c3.633,6.814,4.486,14.979,2.464,23.613-2.033,8.681-6.88,17.42-14.018,25.271-10.065,11.07-18.386,18.9-26.186,24.652-8.391,6.183-16.333,10.108-25,12.352A74.064,74.064,0,0,1-5825.228,3880Zm-4.912-109.334q-1.126,0-2.227.014c-9.33.118-16.769,1.038-23.409,2.893a66.353,66.353,0,0,0-21.067,10.282c-7,4.97-14.469,11.864-22.843,21.075-12.361,13.6-16.564,27.938-11.835,40.387,4.78,12.582,18.23,22.17,37.873,27,16.232,3.99,28.022,6.179,38.229,7.1,11.223,1.014,20.429.455,28.973-1.758,8.647-2.24,16.577-6.159,24.956-12.333,7.795-5.744,16.11-13.573,26.17-24.638l.044.03-.044-.03c7.127-7.839,11.967-16.564,14-25.231,2.017-8.613,1.167-16.758-2.456-23.554a31.774,31.774,0,0,0-13.724-13.164c-6.642-3.479-14.9-5.458-24.557-5.883-7.409-.326-14.333-.722-20.442-1.072C-5812.917,3771.19-5822.036,3770.668-5830.14,3770.668Z" transform="translate(5913.525 -3770.572)" fill="url(#linear-gradient-17)"/>
            </g>
          </g>
          <g id="Group_68191" data-name="Group 68191" transform="translate(0.762 0.062)">
            <g id="Group_68190" data-name="Group 68190">
              <path id="Path_41282" data-name="Path 41282" d="M-5822.959,3880.2c-2.367,0-4.823-.08-7.39-.24-10.242-.636-22.117-2.5-38.506-6.047-19.862-4.3-33.725-13.563-39.035-26.09-5.254-12.395-1.646-26.945,10.162-40.972,7.989-9.49,15.173-16.628,21.962-21.822a65.3,65.3,0,0,1,20.657-10.939c6.568-2.054,13.971-3.19,23.3-3.575,8.644-.356,18.49-.071,29.892.261,6.117.177,13.05.378,20.465.5,9.675.153,18.025,1.908,24.818,5.216a32.544,32.544,0,0,1,14.3,12.853c3.92,6.739,5.116,14.914,3.456,23.643-1.669,8.778-6.15,17.693-12.958,25.781-9.6,11.4-17.583,19.5-25.138,25.492-8.125,6.446-15.9,10.612-24.459,13.11A75.625,75.625,0,0,1-5822.959,3880.2Zm.031-109.753c-3.1,0-6.05.048-8.876.164-9.316.384-16.709,1.518-23.267,3.569a65.166,65.166,0,0,0-20.62,10.921c-6.784,5.189-13.963,12.322-21.947,21.807-11.784,14-15.388,28.519-10.147,40.883,5.3,12.5,19.132,21.74,38.957,26.029,16.382,3.544,28.251,5.408,38.487,6.044,11.254.7,20.429-.123,28.873-2.588,8.546-2.494,16.305-6.654,24.419-13.09,7.549-5.988,15.532-14.084,25.123-25.478l.045.028-.045-.028c6.8-8.076,11.272-16.978,12.938-25.74,1.656-8.709.464-16.865-3.446-23.585a32.445,32.445,0,0,0-14.257-12.812c-6.777-3.3-15.11-5.05-24.766-5.2-7.416-.117-14.349-.318-20.466-.5C-5809.593,3770.649-5816.559,3770.447-5822.928,3770.447Z" transform="translate(5910.244 -3770.351)" fill="url(#linear-gradient-18)"/>
            </g>
          </g>
        </g>
        <g id="Group_68199" data-name="Group 68199" transform="translate(-5935.145 3725.24)">
          <g id="Group_68194" data-name="Group 68194">
            <g id="Group_68193" data-name="Group 68193">
              <path id="Path_41283" data-name="Path 41283" d="M-5830.756,3876.38a103.459,103.459,0,0,1-15.283-1.231c-10.125-1.511-21.724-4.375-37.613-9.286-19.253-5.951-31.924-16.286-35.677-29.1-3.714-12.683,1.667-26.73,15.154-39.553,9.124-8.674,17.156-15.1,24.558-19.636a68.465,68.465,0,0,1,21.921-9.012c6.794-1.461,14.308-1.943,23.647-1.518,8.654.394,18.427,1.525,29.744,2.834,6.072.7,12.953,1.5,20.325,2.254,9.628.986,17.737,3.441,24.1,7.3a30.732,30.732,0,0,1,12.663,13.938c3.065,6.984,3.244,15.148.516,23.61-2.742,8.509-8.3,16.911-16.069,24.3-10.958,10.419-19.91,17.722-28.172,22.983-8.885,5.659-17.139,9.1-25.975,10.826A71.581,71.581,0,0,1-5830.756,3876.38Zm-9.515-109.387a81.928,81.928,0,0,0-17.4,1.664,68.357,68.357,0,0,0-21.882,9c-7.394,4.534-15.422,10.953-24.54,19.622-13.461,12.8-18.834,26.814-15.129,39.465,3.744,12.782,16.389,23.093,35.606,29.033,15.882,4.909,27.477,7.772,37.594,9.281,11.125,1.66,20.364,1.64,29.08-.064,8.819-1.724,17.06-5.159,25.932-10.809,8.255-5.257,17.2-12.556,28.155-22.97l.042.032-.042-.032c7.757-7.376,13.306-15.764,16.044-24.259,2.721-8.442,2.544-16.585-.512-23.551a30.637,30.637,0,0,0-12.624-13.893c-6.349-3.847-14.44-6.3-24.05-7.28-7.373-.755-14.254-1.552-20.326-2.254-11.313-1.309-21.085-2.44-29.735-2.833C-5836.221,3767.043-5838.289,3766.993-5840.271,3766.993Z" transform="translate(5920.475 -3766.897)" fill="url(#linear-gradient-19)"/>
            </g>
          </g>
          <g id="Group_68196" data-name="Group 68196" transform="translate(0.285 0.158)">
            <g id="Group_68195" data-name="Group 68195">
              <path id="Path_41284" data-name="Path 41284" d="M-5828.979,3877.843a107.631,107.631,0,0,1-12.915-.835c-10.177-1.228-21.886-3.772-37.964-8.249-19.486-5.425-32.574-15.438-36.853-28.195-4.233-12.621.563-26.869,13.5-40.119,8.755-8.965,16.516-15.639,23.722-20.4a67.34,67.34,0,0,1,21.528-9.667c6.728-1.659,14.216-2.357,23.563-2.2,8.663.149,18.474,1.006,29.834,2,6.1.533,13,1.136,20.4,1.684,9.657.715,17.858,2.947,24.375,6.633a31.4,31.4,0,0,1,13.23,13.617c3.357,6.923,3.876,15.113,1.5,23.686-2.387,8.62-7.591,17.213-15.05,24.85-10.518,10.768-19.159,18.352-27.195,23.866-8.644,5.932-16.748,9.619-25.5,11.6A72.43,72.43,0,0,1-5828.979,3877.843Zm-7.981-109.591a86.512,86.512,0,0,0-20.965,2.214,67.239,67.239,0,0,0-21.49,9.651c-7.2,4.761-14.954,11.43-23.705,20.39-12.917,13.225-17.7,27.441-13.482,40.03,4.268,12.725,17.33,22.715,36.779,28.13,16.072,4.475,27.775,7.018,37.945,8.246,11.183,1.35,20.414,1.067,29.051-.891,8.739-1.981,16.83-5.663,25.461-11.585,8.03-5.51,16.667-13.09,27.179-23.853l.043.031-.043-.031c7.448-7.625,12.644-16.2,15.027-24.811,2.368-8.552,1.85-16.722-1.5-23.626a31.3,31.3,0,0,0-13.189-13.574c-6.5-3.677-14.683-5.9-24.321-6.618-7.4-.548-14.306-1.151-20.4-1.684-11.357-.992-21.167-1.849-29.825-2Q-5835.7,3768.251-5836.96,3768.251Z" transform="translate(5918.211 -3768.155)" fill="url(#linear-gradient-20)"/>
            </g>
          </g>
          <g id="Group_68198" data-name="Group 68198" transform="translate(0.635 0.253)">
            <g id="Group_68197" data-name="Group 68197">
              <path id="Path_41285" data-name="Path 41285" d="M-5826.916,3878.876c-3.27,0-6.705-.17-10.354-.507-10.219-.943-22.021-3.163-38.269-7.2-19.692-4.891-33.181-14.569-37.983-27.25-4.751-12.547-.55-26.985,11.831-40.652,8.376-9.248,15.853-16.168,22.855-21.156a66.19,66.19,0,0,1,21.106-10.317c6.652-1.857,14.1-2.771,23.45-2.875,8.66-.1,18.5.484,29.887,1.156,6.112.361,13.039.77,20.451,1.109,9.67.443,17.951,2.447,24.612,5.957a32.062,32.062,0,0,1,13.783,13.277c3.647,6.854,4.51,15.062,2.495,23.739-2.026,8.724-6.871,17.5-14.01,25.383-10.061,11.108-18.38,18.966-26.18,24.73-8.39,6.2-16.333,10.131-25,12.373A73.609,73.609,0,0,1-5826.916,3878.876Zm-5.426-109.87q-.978,0-1.936.01c-9.334.1-16.775,1.016-23.417,2.87a66.08,66.08,0,0,0-21.069,10.3c-7,4.984-14.467,11.9-22.838,21.141-12.357,13.642-16.552,28.047-11.813,40.563,4.791,12.65,18.252,22.306,37.907,27.188,16.241,4.034,28.039,6.253,38.25,7.2,11.228,1.036,20.438.489,28.985-1.721,8.649-2.237,16.58-6.163,24.958-12.354,7.794-5.76,16.108-13.613,26.165-24.716l.044.029-.044-.029c7.129-7.87,11.966-16.634,13.989-25.344,2.011-8.656,1.15-16.844-2.487-23.68a31.964,31.964,0,0,0-13.739-13.235c-6.645-3.5-14.908-5.5-24.56-5.944-7.413-.339-14.339-.748-20.452-1.109C-5814.946,3769.55-5824.162,3769.006-5832.342,3769.006Z" transform="translate(5915.428 -3768.91)" fill="url(#linear-gradient-21)"/>
            </g>
          </g>
        </g>
        <g id="Group_68206" data-name="Group 68206" transform="translate(-5935.602 3724.81)">
          <g id="Group_68201" data-name="Group 68201">
            <g id="Group_68200" data-name="Group 68200">
              <path id="Path_41286" data-name="Path 41286" d="M-5833.915,3873.358a99.1,99.1,0,0,1-17.619-1.725c-10.062-1.814-21.545-5.025-37.234-10.413-19.011-6.528-31.259-17.244-34.489-30.174-3.2-12.8,2.757-26.686,16.767-39.109,9.477-8.4,17.772-14.588,25.359-18.906a69.256,69.256,0,0,1,22.288-8.358c6.854-1.258,14.388-1.516,23.709-.812,8.638.653,18.365,2.076,29.628,3.724,6.042.884,12.892,1.886,20.232,2.862,9.588,1.274,17.6,3.973,23.8,8.02a30.282,30.282,0,0,1,12.095,14.32c2.78,7.078,2.625,15.249-.448,23.631-3.09,8.429-8.989,16.667-17.06,23.823l-.041-.033.041.033c-11.384,10.094-20.633,17.131-29.109,22.146-9.117,5.394-17.511,8.588-26.417,10.052A70.572,70.572,0,0,1-5833.915,3873.358Zm-10.727-109.784a77.917,77.917,0,0,0-14.178,1.194,69.144,69.144,0,0,0-22.249,8.344c-7.58,4.314-15.869,10.495-25.341,18.893-13.982,12.4-19.927,26.257-16.738,39.022,3.222,12.9,15.446,23.589,34.421,30.1,15.682,5.385,27.16,8.6,37.216,10.408,11.056,1.993,20.3,2.249,29.081.806,8.89-1.461,17.27-4.65,26.374-10.036,8.469-5.011,17.713-12.045,29.092-22.134,8.059-7.146,13.949-15.37,17.034-23.785,3.065-8.363,3.22-16.513.448-23.572a30.184,30.184,0,0,0-12.057-14.273c-6.191-4.037-14.183-6.729-23.752-8-7.341-.976-14.191-1.978-20.235-2.862-11.26-1.648-20.985-3.071-29.619-3.723C-5838.527,3763.7-5841.676,3763.574-5844.641,3763.574Z" transform="translate(5924.101 -3763.477)" fill="url(#linear-gradient-22)"/>
            </g>
          </g>
          <g id="Group_68203" data-name="Group 68203" transform="translate(0.219 0.2)">
            <g id="Group_68202" data-name="Group 68202">
              <path id="Path_41287" data-name="Path 41287" d="M-5832.464,3875.106a102.872,102.872,0,0,1-15.409-1.26c-10.128-1.533-21.734-4.428-37.631-9.387-19.267-6.01-31.948-16.416-35.706-29.3-3.719-12.75,1.657-26.856,15.14-39.72,9.122-8.7,17.154-15.147,24.556-19.7a68.171,68.171,0,0,1,21.923-9.024c6.8-1.458,14.312-1.931,23.655-1.491,8.657.409,18.435,1.56,29.755,2.892,6.074.715,12.958,1.525,20.333,2.295,9.628,1,17.738,3.482,24.105,7.363a30.935,30.935,0,0,1,12.677,14.015c3.075,7.024,3.261,15.231.538,23.734-2.739,8.55-8.293,16.988-16.064,24.4l-.042-.032.042.032c-10.957,10.455-19.908,17.781-28.168,23.056-8.886,5.674-17.141,9.119-25.979,10.842A71.162,71.162,0,0,1-5832.464,3875.106Zm-9.868-109.943a81.286,81.286,0,0,0-17.232,1.647,68.059,68.059,0,0,0-21.885,9.009c-7.395,4.546-15.421,10.984-24.538,19.683-13.456,12.84-18.824,26.915-15.114,39.632,3.75,12.854,16.405,23.236,35.636,29.235,15.891,4.957,27.49,7.85,37.612,9.382,11.129,1.685,20.372,1.677,29.088-.021,8.822-1.719,17.063-5.159,25.936-10.825,8.255-5.271,17.2-12.593,28.153-23.043,7.759-7.4,13.305-15.829,16.04-24.364,2.717-8.483,2.532-16.669-.535-23.674a30.832,30.832,0,0,0-12.637-13.971c-6.352-3.872-14.444-6.344-24.053-7.346-7.375-.77-14.26-1.58-20.334-2.295-11.318-1.332-21.093-2.483-29.747-2.891C-5838.172,3765.216-5840.3,3765.163-5842.332,3765.163Z" transform="translate(5922.359 -3765.066)" fill="url(#linear-gradient-23)"/>
            </g>
          </g>
          <g id="Group_68205" data-name="Group 68205" transform="translate(0.505 0.362)">
            <g id="Group_68204" data-name="Group 68204">
              <path id="Path_41288" data-name="Path 41288" d="M-5830.675,3876.591a107.036,107.036,0,0,1-13.046-.858c-10.182-1.249-21.9-3.823-37.982-8.345-19.5-5.481-32.593-15.562-36.879-28.388-4.241-12.69.549-27,13.487-40.3,8.754-9,16.513-15.692,23.72-20.471a67.068,67.068,0,0,1,21.529-9.684c6.729-1.658,14.219-2.347,23.571-2.172,8.666.163,18.48,1.038,29.845,2.052,6.1.544,13.008,1.161,20.408,1.722,9.654.732,17.854,2.985,24.374,6.695a31.586,31.586,0,0,1,13.244,13.69c3.369,6.962,3.9,15.2,1.529,23.813-2.382,8.663-7.584,17.3-15.046,24.963l-.043-.031.043.031c-10.515,10.806-19.155,18.415-27.191,23.944-8.644,5.949-16.748,9.642-25.506,11.624A72.042,72.042,0,0,1-5830.675,3876.591Zm-8.371-110.145a85.787,85.787,0,0,0-20.769,2.2,66.947,66.947,0,0,0-21.492,9.667c-7.2,4.774-14.954,11.465-23.7,20.457-12.915,13.271-17.7,27.551-13.465,40.208,4.276,12.794,17.347,22.852,36.807,28.323,16.079,4.521,27.787,7.093,37.962,8.342,11.188,1.373,20.421,1.1,29.06-.853,8.742-1.978,16.833-5.666,25.464-11.605,8.029-5.526,16.664-13.13,27.174-23.931,7.451-7.656,12.645-16.275,15.022-24.924,2.363-8.6,1.837-16.81-1.523-23.753a31.487,31.487,0,0,0-13.2-13.646c-6.5-3.7-14.686-5.948-24.321-6.679-7.4-.562-14.312-1.178-20.41-1.722-11.362-1.014-21.175-1.889-29.836-2.052Q-5837.69,3766.446-5839.046,3766.446Z" transform="translate(5920.088 -3766.35)" fill="url(#linear-gradient-24)"/>
            </g>
          </g>
        </g>
        <g id="Group_68213" data-name="Group 68213" transform="translate(-5935.987 3724.341)">
          <g id="Group_68208" data-name="Group 68208">
            <g id="Group_68207" data-name="Group 68207">
              <path id="Path_41289" data-name="Path 41289" d="M-5836.7,3870.068a95.251,95.251,0,0,1-19.812-2.286c-9.987-2.115-21.339-5.671-36.807-11.53-18.743-7.1-30.554-18.184-33.256-31.214-2.674-12.9,3.846-26.613,18.362-38.62,9.818-8.123,18.366-14.061,26.127-18.154a69.993,69.993,0,0,1,22.626-7.694,91.653,91.653,0,0,1,23.74-.1c8.612.912,18.279,2.626,29.474,4.612,6.006,1.065,12.814,2.272,20.114,3.468,9.536,1.561,17.434,4.5,23.475,8.734a29.848,29.848,0,0,1,11.51,14.686c2.491,7.163,2,15.332-1.412,23.625-3.434,8.339-9.668,16.4-18.03,23.32l-.04-.035.04.035c-11.794,9.757-21.331,16.519-30.009,21.283-9.337,5.123-17.86,8.067-26.825,9.265A69.783,69.783,0,0,1-5836.7,3870.068ZM-5848.1,3759.85a74.76,74.76,0,0,0-11.345.814,69.862,69.862,0,0,0-22.588,7.682c-7.755,4.089-16.295,10.023-26.108,18.141-14.488,11.985-21,25.67-18.329,38.533,2.7,13,14.483,24.058,33.191,31.143,15.462,5.856,26.807,9.41,36.788,11.524,10.975,2.324,20.2,2.857,29.046,1.676,8.949-1.2,17.459-4.135,26.781-9.251,8.674-4.76,18.2-11.519,29.993-21.271,8.35-6.907,14.574-14.958,18-23.283,3.406-8.273,3.893-16.422,1.409-23.565a29.746,29.746,0,0,0-11.473-14.639c-6.026-4.224-13.908-7.156-23.424-8.714-7.3-1.2-14.109-2.4-20.116-3.469-11.192-1.985-20.858-3.7-29.464-4.61A117.477,117.477,0,0,0-5848.1,3759.85Z" transform="translate(5927.165 -3759.754)" fill="url(#linear-gradient-25)"/>
            </g>
          </g>
          <g id="Group_68210" data-name="Group 68210" transform="translate(0.152 0.224)">
            <g id="Group_68209" data-name="Group 68209">
              <path id="Path_41290" data-name="Path 41290" d="M-5835.625,3871.979a98.549,98.549,0,0,1-17.728-1.757c-10.065-1.837-21.554-5.08-37.248-10.516-19.021-6.588-31.278-17.376-34.512-30.378-3.2-12.864,2.751-26.813,16.758-39.277,9.477-8.433,17.771-14.638,25.358-18.967a68.956,68.956,0,0,1,22.291-8.371c6.854-1.255,14.391-1.5,23.715-.783,8.641.668,18.371,2.112,29.638,3.783,6.045.9,12.9,1.914,20.238,2.9,9.588,1.293,17.6,4.014,23.806,8.087a30.483,30.483,0,0,1,12.105,14.4c2.788,7.118,2.64,15.333-.43,23.756-3.087,8.47-8.985,16.745-17.059,23.928l-.04-.033.04.033c-11.383,10.13-20.633,17.19-29.108,22.219-9.117,5.41-17.512,8.608-26.419,10.067A70.18,70.18,0,0,1-5835.625,3871.979Zm-11.014-110.353a77.348,77.348,0,0,0-14.044,1.181,68.828,68.828,0,0,0-22.251,8.356c-7.58,4.326-15.869,10.525-25.34,18.954-13.979,12.44-19.921,26.358-16.729,39.19,3.226,12.969,15.458,23.733,34.444,30.309,15.688,5.434,27.17,8.675,37.229,10.511,11.06,2.018,20.3,2.288,29.089.849,8.892-1.456,17.272-4.65,26.377-10.051,8.47-5.025,17.714-12.082,29.091-22.207,8.061-7.173,13.95-15.434,17.032-23.89,3.063-8.4,3.211-16.6.43-23.7a30.382,30.382,0,0,0-12.066-14.352c-6.194-4.063-14.186-6.778-23.755-8.068-7.344-.991-14.2-2.007-20.24-2.9-11.264-1.671-20.992-3.115-29.628-3.782C-5840.437,3761.76-5843.633,3761.626-5846.639,3761.626Z" transform="translate(5925.958 -3761.53)" fill="url(#linear-gradient-26)"/>
            </g>
          </g>
          <g id="Group_68212" data-name="Group 68212" transform="translate(0.372 0.426)">
            <g id="Group_68211" data-name="Group 68211">
              <path id="Path_41291" data-name="Path 41291" d="M-5834.164,3873.741a102.239,102.239,0,0,1-15.523-1.287c-10.131-1.555-21.742-4.48-37.645-9.485-19.274-6.066-31.962-16.542-35.727-29.5-3.725-12.819,1.648-26.989,15.128-39.9,9.122-8.736,17.153-15.2,24.555-19.763a67.9,67.9,0,0,1,21.926-9.04c6.8-1.456,14.315-1.923,23.661-1.467,8.659.422,18.439,1.592,29.764,2.947,6.076.727,12.962,1.55,20.339,2.333,9.625,1.022,17.734,3.521,24.1,7.426A31.123,31.123,0,0,1-5750.9,3790.1c3.086,7.064,3.28,15.316.561,23.862-2.735,8.594-8.29,17.071-16.063,24.516l-.042-.032.042.032c-10.956,10.493-19.906,17.844-28.168,23.134-8.886,5.69-17.141,9.142-25.98,10.861A70.763,70.763,0,0,1-5834.164,3873.741Zm-10.181-110.51a80.7,80.7,0,0,0-17.078,1.631,67.774,67.774,0,0,0-21.887,9.025c-7.4,4.559-15.421,11.019-24.537,19.75-13.455,12.886-18.819,27.025-15.1,39.812,3.755,12.924,16.418,23.376,35.656,29.43,15.9,5,27.5,7.927,37.625,9.481,11.133,1.708,20.377,1.714,29.1.018,8.823-1.716,17.065-5.162,25.938-10.844,8.255-5.286,17.2-12.633,28.151-23.121,7.762-7.434,13.308-15.9,16.038-24.478,2.713-8.526,2.521-16.757-.557-23.8a31.026,31.026,0,0,0-12.648-14.044c-6.353-3.9-14.445-6.389-24.05-7.409-7.378-.783-14.265-1.607-20.341-2.334-11.322-1.354-21.1-2.524-29.756-2.946C-5840.082,3763.287-5842.26,3763.231-5844.345,3763.231Z" transform="translate(5924.21 -3763.134)" fill="url(#linear-gradient-27)"/>
            </g>
          </g>
        </g>
        <g id="Group_68220" data-name="Group 68220" transform="translate(-5936.301 3723.848)">
          <g id="Group_68215" data-name="Group 68215">
            <g id="Group_68214" data-name="Group 68214">
              <path id="Path_41292" data-name="Path 41292" d="M-5839.081,3866.6a91.823,91.823,0,0,1-21.893-2.913c-9.9-2.415-21.1-6.312-36.33-12.635-18.451-7.662-29.808-19.1-31.979-32.221-2.149-12.981,4.93-26.506,19.932-38.083,10.149-7.832,18.936-13.516,26.864-17.378a70.667,70.667,0,0,1,22.936-7.021,91.626,91.626,0,0,1,23.741.608c8.572,1.169,18.169,3.174,29.281,5.5,5.961,1.245,12.719,2.657,19.97,4.071,9.47,1.847,17.247,5.023,23.115,9.439A29.422,29.422,0,0,1-5752.535,3791c2.2,7.24,1.378,15.4-2.374,23.591-3.773,8.239-10.335,16.12-18.978,22.789l-.038-.036.038.036c-12.189,9.407-22,15.887-30.872,20.392-9.543,4.846-18.186,7.536-27.2,8.465A69.188,69.188,0,0,1-5839.081,3866.6Zm-11.664-110.668a72.327,72.327,0,0,0-8.79.514,70.516,70.516,0,0,0-22.9,7.009c-7.92,3.858-16.7,9.539-26.844,17.366-14.974,11.555-22.039,25.05-19.9,38,2.166,13.083,13.5,24.5,31.916,32.147,15.22,6.321,26.419,10.215,36.313,12.629,10.877,2.653,20.084,3.462,28.972,2.545,9-.928,17.625-3.614,27.154-8.453,8.865-4.5,18.67-10.978,30.854-20.38,8.629-6.66,15.182-14.527,18.948-22.752,3.744-8.174,4.563-16.312,2.37-23.531a29.323,29.323,0,0,0-10.875-14.987c-5.853-4.406-13.613-7.574-23.065-9.418-7.251-1.414-14.009-2.826-19.97-4.071-11.11-2.321-20.7-4.325-29.272-5.494A110.389,110.389,0,0,0-5850.745,3755.935Z" transform="translate(5929.66 -3755.838)" fill="url(#linear-gradient-28)"/>
            </g>
          </g>
          <g id="Group_68217" data-name="Group 68217" transform="translate(0.084 0.235)">
            <g id="Group_68216" data-name="Group 68216">
              <path id="Path_41293" data-name="Path 41293" d="M-5838.412,3868.6a94.712,94.712,0,0,1-19.908-2.323c-9.99-2.138-21.345-5.727-36.817-11.634-18.751-7.16-30.567-18.319-33.271-31.422-2.675-12.964,3.844-26.74,18.357-38.788,9.82-8.152,18.366-14.11,26.129-18.214a69.679,69.679,0,0,1,22.629-7.706c6.906-1.05,14.451-1.073,23.745-.073,8.613.927,18.283,2.663,29.48,4.672,6.008,1.078,12.817,2.3,20.119,3.511,9.534,1.581,17.432,4.542,23.474,8.8a30.042,30.042,0,0,1,11.518,14.765c2.5,7.2,2.016,15.417-1.4,23.751-3.431,8.38-9.667,16.481-18.031,23.425l-.04-.035.04.035c-11.795,9.792-21.331,16.578-30.011,21.354-9.337,5.138-17.861,8.086-26.828,9.279A69.405,69.405,0,0,1-5838.412,3868.6Zm-11.627-110.8a74.3,74.3,0,0,0-11.235.8,69.559,69.559,0,0,0-22.59,7.693c-7.755,4.1-16.3,10.054-26.109,18.2-14.485,12.026-20.993,25.771-18.324,38.7,2.7,13.07,14.49,24.2,33.206,31.35,15.466,5.905,26.815,9.491,36.8,11.629,10.978,2.35,20.209,2.9,29.052,1.721,8.95-1.19,17.46-4.134,26.784-9.265,8.673-4.773,18.2-11.555,29.993-21.342,8.352-6.934,14.578-15.022,18-23.388,3.4-8.315,3.887-16.507,1.4-23.691a29.951,29.951,0,0,0-11.482-14.719c-6.027-4.25-13.908-7.2-23.423-8.782-7.3-1.211-14.112-2.433-20.121-3.511-11.2-2.009-20.864-3.744-29.472-4.671A116.745,116.745,0,0,0-5850.039,3757.8Z" transform="translate(5928.996 -3757.702)" fill="url(#linear-gradient-29)"/>
            </g>
          </g>
          <g id="Group_68219" data-name="Group 68219" transform="translate(0.236 0.46)">
            <g id="Group_68218" data-name="Group 68218">
              <path id="Path_41294" data-name="Path 41294" d="M-5837.328,3870.518a97.993,97.993,0,0,1-17.828-1.788c-10.068-1.859-21.559-5.133-37.258-10.616-19.026-6.645-31.288-17.5-34.525-30.576-3.2-12.934,2.747-26.947,16.752-39.457,9.477-8.465,17.772-14.69,25.359-19.033a68.66,68.66,0,0,1,22.293-8.385c6.856-1.253,14.393-1.494,23.72-.758,8.643.682,18.375,2.145,29.644,3.839,6.046.909,12.9,1.94,20.244,2.944,9.583,1.311,17.591,4.053,23.8,8.15a30.671,30.671,0,0,1,12.114,14.473c2.8,7.159,2.656,15.419-.411,23.886-3.084,8.514-8.983,16.827-17.061,24.042-11.382,10.167-20.632,17.252-29.109,22.3-9.117,5.425-17.513,8.63-26.422,10.085A69.779,69.779,0,0,1-5837.328,3870.518Zm-11.264-110.931a76.8,76.8,0,0,0-13.92,1.17,68.551,68.551,0,0,0-22.254,8.371c-7.58,4.339-15.869,10.56-25.34,19.019-13.979,12.487-19.918,26.469-16.724,39.37,3.23,13.04,15.467,23.875,34.458,30.507,15.693,5.481,27.178,8.753,37.24,10.611,11.063,2.042,20.308,2.325,29.095.89,8.893-1.452,17.275-4.652,26.379-10.07,8.47-5.04,17.714-12.121,29.091-22.283l.041.033-.041-.033c8.065-7.2,13.955-15.5,17.034-24,3.06-8.448,3.2-16.687.412-23.826a30.578,30.578,0,0,0-12.076-14.427c-6.194-4.087-14.185-6.823-23.749-8.132-7.346-1-14.2-2.035-20.246-2.944-11.267-1.694-21-3.157-29.635-3.839C-5842.312,3759.726-5845.548,3759.587-5848.592,3759.587Z" transform="translate(5927.786 -3759.49)" fill="url(#linear-gradient-30)"/>
            </g>
          </g>
        </g>
        <g id="Group_68227" data-name="Group 68227" transform="translate(-5936.543 3723.342)">
          <g id="Group_68222" data-name="Group 68222">
            <g id="Group_68221" data-name="Group 68221">
              <path id="Path_41295" data-name="Path 41295" d="M-5841.017,3863.038a88.73,88.73,0,0,1-23.884-3.6c-9.8-2.712-20.842-6.946-35.807-13.727-18.134-8.217-29.021-20-30.658-33.189-1.619-13.05,6.009-26.368,21.479-37.5,10.465-7.531,19.482-12.954,27.565-16.58a71.238,71.238,0,0,1,23.217-6.336,91.5,91.5,0,0,1,23.71,1.319c8.522,1.427,18.036,3.719,29.05,6.374,5.91,1.424,12.608,3.039,19.8,4.671,9.392,2.131,17.038,5.541,22.724,10.135a29.027,29.027,0,0,1,10.294,15.367c1.9,7.308.75,15.444-3.335,23.528-4.107,8.129-10.989,15.816-19.9,22.229l-.037-.037.037.037c-12.57,9.046-22.642,15.234-31.7,19.475-9.738,4.562-18.488,6.994-27.536,7.654Q-5838.488,3863.037-5841.017,3863.038Zm-11.639-111.124c-2.216,0-4.351.1-6.437.288a71.123,71.123,0,0,0-23.176,6.325c-8.076,3.623-17.086,9.042-27.545,16.568-15.441,11.111-23.054,24.4-21.439,37.416,1.632,13.152,12.5,24.912,30.6,33.114,14.959,6.779,26,11.01,35.789,13.72,10.767,2.98,19.938,4.065,28.862,3.414,9.031-.659,17.767-3.087,27.491-7.642,9.047-4.238,19.112-10.423,31.677-19.464,8.9-6.4,15.77-14.077,19.871-22.193,4.076-8.065,5.226-16.18,3.328-23.469a28.931,28.931,0,0,0-10.262-15.318c-5.672-4.582-13.3-7.984-22.675-10.112-7.192-1.632-13.89-3.246-19.8-4.671-11.013-2.654-20.523-4.946-29.041-6.372A104.3,104.3,0,0,0-5852.656,3751.914Z" transform="translate(5931.579 -3751.817)" fill="url(#linear-gradient-31)"/>
            </g>
          </g>
          <g id="Group_68224" data-name="Group 68224" transform="translate(0.014 0.236)">
            <g id="Group_68223" data-name="Group 68223">
              <path id="Path_41296" data-name="Path 41296" d="M-5840.79,3865.046a91.315,91.315,0,0,1-21.977-2.952c-9.9-2.439-21.107-6.368-36.337-12.742-18.457-7.724-29.816-19.241-31.986-32.429-2.147-13.049,4.932-26.634,19.933-38.252,10.15-7.861,18.938-13.565,26.866-17.438a70.33,70.33,0,0,1,22.939-7.031,91.218,91.218,0,0,1,23.745.638c8.573,1.185,18.171,3.211,29.285,5.557,5.963,1.259,12.721,2.685,19.973,4.115,9.468,1.866,17.243,5.066,23.111,9.509a29.622,29.622,0,0,1,10.916,15.116c2.2,7.281,1.387,15.482-2.364,23.717-3.772,8.281-10.336,16.2-18.982,22.894-12.191,9.442-22,15.944-30.875,20.463-9.544,4.86-18.187,7.554-27.2,8.478A68.828,68.828,0,0,1-5840.79,3865.046Zm-11.848-111.255a71.834,71.834,0,0,0-8.7.507,70.2,70.2,0,0,0-22.9,7.019c-7.921,3.869-16.7,9.569-26.846,17.426-14.972,11.6-22.038,25.151-19.9,38.167,2.165,13.156,13.5,24.646,31.924,32.356,15.223,6.371,26.424,10.3,36.319,12.735,10.879,2.68,20.087,3.5,28.977,2.592,9-.923,17.626-3.613,27.156-8.466,8.867-4.515,18.672-11.013,30.857-20.451l.038.036-.038-.036c8.633-6.687,15.187-14.591,18.952-22.857,3.743-8.216,4.559-16.4,2.36-23.658a29.531,29.531,0,0,0-10.88-15.067c-5.854-4.432-13.613-7.624-23.062-9.487-7.252-1.43-14.011-2.857-19.974-4.115-11.112-2.345-20.708-4.371-29.277-5.555A109.63,109.63,0,0,0-5852.637,3753.791Z" transform="translate(5931.466 -3753.694)" fill="url(#linear-gradient-32)"/>
            </g>
          </g>
          <g id="Group_68226" data-name="Group 68226" transform="translate(0.098 0.472)">
            <g id="Group_68225" data-name="Group 68225">
              <path id="Path_41297" data-name="Path 41297" d="M-5840.117,3867.045a94.207,94.207,0,0,1-19.995-2.357c-9.991-2.161-21.348-5.781-36.823-11.736-18.754-7.218-30.573-18.448-33.278-31.622-2.677-13.034,3.842-26.873,18.355-38.968,9.82-8.183,18.367-14.162,26.13-18.279a69.365,69.365,0,0,1,22.632-7.72c6.907-1.048,14.453-1.063,23.749-.047,8.613.941,18.285,2.7,29.484,4.729,6.009,1.09,12.819,2.327,20.122,3.552,9.529,1.6,17.424,4.582,23.466,8.867a30.238,30.238,0,0,1,11.524,14.841c2.507,7.246,2.029,15.5-1.383,23.881-3.43,8.424-9.667,16.564-18.036,23.539-11.8,9.83-21.333,16.639-30.013,21.431-9.338,5.154-17.863,8.108-26.831,9.3A68.989,68.989,0,0,1-5840.117,3867.045Zm-11.823-111.383a73.785,73.785,0,0,0-11.134.8,69.252,69.252,0,0,0-22.593,7.707c-7.756,4.113-16.3,10.087-26.111,18.266-14.486,12.072-20.994,25.88-18.323,38.882,2.7,13.141,14.494,24.346,33.213,31.55,15.469,5.954,26.819,9.571,36.8,11.731,10.979,2.375,20.211,2.935,29.056,1.763,8.951-1.186,17.462-4.136,26.787-9.283,8.674-4.788,18.206-11.594,30-21.418l.039.035-.039-.035c8.357-6.964,14.584-15.091,18.008-23.5,3.4-8.358,3.882-16.6,1.382-23.822a30.149,30.149,0,0,0-11.488-14.794c-6.027-4.275-13.905-7.251-23.416-8.846-7.3-1.226-14.115-2.462-20.124-3.552-11.2-2.032-20.866-3.788-29.476-4.729A115.942,115.942,0,0,0-5851.94,3755.662Z" transform="translate(5930.8 -3755.565)" fill="url(#linear-gradient-33)"/>
            </g>
          </g>
        </g>
        <g id="Group_68234" data-name="Group 68234" transform="translate(-5936.768 3722.83)">
          <g id="Group_68229" data-name="Group 68229" transform="translate(0.056)">
            <g id="Group_68228" data-name="Group 68228">
              <path id="Path_41298" data-name="Path 41298" d="M-5842.482,3859.418a85.977,85.977,0,0,1-25.806-4.349c-9.685-3.007-20.553-7.573-35.236-14.8-17.793-8.763-28.2-20.88-29.3-34.118-1.087-13.1,7.08-26.2,23-36.869,10.769-7.22,20-12.375,28.231-15.76a71.778,71.778,0,0,1,23.467-5.643,91.243,91.243,0,0,1,23.648,2.03c8.462,1.682,17.878,4.26,28.781,7.246,5.85,1.6,12.479,3.417,19.6,5.265,9.3,2.413,16.808,6.053,22.3,10.819a28.65,28.65,0,0,1,9.665,15.68c1.605,7.368.121,15.472-4.291,23.436-4.437,8.009-11.63,15.491-20.8,21.639l-.035-.038.035.038c-12.935,8.672-23.255,14.561-32.478,18.532-9.921,4.271-18.767,6.442-27.839,6.832Q-5841,3859.418-5842.482,3859.418Zm-11.4-111.573c-1.437,0-2.843.043-4.23.128a71.641,71.641,0,0,0-23.426,5.633c-8.221,3.382-17.448,8.533-28.211,15.749-15.888,10.652-24.039,23.716-22.954,36.786,1.1,13.205,11.479,25.294,29.239,34.041,14.679,7.229,25.54,11.792,35.219,14.8,10.643,3.3,19.767,4.664,28.714,4.28,9.055-.388,17.887-2.556,27.793-6.821,9.217-3.969,19.53-9.854,32.459-18.522,9.156-6.139,16.337-13.61,20.768-21.6,4.4-7.946,5.883-16.029,4.281-23.377a28.551,28.551,0,0,0-9.635-15.63c-5.483-4.754-12.972-8.385-22.257-10.794-7.122-1.848-13.753-3.664-19.6-5.265-10.9-2.985-20.315-5.562-28.772-7.244A99.091,99.091,0,0,0-5853.887,3747.844Z" transform="translate(5932.917 -3747.748)" fill="url(#linear-gradient-34)"/>
            </g>
          </g>
          <g id="Group_68231" data-name="Group 68231" transform="translate(0 0.231)">
            <g id="Group_68230" data-name="Group 68230">
              <path id="Path_41299" data-name="Path 41299" d="M-5842.724,3861.4a88.291,88.291,0,0,1-23.957-3.644c-9.8-2.737-20.843-7-35.809-13.835-18.138-8.28-29.026-20.141-30.659-33.4-1.616-13.118,6.015-26.495,21.484-37.668,10.467-7.559,19.485-13,27.569-16.639a70.927,70.927,0,0,1,23.22-6.345,91.033,91.033,0,0,1,23.712,1.35c8.523,1.442,18.036,3.757,29.052,6.437,5.91,1.438,12.608,3.067,19.8,4.715,9.389,2.151,17.033,5.584,22.719,10.2a29.226,29.226,0,0,1,10.3,15.448c1.908,7.35.757,15.53-3.329,23.655-4.108,8.171-10.992,15.893-19.908,22.333-12.572,9.08-22.645,15.29-31.7,19.544-9.739,4.576-18.49,7.012-27.538,7.666Q-5840.231,3861.4-5842.724,3861.4Zm-11.78-111.716c-2.188,0-4.3.095-6.36.282a70.789,70.789,0,0,0-23.179,6.335c-8.077,3.633-17.088,9.072-27.549,16.627-15.44,11.151-23.055,24.5-21.444,37.583,1.629,13.225,12.5,25.06,30.6,33.324,14.96,6.829,26,11.094,35.791,13.828,10.768,3.007,19.939,4.107,28.864,3.461,9.033-.653,17.769-3.085,27.494-7.655,9.048-4.251,19.115-10.458,31.681-19.533l.036.037-.036-.037c8.9-6.43,15.777-14.14,19.878-22.3,4.076-8.106,5.225-16.265,3.322-23.6a29.138,29.138,0,0,0-10.265-15.4c-5.672-4.609-13.3-8.035-22.67-10.181-7.192-1.648-13.891-3.278-19.8-4.715-11.013-2.679-20.525-4.993-29.043-6.435A103.643,103.643,0,0,0-5854.5,3749.681Z" transform="translate(5933.361 -3749.584)" fill="url(#linear-gradient-35)"/>
            </g>
          </g>
          <g id="Group_68233" data-name="Group 68233" transform="translate(0.014 0.468)">
            <g id="Group_68232" data-name="Group 68232">
              <path id="Path_41300" data-name="Path 41300" d="M-5842.5,3863.414a90.826,90.826,0,0,1-22.05-2.99c-9.9-2.461-21.109-6.423-36.339-12.845-18.458-7.783-29.817-19.372-31.986-32.631-2.146-13.119,4.934-26.768,19.937-38.432,10.151-7.892,18.94-13.616,26.87-17.5a70.01,70.01,0,0,1,22.942-7.044c6.948-.841,14.494-.629,23.747.666,8.574,1.2,18.172,3.246,29.287,5.615,5.963,1.271,12.722,2.712,19.974,4.157,9.462,1.885,17.235,5.106,23.1,9.574a29.82,29.82,0,0,1,10.919,15.192c2.211,7.323,1.4,15.57-2.354,23.848-3.772,8.324-10.339,16.28-18.991,23.006l-.038-.036.038.036c-12.192,9.479-22,16.005-30.879,20.538-9.545,4.876-18.19,7.575-27.2,8.5A68.567,68.567,0,0,1-5842.5,3863.414Zm-12-111.849a71.4,71.4,0,0,0-8.616.5,69.9,69.9,0,0,0-22.9,7.032c-7.922,3.882-16.7,9.6-26.85,17.489-14.974,11.642-22.042,25.26-19.9,38.346,2.164,13.227,13.5,24.789,31.925,32.558,15.224,6.419,26.426,10.379,36.321,12.839a90.727,90.727,0,0,0,22.019,2.987,68.371,68.371,0,0,0,6.96-.352c9-.918,17.628-3.613,27.159-8.482,8.868-4.529,18.674-11.052,30.861-20.527,8.639-6.716,15.2-14.659,18.961-22.969,3.743-8.26,4.556-16.486,2.35-23.789a29.726,29.726,0,0,0-10.884-15.144c-5.853-4.457-13.609-7.671-23.053-9.552-7.252-1.445-14.012-2.886-19.976-4.157-11.112-2.369-20.708-4.415-29.278-5.614A108.9,108.9,0,0,0-5854.491,3751.565Z" transform="translate(5933.248 -3751.469)" fill="url(#linear-gradient-36)"/>
            </g>
          </g>
        </g>
        <g id="Group_68241" data-name="Group 68241" transform="translate(-5936.989 3722.317)">
          <g id="Group_68236" data-name="Group 68236" transform="translate(0.183)">
            <g id="Group_68235" data-name="Group 68235">
              <path id="Path_41301" data-name="Path 41301" d="M-5843.449,3855.787c-8.687,0-17.51-1.645-27.68-5.154-9.56-3.3-20.236-8.19-34.62-15.865-17.43-9.3-27.337-21.731-27.9-35.006-.554-13.139,8.143-25.992,24.489-36.19,11.058-6.9,20.5-11.779,28.86-14.918a72.224,72.224,0,0,1,23.687-4.941,90.908,90.908,0,0,1,23.557,2.739c8.39,1.936,17.7,4.8,28.474,8.111,5.782,1.778,12.335,3.792,19.379,5.854,9.2,2.693,16.554,6.559,21.855,11.49a28.293,28.293,0,0,1,9.023,15.975c1.3,7.418-.508,15.48-5.243,23.314-4.761,7.878-12.255,15.148-21.671,21.022l-.033-.039.033.039c-13.282,8.287-23.837,13.868-33.218,17.564-10.091,3.976-19.021,5.882-28.1,6C-5842.854,3855.785-5843.152,3855.787-5843.449,3855.787Zm-11.029-112.011q-1.072,0-2.128.033a72.116,72.116,0,0,0-23.646,4.933c-8.354,3.136-17.788,8.013-28.839,14.908-16.315,10.179-25,23-24.442,36.109.559,13.242,10.447,25.646,27.844,34.927,14.377,7.671,25.049,12.561,34.6,15.857,10.5,3.624,19.567,5.257,28.527,5.142,9.068-.117,17.983-2.021,28.059-5.99,9.374-3.693,19.923-9.271,33.2-17.554,9.4-5.866,16.884-13.124,21.638-20.989,4.724-7.816,6.533-15.857,5.231-23.255a28.2,28.2,0,0,0-9-15.924c-5.288-4.919-12.625-8.777-21.808-11.464-7.045-2.062-13.6-4.077-19.381-5.855-10.774-3.312-20.08-6.173-28.465-8.108A94.562,94.562,0,0,0-5854.478,3743.776Z" transform="translate(5933.67 -3743.679)" fill="url(#linear-gradient-37)"/>
            </g>
          </g>
          <g id="Group_68238" data-name="Group 68238" transform="translate(0.056 0.221)">
            <g id="Group_68237" data-name="Group 68237">
              <path id="Path_41302" data-name="Path 41302" d="M-5844.186,3857.7a85.546,85.546,0,0,1-25.869-4.395c-9.685-3.031-20.551-7.631-35.234-14.914-17.8-8.827-28.2-21.019-29.291-34.33-1.082-13.171,7.089-26.323,23.008-37.036,10.771-7.248,20.007-12.422,28.236-15.817a71.437,71.437,0,0,1,23.47-5.651,90.808,90.808,0,0,1,23.649,2.062c8.462,1.7,17.877,4.3,28.78,7.31,5.85,1.615,12.479,3.446,19.6,5.31,9.3,2.434,16.8,6.1,22.3,10.89a28.848,28.848,0,0,1,9.666,15.762c1.608,7.409.125,15.557-4.289,23.563-4.439,8.05-11.635,15.568-20.811,21.743l-.035-.038.035.038c-12.937,8.706-23.259,14.616-32.484,18.6-9.922,4.285-18.769,6.459-27.84,6.843Q-5842.737,3857.7-5844.186,3857.7Zm-11.506-112.171c-1.414,0-2.8.042-4.165.125a71.318,71.318,0,0,0-23.429,5.642c-8.222,3.392-17.451,8.563-28.215,15.806-15.889,10.692-24.044,23.816-22.965,36.953,1.09,13.279,11.473,25.443,29.234,34.253,14.678,7.28,25.539,11.877,35.217,14.907a85.435,85.435,0,0,0,25.83,4.389q1.447,0,2.884-.061c9.055-.382,17.888-2.553,27.8-6.832,9.217-3.981,19.533-9.888,32.464-18.59,9.162-6.165,16.346-13.672,20.778-21.708,4.4-7.987,5.884-16.114,4.28-23.5a28.759,28.759,0,0,0-9.635-15.712c-5.482-4.781-12.968-8.436-22.248-10.865-7.123-1.864-13.754-3.7-19.6-5.311-10.9-3.01-20.314-5.61-28.771-7.308A98.494,98.494,0,0,0-5855.692,3745.533Z" transform="translate(5934.675 -3745.436)" fill="url(#linear-gradient-38)"/>
            </g>
          </g>
          <g id="Group_68240" data-name="Group 68240" transform="translate(0 0.453)">
            <g id="Group_68239" data-name="Group 68239">
              <path id="Path_41303" data-name="Path 41303" d="M-5844.431,3859.69a87.824,87.824,0,0,1-24.019-3.685c-9.8-2.76-20.843-7.059-35.808-13.94-18.137-8.34-29.023-20.273-30.653-33.6-1.612-13.188,6.021-26.629,21.494-37.846,10.469-7.59,19.489-13.053,27.574-16.7a70.608,70.608,0,0,1,23.222-6.358,90.6,90.6,0,0,1,23.713,1.378c8.523,1.458,18.036,3.793,29.052,6.5,5.91,1.45,12.608,3.095,19.8,4.758,9.383,2.169,17.023,5.625,22.707,10.271a29.424,29.424,0,0,1,10.3,15.525c1.914,7.392.764,15.617-3.323,23.786-4.109,8.214-11,15.975-19.92,22.444l-.037-.037.037.037c-12.575,9.116-22.65,15.351-31.706,19.619-9.741,4.591-18.493,7.032-27.542,7.681Q-5841.97,3859.689-5844.431,3859.69Zm-11.885-112.315c-2.164,0-4.251.094-6.292.278a70.474,70.474,0,0,0-23.182,6.347c-8.078,3.645-17.091,9.1-27.553,16.69-15.444,11.2-23.063,24.607-21.455,37.762,1.626,13.3,12.491,25.2,30.594,33.527,14.959,6.878,26,11.176,35.79,13.934,10.768,3.032,19.939,4.146,28.865,3.505,9.033-.648,17.77-3.086,27.5-7.67,9.049-4.265,19.118-10.5,31.688-19.608,8.91-6.459,15.787-14.208,19.89-22.408,4.078-8.15,5.225-16.355,3.316-23.727a29.332,29.332,0,0,0-10.267-15.476c-5.67-4.634-13.293-8.082-22.659-10.247-7.192-1.663-13.891-3.307-19.8-4.758-11.013-2.7-20.524-5.038-29.042-6.494A103,103,0,0,0-5856.316,3747.375Z" transform="translate(5935.123 -3747.278)" fill="url(#linear-gradient-39)"/>
            </g>
          </g>
        </g>
        <g id="Group_68248" data-name="Group 68248" transform="translate(-5937.152 3721.81)">
          <g id="Group_68243" data-name="Group 68243" transform="translate(0.325)">
            <g id="Group_68242" data-name="Group 68242">
              <path id="Path_41304" data-name="Path 41304" d="M-5843.9,3852.177q-.587,0-1.172-.01c-8.975-.153-17.983-2.062-28.348-6.007-9.42-3.585-19.893-8.8-33.958-16.907-17.042-9.824-26.44-22.556-26.459-35.852-.02-13.159,9.195-25.754,25.947-35.465,11.333-6.569,20.967-11.167,29.453-14.056a72.611,72.611,0,0,1,23.876-4.231h.1a90.669,90.669,0,0,1,23.335,3.446c8.307,2.188,17.493,5.329,28.13,8.967,5.708,1.951,12.176,4.163,19.132,6.437,9.086,2.969,16.279,7.057,21.376,12.149a27.96,27.96,0,0,1,8.37,16.249c1,7.459-1.137,15.469-6.188,23.163-5.079,7.738-12.864,14.784-22.515,20.378-13.612,7.891-24.389,13.156-33.916,16.572C-5826.543,3850.524-5835.211,3852.177-5843.9,3852.177Zm-10.564-112.432h-.1a72.493,72.493,0,0,0-23.835,4.225c-8.478,2.887-18.1,7.481-29.431,14.047-16.72,9.692-25.917,22.259-25.9,35.385.019,13.262,9.4,25.966,26.41,35.772,14.059,8.1,24.527,13.316,33.94,16.9,10.351,3.939,19.345,5.845,28.3,6,9.067.152,18.056-1.482,28.289-5.151,9.52-3.413,20.291-8.676,33.9-16.563l.031.04-.031-.04c9.636-5.586,17.409-12.621,22.48-20.345,5.039-7.676,7.174-15.666,6.174-23.1a27.873,27.873,0,0,0-8.344-16.2c-5.085-5.079-12.263-9.158-21.332-12.121-6.957-2.274-13.426-4.486-19.134-6.437-10.635-3.636-19.819-6.777-28.122-8.964A90.543,90.543,0,0,0-5854.463,3739.745Z" transform="translate(5933.837 -3739.648)" fill="url(#linear-gradient-40)"/>
            </g>
          </g>
          <g id="Group_68245" data-name="Group 68245" transform="translate(0.127 0.207)">
            <g id="Group_68244" data-name="Group 68244">
              <path id="Path_41305" data-name="Path 41305" d="M-5845.152,3854c-8.7,0-17.542-1.661-27.732-5.2-9.558-3.323-20.233-8.25-34.614-15.976-17.429-9.363-27.332-21.871-27.883-35.219-.546-13.207,8.156-26.119,24.5-36.356,11.061-6.927,20.5-11.825,28.867-14.974a71.89,71.89,0,0,1,23.689-4.948,90.48,90.48,0,0,1,23.556,2.772c8.389,1.953,17.7,4.837,28.471,8.176,5.781,1.792,12.334,3.822,19.378,5.9,9.2,2.713,16.545,6.6,21.844,11.562a28.494,28.494,0,0,1,9.021,16.057c1.307,7.46-.507,15.565-5.244,23.441-4.764,7.919-12.263,15.224-21.685,21.125-13.286,8.32-23.843,13.922-33.226,17.63-10.093,3.989-19.024,5.9-28.108,6.009C-5844.593,3854-5844.873,3854-5845.152,3854Zm-11.091-112.612c-.7,0-1.387.01-2.075.032a71.761,71.761,0,0,0-23.648,4.94c-8.356,3.146-17.792,8.041-28.846,14.964-16.316,10.218-25,23.1-24.458,36.274.551,13.315,10.434,25.795,27.831,35.141,14.375,7.722,25.045,12.647,34.6,15.968,10.5,3.651,19.566,5.3,28.526,5.191,9.067-.111,17.984-2.018,28.062-6,9.376-3.705,19.928-9.3,33.207-17.621l.033.039-.033-.039c9.408-5.892,16.9-13.185,21.651-21.091,4.727-7.857,6.537-15.942,5.233-23.382a28.406,28.406,0,0,0-8.993-16.006c-5.286-4.947-12.62-8.828-21.8-11.536-7.044-2.078-13.6-4.109-19.379-5.9-10.774-3.339-20.078-6.222-28.463-8.174A94,94,0,0,0-5856.243,3741.393Z" transform="translate(5935.406 -3741.296)" fill="url(#linear-gradient-41)"/>
            </g>
          </g>
          <g id="Group_68247" data-name="Group 68247" transform="translate(0 0.429)">
            <g id="Group_68246" data-name="Group 68246">
              <path id="Path_41306" data-name="Path 41306" d="M-5845.895,3855.927c-8.066,0-16.385-1.43-25.921-4.438-9.684-3.055-20.548-7.687-35.229-15.02-17.792-8.887-28.189-21.152-29.278-34.534-1.076-13.241,7.1-26.457,23.024-37.214,10.774-7.278,20.012-12.472,28.243-15.878a71.115,71.115,0,0,1,23.472-5.663,90.424,90.424,0,0,1,23.65,2.091c8.461,1.714,17.876,4.335,28.778,7.371,5.849,1.628,12.478,3.474,19.6,5.354,9.292,2.452,16.789,6.138,22.281,10.956a29.046,29.046,0,0,1,9.665,15.84c1.613,7.452.13,15.645-4.287,23.694-4.441,8.093-11.643,15.65-20.826,21.853-12.941,8.742-23.265,14.675-32.492,18.673-9.924,4.3-18.771,6.479-27.845,6.856Q-5844.471,3855.927-5845.895,3855.927Zm-11.57-112.772c-1.4,0-2.762.041-4.11.123a70.981,70.981,0,0,0-23.432,5.653c-8.224,3.4-17.455,8.594-28.223,15.868-15.893,10.736-24.054,23.922-22.98,37.13,1.085,13.349,11.463,25.586,29.222,34.457,14.674,7.33,25.535,11.96,35.212,15.013,10.641,3.356,19.764,4.747,28.712,4.373,9.057-.377,17.89-2.553,27.8-6.847,9.219-3.995,19.538-9.925,32.473-18.663l.034.038-.034-.038c9.168-6.194,16.359-13.738,20.793-21.818,4.407-8.031,5.886-16.2,4.278-23.635a28.957,28.957,0,0,0-9.634-15.79c-5.48-4.806-12.96-8.483-22.234-10.931-7.123-1.879-13.752-3.726-19.6-5.354-10.9-3.035-20.312-5.656-28.769-7.369A97.885,97.885,0,0,0-5857.465,3743.155Z" transform="translate(5936.417 -3743.058)" fill="url(#linear-gradient-42)"/>
            </g>
          </g>
        </g>
        <g id="Group_68255" data-name="Group 68255" transform="translate(-5937.242 3721.309)">
          <g id="Group_68250" data-name="Group 68250" transform="translate(0.467)">
            <g id="Group_68249" data-name="Group 68249">
              <path id="Path_41307" data-name="Path 41307" d="M-5843.852,3848.6q-1.611,0-3.219-.076c-8.963-.423-17.888-2.6-28.087-6.859-9.269-3.869-19.524-9.4-33.251-17.93-16.634-10.337-25.508-23.355-24.989-36.654.515-13.163,10.236-25.484,27.373-34.694,11.593-6.23,21.408-10.54,30.006-13.175a72.931,72.931,0,0,1,24.034-3.516,90.01,90.01,0,0,1,23.28,4.15c8.213,2.438,17.267,5.856,27.75,9.813,5.625,2.123,12,4.53,18.86,7.012,8.961,3.243,15.983,7.547,20.871,12.793a27.655,27.655,0,0,1,7.705,16.5c.7,7.491-1.765,15.438-7.125,22.982-5.39,7.586-13.458,14.4-23.33,19.706-13.925,7.484-24.909,12.427-34.569,15.557A80.9,80.9,0,0,1-5843.852,3848.6Zm-10.083-112.834a73.79,73.79,0,0,0-22.047,3.538c-8.59,2.633-18.4,6.939-29.984,13.166-17.1,9.192-26.806,21.485-27.32,34.615-.518,13.266,8.339,26.254,24.942,36.572,13.722,8.528,23.972,14.055,33.235,17.921,10.185,4.251,19.1,6.427,28.044,6.849,9.056.427,18.106-.94,28.482-4.3,9.653-3.128,20.631-8.069,34.549-15.549l.03.041-.03-.041c9.857-5.3,17.912-12.1,23.293-19.675,5.348-7.527,7.806-15.454,7.108-22.924a27.567,27.567,0,0,0-7.68-16.451c-4.876-5.233-11.883-9.528-20.827-12.764-6.861-2.483-13.236-4.89-18.861-7.013-10.481-3.957-19.533-7.374-27.741-9.81a89.882,89.882,0,0,0-23.247-4.145Q-5852.962,3735.762-5853.934,3735.762Z" transform="translate(5933.419 -3735.665)" fill="url(#linear-gradient-43)"/>
            </g>
          </g>
          <g id="Group_68252" data-name="Group 68252" transform="translate(0.199 0.193)">
            <g id="Group_68251" data-name="Group 68251">
              <path id="Path_41308" data-name="Path 41308" d="M-5845.6,3850.328c-.407,0-.812,0-1.218-.011-8.975-.16-17.982-2.084-28.345-6.057-9.418-3.611-19.889-8.859-33.948-17.019-17.041-9.889-26.43-22.7-26.44-36.065-.009-13.227,9.213-25.88,25.968-35.629,11.336-6.6,20.973-11.212,29.46-14.111a72.255,72.255,0,0,1,23.878-4.238h.055a90.169,90.169,0,0,1,23.377,3.48c8.305,2.205,17.49,5.369,28.125,9.033,5.706,1.965,12.173,4.193,19.128,6.483,9.081,2.99,16.269,7.1,21.364,12.221a28.166,28.166,0,0,1,8.365,16.332c1,7.5-1.139,15.554-6.194,23.29-5.083,7.778-12.875,14.859-22.532,20.479l-.032-.04.032.04c-13.617,7.923-24.4,13.21-33.925,16.637C-5828.272,3848.673-5836.928,3850.328-5845.6,3850.328Zm-10.589-113.034h-.055a72.146,72.146,0,0,0-23.837,4.232c-8.479,2.9-18.109,7.509-29.439,14.1-16.723,9.731-25.927,22.356-25.917,35.549.01,13.335,9.382,26.115,26.39,35.985,14.055,8.156,24.52,13.4,33.931,17.01,10.349,3.968,19.342,5.89,28.3,6.049,9.068.165,18.058-1.478,28.292-5.159,9.521-3.425,20.3-8.708,33.906-16.628,9.643-5.611,17.422-12.681,22.5-20.446,5.043-7.717,7.18-15.75,6.18-23.23a28.076,28.076,0,0,0-8.339-16.28c-5.083-5.107-12.255-9.209-21.318-12.193-6.956-2.291-13.424-4.518-19.13-6.484-10.633-3.663-19.815-6.826-28.117-9.03A90.05,90.05,0,0,0-5856.191,3737.294Z" transform="translate(5935.553 -3737.198)" fill="url(#linear-gradient-44)"/>
            </g>
          </g>
          <g id="Group_68254" data-name="Group 68254" transform="translate(0 0.401)">
            <g id="Group_68253" data-name="Group 68253">
              <path id="Path_41309" data-name="Path 41309" d="M-5846.861,3852.161c-8.719,0-17.569-1.675-27.775-5.249-9.556-3.347-20.229-8.307-34.6-16.083-17.424-9.424-27.32-22-27.864-35.424-.539-13.277,8.17-26.251,24.524-36.532,11.065-6.956,20.51-11.874,28.875-15.035a71.563,71.563,0,0,1,23.693-4.959,90.038,90.038,0,0,1,23.554,2.8c8.388,1.969,17.693,4.874,28.467,8.238,5.78,1.8,12.332,3.85,19.375,5.944,9.189,2.732,16.533,6.644,21.828,11.628a28.7,28.7,0,0,1,9.018,16.134c1.31,7.5-.5,15.654-5.247,23.572-4.768,7.962-12.273,15.3-21.7,21.233l-.033-.039.033.039c-13.29,8.356-23.852,13.98-33.236,17.7-10.095,4-19.027,5.917-28.111,6.022C-5846.333,3852.16-5846.6,3852.161-5846.861,3852.161Zm-11.118-113.215q-1.023,0-2.03.031a71.441,71.441,0,0,0-23.652,4.951c-8.357,3.158-17.8,8.072-28.854,15.024-16.322,10.262-25.015,23.207-24.478,36.451.543,13.386,10.42,25.938,27.812,35.345,14.371,7.773,25.039,12.731,34.588,16.075,10.5,3.677,19.564,5.343,28.523,5.237,9.067-.105,17.985-2.016,28.065-6.013,9.378-3.719,19.933-9.341,33.217-17.692,9.417-5.92,16.91-13.251,21.67-21.2,4.731-7.9,6.542-16.031,5.236-23.513a28.612,28.612,0,0,0-8.99-16.083c-5.283-4.972-12.611-8.876-21.782-11.6-7.043-2.094-13.6-4.14-19.376-5.945-10.772-3.363-20.075-6.268-28.458-8.236A93.441,93.441,0,0,0-5857.979,3738.946Z" transform="translate(5937.129 -3738.849)" fill="url(#linear-gradient-45)"/>
            </g>
          </g>
        </g>
        <g id="Group_68262" data-name="Group 68262" transform="translate(-5937.258 3720.814)">
          <g id="Group_68257" data-name="Group 68257" transform="translate(0.609)">
            <g id="Group_68256" data-name="Group 68256">
              <path id="Path_41310" data-name="Path 41310" d="M-5843.291,3845.048c-1.762,0-3.512-.068-5.259-.2-8.94-.692-17.771-3.14-27.79-7.7-9.106-4.148-19.13-9.987-32.5-18.932-16.2-10.839-24.544-24.125-23.485-37.41,1.048-13.149,11.263-25.181,28.763-33.877,11.838-5.883,21.822-9.9,30.521-12.276a73.145,73.145,0,0,1,24.161-2.794,89.435,89.435,0,0,1,23.1,4.85c8.108,2.685,17.017,6.375,27.333,10.648,5.534,2.292,11.807,4.891,18.563,7.58,8.823,3.513,15.666,8.028,20.338,13.422a27.382,27.382,0,0,1,7.03,16.738c.395,7.513-2.39,15.387-8.053,22.772-5.695,7.426-14.034,14-24.115,19.009-14.219,7.067-25.4,11.681-35.177,14.522A83.06,83.06,0,0,1-5843.291,3845.048Zm-9.554-113.217a75.365,75.365,0,0,0-20.165,2.907c-8.691,2.375-18.667,6.388-30.5,12.268-17.466,8.68-27.661,20.684-28.707,33.8-1.057,13.252,7.269,26.509,23.441,37.327,13.367,8.941,23.386,14.777,32.485,18.922,10.005,4.558,18.823,7,27.748,7.693,9.033.7,18.132-.4,28.637-3.448,9.773-2.839,20.945-7.45,35.158-14.514l.028.042-.028-.042c10.065-5,18.391-11.565,24.076-18.979,5.649-7.367,8.428-15.221,8.034-22.714a27.293,27.293,0,0,0-7.008-16.684c-4.661-5.381-11.489-9.886-20.3-13.392-6.756-2.689-13.029-5.288-18.564-7.581-10.313-4.272-19.221-7.961-27.325-10.645a89.288,89.288,0,0,0-23.063-4.844Q-5850.871,3731.832-5852.845,3731.831Z" transform="translate(5932.417 -3731.734)" fill="url(#linear-gradient-46)"/>
            </g>
          </g>
          <g id="Group_68259" data-name="Group 68259" transform="translate(0.27 0.178)">
            <g id="Group_68258" data-name="Group 68258">
              <path id="Path_41311" data-name="Path 41311" d="M-5845.554,3846.684q-1.63,0-3.256-.078c-8.963-.429-17.887-2.625-28.083-6.91-9.266-3.895-19.518-9.459-33.239-18.043-16.629-10.4-25.494-23.5-24.961-36.867.527-13.229,10.257-25.608,27.4-34.856,11.6-6.257,21.416-10.584,30.016-13.229a72.556,72.556,0,0,1,24.037-3.521,89.553,89.553,0,0,1,23.276,4.185c8.212,2.455,17.263,5.9,27.743,9.88,5.623,2.137,12,4.56,18.855,7.06,8.955,3.263,15.972,7.592,20.855,12.865a27.867,27.867,0,0,1,7.7,16.587c.7,7.532-1.769,15.523-7.135,23.108-5.4,7.627-13.47,14.475-23.35,19.806l-.03-.041.03.041c-13.93,7.516-24.918,12.479-34.58,15.621A80.554,80.554,0,0,1-5845.554,3846.684Zm-10.074-113.437a73.458,73.458,0,0,0-22.013,3.545c-8.592,2.642-18.4,6.966-29.994,13.22-17.108,9.23-26.819,21.581-27.345,34.777-.531,13.338,8.317,26.4,24.916,36.785,13.715,8.58,23.961,14.142,33.221,18.034,10.182,4.279,19.092,6.472,28.04,6.9,9.056.434,18.107-.936,28.485-4.31,9.655-3.139,20.637-8.1,34.56-15.613,9.865-5.322,17.927-12.16,23.313-19.774,5.354-7.567,7.815-15.538,7.119-23.05a27.78,27.78,0,0,0-7.673-16.534c-4.873-5.26-11.875-9.579-20.812-12.836-6.859-2.5-13.233-4.923-18.856-7.06-10.478-3.983-19.527-7.423-27.734-9.877a89.47,89.47,0,0,0-23.244-4.18Q-5854.638,3733.247-5855.628,3733.247Z" transform="translate(5935.115 -3733.15)" fill="url(#linear-gradient-47)"/>
            </g>
          </g>
          <g id="Group_68261" data-name="Group 68261" transform="translate(0 0.372)">
            <g id="Group_68260" data-name="Group 68260">
              <path id="Path_41312" data-name="Path 41312" d="M-5847.313,3848.424c-.419,0-.835,0-1.254-.011-8.976-.166-17.98-2.105-28.341-6.1-9.415-3.635-19.882-8.917-33.936-17.127-17.033-9.951-26.414-22.832-26.414-36.27,0-13.3,9.231-26.012,25.993-35.8,11.342-6.625,20.981-11.26,29.471-14.17a71.928,71.928,0,0,1,23.882-4.248h.02a89.665,89.665,0,0,1,23.41,3.511c8.3,2.221,17.486,5.407,28.118,9.1,5.705,1.979,12.171,4.222,19.124,6.528,9.074,3.009,16.256,7.143,21.347,12.288a28.378,28.378,0,0,1,8.359,16.409c1,7.544-1.14,15.643-6.2,23.42-5.09,7.821-12.889,14.94-22.554,20.586l-.032-.04.032.04c-13.623,7.958-24.407,13.267-33.938,16.707C-5830.006,3846.763-5838.652,3848.424-5847.313,3848.424Zm-10.579-113.638h-.02a71.817,71.817,0,0,0-23.84,4.241c-8.481,2.907-18.115,7.539-29.449,14.161-16.73,9.773-25.943,22.46-25.943,35.723,0,13.406,9.362,26.258,26.363,36.19,14.049,8.207,24.511,13.487,33.92,17.119,10.345,3.994,19.337,5.931,28.3,6.1,9.067.166,18.059-1.476,28.3-5.171,9.523-3.438,20.3-8.744,33.918-16.7,9.651-5.638,17.438-12.745,22.519-20.553,5.049-7.76,7.188-15.838,6.187-23.362a28.281,28.281,0,0,0-8.334-16.358c-5.078-5.132-12.244-9.257-21.3-12.26-6.954-2.306-13.421-4.55-19.126-6.529-10.63-3.688-19.811-6.873-28.11-9.093A89.526,89.526,0,0,0-5857.893,3734.785Z" transform="translate(5937.258 -3734.688)" fill="url(#linear-gradient-48)"/>
            </g>
          </g>
        </g>
      </g>
    </g>
    <g id="Transition_to_a_DAO" data-name="Transition to a DAO" transform="translate(663.699 3928.259)">
      <text id="Transition_to_a_DAO-2" data-name="Transition to a DAO" transform="translate(0.301 24.742)" fill="#fff" font-size="16" font-family="Montserrat-Medium, Montserrat" font-weight="500"><tspan x="0" y="15">Single Sided </tspan><tspan x="0" y="41">Liquidity</tspan></text>
      <circle id="Circle" cx="8" cy="8" r="8" transform="translate(0.301 0.742)" fill="#fff"/>
    </g>
    <g id="Transition_to_a_DAO-3" data-name="Transition to a DAO" transform="translate(830.699 3928.259)">
      <text id="Transition_to_a_DAO-4" data-name="Transition to a DAO" transform="translate(0.301 24.742)" fill="#fff" font-size="16" font-family="Montserrat-Medium, Montserrat" font-weight="500"><tspan x="0" y="15">Lending &amp; borrowing </tspan><tspan x="0" y="41">functionalities</tspan></text>
      <circle id="Circle-2" data-name="Circle" cx="8" cy="8" r="8" transform="translate(0.301 0.742)" fill="#fff"/>
    </g>
    <g id="DEX_Whitepaper" data-name="DEX Whitepaper" transform="translate(274.317 3928.083)">
      <text id="DEX_Whitepaper-2" data-name="DEX Whitepaper" transform="translate(-4.317 28.918)" fill="#fff" font-size="16" font-family="Montserrat-Bold, Montserrat" font-weight="700"><tspan x="0" y="15" xml:space="preserve">Kaddex v1  </tspan><tspan x="0" y="41">full launch</tspan></text>
      <circle id="Circle-3" data-name="Circle" cx="8" cy="8" r="8" transform="translate(-4.316 0.918)" fill="#fff"/>
    </g>
    <g id="Institutional_Collaboration" data-name="Institutional  Collaboration" transform="translate(274 3791.001)">
      <text id="Institutional_Collaboration-2" data-name="Institutional  Collaboration" transform="translate(0 39)" fill="#fff" font-size="16" font-family="Montserrat-Medium, Montserrat" font-weight="500"><tspan x="0" y="0">X-Wallet v1</tspan></text>
      <circle id="Circle-4" data-name="Circle" cx="8" cy="8" r="8" fill="#fff"/>
    </g>
    <g id="Code_Auditing" data-name="Code Auditing" transform="translate(657 3791.001)">
      <text id="Code_Auditing-2" data-name="Code Auditing" transform="translate(0 39)" fill="#fff" font-size="16" font-family="Montserrat-Medium, Montserrat" font-weight="500"><tspan x="0" y="0">3d Swapping </tspan><tspan x="0" y="26">Interface</tspan></text>
      <circle id="Circle-5" data-name="Circle" cx="8" cy="8" r="8" fill="#fff"/>
    </g>
    <g id="Native_and_Bridged_ERC-20_Token_Pairs" data-name="Native and Bridged  ERC-20 Token Pairs" transform="translate(465.43 3790.591)">
      <text id="Native_and_Bridged_ERC-20_Token_Pairs-2" data-name="Native and Bridged  ERC-20 Token Pairs" transform="translate(-0.43 39.41)" fill="#fff" font-size="16" font-family="Montserrat-Medium, Montserrat" font-weight="500"><tspan x="0" y="0">Website v2</tspan></text>
      <circle id="Circle-6" data-name="Circle" cx="8" cy="8" r="8" transform="translate(-0.43 0.41)" fill="#fff"/>
    </g>
    <g id="DEX_Lite_Paper" data-name="DEX Lite Paper" transform="translate(908.525 3790.591)">
      <text id="DEX_Lite_Paper-2" data-name="DEX Lite Paper" transform="translate(-38.525 24.408)" fill="#fff" font-size="16" font-family="Montserrat-Medium, Montserrat" font-weight="500"><tspan x="0" y="15">Bridged ERC-20 </tspan><tspan x="0" y="41">Token Pairs</tspan></text>
      <circle id="Circle-7" data-name="Circle" cx="8" cy="8" r="8" transform="translate(-38.525 0.41)" fill="#fff"/>
    </g>
    <line id="Active" x2="295" transform="translate(-12 3665.001)" fill="none" stroke="#ec1bb4" stroke-width="5"/>
    <g id="Kaddex_Website_Refresh" data-name="Kaddex Website Refresh" transform="translate(898.699 3655.569)">
      <text id="Kaddex_Website_Refresh-2" data-name="Kaddex Website Refresh" transform="translate(0.301 24.432)" fill="#fff" font-size="16" font-family="Montserrat-Medium, Montserrat" font-weight="500"><tspan x="0" y="15">Litepaper &amp; </tspan><tspan x="0" y="41">Whitepaper</tspan></text>
      <circle id="Circle-8" data-name="Circle" cx="8" cy="8" r="8" transform="translate(0.301 0.432)" fill="#fff"/>
    </g>
    <g id="Tokenomics_Deep_Drive" data-name="Tokenomics Deep Drive" transform="translate(609.422 3655.569)">
      <text id="Tokenomics_Deep_Drive-2" data-name="Tokenomics Deep Drive" transform="translate(-0.421 24.432)" fill="#fff" font-size="16" font-family="Montserrat-Medium, Montserrat" font-weight="500"><tspan x="0" y="15">KDX Vaulting Programme </tspan><tspan x="0" y="41" font-family="Montserrat-Regular, Montserrat" font-weight="400">available for early investors</tspan></text>
      <g id="Circle-9" data-name="Circle" transform="translate(-0.422 0.432)" fill="#fff" stroke="#fff" stroke-width="8">
        <circle cx="8" cy="8" r="8" stroke="none"/>
        <circle cx="8" cy="8" r="4" fill="none"/>
      </g>
    </g>
    <g id="_1_5m_TVL" data-name="1,5m TVL" transform="translate(454.596 3655.569)">
      <text id="_1_5m_TVL-2" data-name="1,5m TVL" transform="translate(0.406 39.432)" fill="#fff" font-size="16" font-family="Montserrat-Medium, Montserrat" font-weight="500"><tspan x="0" y="0">Public Sale</tspan></text>
      <g id="Circle-10" data-name="Circle" transform="translate(0.405 0.432)" fill="#fff" stroke="#fff" stroke-width="8">
        <circle cx="8" cy="8" r="8" stroke="none"/>
        <circle cx="8" cy="8" r="4" fill="none"/>
      </g>
    </g>
    <g id="Kaddex_Beta_on_MainNet" data-name="Kaddex Beta on MainNet" transform="translate(274.317 3655.569)">
      <text id="Kaddex_Beta_on_MainNet-2" data-name="Kaddex Beta on MainNet" transform="translate(-0.317 39.432)" fill="#ec1bb4" font-size="16" font-family="Montserrat-Bold, Montserrat" font-weight="700"><tspan x="0" y="0">X-Wallet Beta</tspan></text>
      <g id="Circle-11" data-name="Circle" transform="translate(-0.317 0.432)" fill="#ec1bb4" stroke="#ec1bb4" stroke-width="8">
        <circle cx="8" cy="8" r="8" stroke="none"/>
        <circle cx="8" cy="8" r="4" fill="none"/>
      </g>
    </g>
    <g id="Pre_Launch_Public_Sale" data-name="Pre Launch  Public Sale" transform="translate(432.316 3929.259)">
      <text id="Pre_Launch_Public_Sale-2" data-name="Pre Launch  Public Sale" transform="translate(-0.317 23.742)" fill="#fff" font-size="16" font-family="Montserrat-Medium, Montserrat" font-weight="500"><tspan x="0" y="15">KDX Liquidity </tspan><tspan x="0" y="41">Mining Programme </tspan></text>
      <circle id="Circle-12" data-name="Circle" cx="8" cy="8" r="8" transform="translate(-0.317 -0.258)" fill="#fff"/>
    </g>
  </g>
</svg>
