<svg width="1728" height="72" viewBox="0 0 1728 72" fill="none" xmlns="http://www.w3.org/2000/svg">
<g opacity="0.1">
<path d="M28 36L-44 0V72L28 36Z" fill="#7EFBFA"/>
<path d="M136 36L64 0V72L136 36Z" fill="#7EFBFA"/>
<path d="M244 36L172 0V72L244 36Z" fill="#7EFBFA"/>
<path d="M352 36L280 0V72L352 36Z" fill="#7EFBFA"/>
<path d="M460 36L388 0V72L460 36Z" fill="#7EFBFA"/>
<path d="M568 36L496 0V72L568 36Z" fill="#7EFBFA"/>
<path d="M676 36L604 0V72L676 36Z" fill="#7EFBFA"/>
<path d="M784 36L712 0V72L784 36Z" fill="#7EFBFA"/>
<path d="M892 36L820 0V72L892 36Z" fill="#7EFBFA"/>
<path d="M1000 36L928 0V72L1000 36Z" fill="#7EFBFA"/>
<path d="M1108 36L1036 0V72L1108 36Z" fill="#7EFBFA"/>
<path d="M1216 36L1144 0V72L1216 36Z" fill="#7EFBFA"/>
<path d="M1324 36L1252 0V72L1324 36Z" fill="#7EFBFA"/>
<path d="M1432 36L1360 0V72L1432 36Z" fill="#7EFBFA"/>
<path d="M1540 36L1468 0V72L1540 36Z" fill="#7EFBFA"/>
<path d="M1648 36L1576 0V72L1648 36Z" fill="#7EFBFA"/>
<path d="M1756 36L1684 0V72L1756 36Z" fill="#7EFBFA"/>
</g>
</svg>
