<svg xmlns="http://www.w3.org/2000/svg" width="1743.17" height="501" viewBox="0 0 1743.17 501">
  <g id="Roadmap" transform="translate(5 -190)">
    <g id="Group_68777" data-name="Group 68777">
      <path id="Path_43816" data-name="Path 43816" d="M753.5,613.005H369a82.6,82.6,0,0,1-16.524-1.666A81.569,81.569,0,0,1,323.151,599a82.231,82.231,0,0,1-29.707-36.076,81.611,81.611,0,0,1-4.779-15.4A82.6,82.6,0,0,1,287,531.005v-54a82.6,82.6,0,0,1,1.666-16.524,81.568,81.568,0,0,1,12.34-29.325,82.231,82.231,0,0,1,36.076-29.707,81.61,81.61,0,0,1,15.4-4.779A82.6,82.6,0,0,1,369,395.005H1588a77.624,77.624,0,0,0,43.608-13.32,78.237,78.237,0,0,0,28.263-34.319A77.507,77.507,0,0,0,1666,317.005v-31a77.693,77.693,0,0,0-77.77-78H289L-5,208v-4l294,.005H1588.23a82.45,82.45,0,0,1,16.514,1.666,81.161,81.161,0,0,1,29.263,12.341,81.886,81.886,0,0,1,34.338,51.471A83.059,83.059,0,0,1,1670,286.005v31a82.6,82.6,0,0,1-1.666,16.524,81.564,81.564,0,0,1-12.34,29.325,82.238,82.238,0,0,1-36.076,29.707,81.6,81.6,0,0,1-15.395,4.779A82.59,82.59,0,0,1,1588,399.005H369a77.624,77.624,0,0,0-43.609,13.32,78.235,78.235,0,0,0-28.262,34.319A77.512,77.512,0,0,0,291,477.005v54a77.624,77.624,0,0,0,13.32,43.609,78.236,78.236,0,0,0,34.319,28.262A77.513,77.513,0,0,0,369,609.005H753.5Z" fill="#fff"/>
      <circle id="Ellipse_1058" data-name="Ellipse 1058" cx="15" cy="15" r="15" transform="translate(490 381)" fill="#fff"/>
      <circle id="Ellipse_1059" data-name="Ellipse 1059" cx="15" cy="15" r="15" transform="translate(490 596)" fill="#fff"/>
      <circle id="Ellipse_1060" data-name="Ellipse 1060" cx="15" cy="15" r="15" transform="translate(740 190)" fill="#fff"/>
      <circle id="Ellipse_1061" data-name="Ellipse 1061" cx="15" cy="15" r="15" transform="translate(740 381)" fill="#fff"/>
      <circle id="Ellipse_1062" data-name="Ellipse 1062" cx="15" cy="15" r="15" transform="translate(740 596)" fill="#fff"/>
      <circle id="Ellipse_1063" data-name="Ellipse 1063" cx="15" cy="15" r="15" transform="translate(990 190)" fill="#fff"/>
      <circle id="Ellipse_1064" data-name="Ellipse 1064" cx="15" cy="15" r="15" transform="translate(990 381)" fill="#fff"/>
      <circle id="Ellipse_1065" data-name="Ellipse 1065" cx="15" cy="15" r="15" transform="translate(1240 190)" fill="#fff"/>
      <circle id="Ellipse_1066" data-name="Ellipse 1066" cx="15" cy="15" r="15" transform="translate(1240 381)" fill="#fff"/>
      <circle id="Ellipse_1067" data-name="Ellipse 1067" cx="15" cy="15" r="15" transform="translate(1490 190)" fill="#fff"/>
      <circle id="Ellipse_1068" data-name="Ellipse 1068" cx="15" cy="15" r="15" transform="translate(1490 381)" fill="#fff"/>
    </g>
    <g id="Group_68779" data-name="Group 68779">
      <g id="Group_68778" data-name="Group 68778">
        <path id="Path_43817" data-name="Path 43817" d="M1738.17,612h-6.049v-2h6.049Zm-14.049,0h-8v-2h8Zm-16,0h-8v-2h8Zm-16,0h-8v-2h8Zm-16,0h-8v-2h8Zm-16,0h-8v-2h8Zm-16,0h-8v-2h8Zm-16,0h-8v-2h8Zm-16,0h-8v-2h8Zm-16,0h-8v-2h8Zm-16,0h-8v-2h8Zm-16,0h-8v-2h8Zm-16,0h-8v-2h8Zm-16,0h-8v-2h8Zm-16,0h-8v-2h8Zm-16,0h-8v-2h8Zm-16,0h-8v-2h8Zm-16,0h-8v-2h8Zm-16,0h-8v-2h8Zm-16,0h-8v-2h8Zm-16,0h-8v-2h8Zm-16,0h-8v-2h8Zm-16,0h-8v-2h8Zm-16,0h-8v-2h8Zm-16,0h-8v-2h8Zm-16,0h-8v-2h8Zm-16,0h-8v-2h8Zm-16,0h-8v-2h8Zm-16,0h-8v-2h8Zm-16,0h-8v-2h8Zm-16,0h-8v-2h8Zm-16,0h-8v-2h8Zm-16,0h-8v-2h8Zm-16,0h-8v-2h8Zm-16,0h-8v-2h8Zm-16,0h-8v-2h8Zm-16,0h-8v-2h8Zm-16,0h-8v-2h8Zm-16,0h-8v-2h8Zm-16,0h-8v-2h8Zm-16,0h-8v-2h8Zm-16,0h-8v-2h8Zm-16,0h-8v-2h8Zm-16,0h-8v-2h8Zm-16,0h-8v-2h8Zm-16,0h-8v-2h8Zm-16,0h-8v-2h8Zm-16,0h-8v-2h8Zm-16,0h-8v-2h8Zm-16,0h-8v-2h8Zm-16,0h-8v-2h8Zm-16,0h-8v-2h8Zm-16,0h-8v-2h8Zm-16,0h-8v-2h8Zm-16,0h-8v-2h8Zm-16,0h-8v-2h8Zm-16,0h-8v-2h8Zm-16,0h-8v-2h8Zm-16,0h-8v-2h8Zm-16,0h-8v-2h8Zm-16,0h-8v-2h8Zm-16,0h-8v-2h8Zm-16,0h-8v-2h8Zm-16,0h-8v-2h8Zm-16,0h-8v-2h8Zm-16,0h-8v-2h8Zm-16,0h-8v-2h8Zm-16,0h-8v-2h8Zm-16,0h-8v-2h8Zm-16,0h-8v-2h8Zm-16,0h-8v-2h8Zm-16,0h-8v-2h8Zm-16,0h-8v-2h8Zm-16,0h-8v-2h8Zm-16,0h-8v-2h8Zm-16,0h-8v-2h8Zm-16,0h-8v-2h8Zm-16,0h-8v-2h8Zm-16,0h-8v-2h8Zm-16,0h-8v-2h8Zm-16,0h-8v-2h8Zm-16,0h-8v-2h8Zm-16,0h-8v-2h8Zm-16,0h-8v-2h8Zm-16,0h-8v-2h8Z" fill="#fff"/>
      </g>
    </g>
    <circle id="Ellipse_1069" data-name="Ellipse 1069" cx="15" cy="15" r="15" transform="translate(490 190)" fill="#fff"/>
    <text id="X-Wallet_Beta" data-name="X-Wallet Beta" transform="translate(437.17 255)" fill="#fff" font-size="20" fontFamily={theme.fontFamily.basier} letter-spacing="-0.1em"><tspan x="0" y="0">X-Wallet Beta</tspan></text>
    <text id="Website_v2" data-name="Website v2" transform="translate(707.17 446)" fill="#fff" font-size="20" fontFamily={theme.fontFamily.basier} letter-spacing="-0.1em"><tspan x="0" y="0">Website v2</tspan></text>
    <text id="Lending_borrowing_functionalities" data-name="Lending &amp; borrowing
functionalities" transform="translate(756.17 662)" fill="#fff" font-size="20" fontFamily={theme.fontFamily.basier} letter-spacing="-0.1em"><tspan x="-99.61" y="0">Lending &amp; borrowing</tspan><tspan x="-78.85" y="24">functionalities</tspan></text>
    <text id="X-Wallet_v1" data-name="X-Wallet v1" transform="translate(697.17 255)" fill="#fff" font-size="20" fontFamily={theme.fontFamily.basier} letter-spacing="-0.1em"><tspan x="0" y="0">X-Wallet v1</tspan></text>
    <text id="Public_Sale" data-name="Public Sale" transform="translate(947.17 255)" fill="#fff" font-size="20" fontFamily={theme.fontFamily.basier} letter-spacing="-0.1em"><tspan x="0" y="0">Public Sale</tspan></text>
    <text id="Litepaper_Whitepaper" data-name="Litepaper
&amp; Whitepaper" transform="translate(1255.17 255)" fill="#fff" font-size="20" fontFamily={theme.fontFamily.basier} letter-spacing="-0.1em"><tspan x="-47.71" y="0">Litepaper</tspan><tspan x="-63.28" y="25">&amp; Whitepaper</tspan></text>
    <text id="Bridged_ERC-20_Token_Pairs" data-name="Bridged ERC-20
Token Pairs" transform="translate(1506.17 255)" fill="#fff" font-size="20" fontFamily={theme.fontFamily.basier} letter-spacing="-0.1em"><tspan x="-73.66" y="0">Bridged ERC-20</tspan><tspan x="-58.09" y="25">Token Pairs</tspan></text>
    <text id="_3d_Swapping_Interface" data-name="3d Swapping
Interface" transform="translate(506.17 446)" fill="#fff" font-size="20" fontFamily={theme.fontFamily.basier} letter-spacing="-0.1em"><tspan x="-58.09" y="0">3d Swapping</tspan><tspan x="-47.71" y="25">Interface</tspan></text>
    <text id="Kaddex_v1_full_launch" data-name="Kaddex v1
full launch" transform="translate(1250.17 446)" fill="#fff" font-size="20" fontFamily={theme.fontFamily.basier} letter-spacing="-0.1em"><tspan x="-47.71" y="0">Kaddex v1</tspan><tspan x="-58.09" y="25">full launch</tspan></text>
    <text id="KDX_Liquidity_Mining_Programme" data-name="KDX Liquidity
Mining Programme" transform="translate(1499.17 446)" fill="#fff" font-size="20" fontFamily={theme.fontFamily.basier} letter-spacing="-0.1em"><tspan x="-68.47" y="0">KDX Liquidity</tspan><tspan x="-84.04" y="25">Mining Programme</tspan></text>
    <text id="KDX_Vaulting_programme_available_for_early_investors" data-name="KDX Vaulting
programme
available for early
investors" transform="translate(1007.17 446)" fill="#fff" font-size="20" fontFamily={theme.fontFamily.basier} letter-spacing="-0.1em"><tspan x="-63.28" y="0">KDX Vaulting</tspan><tspan x="-47.71" y="25">programme</tspan><tspan font-size="13"><tspan x="-64.746" y="50">available for early</tspan><tspan x="-31.012" y="75">investors</tspan></tspan></text>
    <text id="Single_Sided_Liquidity" data-name="Single Sided
Liquidity" transform="translate(506.17 661)" fill="#fff" font-size="20" fontFamily={theme.fontFamily.basier} letter-spacing="-0.1em"><tspan x="-63.28" y="0">Single Sided</tspan><tspan x="-47.71" y="25">Liquidity</tspan></text>
    <line id="Line_585" data-name="Line 585" x2="62" transform="translate(-5 206)" fill="none" stroke="#707070" stroke-width="4"/>
  </g>
</svg>
