<svg xmlns="http://www.w3.org/2000/svg" width="376.001" height="920" viewBox="0 0 376.001 920">
  <g id="Roadmap_2022_mobile" data-name="Roadmap 2022_mobile" transform="translate(0.001 -253)">
    <g id="Group_68995" data-name="Group 68995">
      <path id="Path_44314" data-name="Path 44314" d="M376,5456H42a20,20,0,0,1-20-20V5321" transform="translate(0 -4328)" fill="none" stroke="#fff" stroke-width="2" stroke-dasharray="8 8"/>
      <circle id="Ellipse_X-Wallet_beta" data-name="Ellipse X-Wallet_beta" cx="10" cy="10" r="10" transform="translate(103 253)" fill="#fff"/>
            <text id="X-Wallet_Beta" data-name="X-Wallet Beta" transform="translate(113 306)" fill="#fff" font-size="15" font-family="BasierSquareMono-Regular, Basier Square Mono" letter-spacing="-0.1em"><tspan x="-51.353" y="0">X-Wallet Beta</tspan></text>
      
      <circle id="Ellipse_Litepaper" data-name="Ellipse Litepaper" cx="10" cy="10" r="10" transform="translate(260 253)" fill="#fff"/>
      <text id="Litepaper" transform="translate(270 306)" fill="#fff" font-size="15" font-family="BasierSquareMono-Regular, Basier Square Mono" letter-spacing="-0.1em"><tspan x="-35.783" y="0">Litepaper</tspan></text>

     
      <circle id="Ellipse_X-Wallet_v1" data-name="Ellipse X-Wallet_v1" cx="10" cy="10" r="10" transform="translate(260 364)" fill="#fff"/>
            <text id="X-Wallet_v1" data-name="X-Wallet v1" transform="translate(270 417)" fill="#fff" font-size="15" font-family="BasierSquareMono-Regular, Basier Square Mono" letter-spacing="-0.1em"><tspan x="-43.568" y="0">X-Wallet v1</tspan></text>
      
      <circle id="Ellipse_Public_Sale" data-name="Ellipse Public_Sale" cx="10" cy="10" r="10" transform="translate(103 364)" fill="#fff"/>
      <text id="Public_Sale" data-name="Public Sale" transform="translate(113 417)" fill="#fff" font-size="15" font-family="BasierSquareMono-Regular, Basier Square Mono" letter-spacing="-0.1em"><tspan x="-43.568" y="0">Public Sale</tspan></text>

      <circle id="Ellipse_Bridged_ERC_20_Token_Pairs" data-name="Ellipse Bridged_ERC_20_Token_Pairs" cx="10" cy="10" r="10" transform="translate(103 498)" fill="#fff"/>
 <text id="Bridged_ERC_20_Token_Pairs-20_Token_Pairs" data-name="Bridged ERC 20 Token Pairs" transform="translate(113 551)" fill="#fff" font-size="15" font-family="BasierSquareMono-Regular, Basier Square Mono" letter-spacing="-0.1em"><tspan x="-78.6" y="0">Bridged ERC-20 Token</tspan><tspan x="-20.212" y="19">Pairs</tspan></text>
      
      <circle id="Ellipse_3D_Swapping_Interface" data-name="Ellipse 3D_Swapping_Interface" cx="10" cy="10" r="10" transform="translate(260 498)" fill="#fff"/>
      <text id="_3D_Swapping_Interface" data-name="3D Swapping Interface" transform="translate(270 551)" fill="#fff" font-size="15" font-family="BasierSquareMono-Regular, Basier Square Mono" letter-spacing="-0.1em"><tspan x="-43.568" y="0">3d Swapping</tspan><tspan x="-35.783" y="19">Interface</tspan></text>
      
     
      <circle id="Ellipse_Website_V2" data-name="Ellipse Website_V2" cx="10" cy="10" r="10" transform="translate(260 646)" fill="#fff"/>
    <text id="Website_v2" data-name="Website v2" transform="translate(270 699)" fill="#fff" font-size="15" font-family="BasierSquareMono-Regular, Basier Square Mono" letter-spacing="-0.1em"><tspan x="-39.675" y="0">Website v2</tspan></text>
    
      <circle id="Ellipse_KDX_Vaulting_Programme" data-name="Ellipse KDX_Vaulting_Programme" cx="10" cy="10" r="10" transform="translate(103 646)" fill="#fff"/>
      <text id="KDX_Vaulting_programme_Available_for_early_investors" data-name="KDX Vaulting programme Available for early investors" transform="translate(113 699)" fill="#fff" font-size="15" font-family="BasierSquareMono-Regular, Basier Square Mono" letter-spacing="-0.1em"><tspan x="-47.46" y="0">KDX Vaulting</tspan><tspan x="-35.783" y="20">programme</tspan><tspan font-size="10"><tspan x="-34.235" y="40">Available for</tspan><tspan x="-39.425" y="60">early investors</tspan></tspan></text>
      
       <circle id="Ellipse_Kaddex_v1_full_launch" data-name="Ellipse Kaddex_v1_full_launch" cx="15" cy="15" r="15" transform="translate(96 794)" fill="#fff"/>
      <text id="Kaddex_v1_full_launch" data-name="Kaddex v1 full launch" transform="translate(111 852)" fill="#fff" font-size="15" font-family="BasierSquareMono-Regular, Basier Square Mono" letter-spacing="-0.1em"><tspan x="-35.783" y="0">Kaddex v1</tspan><tspan x="-43.568" y="19">full launch</tspan></text>
  

      <circle id="Ellipse_Single_Sided_Liquidity" data-name="Ellipse Single_Sided_Liquidity" cx="10" cy="10" r="10" transform="translate(260 799)" fill="#fff"/>
      <text id="Single_Sided_Liquidity" data-name="Single Sided Liquidity" transform="translate(270 852)" fill="#fff" font-size="15" font-family="BasierSquareMono-Regular, Basier Square Mono" letter-spacing="-0.1em"><tspan x="-47.46" y="0">Single Sided</tspan><tspan x="-35.783" y="19">Liquidity</tspan></text>
      <circle id="Ellipse_KDX_Liquidity_Mining_Programme" data-name="Ellipse KDX_Liquidity_Mining_Programme" cx="10" cy="10" r="10" transform="translate(260 954)" fill="#fff"/>
      <text id="KDX_Liquidity_Mining_Programme" data-name="KDX Liquidity Mining Programme" transform="translate(270 1007)" fill="#fff" font-size="15" font-family="BasierSquareMono-Regular, Basier Square Mono" letter-spacing="-0.1em"><tspan x="-51.353" y="0">KDX Liquidity</tspan><tspan x="-63.03" y="19">Mining Programme</tspan></text>
      <circle id="Ellipse_Lending_borrowing_functionalities" data-name="Ellipse Lending_borrowing_functionalities" cx="10" cy="10" r="10" transform="translate(103 954)" fill="#fff"/>
      <text id="Lending_borrowing_functionalities" data-name="Lending &amp; borrowing functionalities" transform="translate(113 1007)" fill="#fff" font-size="15" font-family="BasierSquareMono-Regular, Basier Square Mono" letter-spacing="-0.1em"><tspan x="-74.708" y="0">Lending &amp; borrowing</tspan><tspan x="-59.138" y="19">functionalities</tspan></text>
      <circle id="Ellipse_Whitepaper" data-name="Ellipse Whitepaper" cx="10" cy="10" r="10" transform="translate(103 1116)" fill="#fff"/>
      <text id="Whitepaper" transform="translate(113 1169)" fill="#fff" font-size="15" font-family="BasierSquareMono-Regular, Basier Square Mono" letter-spacing="-0.1em"><tspan x="-39.675" y="0">Whitepaper</tspan></text>
      <path id="Path_44414" data-name="Path 44414" d="M-699.528-11.545h329.669a20.282,20.282,0,0,1,20.331,20v71a20,20,0,0,1-20,20h-288a20,20,0,0,0-20,20v93.99a20,20,0,0,0,20,20h288a20,20,0,0,1,20,20v107.5a20,20,0,0,1-20,20h-288a20,20,0,0,0-20,20v114a20,20,0,0,0,20,20h288a20,20,0,0,1,20,20v114.5a20,20,0,0,1-20,20h-288a20,20,0,0,0-20,20v124a20,20,0,0,0,20,20h178" transform="translate(699.527 274.555)" fill="none" stroke="#fff" stroke-width="3"/>
      
       </g>
  </g>
</svg>
