<svg xmlns="http://www.w3.org/2000/svg" width="1743.17" height="501" viewBox="0 0 1743.17 501">
  <g id="Roadmap" transform="translate(5 -190)">
    <g id="Group_68777" data-name="Group 68777">
      <path id="Path_43816" data-name="Path 43816" d="M1520.5,613.005H369a82.6,82.6,0,0,1-16.524-1.666A81.569,81.569,0,0,1,323.151,599a82.231,82.231,0,0,1-29.707-36.076,81.611,81.611,0,0,1-4.779-15.4A82.6,82.6,0,0,1,287,531.005v-54a82.6,82.6,0,0,1,1.666-16.524,81.568,81.568,0,0,1,12.34-29.325,82.231,82.231,0,0,1,36.076-29.707,81.61,81.61,0,0,1,15.4-4.779A82.6,82.6,0,0,1,369,395.005H1588a77.624,77.624,0,0,0,43.608-13.32,78.237,78.237,0,0,0,28.263-34.319A77.507,77.507,0,0,0,1666,317.005v-31a77.693,77.693,0,0,0-77.77-78H289L-5,208v-4l294,.005H1588.23a82.45,82.45,0,0,1,16.514,1.666,81.161,81.161,0,0,1,29.263,12.341,81.886,81.886,0,0,1,34.338,51.471A83.059,83.059,0,0,1,1670,286.005v31a82.6,82.6,0,0,1-1.666,16.524,81.564,81.564,0,0,1-12.34,29.325,82.238,82.238,0,0,1-36.076,29.707,81.6,81.6,0,0,1-15.395,4.779A82.59,82.59,0,0,1,1588,399.005H369a77.624,77.624,0,0,0-43.609,13.32,78.235,78.235,0,0,0-28.262,34.319A77.512,77.512,0,0,0,291,477.005v54a77.624,77.624,0,0,0,13.32,43.609,78.236,78.236,0,0,0,34.319,28.262A77.513,77.513,0,0,0,369,609.005H1520.5Z" fill="#fff"/>
      <circle id="Ellipse_1058" data-name="Ellipse 1058" cx="15" cy="15" r="15" transform="translate(490 381)" fill="#fff"/>
      <circle id="Ellipse_1059" data-name="Ellipse 1059" cx="15" cy="15" r="15" transform="translate(490 596)" fill="#fff"/>
      <circle id="Ellipse_1060" data-name="Ellipse 1060" cx="15" cy="15" r="15" transform="translate(740 190)" fill="#fff"/>
      <circle id="Ellipse_1061" data-name="Ellipse 1061" cx="15" cy="15" r="15" transform="translate(740 381)" fill="#fff"/>
      <circle id="Ellipse_1062" data-name="Ellipse 1062" cx="15" cy="15" r="15" transform="translate(740 596)" fill="#fff"/>
      <circle id="Ellipse_1277" data-name="Ellipse 1277" cx="15" cy="15" r="15" transform="translate(990 596)" fill="#fff"/>
      <circle id="Ellipse_1279" data-name="Ellipse 1279" cx="15" cy="15" r="15" transform="translate(1240 596)" fill="#fff"/>
      <circle id="Ellipse_1063" data-name="Ellipse 1063" cx="15" cy="15" r="15" transform="translate(990 190)" fill="#fff"/>
      <circle id="Ellipse_1064" data-name="Ellipse 1064" cx="15" cy="15" r="15" transform="translate(990 381)" fill="#fff"/>
      <circle id="Ellipse_1065" data-name="Ellipse 1065" cx="15" cy="15" r="15" transform="translate(1240 190)" fill="#fff"/>
      <circle id="Ellipse_1066" data-name="Ellipse 1066" cx="15" cy="15" r="15" transform="translate(1240 381)" fill="#fff"/>
      <circle id="Ellipse_1067" data-name="Ellipse 1067" cx="15" cy="15" r="15" transform="translate(1490 190)" fill="#fff"/>
      <circle id="Ellipse_1068" data-name="Ellipse 1068" cx="15" cy="15" r="15" transform="translate(1490 381)" fill="#fff"/>
      <circle id="Ellipse_3207" data-name="Ellipse 3207" cx="15" cy="15" r="15" transform="translate(1490 596)" fill="#fff"/>
    </g>
    <g id="Group_68779" data-name="Group 68779">
      <g id="Group_68778" data-name="Group 68778">
        <path id="Path_43817" data-name="Path 43817" d="M1738.17,612h-6.049v-2h6.049Zm-14.049,0h-8v-2h8Zm-16,0h-8v-2h8Zm-16,0h-8v-2h8Zm-16,0h-8v-2h8Zm-16,0h-8v-2h8Zm-16,0h-8v-2h8Zm-16,0h-8v-2h8Zm-16,0h-8v-2h8Zm-16,0h-8v-2h8Zm-16,0h-8v-2h8Zm-16,0h-8v-2h8Zm-16,0h-8v-2h8Zm-16,0h-8v-2h8Zm-16,0h-8v-2h8Zm-16,0h-8v-2h8Zm-16,0h-8v-2h8Zm-16,0h-8v-2h8Zm-16,0h-8v-2h8Zm-16,0h-8v-2h8Zm-16,0h-8v-2h8Zm-16,0h-8v-2h8Zm-16,0h-8v-2h8Zm-16,0h-8v-2h8Zm-16,0h-8v-2h8Zm-16,0h-8v-2h8Zm-16,0h-8v-2h8Zm-16,0h-8v-2h8Zm-16,0h-8v-2h8Zm-16,0h-8v-2h8Zm-16,0h-8v-2h8Zm-16,0h-8v-2h8Zm-16,0h-8v-2h8Zm-16,0h-8v-2h8Zm-16,0h-8v-2h8Zm-16,0h-8v-2h8Zm-16,0h-8v-2h8Zm-16,0h-8v-2h8Zm-16,0h-8v-2h8Zm-16,0h-8v-2h8Zm-16,0h-8v-2h8Zm-16,0h-8v-2h8Zm-16,0h-8v-2h8Zm-16,0h-8v-2h8Zm-16,0h-8v-2h8Zm-16,0h-8v-2h8Zm-16,0h-8v-2h8Zm-16,0h-8v-2h8Zm-16,0h-8v-2h8Zm-16,0h-8v-2h8Zm-16,0h-8v-2h8Zm-16,0h-8v-2h8Zm-16,0h-8v-2h8Zm-16,0h-8v-2h8Zm-16,0h-8v-2h8Zm-16,0h-8v-2h8Zm-16,0h-8v-2h8Zm-16,0h-8v-2h8Zm-16,0h-8v-2h8Zm-16,0h-8v-2h8Zm-16,0h-8v-2h8Zm-16,0h-8v-2h8Zm-16,0h-8v-2h8Zm-16,0h-8v-2h8Zm-16,0h-8v-2h8Zm-16,0h-8v-2h8Zm-16,0h-8v-2h8Zm-16,0h-8v-2h8Zm-16,0h-8v-2h8Zm-16,0h-8v-2h8Zm-16,0h-8v-2h8Zm-16,0h-8v-2h8Zm-16,0h-8v-2h8Zm-16,0h-8v-2h8Zm-16,0h-8v-2h8Zm-16,0h-8v-2h8Zm-16,0h-8v-2h8Zm-16,0h-8v-2h8Zm-16,0h-8v-2h8Zm-16,0h-8v-2h8Zm-16,0h-8v-2h8Zm-16,0h-8v-2h8Zm-16,0h-8v-2h8Zm-16,0h-8v-2h8Zm-16,0h-8v-2h8Z" fill="#fff"/>
      </g>
    </g>
    <circle id="Ellipse_1069" data-name="Ellipse 1069" cx="15" cy="15" r="15" transform="translate(490 190)" fill="#fff"/>
    <text id="Beta_release" data-name="Beta release" transform="translate(505.17 255)" fill="#fff" font-size="20" font-family="BasierSquareMono-Regular, Basier Square Mono" letter-spacing="-0.1em"><tspan x="-63.28" y="0">Beta release</tspan></text>
    <text id="Brand_Refresh" data-name="Brand Refresh" transform="translate(760.17 446)" fill="#fff" font-size="20" font-family="BasierSquareMono-Regular, Basier Square Mono" letter-spacing="-0.1em"><tspan x="-68.47" y="0">Brand Refresh</tspan></text>
    <text id="SDK_easy_integration_kit" data-name="SDK easy
integration kit" transform="translate(756.17 662)" fill="#fff" font-size="20" font-family="BasierSquareMono-Regular, Basier Square Mono" letter-spacing="-0.1em"><tspan x="-42.52" y="0">SDK easy</tspan><tspan x="-78.85" y="24">integration kit</tspan></text>
    <text id="NFTs_integration" data-name="NFTs integration" transform="translate(1005 662)" fill="#fff" font-size="20" font-family="BasierSquareMono-Regular, Basier Square Mono" letter-spacing="-0.1em"><tspan x="-84.04" y="0">NFTs integration</tspan></text>
    <text id="X-Wallet_v2" data-name="X-Wallet v2" transform="translate(1255 662)" fill="#fff" font-size="20" font-family="BasierSquareMono-Regular, Basier Square Mono" letter-spacing="-0.1em"><tspan x="-58.09" y="0">X-Wallet v2</tspan></text>
    <text id="X-Wallet_v1" data-name="X-Wallet v1" transform="translate(755.17 255)" fill="#fff" font-size="20" font-family="BasierSquareMono-Regular, Basier Square Mono" letter-spacing="-0.1em"><tspan x="-58.09" y="0">X-Wallet v1</tspan></text>
    <text id="Google_Chrome_Store" data-name="Google Chrome
Store" transform="translate(1005.17 255)" fill="#fff" font-size="20" font-family="BasierSquareMono-Regular, Basier Square Mono" letter-spacing="-0.1em"><tspan x="-68.47" y="0">Google Chrome</tspan><tspan x="-26.95" y="25">Store</tspan></text>
    <text id="Kaddex_integration" data-name="Kaddex
integration" transform="translate(1255.17 255)" fill="#fff" font-size="20" font-family="BasierSquareMono-Regular, Basier Square Mono" letter-spacing="-0.1em"><tspan x="-32.14" y="0">Kaddex</tspan><tspan x="-58.09" y="25">integration</tspan></text>
    <text id="KDLaunch_integration" data-name="KDLaunch 
integration" transform="translate(1506.17 255)" fill="#fff" font-size="20" font-family="BasierSquareMono-Regular, Basier Square Mono" letter-spacing="-0.1em"><tspan x="-47.71" y="0">KDLaunch </tspan><tspan x="-58.09" y="25">integration</tspan></text>
    <text id="Mobile_app" data-name="Mobile app" transform="translate(506.17 446)" fill="#fff" font-size="20" font-family="BasierSquareMono-Regular, Basier Square Mono" letter-spacing="-0.1em"><tspan x="-52.9" y="0">Mobile app</tspan></text>
    <text id="Fiat_on_Ramp" data-name="Fiat on Ramp" transform="translate(1250.17 446)" fill="#fff" font-size="20" font-family="BasierSquareMono-Regular, Basier Square Mono" letter-spacing="-0.1em"><tspan x="-63.28" y="0">Fiat on Ramp</tspan></text>
    <text id="_10_000_Downloads" data-name="10,000 Downloads" transform="translate(1499.17 446)" fill="#fff" font-size="20" font-family="BasierSquareMono-Regular, Basier Square Mono" letter-spacing="-0.1em"><tspan x="-84.04" y="0">10,000 Downloads</tspan></text>
    <text id="Auditing" transform="translate(1499.17 662)" fill="#fff" font-size="20" font-family="BasierSquareMono-Regular, Basier Square Mono" letter-spacing="-0.1em"><tspan x="-42.52" y="0">Auditing</tspan></text>
    <text id="Fiat_off_Ramp" data-name="Fiat off Ramp" transform="translate(1007.17 446)" fill="#fff" font-size="20" font-family="BasierSquareMono-Regular, Basier Square Mono" letter-spacing="-0.1em"><tspan x="-68.47" y="0">Fiat off Ramp</tspan></text>
    <text id="Swap_functionality" data-name="Swap functionality" transform="translate(506.17 661)" fill="#fff" font-size="20" font-family="BasierSquareMono-Regular, Basier Square Mono" letter-spacing="-0.1em"><tspan x="-94.42" y="0">Swap functionality</tspan></text>
  </g>
</svg>
