<svg xmlns="http://www.w3.org/2000/svg" width="260.932" height="120" viewBox="0 0 260.932 120">
  <g id="_0VCs" data-name="0VCs" transform="translate(119.85 -69.118)">
    <path id="Path_42875" data-name="Path 42875" d="M-119.85,129.119c0-38.288,21.216-60,49.724-60,28.674,0,49.724,21.713,49.724,60s-21.05,60-49.724,60C-98.634,189.118-119.85,167.405-119.85,129.119Zm72.431,0c0-26.353-9.281-37.292-22.707-37.292-13.26,0-22.542,10.939-22.542,37.292s9.281,37.293,22.542,37.293C-56.7,166.412-47.419,155.473-47.419,129.119Z" fill="#fff"/>
    <g id="VCs" transform="translate(0.932 122.882)" opacity="0.6" style="mix-blend-mode: normal;isolation: isolate">
      <path id="Path_42876" data-name="Path 42876" d="M70.726,117.267,39.693,188.958H23.307L-7.622,117.267H10.3l21.814,51.208,22.122-51.208Z" transform="translate(-0.369 -123.95)" fill="#fff" opacity="0.6"/>
      <path id="Path_42877" data-name="Path 42877" d="M40.063,153.322c0-21.61,16.591-37.075,38.918-37.075,12.392,0,22.735,4.506,29.5,12.7l-10.651,9.832a23.064,23.064,0,0,0-18.025-8.4c-13.416,0-22.941,9.421-22.941,22.941s9.525,22.94,22.941,22.94a22.843,22.843,0,0,0,18.025-8.5l10.651,9.832c-6.76,8.295-17.1,12.8-29.6,12.8C56.654,190.4,40.063,174.93,40.063,153.322Z" transform="translate(9.396 -124.159)" fill="#fff" opacity="0.6"/>
      <path id="Path_42878" data-name="Path 42878" d="M81.2,175.736l4.757-10.248a33.667,33.667,0,0,0,17.109,4.758c6.586,0,9.058-1.738,9.058-4.482,0-8.051-29.734.183-29.734-19.486,0-9.332,8.417-15.919,22.78-15.919,6.769,0,14.271,1.555,18.937,4.3l-4.758,10.154a28.249,28.249,0,0,0-14.179-3.659c-6.4,0-9.149,2.013-9.149,4.574,0,8.417,29.734.274,29.734,19.669,0,9.149-8.51,15.644-23.238,15.644C94.193,181.041,85.777,178.754,81.2,175.736Z" transform="translate(14.392 -115.171)" fill="#fff" opacity="0.6"/>
    </g>
  </g>
</svg>
