<svg xmlns="http://www.w3.org/2000/svg" width="120" height="120" viewBox="0 0 120 120">
  <g id="AR" transform="translate(10.633 -78.598)">
    <path id="Path_41585" data-name="Path 41585" d="M69.809,113.933a1.572,1.572,0,0,1-.481.844,1.319,1.319,0,0,1-.844.249,9.265,9.265,0,0,1-1.471-.167,11.567,11.567,0,0,0-1.906-.162,6.823,6.823,0,0,0-2.416.4,5.994,5.994,0,0,0-1.9,1.142,7.7,7.7,0,0,0-1.49,1.8,17.564,17.564,0,0,0-1.209,2.416v20.919H49.916V107.412h4.8a1.976,1.976,0,0,1,2.416,2.053l.464,3.838a14.983,14.983,0,0,1,3.8-4.782,8.049,8.049,0,0,1,5.164-1.737,6.321,6.321,0,0,1,3.773,1.023ZM37.469,140.794a3.607,3.607,0,0,1-1.093-1.439L32.8,129.591H12.976L9.4,139.355a3.2,3.2,0,0,1-1.028,1.391,2.86,2.86,0,0,1-1.887.629H-.462L18.369,93.51h9.07l18.8,47.865H39.358A2.935,2.935,0,0,1,37.469,140.794ZM24.692,107.381c-.285-.706-.585-1.538-.892-2.5s-.619-2-.926-3.13q-.464,1.691-.909,3.147t-.878,2.547L15.259,123.3H30.518Z" transform="translate(14.429 21.155)" fill="#fff"/>
    <g id="Group_68539" data-name="Group 68539" transform="translate(-10.633 78.598)">
      <path id="Path_41586" data-name="Path 41586" d="M109.367,198.6h-120V78.6h120ZM-3.377,191.342H102.111V85.854H-3.377Z" transform="translate(10.633 -78.598)" fill="#fff"/>
    </g>
  </g>
</svg>
