<svg xmlns="http://www.w3.org/2000/svg" width="120" height="120" viewBox="0 0 120 120">
  <g id="Definer" transform="translate(-0.003 0.014)">
    <path id="路径_207" data-name="路径 207" d="M121,55.069V29.822c0-1.576.341-1.951,1.934-2.063a64.74,64.74,0,0,1,8.949-.488,40.037,40.037,0,0,1,16.154,3.714A23.107,23.107,0,0,1,161.31,48.954a37.365,37.365,0,0,1-2.086,17.781,2.13,2.13,0,0,1-2.654,1.313l-.076-.038c-2.654-.863-5.309-1.726-7.963-2.626A2.083,2.083,0,0,1,147.2,64.5a2.042,2.042,0,0,1-.3-1.555,1.647,1.647,0,0,1,.228-.6,25.2,25.2,0,0,0,1.4-12.192,9.708,9.708,0,0,0-6.939-8.1,18.015,18.015,0,0,0-6.864-1.463c-.834.038-1.062.263-1.062,1.088.038,9.678,0,19.394.038,29.11a3.326,3.326,0,0,1-1.251,2.776c-3.072,2.7-6.105,5.439-9.139,8.178-.417.375-.8.975-1.517.6s-.758-1.125-.758-1.838V55.069Z" transform="translate(-75.018 -17.045)" fill="#00a0e9"/>
    <path id="路径_204" data-name="路径 204" d="M46.107,94.106c0-7.015.114-13.992-.038-21.007A5.492,5.492,0,0,1,48.534,68c4.323-3.3,8.3-6.977,12.438-10.466,2.73-2.288,5.536-4.5,8.115-6.977a1.394,1.394,0,0,1,1.631-.3c2.882,1.163,5.84,2.1,8.8,3.039a1.659,1.659,0,0,1,1.327,1.238c.152.675-.379,1.05-.834,1.426-3.413,2.964-6.788,5.927-10.163,8.891-3.451,3.039-6.939,6.077-10.428,9.116a1.574,1.574,0,0,0-.683,1.388c.038,1.726,0,3.414,0,5.1,0,.3-.19.75.19.9s.569-.263.834-.488c2.92-2.438,5.8-4.914,8.684-7.353,1.365-1.163,2.73-2.288,4.057-3.451a1.623,1.623,0,0,1,1.858-.3c2.806,1.125,5.612,2.176,8.418,3.3,1.4.563,1.479,1.5.341,2.476L66.849,89.6c-2.465,2.063-4.892,4.277-7.319,6.377a1.751,1.751,0,0,0-.645,1.425c0,5.477.038,10.954,0,16.468,0,1.05.379,1.2,1.289,1.163A55.093,55.093,0,1,0,36.7,109.974h0c.758.338,1.517.675,2.313,1.013a23.264,23.264,0,0,0,2.844,1.05c.758.225,1.138.525,1.024,1.388a21.334,21.334,0,0,0,0,3.114c.076.938-.19,1.013-1.024.75a57.478,57.478,0,0,1-18.2-9.416A58.813,58.813,0,0,1-.157,57.268,59.32,59.32,0,0,1,45.014,1.784,60.013,60.013,0,0,1,81.828,115.713a59.339,59.339,0,0,1-34.508,2.964,1.343,1.343,0,0,1-1.251-1.576C46.107,109.486,46.107,101.8,46.107,94.106Z" transform="translate(0.255 0)" fill="#0064b1"/>
  </g>
</svg>
