<svg xmlns="http://www.w3.org/2000/svg" width="232.305" height="120" viewBox="0 0 232.305 120">
  <g id="Roboswap" transform="translate(1123.002 -764.84)">
    <path id="Rectangle_10086" data-name="Rectangle 10086" d="M0,0H105.874a0,0,0,0,1,0,0V64.016A11.339,11.339,0,0,1,94.535,75.355h-83.2A11.339,11.339,0,0,1,0,64.016V0A0,0,0,0,1,0,0Z" transform="translate(-1059.85 809.485)" fill="#f9911f"/>
    <circle id="Ellipse_955" data-name="Ellipse 955" cx="4.887" cy="4.887" r="4.887" transform="translate(-1029.518 828.376)" fill="#050405"/>
    <circle id="Ellipse_956" data-name="Ellipse 956" cx="7.433" cy="7.433" r="7.433" transform="translate(-999.016 823.415)" fill="#050405"/>
    <path id="Path_42893" data-name="Path 42893" d="M-957.065,800.438c.012,5.865.012,5.865-5.828,5.864-6.474,0-6.474,0-6.48-6.431-.005-5.884-.005-5.884,5.853-5.886C-957.078,793.982-957.078,793.982-957.065,800.438Z" transform="translate(-62.75 -11.904)" fill="#8ac340"/>
    <path id="Path_42894" data-name="Path 42894" d="M-989.231,800.033c-.093,7.239.958,6.2-6.26,6.265-6.108.054-6.138.017-6.1-6.061.045-7.2-.889-6.291,6.258-6.294C-988,793.94-989.378,793.235-989.231,800.033Z" transform="translate(-49.583 -11.873)" fill="#bc282e"/>
    <path id="Path_42895" data-name="Path 42895" d="M-872.666,800.17c0-6.176,0-6.176,6.092-6.182,6.173-.006,6.173-.006,6.188,6.143.014,6.17.014,6.17-6.159,6.177C-872.668,806.315-872.668,806.315-872.666,800.17Z" transform="translate(-102.25 -11.905)" fill="#f59124"/>
    <path id="Path_42896" data-name="Path 42896" d="M-936.961,799.923c.01-6.108.01-6.108,6.1-6.1,6.069,0,6.069,0,6.084,6.188.015,6.31.015,6.31-6.248,6.3C-936.972,806.3-936.972,806.3-936.961,799.923Z" transform="translate(-75.988 -11.837)" fill="#2ba9dd"/>
    <path id="Path_42897" data-name="Path 42897" d="M-892.672,800.3c.021,6.012.021,6.012-6,6.011-6.166,0-6.166,0-6.163-6.231,0-6.2,0-6.2,6.224-6.18C-892.693,793.921-892.693,793.921-892.672,800.3Z" transform="translate(-89.109 -11.868)" fill="#f505f3"/>
    <path id="Path_42898" data-name="Path 42898" d="M-936.962,770.918c0-6.079,0-6.079,6.145-6.078,5.988,0,5.988,0,5.992,5.946,0,6.285,0,6.285-6.317,6.272C-936.964,777.045-936.964,777.045-936.962,770.918Z" transform="translate(-75.988)" fill="#2aa9e0"/>
    <path id="Path_42899" data-name="Path 42899" d="M-969.814,922.407c-1.318-.165-2.334-.589-2.708-1.744a2.638,2.638,0,0,1,.765-3.216c3.911-2.819,7.861-5.585,11.775-8.4,1.244-.894,1.755.234,2.441.815,1.631,1.378,2.534,4.2,4.684,4.173,2.034-.022,3.485-2.385,5.009-3.849,1.9-1.821,3.149-1.956,4.474.406a12.035,12.035,0,0,0,1.322,1.585c3.618,4.41,3.61,4.406,6.972-.334,1.422-2,2.937-3.945,4.3-5.987.87-1.3,1.549-1.6,2.594-.181,3.038,4.111,6.158,8.163,9.2,12.272,1.08,1.459,1.154,3.038-.447,4.135s-2.956.4-4.041-1.061c-1.349-1.817-2.881-3.51-4.1-5.407-1.381-2.149-2.277-1.788-3.525.123-1.771,2.714-3.8,5.254-5.637,7.93-1.136,1.66-2.091,1.424-3.188.012-1.449-1.863-2.991-3.656-4.409-5.542-1.19-1.583-2.184-1.826-3.807-.348-4.974,4.529-5.086,4.516-9.722-.246-1.374-1.411-2.379-1.655-3.966-.365-1.9,1.545-4,2.848-6.044,4.213A18.3,18.3,0,0,1-969.814,922.407Z" transform="translate(-61.372 -57.142)" fill="#c1282c"/>
    <circle id="Ellipse_957" data-name="Ellipse 957" cx="7.714" cy="7.714" r="7.714" transform="translate(-906.125 836.893)" fill="#8bc441"/>
    <circle id="Ellipse_958" data-name="Ellipse 958" cx="2.146" cy="2.146" r="2.146" transform="translate(-900.558 842.461)"/>
    <circle id="Ellipse_959" data-name="Ellipse 959" cx="7.714" cy="7.714" r="7.714" transform="translate(-1123.002 832.17)" fill="#f406f2"/>
    <circle id="Ellipse_960" data-name="Ellipse 960" cx="2.146" cy="2.146" r="2.146" transform="translate(-1117.434 837.737)"/>
    <path id="Rectangle_10087" data-name="Rectangle 10087" d="M6.081,0H99.792a6.081,6.081,0,0,1,6.081,6.081v0a0,0,0,0,1,0,0H0a0,0,0,0,1,0,0v0A6.081,6.081,0,0,1,6.081,0Z" transform="translate(-1060.065 803.494)" fill="#af6717"/>
  </g>
</svg>
