<svg xmlns="http://www.w3.org/2000/svg" xmlns:xlink="http://www.w3.org/1999/xlink" width="193.04" height="120" viewBox="0 0 193.04 120">
  <defs>
    <linearGradient id="linear-gradient" x1="0.18" y1="-11.494" x2="0.588" y2="-12.491" gradientUnits="objectBoundingBox">
      <stop offset="0" stop-color="#fff" stop-opacity="0.647"/>
      <stop offset="0.489" stop-color="#fff" stop-opacity="0.18"/>
      <stop offset="1" stop-color="#fff" stop-opacity="0.012"/>
    </linearGradient>
  </defs>
  <g id="Ufo_Gaming" data-name="Ufo Gaming" transform="translate(0 -167.378)">
    <path id="Path_41579" data-name="Path 41579" d="M0,210.035V168.314H13.944v41.721q0,3.9,2.543,5.361t8.789,1.464q6.151,0,8.59-1.464c1.638-.97,2.457-2.763,2.457-5.361V168.314H50.241v41.721q0,16.65-25.158,16.651T0,210.035Z" transform="translate(0 1.506)" fill="#fff"/>
    <path id="Path_41580" data-name="Path 41580" d="M54.283,192.23H35.873V178.149H64.71a33.1,33.1,0,0,1,5.035-8.056c.514-.616,1.057-1.208,1.62-1.779H21.956V225.8H35.873V202.07h9.535A41.778,41.778,0,0,1,54.283,192.23Z" transform="translate(35.32 1.506)" fill="#fff"/>
    <path id="Path_41581" data-name="Path 41581" d="M74.266,175.789c26.4-7.453,50.5-4.046,53.848,7.6,2.51,8.778-7.474,19.729-23.828,27.785,1.064-3.279,1.25-6.3.725-8.121-1.466-5.131-12.156-6.608-23.872-3.282s-20.029,10.15-18.563,15.282c.524,1.823,2.275,4.276,4.923,6.561-18.177,1.69-32.47-2.408-34.98-11.155C29.18,198.733,47.874,183.276,74.266,175.789Z" transform="translate(51.692 7.179)" fill="#fff"/>
    <path id="Path_41582" data-name="Path 41582" d="M58.959,176.54a105.044,105.044,0,0,1,19.68-3.642,24.105,24.105,0,0,0-38.181,10.745A105.338,105.338,0,0,1,58.959,176.54Z" transform="translate(65.084 0)" fill="#fff"/>
    <path id="Path_41583" data-name="Path 41583" d="M58.294,258.828c.305-3.485-12.211-63.4-12.211-63.4l32-10.307,40.823,73.7Z" transform="translate(74.133 28.55)" fill="url(#linear-gradient)"/>
    <ellipse id="Ellipse_954" data-name="Ellipse 954" cx="16.906" cy="7.451" rx="16.906" ry="7.451" transform="translate(118.112 216.862) rotate(-16.57)" fill="#fff"/>
    <path id="Path_41584" data-name="Path 41584" d="M13.514,206.649h4.565v7.565a11.861,11.861,0,0,1-3.6,1.722,14.265,14.265,0,0,1-4.07.6,10.975,10.975,0,0,1-5.165-1.2,9.111,9.111,0,0,1-3.6-3.391,9.872,9.872,0,0,1,0-9.809,8.929,8.929,0,0,1,3.626-3.365,11.06,11.06,0,0,1,5.243-1.226,11.683,11.683,0,0,1,4.591.861,8.867,8.867,0,0,1,3.391,2.478l-3.287,2.974a5.793,5.793,0,0,0-4.435-2.035,5.122,5.122,0,0,0-3.783,1.435,5.059,5.059,0,0,0-1.435,3.783,5.572,5.572,0,0,0,.652,2.713,4.791,4.791,0,0,0,1.826,1.852,5.428,5.428,0,0,0,2.687.652,6.57,6.57,0,0,0,2.791-.6Zm20.074,5.974H25.866l-1.435,3.548h-5.27l8.061-18.261h5.087L40.4,216.171H35.022Zm-1.513-3.809-2.348-5.843-2.348,5.843Zm26.275,7.356-.052-9.678-4.7,7.878h-2.3l-4.67-7.617v9.417H41.862V197.91h4.252l6.417,10.539,6.261-10.539h4.252l.052,18.261Zm8.4-18.261h5.165v18.261H66.752Zm26.212,0v18.261H88.712l-8.061-9.73v9.73H75.59V197.91h4.252l8.061,9.73v-9.73Zm15.879,8.739h4.565v7.565a11.861,11.861,0,0,1-3.6,1.722,14.265,14.265,0,0,1-4.07.6,10.975,10.975,0,0,1-5.165-1.2,9.111,9.111,0,0,1-3.6-3.391,9.872,9.872,0,0,1,0-9.809,8.929,8.929,0,0,1,3.626-3.365,11.06,11.06,0,0,1,5.243-1.226,11.683,11.683,0,0,1,4.591.861,8.867,8.867,0,0,1,3.391,2.478l-3.287,2.974a5.792,5.792,0,0,0-4.435-2.035,5.122,5.122,0,0,0-3.783,1.435,5.059,5.059,0,0,0-1.435,3.783,5.572,5.572,0,0,0,.652,2.713,4.792,4.792,0,0,0,1.826,1.852,5.428,5.428,0,0,0,2.687.652,6.57,6.57,0,0,0,2.791-.6Z" transform="translate(0.547 48.53)" fill="rgba(255,255,255,0.97)"/>
  </g>
</svg>
