<svg width="128" height="24" viewBox="0 0 128 24" fill="none" xmlns="http://www.w3.org/2000/svg">
<path d="M8.79793 6.37622C3.64784 6.37622 0 10.1459 0 15.2025C0 20.2309 3.61738 23.97 8.88922 23.97C12.5067 23.97 15.8785 22.2222 17.1351 18.2373H12.598C12.0154 19.5874 10.5437 20.3526 8.85886 20.3526C6.59143 20.3526 4.75223 19.0047 4.47614 16.3068H17.4112C17.839 10.7589 14.3759 6.37622 8.79793 6.37622ZM4.68918 13.0894C5.24137 11.2806 6.62188 9.99148 8.76758 9.99148C10.8828 9.99148 12.261 11.2502 12.7523 13.0894H4.68918Z" fill="white"/>
<path d="M27.3697 19.9243C24.7936 19.9243 23.0152 17.9938 23.0457 15.172C23.0152 12.3828 24.7327 10.4219 27.4002 10.4219C29.1763 10.4219 30.7719 11.3111 31.2915 13.1502H35.7985C35.1551 8.85886 31.5072 6.37622 27.4006 6.37622C22.3114 6.37622 18.6025 10.1763 18.6025 15.172C18.6025 20.1678 22.3113 23.97 27.3701 23.97C31.4158 23.97 35.1246 21.6091 35.7985 17.1655H31.2919C30.7719 19.0047 29.1756 19.9243 27.3697 19.9243Z" fill="white"/>
<path d="M54.6835 23.6027H49.0725L43.5381 17.0891H49.1904L54.6835 23.6027Z" fill="white"/>
<path d="M53.509 6.74361L45.8154 14.7742L42.885 17.6982L41.524 19.0569V23.6026H37.1392V0H41.524V13.7633L47.9307 6.74361H53.509Z" fill="white"/>
<path d="M61.3205 6.37622C56.4791 6.37622 52.5552 10.085 52.5552 15.172C52.5552 20.2308 56.4161 23.97 61.3205 23.97C66.2554 23.97 70.1186 20.2613 70.1186 15.172C70.1186 10.0828 66.1941 6.37622 61.3205 6.37622ZM61.3205 19.8026C58.8683 19.8026 56.9683 17.9612 56.9683 15.172C56.9683 12.4133 58.8683 10.5437 61.3205 10.5437C63.7727 10.5437 65.675 12.4133 65.675 15.172C65.6746 17.9612 63.7723 19.8026 61.3205 19.8026Z" fill="white"/>
<path d="M79.94 2.17425C83.0599 2.17425 85.6649 3.1988 87.7548 5.24783C89.8447 7.29685 90.8895 9.84035 90.8892 12.8784C90.8892 15.9167 89.8444 18.4602 87.7548 20.509C85.6652 22.5577 83.0602 23.5823 79.94 23.5829H71.9575V2.17383L79.94 2.17425ZM79.94 18.6285C81.6322 18.6285 83.0137 18.0933 84.0844 17.0228C85.1552 15.9523 85.6905 14.571 85.6902 12.8788C85.6902 11.166 85.1549 9.77958 84.0844 8.71942C83.014 7.65925 81.6325 7.12899 79.94 7.1287H77.1574V18.629L79.94 18.6285ZM105.734 7.12828H97.9239V10.3092H104.815V15.2639H97.9239V18.627H105.734V23.5836H92.7242V2.17447H105.734V7.12828ZM127.4 23.5836H121.221L117.306 16.9161L113.513 23.5836H107.336L114.187 12.4508L107.672 2.17447H113.851L117.46 8.32178L121.069 2.17447H127.247L120.61 12.8486L127.4 23.5836Z" fill="url(#paint0_linear_55_637-eckoDEX)"/>
<defs>
<linearGradient id="paint0_linear_55_637-eckoDEX" x1="-0.203" y1="-0.134" x2="0.9" y2="0.1" gradientUnits="objectBoundingBox">
<stop stop-color="#FFD300"/>
<stop offset="1" stop-color="#FF00B8"/>
</linearGradient>
</defs>
</svg>
