<svg width="107" height="125" viewBox="0 0 107 125" fill="none" xmlns="http://www.w3.org/2000/svg">
<path d="M65.2329 59.3149L61.563 55.6299L53.463 47.501L61.563 39.3711L65.2329 35.689L68.9039 39.3711L77.004 47.501L68.9039 55.6299L65.2329 59.3149ZM65.2329 70.707V95L30 59.6421L42.1069 47.498L65.2329 70.707ZM30 35.3589V59.6421L42.1069 47.498L65.2329 24.2979V0L30 35.3589Z" fill="url(#linear-gradient-footer-logo)"/>
<path d="M7.34078 110.32C3.04366 110.32 0 113.465 0 117.684C0 121.88 3.01826 125 7.41695 125C10.4353 125 13.2487 123.542 14.2971 120.217H10.5115C10.0253 121.343 8.79739 121.982 7.39162 121.982C5.49973 121.982 3.96514 120.857 3.73478 118.606H14.5275C14.8844 113.977 11.9949 110.32 7.34078 110.32ZM3.91254 115.921C4.37327 114.412 5.52514 113.337 7.31545 113.337C9.08037 113.337 10.2303 114.387 10.6402 115.921H3.91254Z" fill="white"/>
<path d="M22.8366 121.624C20.6871 121.624 19.2033 120.014 19.2287 117.659C19.2033 115.332 20.6364 113.696 22.862 113.696C24.344 113.696 25.6753 114.438 26.1089 115.972H29.8694C29.3325 112.392 26.2888 110.32 22.8624 110.32C18.616 110.32 15.5215 113.491 15.5215 117.659C15.5215 121.827 18.616 125 22.8369 125C26.2126 125 29.3071 123.03 29.8694 119.322H26.1092C25.6753 120.857 24.3434 121.624 22.8366 121.624Z" fill="white"/>
<path d="M45.6266 124.694H40.945L36.3271 119.259H41.0433L45.6266 124.694Z" fill="white"/>
<path d="M44.6469 110.627L38.2276 117.327L35.7824 119.767L34.6469 120.901V124.693H30.9883V105H34.6469V116.484L39.9925 110.627H44.6469Z" fill="white"/>
<path d="M51.1647 110.32C47.1251 110.32 43.8511 113.415 43.8511 117.659C43.8511 121.88 47.0725 125 51.1647 125C55.2822 125 58.5055 121.905 58.5055 117.659C58.5055 113.413 55.2311 110.32 51.1647 110.32ZM51.1647 121.523C49.1186 121.523 47.5332 119.986 47.5332 117.659C47.5332 115.357 49.1186 113.797 51.1647 113.797C53.2107 113.797 54.7979 115.357 54.7979 117.659C54.7976 119.986 53.2104 121.523 51.1647 121.523Z" fill="white"/>
<path d="M66.6999 106.814C69.3031 106.814 71.4766 107.669 73.2204 109.379C74.9642 111.088 75.8359 113.21 75.8357 115.745C75.8357 118.28 74.9639 120.403 73.2204 122.112C71.4769 123.822 69.3034 124.676 66.6999 124.677H60.0396V106.814L66.6999 106.814ZM66.6999 120.543C68.1119 120.543 69.2645 120.096 70.1579 119.203C71.0513 118.31 71.498 117.158 71.4977 115.746C71.4977 114.317 71.0511 113.16 70.1579 112.275C69.2648 111.391 68.1121 110.948 66.6999 110.948H64.3782V120.543L66.6999 120.543ZM88.2221 110.948H81.7052V113.602H87.4553V117.736H81.7052V120.542H88.2221V124.678H77.3668V106.814H88.2221V110.948ZM106.299 124.678H101.144L97.8771 119.114L94.7128 124.678H89.5583L95.2744 115.389L89.8391 106.814H94.9946L98.0056 111.943L101.017 106.814H106.171L100.634 115.72L106.299 124.678Z" fill="url(#linear-gradient-footer-logo-2)"/>
<defs>
<linearGradient id="linear-gradient-footer-logo" x1="0%" y1="0%" x2="100%" y2="100%" gradientTransform="rotate(20)" gradientUnits="objectBoundingBox">
<stop stop-color="#FFD300"/>
<stop offset="1" stop-color="#FF00B8"/>
</linearGradient>
<linearGradient id="linear-gradient-footer-logo-2" x1="-0.203" y1="-0.134" x2="0.9" y2="0.1" gradientUnits="objectBoundingBox">
<stop stop-color="#FFD300"/>
<stop offset="1" stop-color="#FF00B8"/>
</linearGradient>
</defs>
</svg>
