<svg id="Gotop" xmlns="http://www.w3.org/2000/svg" width="40" height="40" viewBox="0 0 40 40">
  <g id="Group_51932" data-name="Group 51932" transform="translate(-944.856 -5243.356)" opacity="0.8">
    <rect id="Rectangle_4928" data-name="Rectangle 4928" width="40" height="40" rx="4" transform="translate(944.856 5243.356)" fill="#fff"/>
    <path id="Icon_awesome-chevron-up" data-name="Icon awesome-chevron-up" d="M974.866,5265.783l11.572,11.732a1.464,1.464,0,0,1,0,2.05l-1.35,1.369a1.417,1.417,0,0,1-2.018,0l-9.212-9.3-9.215,9.3a1.415,1.415,0,0,1-2.018,0l-1.349-1.371a1.465,1.465,0,0,1,0-2.05l11.571-11.732A1.414,1.414,0,0,1,974.866,5265.783Z" transform="translate(-9 -10.002)" fill="#0A0B1D"/>
  </g>
</svg>
