<svg width="150" height="23" viewBox="0 0 150 23" fill="none" xmlns="http://www.w3.org/2000/svg">
<path d="M3.02479 0.154297H0V22.5747H3.02479V0.154297Z" fill="#92A7BA"/>
<path d="M22.945 0.107422H18.8484L8.75244 9.8696H4.83984V13.0062H8.94499L18.8484 22.5811H22.9441L11.5857 11.5947V11.0871L22.945 0.107422Z" fill="#92A7BA"/>
<path d="M62.9015 0.0585938H51.4521V3.18275H62.9015C63.9671 3.1991 65.0191 3.42556 65.9974 3.8493C66.9756 4.27304 67.861 4.88568 68.603 5.6523C69.345 6.41891 69.929 7.32445 70.3217 8.31723C70.7144 9.31001 70.9081 10.3706 70.8918 11.4384C70.8598 13.552 70.0077 15.57 68.5162 17.0648C67.0246 18.5596 65.0108 19.4137 62.9015 19.446H54.4769V6.5683H51.4521V22.5711H62.9015C65.8801 22.4932 68.7058 21.2329 70.7571 19.0675C72.8084 16.902 73.9172 14.0087 73.8398 11.024C73.7652 8.14048 72.5889 5.39559 70.5536 3.35574C68.5182 1.31588 65.7792 0.136632 62.9015 0.0613783V0.0585938Z" fill="#92A7BA"/>
<path d="M88.3811 0.0585938H76.9316V3.18275H88.3811C89.4467 3.1991 90.4987 3.42556 91.4769 3.8493C92.4552 4.27304 93.3406 4.88568 94.0826 5.6523C94.8245 6.41891 95.4085 7.32445 95.8012 8.31723C96.1939 9.31001 96.3877 10.3706 96.3713 11.4384C96.3393 13.552 95.4872 15.57 93.9957 17.0648C92.5041 18.5596 90.4903 19.4137 88.3811 19.446H79.9565V6.5683H76.9316V22.5711H88.3811C91.3596 22.4932 94.1854 21.2329 96.2367 19.0675C98.288 16.902 99.3968 14.0087 99.3193 11.024C99.245 8.1404 98.0687 5.39541 96.0334 3.3555C93.998 1.3156 91.2588 0.136403 88.3811 0.0613783V0.0585938Z" fill="#92A7BA"/>
<path d="M103.226 0.247022H102.529V12.8587H115.05V9.77542H105.601V3.32941H125.095V0.246094H103.225L103.226 0.247022Z" fill="#92A7BA"/>
<path d="M105.601 15.1973H102.527V22.8105H125.102V19.7273H105.602L105.601 15.1973Z" fill="#92A7BA"/>
<path d="M131.011 0.154297H126.869L136.224 11.2453L126.59 22.6679H130.732L138.294 13.7013L145.857 22.6679H149.999L131.011 0.154297Z" fill="#92A7BA"/>
<path d="M149.724 0.154297H145.582L138.93 8.03748L141.001 10.4925L149.724 0.154297Z" fill="#92A7BA"/>
<path d="M45.2661 19.8262H32.6689V22.5825H49.8891" fill="#92A7BA"/>
<path d="M35.4863 0.0466413L38.7681 0L38.7416 0.0532546L49.8884 22.5621L45.2654 19.8057L37.115 3.33798L35.4863 0.0466413Z" fill="#92A7BA"/>
<path d="M38.741 0.0552077L38.7675 0.00195312H35.4629L35.4857 0.0485944L24.3398 22.5574H27.5979L37.1143 3.34191L38.741 0.0552077Z" fill="#92A7BA"/>
</svg>
