<svg xmlns="http://www.w3.org/2000/svg" xmlns:xlink="http://www.w3.org/1999/xlink" viewBox="0 0 92.66 120"><defs><style>.cls-cup-1{fill:#ed1cb5;}.cls-cup-2{fill:url(#linear-gradient-cup);}.cls-cup-3{fill:url(#linear-gradient-cup-2);}.cls-cup-4{fill:url(#linear-gradient-cup-3);}.cls-cup-5{fill:url(#linear-gradient-cup-4);}.cls-cup-6{fill:url(#linear-gradient-cup-5);}.cls-cup-7{fill:url(#linear-gradient-cup-6);}.cls-cup-8{fill:url(#linear-gradient-cup-7);}.cls-cup-9{fill:url(#linear-gradient-cup-8);}.cls-cup-10{fill:url(#linear-gradient-cup-9);}.cls-cup-11{fill:url(#linear-gradient-cup-10);}.cls-cup-12{fill:url(#linear-gradient-cup-11);}.cls-cup-13{fill:url(#linear-gradient-cup-12);}.cls-cup-14{fill:url(#linear-gradient-cup-13);}.cls-cup-15{fill:url(#linear-gradient-cup-14);}.cls-cup-16{fill:url(#linear-gradient-cup-15);}.cls-cup-17{fill:url(#linear-gradient-cup-16);}.cls-cup-18{fill:url(#linear-gradient-cup-17);}.cls-cup-19{fill:url(#linear-gradient-cup-18);}.cls-cup-20{fill:url(#linear-gradient-cup-19);}.cls-cup-21{fill:url(#linear-gradient-cup-20);}</style><linearGradient id="linear-gradient-cup" x1="-854.98" y1="-342.67" x2="-853.98" y2="-342.67" gradientTransform="matrix(91.65, 0, 0, -53.64, 78363.8, -18292.31)" gradientUnits="userSpaceOnUse"><stop offset="0" stop-color="#070610"/><stop offset="1" stop-color="#4c125a"/></linearGradient><linearGradient id="linear-gradient-cup-2" x1="-852.78" y1="-347.74" x2="-851.78" y2="-347.74" gradientTransform="matrix(74.28, 0, 0, -43.47, 63356.8, -15035.36)" xlink:href="#linear-gradient-cup"/><linearGradient id="linear-gradient-cup-3" x1="-845.73" y1="-363.93" x2="-844.73" y2="-363.93" gradientTransform="matrix(46.27, 0, 0, -27.08, 39155.21, -9784.49)" xlink:href="#linear-gradient-cup"/><linearGradient id="linear-gradient-cup-4" x1="-823.66" y1="-377.91" x2="-822.66" y2="-377.91" gradientTransform="matrix(21.21, 0, 0, -20.42, 17494.59, -7636.44)" xlink:href="#linear-gradient-cup"/><linearGradient id="linear-gradient-cup-5" x1="-823.81" y1="-377.8" x2="-822.81" y2="-377.8" gradientTransform="matrix(21.29, 0, 0, -20.46, 17584.84, -7648.97)" xlink:href="#linear-gradient-cup"/><linearGradient id="linear-gradient-cup-6" x1="-760.73" y1="-366.51" x2="-759.73" y2="-366.51" gradientTransform="matrix(8.34, 0, 0, -25.54, 6406.64, -9347.3)" xlink:href="#linear-gradient-cup"/><linearGradient id="linear-gradient-cup-7" x1="-745.71" y1="-550.86" x2="-744.71" y2="-550.86" gradientTransform="matrix(7.28, 0, 0, -5.06, 5492.61, -2782.45)" xlink:href="#linear-gradient-cup"/><linearGradient id="linear-gradient-cup-8" x1="-831.76" y1="-456.17" x2="-830.76" y2="-456.17" gradientTransform="matrix(26.47, 0, 0, -8.6, 22047.47, -3851.08)" xlink:href="#linear-gradient-cup"/><linearGradient id="linear-gradient-cup-9" x1="-832.37" y1="-406.99" x2="-831.37" y2="-406.99" gradientTransform="matrix(26.97, 0, 0, -13.52, 22483.75, -5434.24)" xlink:href="#linear-gradient-cup"/><linearGradient id="linear-gradient-cup-10" x1="-806.73" y1="-526.2" x2="-805.73" y2="-526.2" gradientTransform="matrix(14.99, 0, 0, -5.66, 12128.05, -2912.48)" xlink:href="#linear-gradient-cup"/><linearGradient id="linear-gradient-cup-11" x1="-825.25" y1="-520.69" x2="-826.19" y2="-522.64" gradientTransform="matrix(14.99, 0, 0, -7.26, 12128.91, -3426.89)" xlink:href="#linear-gradient-cup"/><linearGradient id="linear-gradient-cup-12" x1="-793.01" y1="-487.37" x2="-792.01" y2="-487.37" gradientTransform="matrix(12.11, 0, 0, -6.99, 9639.99, -3340.71)" xlink:href="#linear-gradient-cup"/><linearGradient id="linear-gradient-cup-13" x1="-734.8" y1="-445.94" x2="-733.8" y2="-445.94" gradientTransform="matrix(6.67, 0, 0, -9.3, 4942.9, -4091.12)" xlink:href="#linear-gradient-cup"/><linearGradient id="linear-gradient-cup-14" x1="-770.31" y1="-447.57" x2="-769.31" y2="-447.57" gradientTransform="matrix(9.18, 0, 0, -9.18, 7117.37, -4060.82)" xlink:href="#linear-gradient-cup"/><linearGradient id="linear-gradient-cup-15" x1="-843.22" y1="-355.03" x2="-842.22" y2="-355.03" gradientTransform="matrix(40.78, 0, 0, -34.16, 34416.33, -12094.05)" xlink:href="#linear-gradient-cup"/><linearGradient id="linear-gradient-cup-16" x1="-843.99" y1="-400.82" x2="-842.99" y2="-400.82" gradientTransform="matrix(42.33, 0, 0, -14.56, 35747.34, -5817.26)" xlink:href="#linear-gradient-cup"/><linearGradient id="linear-gradient-cup-17" x1="-881.32" y1="-372.5" x2="-882.3" y2="-372.5" gradientTransform="matrix(40.37, 0, 0, -22.57, 34058.39, -8395.67)" gradientUnits="userSpaceOnUse"><stop offset="0" stop-color="#ffbb96"/><stop offset="0.23" stop-color="#fffbc9"/><stop offset="0.54" stop-color="#f9b673"/><stop offset="0.64" stop-color="#f9b876"/><stop offset="0.72" stop-color="#fabe81"/><stop offset="0.81" stop-color="#fcc892"/><stop offset="0.86" stop-color="#fed2a3"/><stop offset="0.97" stop-color="#ffc28c"/></linearGradient><linearGradient id="linear-gradient-cup-18" x1="-843" y1="-372.5" x2="-842" y2="-372.5" gradientTransform="matrix(40.37, 0, 0, -22.57, 34058.39, -8395.67)" xlink:href="#linear-gradient-cup"/><linearGradient id="linear-gradient-cup-19" x1="-784.69" y1="-376.34" x2="-783.69" y2="-376.34" gradientTransform="matrix(10.84, 0, 0, -21.01, 8529.17, -7873.25)" xlink:href="#linear-gradient-cup"/><linearGradient id="linear-gradient-cup-20" x1="-890.51" y1="-443.47" x2="-890.11" y2="-443.7" gradientTransform="matrix(11.64, 0, 0, -6.43, 9226.75, -3182.55)" xlink:href="#linear-gradient-cup"/></defs><g id="Layer_2" data-name="Layer 2"><g id="content"><path id="Path_40278" data-name="Path 40278" class="cls-cup-1" d="M46.35,114.37V120L0,92.79V87.16Z"/><path id="Path_40279" data-name="Path 40279" class="cls-cup-1" d="M46.32,114.37V120L92.66,93v-5.6Z"/><path id="Path_40280" data-name="Path 40280" class="cls-cup-2" d="M.5,87.15,46.38,60.43,92.16,87.38,46.32,114.07Z"/><path id="Path_40281" data-name="Path 40281" class="cls-cup-1" d="M46.38,60.73,91.66,87.38l-45.34,26.4L1,87.16,46.38,60.73m0-.59L0,87.15l46.32,27.22,46.34-27L46.38,60.14Z"/><path id="Path_40282" data-name="Path 40282" class="cls-cup-1" d="M46.34,103.28V109L8.69,86.9V81.17Z"/><path id="Path_40283" data-name="Path 40283" class="cls-cup-1" d="M46.32,103.28V109L84,87.07V81.36Z"/><path id="Path_40284" data-name="Path 40284" class="cls-cup-3" d="M9.19,81.17,46.37,59.52l37.1,21.84L46.32,103Z"/><path id="Path_40285" data-name="Path 40285" class="cls-cup-1" d="M46.37,59.81,83,81.36,46.33,102.7,9.69,81.17,46.37,59.81m0-.59-37.68,22,37.64,22.11L84,81.36,46.37,59.23Z"/><path id="Path_40286" data-name="Path 40286" class="cls-cup-1" d="M46.34,83.48V95L22.7,81.1V69.59Z"/><path id="Path_40287" data-name="Path 40287" class="cls-cup-1" d="M46.33,83.48V95L70,81.21V69.71Z"/><path id="Path_40288" data-name="Path 40288" class="cls-cup-4" d="M23.19,69.6,46.36,56.11l23.1,13.6L46.33,83.19Z"/><path id="Path_40289" data-name="Path 40289" class="cls-cup-1" d="M46.36,56.4,69,69.71,46.33,82.89,23.69,69.59l22.67-13.2m0-.58L22.69,69.59,46.32,83.47,70,69.71l-23.6-13.9Z"/><path id="Path_40290" data-name="Path 40290" class="cls-cup-5" d="M23.85,80.26V72.2L45.06,84.57v8.06Z"/><g id="Group_55191" data-name="Group 55191"><path id="Path_40291" data-name="Path 40291" class="cls-cup-1" d="M24.1,72.64,44.8,84.72v7.47L24.1,80.12V72.64m-.5-.88v8.65L45.32,93.07V84.43L23.6,71.76Z"/></g><path id="Path_40292" data-name="Path 40292" class="cls-cup-6" d="M47.53,84.57l21.29-12.4v8L47.53,92.63Z"/><path id="Path_40293" data-name="Path 40293" class="cls-cup-1" d="M68.57,72.62v7.46L47.79,92.19V84.72l20.78-12.1m.51-.88L47.28,84.43v8.64l21.8-12.7Z"/><ellipse id="Ellipse_799" data-name="Ellipse 799" class="cls-cup-1" cx="45.27" cy="69.25" rx="16.41" ry="8.05"/><path id="Path_40294" data-name="Path 40294" class="cls-cup-7" d="M65,23.23c3.24-6.07,8.27-16.81,5.94-20.92a3.45,3.45,0,0,0-.2-.32,3.45,3.45,0,0,1,2,1.84c2.75,4.83-5.66,20-7.76,23.7Z"/><path id="Path_40295" data-name="Path 40295" class="cls-cup-1" d="M71.32,2.51A4.09,4.09,0,0,1,72.56,4c1.24,2.18.22,7-2.92,14-1.58,3.51-3.33,6.75-4.37,8.6l0-3.3C69.1,16,73.2,6.68,71.32,2.51m-1.13-.85a6.61,6.61,0,0,1,.52.78c2.29,4-2.82,14.81-6,20.73l0,5.29S76.22,9.37,73,3.7C72.15,2.21,71.18,1.67,70.19,1.66Z"/><path id="Path_40296" data-name="Path 40296" class="cls-cup-1" d="M66.6,23.2c3.66-7,7.2-15.69,5.57-18.57-.75-1.31-1.36-1.31-1.57-1.31-1.25,0-3.06,1.82-4.11,3.3l-1.43,2,0-2.45s5.16-7.93,8.38-2.26-8.23,24.76-8.23,24.76l0-2.93Z"/><path id="Path_40297" data-name="Path 40297" class="cls-cup-8" d="M63.11,4.74c.6-.86,3-4,5.19-4a2.3,2.3,0,0,1,1.22.35l.87.5C67.92,1.81,65.56,5,65,5.83Z"/><path id="Path_40298" data-name="Path 40298" class="cls-cup-1" d="M68.3,1h0a2,2,0,0,1,1.1.32l.27.16c-2.15.6-4.07,3-4.77,4l-1.43-.84c1-1.31,3-3.63,4.83-3.63m0-.51c-2.76,0-5.55,4.3-5.55,4.3l2.3,1.35s2.8-4.29,5.55-4.29A2.56,2.56,0,0,1,72,2.29h0L69.65.92A2.47,2.47,0,0,0,68.3.53Z"/><path id="Path_40301" data-name="Path 40301" class="cls-cup-9" d="M46.62,76.27c-7.3,0-13.23-3.41-13.23-7.6v-1H59.85v.63h0v.36C59.85,72.85,53.92,76.27,46.62,76.27Z"/><path id="Path_40302" data-name="Path 40302" class="cls-cup-1" d="M59.6,67.93v.12h0l0,.52v.08h0c0,4.06-5.83,7.35-13,7.35s-13-3.3-13-7.38v0h0v-.52h0v-.12h26m.51-.51h-27v1.14h0s0,.07,0,.11c0,4.33,6,7.85,13.49,7.85S60.11,73,60.11,68.67a.37.37,0,0,0,0-.11h0Z"/><ellipse id="Ellipse_800" data-name="Ellipse 800" class="cls-cup-10" cx="46.62" cy="67.48" rx="13.49" ry="6.76"/><path id="Path_40303" data-name="Path 40303" class="cls-cup-1" d="M46.62,74.07c7.26,0,13.17-3,13.47-6.64a2.83,2.83,0,0,1,0,.29c0,3.73-6,6.76-13.49,6.76s-13.49-3-13.49-6.76a2.83,2.83,0,0,1,0-.29C33.45,71,39.36,74.07,46.62,74.07Z"/><path id="Path_40304" data-name="Path 40304" class="cls-cup-11" d="M46.62,71.25c-4.13,0-7.49-1.91-7.49-4.25V65.59h15v1.09h0v.26C54.11,69.34,50.75,71.25,46.62,71.25Z"/><path id="Path_40305" data-name="Path 40305" class="cls-cup-1" d="M53.86,65.84v.64h0l0,.51c0,2.18-3.32,4-7.24,4s-7.24-1.83-7.24-4v0h0v-.52h0v-.59H53.86m.51-.5H38.87v1.6h0V67c0,2.49,3.47,4.51,7.75,4.51s7.74-2,7.74-4.51v-.06h0Z"/><ellipse id="Ellipse_801" data-name="Ellipse 801" class="cls-cup-12" cx="46.62" cy="65.37" rx="7.49" ry="3.63"/><path id="Path_40306" data-name="Path 40306" class="cls-cup-1" d="M46.62,62c3.92,0,7.24,1.55,7.24,3.38s-3.32,3.37-7.24,3.37-7.24-1.54-7.24-3.37S42.69,62,46.62,62m0-.51c-4.28,0-7.75,1.74-7.75,3.89s3.47,3.88,7.75,3.88,7.75-1.74,7.75-3.88-3.47-3.88-7.75-3.88Z"/><path id="Path_40307" data-name="Path 40307" class="cls-cup-1" d="M46.62,69.05c4.14,0,7.51-1.63,7.72-3.68a1.23,1.23,0,0,1,0,.2c0,2.14-3.46,3.88-7.74,3.88s-7.75-1.74-7.75-3.88c0-.07,0-.14,0-.2C39.11,67.42,42.48,69.05,46.62,69.05Z"/><path id="Path_40308" data-name="Path 40308" class="cls-cup-13" d="M46.62,68.05c-3.28,0-6-1.33-6-2.91a25.12,25.12,0,0,1,2.59-4.08h6.92a25.12,25.12,0,0,1,2.59,4.08C52.67,66.72,49.9,68.05,46.62,68.05Z"/><path id="Path_40309" data-name="Path 40309" class="cls-cup-1" d="M49.94,61.31a29.74,29.74,0,0,1,2.47,3.83c0,1.26-2.38,2.65-5.8,2.65s-5.8-1.4-5.8-2.61a28.56,28.56,0,0,1,2.48-3.87h6.65m.26-.5H43s-2.72,3.76-2.72,4.34c0,1.74,2.83,3.16,6.3,3.16s6.31-1.42,6.31-3.16C52.92,64.57,50.2,60.81,50.2,60.81Z"/><ellipse id="Ellipse_802" data-name="Ellipse 802" class="cls-cup-1" cx="46.62" cy="61.23" rx="3.59" ry="1.8"/><path id="Path_40310" data-name="Path 40310" class="cls-cup-14" d="M46.62,62.56c-1.81,0-3.34-.85-3.34-1.84V53.25H50v7.44C50,61.71,48.43,62.56,46.62,62.56Z"/><path id="Path_40311" data-name="Path 40311" class="cls-cup-1" d="M49.7,53.5v7.22c0,.75-1.27,1.58-3.08,1.58s-3.08-.83-3.08-1.6v-.51h0V53.5h6.17m.5-.5H43v7.7h0v0c0,1.15,1.61,2.08,3.59,2.08s3.59-.93,3.59-2.08v0h0V53Z"/><path id="Path_40312" data-name="Path 40312" class="cls-cup-1" d="M43,53c0,1,1.61,1.8,3.59,1.8s3.59-.8,3.59-1.8-1.61-1.8-3.59-1.8S43,52,43,53Z"/><path id="Path_40313" data-name="Path 40313" class="cls-cup-15" d="M46.62,54.28a4.6,4.6,0,1,1,4.59-4.59A4.6,4.6,0,0,1,46.62,54.28Z"/><path id="Path_40314" data-name="Path 40314" class="cls-cup-1" d="M46.62,45.35a4.34,4.34,0,1,1-4.34,4.34,4.34,4.34,0,0,1,4.34-4.34m0-.51a4.85,4.85,0,1,0,4.85,4.85,4.85,4.85,0,0,0-4.85-4.85Z"/><path id="Path_40315" data-name="Path 40315" class="cls-cup-16" d="M46.58,50.49c-8.06,0-17.49-10-20.39-32.26v-1.9H67c0,.78,0,1.81,0,1.91C63.11,46.3,52.54,50.49,46.58,50.49Z"/><path id="Path_40316" data-name="Path 40316" class="cls-cup-1" d="M66.72,16.59c0,.71,0,1.53,0,1.61-3.83,27.88-14.26,32-20.14,32-7.95,0-17.26-9.91-20.13-32V16.59H66.72m.5-.51H25.94s0,2.1,0,2.19C29,41.68,39,50.75,46.58,50.75s17.08-6.58,20.64-32.48c0-.08,0-2.18,0-2.18Z"/><path id="Path_40317" data-name="Path 40317" class="cls-cup-17" d="M46.58,27.2C34.92,27.2,25.43,21.72,25.43,15V12.64H67.74v1.92h0V15C67.74,21.72,58.25,27.2,46.58,27.2Z"/><path id="Path_40318" data-name="Path 40318" class="cls-cup-1" d="M67.49,12.89v1.42h0V15c0,6.6-9.38,12-20.9,12s-20.9-5.37-20.9-12v-.67h0V12.89H67.48m.5-.51H25.17v2.43h0c0,.06,0,.12,0,.17,0,6.89,9.59,12.47,21.41,12.47S68,21.87,68,15v-.17h0V12.38Z"/><ellipse id="Ellipse_803" data-name="Ellipse 803" class="cls-cup-1" cx="46.58" cy="12.47" rx="21.41" ry="12.47"/><ellipse id="Ellipse_804" data-name="Ellipse 804" class="cls-cup-18" cx="46.58" cy="12.37" rx="20.18" ry="11.29"/><ellipse id="Ellipse_805" data-name="Ellipse 805" class="cls-cup-19" cx="46.58" cy="12.37" rx="20.18" ry="11.29"/><path id="Path_40319" data-name="Path 40319" class="cls-cup-20" d="M28.5,42.29C19.42,37.52,21.69,29.42,22.63,27c1.66-4.3,6.73-5.55,7.45-5.71l2.44,1.32c-1.6.44-5.67,1.9-7.19,5.82C24.48,30.63,22.57,37.36,28.5,42.29Z"/><path id="Path_40320" data-name="Path 40320" class="cls-cup-1" d="M30,21.55l1.83,1c-1.89.61-5.37,2.2-6.77,5.8-.78,2-2.44,7.78,1.65,12.58a10.94,10.94,0,0,1-4.41-5.87,12.52,12.52,0,0,1,.52-8c1.56-4,6.23-5.31,7.18-5.53m.08-.54s-5.87,1.09-7.73,5.89-1.86,12,6.89,16.05l3,1.42c-8.59-4-8.59-11.12-6.76-15.85s7.65-5.82,7.65-5.82Z"/><path id="Path_40321" data-name="Path 40321" class="cls-cup-1" d="M25.57,28.52c1.84-4.74,7.65-5.81,7.65-5.81l-.13,1.56c-1.25.46-4.94,1.59-6.17,4.78-2.42,6.23-.06,11.19,6.08,14,4.44,2.07,6.74,3.5,7.92,4L41.58,49s-.54-.6-9.19-4.62S23.73,33.27,25.57,28.52Z"/><path id="Path_40322" data-name="Path 40322" class="cls-cup-21" d="M29.28,40.7a3.28,3.28,0,0,0,.31.2A59.74,59.74,0,0,0,36.09,44l4.83,3.1c-1.18-.55-3.48-2-7.92-4A14.86,14.86,0,0,1,29.28,40.7Z"/><path id="Path_40323" data-name="Path 40323" class="cls-cup-1" d="M29.28,40.7A14.58,14.58,0,0,0,33,43.09c4.44,2.07,6.74,3.5,7.92,4L36.09,44a61.65,61.65,0,0,1-6.5-3.13c-.11-.07-.2-.14-.31-.2Z"/><path id="Path_40324" data-name="Path 40324" class="cls-cup-1" d="M25.21,28.53c1.84-4.74,7.65-5.82,7.65-5.82l.15.18c-1.25.42-5.72,1.71-7.26,5.7C24,33.17,24,40,31.73,44.05,23.58,40,23.41,33.18,25.21,28.53Z"/></g></g></svg>