<svg xmlns="http://www.w3.org/2000/svg" xmlns:xlink="http://www.w3.org/1999/xlink" viewBox="0 0 98.72 120"><defs><style>.cls-decentralized-1{fill:none;}.cls-decentralized-2{fill:url(#linear-gradient-decentralized);}.cls-decentralized-3{fill:url(#linear-gradient-decentralized-2);}.cls-decentralized-4{fill:url(#linear-gradient-decentralized-3);}.cls-decentralized-5{fill:url(#linear-gradient-decentralized-4);}.cls-decentralized-6{isolation:isolate;}.cls-decentralized-7{clip-path-decentralized:url(#clip-path-decentralized);}.cls-decentralized-8{fill:#a8a8a8;}.cls-decentralized-9{fill:#a3a3a3;}.cls-decentralized-10{fill:#9e9e9e;}.cls-decentralized-11{clip-path-decentralized:url(#clip-path-decentralized-2);}.cls-decentralized-12{fill:url(#linear-gradient-decentralized-7);}.cls-decentralized-13{fill:url(#linear-gradient-decentralized-8);}.cls-decentralized-14{fill:url(#linear-gradient-decentralized-9);}.cls-decentralized-15{fill:url(#linear-gradient-decentralized-10);}.cls-decentralized-16{fill:url(#linear-gradient-decentralized-11);}.cls-decentralized-17{fill:url(#linear-gradient-decentralized-12);}.cls-decentralized-18{clip-path-decentralized:url(#clip-path-decentralized-3);}.cls-decentralized-19{fill:url(#linear-gradient-decentralized-15);}.cls-decentralized-20{fill:url(#linear-gradient-decentralized-16);}.cls-decentralized-21{fill:url(#linear-gradient-decentralized-17);}.cls-decentralized-22{fill:url(#linear-gradient-decentralized-18);}.cls-decentralized-23{fill:url(#linear-gradient-decentralized-19);}.cls-decentralized-24{fill:url(#linear-gradient-decentralized-20);}.cls-decentralized-25{fill:url(#linear-gradient-decentralized-21);}.cls-decentralized-26{fill:url(#linear-gradient-decentralized-22);}.cls-decentralized-27{fill:url(#linear-gradient-decentralized-23);}.cls-decentralized-28{fill:url(#linear-gradient-decentralized-24);}.cls-decentralized-29{fill:url(#linear-gradient-decentralized-25);}.cls-decentralized-30{fill:url(#linear-gradient-decentralized-26);}.cls-decentralized-31{fill:url(#linear-gradient-decentralized-27);}.cls-decentralized-32{fill:url(#linear-gradient-decentralized-28);}.cls-decentralized-33{fill:url(#linear-gradient-decentralized-29);}.cls-decentralized-34{fill:url(#linear-gradient-decentralized-30);}.cls-decentralized-35{fill:url(#linear-gradient-decentralized-31);}.cls-decentralized-36{fill:url(#linear-gradient-decentralized-32);}.cls-decentralized-37{fill:url(#linear-gradient-decentralized-33);}.cls-decentralized-38{fill:url(#linear-gradient-decentralized-34);}.cls-decentralized-39{fill:url(#linear-gradient-decentralized-35);}.cls-decentralized-40{fill:url(#linear-gradient-decentralized-36);}.cls-decentralized-41{fill:url(#linear-gradient-decentralized-37);}.cls-decentralized-42{clip-path-decentralized:url(#clip-path-decentralized-4);}.cls-decentralized-43{fill:url(#linear-gradient-decentralized-39);}.cls-decentralized-44{fill:url(#linear-gradient-decentralized-40);}.cls-decentralized-45{fill:url(#linear-gradient-decentralized-41);}.cls-decentralized-46{fill:url(#linear-gradient-decentralized-42);}.cls-decentralized-47{fill:url(#linear-gradient-decentralized-43);}.cls-decentralized-48{fill:url(#linear-gradient-decentralized-44);}.cls-decentralized-49{fill:url(#linear-gradient-decentralized-45);}.cls-decentralized-50{fill:url(#linear-gradient-decentralized-46);}.cls-decentralized-51{fill:url(#linear-gradient-decentralized-47);}.cls-decentralized-52{fill:url(#linear-gradient-decentralized-48);}.cls-decentralized-53{fill:url(#linear-gradient-decentralized-49);}.cls-decentralized-54{fill:url(#linear-gradient-decentralized-50);}.cls-decentralized-55{clip-path-decentralized:url(#clip-path-decentralized-5);}.cls-decentralized-56{fill:url(#linear-gradient-decentralized-53);}.cls-decentralized-57{fill:url(#linear-gradient-decentralized-54);}.cls-decentralized-58{fill:url(#linear-gradient-decentralized-55);}.cls-decentralized-59{fill:url(#linear-gradient-decentralized-56);}.cls-decentralized-60{fill:url(#linear-gradient-decentralized-57);}.cls-decentralized-61{fill:url(#linear-gradient-decentralized-58);}.cls-decentralized-62{fill:#ed1cb5;}</style><linearGradient id="linear-gradient-decentralized" x1="68.28" y1="87.38" x2="75.07" y2="87.38" gradientUnits="userSpaceOnUse"><stop offset="0" stop-color="#070610"/><stop offset="1" stop-color="#4c125a"/></linearGradient><linearGradient id="linear-gradient-decentralized-2" x1="84.9" y1="22.24" x2="91.35" y2="22.24" xlink:href="#linear-gradient-decentralized"/><linearGradient id="linear-gradient-decentralized-3" x1="47.59" y1="17.79" x2="55.22" y2="17.79" xlink:href="#linear-gradient-decentralized"/><linearGradient id="linear-gradient-decentralized-4" x1="15.48" y1="64.86" x2="22.42" y2="64.86" xlink:href="#linear-gradient-decentralized"/><clipPath id="clip-path-decentralized"><path class="cls-decentralized-1" d="M75.48,76.08l5.7,3.31a2.35,2.35,0,0,0-.43-.19l-5.7-3.31A2.08,2.08,0,0,1,75.48,76.08Z"/></clipPath><clipPath id="clip-path-decentralized-2"><path class="cls-decentralized-2" d="M75.07,89.79l-5.7-3.31A2.5,2.5,0,0,1,68.28,85L74,88.28A2.47,2.47,0,0,0,75.07,89.79Z"/></clipPath><linearGradient id="linear-gradient-decentralized-7" x1="71.5" y1="78.22" x2="78.62" y2="78.22" xlink:href="#linear-gradient-decentralized"/><linearGradient id="linear-gradient-decentralized-8" x1="68.28" y1="82.54" x2="75.16" y2="82.54" xlink:href="#linear-gradient-decentralized"/><linearGradient id="linear-gradient-decentralized-9" x1="64.83" y1="78.35" x2="75.16" y2="78.35" xlink:href="#linear-gradient-decentralized"/><linearGradient id="linear-gradient-decentralized-10" x1="62.7" y1="66.83" x2="72.2" y2="66.83" xlink:href="#linear-gradient-decentralized"/><linearGradient id="linear-gradient-decentralized-11" x1="59.13" y1="74.38" x2="66.08" y2="74.38" xlink:href="#linear-gradient-decentralized"/><linearGradient id="linear-gradient-decentralized-12" x1="72.93" y1="50.32" x2="92.03" y2="50.32" xlink:href="#linear-gradient-decentralized"/><clipPath id="clip-path-decentralized-3"><path class="cls-decentralized-3" d="M91.35,24.27,85.66,21a2.15,2.15,0,0,1-.76-.74l5.69,3.31A2.15,2.15,0,0,0,91.35,24.27Z"/></clipPath><linearGradient id="linear-gradient-decentralized-15" x1="84.41" y1="18.81" x2="90.37" y2="18.81" xlink:href="#linear-gradient-decentralized"/><linearGradient id="linear-gradient-decentralized-16" x1="86" y1="13.53" x2="97.48" y2="13.53" xlink:href="#linear-gradient-decentralized"/><linearGradient id="linear-gradient-decentralized-17" x1="77.5" y1="22.43" x2="90.11" y2="22.43" xlink:href="#linear-gradient-decentralized"/><linearGradient id="linear-gradient-decentralized-18" x1="24.73" y1="96.57" x2="73.98" y2="96.57" xlink:href="#linear-gradient-decentralized"/><linearGradient id="linear-gradient-decentralized-19" x1="55.47" y1="62.25" x2="65.95" y2="62.25" xlink:href="#linear-gradient-decentralized"/><linearGradient id="linear-gradient-decentralized-20" x1="48.49" y1="67.14" x2="65.95" y2="67.14" xlink:href="#linear-gradient-decentralized"/><linearGradient id="linear-gradient-decentralized-21" x1="69.43" y1="27.84" x2="82.45" y2="27.84" xlink:href="#linear-gradient-decentralized"/><linearGradient id="linear-gradient-decentralized-22" x1="56.67" y1="42.75" x2="74.28" y2="42.75" xlink:href="#linear-gradient-decentralized"/><linearGradient id="linear-gradient-decentralized-23" x1="46.57" y1="59.32" x2="60.41" y2="59.32" xlink:href="#linear-gradient-decentralized"/><linearGradient id="linear-gradient-decentralized-24" x1="20.37" y1="107.75" x2="27.57" y2="107.75" xlink:href="#linear-gradient-decentralized"/><linearGradient id="linear-gradient-decentralized-25" x1="21.87" y1="101.86" x2="32.32" y2="101.86" xlink:href="#linear-gradient-decentralized"/><linearGradient id="linear-gradient-decentralized-26" x1="32.96" y1="76.12" x2="50.37" y2="76.12" xlink:href="#linear-gradient-decentralized"/><linearGradient id="linear-gradient-decentralized-27" x1="16.28" y1="114.1" x2="23.89" y2="114.1" xlink:href="#linear-gradient-decentralized"/><linearGradient id="linear-gradient-decentralized-28" x1="25.52" y1="91.12" x2="36.21" y2="91.12" xlink:href="#linear-gradient-decentralized"/><linearGradient id="linear-gradient-decentralized-29" x1="51.59" y1="49.14" x2="60.41" y2="49.14" xlink:href="#linear-gradient-decentralized"/><linearGradient id="linear-gradient-decentralized-30" x1="53.21" y1="36.24" x2="75.13" y2="36.24" xlink:href="#linear-gradient-decentralized"/><linearGradient id="linear-gradient-decentralized-31" x1="38.4" y1="64.03" x2="52.27" y2="64.03" xlink:href="#linear-gradient-decentralized"/><linearGradient id="linear-gradient-decentralized-32" x1="30.52" y1="75.8" x2="41.39" y2="75.8" xlink:href="#linear-gradient-decentralized"/><linearGradient id="linear-gradient-decentralized-33" x1="42.21" y1="44.91" x2="56.51" y2="44.91" xlink:href="#linear-gradient-decentralized"/><linearGradient id="linear-gradient-decentralized-34" x1="36.42" y1="57.25" x2="44.76" y2="57.25" xlink:href="#linear-gradient-decentralized"/><linearGradient id="linear-gradient-decentralized-35" x1="46.47" y1="35.79" x2="56.51" y2="35.79" xlink:href="#linear-gradient-decentralized"/><linearGradient id="linear-gradient-decentralized-36" x1="39.8" y1="38.72" x2="50.22" y2="38.72" xlink:href="#linear-gradient-decentralized"/><linearGradient id="linear-gradient-decentralized-37" x1="24.46" y1="61.34" x2="42.12" y2="61.34" xlink:href="#linear-gradient-decentralized"/><clipPath id="clip-path-decentralized-4"><path class="cls-decentralized-4" d="M49.52,16.28l5.7,3.31a2.47,2.47,0,0,0-1.93-.18l-5.7-3.31A2.46,2.46,0,0,1,49.52,16.28Z"/></clipPath><linearGradient id="linear-gradient-decentralized-39" x1="47.59" y1="17.71" x2="53.64" y2="17.71" xlink:href="#linear-gradient-decentralized"/><linearGradient id="linear-gradient-decentralized-40" x1="47.94" y1="17.66" x2="53.96" y2="17.66" xlink:href="#linear-gradient-decentralized"/><linearGradient id="linear-gradient-decentralized-41" x1="48.27" y1="17.64" x2="54.25" y2="17.64" xlink:href="#linear-gradient-decentralized"/><linearGradient id="linear-gradient-decentralized-42" x1="48.55" y1="17.66" x2="54.51" y2="17.66" xlink:href="#linear-gradient-decentralized"/><linearGradient id="linear-gradient-decentralized-43" x1="48.81" y1="17.71" x2="54.75" y2="17.71" xlink:href="#linear-gradient-decentralized"/><linearGradient id="linear-gradient-decentralized-44" x1="49.05" y1="17.77" x2="54.98" y2="17.77" xlink:href="#linear-gradient-decentralized"/><linearGradient id="linear-gradient-decentralized-45" x1="49.28" y1="17.87" x2="55.19" y2="17.87" xlink:href="#linear-gradient-decentralized"/><linearGradient id="linear-gradient-decentralized-46" x1="49.5" y1="17.93" x2="55.22" y2="17.93" xlink:href="#linear-gradient-decentralized"/><linearGradient id="linear-gradient-decentralized-47" x1="24.03" y1="53.24" x2="45.5" y2="53.24" xlink:href="#linear-gradient-decentralized"/><linearGradient id="linear-gradient-decentralized-48" x1="42.15" y1="23.69" x2="51" y2="23.69" xlink:href="#linear-gradient-decentralized"/><linearGradient id="linear-gradient-decentralized-49" x1="50.45" y1="10.83" x2="91.7" y2="10.83" xlink:href="#linear-gradient-decentralized"/><linearGradient id="linear-gradient-decentralized-50" x1="45.28" y1="15.8" x2="51" y2="15.8" xlink:href="#linear-gradient-decentralized"/><clipPath id="clip-path-decentralized-5"><path class="cls-decentralized-5" d="M22.42,67.72l-5.69-3.31A2.85,2.85,0,0,1,15.48,62l5.7,3.31A2.86,2.86,0,0,0,22.42,67.72Z"/></clipPath><linearGradient id="linear-gradient-decentralized-53" x1="15.95" y1="58.1" x2="28.52" y2="58.1" xlink:href="#linear-gradient-decentralized"/><linearGradient id="linear-gradient-decentralized-54" x1="42.1" y1="6.41" x2="55.17" y2="6.41" xlink:href="#linear-gradient-decentralized"/><linearGradient id="linear-gradient-decentralized-55" x1="4.52" y1="90.52" x2="23.89" y2="90.52" xlink:href="#linear-gradient-decentralized"/><linearGradient id="linear-gradient-decentralized-56" x1="8.6" y1="62.08" x2="21.64" y2="62.08" xlink:href="#linear-gradient-decentralized"/><linearGradient id="linear-gradient-decentralized-57" x1="6.99" y1="35.97" x2="48.08" y2="35.97" xlink:href="#linear-gradient-decentralized"/><linearGradient id="linear-gradient-decentralized-58" x1="0" y1="65.99" x2="12.68" y2="65.99" xlink:href="#linear-gradient-decentralized"/></defs><g id="Layer_2" data-name="Layer 2"><g id="Layer_1-2" data-name="Layer 1"><g class="cls-decentralized-6"><g class="cls-decentralized-7"><path class="cls-decentralized-8" d="M80.75,79.2l-5.7-3.31.19.07,5.7,3.31-.19-.07"/><path class="cls-decentralized-9" d="M80.94,79.27,75.24,76l.22.1,5.69,3.31-.21-.1"/><path class="cls-decentralized-10" d="M81.15,79.37l-5.69-3.31,0,0,5.7,3.31,0,0"/></g></g><path class="cls-decentralized-2" d="M75.07,89.79l-5.7-3.31A2.5,2.5,0,0,1,68.28,85L74,88.28A2.47,2.47,0,0,0,75.07,89.79Z"/><g class="cls-decentralized-11"><path class="cls-decentralized-2" d="M75.07,89.79l-5.7-3.31A2.5,2.5,0,0,1,68.28,85L74,88.28a2.47,2.47,0,0,0,1.09,1.51"/></g><path class="cls-decentralized-12" d="M72.93,76.11a4.63,4.63,0,0,0-.54.28,5.78,5.78,0,0,0-.89.63l5.69,3.31a5.86,5.86,0,0,1,.9-.63,5.48,5.48,0,0,1,.53-.28Z"/><path class="cls-decentralized-13" d="M74.2,84.85a5.47,5.47,0,0,1,.23-.64l0-.1a5.89,5.89,0,0,1,.29-.63.36.36,0,0,1,0-.09c.11-.22.23-.45.36-.66l-5.69-3.31-.09.14-.19.35-.09.17,0,.09a.47.47,0,0,0,0,.1c-.06.12-.12.25-.17.37a1.11,1.11,0,0,0-.07.16l0,.1,0,.12c-.05.14-.1.27-.14.41a.76.76,0,0,0,0,.11s0,.09,0,.13l-.06.2-.12.47h0L74,85.66c0-.23.11-.45.18-.68A.93.93,0,0,1,74.2,84.85Z"/><polygon class="cls-decentralized-14" points="75.17 82.73 69.47 79.42 64.83 73.98 70.52 77.29 75.17 82.73"/><path class="cls-decentralized-15" d="M69.83,68.2l.3-.1.2-.06.17,0,.24,0h.47l.32,0,.07,0,.24.07.07,0a1.55,1.55,0,0,1,.29.14l-5.7-3.31,0,0-.22-.1,0,0-.07,0-.12,0a.53.53,0,0,0-.12,0l-.08,0h0l-.26,0h-.08a1.47,1.47,0,0,0-.21,0h-.32l-.11,0-.18,0-.09,0-.1,0-.31.1-.11,0L64,65a5.56,5.56,0,0,0-.55.27,5.3,5.3,0,0,0-.71.49L68.39,69a5.39,5.39,0,0,1,.72-.49,5.56,5.56,0,0,1,.55-.27Z"/><path class="cls-decentralized-16" d="M64.83,75.93h0a5.78,5.78,0,0,1,0-.71c0-.1,0-.21,0-.31s0-.19,0-.29.07-.32.12-.48a.31.31,0,0,1,0-.08c0-.2.12-.41.19-.62l-5.7-3.31a.88.88,0,0,1-.05.15c0,.16-.09.31-.14.46h0s0,.06,0,.08-.07.27-.1.41,0,.05,0,.07a2.93,2.93,0,0,0-.05.29c0,.08,0,.16,0,.24a.17.17,0,0,0,0,.07,5.78,5.78,0,0,0,0,.71,3.4,3.4,0,0,0,.74,2.28,1.92,1.92,0,0,0,.52.42l5.69,3.31A3,3,0,0,1,64.83,75.93Z"/><polygon class="cls-decentralized-17" points="78.62 79.42 72.93 76.11 86.34 21.21 92.03 24.52 78.62 79.42"/><path class="cls-decentralized-3" d="M91.35,24.27,85.66,21a2.15,2.15,0,0,1-.76-.74l5.69,3.31A2.15,2.15,0,0,0,91.35,24.27Z"/><g class="cls-decentralized-18"><path class="cls-decentralized-3" d="M91.35,24.27,85.66,21a2.15,2.15,0,0,1-.76-.74l5.69,3.31a2.15,2.15,0,0,0,.76.74"/></g><path class="cls-decentralized-19" d="M90.22,20.35a5.8,5.8,0,0,1,.15-.67l-5.7-3.31c0,.15-.08.31-.11.46a1.55,1.55,0,0,0,0,.21l0,.22a.8.8,0,0,0,0,.15c0,.18,0,.35,0,.53l5.7,3.31c0-.23,0-.46.07-.68A1.43,1.43,0,0,1,90.22,20.35Z"/><path class="cls-decentralized-20" d="M92.93,15.29a5,5,0,0,1,.43-.37,3.45,3.45,0,0,1,.28-.26,7.52,7.52,0,0,1,.75-.5,3.49,3.49,0,0,1,.55-.27l.17-.07.3-.11.19-.05.18,0,.23,0,.13,0h.34a1.65,1.65,0,0,1,.32,0l.08,0,.24.06.07,0,.29.13-5.7-3.31h0l-.22-.11h0l-.08,0-.11,0-.12,0-.08,0h0a1.15,1.15,0,0,0-.26,0h-.36l-.13,0H90.2l-.11,0-.18,0-.1,0-.09,0-.31.11-.11,0-.06,0a4,4,0,0,0-.55.27,8.73,8.73,0,0,0-.74.5c-.12.09-.23.2-.34.3s-.25.21-.37.33h0c-.16.16-.32.33-.47.5a1.83,1.83,0,0,0-.13.16l-.1.11-.12.15-.28.39a2.43,2.43,0,0,0-.14.2h0l5.7,3.31a8.11,8.11,0,0,1,.54-.73l.09-.12C92.53,15.72,92.73,15.49,92.93,15.29Z"/><polygon class="cls-decentralized-21" points="83.2 26.92 77.5 23.61 84.41 17.94 90.11 21.25 83.2 26.92"/><polygon class="cls-decentralized-22" points="30.42 110.8 24.73 107.49 68.28 82.34 73.98 85.66 30.42 110.8"/><polygon class="cls-decentralized-23" points="65.95 70.37 60.25 67.06 55.47 54.13 61.16 57.44 65.95 70.37"/><polygon class="cls-decentralized-24" points="54.19 67.22 48.49 63.91 60.25 67.06 65.95 70.37 54.19 67.22"/><path class="cls-decentralized-25" d="M75.62,31.18v0c.12-.3.26-.61.41-.91l0-.07c.15-.29.32-.59.5-.87h0a8.13,8.13,0,0,1,.59-.82l.06-.08a8.39,8.39,0,0,1,.56-.63l.11-.12c.15-.15.32-.29.48-.43L78.6,27a7.43,7.43,0,0,1,.77-.52,4,4,0,0,1,.55-.27l.17-.07.3-.11.19-.05.18,0,.23,0,.13,0h.34a1.65,1.65,0,0,1,.32,0l.07,0a2.1,2.1,0,0,1,.24.06l.07,0,.29.13-5.7-3.31h0l-.22-.1,0,0-.07,0-.12,0-.12,0-.08,0h0a1.09,1.09,0,0,0-.26,0H75.7a1.34,1.34,0,0,0-.2,0h-.08l-.13,0h-.11l-.11,0-.18,0-.09,0-.1,0-.3.11-.11,0-.07,0a3.4,3.4,0,0,0-.54.27,6.5,6.5,0,0,0-.77.52l-.24.21c-.15.13-.3.25-.44.39l0,.05-.11.12-.31.33-.25.3-.06.07,0,.06c-.1.12-.2.26-.29.39s-.17.24-.25.37h0l-.21.35c-.07.12-.14.24-.2.37a1.09,1.09,0,0,0-.08.15l0,.07s0,.09-.07.14-.11.25-.17.37-.11.25-.15.38v.05a3.62,3.62,0,0,0-.13.35c-.05.15-.09.29-.13.44l0,.11,0,.11-.06.27c0,.2-.08.4-.1.59v0h0l5.7,3.31a5.7,5.7,0,0,1,.17-.9l0-.11A8,8,0,0,1,75.62,31.18Z"/><polygon class="cls-decentralized-26" points="62.37 52.6 56.67 49.29 68.59 32.9 74.28 36.21 62.37 52.6"/><polygon class="cls-decentralized-27" points="52.27 66.68 46.57 63.37 54.71 51.97 60.41 55.27 52.27 66.68"/><path class="cls-decentralized-28" d="M21.87,105.78l-.21,0-.34.11-.11,0h0c-.2.09-.4.19-.61.31l-.19.11,5.7,3.31.18-.11h0a5.56,5.56,0,0,1,.65-.32l.12,0a3.08,3.08,0,0,1,.55-.16Z"/><polygon class="cls-decentralized-29" points="27.57 109.09 21.87 105.78 26.62 94.64 32.32 97.95 27.57 109.09"/><polygon class="cls-decentralized-30" points="38.66 86.14 32.96 82.83 44.67 66.11 50.37 69.42 38.66 86.14"/><path class="cls-decentralized-31" d="M22.09,115.86l0-.22q.06-.3.15-.6a.49.49,0,0,1,0-.11c.05-.18.11-.36.17-.54l0-.08c.08-.2.16-.39.25-.58a.37.37,0,0,1,0-.11c.09-.19.18-.38.28-.56a.93.93,0,0,0,.05-.1c.11-.19.22-.38.34-.56h0c.13-.2.27-.4.41-.59h0l-5.7-3.31-.16.22-.25.37h0c-.08.12-.15.24-.22.36l-.12.2a.31.31,0,0,1-.05.1l0,.07-.18.37-.06.12a1.17,1.17,0,0,0-.05.11.91.91,0,0,1-.07.14l-.15.39s0,0,0,0l0,.08-.1.28-.08.26,0,.11a.14.14,0,0,0,0,.07c0,.16-.09.33-.13.49v0a1.7,1.7,0,0,0,0,.22l-.06.34V113a6.11,6.11,0,0,0,0,.73,4,4,0,0,0,.34,1.69,2.31,2.31,0,0,0,.91,1l5.7,3.31A3,3,0,0,1,22,117a6.11,6.11,0,0,1,.05-.73C22,116.13,22.06,116,22.09,115.86Z"/><path class="cls-decentralized-32" d="M31.33,94.2a6.27,6.27,0,0,1,.22-.93l0-.09a9.48,9.48,0,0,1,.38-1v0a10.46,10.46,0,0,1,.51-1h0a9.69,9.69,0,0,1,.6-.92l.06-.08c.2-.26.41-.51.62-.75l.15-.15a6.51,6.51,0,0,1,.54-.51c.08-.07.16-.15.24-.21a6.81,6.81,0,0,1,.8-.56,4.62,4.62,0,0,1,.72-.34L30.52,84.3l-.17.06a5.72,5.72,0,0,0-.55.28,6.07,6.07,0,0,0-.8.56,2.52,2.52,0,0,0-.25.21c-.13.11-.26.22-.38.34l-.16.17-.14.15-.17.18c-.12.13-.23.28-.35.42l-.11.15-.06.08s-.08.1-.11.16-.17.25-.25.37l-.23.37v0h0l-.18.33-.18.37c-.05.1-.1.2-.14.3l0,0,0,0-.15.39c-.06.13-.1.27-.15.4s0,.12-.05.18l0,.09a1.54,1.54,0,0,0-.05.17,4.54,4.54,0,0,0-.12.5c0,.08,0,.17-.05.26l0,.16,0,.18a7.16,7.16,0,0,0-.05.8,3.09,3.09,0,0,0,1.1,2.61L32.32,98a3.1,3.1,0,0,1-1.11-2.61,6.61,6.61,0,0,1,.09-1Z"/><polygon class="cls-decentralized-33" points="60.41 55.27 54.71 51.97 51.59 43.01 57.28 46.32 60.41 55.27"/><polygon class="cls-decentralized-34" points="58.91 42.7 53.21 39.39 69.43 29.79 75.13 33.1 58.91 42.7"/><polygon class="cls-decentralized-35" points="44.1 64.69 38.4 61.38 46.57 63.37 52.27 66.68 44.1 64.69"/><polygon class="cls-decentralized-36" points="36.21 87.61 30.52 84.3 35.7 64 41.39 67.31 36.21 87.61"/><polygon class="cls-decentralized-37" points="47.91 49.05 42.22 45.74 50.82 40.77 56.51 44.08 47.91 49.05"/><polygon class="cls-decentralized-38" points="42.12 64.29 36.42 60.98 39.06 50.2 44.76 53.51 42.12 64.29"/><polygon class="cls-decentralized-39" points="56.51 44.08 50.82 40.77 46.47 27.5 52.17 30.82 56.51 44.08"/><polygon class="cls-decentralized-40" points="45.5 50.48 39.8 47.17 44.53 26.96 50.22 30.27 45.5 50.48"/><polygon class="cls-decentralized-41" points="30.16 61.7 24.46 58.39 36.42 60.98 42.12 64.29 30.16 61.7"/><path class="cls-decentralized-4" d="M49.52,16.28l5.7,3.31a2.47,2.47,0,0,0-1.93-.18l-5.7-3.31A2.46,2.46,0,0,1,49.52,16.28Z"/><g class="cls-decentralized-42"><path class="cls-decentralized-43" d="M53.29,19.41l-5.7-3.31a2.49,2.49,0,0,1,.35-.08l5.7,3.31a2.21,2.21,0,0,0-.35.08"/><path class="cls-decentralized-44" d="M53.64,19.33,47.94,16l.33,0L54,19.3l-.32,0"/><path class="cls-decentralized-45" d="M54,19.3,48.27,16h.28l5.7,3.31H54"/><path class="cls-decentralized-46" d="M54.25,19.3,48.55,16l.26,0,5.7,3.31-.26,0"/><path class="cls-decentralized-47" d="M54.51,19.33,48.81,16l.24.06,5.7,3.31-.24-.06"/><path class="cls-decentralized-48" d="M54.75,19.39l-5.7-3.31.23.08L55,19.47l-.23-.08"/><path class="cls-decentralized-49" d="M55,19.47l-5.7-3.31.22.1,5.69,3.31-.21-.1"/><path class="cls-decentralized-50" d="M55.19,19.57,49.5,16.26l0,0,5.7,3.31,0,0"/></g><polygon class="cls-decentralized-51" points="29.72 59.32 24.03 56.01 39.8 47.17 45.5 50.48 29.72 59.32"/><path class="cls-decentralized-52" d="M47.84,27.28a6,6,0,0,1,.07-.84.59.59,0,0,1,0-.13c0-.24.08-.48.14-.72l0-.11a8.45,8.45,0,0,1,.26-.81s0,0,0-.06c.11-.29.23-.57.36-.85l0,0a8.67,8.67,0,0,1,.43-.79l.05-.08a7.78,7.78,0,0,1,.47-.7l.07-.1c.17-.22.34-.43.52-.63l.15-.16a7.14,7.14,0,0,1,.55-.55l-5.7-3.31-.3.28-.25.27-.15.16-.07.07-.34.42-.1.14-.08.1L43.9,19c-.09.12-.17.25-.25.38s-.07.11-.11.17a.56.56,0,0,1,0,.08.41.41,0,0,1-.07.11l-.2.37-.16.31v0l-.18.38-.15.39,0,.06a.14.14,0,0,1,0,.06c0,.1-.07.19-.1.28s-.09.3-.13.44l0,.09s0,.07,0,.11-.05.19-.07.29-.06.29-.08.43a.59.59,0,0,1,0,.13.43.43,0,0,1,0,.05,7.13,7.13,0,0,0-.05.79,3.42,3.42,0,0,0,.73,2.27,1.93,1.93,0,0,0,.52.43L49.09,30A3,3,0,0,1,47.84,27.28Z"/><polygon class="cls-decentralized-53" points="56.14 8.18 50.45 4.87 86 13.49 91.7 16.8 56.14 8.18"/><polygon class="cls-decentralized-54" points="51 20.72 45.3 17.41 45.28 10.87 50.98 14.18 51 20.72"/><path class="cls-decentralized-5" d="M22.42,67.72l-5.69-3.31A2.85,2.85,0,0,1,15.48,62l5.7,3.31A2.86,2.86,0,0,0,22.42,67.72Z"/><g class="cls-decentralized-55"><path class="cls-decentralized-5" d="M22.42,67.72l-5.69-3.31A2.85,2.85,0,0,1,15.48,62l5.7,3.31a2.86,2.86,0,0,0,1.24,2.41"/></g><path class="cls-decentralized-56" d="M22.29,61.05a.59.59,0,0,0,0-.08c.12-.21.24-.42.37-.62l.06-.08c.13-.2.27-.4.42-.59v0c.14-.18.29-.35.44-.52l.2-.21.28-.28a5.34,5.34,0,0,1,.44-.39l.21-.17a5.81,5.81,0,0,1,.68-.46,5.72,5.72,0,0,1,.55-.28l.18-.07.29-.1.19,0,.19,0,.22,0h.47l.32,0,.08,0,.24.07.07,0,.28.13L22.83,54h0l-.21-.11h0l-.08,0-.11,0-.13,0-.07,0h0a1.15,1.15,0,0,0-.26,0h-.61l-.11,0-.18,0-.1,0-.09,0-.3.1-.11,0-.06,0a4.75,4.75,0,0,0-.55.28,5.08,5.08,0,0,0-.68.46,1.73,1.73,0,0,0-.21.17,5.34,5.34,0,0,0-.44.39l-.11.09-.18.19-.19.21-.09.09-.35.42h0l0,0-.26.36-.16.23A.56.56,0,0,1,17,57l0,.06-.23.37-.1.19a.56.56,0,0,1-.05.08l-.05.09-.18.37-.09.18,0,.09,0,.1c-.06.13-.11.26-.16.39a1.8,1.8,0,0,0-.08.21h0l5.69,3.31c.09-.23.18-.47.29-.7a.36.36,0,0,1,0-.09C22.07,61.48,22.17,61.26,22.29,61.05Z"/><path class="cls-decentralized-57" d="M47.91,10.16c.06-.31.13-.62.22-.93l0-.09a9.41,9.41,0,0,1,.37-1l0,0c.15-.34.32-.67.5-1v0c.19-.31.39-.62.6-.91l.06-.08a9.41,9.41,0,0,1,.63-.76l.14-.15c.17-.18.36-.34.54-.5l.25-.22a5.18,5.18,0,0,1,.8-.55,4.75,4.75,0,0,1,.55-.28l.17-.07.3-.1.2,0,.17,0,.23,0h.48l.32,0,.07,0,.24.07.07,0a1.51,1.51,0,0,1,.29.13L49.47.29h0a1.51,1.51,0,0,0-.22-.11h0l-.08,0L49,.09l-.12,0L48.8,0h0L48.5,0h-.61l-.11,0L47.6.1l-.09,0a.29.29,0,0,0-.1,0l-.31.1L47,.29l-.06,0a6,6,0,0,0-1.35.83l-.25.22c-.12.11-.25.21-.37.33s-.11.12-.16.17L44.65,2l-.16.18-.35.42L44,2.78,44,2.86,43.85,3l-.25.38-.22.36v0l-.18.32L43,4.48c-.05.1-.09.21-.14.31v0l0,0c-.06.13-.11.26-.16.39s-.1.27-.14.4l-.06.18,0,.09a.84.84,0,0,1,0,.17,4.54,4.54,0,0,0-.12.5c0,.09,0,.17,0,.26a1,1,0,0,0,0,.17,1,1,0,0,0,0,.17,5.49,5.49,0,0,0-.06.8,4.35,4.35,0,0,0,.28,1.53l5.7,3.31a4.35,4.35,0,0,1-.28-1.53,6.45,6.45,0,0,1,.08-1Z"/><polygon class="cls-decentralized-58" points="23.89 111.8 18.19 108.49 4.52 69.25 10.22 72.56 23.89 111.8"/><polygon class="cls-decentralized-59" points="14.3 64.99 8.6 61.68 15.95 59.17 21.64 62.48 14.3 64.99"/><polygon class="cls-decentralized-60" points="12.68 62.42 6.99 59.11 42.38 9.52 48.08 12.83 12.68 62.42"/><path class="cls-decentralized-61" d="M5.81,69.14A6.27,6.27,0,0,1,6,68.21l0-.09a8.09,8.09,0,0,1,.37-1l0,0c.15-.34.32-.67.5-1v0c.19-.32.39-.62.6-.92l.06-.08q.3-.39.63-.75l.14-.15a6.39,6.39,0,0,1,.54-.5l.24-.22a6.91,6.91,0,0,1,.81-.56,6.26,6.26,0,0,1,.7-.33l.15-.05a3,3,0,0,1,.57-.16h0a2.79,2.79,0,0,1,.64,0h0a2.21,2.21,0,0,1,.59.12L7,59.11l-.08,0L6.66,59,6.4,59H6.11l-.32,0H5.7l-.3.06-.27.1-.15,0-.08,0a5,5,0,0,0-.62.3,6.81,6.81,0,0,0-.8.56l-.25.22-.38.33-.16.17L2.55,61l-.17.18c-.12.14-.23.28-.34.43a.76.76,0,0,0-.11.14l-.06.08L1.75,62l-.25.38c-.08.12-.15.24-.22.36v0l-.19.32-.18.37c-.05.1-.1.2-.14.3l0,0v0c-.06.13-.11.26-.16.39l-.15.41,0,.17,0,.09a1.21,1.21,0,0,0,0,.18,4.37,4.37,0,0,0-.12.49c0,.09,0,.18,0,.26l0,.17a.86.86,0,0,1,0,.17A7.31,7.31,0,0,0,0,67a3,3,0,0,0,1.26,2.71L7,73A3,3,0,0,1,5.7,70.28a6.45,6.45,0,0,1,.08-1Z"/><path class="cls-decentralized-62" d="M94.39,14.16c2.38-1.38,4.32-.29,4.33,2.41A9.42,9.42,0,0,1,94.42,24L80.75,79.2c1,.32,1.67,1.33,1.68,2.89a9.48,9.48,0,0,1-4.27,7.39c-2,1.15-3.67.58-4.18-1.2L30.42,113.43a9.52,9.52,0,0,1-4.11,6h0l0,0c-2.35,1.36-4.28.28-4.31-2.42a9.25,9.25,0,0,1,1.92-5.19L10.22,72.56h0L10,72.7C7.65,74.06,5.72,73,5.7,70.28A9.46,9.46,0,0,1,10,62.89a3.32,3.32,0,0,1,2.7-.47l35.4-49.59a4.35,4.35,0,0,1-.28-1.53,9.45,9.45,0,0,1,4.28-7.39c2.38-1.38,4.31-.29,4.34,2.4a7.31,7.31,0,0,1-.28,1.87L91.7,16.8A8.45,8.45,0,0,1,94.39,14.16ZM27.57,109.09,32.32,98a3.1,3.1,0,0,1-1.11-2.61A9.47,9.47,0,0,1,35.49,88a4.62,4.62,0,0,1,.72-.34l5.18-20.3-13-2.83a8.62,8.62,0,0,1-2.85,2.93h0l0,0c-2.26,1.3-4.13.35-4.29-2.12l-7.35,2.51a10,10,0,0,1-1.43,2.67l13.67,39.23.18-.11a4.25,4.25,0,0,1,1.32-.52M78.62,79.42,92,24.52a2.14,2.14,0,0,1-1.44-1L83.68,29.2a9.49,9.49,0,0,1-4.28,7.09,3,3,0,0,1-3.07.31L63.11,54.77,68.39,69a5.39,5.39,0,0,1,.72-.49c2.38-1.37,4.31-.29,4.34,2.4a8.52,8.52,0,0,1-1,3.78l4.77,5.61a5.86,5.86,0,0,1,.9-.63,5.48,5.48,0,0,1,.53-.28M74,85.66a9.7,9.7,0,0,1,1.18-2.93l-4.64-5.44a6.87,6.87,0,0,1-1.35,1c-2.38,1.37-4.31.29-4.34-2.4a7.5,7.5,0,0,1,.47-2.49L52.28,70,39.35,88.41a3.81,3.81,0,0,1,.49,1.94,9.5,9.5,0,0,1-4.29,7.39h0a4.37,4.37,0,0,1-1.28.52L29.49,109.4a2.54,2.54,0,0,1,.93,1.4L74,85.66M49.43,14.17,14,63.76A4,4,0,0,1,14.3,65l7.34-2.51a9.41,9.41,0,0,1,3.8-4.85c2.16-1.25,3.95-.47,4.28,1.69L45.5,50.48l4.72-20.21c-1.39,0-2.36-1.1-2.38-3A9.66,9.66,0,0,1,51,20.72l0-6.54a2.55,2.55,0,0,1-1.55,0m3.84-1.31,0,6.55c1.82-.48,3.16.64,3.18,2.87A9.47,9.47,0,0,1,54.11,28l4.8,14.67,16.22-9.6a9.55,9.55,0,0,1,4.24-6.61c1.66-1,3.1-.72,3.83.43l6.91-5.67a6.78,6.78,0,0,1,.26-1.57L54.81,11.06a9.31,9.31,0,0,1-1.54,1.8M44.1,64.69l8.17,2,8.14-11.41-3.13-9-.05,0-10,5.79v.07L44.1,64.69m-.75,3L38.66,86.14,50.37,69.42l-7-1.7M61.16,57.44l-7,9.78L66,70.37,61.16,57.44M59.68,44.89l2.69,7.71L74.28,36.21l-14.6,8.68M42.12,64.29l2.64-10.78L30.16,61.7l12,2.59M52.17,30.82,47.91,49.05l8.6-5L52.17,30.82"/></g></g></svg>