<svg xmlns="http://www.w3.org/2000/svg" xmlns:xlink="http://www.w3.org/1999/xlink" viewBox="0 0 101.26 120"><defs><style>.cls-fast-1{fill:url(#linear-gradient-fast);}.cls-fast-2{fill:#39fffc;}.cls-fast-3{fill:url(#linear-gradient-fast-2);}.cls-fast-4{fill:url(#linear-gradient-fast-3);}.cls-fast-5{fill:url(#linear-gradient-fast-4);}.cls-fast-6{fill:url(#linear-gradient-fast-5);}.cls-fast-7{fill:url(#linear-gradient-fast-6);}.cls-fast-8{fill:url(#linear-gradient-fast-7);}</style><linearGradient id="linear-gradient-fast" x1="-243.47" y1="479.98" x2="-242.47" y2="479.98" gradientTransform="matrix(87.97, 0, 0, -116.84, 21417.42, 56140.49)" gradientUnits="userSpaceOnUse"><stop offset="0" stop-color="#070610"/><stop offset="1" stop-color="#4c125a"/></linearGradient><linearGradient id="linear-gradient-fast-2" x1="-243.39" y1="479.81" x2="-242.39" y2="479.81" gradientTransform="matrix(85.66, 0, 0, -110.61, 20864.3, 53136.53)" xlink:href="#linear-gradient-fast"/><linearGradient id="linear-gradient-fast-3" x1="-247.93" y1="476.49" x2="-247.22" y2="476.49" gradientTransform="matrix(103.72, 0, 0, -59.88, 25736.03, 28597.56)" xlink:href="#linear-gradient-fast"/><linearGradient id="linear-gradient-fast-4" x1="-247.93" y1="476.49" x2="-247.22" y2="476.49" gradientTransform="matrix(103.72, 0, 0, -59.88, 25735.72, 28601.54)" xlink:href="#linear-gradient-fast"/><linearGradient id="linear-gradient-fast-5" x1="-242.5" y1="479.16" x2="-241.5" y2="479.16" gradientTransform="matrix(65.33, 0, 0, -92.16, 15870.99, 44223.03)" xlink:href="#linear-gradient-fast"/><linearGradient id="linear-gradient-fast-6" x1="-235.35" y1="456.68" x2="-234.35" y2="456.68" gradientTransform="matrix(22.55, 0, 0, -13.6, 5361.56, 6276.71)" xlink:href="#linear-gradient-fast"/><linearGradient id="linear-gradient-fast-7" x1="-226.71" y1="461" x2="-225.71" y2="461" gradientTransform="matrix(12.59, 0, 0, -16.25, 2908.47, 7558.25)" xlink:href="#linear-gradient-fast"/></defs><g id="Layer_2" data-name="Layer 2"><g id="Layer_1-2" data-name="Layer 1"><path id="Path_40325" data-name="Path 40325" class="cls-fast-1" d="M.53,80.56C.53,53.24,19.71,20,43.36,6.37,54.4,0,64.45-1,72,2.54h0l0,0a20.09,20.09,0,0,1,2.78,1.58L88.5,11.89l-3.87,6.87A46.36,46.36,0,0,1,86.19,31.1c0,27.32-19.18,60.53-42.83,74.19a48,48,0,0,1-10,4.4l-4.33,7.68-15.22-8.69c-.44-.23-.88-.48-1.31-.75l-.24-.13v0C5,103.12.53,93.74.53,80.56Z"/><path id="Path_40326" data-name="Path 40326" class="cls-fast-2" d="M13.59,109.15c-.46-.24-.91-.5-1.34-.76l-.58-.35v0C4.14,103,0,93.27,0,80.56,0,53.12,19.33,19.63,43.1,5.91,53.75-.24,64-1.64,72,2l0,0,.25.14a21.12,21.12,0,0,1,2.82,1.6l14.11,8-4,7.14A46.58,46.58,0,0,1,86.72,31.1c0,27.44-19.33,60.92-43.1,74.64a47.75,47.75,0,0,1-9.89,4.38l-4.48,8Zm61-104.58a22.17,22.17,0,0,0-2.5-1.44h0L71.83,3C64.11-.56,54.1.79,43.63,6.83,20.16,20.38,1.07,53.45,1.07,80.56c0,12.51,4.08,22,11.5,26.77l.23.15c.42.26.85.5,1.3.74l14.76,8.42,4.17-7.4.2-.06a47.25,47.25,0,0,0,9.87-4.35C66.57,91.28,85.67,58.2,85.67,31.1a45.67,45.67,0,0,0-1.55-12.2l-.06-.21,3.72-6.6Z"/><path id="Path_40327" data-name="Path 40327" class="cls-fast-2" d="M12.28,107.79h0C5,103.12.53,93.74.53,80.56.53,67.89,4.65,54,11.43,41.31l15.78,9.14S36,71.29,36,73.09c0,1.2-1.25,22.15-2.08,36.43l-.49.16-4.33,7.68-15.22-8.68c-.44-.23-.88-.48-1.31-.75Z"/><path id="Path_40328" data-name="Path 40328" class="cls-fast-3" d="M15.06,88.88c0,27.31,19.18,38.38,42.83,24.72s42.83-46.87,42.83-74.18S81.55,1,57.89,14.69,15.06,61.56,15.06,88.88Z"/><path id="Path_40329" data-name="Path 40329" class="cls-fast-2" d="M27.34,117.06c-8.26-4.77-12.81-14.78-12.81-28.18,0-27.44,19.34-60.93,43.1-74.65,11.61-6.7,22.56-7.77,30.82-3S101.26,26,101.26,39.42c0,27.44-19.33,60.92-43.1,74.64-6.83,4-13.43,5.94-19.4,5.94A22.51,22.51,0,0,1,27.34,117.06ZM58.16,15.15C34.68,28.7,15.59,61.77,15.59,88.88c0,13,4.36,22.7,12.28,27.26s18.49,3.51,29.76-3c23.47-13.55,42.56-46.62,42.56-73.72,0-13-4.36-22.7-12.28-27.27A21.55,21.55,0,0,0,77,9.35C71.25,9.36,64.82,11.3,58.16,15.15Z"/><ellipse id="Ellipse_806" data-name="Ellipse 806" class="cls-fast-4" cx="57.89" cy="64.15" rx="51.86" ry="29.94" transform="translate(-26.61 82.21) rotate(-60)"/><ellipse id="Ellipse_807" data-name="Ellipse 807" class="cls-fast-5" cx="57.58" cy="68.13" rx="51.86" ry="29.94" transform="translate(-30.21 83.93) rotate(-60)"/><path id="Path_40330" data-name="Path 40330" class="cls-fast-2" d="M31.7,109.52c-7.1-4.1-11-12.69-11-24.2,0-23.52,16.57-52.22,36.94-64,10-5.75,19.36-6.66,26.46-2.56s11,12.69,11,24.2c0,23.51-16.57,52.21-36.94,64C52.29,110.33,46.63,112,41.51,112A19.26,19.26,0,0,1,31.7,109.52ZM58.16,22.26c-20.08,11.59-36.4,39.88-36.4,63.06,0,11.11,3.72,19.38,10.47,23.28s15.78,3,25.4-2.57C77.71,94.44,94,66.16,94,43c0-11.12-3.72-19.39-10.48-23.29a18.43,18.43,0,0,0-9.29-2.38C69.33,17.31,63.85,19,58.16,22.26Z"/><path id="Path_40331" data-name="Path 40331" class="cls-fast-6" d="M55,104.71C75.26,93,91.68,64.58,91.68,41.19c0-9.95-2.74-17.46-7.71-21.82a0,0,0,0,1,0,0,0,0,0,0,1,0,0c6.67,3.81,10.56,12.13,10.56,23.86,0,23.39-16.42,51.82-36.67,63.52-11.44,6.6-21.91,6-28.64.4a0,0,0,0,1,0,0h0C35.88,110.63,45.12,110.42,55,104.71Z"/><path id="Path_40332" data-name="Path 40332" class="cls-fast-2" d="M28.9,107.51l-.36-.34.57-.79.41.23c7,3.74,16.15,2.88,25.23-2.36,20.07-11.59,36.4-39.88,36.4-63.06,0-9.7-2.6-17.1-7.54-21.43l-.35-.34.58-.78.42.24c7,4,10.83,12.63,10.83,24.32,0,23.52-16.57,52.22-36.94,64A33,33,0,0,1,41.88,112,19.86,19.86,0,0,1,28.9,107.51ZM92.21,41.19c0,23.52-16.57,52.22-36.93,64-7.4,4.27-14.9,5.72-21.31,4.23,6.63,2.84,15.12,1.79,23.66-3.14C77.7,94.67,94,66.38,94,43.2c0-8.68-2.17-15.61-6.18-20.07,2.87,4.52,4.36,10.65,4.36,18.06Z"/><path id="Path_40333" data-name="Path 40333" class="cls-fast-2" d="M76.69,74.74l0,0c.53-1,.5-2-.07-2.29L57,62.54c-.57-.29-1.47.27-2,1.24l0,0c-.53,1-.5,2,.07,2.29L74.68,76C75.26,76.27,76.16,75.71,76.69,74.74Z"/><path id="Path_40334" data-name="Path 40334" class="cls-fast-7" d="M77.08,73.39v0c.54-1,.51-2-.07-2.28l-19.69-9.9c-.57-.29-1.47.27-2,1.24v0c-.54,1-.51,2,.07,2.28l19.69,9.89C75.63,74.92,76.54,74.36,77.08,73.39Z"/><path id="Path_40335" data-name="Path 40335" class="cls-fast-2" d="M52.23,64.85A13.74,13.74,0,0,1,56,58.32c2.47-2.37,4.82-3,6.42-2.16l.13.07h0l.15.09,2.43,1.42a.65.65,0,0,1,.24.89h0l-.94,1.59s0,.06,0,.1a13.93,13.93,0,0,1-6.3,10.9l-.38.2L57,72.77a.64.64,0,0,1-.88.23L54,71.78a2.62,2.62,0,0,1-.51-.3l.12.08-.16-.1C52,70.42,51.41,68.11,52.23,64.85Z"/><path id="Path_40336" data-name="Path 40336" class="cls-fast-2" d="M55.82,73.46l-2.07-1.2a3,3,0,0,1-.6-.35h0l0,0c-1.71-1.27-2.22-3.88-1.39-7.16h0a14.17,14.17,0,0,1,3.94-6.79c2.47-2.36,5.09-3.21,7-2.25l.14.08a.75.75,0,0,1,.17.1l2.43,1.41A1.16,1.16,0,0,1,66,58a1.14,1.14,0,0,1-.13.9L65,60.35a14.53,14.53,0,0,1-6.56,11.32l-.27.14L57.42,73a1.19,1.19,0,0,1-1,.57A1.17,1.17,0,0,1,55.82,73.46Zm.57-14.76A13.17,13.17,0,0,0,52.74,65h0c-.7,2.81-.33,5.07,1,6l.15.11h0a2.64,2.64,0,0,0,.37.2l2.1,1.22a.14.14,0,0,0,.17,0l.81-1.36.17-.18.14-.07a2.26,2.26,0,0,0,.26-.14,13.35,13.35,0,0,0,6-10.52v-.16l1-1.71,0-.17-2.45-1.43-.24-.13A2.85,2.85,0,0,0,61,56.36,7.13,7.13,0,0,0,56.39,58.7Z"/><path id="Path_40337" data-name="Path 40337" class="cls-fast-8" d="M54.61,69.16c0,4,2.82,5.64,6.29,3.63a13.9,13.9,0,0,0,6.3-10.9c0-4-2.82-5.64-6.3-3.63A13.92,13.92,0,0,0,54.61,69.16Z"/><path id="Path_40338" data-name="Path 40338" class="cls-fast-2" d="M56.19,73.69c-1.36-.78-2.11-2.4-2.11-4.53A14.52,14.52,0,0,1,60.64,57.8c1.85-1.07,3.62-1.23,5-.44s2.11,2.39,2.11,4.53a14.52,14.52,0,0,1-6.56,11.36,6.24,6.24,0,0,1-3.08.94A3.85,3.85,0,0,1,56.19,73.69Zm5-15a13.33,13.33,0,0,0-6,10.44c0,1.74.56,3,1.58,3.62s2.41.43,3.92-.44a13.36,13.36,0,0,0,6-10.45c0-1.74-.56-3-1.58-3.61a2.68,2.68,0,0,0-1.38-.35A5.19,5.19,0,0,0,61.17,58.72Z"/><path id="Path_40339" data-name="Path 40339" class="cls-fast-2" d="M57.81,70.88a3.27,3.27,0,0,1-1.43-3,9.31,9.31,0,0,1,4.26-7.39,3,3,0,0,1,4.79,2.77,9.27,9.27,0,0,1-4.26,7.38,4.06,4.06,0,0,1-2.05.62A2.51,2.51,0,0,1,57.81,70.88Zm3.36-9.51a8.26,8.26,0,0,0-3.73,6.47,2.32,2.32,0,0,0,.9,2.13,2.35,2.35,0,0,0,2.3-.28,8.26,8.26,0,0,0,3.73-6.47,2.32,2.32,0,0,0-.9-2.13,1.65,1.65,0,0,0-.78-.2,3.16,3.16,0,0,0-1.52.48Z"/><path id="Path_40340" data-name="Path 40340" class="cls-fast-2" d="M77.56,8.84,63,.53l6.55,1,3.52,1.49,12.31,7L80.44,8.84Z"/><path id="Path_40341" data-name="Path 40341" class="cls-fast-2" d="M27.67,46.55l.54-.91L13.8,37.12l-.54.91Z"/><rect id="Rectangle_4978" data-name="Rectangle 4978" class="cls-fast-2" x="28.89" y="20.89" width="1.06" height="16.73" transform="translate(-10.62 40.11) rotate(-60)"/><rect id="Rectangle_4979" data-name="Rectangle 4979" class="cls-fast-2" x="65.58" y="-3.59" width="1.06" height="17.03" transform="translate(29.68 60.31) rotate(-60.92)"/></g></g></svg>