<svg xmlns="http://www.w3.org/2000/svg" xmlns:xlink="http://www.w3.org/1999/xlink" viewBox="0 0 103.83 120"><defs><style>.cls-1{fill:#ffa900;}.cls-2{fill:url(#linear-gradient-gru);}.cls-3{fill:url(#linear-gradient-gru-2);}.cls-4{fill:url(#linear-gradient-gru-3);}.cls-5{fill:url(#linear-gradient-gru-4);}.cls-6{fill:url(#linear-gradient-gru-5);}.cls-7{fill:url(#linear-gradient-gru-6);}.cls-8{fill:url(#linear-gradient-gru-7);}.cls-9{fill:url(#linear-gradient-gru-8);}.cls-10{fill:url(#linear-gradient-gru-9);}.cls-11{fill:url(#linear-gradient-gru-10);}.cls-12{fill:url(#linear-gradient-gru-11);}.cls-13{fill:url(#linear-gradient-gru-12);}.cls-14{fill:url(#linear-gradient-gru-13);}.cls-15{fill:url(#linear-gradient-gru-14);}.cls-16{fill:url(#linear-gradient-gru-15);}.cls-17{fill:url(#linear-gradient-gru-16);}.cls-18{fill:url(#linear-gradient-gru-17);}</style><linearGradient id="linear-gradient-gru" x1="-660.79" y1="-409.28" x2="-659.79" y2="-409.28" gradientTransform="matrix(9.59, 0, 0, -14.33, 6421.18, -5829.65)" gradientUnits="userSpaceOnUse"><stop offset="0" stop-color="#070610"/><stop offset="1" stop-color="#4c125a"/></linearGradient><linearGradient id="linear-gradient-gru-2" x1="-695.29" y1="-372.43" x2="-694.29" y2="-372.43" gradientTransform="matrix(17.38, 0, 0, -26.12, 12168.09, -9708.73)" xlink:href="#linear-gradient-gru"/><linearGradient id="linear-gradient-gru-3" x1="-539.08" y1="-905.01" x2="-538.08" y2="-905.01" gradientTransform="matrix(3.71, 0, 0, -2.03, 2094.35, -1800.65)" xlink:href="#linear-gradient-gru"/><linearGradient id="linear-gradient-gru-4" x1="-728.11" y1="-354.09" x2="-727.11" y2="-354.09" gradientTransform="matrix(76.67, 0, 0, -44.27, 55852.59, -15578.13)" xlink:href="#linear-gradient-gru"/><linearGradient id="linear-gradient-gru-5" x1="-728.11" y1="-354.09" x2="-727.11" y2="-354.09" gradientTransform="matrix(76.68, 0, 0, -44.27, 55857.17, -15583.18)" xlink:href="#linear-gradient-gru"/><linearGradient id="linear-gradient-gru-6" x1="-714.93" y1="-390.26" x2="-713.93" y2="-390.26" gradientTransform="matrix(32.36, 0, 0, -18.68, 23182.26, -7258.52)" xlink:href="#linear-gradient-gru"/><linearGradient id="linear-gradient-gru-7" x1="-692.14" y1="-400.18" x2="-691.14" y2="-400.18" gradientTransform="matrix(16.18, 0, 0, -16.13, 11246.54, -6412.9)" xlink:href="#linear-gradient-gru"/><linearGradient id="linear-gradient-gru-8" x1="-691.1" y1="-444.91" x2="-690.1" y2="-444.91" gradientTransform="matrix(15.82, 0, 0, -9.97, 10998.05, -4393.88)" xlink:href="#linear-gradient-gru"/><linearGradient id="linear-gradient-gru-9" x1="-640.28" y1="-403.14" x2="-639.28" y2="-403.14" gradientTransform="matrix(7.57, 0, 0, -15.49, 4902.58, -6221.85)" xlink:href="#linear-gradient-gru"/><linearGradient id="linear-gradient-gru-10" x1="-727.46" y1="-352.32" x2="-726.46" y2="-352.32" gradientTransform="matrix(71.8, 0, 0, -47.44, 52259.04, -16690.95)" xlink:href="#linear-gradient-gru"/><linearGradient id="linear-gradient-gru-11" x1="-568.77" y1="-572.17" x2="-567.77" y2="-572.17" gradientTransform="matrix(4.37, 0, 0, -4.78, 2573.1, -2722.94)" xlink:href="#linear-gradient-gru"/><linearGradient id="linear-gradient-gru-12" x1="-663.81" y1="-396.73" x2="-662.81" y2="-396.73" gradientTransform="matrix(9.98, 0, 0, -16.93, 6686.31, -6688.58)" xlink:href="#linear-gradient-gru"/><linearGradient id="linear-gradient-gru-13" x1="-568.57" y1="-522.81" x2="-567.57" y2="-522.81" gradientTransform="matrix(4.36, 0, 0, -5.99, 2547.93, -3104.42)" xlink:href="#linear-gradient-gru"/><linearGradient id="linear-gradient-gru-14" x1="-713.34" y1="-352.81" x2="-712.34" y2="-352.81" gradientTransform="matrix(30.25, 0, 0, -46.51, 21578.09, -16365.87)" xlink:href="#linear-gradient-gru"/><linearGradient id="linear-gradient-gru-15" x1="255.01" y1="-487.39" x2="256.01" y2="-487.39" gradientTransform="matrix(0.74, 0, 0, -7.32, -156.71, -3523.74)" xlink:href="#linear-gradient-gru"/><linearGradient id="linear-gradient-gru-16" x1="-627.09" y1="-429.65" x2="-626.09" y2="-429.65" gradientTransform="matrix(6.67, 0, 0, -11.47, 4202.22, -4877.28)" xlink:href="#linear-gradient-gru"/><linearGradient id="linear-gradient-gru-17" x1="-678.63" y1="-394.29" x2="-677.63" y2="-394.29" gradientTransform="matrix(12.48, 0, 0, -17.55, 8479.03, -6895.93)" xlink:href="#linear-gradient-gru"/></defs><g id="Layer_2" data-name="Layer 2"><g id="content"><path id="Path_40211" data-name="Path 40211" class="cls-1" d="M92.47,49.24a2.8,2.8,0,0,1-1.38-.37,2.76,2.76,0,0,1-1.43-2.45V33.19h.68V46.42a2.13,2.13,0,0,0,3.23,1.83,5.75,5.75,0,0,0,2.78-4.9V21.62H97V43.35a6.42,6.42,0,0,1-3.11,5.49A2.82,2.82,0,0,1,92.47,49.24Z"/><g id="Group_55156" data-name="Group 55156"><g id="Group_55154" data-name="Group 55154"><path id="Path_40212" data-name="Path 40212" class="cls-2" d="M95.86,30.52a.27.27,0,0,0-.12-.3L90.18,27h0a.76.76,0,0,0-.84.05l-1.92,1.11a2.54,2.54,0,0,0-1.14,2v7.12c0,.44.19.72.48.79l5.39,3.15a.24.24,0,0,0,.33-.09l0-.05Z"/><path id="Path_40213" data-name="Path 40213" class="cls-1" d="M92.27,41.58a.55.55,0,0,1-.3-.09l-5.35-3.12a1.1,1.1,0,0,1-.7-1.13V30.12a2.9,2.9,0,0,1,1.32-2.29l1.92-1.11a1.14,1.14,0,0,1,1.23,0l5.53,3.21a.62.62,0,0,1,.29.73L92.86,41.15a.58.58,0,0,1-.37.38A.54.54,0,0,1,92.27,41.58ZM89.83,27.25a.87.87,0,0,0-.31.1L87.6,28.46a2.19,2.19,0,0,0-.95,1.66v7.12c0,.12,0,.4.2.44l.1,0,5.26,3.07,3.28-10.3L90,27.31A.27.27,0,0,0,89.83,27.25Z"/></g><g id="Group_55155" data-name="Group 55155"><path id="Path_40214" data-name="Path 40214" class="cls-1" d="M93.27,41.29h0c-.63.37-1.14.07-1.14-.65V33.51a2.52,2.52,0,0,1,1.14-2l1.92-1.1c.77-.45,1.31.1,1.09,1.07l-1.93,8.24A2.51,2.51,0,0,1,93.27,41.29Z"/><path id="Path_40215" data-name="Path 40215" class="cls-1" d="M92.76,41.81a1,1,0,0,1-.48-.12,1.13,1.13,0,0,1-.51-1V33.51a2.85,2.85,0,0,1,1.31-2.28L95,30.12a1.12,1.12,0,0,1,1.25,0,1.4,1.4,0,0,1,.37,1.5l-1.92,8.23a3,3,0,0,1-1.26,1.78A1.32,1.32,0,0,1,92.76,41.81ZM95.7,30.64a.76.76,0,0,0-.33.11l-1.92,1.11a2.16,2.16,0,0,0-1,1.65v7.13a.51.51,0,0,0,.15.42.52.52,0,0,0,.44-.08h0A2.22,2.22,0,0,0,94,39.66l1.92-8.23c.09-.4,0-.66-.09-.75a.22.22,0,0,0-.13,0Z"/></g></g><g id="Group_55157" data-name="Group 55157"><path id="Path_40216" data-name="Path 40216" class="cls-3" d="M101.2,11.89l-8.88-5A1.21,1.21,0,0,0,91.2,7l-6.13,3.54a2.75,2.75,0,0,0-1.25,2.16V27a.85.85,0,0,0,.39.81l9,5.1Z"/><path id="Path_40217" data-name="Path 40217" class="cls-1" d="M93.69,32.59a.67.67,0,0,1-.88.4l-.1,0-8.66-4.88A1.18,1.18,0,0,1,83.51,27V12.69a3.08,3.08,0,0,1,1.4-2.43L91,6.72a1.49,1.49,0,0,1,1.4-.15l9.14,5.18ZM91.94,7.08a1.17,1.17,0,0,0-.58.18L85.23,10.8a2.49,2.49,0,0,0-1.1,1.89V27a.62.62,0,0,0,.22.54l8.73,4.92L100.81,12,92.16,7.12a.57.57,0,0,0-.22,0Z"/></g><path id="Path_40218" data-name="Path 40218" class="cls-1" d="M103.46,14.06,101.94,12a1.34,1.34,0,0,0-1.84-.19L94,15.36a3,3,0,0,0-1.4,2.44V32.08a1.15,1.15,0,0,0,.52,1.08.89.89,0,0,0,.48.13,1.38,1.38,0,0,0,.71-.22l3.92-2.26a4.78,4.78,0,0,0,2-2.7l3.45-11.77A2.62,2.62,0,0,0,103.46,14.06Z"/><path id="Path_40219" data-name="Path 40219" class="cls-4" d="M96.47,31h0l-2.15,1.25a.74.74,0,0,1-.73.07.59.59,0,0,1-.28-.44h0l-.53.36a1.19,1.19,0,0,0,.51.64,1.14,1.14,0,0,0,.58.15,1.68,1.68,0,0,0,.79-.23l1.69-1h0Z"/><path id="Path_40220" data-name="Path 40220" class="cls-5" d="M102.67,97.84a1.82,1.82,0,0,0,0-.33v-5H96.75L69.39,76.7c-2.79-1.61-7-1.78-9.42-.39l-28,16.19H26v4.83c0,1.07.77,2.21,2.3,3.09l31,17.89c2.79,1.61,7,1.79,9.42.39L101.05,100a2.75,2.75,0,0,0,1.61-2.11v-.08Z"/><path id="Path_40221" data-name="Path 40221" class="cls-1" d="M64.62,120a11.4,11.4,0,0,1-5.51-1.37l-31-17.89c-1.59-.92-2.5-2.16-2.49-3.41v-.16l0-5h6.18L59.79,76c2.51-1.45,6.9-1.28,9.79.39L96.85,92.13H103v5.38a2.16,2.16,0,0,1,0,.36h0v.07a3.15,3.15,0,0,1-1.79,2.41L68.91,119A8.86,8.86,0,0,1,64.62,120ZM26.38,92.86l0,4.3v.16c0,1,.77,2,2.12,2.79l31,17.89c2.69,1.55,6.75,1.72,9.06.39l32.34-18.67a2.46,2.46,0,0,0,1.43-1.83v-5H96.66L69.22,77c-2.69-1.55-6.75-1.73-9.06-.39L32,92.86Z"/><path id="Path_40222" data-name="Path 40222" class="cls-6" d="M101.05,95,68.71,113.69c-2.41,1.39-6.63,1.22-9.42-.39l-31-17.89c-2.79-1.61-3.09-4-.68-5.44L60,71.3c2.41-1.39,6.63-1.22,9.42.39l31,17.89C103.16,91.19,103.47,93.63,101.05,95Z"/><path id="Path_40223" data-name="Path 40223" class="cls-1" d="M64.62,115a11.3,11.3,0,0,1-5.51-1.38l-31-17.88c-1.59-.92-2.49-2.15-2.49-3.4a3.14,3.14,0,0,1,1.81-2.67L59.79,71c2.51-1.45,6.9-1.28,9.78.39l31,17.89c1.58.91,2.49,2.15,2.49,3.39a3.17,3.17,0,0,1-1.82,2.68L68.9,114A8.83,8.83,0,0,1,64.62,115Zm-.56-44.27a7.92,7.92,0,0,0-3.91.9L27.81,90.29a2.48,2.48,0,0,0-1.45,2c0,1,.78,2,2.13,2.76l31,17.89c2.69,1.55,6.75,1.72,9.06.39l32.34-18.67a2.48,2.48,0,0,0,1.45-2c0-1-.78-2-2.13-2.76L69.21,72a10.53,10.53,0,0,0-5.15-1.29Z"/><path id="Path_40224" data-name="Path 40224" class="cls-1" d="M64.62,115v5l4.1-1.3,34-19.7.37-5.71-2.68,2-33.6,19.3Z"/><path id="Path_40225" data-name="Path 40225" class="cls-1" d="M90.16,93.52,87,74.08l-.22-1.31L84.28,57l-.22-1.31L81.58,40.27l-.13-.83-.93-.53L64.6,29.72,48.69,38.9l-.92.54-.15.83-2.56,15-.22,1.32-2.7,15.75-.23,1.32-3.4,19.87,1.35.4.16-.77L52.53,90,63.7,107.29l1.37-.13L76.39,90.1l12.3,3.05.17.68Zm-1.79-1.94L77.24,88.82l8.6-12.95Zm-26-5.5-9.2,2.29L45,75.71ZM44.52,73.75,54,71.19l8.12,13Zm10.9-3,8.37-2.27-.07,15.57Zm0-17.3,6.94,12.07-15.09-9Zm-8.88,1.8L48.8,42l5.87,10.21ZM81.84,57,66.37,65.64l7.14-12Zm-7.58-4.62L80.38,42l2.21,13.7Zm7,6.6-7,10.77-8-2.31Zm-16,5.74.06-14.36,6.82,2.74Zm-1.46.5-7-12.2,7.09-2.68Zm-1.28,2.18L54.61,69.5,47.8,58.58Zm2.72,1.26L73.43,71,65.17,83.64Zm9.65,2.79,9.5,2.73L66.51,84.25ZM84,76,75.74,88.45l-9.52-2.36Zm1.39-3.14-9.64-2.78,7.37-11.3ZM72.89,51.79l-6.63-2.67,12.48-7.21ZM64.6,31.39l14.72,8.5L64.6,48.39l-14.72-8.5ZM62.91,49.1l-6.86,2.59L50.4,41.87ZM46,58.43,53.14,69.9l-9.56,2.6ZM40.32,91.57l2.76-16.12,8.61,13.29ZM54,89.66l9.68-2.41-.07,17.24Zm11.06,14.85.08-17.19,9.73,2.41Z"/><path id="Path_40226" data-name="Path 40226" class="cls-7" d="M80.78,32.27,64.6,41.61,48.42,32.27,64.6,22.93Z"/><path id="Path_40227" data-name="Path 40227" class="cls-8" d="M48.42,32.27v6.78L64.6,48.39V41.61Z"/><path id="Path_40228" data-name="Path 40228" class="cls-1" d="M80.78,31.85,64.6,22.51,48.42,31.85l-.36.21v7.2L64.24,48.6l.36.21L65,48.6l16.18-9.34v-7.2ZM64.6,23.35l15.45,8.92L64.6,41.19,49.15,32.27Zm-.36,24.42L48.78,38.85v-6l15.46,8.92Z"/><path id="Path_40229" data-name="Path 40229" class="cls-9" d="M64.78,48.16v-.83L80.6,38.19V39Z"/><path id="Path_40230" data-name="Path 40230" class="cls-10" d="M61.56,16.49a1.82,1.82,0,0,0-1.94.11l-.43.25a6.91,6.91,0,0,0-2.88,5.52V30.3l2.42,1.45,5.15-13.88Z"/><path id="Path_40231" data-name="Path 40231" class="cls-1" d="M59,32l-.29.17-2.79-1.65V22.37A7.24,7.24,0,0,1,59,16.53l.43-.25a2.17,2.17,0,0,1,2.3-.1l2.57,1.53Zm-2.35-1.9,1.87,1.12L63.43,18,61.37,16.8a1.47,1.47,0,0,0-1.56.11l-.43.25a6.53,6.53,0,0,0-2.71,5.21Z"/><path id="Path_40232" data-name="Path 40232" class="cls-1" d="M64.12,17.58a2.19,2.19,0,0,0-2.25.15l-.43.25a7.24,7.24,0,0,0-3.08,5.84V32l.37.21,6.57-3.8V20.23A2.9,2.9,0,0,0,64.12,17.58Z"/><g id="Group_55167" data-name="Group 55167"><path id="Path_40233" data-name="Path 40233" class="cls-11" d="M99.49,2.8a.18.18,0,0,0,.07-.23.23.23,0,0,0-.07-.07l-3.7-2h0a.78.78,0,0,0-.94,0L90.43,3.05a1.84,1.84,0,0,1-1.53.26L84.62,1.78A1.7,1.7,0,0,0,83.2,2L70.77,9.19a2.82,2.82,0,0,0-1.26,2.18v2.91a1.62,1.62,0,0,1-.73,1.27L29,38.32a2.64,2.64,0,0,0-1.2,2.09v4.48c0,.48.21.78.52.85l3.68,2,1.56-2.6L56.68,29.82l38.17-22a2.7,2.7,0,0,0,1.21-2.09V4.73Z"/><path id="Path_40234" data-name="Path 40234" class="cls-1" d="M32.11,48.27l-3.94-2.19a1.13,1.13,0,0,1-.76-1.19V40.41A3,3,0,0,1,28.8,38L68.59,15.24a1.29,1.29,0,0,0,.56-1V11.38a3.11,3.11,0,0,1,1.44-2.5L83,1.7a2.11,2.11,0,0,1,1.73-.26L89,3a1.53,1.53,0,0,0,1.23-.24L94.67.18A1.28,1.28,0,0,1,96,.21l3.63,2a.53.53,0,0,1,.28.47.55.55,0,0,1-.27.47L96.42,4.94v.74A3,3,0,0,1,95,8.08l-38.17,22-23,15.3ZM84.21,2.08a1.66,1.66,0,0,0-.84.26L71,9.51a2.44,2.44,0,0,0-1.08,1.87v2.9A2,2,0,0,1,69,15.87L29.16,38.64a2.26,2.26,0,0,0-1,1.77v4.48c0,.14,0,.45.24.49l.1,0,3.36,1.87,1.49-2.41L56.48,29.52,94.67,7.46a2.3,2.3,0,0,0,1-1.78V4.52L99,2.66,95.61.81a.5.5,0,0,0-.58,0L90.61,3.37a2.21,2.21,0,0,1-1.84.28L84.49,2.12a.92.92,0,0,0-.28-.05Z"/></g><path id="Path_40235" data-name="Path 40235" class="cls-1" d="M99.92,2.32a1.19,1.19,0,0,0-1.21.08L94.29,5a1.49,1.49,0,0,1-1.23.23L88.78,3.65a2.08,2.08,0,0,0-1.73.27L74.63,11.09a3.18,3.18,0,0,0-1.45,2.5V16.5a1.25,1.25,0,0,1-.55,1L32.84,40.23a3,3,0,0,0-1.39,2.4v4.48a1.22,1.22,0,0,0,.54,1.1,1.05,1.05,0,0,0,.49.13,1.44,1.44,0,0,0,.72-.22L99.07,10.3a3,3,0,0,0,1.39-2.4V3.42A1.2,1.2,0,0,0,99.92,2.32Z"/><path id="Path_40236" data-name="Path 40236" class="cls-12" d="M94.36,13a4.7,4.7,0,0,0,0-.75,1.73,1.73,0,0,0-1-1.48,1.7,1.7,0,0,0-1.72.36,4.68,4.68,0,0,0-1.65,4,2.45,2.45,0,0,0,.08.37l.65-.38s0,0,0-.08a4,4,0,0,1,1.37-3.29,1.32,1.32,0,0,1,.77-.32.59.59,0,0,1,.23.05,1.07,1.07,0,0,1,.52.9,3.58,3.58,0,0,1-.09,1.13Z"/><path id="Path_40237" data-name="Path 40237" class="cls-13" d="M68.1,20.21a1.8,1.8,0,0,0-1.93.11l-.43.25a6.9,6.9,0,0,0-2.89,5.52V34l4.83,2.88L72.83,23Z"/><path id="Path_40238" data-name="Path 40238" class="cls-1" d="M68,37.16l-.3.17-5.19-3.1V26.09a7.23,7.23,0,0,1,3.07-5.84L66,20a2.17,2.17,0,0,1,2.3-.1l5,3Zm-4.76-3.34,4.28,2.56,4.89-13.19-4.47-2.67a1.47,1.47,0,0,0-1.56.12l-.43.24a6.53,6.53,0,0,0-2.71,5.21Z"/><path id="Path_40239" data-name="Path 40239" class="cls-1" d="M73.07,22.74a2.19,2.19,0,0,0-2.25.15l-.43.25A7.24,7.24,0,0,0,67.31,29v8.14l.37.21,6.57-3.8V25.39A2.9,2.9,0,0,0,73.07,22.74Z"/><path id="Path_40240" data-name="Path 40240" class="cls-14" d="M70.3,30.94a1.3,1.3,0,0,1-.52-.1,1.72,1.72,0,0,1-1-1.47,4.67,4.67,0,0,1,1.65-4,1.56,1.56,0,0,1,2.68,1.12,4.68,4.68,0,0,1-1.66,4A2,2,0,0,1,70.3,30.94Zm1.39-5.27a1.28,1.28,0,0,0-.77.31,4,4,0,0,0-1.37,3.29,1,1,0,0,0,.51.9,1.06,1.06,0,0,0,1-.27,4,4,0,0,0,1.37-3.29,1,1,0,0,0-.51-.9.59.59,0,0,0-.23,0Z"/><g id="Group_55173" data-name="Group 55173"><path id="Path_40241" data-name="Path 40241" class="cls-15" d="M30.74,29.56,17.9,22a1.44,1.44,0,0,0-1.69,0L4.12,29a4.65,4.65,0,0,0-1.69,1.91L1.12,33.58A5.5,5.5,0,0,0,.51,36V58.43a2.17,2.17,0,0,0,1,2.06l13.26,7.77,1.54-3.73,1.92-1.11a3.57,3.57,0,0,0,1.62-2.81V56Z"/><path id="Path_40242" data-name="Path 40242" class="cls-1" d="M15,69,1.23,60.92A2.67,2.67,0,0,1,0,58.43V36a6.09,6.09,0,0,1,.67-2.61L2,30.71A5,5,0,0,1,3.87,28.6l12.09-7a1.89,1.89,0,0,1,2.26,0l13.15,7.72-11,26.71v4.56a4.07,4.07,0,0,1-1.87,3.23l-1.78,1Zm2.17-46.72a1.43,1.43,0,0,0-.69.21l-12.09,7a4.15,4.15,0,0,0-1.49,1.7L1.57,33.8A5.11,5.11,0,0,0,1,36V58.43a1.76,1.76,0,0,0,.71,1.63L14.5,67.55l1.39-3.36L18,63a3.11,3.11,0,0,0,1.37-2.38l0-4.84,10.75-26L17.65,22.43a.7.7,0,0,0-.49-.17Z"/></g><path id="Path_40243" data-name="Path 40243" class="cls-1" d="M32.79,30.53,31.48,29.4a1.89,1.89,0,0,0-2.26,0l-12.09,7a5.07,5.07,0,0,0-1.88,2.12l-1.31,2.65a6,6,0,0,0-.67,2.6V66.2a2.69,2.69,0,0,0,1.24,2.5l10.63,5.62a1.81,1.81,0,0,0,.85.21,2.78,2.78,0,0,0,1.38-.41l4.34-2.5a4.08,4.08,0,0,0,1.87-3.24V32.58A2.62,2.62,0,0,0,32.79,30.53Z"/><g id="Group_55174" data-name="Group 55174"><path id="Path_40244" data-name="Path 40244" class="cls-16" d="M33.51,47.21l-.75.43V40.76l.75-.44Z"/></g><path id="Path_40245" data-name="Path 40245" class="cls-17" d="M23.62,54.58a1.84,1.84,0,0,1-1-.25,2.41,2.41,0,0,1-1.05-2.24,4.81,4.81,0,0,1,.2-1.41L23.49,45a2.78,2.78,0,0,1,1.25-1.62,1.26,1.26,0,0,1,1-.16,1,1,0,0,1,.61.56l1.39,3.13h0l.37.84h0a3.44,3.44,0,0,1,.13,1,6.8,6.8,0,0,1-3.13,5.42A2.88,2.88,0,0,1,23.62,54.58Zm1.84-10.67a.76.76,0,0,0-.33.11,2,2,0,0,0-.88,1.16l-1.66,5.65a4.47,4.47,0,0,0-.19,1.26,1.72,1.72,0,0,0,.66,1.56,1.72,1.72,0,0,0,1.68-.21,6.06,6.06,0,0,0,2.73-4.73,2.23,2.23,0,0,0-.16-.92h0l-.13-.31-1.52-3.43a.18.18,0,0,0-.12-.12l-.08,0Z"/><path id="Path_40246" data-name="Path 40246" class="cls-18" d="M21.71,20.72a.25.25,0,0,0-.12-.3l-7.66-4.48a.27.27,0,0,0-.1-.06h0a1.06,1.06,0,0,0-1,.16,3.24,3.24,0,0,0-1.35,2L9.29,27.53c-.16.77.07,1.31.5,1.46l7.4,4.35a.29.29,0,0,0,.38-.1.08.08,0,0,1,0-.05Z"/><path id="Path_40247" data-name="Path 40247" class="cls-1" d="M17.33,33.73a.66.66,0,0,1-.32-.08L9.61,29.3c-.58-.19-.86-.93-.67-1.85L11.12,18a3.65,3.65,0,0,1,1.52-2.24A1.46,1.46,0,0,1,14,15.54l.16.08,7.65,4.48a.64.64,0,0,1,.28.74L17.93,33.29a.63.63,0,0,1-.38.4A.57.57,0,0,1,17.33,33.73ZM13.49,16.19a.85.85,0,0,0-.47.15,2.93,2.93,0,0,0-1.19,1.78L9.65,27.6c-.11.53,0,.95.26,1L17.27,33l4.07-12.27-7.59-4.44a.58.58,0,0,0-.26-.06Z"/><path id="Path_40248" data-name="Path 40248" class="cls-1" d="M22.56,21.38a1.35,1.35,0,0,0-.64-1.2,1.42,1.42,0,0,0-1.42.15A3.68,3.68,0,0,0,19,22.57L16.8,32.05a1.68,1.68,0,0,0,.47,1.76,1.13,1.13,0,0,0,.64.2,1.68,1.68,0,0,0,.89-.29l2.45-1.51a3.55,3.55,0,0,0,1.58-2.86Z"/></g></g></svg>