<svg xmlns="http://www.w3.org/2000/svg" xmlns:xlink="http://www.w3.org/1999/xlink" viewBox="0 0 210.72 120"><defs><style>.cls-multiprotocol-1{fill:url(#linear-gradient-multiprotocol);}.cls-multiprotocol-2{fill:#39fffc;}.cls-multiprotocol-3{fill:url(#linear-gradient-multiprotocol-2);}.cls-multiprotocol-4{fill:url(#linear-gradient-multiprotocol-3);}.cls-multiprotocol-5{fill:#150035;}.cls-multiprotocol-6{fill:url(#linear-gradient-multiprotocol-4);}.cls-multiprotocol-7{fill:url(#linear-gradient-multiprotocol-5);}.cls-multiprotocol-8{fill:url(#linear-gradient-multiprotocol-6);}.cls-multiprotocol-9{fill:url(#linear-gradient-multiprotocol-7);}.cls-multiprotocol-10{fill:url(#linear-gradient-multiprotocol-8);}.cls-multiprotocol-11{fill:url(#linear-gradient-multiprotocol-9);}.cls-multiprotocol-12{fill:url(#linear-gradient-multiprotocol-10);}.cls-multiprotocol-13{fill:url(#linear-gradient-multiprotocol-11);}.cls-multiprotocol-14{fill:url(#linear-gradient-multiprotocol-12);}</style><linearGradient id="linear-gradient-multiprotocol" x1="134.46" y1="31.56" x2="210.12" y2="31.56" gradientUnits="userSpaceOnUse"><stop offset="0" stop-color="#070610"/><stop offset="1" stop-color="#4c125a"/></linearGradient><linearGradient id="linear-gradient-multiprotocol-2" x1="134.48" y1="22.54" x2="210.11" y2="22.54" xlink:href="#linear-gradient-multiprotocol"/><linearGradient id="linear-gradient-multiprotocol-3" x1="38.41" y1="41.11" x2="114.05" y2="41.11" xlink:href="#linear-gradient-multiprotocol"/><linearGradient id="linear-gradient-multiprotocol-4" x1="76.23" y1="63.76" x2="151.87" y2="63.76" xlink:href="#linear-gradient-multiprotocol"/><linearGradient id="linear-gradient-multiprotocol-5" x1="0.6" y1="63.76" x2="76.24" y2="63.76" xlink:href="#linear-gradient-multiprotocol"/><linearGradient id="linear-gradient-multiprotocol-6" x1="38.41" y1="84.82" x2="114.05" y2="84.82" xlink:href="#linear-gradient-multiprotocol"/><linearGradient id="linear-gradient-multiprotocol-7" x1="38.42" y1="77.91" x2="114.03" y2="77.91" xlink:href="#linear-gradient-multiprotocol"/><linearGradient id="linear-gradient-multiprotocol-8" x1="0.61" y1="56.06" x2="76.23" y2="56.06" xlink:href="#linear-gradient-multiprotocol"/><linearGradient id="linear-gradient-multiprotocol-9" x1="38.42" y1="34.2" x2="114.03" y2="34.2" xlink:href="#linear-gradient-multiprotocol"/><linearGradient id="linear-gradient-multiprotocol-10" x1="76.24" y1="56.06" x2="151.85" y2="56.06" xlink:href="#linear-gradient-multiprotocol"/><linearGradient id="linear-gradient-multiprotocol-11" x1="130.53" y1="97.48" x2="206.19" y2="97.48" xlink:href="#linear-gradient-multiprotocol"/><linearGradient id="linear-gradient-multiprotocol-12" x1="130.54" y1="88.26" x2="206.17" y2="88.26" xlink:href="#linear-gradient-multiprotocol"/></defs><g id="Layer_2" data-name="Layer 2"><g id="Layer_1-2" data-name="Layer 1"><path class="cls-multiprotocol-1" d="M179.07,13.84,172.3,9.93h0L170,11.26h0l-5.92-1.74h0l-6.58.4s0,0,0,0l-.05,11.86s0,0,0,0L148,19h0l-4.45.56h0l-9.11,3h0v9.21h0l9.26,5.34s0,0,0,0l-4.78.82,0,0,0,9.47c.18,1.75,2.35,3.45,6.91,3.73h0c3.85-.46,5.89-1.93,6.19-3.54,1.63-3.66,5.74-2.39,5.76-2.39h0l14.46,8.35h0l14.46-8.35a1.49,1.49,0,0,0,.37-1.06h0V35a8.82,8.82,0,0,1,.88.41,3.56,3.56,0,0,1,1.89,2.27c1.63,3.67,5.74,2.4,5.76,2.4h0l14.46-8.35h0V22.55a0,0,0,0,0,0,0l-31-8.7Z"/><path class="cls-multiprotocol-2" d="M172.32,54.28l-.3-.14-14.43-8.33c-.49-.13-3.62-.85-5,2-.43,2-2.92,3.49-6.69,3.94-5.34-.31-7.4-2.41-7.59-4.27l0-10,.52-.1,3.19-.55-8.16-4.71v-10l.39-.17,9.09-3h.25l4.17-.53.08-.07.31,0L156.82,21l0-11.63.57-.06,6.74-.4.15.07,5.58,1.62,2.4-1.38.32.19,6.69,3.86,31.4,8.8v10l-.34.18-14.47,8.41h-.16a5.24,5.24,0,0,1-6.4-2.75l0-.14A3,3,0,0,0,187.73,36v8.2a2,2,0,0,1-.53,1.48l-.14.11Zm-16.09-9.86a5.91,5.91,0,0,1,1.77.26l.12,0,14.17,8.18,14.07-8.12a.81.81,0,0,0,.17-.54V34.15l.82.33a7.09,7.09,0,0,1,1,.46,4.13,4.13,0,0,1,2.16,2.6c1.33,2.88,4.46,2.15,4.95,2l14.1-8.14V23l-30.75-8.64-6.48-3.74-2.24,1.3-.27-.08-5.8-1.7-5.93.36,0,11.63-.52.36-.3-.11L148,19.6l-4.27.53L135.06,23v8.45l9.34,5.39-.15.84-.43.08-4.29.74,0,9c.13,1.25,1.87,2.87,6.35,3.14,3.74-.45,5.35-1.87,5.57-3l0-.13A4.9,4.9,0,0,1,156.23,44.42Z"/><path class="cls-multiprotocol-3" d="M172.3.7h0L157.83,9.05s-2.23,2.38,4.14,3.33c2.79.17,5.35,1.36,6.13,3.61h0c-.75,4.05-7.8,5-11.52,2.85a3.53,3.53,0,0,1-1.89-2.27c-1.64-3.67-5.74-2.4-5.76-2.39h0l-14.44,8.34s0,0,0,0l14.44,8.33s2.22,2.38-4.14,3.33c-2.79.17-5.35,1.36-6.14,3.61h0c.76,4,7.81,5,11.53,2.85a3.54,3.54,0,0,0,1.89-2.27c1.63-3.66,5.74-2.4,5.76-2.39h0l14.46,8.35h0L186.76,36s2.22-2.38-4.14-3.33c-2.79-.17-5.35-1.36-6.14-3.6h0c.76-4.05,7.81-5,11.53-2.86a3.56,3.56,0,0,1,1.89,2.27c1.63,3.67,5.74,2.4,5.76,2.39h0l14.44-8.34s0,0,0,0Z"/><path class="cls-multiprotocol-2" d="M172.32,45.06l-.3-.15-14.43-8.32c-.48-.14-3.61-.88-5,2a4.13,4.13,0,0,1-2.16,2.6,11.07,11.07,0,0,1-9.32.32,5,5,0,0,1-3.1-3.58v-.09l0-.23c.8-2.3,3.29-3.8,6.66-4,3.19-.47,3.81-1.27,3.92-1.6a.72.72,0,0,0-.13-.66L133.89,22.9v-.71l.31-.18,14.64-8.42c1.29-.39,4.89-.66,6.41,2.75l0,.13a3,3,0,0,0,1.6,1.86,9.91,9.91,0,0,0,8.21.27A4,4,0,0,0,167.48,16c-.83-2.06-3.39-2.93-5.55-3.06-3-.44-4.57-1.23-5-2.41a2,2,0,0,1,.44-1.93l.14-.11L172.31,0l.3.19,38.09,22v.71l-.32.19-14.48,8.41h-.16a5.22,5.22,0,0,1-6.4-2.74l0-.14a3,3,0,0,0-1.6-1.86,9.93,9.93,0,0,0-8.22-.26,4,4,0,0,0-2.39,2.56c.81,2.05,3.39,2.92,5.56,3.06,3,.43,4.56,1.22,5,2.4a2,2,0,0,1-.44,1.93l-.14.11ZM156.23,35.2a5.91,5.91,0,0,1,1.77.26l.12,0,14.17,8.18,14.08-8.12a.74.74,0,0,0,.13-.67c-.11-.32-.73-1.12-4-1.6-3.32-.21-5.81-1.7-6.61-4l0-.21A5,5,0,0,1,179,25.4a11.06,11.06,0,0,1,9.32.31,4.14,4.14,0,0,1,2.16,2.61c1.33,2.88,4.47,2.15,4.95,2l13.5-7.8L172.29,1.39,158.22,9.52a.74.74,0,0,0-.14.66c.12.32.74,1.13,4,1.61,3.32.2,5.81,1.7,6.61,4l0,.21a5,5,0,0,1-3.11,3.69,11.08,11.08,0,0,1-9.31-.32,4.1,4.1,0,0,1-2.16-2.6c-1.34-2.9-4.48-2.16-5-2l-13.5,7.79,13.71,8a2,2,0,0,1,.44,1.92c-.42,1.19-2,2-4.94,2.4-2.21.14-4.78,1-5.6,3.07a4.1,4.1,0,0,0,2.39,2.56,9.93,9.93,0,0,0,8.22-.26,3,3,0,0,0,1.6-1.87l0-.13A4.9,4.9,0,0,1,156.23,35.2Z"/><path class="cls-multiprotocol-2" d="M146.22,41.81V51a0,0,0,0,0,0,0l2.58-.43h0L151.58,49h0l.94-1.77h0l1.38-1.5h0l2.09-.66h1.06V35.84h-1.22l-2,.7-1.07.94-1.14,2.24h0l-2.07,1.59h0l-3.32.47S146.22,41.8,146.22,41.81Z"/><path class="cls-multiprotocol-2" d="M172.54,44.39v9.19s0,0,0,0l14.7-8.76h0l.35-9-1.67.59h0l-13.41,8Z"/><path class="cls-multiprotocol-2" d="M183.91,25.14v7.73a0,0,0,0,1,0,0l-3.49-.64h0l-3.29-2.7a0,0,0,0,1,0,0l.26-2.76a0,0,0,0,1,0,0l3.51-1.64h3A0,0,0,0,1,183.91,25.14Z"/><path class="cls-multiprotocol-2" d="M193.89,31.09a0,0,0,0,0,0,0v9.21l2-.2h0l14.46-8.35h0V22.57a0,0,0,0,0,0,0L197,30.42h0Z"/><rect class="cls-multiprotocol-2" x="189.59" y="29.01" width="1.2" height="9.22"/><rect class="cls-multiprotocol-2" x="162.43" y="12.37" width="1.2" height="7.55"/><path class="cls-multiprotocol-4" d="M105.13,31.87l.1-.33a8.56,8.56,0,0,0,2.43-.88c1.39-.81,2-1.88,1.89-2.94h0l0-9s0,0,0,0L104.83,17h0l-9.33,6.62h0L76.72,21.87l-.49-.28-.36.2-2.29-.2H61.41s0,0,0,0l0,11.19H51.13L41.6,34.4h0l-3.18-.2s0,0,0,0v9.21l9,5.17.23.71-4.72.37s0,0,0,0v9.14h0c0,1.85,2.24,3.71,6.88,4h0c3.89-.45,5.94-1.93,6.24-3.54,1.64-3.67,5.74-2.4,5.76-2.39h0l14.46,8.34s0,0,0,0l14.46-8.34a1.57,1.57,0,0,0,.37-.87h0a1.08,1.08,0,0,0,0-.18V46.7a7,7,0,0,1,.88.41,3.51,3.51,0,0,1,1.88,2.27c1.64,3.67,5.74,2.4,5.76,2.39h0L114,43.43s0,0,0,0v-9.2h0Z"/><path class="cls-multiprotocol-2" d="M76.25,65.93l-.3-.14L61.53,57.46c-.49-.13-3.62-.86-5,2-.43,2-2.95,3.51-6.75,4-4.92-.3-7.24-2.24-7.53-4.16h0V49.18l.53-.09,3.72-.29-8.71-5V34l.41-.37.28,0,3.07.19L51,32.21h9.71L60.8,21H73.58l2.15.19.5-.28.68.39L95.32,23l9.41-6.68,5.44,2v.44l0,9.61A4,4,0,0,1,108,31.18a7.74,7.74,0,0,1-1.12.52l7.8,2v10l-.28.18L99.88,52.29c-.14.06-4.75,1.48-6.6-2.66l0-.14a3,3,0,0,0-1.58-1.85v8.42a2.18,2.18,0,0,1-.53,1.25l-.14.12Zm-14.12-9.5,14.1,8.14,14.06-8.12a.92.92,0,0,0,.17-.45V45.81l.82.33a8.49,8.49,0,0,1,1,.45A4.14,4.14,0,0,1,94.4,49.2c1.33,2.88,4.46,2.15,4.95,2l14.1-8.14V34.66l-9.06-2.37.36-1.27.36-.07a7.53,7.53,0,0,0,2.25-.81c1.12-.65,1.69-1.48,1.59-2.35l-.07-.67H109v-8l-4.07-1.49-9.23,6.55h-.2L76.42,22.39l-.19-.11-.23.13-2.47-.23H62l-.06,11.2H51.13L41.56,35,39,34.84v8.24l8.87,5.11.54,1.66-4.94.39v8.61c0,1.44,1.94,3.12,6.32,3.39,3.79-.45,5.41-1.87,5.63-3.05l0-.14a5.21,5.21,0,0,1,6.39-2.74H62Z"/><path class="cls-multiprotocol-5" d="M49.92,53.47v9.19h0l2.57-.42h0l2.76-1.59h0l.93-1.78h0l1.38-1.5h0l2.09-.66h1.06V47.5H59.54l-2,.69-1.06,1-1.14,2.24h0L53.27,53h0l-3.33.48S49.92,53.46,49.92,53.47Z"/><path class="cls-multiprotocol-5" d="M76.23,56.05v9.18a0,0,0,0,0,0,0L91,56.49v0l.36-9-1.67.58h0L76.23,56Z"/><path class="cls-multiprotocol-5" d="M87.59,36.8v7.73s0,0,0,0l-3.49-.63h0l-3.29-2.7h0L81,38.44h0l3.51-1.64h3S87.59,36.79,87.59,36.8Z"/><path class="cls-multiprotocol-5" d="M97.57,42.75s0,0,0,0V52l2-.2h0L114,43.43s0,0,0,0V34.23s0,0,0,0l-13.32,7.86h0Z"/><path class="cls-multiprotocol-2" d="M109.33,19.8l.17,8.72h0l-1.82,2.12h0l-8.07-4.8-.34-1.16,1.55-1.42h0l4-.86h0L108.5,21Z"/><rect class="cls-multiprotocol-5" x="93.23" y="40.16" width="1.2" height="9.22"/><rect class="cls-multiprotocol-2" x="67.33" y="24.24" width="1.2" height="7.55"/><path class="cls-multiprotocol-6" d="M151.85,56.06h-7.69l-5.87,1.39-.88-.52h0s-3.67-1.13-5.46,1.84h-9s0,0,0,0l5.93-2.93s0,0,0,0V52.86a1.2,1.2,0,0,0,0-.19V43.46H115.65l-1,.35-.6-.35-2.47,1.42h0l-9.47,3.32h0L88.74,40.4h-8V50a3.34,3.34,0,0,0,1.91,2.53,9,9,0,0,0,3.93,1.09,13.8,13.8,0,0,1,2.42.55l-1.69,1.63h0L83,55h0l-6.74,1.06s0,0,0,0v9.21l14.46,8.34h0s4.12,1.28,5.76-2.39A3.5,3.5,0,0,1,98.34,69a6.3,6.3,0,0,1,.87-.41v9.15a1.46,1.46,0,0,0,.36,1.06L114,87.11s0,0,0,0l14.46-8.34h0s4.12-1.28,5.76,2.39c.3,1.61,2.36,3.09,6.24,3.54h0c4.76-.3,7-2.22,6.87-4.09h0V71.53a0,0,0,0,0,0,0L142.08,71s0,0,0,0l9.79-5.65s0,0,0,0V56.08A0,0,0,0,0,151.85,56.06Z"/><path class="cls-multiprotocol-2" d="M114,87.83l-.33-.24L99.14,79.18a2.1,2.1,0,0,1-.52-1.53V69.5A2.93,2.93,0,0,0,97,71.35l0,.14c-1.83,4.07-6.29,2.78-6.48,2.72l-.13-.06L75.64,65.63V55.57l.51-.1,6.8-1.06h.16l4,.74.72-.7c-.41-.09-.85-.18-1.34-.25A9.53,9.53,0,0,1,82.32,53a4,4,0,0,1-2.21-3V39.81h8.77l.14.06,13.15,7.68,9.17-3.21,2.72-1.57.66.38.94-.29h13.81l0,.61v9.21a1.88,1.88,0,0,1,0,.24v3.25l-.34.18-3.7,1.83h6.17c1.87-2.73,5.27-2,5.88-1.84l.28.12.62.36,5.77-1.35h8.29l0,.62v9.56l-.34.18-8.19,4.73L148,71l0,.56L148,81.21c-.32,1.91-2.62,3.78-7.4,4.09-3.91-.45-6.42-1.92-6.85-4-1.33-2.88-4.46-2.15-4.95-2Zm-14-9.52,14.07,8.12,14.29-8.24c.19,0,4.66-1.34,6.48,2.72l0,.14c.22,1.18,1.84,2.6,5.72,3.06,4.36-.29,6.3-2,6.21-3.47l0-.63h.05v-8l-5.24-.54-.17-.88,9.87-5.69V56.66h-7l-6,1.42-1.11-.61c-.63-.16-3.27-.66-4.63,1.6l-.18.29h-9.81l-.23-.93.43-.23,5.61-2.78V44.05H115.75l-1.16.4-.54-.31-2.22,1.33h-.15L102,48.86l-.26-.17L88.58,41H81.3v9a2.85,2.85,0,0,0,1.61,2,8.49,8.49,0,0,0,3.67,1,15,15,0,0,1,2.57.58l.93.32-2.57,2.48h-.25L83,55.61l-6.16,1v8.37l14.11,8.14c.44.12,3.6.88,4.94-2A4.19,4.19,0,0,1,98,68.45,8.33,8.33,0,0,1,99,68l.82-.33v10A1,1,0,0,0,100,78.31Z"/><path class="cls-multiprotocol-2" d="M128.54,44.79v8h0l-2.11.57h0l-4.77-.33h0l-2.81-1.69h0l-.56-2.26v0l1.42-1.8h0L123,46.05h0l3.66-.58h0l1.86-1.58Z"/><polygon class="cls-multiprotocol-5" points="101.23 58.62 100.37 59.02 97.92 59.88 96.29 61 95.33 62.97 94.68 64.15 92.64 65.08 90.78 64.92 90.78 74.14 94.02 73.52 96.21 71.7 98.06 69.04 98.69 68.18 101.23 66.94 101.23 58.62"/><path class="cls-multiprotocol-2" d="M114.05,77.56v9.19s0,0,0,0l12.28-7.09,2.58-1.35h0V69.13l0,0-14.85,8.44A0,0,0,0,0,114.05,77.56Z"/><path class="cls-multiprotocol-2" d="M138.67,75.43v9.19l0,0,5-.18h0l3.5-2.52s0,0,0,0l.19-2.14h0V73.3h0l-2.72,1.84h0l-3.08.68h0l-2.87-.39S138.67,75.42,138.67,75.43Z"/><path class="cls-multiprotocol-2" d="M138.18,66.46l4.38,1h0l2.91,1h0l6.38-3.54h0V55.74s0,0,0,0l-11.67,6.73-2.52,1.46L137,65l.38.94Z"/><rect class="cls-multiprotocol-2" x="133.81" y="72.43" width="1.2" height="9.35"/><rect class="cls-multiprotocol-5" x="86.16" y="44.26" width="1.2" height="6.09"/><path class="cls-multiprotocol-7" d="M76.23,56.06h-7.7l-5.86,1.39-.89-.52h0s-3.68-1.13-5.47,1.84h-9s0,0,0,0l5.93-2.93s0,0,0,0V52.86a.6.6,0,0,0,0-.19V43.46H40l-1,.35-.6-.35L36,44.87h0l-9.47,3.32h0L13.11,40.4h-8l0,9.58A3.31,3.31,0,0,0,7,52.52a9.08,9.08,0,0,0,3.93,1.09,13.8,13.8,0,0,1,2.42.55l-1.68,1.63h0L7.36,55h0L.61,56.06s0,0,0,0v9.19s0,0,0,0l14.45,8.34h0s4.13,1.28,5.76-2.39A3.53,3.53,0,0,1,22.71,69a5.92,5.92,0,0,1,.88-.41v9.15A1.49,1.49,0,0,0,24,78.77l14.45,8.34s0,0,0,0l14.45-8.34h0s4.13-1.28,5.76,2.39c.3,1.61,2.36,3.09,6.24,3.54h0c4.77-.3,7-2.22,6.87-4.09h0V71.53s0,0,0,0L66.45,71s0,0,0,0l9.78-5.65s0,0,0,0V56.06Z"/><path class="cls-multiprotocol-2" d="M38.38,87.83l-.33-.24L23.52,79.18A2.13,2.13,0,0,1,23,77.65V69.5a3,3,0,0,0-1.58,1.85l0,.14c-1.82,4.07-6.29,2.78-6.48,2.72l-.13-.06L0,65.63V55.57l.51-.1,6.81-1.06h.15l4,.74.72-.7c-.41-.09-.86-.18-1.35-.25A9.53,9.53,0,0,1,6.69,53a3.93,3.93,0,0,1-2.2-3l0-10.22h8.78l.13.06,13.16,7.68,9.16-3.21,2.72-1.57.67.38.93-.29H53.84v9.82a.94.94,0,0,1,0,.24v3.25l-.34.18-3.69,1.83H56c1.88-2.73,5.27-2,5.88-1.84l.28.12.62.36,5.77-1.35h8.3V65.64l-.34.18-8.19,4.73,4.06.42v.56l-.06,9.68C72,83.12,69.71,85,64.93,85.3c-3.91-.45-6.43-1.92-6.86-4-1.33-2.88-4.46-2.15-5-2Zm-14-9.52,14.07,8.12,14.29-8.24c.19,0,4.66-1.34,6.48,2.72l0,.14c.22,1.18,1.84,2.6,5.72,3.06,4.36-.29,6.3-2,6.21-3.47l0-.63h0v-8l-5.24-.54-.16-.88,9.86-5.69V56.66h-7l-6,1.42-1.1-.61c-.64-.16-3.28-.66-4.64,1.6l-.18.29h-9.8l-.24-.93.43-.23,5.61-2.78V44.05H40.12l-1.16.4-.54-.31L36.2,45.47h-.15l-9.66,3.39-.26-.17L13,41H5.67v9a2.85,2.85,0,0,0,1.61,2A8.49,8.49,0,0,0,11,53a14.76,14.76,0,0,1,2.57.58l.94.32L11.9,56.39h-.26l-4.29-.78-6.15,1v8.37l14.1,8.14c.45.12,3.6.88,4.95-2a4.14,4.14,0,0,1,2.16-2.61,8.33,8.33,0,0,1,.95-.45l.82-.33v10A1,1,0,0,0,24.35,78.31Z"/><path class="cls-multiprotocol-2" d="M52.91,44.79v8h0l-2.1.57h0L46,53.06h0L43.2,51.37h0l-.57-2.26v0l1.42-1.8h0l3.27-1.23h0L51,45.47h0l1.86-1.58Z"/><polygon class="cls-multiprotocol-2" points="25.61 58.62 24.74 59.02 22.3 59.88 20.66 61 19.7 62.97 19.05 64.15 17.01 65.08 15.15 64.92 15.15 74.14 18.4 73.52 20.59 71.7 22.43 69.04 23.06 68.18 25.61 66.94 25.61 58.62"/><path class="cls-multiprotocol-5" d="M38.42,77.56v9.19s0,0,0,0l12.28-7.09,2.58-1.35h0V69.13l0,0L38.43,77.55A0,0,0,0,0,38.42,77.56Z"/><path class="cls-multiprotocol-5" d="M63.05,75.43v9.19s0,0,0,0l5-.18h0l3.51-2.52v0l.19-2.14h0V73.3h0L69,75.13h0l-3.09.68h0l-2.87-.39A0,0,0,0,0,63.05,75.43Z"/><path class="cls-multiprotocol-5" d="M62.56,66.46l4.37,1h0l2.91,1h0l6.37-3.54h0V55.74s0,0,0,0L64.55,62.46,62,63.92l-.62,1,.38.94Z"/><rect class="cls-multiprotocol-5" x="58.18" y="72.43" width="1.2" height="9.35"/><rect class="cls-multiprotocol-2" x="10.53" y="44.26" width="1.2" height="6.09"/><path class="cls-multiprotocol-8" d="M105.13,75.58l.1-.33a8.45,8.45,0,0,0,2.43-.88c1.39-.81,2-1.88,1.89-2.94h0l0-9s0,0,0,0l-4.75-1.73h0l-9.33,6.61h0L76.72,65.58l-.49-.28-.36.21-2.29-.21H61.41s0,0,0,0l0,11.19s0,0,0,0H51.13l-9.53,1.6h0l-3.18-.2s0,0,0,0v9.2h0l9,5.17.23.71-4.72.38h0v9.14h0c0,1.85,2.24,3.71,6.88,4h0c3.89-.45,5.94-1.93,6.24-3.54,1.64-3.67,5.74-2.4,5.76-2.39h0L76.22,109h0l14.46-8.35a1.57,1.57,0,0,0,.37-.87h0a1.08,1.08,0,0,0,0-.18V90.41a8.82,8.82,0,0,1,.88.41,3.51,3.51,0,0,1,1.88,2.27c1.64,3.67,5.74,2.4,5.76,2.39h0L114,87.14h0v-9.2a0,0,0,0,0,0,0Z"/><path class="cls-multiprotocol-2" d="M76.25,109.65l-.3-.15-14.42-8.33c-.49-.13-3.62-.86-5,2-.43,2-2.95,3.51-6.75,4-4.79-.29-7.12-2.13-7.5-4h-.06V92.89l.53-.09,3.72-.29-8.71-5V77.66l.41-.37.28,0,3.07.19L51,75.92h9.71l.06-11.2H73.58l2.15.19.5-.28.68.39,18.41,1.68L104.69,60l.29.06,5.19,1.9v.43l0,9.61A4,4,0,0,1,108,74.89a7.74,7.74,0,0,1-1.12.52l7.8,2v9.92l-.31.29L99.88,96c-.14.06-4.75,1.48-6.6-2.66l0-.14a3,3,0,0,0-1.58-1.85v8.42a2.18,2.18,0,0,1-.53,1.25l-.14.12Zm-14.12-9.51,14.1,8.14,14.06-8.12a.92.92,0,0,0,.17-.45V89.52l.82.33a8.49,8.49,0,0,1,1,.45,4.17,4.17,0,0,1,2.16,2.61c1.33,2.88,4.46,2.15,4.95,2l14.1-8.14V78.38L104.39,76l.36-1.27.36-.07a7.53,7.53,0,0,0,2.25-.81c1.12-.65,1.69-1.48,1.59-2.35l-.07-.66H109v-8l-4.08-1.49-9.22,6.55h-.2L76.42,66.1,76.23,66l-.23.13-2.47-.22H62l-.06,11.2H51.13l-9.57,1.6L39,78.55v8.24l8.87,5.11.54,1.66L43.47,94v8.61c0,1.44,1.94,3.12,6.32,3.39,3.79-.44,5.41-1.87,5.63-3l0-.13A5.22,5.22,0,0,1,61.85,100H62Z"/><path class="cls-multiprotocol-9" d="M102.7,58.5c-3.89.45-6,1.93-6.25,3.54-1.64,3.66-5.74,2.39-5.76,2.39h0L76.23,56.08h0L61.76,64.43s-2.22,2.38,4.14,3.32c2.79.18,5.36,1.36,6.14,3.61h0c-.76,4-7.81,5-11.52,2.86A3.49,3.49,0,0,1,58.63,72c-1.64-3.66-5.74-2.39-5.76-2.39h0L38.43,77.9a0,0,0,0,0,0,0l14.44,8.33s2.22,2.38-4.14,3.33c-2.79.17-5.35,1.36-6.14,3.6v0c.76,4,7.81,5,11.53,2.85A3.51,3.51,0,0,0,56,93.79c1.64-3.66,5.74-2.4,5.76-2.39h0l14.46,8.35h0L90.69,91.4s2.22-2.38-4.14-3.33c-2.79-.17-5.35-1.36-6.14-3.6h0c.76-4,7.81-5,11.53-2.86a3.51,3.51,0,0,1,1.88,2.27c1.64,3.67,5.74,2.4,5.76,2.39h0L114,77.93a0,0,0,0,0,0,0L99.58,69.56s-2.22-2.37,4.15-3.32a9.08,9.08,0,0,0,3.93-1.09c3.72-2.15,2.06-6.22-5-6.65Z"/><path class="cls-multiprotocol-2" d="M76.25,100.43l-.3-.15L61.53,92c-.49-.13-3.62-.85-5,2a4.13,4.13,0,0,1-2.16,2.6,11.06,11.06,0,0,1-9.32.31A5,5,0,0,1,42,93.32l0-.2.09-.19c.77-2.23,3.26-3.73,6.63-3.94,3.19-.47,3.81-1.27,3.92-1.6a.72.72,0,0,0-.14-.66L37.83,78.27v-.69l.29-.19L52.7,69c.19-.06,4.66-1.36,6.48,2.72l0,.14a2.94,2.94,0,0,0,1.6,1.86A9.91,9.91,0,0,0,69,74a4,4,0,0,0,2.39-2.56c-.87-2.07-3.41-2.92-5.55-3.06-3-.44-4.57-1.22-5-2.4A1.94,1.94,0,0,1,61.33,64l.13-.11L76.2,55.4l.3.15,14.43,8.32c.48.14,3.61.86,4.94-2,.44-2,2.95-3.51,6.76-4h.07c4.87.3,7,2.21,7.41,3.91.34,1.44-.46,2.88-2.15,3.86a9.78,9.78,0,0,1-4.2,1.17c-3.18.47-3.8,1.27-3.92,1.59a.78.78,0,0,0,.14.67l14.64,8.46v.69l-.29.18L99.88,86.78c-.14.06-4.75,1.48-6.6-2.66l0-.14a3,3,0,0,0-1.6-1.86,9.87,9.87,0,0,0-8.21-.26A4,4,0,0,0,81,84.42c.81,2,3.38,2.92,5.55,3.06,3,.43,4.56,1.22,5,2.4a2,2,0,0,1-.44,1.93l-.14.11ZM62.13,90.92l14.1,8.14,14.06-8.12a.72.72,0,0,0,.14-.67c-.11-.32-.73-1.12-4-1.6-3.32-.21-5.81-1.7-6.61-4l-.06-.38.06-.07a5,5,0,0,1,3.08-3.45,11,11,0,0,1,9.31.31,4.17,4.17,0,0,1,2.16,2.61c1.33,2.88,4.46,2.15,4.95,2l13.5-7.8L99.15,70a2,2,0,0,1-.44-1.92c.41-1.19,2-2,4.93-2.4a8.7,8.7,0,0,0,3.72-1c1.22-.71,1.8-1.64,1.58-2.55-.28-1.21-2.08-2.72-6.22-3-3.85.45-5.46,1.87-5.68,3l0,.13A5.24,5.24,0,0,1,90.6,65h-.16l-.12-.12L76.23,56.77,62.16,64.89a.78.78,0,0,0-.14.67c.12.32.74,1.12,4,1.6,3.32.21,5.81,1.7,6.61,4l.09.24-.08.16a5,5,0,0,1-3.08,3.5,11,11,0,0,1-9.31-.32,4.15,4.15,0,0,1-2.17-2.6c-1.33-2.88-4.46-2.15-4.94-2L39.6,77.91l13.71,8a2,2,0,0,1,.44,1.92c-.42,1.18-2,2-4.93,2.4-2.23.14-4.81,1-5.62,3.09a4,4,0,0,0,2.4,2.54,9.93,9.93,0,0,0,8.22-.27,3,3,0,0,0,1.6-1.86l0-.13a5.22,5.22,0,0,1,6.39-2.75H62Z"/><path class="cls-multiprotocol-2" d="M49.92,97.18v9.19h0l2.57-.42h0l2.75-1.59h0l.93-1.78h0l1.38-1.5h0l2.09-.66h1.06V91.21H59.54l-2,.7-1.06.94-1.14,2.24h0l-2.06,1.59h0l-3.33.48S49.92,97.17,49.92,97.18Z"/><path class="cls-multiprotocol-2" d="M76.23,99.76v9.18s0,0,0,0L91,100.2h0l.36-9-1.67.59h0l-13.4,8Z"/><path class="cls-multiprotocol-2" d="M87.59,80.51v7.73s0,0,0,0l-3.49-.63h0l-3.29-2.7a0,0,0,0,1,0,0L81,82.15a0,0,0,0,1,0,0l3.51-1.64h3S87.59,80.5,87.59,80.51Z"/><path class="cls-multiprotocol-2" d="M97.57,86.46s0,0,0,0v9.21l2-.2h0L114,87.14h0V77.94s0,0,0,0l-13.32,7.86h0Z"/><path class="cls-multiprotocol-2" d="M109.33,63.51l.17,8.72h0l-1.82,2.12s0,0,0,0l-8.07-4.8-.34-1.16L100.79,67h0l4-.85h0l3.71-1.42Z"/><rect class="cls-multiprotocol-2" x="93.23" y="83.87" width="1.2" height="9.22"/><rect class="cls-multiprotocol-2" x="67.33" y="67.96" width="1.2" height="7.55"/><path class="cls-multiprotocol-10" d="M61.78,64.41l14.44-8.33a0,0,0,0,0,0,0L61.78,47.71h0S57.65,46.44,56,50.1c-.3,1.61-2.36,3.09-6.25,3.55h0c-7-.44-8.67-4.51-4.95-6.66a9.08,9.08,0,0,1,3.93-1.09c6.37-.94,4.14-3.32,4.14-3.32L38.43,34.23h0L24,42.58h0s-4.13,1.27-5.76-2.39c-.3-1.61-2.36-3.09-6.25-3.55h0c-7,.44-8.67,4.51-4.95,6.66a9.08,9.08,0,0,0,3.93,1.09c6.37.94,4.14,3.32,4.14,3.32L.62,56.05a0,0,0,0,0,0,0l14.44,8.33h0s4.13,1.28,5.76-2.39c.3-1.61,2.36-3.09,6.25-3.54h0c7,.44,8.67,4.51,5,6.65a9.08,9.08,0,0,1-3.93,1.09c-6.37,1-4.14,3.33-4.14,3.33l14.45,8.34s0,0,0,0l14.45-8.34h0s4.13-1.28,5.76,2.39c.3,1.61,2.36,3.09,6.25,3.54h0c7-.43,8.67-4.51,4.95-6.65a9,9,0,0,0-3.93-1.09C59.56,66.79,61.78,64.41,61.78,64.41Z"/><path class="cls-multiprotocol-2" d="M38.38,78.61l-.33-.24L23.52,70A2,2,0,0,1,23.08,68c.41-1.18,2-2,4.93-2.4a8.52,8.52,0,0,0,3.72-1c1.23-.71,1.8-1.64,1.59-2.55-.29-1.22-2.1-2.73-6.28-3-3.79.45-5.41,1.87-5.63,3.05l0,.14c-1.82,4.07-6.29,2.78-6.48,2.72l-.13-.06L0,56.42v-.69l.28-.19,14.37-8.29a.77.77,0,0,0,.14-.67c-.12-.32-.74-1.12-4-1.6a9.53,9.53,0,0,1-4.14-1.16C5,42.84,4.2,41.4,4.54,40c.39-1.69,2.54-3.6,7.37-3.9l.27,0,0,0c3.69.46,6.13,1.92,6.55,3.92,1.33,2.88,4.46,2.16,4.95,2l14.67-8.47.31.15,14.62,8.47a2,2,0,0,1,.44,1.92c-.41,1.19-2,2-4.93,2.41a8.52,8.52,0,0,0-3.72,1c-1.22.71-1.8,1.64-1.59,2.55.29,1.22,2.1,2.73,6.28,3,3.79-.45,5.41-1.87,5.63-3.06l0-.13a5.23,5.23,0,0,1,6.4-2.75l.27.12L76.82,55.7v.72l-.32.18L62.17,64.88a.74.74,0,0,0-.14.66c.12.32.74,1.12,4,1.61a9.39,9.39,0,0,1,4.14,1.16c1.69,1,2.49,2.42,2.15,3.86-.39,1.69-2.54,3.61-7.36,3.91-3.92-.44-6.44-1.92-6.87-4-1.33-2.88-4.46-2.15-5-2Zm-14-9.52,14.07,8.12L52.63,69h.16a5.23,5.23,0,0,1,6.4,2.75l0,.13c.22,1.18,1.84,2.6,5.73,3.06,4.08-.26,5.89-1.78,6.18-3,.21-.92-.36-1.85-1.59-2.55a8.23,8.23,0,0,0-3.67-1c-2.95-.44-4.57-1.23-5-2.41A2,2,0,0,1,61.34,64l.14-.11L75,56.06,61.47,48.25c-.67-.17-3.6-.72-4.88,2-.43,2-3,3.51-6.75,4-4.94-.3-7.08-2.21-7.48-3.9-.34-1.45.46-2.89,2.15-3.87a9.6,9.6,0,0,1,4.2-1.16c3.18-.48,3.8-1.28,3.92-1.6a.78.78,0,0,0-.14-.67L38.42,34.92,24.26,43.1c-.15.06-4.76,1.47-6.61-2.67l0-.13c-.22-1.18-1.83-2.6-5.69-3.06C7.8,37.51,6,39,5.7,40.23c-.21.91.37,1.84,1.59,2.55a8.49,8.49,0,0,0,3.67,1c2.95.44,4.57,1.22,5,2.41a2,2,0,0,1-.44,1.92l-.14.11L1.8,56.06l13.5,7.8c.45.12,3.6.88,4.95-2,.43-2,2.95-3.51,6.75-4,4.94.3,7.09,2.22,7.48,3.91.34,1.44-.46,2.89-2.15,3.86a9.56,9.56,0,0,1-4.19,1.17c-3.19.48-3.81,1.28-3.93,1.6A.78.78,0,0,0,24.35,69.09Z"/><path class="cls-multiprotocol-11" d="M102.7,14.78c-3.89.46-6,1.94-6.25,3.55-1.64,3.66-5.74,2.39-5.76,2.39h0L76.23,12.37h0L61.76,20.72S59.54,23.1,65.9,24c2.79.18,5.36,1.36,6.14,3.61h0c-.76,4.05-7.81,5-11.52,2.85a3.46,3.46,0,0,1-1.89-2.27c-1.64-3.66-5.74-2.39-5.76-2.39h0L38.43,34.19a0,0,0,0,0,0,0l14.44,8.33s2.22,2.38-4.14,3.33c-2.79.17-5.35,1.36-6.14,3.6h0c.76,4,7.81,5,11.53,2.86A3.51,3.51,0,0,0,56,50.08c1.64-3.67,5.74-2.4,5.76-2.39h0L76.22,56h0l14.46-8.34s2.22-2.38-4.14-3.33c-2.79-.17-5.35-1.36-6.14-3.6h0c.76-4,7.81-5,11.53-2.86a3.51,3.51,0,0,1,1.88,2.27c1.64,3.67,5.74,2.4,5.76,2.39h0L114,34.22a0,0,0,0,0,0,0L99.58,25.85s-2.22-2.38,4.15-3.32a9.08,9.08,0,0,0,3.93-1.09c3.72-2.15,2.06-6.22-5-6.66Z"/><path class="cls-multiprotocol-2" d="M76.25,56.72l-.3-.15L61.53,48.24c-.49-.13-3.62-.86-5,2a4.12,4.12,0,0,1-2.16,2.61,11.06,11.06,0,0,1-9.32.31A5,5,0,0,1,42,49.6l0-.19.09-.19c.77-2.23,3.26-3.73,6.63-3.94,3.19-.48,3.81-1.28,3.92-1.6a.72.72,0,0,0-.14-.66L37.83,34.56v-.69l.29-.19,14.59-8.4c.19-.06,4.66-1.36,6.48,2.72l0,.13A2.93,2.93,0,0,0,60.82,30a9.91,9.91,0,0,0,8.21.26,4,4,0,0,0,2.39-2.56c-.87-2.07-3.41-2.93-5.55-3.06-3-.44-4.57-1.22-5-2.4a1.94,1.94,0,0,1,.44-1.93l.13-.11L76.2,11.69l.3.15,14.43,8.32c.48.13,3.61.86,4.94-2,.44-2,2.95-3.51,6.76-4h.07c4.87.3,7,2.21,7.41,3.91.34,1.44-.46,2.88-2.15,3.86a9.78,9.78,0,0,1-4.2,1.17c-3.18.47-3.8,1.27-3.92,1.59a.78.78,0,0,0,.14.67l14.64,8.45v.7l-.29.18L99.88,43.07c-.14.06-4.75,1.48-6.6-2.66l0-.14a3,3,0,0,0-1.6-1.86,9.87,9.87,0,0,0-8.21-.26A4,4,0,0,0,81,40.71c.81,2,3.38,2.92,5.55,3.06,3,.43,4.56,1.22,5,2.4a2,2,0,0,1-.44,1.93l-.14.11ZM62.13,47.21l14.1,8.14,14.06-8.12a.72.72,0,0,0,.14-.67c-.11-.32-.73-1.12-4-1.6-3.32-.21-5.81-1.71-6.61-4l-.06-.38.06-.07a5,5,0,0,1,3.08-3.45,11,11,0,0,1,9.31.31A4.14,4.14,0,0,1,94.4,40c1.33,2.88,4.46,2.15,4.95,2l13.5-7.8-13.7-7.94a2,2,0,0,1-.44-1.92c.41-1.19,2-2,4.93-2.4a8.74,8.74,0,0,0,3.72-1c1.22-.71,1.8-1.64,1.58-2.55-.28-1.21-2.08-2.72-6.22-3-3.86.45-5.46,1.87-5.68,3.05l0,.13a5.24,5.24,0,0,1-6.4,2.75h-.16l-.12-.12L76.23,13.06,62.16,21.18a.78.78,0,0,0-.14.67c.12.32.74,1.12,4,1.6,3.32.2,5.81,1.7,6.61,4l.09.24-.08.16a5,5,0,0,1-3.08,3.5A11,11,0,0,1,60.22,31a4.15,4.15,0,0,1-2.17-2.6c-1.33-2.88-4.46-2.16-4.94-2L39.6,34.2l13.71,7.95a2,2,0,0,1,.44,1.92c-.42,1.18-2,2-4.93,2.4-2.23.14-4.81,1-5.62,3.09a4,4,0,0,0,2.4,2.54,9.93,9.93,0,0,0,8.22-.27A3,3,0,0,0,55.42,50l0-.13a5.21,5.21,0,0,1,6.39-2.75H62Z"/><path class="cls-multiprotocol-12" d="M137.4,64.41l14.45-8.33a0,0,0,0,0,0,0l-14.44-8.34h0s-4.12-1.27-5.75,2.39c-.3,1.61-2.36,3.09-6.26,3.55h0c-7-.44-8.67-4.51-5-6.66a9,9,0,0,1,3.93-1.09c6.36-.94,4.14-3.32,4.14-3.32l-14.45-8.35h0L99.58,42.58h0s-4.12,1.27-5.76-2.39c-.29-1.61-2.35-3.09-6.25-3.55h0c-7,.44-8.67,4.51-4.95,6.66a9,9,0,0,0,3.93,1.09c6.36.94,4.14,3.32,4.14,3.32L76.25,56.05a0,0,0,0,0,0,0l14.44,8.33h0s4.12,1.28,5.76-2.39c.3-1.61,2.36-3.09,6.25-3.54h0c7,.44,8.68,4.51,5,6.65a9.08,9.08,0,0,1-3.93,1.09c-6.37,1-4.15,3.33-4.15,3.33L114,77.89s0,0,0,0l14.46-8.34h0s4.12-1.28,5.76,2.39c.3,1.61,2.36,3.09,6.25,3.54h0c7-.43,8.68-4.51,5-6.65a9.08,9.08,0,0,0-3.93-1.09C135.18,66.79,137.4,64.41,137.4,64.41Z"/><path class="cls-multiprotocol-2" d="M114,78.61l-.33-.24L99.15,70A2,2,0,0,1,98.71,68c.41-1.18,2-2,4.93-2.4a8.6,8.6,0,0,0,3.72-1c1.22-.71,1.8-1.64,1.59-2.55-.29-1.22-2.11-2.73-6.28-3-3.79.45-5.41,1.87-5.63,3.05l0,.14c-1.83,4.07-6.29,2.78-6.48,2.72l-.13-.06L75.65,56.42v-.71l.32-.18,14.33-8.28a.71.71,0,0,0,.14-.67c-.11-.32-.73-1.12-4-1.6a9.53,9.53,0,0,1-4.14-1.16c-1.69-1-2.5-2.42-2.16-3.87.4-1.69,2.55-3.6,7.37-3.9l.27,0,0,0C91.54,36.54,94,38,94.4,40c1.33,2.88,4.46,2.16,4.95,2L114,33.55l.3.15L129,42.17a2,2,0,0,1,.44,1.92c-.41,1.19-2,2-4.93,2.41a8.52,8.52,0,0,0-3.72,1c-1.23.71-1.8,1.64-1.59,2.55.29,1.22,2.1,2.73,6.28,3,3.79-.45,5.41-1.87,5.63-3.06l0-.13a5.23,5.23,0,0,1,6.4-2.75l.27.12,14.68,8.47v.72l-.31.18L137.8,64.88a.74.74,0,0,0-.14.66c.12.32.74,1.12,4,1.61a9.48,9.48,0,0,1,4.15,1.16c1.69,1,2.49,2.42,2.15,3.86-.4,1.69-2.54,3.61-7.37,3.91-3.91-.44-6.43-1.92-6.86-4-1.33-2.88-4.46-2.15-4.95-2Zm-14-9.52,14.07,8.12L128.26,69h.16a5.23,5.23,0,0,1,6.4,2.75l0,.13c.22,1.18,1.84,2.6,5.73,3.06,4.07-.26,5.89-1.78,6.18-3,.21-.92-.37-1.85-1.59-2.55a8.23,8.23,0,0,0-3.67-1c-3-.44-4.57-1.23-5-2.41A2,2,0,0,1,137,64l.13-.11,13.57-7.84-13.58-7.81c-.67-.17-3.59-.72-4.87,2-.43,2-2.95,3.51-6.76,4-4.93-.3-7.08-2.21-7.48-3.9-.34-1.45.47-2.89,2.16-3.87a9.55,9.55,0,0,1,4.19-1.16c3.19-.48,3.81-1.28,3.92-1.6a.74.74,0,0,0-.13-.67l-14.07-8.12L99.88,43.1c-.14.06-4.75,1.47-6.6-2.67l0-.13c-.22-1.18-1.84-2.6-5.7-3.06-4.12.27-5.93,1.77-6.21,3-.22.91.36,1.84,1.59,2.55a8.49,8.49,0,0,0,3.67,1c3,.44,4.56,1.22,5,2.41a2,2,0,0,1-.44,1.92l-.14.11L77.43,56.06l13.5,7.8c.44.12,3.6.88,4.94-2,.44-2,2.95-3.51,6.76-4,4.94.3,7.08,2.22,7.48,3.91.34,1.44-.46,2.89-2.15,3.86a9.64,9.64,0,0,1-4.2,1.17c-3.18.48-3.8,1.28-3.92,1.6A.78.78,0,0,0,100,69.09Z"/><path class="cls-multiprotocol-13" d="M176.62,78.09a53,53,0,0,0-5.4-.8h0l-2.84-1.64s0,0,0,0l-1.86,1.07h0c-4.87-.57-9.65-1.09-9.66-1.09h-3.28a0,0,0,0,0,0,0l0,13.55s0,0,0,0l-10.81-2.78h0l-12.11,1.82h0v9.2s0,0,0,0l10,5.79s0,0,0,0l-5.56.45s0,0,0,0v9.33h0c.13,1.78,2.33,3.51,6.91,3.79h0c3.86-.46,5.9-1.93,6.2-3.54,1.64-3.66,5.74-2.39,5.76-2.39h0l14.46,8.35h0l37.81-21.83s0,0,0,0v-9.2h0C205.92,88.17,177.23,78.46,176.62,78.09Z"/><path class="cls-multiprotocol-2" d="M168.39,120l-.31-.14-14.42-8.33c-.58-.16-3.63-.84-4.95,2-.43,2-2.93,3.5-6.71,4-4.88-.29-7-2.06-7.49-3.79h-.09l0-.6v-9.85l.53-.09,3.73-.3-8.71-5V87.77l.51-.1,12.3-1.85.12.06,10,2.57.05-13.39.61,0h3.28c.64.07,5,.55,9.53,1.07l2-1.14.3.14,2.79,1.61c5,.61,5.31.74,5.49.85,1.1.51,26.12,9,29.47,10.12l.5.17-.1.53v9.4l-.28.2Zm-16.09-9.86a6,6,0,0,1,1.77.26l.12,0,14.17,8.18,37.23-21.49V88.69c-3.33-1.13-27.66-9.36-29.22-10.06h0c-.13,0-.92-.21-5.23-.74l-.2,0-.09-.09-2.49-1.44-1.63,1h-.25c-4.54-.52-8.95-1-9.63-1.07h-2.73l-.05,13.26-.46.37-.3-.07L142.6,87.05l-11.47,1.73v8.36L141.25,103l-.18.88-.45,0-5,.41,0,8.74c.11,1.43,2.12,3,6.35,3.24,3.76-.45,5.36-1.87,5.58-3l0-.13A4.92,4.92,0,0,1,152.3,110.14Z"/><path class="cls-multiprotocol-14" d="M168.37,66.42h0l-14.46,8.35s-2.22,2.38,4.14,3.33c2.79.17,5.36,1.36,6.14,3.6h0c-.76,4.06-7.81,5-11.53,2.86a3.51,3.51,0,0,1-1.88-2.27c-1.64-3.67-5.74-2.4-5.76-2.39h0l-14.45,8.34s0,0,0,0L145,96.61s2.22,2.38-4.15,3.33c-2.79.17-5.35,1.36-6.13,3.61h0c.75,4,7.81,5,11.52,2.85a3.48,3.48,0,0,0,1.89-2.27c1.64-3.66,5.74-2.4,5.76-2.39h0l14.46,8.35h0l37.8-21.83s0,0,0,0Z"/><path class="cls-multiprotocol-2" d="M168.39,110.78l-.31-.15-14.42-8.32c-.58-.16-3.63-.85-4.95,2a4.15,4.15,0,0,1-2.17,2.6,11.08,11.08,0,0,1-9.31.32,5,5,0,0,1-3.1-3.58l0-.2.09-.19c.78-2.23,3.27-3.73,6.64-3.94,3.2-.48,3.81-1.28,3.92-1.6a.74.74,0,0,0-.14-.66L130,88.62v-.69l.28-.19,14.58-8.4c1.28-.42,4.94-.77,6.49,2.72l0,.13a2.93,2.93,0,0,0,1.59,1.86,9.89,9.89,0,0,0,8.22.27,4,4,0,0,0,2.39-2.57c-.87-2.06-3.41-2.92-5.55-3-3-.44-4.57-1.23-5-2.41a2,2,0,0,1,.44-1.93l.14-.11,14.74-8.51.34.17,38.1,22v.69l-.29.19Zm-16.09-9.86a6,6,0,0,1,1.77.26l.12,0,14.17,8.18L205,88.26,168.36,67.11l-14.07,8.13a.74.74,0,0,0-.14.66c.12.32.74,1.13,4,1.61,3.32.2,5.81,1.7,6.62,4l0,.21a5,5,0,0,1-3.11,3.68,11,11,0,0,1-9.31-.31,4.11,4.11,0,0,1-2.17-2.61c-1.32-2.86-4.45-2.15-5-2l-13.5,7.8,13.7,7.95a2,2,0,0,1,.44,1.92c-.41,1.18-2,2-4.93,2.4-2.22.14-4.8,1-5.61,3.09a4,4,0,0,0,2.4,2.54,10,10,0,0,0,8.21-.26,3,3,0,0,0,1.6-1.87l0-.13A4.92,4.92,0,0,1,152.3,100.92Z"/><path class="cls-multiprotocol-2" d="M142.18,107.58v9.19s0,0,0,0l2.57-.42h0l2.76-1.59h0l.94-1.78h0l1.38-1.5h0l2.09-.66h1v-9.22H151.8l-2,.69-1.06,1-1.14,2.24h0l-2.06,1.59h0l-3.33.48A0,0,0,0,0,142.18,107.58Z"/><path class="cls-multiprotocol-2" d="M168.36,110.11v9.19s0,0,0,0l37.8-21.82s0,0,0,0V88.29a0,0,0,0,0,0,0l-37.8,21.83A0,0,0,0,0,168.36,110.11Z"/><rect class="cls-multiprotocol-2" x="158.57" y="78.15" width="1.2" height="7.55"/></g></g></svg>