<svg xmlns="http://www.w3.org/2000/svg" xmlns:xlink="http://www.w3.org/1999/xlink" viewBox="0 0 76.3 120"><defs><style>.cls-staking-1{fill:url(#linear-gradient-staking);}.cls-staking-2{fill:#ffa900;}.cls-staking-3{fill:#ffbe2e;}.cls-staking-4{fill:url(#linear-gradient-staking-2);}.cls-staking-5{fill:#16110d;}.cls-staking-6{fill:#191410;}.cls-staking-7{fill:#fff;}.cls-staking-8{fill:url(#linear-gradient-staking-3);}.cls-staking-9{fill:url(#linear-gradient-staking-4);}.cls-staking-10{fill:url(#linear-gradient-staking-5);}.cls-staking-11{fill:url(#linear-gradient-staking-6);}.cls-staking-12{fill:url(#linear-gradient-staking-7);}.cls-staking-13{fill:url(#linear-gradient-staking-8);}.cls-staking-14{fill:url(#linear-gradient-staking-9);}.cls-staking-15{fill:url(#linear-gradient-staking-10);}.cls-staking-16{fill:url(#linear-gradient-staking-11);}.cls-staking-17{fill:url(#linear-gradient-staking-12);}.cls-staking-18{fill:#fec;}.cls-staking-19{fill:url(#linear-gradient-staking-13);}.cls-staking-20{fill:url(#linear-gradient-staking-14);}.cls-staking-21{fill:url(#linear-gradient-staking-15);}.cls-staking-22{fill:url(#linear-gradient-staking-16);}.cls-staking-23{fill:url(#linear-gradient-staking-17);}.cls-staking-24{fill:url(#linear-gradient-staking-18);}.cls-staking-25{fill:url(#linear-gradient-staking-19);}.cls-staking-26{fill:url(#linear-gradient-staking-20);}.cls-staking-27{fill:url(#linear-gradient-staking-21);}.cls-staking-28{fill:url(#linear-gradient-staking-22);}.cls-staking-29{fill:url(#linear-gradient-staking-23);}.cls-staking-30{fill:url(#linear-gradient-staking-24);}.cls-staking-31{fill:url(#linear-gradient-staking-25);}.cls-staking-32{fill:url(#linear-gradient-staking-26);}.cls-staking-33{fill:url(#linear-gradient-staking-27);}.cls-staking-34{fill:url(#linear-gradient-staking-28);}.cls-staking-35{fill:url(#linear-gradient-staking-29);}.cls-staking-36{fill:url(#linear-gradient-staking-30);}.cls-staking-37{fill:url(#linear-gradient-staking-31);}.cls-staking-38{fill:url(#linear-gradient-staking-32);}.cls-staking-39{fill:url(#linear-gradient-staking-33);}.cls-staking-40{fill:url(#linear-gradient-staking-34);}</style><linearGradient id="linear-gradient-staking" x1="-253.52" y1="468.43" x2="-252.52" y2="468.43" gradientTransform="matrix(49.51, 0, 0, -30.6, 12577.88, 14413.71)" gradientUnits="userSpaceOnUse"><stop offset="0" stop-color="#070610"/><stop offset="1" stop-color="#4c125a"/></linearGradient><linearGradient id="linear-gradient-staking-2" x1="-253.52" y1="468.43" x2="-252.52" y2="468.43" gradientTransform="matrix(49.51, 0, 0, -30.6, 12577.62, 14410.25)" xlink:href="#linear-gradient-staking"/><linearGradient id="linear-gradient-staking-3" x1="-253.52" y1="468.43" x2="-252.52" y2="468.43" gradientTransform="matrix(49.51, 0, 0, -30.6, 12577.88, 14407.01)" xlink:href="#linear-gradient-staking"/><linearGradient id="linear-gradient-staking-4" x1="-253.52" y1="468.43" x2="-252.52" y2="468.43" gradientTransform="matrix(49.51, 0, 0, -30.6, 12577.62, 14403.07)" xlink:href="#linear-gradient-staking"/><linearGradient id="linear-gradient-staking-5" x1="-253.52" y1="468.43" x2="-252.52" y2="468.43" gradientTransform="matrix(49.51, 0, 0, -30.6, 12577.88, 14399.37)" xlink:href="#linear-gradient-staking"/><linearGradient id="linear-gradient-staking-6" x1="-253.52" y1="468.43" x2="-252.52" y2="468.43" gradientTransform="matrix(49.51, 0, 0, -30.6, 12577.62, 14395.9)" xlink:href="#linear-gradient-staking"/><linearGradient id="linear-gradient-staking-7" x1="-253.52" y1="468.43" x2="-252.52" y2="468.43" gradientTransform="matrix(49.51, 0, 0, -30.6, 12577.88, 14392.2)" xlink:href="#linear-gradient-staking"/><linearGradient id="linear-gradient-staking-8" x1="-253.52" y1="468.43" x2="-252.52" y2="468.43" gradientTransform="matrix(49.51, 0, 0, -30.6, 12577.62, 14388.73)" xlink:href="#linear-gradient-staking"/><linearGradient id="linear-gradient-staking-9" x1="-253.52" y1="468.43" x2="-252.52" y2="468.43" gradientTransform="matrix(49.51, 0, 0, -30.6, 12577.62, 14384.68)" xlink:href="#linear-gradient-staking"/><linearGradient id="linear-gradient-staking-10" x1="-253.52" y1="468.43" x2="-252.52" y2="468.43" gradientTransform="matrix(49.51, 0, 0, -30.6, 12577.62, 14381.2)" xlink:href="#linear-gradient-staking"/><linearGradient id="linear-gradient-staking-11" x1="-253.52" y1="468.43" x2="-252.52" y2="468.43" gradientTransform="matrix(49.51, 0, 0, -30.6, 12577.88, 14377.17)" xlink:href="#linear-gradient-staking"/><linearGradient id="linear-gradient-staking-12" x1="-253.52" y1="468.43" x2="-252.52" y2="468.43" gradientTransform="matrix(49.51, 0, 0, -30.6, 12577.62, 14373.71)" xlink:href="#linear-gradient-staking"/><linearGradient id="linear-gradient-staking-13" x1="-253.52" y1="468.43" x2="-252.52" y2="468.43" gradientTransform="matrix(49.51, 0, 0, -30.6, 12577.7, 14369.5)" xlink:href="#linear-gradient-staking"/><linearGradient id="linear-gradient-staking-14" x1="-253.52" y1="468.43" x2="-252.52" y2="468.43" gradientTransform="matrix(49.51, 0, 0, -30.6, 12577.7, 14364.83)" xlink:href="#linear-gradient-staking"/><linearGradient id="linear-gradient-staking-15" x1="-253.52" y1="468.43" x2="-252.52" y2="468.43" gradientTransform="matrix(49.51, 0, 0, -30.6, 12577.96, 14362.45)" xlink:href="#linear-gradient-staking"/><linearGradient id="linear-gradient-staking-16" x1="-253.52" y1="468.43" x2="-252.52" y2="468.43" gradientTransform="matrix(49.51, 0, 0, -30.6, 12577.7, 14357.31)" xlink:href="#linear-gradient-staking"/><linearGradient id="linear-gradient-staking-17" x1="-253.52" y1="468.43" x2="-252.52" y2="468.43" gradientTransform="matrix(49.51, 0, 0, -30.6, 12577.7, 14354.47)" xlink:href="#linear-gradient-staking"/><linearGradient id="linear-gradient-staking-18" x1="-253.52" y1="468.43" x2="-252.52" y2="468.43" gradientTransform="matrix(49.51, 0, 0, -30.6, 12577.7, 14349.79)" xlink:href="#linear-gradient-staking"/><linearGradient id="linear-gradient-staking-19" x1="-252.2" y1="464.55" x2="-251.2" y2="464.55" gradientTransform="matrix(39.54, 0, 0, -23.02, 10003.01, 10708.9)" xlink:href="#linear-gradient-staking"/><linearGradient id="linear-gradient-staking-20" x1="-252.2" y1="452.85" x2="-251.2" y2="452.85" gradientTransform="matrix(39.54, 0, 0, -13.19, 10003.01, 5981.33)" xlink:href="#linear-gradient-staking"/><linearGradient id="linear-gradient-staking-21" x1="-253.52" y1="468.43" x2="-252.52" y2="468.43" gradientTransform="matrix(49.51, 0, 0, -30.6, 12551.7, 14438.4)" xlink:href="#linear-gradient-staking"/><linearGradient id="linear-gradient-staking-22" x1="-253.52" y1="468.43" x2="-252.52" y2="468.43" gradientTransform="matrix(49.51, 0, 0, -30.6, 12551.7, 14434.45)" xlink:href="#linear-gradient-staking"/><linearGradient id="linear-gradient-staking-23" x1="-253.52" y1="468.43" x2="-252.52" y2="468.43" gradientTransform="matrix(49.51, 0, 0, -30.6, 12551.7, 14430.76)" xlink:href="#linear-gradient-staking"/><linearGradient id="linear-gradient-staking-24" x1="-253.52" y1="468.43" x2="-252.52" y2="468.43" gradientTransform="matrix(49.51, 0, 0, -30.6, 12551.7, 14427.28)" xlink:href="#linear-gradient-staking"/><linearGradient id="linear-gradient-staking-25" x1="-253.52" y1="468.43" x2="-252.52" y2="468.43" gradientTransform="matrix(49.51, 0, 0, -30.6, 12551.7, 14424.06)" xlink:href="#linear-gradient-staking"/><linearGradient id="linear-gradient-staking-26" x1="-253.52" y1="468.43" x2="-252.52" y2="468.43" gradientTransform="matrix(49.5, 0, 0, -30.6, 12549.63, 14420.11)" xlink:href="#linear-gradient-staking"/><linearGradient id="linear-gradient-staking-27" x1="-253.52" y1="468.43" x2="-252.52" y2="468.43" gradientTransform="matrix(49.51, 0, 0, -30.6, 12551.7, 14416.07)" xlink:href="#linear-gradient-staking"/><linearGradient id="linear-gradient-staking-28" x1="-253.52" y1="468.43" x2="-252.52" y2="468.43" gradientTransform="matrix(49.51, 0, 0, -30.6, 12551.7, 14411.65)" xlink:href="#linear-gradient-staking"/><linearGradient id="linear-gradient-staking-29" x1="-253.52" y1="468.43" x2="-252.52" y2="468.43" gradientTransform="matrix(49.51, 0, 0, -30.6, 12551.7, 14409.03)" xlink:href="#linear-gradient-staking"/><linearGradient id="linear-gradient-staking-30" x1="-253.52" y1="468.43" x2="-252.52" y2="468.43" gradientTransform="matrix(49.51, 0, 0, -30.6, 12551.7, 14405.1)" xlink:href="#linear-gradient-staking"/><linearGradient id="linear-gradient-staking-31" x1="-253.52" y1="468.43" x2="-252.52" y2="468.43" gradientTransform="matrix(49.51, 0, 0, -30.6, 12552.04, 14400.89)" xlink:href="#linear-gradient-staking"/><linearGradient id="linear-gradient-staking-32" x1="-253.52" y1="468.43" x2="-252.52" y2="468.43" gradientTransform="matrix(49.51, 0, 0, -30.6, 12552.04, 14396.2)" xlink:href="#linear-gradient-staking"/><linearGradient id="linear-gradient-staking-33" x1="-252.2" y1="464.55" x2="-251.2" y2="464.55" gradientTransform="matrix(39.54, 0, 0, -23.02, 9977.08, 10755.32)" xlink:href="#linear-gradient-staking"/><linearGradient id="linear-gradient-staking-34" x1="-252.2" y1="452.85" x2="-251.2" y2="452.85" gradientTransform="matrix(39.54, 0, 0, -13.19, 9977.08, 6027.78)" xlink:href="#linear-gradient-staking"/></defs><g id="Layer_2" data-name="Layer 2"><g id="Layer_1-2" data-name="Layer 1"><g id="Group_55423" data-name="Group 55423"><path id="Path_40538" data-name="Path 40538" class="cls-staking-1" d="M74.35,74.93C70.93,69,61.81,64.79,51.07,64.79S31.22,69,27.79,74.93H26.32v5.16c0,8.45,11.08,15.3,24.75,15.3s24.76-6.85,24.76-15.3V74.93Z"/><path id="Path_40539" data-name="Path 40539" class="cls-staking-2" d="M51.07,95.78c-13.87,0-25.15-7-25.15-15.7V74.53h1.65c3.67-6.07,13.07-10.14,23.5-10.14S70.9,68.46,74.58,74.53h1.64v5.55C76.22,88.74,64.94,95.78,51.07,95.78ZM26.71,75.33v4.76C26.71,88.3,37.64,95,51.07,95s24.36-6.69,24.36-14.9V75.33h-1.3l-.11-.2c-3.46-5.95-12.67-9.95-22.94-9.95s-19.49,4-22.94,9.95l-.12.2Z"/></g><g id="Group_55424" data-name="Group 55424"><path id="Path_40540" data-name="Path 40540" class="cls-staking-3" d="M75.83,74.93c0,8.45-11.09,15.3-24.76,15.3s-24.75-6.85-24.75-15.3,11.08-15.3,24.75-15.3S75.83,66.48,75.83,74.93Z"/><ellipse id="Ellipse_810" data-name="Ellipse 810" class="cls-staking-4" cx="51.07" cy="76.15" rx="24.75" ry="15.3"/><path id="Path_40541" data-name="Path 40541" class="cls-staking-2" d="M51.07,90.63c-13.87,0-25.15-7-25.15-15.7s11.28-15.7,25.15-15.7,25.15,7,25.15,15.7S64.94,90.63,51.07,90.63Zm0-30.6c-13.43,0-24.36,6.68-24.36,14.9s10.93,14.9,24.36,14.9,24.36-6.69,24.36-14.9S64.5,60,51.07,60Z"/></g><g id="Group_55425" data-name="Group 55425"><ellipse id="Ellipse_811" data-name="Ellipse 811" class="cls-staking-3" cx="51.07" cy="74.24" rx="19.77" ry="11.51"/><path id="Path_40542" data-name="Path 40542" class="cls-staking-5" d="M51.07,86.15c-11.12,0-20.16-5.34-20.16-11.91s9-11.9,20.16-11.9,20.17,5.34,20.17,11.9S62.19,86.15,51.07,86.15Zm0-23c-10.68,0-19.37,5-19.37,11.11s8.69,11.12,19.37,11.12,19.38-5,19.38-11.12S61.75,63.13,51.07,63.13Z"/></g><g id="Group_55426" data-name="Group 55426"><path id="Path_40543" data-name="Path 40543" class="cls-staking-3" d="M51.07,62.73c-10.92,0-19.77,5.16-19.77,11.51a6.81,6.81,0,0,0,.24,1.68c1.4-5.56,9.6-9.83,19.53-9.83s18.14,4.27,19.54,9.83a7.31,7.31,0,0,0,.23-1.68C70.84,67.89,62,62.73,51.07,62.73Z"/><path id="Path_40544" data-name="Path 40544" class="cls-staking-5" d="M70.37,76.74,70.22,76c-1.36-5.44-9.6-9.54-19.15-9.54S33.29,70.58,31.92,76l-.22.87L31.15,76a7.63,7.63,0,0,1-.24-1.78c0-6.56,9-11.9,20.16-11.9s20.17,5.34,20.17,11.9A7.15,7.15,0,0,1,71,76ZM51.07,63.13c-10.68,0-19.37,5-19.37,11.11v.07c2.42-5.07,10.19-8.62,19.37-8.62s17,3.54,19.38,8.62v-.07C70.45,68.12,61.75,63.13,51.07,63.13Z"/></g><path id="Path_40545" data-name="Path 40545" class="cls-staking-6" d="M47.79,63v3.25l-5.52,1-5.42,2.33-3.92,3.43-1.4,2.87-.23-2.87L33,69.62l3-2.79,4.9-2.44,6-1.4Z"/><path id="Path_40546" data-name="Path 40546" class="cls-staking-2" d="M53.85,90.13v5.26l5.87-1,5.66-1.67L71.24,89l3.6-4.5,1-3-.09-4.1L73,82.63,67.45,86.4l-8.29,3Z"/><path id="Path_40547" data-name="Path 40547" class="cls-staking-7" d="M50.19,90.28v5.15l-2.4-.18V89.84Z"/><g id="Group_55428" data-name="Group 55428"><path id="Path_40548" data-name="Path 40548" class="cls-staking-8" d="M74.35,67.76c-3.42-5.91-12.54-10.14-23.28-10.14S31.22,61.85,27.79,67.76H26.32v5.16c0,8.45,11.08,15.3,24.75,15.3s24.76-6.85,24.76-15.3V67.76Z"/><path id="Path_40549" data-name="Path 40549" class="cls-staking-2" d="M51.07,88.61c-13.87,0-25.15-7-25.15-15.7V67.37h1.65c3.67-6.08,13.07-10.15,23.5-10.15S70.9,61.29,74.58,67.37h1.64v5.55C76.22,81.57,64.94,88.61,51.07,88.61ZM26.71,68.16v4.76c0,8.22,10.93,14.9,24.36,14.9s24.36-6.69,24.36-14.9V68.16h-1.3L74,68C70.56,62,61.35,58,51.08,58S31.59,62,28.14,68l-.12.2Z"/></g><g id="Group_55429" data-name="Group 55429"><path id="Path_40550" data-name="Path 40550" class="cls-staking-3" d="M75.83,67.76c0,8.45-11.09,15.3-24.76,15.3s-24.75-6.85-24.75-15.3,11.08-15.3,24.75-15.3S75.83,59.31,75.83,67.76Z"/><ellipse id="Ellipse_812" data-name="Ellipse 812" class="cls-staking-9" cx="51.07" cy="68.98" rx="24.75" ry="15.3"/><path id="Path_40551" data-name="Path 40551" class="cls-staking-2" d="M51.07,83.46c-13.87,0-25.15-7-25.15-15.7s11.28-15.7,25.15-15.7,25.15,7,25.15,15.7S64.94,83.46,51.07,83.46Zm0-30.6c-13.43,0-24.36,6.68-24.36,14.9s10.93,14.9,24.36,14.9S75.43,76,75.43,67.76,64.5,52.86,51.07,52.86Z"/></g><g id="Group_55430" data-name="Group 55430"><ellipse id="Ellipse_813" data-name="Ellipse 813" class="cls-staking-3" cx="51.07" cy="67.07" rx="19.77" ry="11.51"/><path id="Path_40552" data-name="Path 40552" class="cls-staking-5" d="M51.07,79C40,79,30.91,73.64,30.91,67.07s9-11.9,20.16-11.9,20.17,5.34,20.17,11.9S62.19,79,51.07,79Zm0-23c-10.68,0-19.37,5-19.37,11.11s8.69,11.12,19.37,11.12,19.38-5,19.38-11.12S61.75,56,51.07,56Z"/></g><g id="Group_55431" data-name="Group 55431"><path id="Path_40553" data-name="Path 40553" class="cls-staking-3" d="M51.07,55.56c-10.92,0-19.77,5.16-19.77,11.51a6.81,6.81,0,0,0,.24,1.68c1.4-5.56,9.6-9.83,19.53-9.83s18.14,4.27,19.54,9.83a7.31,7.31,0,0,0,.23-1.68C70.84,60.72,62,55.56,51.07,55.56Z"/><path id="Path_40554" data-name="Path 40554" class="cls-staking-5" d="M70.37,69.57l-.15-.72c-1.36-5.44-9.6-9.54-19.15-9.54s-17.78,4.1-19.15,9.54l-.22.88-.55-.88a7.63,7.63,0,0,1-.24-1.78c0-6.56,9-11.9,20.16-11.9s20.17,5.34,20.17,11.9A7.15,7.15,0,0,1,71,68.85ZM51.07,56C40.39,56,31.7,61,31.7,67.07v.07c2.42-5.08,10.19-8.62,19.37-8.62s17,3.54,19.38,8.62v-.07C70.45,61,61.75,56,51.07,56Z"/></g><path id="Path_40555" data-name="Path 40555" class="cls-staking-6" d="M47.79,55.83v3.24l-5.52,1-5.42,2.33-3.92,3.43-1.4,2.87-.23-2.87L33,62.45l3-2.79,4.9-2.44,6-1.4Z"/><path id="Path_40556" data-name="Path 40556" class="cls-staking-2" d="M53.85,83v5.26l5.87-1,5.66-1.67,5.86-3.72,3.6-4.5,1-3-.09-4.1L73,75.46l-5.52,3.77-8.29,3Z"/><path id="Path_40557" data-name="Path 40557" class="cls-staking-7" d="M50.19,83.11v5.15l-2.4-.18V82.67Z"/><g id="Group_55433" data-name="Group 55433"><path id="Path_40558" data-name="Path 40558" class="cls-staking-10" d="M74.35,60.59c-3.42-5.91-12.54-10.14-23.28-10.14S31.22,54.68,27.79,60.59H26.32v5.16c0,8.45,11.08,15.3,24.75,15.3s24.76-6.85,24.76-15.3V60.59Z"/><path id="Path_40559" data-name="Path 40559" class="cls-staking-2" d="M51.07,81.44c-13.87,0-25.15-7-25.15-15.7V60.2h1.65c3.67-6.08,13.07-10.15,23.5-10.15S70.9,54.12,74.58,60.2h1.64v5.55C76.22,74.4,64.94,81.44,51.07,81.44ZM26.71,61v4.76c0,8.22,10.93,14.9,24.36,14.9S75.43,74,75.43,65.75V61h-1.3l-.11-.2c-3.46-5.95-12.67-9.95-22.94-9.95s-19.49,4-22.94,9.95L28,61Z"/></g><g id="Group_55434" data-name="Group 55434"><path id="Path_40560" data-name="Path 40560" class="cls-staking-3" d="M75.83,60.59c0,8.45-11.09,15.3-24.76,15.3S26.32,69,26.32,60.59s11.08-15.3,24.75-15.3S75.83,52.14,75.83,60.59Z"/><ellipse id="Ellipse_814" data-name="Ellipse 814" class="cls-staking-11" cx="51.07" cy="61.81" rx="24.75" ry="15.3"/><path id="Path_40561" data-name="Path 40561" class="cls-staking-2" d="M51.07,76.29c-13.87,0-25.15-7.05-25.15-15.7s11.28-15.7,25.15-15.7,25.15,7,25.15,15.7S64.94,76.29,51.07,76.29Zm0-30.6c-13.43,0-24.36,6.68-24.36,14.9s10.93,14.9,24.36,14.9,24.36-6.69,24.36-14.9S64.5,45.69,51.07,45.69Z"/></g><g id="Group_55435" data-name="Group 55435"><ellipse id="Ellipse_815" data-name="Ellipse 815" class="cls-staking-3" cx="51.07" cy="59.9" rx="19.77" ry="11.51"/><path id="Path_40562" data-name="Path 40562" class="cls-staking-5" d="M51.07,71.81C40,71.81,30.91,66.47,30.91,59.9S40,48,51.07,48s20.17,5.34,20.17,11.9S62.19,71.81,51.07,71.81Zm0-23c-10.68,0-19.37,5-19.37,11.11S40.39,71,51.07,71,70.45,66,70.45,59.9,61.75,48.79,51.07,48.79Z"/></g><g id="Group_55436" data-name="Group 55436"><path id="Path_40563" data-name="Path 40563" class="cls-staking-3" d="M51.07,48.39c-10.92,0-19.77,5.16-19.77,11.51a6.81,6.81,0,0,0,.24,1.68c1.4-5.56,9.6-9.83,19.53-9.83S69.21,56,70.61,61.58a7.31,7.31,0,0,0,.23-1.68C70.84,53.55,62,48.39,51.07,48.39Z"/><path id="Path_40564" data-name="Path 40564" class="cls-staking-5" d="M70.37,62.4l-.15-.72c-1.36-5.44-9.6-9.54-19.15-9.54s-17.78,4.1-19.15,9.54l-.22.87-.55-.87a7.63,7.63,0,0,1-.24-1.78c0-6.56,9-11.9,20.16-11.9s20.17,5.34,20.17,11.9A7.15,7.15,0,0,1,71,61.68ZM51.07,48.79c-10.68,0-19.37,5-19.37,11.11V60c2.42-5.08,10.19-8.62,19.37-8.62S68,54.89,70.45,60V59.9c0-6.13-8.7-11.11-19.38-11.11Z"/></g><path id="Path_40565" data-name="Path 40565" class="cls-staking-6" d="M47.79,48.66V51.9L42.27,53l-5.42,2.33-3.92,3.43-1.4,2.87-.23-2.87L33,55.28l3-2.79,4.9-2.44,6-1.4Z"/><path id="Path_40566" data-name="Path 40566" class="cls-staking-2" d="M53.85,75.79v5.26l5.87-1,5.66-1.67,5.86-3.72,3.6-4.5,1-3-.09-4.1L73,68.29l-5.52,3.77-8.29,3Z"/><path id="Path_40567" data-name="Path 40567" class="cls-staking-7" d="M50.19,75.94v5.15l-2.4-.18V75.49Z"/><g id="Group_55438" data-name="Group 55438"><path id="Path_40568" data-name="Path 40568" class="cls-staking-12" d="M74.35,53.43c-3.42-5.91-12.54-10.15-23.28-10.15S31.22,47.52,27.79,53.43H26.32v5.15c0,8.45,11.08,15.3,24.75,15.3S75.83,67,75.83,58.58V53.43Z"/><path id="Path_40569" data-name="Path 40569" class="cls-staking-2" d="M51.07,74.27c-13.87,0-25.15-7-25.15-15.7V53h1.65C31.24,47,40.64,42.88,51.07,42.88S70.9,47,74.58,53h1.64v5.55C76.22,67.23,64.94,74.27,51.07,74.27ZM26.71,53.82v4.76c0,8.21,10.93,14.9,24.36,14.9s24.36-6.69,24.36-14.9V53.82h-1.3l-.11-.2c-3.46-5.95-12.67-9.95-22.94-9.95s-19.49,4-22.94,9.95l-.12.2Z"/></g><g id="Group_55439" data-name="Group 55439"><path id="Path_40570" data-name="Path 40570" class="cls-staking-3" d="M75.83,53.43c0,8.44-11.09,15.3-24.76,15.3s-24.75-6.85-24.75-15.3,11.08-15.3,24.75-15.3S75.83,45,75.83,53.43Z"/><ellipse id="Ellipse_816" data-name="Ellipse 816" class="cls-staking-13" cx="51.07" cy="54.63" rx="24.75" ry="15.3"/><path id="Path_40571" data-name="Path 40571" class="cls-staking-2" d="M51.07,69.12c-13.87,0-25.15-7.05-25.15-15.7S37.2,37.73,51.07,37.73s25.15,7,25.15,15.7S64.94,69.12,51.07,69.12Zm0-30.6c-13.43,0-24.36,6.68-24.36,14.9s10.93,14.9,24.36,14.9,24.36-6.69,24.36-14.9S64.5,38.52,51.07,38.52Z"/></g><g id="Group_55440" data-name="Group 55440"><ellipse id="Ellipse_817" data-name="Ellipse 817" class="cls-staking-3" cx="51.07" cy="52.73" rx="19.77" ry="11.51"/><path id="Path_40572" data-name="Path 40572" class="cls-staking-5" d="M51.07,64.64c-11.12,0-20.16-5.34-20.16-11.9s9-11.91,20.16-11.91,20.17,5.34,20.17,11.91S62.19,64.64,51.07,64.64Zm0-23c-10.68,0-19.37,5-19.37,11.11s8.69,11.12,19.37,11.12,19.38-5,19.38-11.12S61.75,41.62,51.07,41.62Z"/></g><g id="Group_55441" data-name="Group 55441"><path id="Path_40573" data-name="Path 40573" class="cls-staking-3" d="M51.07,41.23c-10.92,0-19.77,5.15-19.77,11.51a6.8,6.8,0,0,0,.24,1.67c1.4-5.56,9.6-9.83,19.53-9.83s18.14,4.27,19.54,9.83a7.3,7.3,0,0,0,.23-1.67C70.84,46.38,62,41.23,51.07,41.23Z"/><path id="Path_40574" data-name="Path 40574" class="cls-staking-5" d="M70.37,55.23l-.15-.72C68.86,49.07,60.62,45,51.07,45s-17.78,4.1-19.15,9.54l-.22.87-.55-.87a7.63,7.63,0,0,1-.24-1.78c0-6.56,9-11.9,20.16-11.9s20.17,5.34,20.17,11.9A7,7,0,0,1,71,54.5ZM51.07,41.62c-10.68,0-19.37,5-19.37,11.11v.07c2.42-5.08,10.19-8.62,19.37-8.62s17,3.54,19.38,8.62v-.07C70.45,46.6,61.75,41.62,51.07,41.62Z"/></g><path id="Path_40575" data-name="Path 40575" class="cls-staking-6" d="M47.79,41.49v3.24l-5.52,1.05-5.42,2.33-3.92,3.43-1.4,2.87-.23-2.87L33,48.1l3-2.78,4.9-2.44,6-1.4Z"/><path id="Path_40576" data-name="Path 40576" class="cls-staking-2" d="M53.85,68.63v5.25l5.87-1,5.66-1.67,5.86-3.72,3.6-4.5,1-3-.09-4.1L73,61.12l-5.52,3.77-8.29,3Z"/><path id="Path_40577" data-name="Path 40577" class="cls-staking-7" d="M50.19,68.77v5.16l-2.4-.19V68.33Z"/><g id="Group_55443" data-name="Group 55443"><path id="Path_40578" data-name="Path 40578" class="cls-staking-14" d="M74.35,45.9C70.93,40,61.81,35.76,51.07,35.76S31.22,40,27.79,45.9H26.32v5.16c0,8.45,11.08,15.3,24.75,15.3s24.76-6.85,24.76-15.3V45.9Z"/><path id="Path_40579" data-name="Path 40579" class="cls-staking-2" d="M51.07,66.76c-13.86,0-25.15-7.05-25.15-15.7V45.5h1.65c3.67-6.07,13.07-10.14,23.5-10.14S70.91,39.43,74.58,45.5h1.64v5.56C76.22,59.71,64.94,66.76,51.07,66.76ZM26.71,46.3v4.76c0,8.22,10.93,14.9,24.36,14.9s24.36-6.69,24.36-14.9V46.3h-1.3L74,46.1c-3.46-6-12.67-10-22.94-10s-19.49,4-22.94,10l-.12.2Z"/></g><g id="Group_55444" data-name="Group 55444"><path id="Path_40580" data-name="Path 40580" class="cls-staking-3" d="M75.83,45.9c0,8.45-11.09,15.3-24.76,15.3S26.32,54.35,26.32,45.9,37.4,30.6,51.07,30.6,75.83,37.45,75.83,45.9Z"/><path id="Path_40581" data-name="Path 40581" class="cls-staking-15" d="M75.83,47.12c0,8.45-11.09,15.3-24.76,15.3s-24.75-6.85-24.75-15.3,11.08-15.3,24.75-15.3S75.83,38.67,75.83,47.12Z"/><path id="Path_40582" data-name="Path 40582" class="cls-staking-2" d="M51.07,61.6c-13.86,0-25.15-7-25.15-15.7S37.21,30.2,51.07,30.2s25.15,7,25.15,15.7S64.94,61.6,51.07,61.6Zm0-30.6c-13.43,0-24.36,6.68-24.36,14.9S37.64,60.8,51.07,60.8s24.36-6.69,24.36-14.9S64.5,31,51.07,31Z"/></g><g id="Group_55445" data-name="Group 55445"><ellipse id="Ellipse_818" data-name="Ellipse 818" class="cls-staking-3" cx="51.07" cy="45.22" rx="19.77" ry="11.51"/><path id="Path_40583" data-name="Path 40583" class="cls-staking-5" d="M51.07,57.13c-11.12,0-20.16-5.35-20.16-11.91s9-11.9,20.16-11.9,20.17,5.34,20.17,11.9S62.19,57.13,51.07,57.13Zm0-23c-10.68,0-19.37,5-19.37,11.11s8.69,11.11,19.37,11.11,19.38-5,19.38-11.12S61.76,34.1,51.07,34.1Z"/></g><g id="Group_55446" data-name="Group 55446"><path id="Path_40584" data-name="Path 40584" class="cls-staking-3" d="M51.07,33.71c-10.92,0-19.77,5.15-19.77,11.51a6.74,6.74,0,0,0,.24,1.67c1.4-5.56,9.6-9.83,19.53-9.83s18.14,4.27,19.54,9.83a6.72,6.72,0,0,0,.23-1.67C70.84,38.86,62,33.71,51.07,33.71Z"/><path id="Path_40585" data-name="Path 40585" class="cls-staking-5" d="M70.37,47.71,70.23,47c-1.37-5.44-9.6-9.54-19.16-9.54S33.29,41.55,31.92,47l-.22.88L31.15,47a7.62,7.62,0,0,1-.24-1.77c0-6.57,9-11.91,20.16-11.91s20.17,5.34,20.17,11.91A7.13,7.13,0,0,1,71,47ZM51.07,34.1c-10.68,0-19.37,5-19.37,11.12v.06c2.42-5.07,10.19-8.62,19.37-8.62s17,3.55,19.38,8.62v-.06C70.45,39.09,61.76,34.1,51.07,34.1Z"/></g><path id="Path_40586" data-name="Path 40586" class="cls-staking-6" d="M47.79,34v3.25l-5.52,1-5.42,2.33L32.93,44l-1.4,2.87L31.3,44,33,40.59l3-2.79,4.9-2.44,6-1.4Z"/><path id="Path_40587" data-name="Path 40587" class="cls-staking-2" d="M53.85,61.11v5.25l5.88-1,5.65-1.67L71.24,60l3.6-4.5,1-3-.09-4.1L73,53.6l-5.53,3.77-8.28,3Z"/><path id="Path_40588" data-name="Path 40588" class="cls-staking-7" d="M50.19,61.25v5.16l-2.4-.19V60.81Z"/><g id="Group_55448" data-name="Group 55448"><path id="Path_40589" data-name="Path 40589" class="cls-staking-16" d="M74.36,38.39c-3.43-5.9-12.55-10.14-23.29-10.14S31.22,32.49,27.79,38.39H26.32v5.16c0,8.45,11.08,15.3,24.75,15.3S75.83,52,75.83,43.55V38.39Z"/><path id="Path_40590" data-name="Path 40590" class="cls-staking-2" d="M51.07,59.25c-13.86,0-25.15-7-25.15-15.7V38h1.65c3.67-6.07,13.08-10.14,23.5-10.14S70.91,31.92,74.58,38h1.64v5.56C76.22,52.21,64.94,59.25,51.07,59.25ZM26.71,38.79v4.76c0,8.22,10.93,14.9,24.36,14.9s24.36-6.69,24.36-14.9V38.79h-1.3l-.11-.2c-3.45-6-12.67-10-22.94-10s-19.49,4-22.94,10l-.12.2Z"/></g><g id="Group_55449" data-name="Group 55449"><ellipse id="Ellipse_819" data-name="Ellipse 819" class="cls-staking-3" cx="51.07" cy="38.39" rx="24.75" ry="15.3"/><ellipse id="Ellipse_820" data-name="Ellipse 820" class="cls-staking-17" cx="51.07" cy="39.61" rx="24.75" ry="15.3"/><path id="Path_40591" data-name="Path 40591" class="cls-staking-2" d="M51.07,54.09c-13.86,0-25.15-7-25.15-15.7s11.29-15.7,25.15-15.7,25.15,7,25.15,15.7S64.94,54.09,51.07,54.09Zm0-30.6c-13.43,0-24.36,6.69-24.36,14.9s10.93,14.9,24.36,14.9,24.36-6.69,24.36-14.9-10.92-14.9-24.36-14.9Z"/></g><g id="Group_55450" data-name="Group 55450"><ellipse id="Ellipse_821" data-name="Ellipse 821" class="cls-staking-3" cx="51.07" cy="37.71" rx="19.77" ry="11.51"/><path id="Path_40592" data-name="Path 40592" class="cls-staking-5" d="M51.07,49.61c-11.11,0-20.16-5.34-20.16-11.9S40,25.8,51.07,25.8s20.17,5.35,20.17,11.91S62.19,49.61,51.07,49.61Zm0-23c-10.68,0-19.37,5-19.37,11.12s8.69,11.11,19.37,11.11,19.38-5,19.38-11.11S61.76,26.59,51.07,26.59Z"/></g><g id="Group_55451" data-name="Group 55451"><path id="Path_40593" data-name="Path 40593" class="cls-staking-3" d="M51.07,26.2c-10.91,0-19.77,5.15-19.77,11.51a6.74,6.74,0,0,0,.24,1.67c1.4-5.56,9.6-9.83,19.53-9.83s18.14,4.27,19.54,9.83a6.72,6.72,0,0,0,.23-1.67C70.84,31.35,62,26.2,51.07,26.2Z"/><path id="Path_40594" data-name="Path 40594" class="cls-staking-5" d="M70.37,40.2l-.14-.72c-1.37-5.44-9.6-9.54-19.16-9.54S33.29,34,31.92,39.48l-.22.88-.55-.88a7.62,7.62,0,0,1-.24-1.77c0-6.57,9.05-11.91,20.16-11.91s20.17,5.34,20.17,11.91A7.62,7.62,0,0,1,71,39.48ZM51.07,26.59c-10.68,0-19.37,5-19.37,11.12v.06c2.42-5.07,10.19-8.62,19.37-8.62s17,3.55,19.38,8.62v-.06C70.45,31.58,61.76,26.59,51.07,26.59Z"/></g><path id="Path_40595" data-name="Path 40595" class="cls-staking-6" d="M47.79,26.46v3.25l-5.52,1-5.42,2.33-3.92,3.43-1.39,2.87-.24-2.87L33,33.08l3-2.78,4.9-2.44,6-1.4Z"/><g id="Group_55455" data-name="Group 55455"><g id="Group_55452" data-name="Group 55452"><path id="Path_40596" data-name="Path 40596" class="cls-staking-3" d="M61.62,43.5a3.63,3.63,0,0,0,1.2-2.27l0,0V39l-1.51-.62a9.51,9.51,0,0,0-1.05-.69,9.84,9.84,0,0,0-4.5-1.25,18.29,18.29,0,0,0-6.28,1.25l-5-2.8a6,6,0,0,1,3.57.25L50.83,33V31l-3.54,1.22,0,0c-.35,0-.71,0-1.07,0a11.53,11.53,0,0,0-4.57,1.13L41,33l.24-.19v-.95l-2.69-.15v3.2l.87-.68.4.23a5.49,5.49,0,0,0-1,.92L38,35.08v2.35c.09,1,.83,2,2.24,2.75a10.52,10.52,0,0,0,4.68,1.29,16.09,16.09,0,0,0,5.8-.95l5.38,3a8.53,8.53,0,0,1-2.31.14,9.8,9.8,0,0,1-1.62-.28l.13-.44-4,.31v2A14.45,14.45,0,0,0,54,46.43a12.48,12.48,0,0,0,5.2-1.19l2.34,1.3,1.82-1.09v-2ZM44.91,38.68a4.22,4.22,0,0,1-1.67-.47,1.78,1.78,0,0,1-.92-1A1.24,1.24,0,0,1,42.63,36l4.44,2.48A6.81,6.81,0,0,1,44.91,38.68Zm13.21,3.85-5-2.8a7.35,7.35,0,0,1,2.59-.44,4.45,4.45,0,0,1,2,.54,1.88,1.88,0,0,1,1.08,1.28,1.54,1.54,0,0,1-.64,1.42Z"/><path id="Path_40597" data-name="Path 40597" class="cls-staking-5" d="M61.53,47l-2.36-1.32A12.94,12.94,0,0,1,54,46.83a14.9,14.9,0,0,1-5.81-1.18l-.24-.1V42.88l4.9-.38-.17.59a7.47,7.47,0,0,0,1.14.17c.37,0,.72,0,1,0L50.69,41a16.18,16.18,0,0,1-5.77.91,10.93,10.93,0,0,1-4.87-1.34c-1.51-.85-2.33-1.88-2.43-3.06V35l.56-.3V31.27l3.48.2,0,1.43a11.89,11.89,0,0,1,4.55-1.07c.31,0,.62,0,.93,0l4.06-1.39v2.78l-3.09,2.39-.21-.07a5.9,5.9,0,0,0-2.2-.39l3.83,2.14a18.61,18.61,0,0,1,6.26-1.21,10.24,10.24,0,0,1,4.68,1.3,10.7,10.7,0,0,1,1.06.69l1.7.7v2.47l-.13.55a3.73,3.73,0,0,1-.61,1.27L63.75,43v2.68ZM59.21,44.8l2.31,1.29L63,45.23v-1.4l-2.34.11.72-.72a3.31,3.31,0,0,0,1.08-2l0-.55V39.3l-1.36-.57a8.64,8.64,0,0,0-1-.66,9.5,9.5,0,0,0-4.32-1.2,18.2,18.2,0,0,0-6.14,1.23l-.17.06-6-3.38,1-.24a6.37,6.37,0,0,1,3.59.18l2.43-1.88V31.55l-2.59.89.1.21h-.66a8.69,8.69,0,0,0-1,0,10.91,10.91,0,0,0-4.42,1.09l-.19.08L40.29,33l.57-.44v-.38l-1.74.24L39,34.08l.43-.35,1.17.66-.5.36a5.89,5.89,0,0,0-.94.86l-.17.2-.55-.18v1.79c.07.88.75,1.7,2,2.41A10.19,10.19,0,0,0,45,41.07a15.83,15.83,0,0,0,5.66-.93l.16,0,6.45,3.6-1,.22a9.14,9.14,0,0,1-4.12-.15l-.4-.1.09-.28-3,.23V45A13.54,13.54,0,0,0,54,46a12,12,0,0,0,5-1.15Zm-1-1.78-6-3.37.85-.29a7.49,7.49,0,0,1,2.73-.45,4.77,4.77,0,0,1,2.16.58,2.26,2.26,0,0,1,1.28,1.57,1.88,1.88,0,0,1-.77,1.77Zm-4-3.16,3.92,2.19a1,1,0,0,0,.32-.87,1.53,1.53,0,0,0-.89-1,3.9,3.9,0,0,0-1.8-.48,5.42,5.42,0,0,0-1.55.16Zm-8.76-.77a4.1,4.1,0,0,1-.5,0h0a4.43,4.43,0,0,1-1.82-.51,2.15,2.15,0,0,1-1.11-1.26,1.63,1.63,0,0,1,.39-1.56l.21-.25,5.6,3.13-1,.24a7.34,7.34,0,0,1-1.8.23Zm-.43-.8a6.15,6.15,0,0,0,1,0l-3.14-1.76a.69.69,0,0,0-.06.56,1.42,1.42,0,0,0,.73.79,4,4,0,0,0,1.51.42Z"/></g><g id="Group_55454" data-name="Group 55454"><g id="Group_55453" data-name="Group 55453"><path id="Path_40598" data-name="Path 40598" class="cls-staking-3" d="M56.11,41.49l-5.38-3a15.9,15.9,0,0,1-5.8.94,10.55,10.55,0,0,1-4.69-1.28c-1.4-.79-2.15-1.71-2.23-2.76s.52-2,1.82-3l-1.27-.71,1.82-1.09,1.27.71a11.36,11.36,0,0,1,4.58-1.12,11.8,11.8,0,0,1,4.59.81l-2.76,2.14a6,6,0,0,0-3.57-.24l5,2.8a18,18,0,0,1,6.28-1.25,9.87,9.87,0,0,1,4.5,1.25c1.55.86,2.4,1.87,2.54,3s-.49,2.26-1.89,3.37l2.4,1.34-1.82,1.09-2.34-1.3A12.48,12.48,0,0,1,54,44.4a14.45,14.45,0,0,1-5.65-1.15l2.93-2.16a9.08,9.08,0,0,0,2.52.54A8.68,8.68,0,0,0,56.11,41.49ZM42.63,34a1.26,1.26,0,0,0-.31,1.2,1.81,1.81,0,0,0,.92,1,4,4,0,0,0,1.67.46,6.3,6.3,0,0,0,2.16-.2ZM58.12,40.5a1.54,1.54,0,0,0,.64-1.42,1.88,1.88,0,0,0-1.08-1.28,4.45,4.45,0,0,0-2-.54,7.35,7.35,0,0,0-2.59.44Z"/><path id="Path_40599" data-name="Path 40599" class="cls-staking-18" d="M56,42.44l-5.38-3a15.67,15.67,0,0,1-5.8,1,10.6,10.6,0,0,1-4.69-1.29,3.27,3.27,0,0,1-1.63-4.33,3.21,3.21,0,0,1,1.22-1.41l-.59-.9,1.14-.9,1.28.71a11.36,11.36,0,0,1,4.57-1.13,10.7,10.7,0,0,1,4.31,1L47.94,34.1a6,6,0,0,0-3.57-.25l5,2.8a18.29,18.29,0,0,1,6.28-1.25,9.84,9.84,0,0,1,4.5,1.25c1.55.87,2.4,1.87,2.54,3s-.49,2.27-1.88,3.38L63,44.51l-1.55,1-2.33-1.3a12.64,12.64,0,0,1-5.2,1.19,12.19,12.19,0,0,1-5.23-1L51.14,42a8.87,8.87,0,0,0,2.53.54A8.2,8.2,0,0,0,56,42.44ZM42.51,34.92a1.27,1.27,0,0,0-.31,1.19,1.78,1.78,0,0,0,.92,1,4.27,4.27,0,0,0,1.67.47A6.81,6.81,0,0,0,47,37.4ZM58,41.45A1.53,1.53,0,0,0,58.64,40a1.9,1.9,0,0,0-1.08-1.29,4.43,4.43,0,0,0-2-.53,7.39,7.39,0,0,0-2.59.44Z"/><path id="Path_40600" data-name="Path 40600" class="cls-staking-5" d="M61.53,45l-2.36-1.32A12.94,12.94,0,0,1,54,44.79a14.9,14.9,0,0,1-5.81-1.18l-.25-.1v-.63l1.11-.65,2.15-1.59.2.08a8.71,8.71,0,0,0,2.42.51c.36,0,.71,0,1,0l-4.17-2.33a16.46,16.46,0,0,1-5.78.91,10.89,10.89,0,0,1-4.86-1.34c-1.52-.85-2.34-1.88-2.44-3.07a3.54,3.54,0,0,1,1.5-3l-1.35-.76,2.61-1.55,1.3.72a11.77,11.77,0,0,1,4.55-1.08,13.22,13.22,0,0,1,5,.66h0v.75l-3.09,2.39-.21-.08a5.67,5.67,0,0,0-2.2-.38l3.84,2.14a18.28,18.28,0,0,1,6.25-1.22,10.37,10.37,0,0,1,4.68,1.3c1.66.93,2.58,2,2.74,3.3A3.9,3.9,0,0,1,61.64,42l2.1,1v.64Zm-2.32-2.21,2.31,1.3,1.2-.72-2.48-1.2.47-.36c1.27-1,1.85-2,1.73-3S61.53,36.84,60.1,36a9.46,9.46,0,0,0-4.32-1.2,18.2,18.2,0,0,0-6.14,1.23l-.17.06-6-3.38,1-.24A6.37,6.37,0,0,1,48,32.7l2.2-1.7a12.52,12.52,0,0,0-3.94-.42,10.91,10.91,0,0,0-4.42,1.09l-.19.09-1.25-.7-1,.62,1.22.67-.5.37c-1.18.85-1.74,1.74-1.66,2.64s.75,1.72,2,2.44A10.18,10.18,0,0,0,45,39a15.55,15.55,0,0,0,5.65-.92l.16-.06,6.45,3.6-1,.22a9,9,0,0,1-2.43.15,9.53,9.53,0,0,1-2.43-.49l-2.18,1.6A13.49,13.49,0,0,0,54,44a12.13,12.13,0,0,0,5-1.15Zm-1-1.78-6-3.37.85-.28a7.5,7.5,0,0,1,2.73-.46,4.77,4.77,0,0,1,2.16.58A2.26,2.26,0,0,1,59.15,39a1.9,1.9,0,0,1-.77,1.78Zm-4-3.16L58.05,40a1,1,0,0,0,.32-.86,1.52,1.52,0,0,0-.89-1,4,4,0,0,0-1.8-.48,5.8,5.8,0,0,0-1.55.17Zm-8.76-.76-.5,0a4.44,4.44,0,0,1-1.82-.52,2.11,2.11,0,0,1-1.11-1.25,1.62,1.62,0,0,1,.39-1.56l.21-.26,5.6,3.14-1,.24A7.86,7.86,0,0,1,45.37,37.06Zm-2.61-2.57a.69.69,0,0,0-.06.56,1.4,1.4,0,0,0,.73.78,3.63,3.63,0,0,0,1.51.42,5.13,5.13,0,0,0,1,0Z"/></g></g></g><path id="Path_40601" data-name="Path 40601" class="cls-staking-2" d="M53.86,53.6v5.25l5.87-1,5.65-1.67,5.86-3.72,3.6-4.5,1-3-.08-4.1L73,46.1l-5.52,3.76-8.29,3Z"/><path id="Path_40602" data-name="Path 40602" class="cls-staking-2" d="M50.19,53.74V58.9l-2.4-.19V53.3Z"/><g id="Group_55457" data-name="Group 55457"><path id="Path_40603" data-name="Path 40603" class="cls-staking-19" d="M74.43,30.73C71,24.82,61.89,20.58,51.15,20.58S31.3,24.82,27.87,30.73H26.4v5.15c0,8.45,11.08,15.3,24.75,15.3s24.76-6.85,24.76-15.3V30.73Z"/><path id="Path_40604" data-name="Path 40604" class="cls-staking-2" d="M51.15,51.58c-13.87,0-25.15-7-25.15-15.7V30.33h1.64c3.68-6.08,13.08-10.15,23.51-10.15S71,24.25,74.66,30.33H76.3v5.55C76.3,44.54,65,51.58,51.15,51.58ZM26.79,31.13v4.76c0,8.21,10.93,14.9,24.36,14.9s24.36-6.69,24.36-14.9V31.13h-1.3l-.12-.2C70.64,25,61.42,21,51.15,21s-19.48,4-22.94,10l-.11.2Z"/></g><g id="Group_55458" data-name="Group 55458"><ellipse id="Ellipse_822" data-name="Ellipse 822" class="cls-staking-20" cx="51.15" cy="30.73" rx="24.75" ry="15.3"/><path id="Path_40605" data-name="Path 40605" class="cls-staking-2" d="M51.15,46.43c-13.87,0-25.15-7-25.15-15.7S37.28,15,51.15,15s25.15,7,25.15,15.7S65,46.43,51.15,46.43Zm0-30.6c-13.43,0-24.36,6.68-24.36,14.9s10.93,14.9,24.36,14.9,24.36-6.69,24.36-14.9-10.93-14.9-24.36-14.9Z"/></g><g id="Group_55459" data-name="Group 55459"><ellipse id="Ellipse_823" data-name="Ellipse 823" class="cls-staking-3" cx="51.15" cy="30.04" rx="19.77" ry="11.51"/><path id="Path_40606" data-name="Path 40606" class="cls-staking-5" d="M51.15,41.94C40,41.94,31,36.6,31,30s9-11.91,20.16-11.91S71.32,23.47,71.32,30,62.27,41.94,51.15,41.94Zm0-23c-10.68,0-19.37,5-19.37,11.12s8.69,11.11,19.37,11.11,19.37-5,19.37-11.11S61.83,18.93,51.15,18.93Z"/></g><g id="Group_55460" data-name="Group 55460"><path id="Path_40607" data-name="Path 40607" class="cls-staking-3" d="M51.15,18.53c-10.92,0-19.77,5.15-19.77,11.51a6.8,6.8,0,0,0,.24,1.67c1.39-5.56,9.6-9.83,19.53-9.83s18.14,4.27,19.54,9.83A7.3,7.3,0,0,0,70.92,30C70.92,23.68,62.07,18.53,51.15,18.53Z"/><path id="Path_40608" data-name="Path 40608" class="cls-staking-5" d="M70.45,32.54l-.15-.73c-1.36-5.43-9.6-9.53-19.15-9.53S33.37,26.38,32,31.81l-.22.88-.55-.88A7.06,7.06,0,0,1,31,30c0-6.57,9-11.91,20.16-11.91S71.32,23.47,71.32,30a7.07,7.07,0,0,1-.25,1.77ZM51.15,18.93c-10.68,0-19.37,5-19.37,11.11v.07C34.2,25,42,21.49,51.15,21.49s17,3.54,19.37,8.62V30C70.52,23.91,61.83,18.93,51.15,18.93Z"/></g><path id="Path_40609" data-name="Path 40609" class="cls-staking-6" d="M47.87,18.79V22l-5.52,1.05-5.42,2.32L33,28.84l-1.4,2.88-.23-2.88L33,25.41l3-2.78,4.9-2.44,6-1.4Z"/><path id="Path_40610" data-name="Path 40610" class="cls-staking-2" d="M53.93,45.93v5.25l5.87-1,5.65-1.67,5.86-3.72,3.6-4.5,1-3-.09-4.1-2.76,5.22-5.52,3.77-8.29,3Z"/><path id="Path_40611" data-name="Path 40611" class="cls-staking-2" d="M50.27,46.07v5.16L47.87,51V45.63Z"/><g id="Group_55462" data-name="Group 55462"><path id="Path_40612" data-name="Path 40612" class="cls-staking-21" d="M74.43,23.21C71,17.3,61.89,13.07,51.15,13.07S31.3,17.3,27.87,23.21H26.4v5.16c0,8.45,11.08,15.3,24.76,15.3s24.75-6.85,24.75-15.3V23.21Z"/><path id="Path_40613" data-name="Path 40613" class="cls-staking-2" d="M51.15,44.06C37.28,44.06,26,37,26,28.36V22.81h1.65c3.67-6.08,13.07-10.14,23.5-10.14S71,16.73,74.66,22.81H76.3v5.55C76.3,37,65,44.06,51.15,44.06ZM26.79,23.61v4.76c0,8.21,10.93,14.9,24.36,14.9s24.36-6.69,24.36-14.9V23.61h-1.3l-.11-.2c-3.46-5.95-12.68-9.95-22.94-9.95s-19.49,4-22.94,10l-.12.2Z"/></g><g id="Group_55463" data-name="Group 55463"><ellipse id="Ellipse_824" data-name="Ellipse 824" class="cls-staking-22" cx="51.15" cy="23.21" rx="24.75" ry="15.3"/><path id="Path_40614" data-name="Path 40614" class="cls-staking-2" d="M51.15,38.9C37.28,38.9,26,31.86,26,23.2S37.28,7.5,51.15,7.5,76.3,14.56,76.3,23.21,65,38.9,51.15,38.9Zm0-30.6C37.72,8.3,26.79,15,26.79,23.2S37.72,38.1,51.15,38.1s24.36-6.68,24.36-14.9S64.58,8.31,51.15,8.31Z"/></g><g id="Group_55464" data-name="Group 55464"><ellipse id="Ellipse_825" data-name="Ellipse 825" class="cls-staking-3" cx="51.15" cy="22.52" rx="19.77" ry="11.51"/><path id="Path_40615" data-name="Path 40615" class="cls-staking-5" d="M51.15,34.43C40,34.43,31,29.08,31,22.52s9-11.91,20.16-11.91S71.32,16,71.32,22.52,62.27,34.43,51.15,34.43Zm0-23c-10.68,0-19.37,5-19.37,11.11s8.69,11.11,19.37,11.11,19.38-5,19.38-11.11-8.7-11.11-19.38-11.11Z"/></g><g id="Group_55465" data-name="Group 55465"><path id="Path_40616" data-name="Path 40616" class="cls-staking-3" d="M51.15,11c-10.92,0-19.77,5.15-19.77,11.51a6.81,6.81,0,0,0,.24,1.68c1.4-5.56,9.6-9.84,19.53-9.84s18.14,4.28,19.54,9.84a7.31,7.31,0,0,0,.23-1.68C70.92,16.16,62.07,11,51.15,11Z"/><path id="Path_40617" data-name="Path 40617" class="cls-staking-5" d="M70.45,25l-.15-.73c-1.36-5.43-9.6-9.53-19.15-9.53S33.36,18.86,32,24.29l-.22.88-.55-.88A7,7,0,0,1,31,22.52c0-6.56,9-11.9,20.16-11.9S71.32,16,71.32,22.52a7.07,7.07,0,0,1-.25,1.77ZM51.15,11.41c-10.68,0-19.37,5-19.37,11.11v.07C34.19,17.51,42,14,51.15,14s17,3.54,19.37,8.62v-.07c0-6.13-8.69-11.11-19.37-11.11Z"/></g><path id="Path_40618" data-name="Path 40618" class="cls-staking-6" d="M47.87,11.27v3.26l-5.52,1L36.93,17.9,33,21.33l-1.4,2.87-.23-2.87,1.67-3.43,3-2.79,4.9-2.44,6-1.4Z"/><path id="Path_40619" data-name="Path 40619" class="cls-staking-2" d="M53.93,38.41v5.26l5.87-1L65.46,41l5.86-3.72,3.6-4.5,1-3-.09-4.1-2.76,5.22-5.52,3.77-8.29,3Z"/><path id="Path_40620" data-name="Path 40620" class="cls-staking-2" d="M50.27,38.56v5.15l-2.4-.18V38.11Z"/><g id="Group_55467" data-name="Group 55467"><path id="Path_40621" data-name="Path 40621" class="cls-staking-23" d="M74.43,15.7C71,9.79,61.89,5.56,51.15,5.56S31.3,9.79,27.87,15.7H26.4v5.16c0,8.45,11.08,15.3,24.75,15.3s24.76-6.85,24.76-15.3V15.7Z"/><path id="Path_40622" data-name="Path 40622" class="cls-staking-2" d="M51.15,36.55c-13.86,0-25.15-7-25.15-15.7V15.3h1.65C31.32,9.23,40.72,5.16,51.15,5.16S71,9.23,74.66,15.3H76.3v5.55C76.3,29.51,65,36.55,51.15,36.55ZM26.79,16.1v4.76c0,8.21,10.93,14.9,24.36,14.9s24.36-6.69,24.36-14.9V16.1h-1.3l-.11-.2C70.64,10,61.43,6,51.16,6s-19.49,4-22.94,10l-.12.2Z"/></g><g id="Group_55468" data-name="Group 55468"><path id="Path_40623" data-name="Path 40623" class="cls-staking-24" d="M75.91,15.7c0,8.45-11.09,15.3-24.76,15.3S26.4,24.15,26.4,15.7,37.48.4,51.15.4,75.91,7.25,75.91,15.7Z"/><path id="Path_40624" data-name="Path 40624" class="cls-staking-2" d="M51.15,31.39C37.29,31.39,26,24.35,26,15.7S37.29,0,51.15,0,76.3,7.05,76.3,15.7,65,31.39,51.15,31.39Zm0-30.6c-13.43,0-24.36,6.69-24.36,14.9s10.93,14.9,24.36,14.9,24.36-6.68,24.36-14.9S64.58.8,51.15.8Z"/></g><g id="Group_55469" data-name="Group 55469"><ellipse id="Ellipse_826" data-name="Ellipse 826" class="cls-staking-25" cx="51.15" cy="15.01" rx="19.77" ry="11.51"/><path id="Path_40625" data-name="Path 40625" class="cls-staking-2" d="M51.15,26.92C40,26.92,31,21.58,31,15s9-11.9,20.16-11.9S71.32,8.45,71.32,15,62.27,26.92,51.15,26.92Zm0-23c-10.68,0-19.37,5-19.37,11.11s8.69,11.12,19.37,11.12,19.38-5,19.38-11.12S61.83,3.9,51.15,3.9Z"/></g><g id="Group_55470" data-name="Group 55470"><path id="Path_40626" data-name="Path 40626" class="cls-staking-26" d="M51.15,3.5C40.24,3.5,31.38,8.66,31.38,15a6.81,6.81,0,0,0,.24,1.68c1.4-5.56,9.6-9.84,19.53-9.84s18.14,4.28,19.54,9.84A6.8,6.8,0,0,0,70.92,15C70.92,8.66,62.07,3.5,51.15,3.5Z"/><path id="Path_40627" data-name="Path 40627" class="cls-staking-2" d="M70.45,17.51l-.15-.73c-1.36-5.43-9.6-9.53-19.15-9.53S33.37,11.35,32,16.78l-.22.88-.55-.88A7.48,7.48,0,0,1,31,15c0-6.56,9-11.9,20.16-11.9S71.32,8.45,71.32,15a7,7,0,0,1-.25,1.77ZM51.15,3.9c-10.68,0-19.37,5-19.37,11.11v.07C34.2,10,42,6.46,51.15,6.46s17,3.54,19.38,8.62V15c0-6.13-8.7-11.11-19.38-11.11Z"/></g><path id="Path_40628" data-name="Path 40628" class="cls-staking-2" d="M47.87,3.76V7L42.35,8.06l-5.42,2.33L33,13.82l-1.4,2.87-.23-2.87,1.67-3.43L36,7.6l4.9-2.44,6-1.4Z"/><path id="Path_40629" data-name="Path 40629" class="cls-staking-2" d="M53.93,30.9v5.26l5.88-1,5.65-1.66,5.86-3.72,3.6-4.5,1-3-.09-4.1L73.05,23.4l-5.52,3.77-8.29,3Z"/><path id="Path_40630" data-name="Path 40630" class="cls-staking-2" d="M50.27,31.05V36.2L47.87,36V30.6Z"/><ellipse id="Ellipse_827" data-name="Ellipse 827" class="cls-staking-2" cx="51.15" cy="16.29" rx="11.27" ry="5.28"/><g id="Group_55473" data-name="Group 55473"><path id="Path_40631" data-name="Path 40631" class="cls-staking-27" d="M48.43,99.15C45,93.24,35.89,89,25.15,89S5.3,93.24,1.87,99.15H.4v5.16c0,8.45,11.08,15.3,24.75,15.3s24.76-6.85,24.76-15.3V99.15Z"/><path id="Path_40632" data-name="Path 40632" class="cls-staking-2" d="M25.15,120C11.28,120,0,113,0,104.3V98.75H1.64c3.68-6.07,13.08-10.14,23.51-10.14S45,92.68,48.66,98.75H50.3v5.55C50.3,113,39,120,25.15,120ZM.79,99.55v4.76c0,8.22,10.93,14.9,24.36,14.9s24.36-6.69,24.36-14.9V99.55h-1.3l-.12-.2C44.64,93.4,35.42,89.4,25.15,89.4s-19.49,4-22.94,9.95l-.11.2Z"/></g><g id="Group_55474" data-name="Group 55474"><ellipse id="Ellipse_828" data-name="Ellipse 828" class="cls-staking-3" cx="25.15" cy="99.15" rx="24.75" ry="15.3"/><path id="Path_40633" data-name="Path 40633" class="cls-staking-28" d="M49.9,100.37c0,8.45-11.08,15.3-24.75,15.3S.39,108.82.39,100.37s11.09-15.3,24.76-15.3S49.9,91.92,49.9,100.37Z"/><path id="Path_40634" data-name="Path 40634" class="cls-staking-2" d="M25.15,114.85c-13.87,0-25.15-7-25.15-15.7s11.28-15.7,25.15-15.7,25.15,7,25.15,15.7S39,114.85,25.15,114.85Zm0-30.6C11.72,84.25.79,90.93.79,99.15s10.93,14.9,24.36,14.9,24.36-6.69,24.36-14.9-10.93-14.9-24.36-14.9Z"/></g><g id="Group_55475" data-name="Group 55475"><ellipse id="Ellipse_829" data-name="Ellipse 829" class="cls-staking-3" cx="25.15" cy="98.46" rx="19.77" ry="11.51"/><path id="Path_40635" data-name="Path 40635" class="cls-staking-5" d="M25.15,110.37C14,110.37,5,105,5,98.47s9-11.91,20.16-11.91S45.32,91.9,45.32,98.47,36.27,110.37,25.15,110.37Zm0-23c-10.68,0-19.37,5-19.37,11.11s8.69,11.12,19.37,11.12,19.37-5,19.37-11.12S35.83,87.35,25.15,87.35Z"/></g><g id="Group_55476" data-name="Group 55476"><path id="Path_40636" data-name="Path 40636" class="cls-staking-3" d="M25.15,87C14.23,87,5.38,92.11,5.38,98.46a7.31,7.31,0,0,0,.23,1.68c1.4-5.56,9.6-9.83,19.54-9.83s18.14,4.27,19.54,9.83a7.31,7.31,0,0,0,.23-1.68C44.92,92.11,36.07,87,25.15,87Z"/><path id="Path_40637" data-name="Path 40637" class="cls-staking-5" d="M44.45,101l-.15-.72c-1.36-5.44-9.6-9.54-19.15-9.54S7.36,94.8,6,100.24l-.22.88-.55-.88A6.7,6.7,0,0,1,5,98.46c0-6.56,9-11.9,20.16-11.9s20.17,5.34,20.17,11.9a7.15,7.15,0,0,1-.25,1.78ZM25.15,87.35c-10.68,0-19.37,5-19.37,11.11v.07C8.19,93.46,16,89.91,25.15,89.91s17,3.55,19.37,8.62v-.07C44.52,92.34,35.83,87.35,25.15,87.35Z"/></g><path id="Path_40638" data-name="Path 40638" class="cls-staking-6" d="M21.87,87.22v3.25l-5.52,1-5.43,2.33L7,97.27l-1.4,2.87-.23-2.87L7,93.84l3-2.79,4.9-2.44,6-1.4Z"/><path id="Path_40639" data-name="Path 40639" class="cls-staking-2" d="M27.93,114.36v5.25l5.87-1L39.45,117l5.86-3.72,3.6-4.5,1-3-.09-4.1-2.76,5.22-5.52,3.77-8.29,3Z"/><path id="Path_40640" data-name="Path 40640" class="cls-staking-2" d="M24.27,114.5v5.16l-2.4-.19v-5.41Z"/><g id="Group_55478" data-name="Group 55478"><path id="Path_40641" data-name="Path 40641" class="cls-staking-29" d="M48.43,92C45,86.07,35.89,81.84,25.15,81.84S5.3,86.07,1.87,92H.4v5.16c0,8.45,11.08,15.3,24.75,15.3s24.76-6.85,24.76-15.3V92Z"/><path id="Path_40642" data-name="Path 40642" class="cls-staking-2" d="M25.15,112.83c-13.87,0-25.15-7-25.15-15.69V91.59H1.64c3.68-6.08,13.08-10.15,23.51-10.15S45,85.51,48.66,91.59H50.3v5.55C50.3,105.79,39,112.83,25.15,112.83ZM.79,92.38v4.76c0,8.22,10.93,14.9,24.36,14.9s24.36-6.69,24.36-14.9V92.38h-1.3l-.12-.2c-3.45-6-12.67-10-22.94-10s-19.49,4-22.94,10l-.11.2Z"/></g><g id="Group_55479" data-name="Group 55479"><ellipse id="Ellipse_830" data-name="Ellipse 830" class="cls-staking-3" cx="25.15" cy="91.98" rx="24.75" ry="15.3"/><path id="Path_40643" data-name="Path 40643" class="cls-staking-30" d="M49.9,93.2c0,8.45-11.08,15.29-24.75,15.29S.39,101.65.39,93.2,11.48,77.9,25.15,77.9,49.9,84.75,49.9,93.2Z"/><path id="Path_40644" data-name="Path 40644" class="cls-staking-2" d="M25.15,107.68C11.28,107.68,0,100.64,0,92s11.28-15.7,25.15-15.7S50.3,83.33,50.3,92,39,107.68,25.15,107.68Zm0-30.6C11.72,77.08.79,83.76.79,92s10.93,14.9,24.36,14.9S49.51,100.19,49.51,92s-10.93-14.9-24.36-14.9Z"/></g><g id="Group_55480" data-name="Group 55480"><ellipse id="Ellipse_831" data-name="Ellipse 831" class="cls-staking-3" cx="25.15" cy="91.29" rx="19.77" ry="11.51"/><path id="Path_40645" data-name="Path 40645" class="cls-staking-5" d="M25.15,103.2C14,103.2,5,97.86,5,91.29s9-11.9,20.16-11.9,20.17,5.34,20.17,11.9S36.27,103.2,25.15,103.2Zm0-23c-10.68,0-19.37,5-19.37,11.11s8.69,11.12,19.37,11.12,19.37-5,19.37-11.12S35.83,80.18,25.15,80.18Z"/></g><g id="Group_55481" data-name="Group 55481"><path id="Path_40646" data-name="Path 40646" class="cls-staking-3" d="M25.15,79.78c-10.92,0-19.77,5.16-19.77,11.51A7.31,7.31,0,0,0,5.61,93c1.4-5.56,9.6-9.83,19.54-9.83S43.29,87.41,44.69,93a7.31,7.31,0,0,0,.23-1.68C44.92,84.94,36.07,79.78,25.15,79.78Z"/><path id="Path_40647" data-name="Path 40647" class="cls-staking-5" d="M44.45,93.79l-.15-.72c-1.36-5.44-9.6-9.54-19.15-9.54S7.36,87.63,6,93.07l-.22.87-.55-.87A6.7,6.7,0,0,1,5,91.29c0-6.56,9-11.9,20.16-11.9s20.17,5.34,20.17,11.9a7.64,7.64,0,0,1-.25,1.78ZM25.15,80.18c-10.68,0-19.37,5-19.37,11.11v.07C8.19,86.29,16,82.74,25.15,82.74s17,3.54,19.37,8.62v-.07c0-6.12-8.69-11.11-19.37-11.11Z"/></g><path id="Path_40648" data-name="Path 40648" class="cls-staking-6" d="M21.87,80.05V83.3l-5.52,1-5.43,2.33L7,90.1,5.61,93,5.38,90.1,7,86.67l3-2.79,4.9-2.44,6-1.4Z"/><path id="Path_40649" data-name="Path 40649" class="cls-staking-2" d="M27.93,107.18v5.26l5.87-1,5.65-1.67,5.86-3.72,3.6-4.5,1-3-.09-4.1-2.76,5.22-5.52,3.77-8.29,3Z"/><path id="Path_40650" data-name="Path 40650" class="cls-staking-2" d="M24.27,107.33v5.15l-2.4-.18v-5.41Z"/><g id="Group_55483" data-name="Group 55483"><path id="Path_40651" data-name="Path 40651" class="cls-staking-31" d="M48.43,84.81C45,78.9,35.89,74.67,25.15,74.67S5.3,78.9,1.87,84.81H.4V90c0,8.45,11.08,15.3,24.75,15.3S49.91,98.42,49.91,90V84.81Z"/><path id="Path_40652" data-name="Path 40652" class="cls-staking-2" d="M25.15,105.66C11.28,105.66,0,98.62,0,90V84.42H1.64c3.68-6.08,13.08-10.15,23.51-10.15S45,78.34,48.66,84.42H50.3V90C50.3,98.63,39,105.66,25.15,105.66ZM.79,85.21V90c0,8.21,10.93,14.9,24.36,14.9S49.51,98.18,49.51,90V85.21h-1.3l-.12-.2c-3.45-6-12.67-10-22.94-10s-19.49,4-22.94,10l-.11.2Z"/></g><g id="Group_55484" data-name="Group 55484"><ellipse id="Ellipse_832" data-name="Ellipse 832" class="cls-staking-3" cx="25.15" cy="84.81" rx="24.75" ry="15.3"/><path id="Path_40653" data-name="Path 40653" class="cls-staking-32" d="M49.9,86c0,8.45-11.08,15.3-24.75,15.3S.4,94.48.4,86s11.08-15.3,24.75-15.3S49.9,77.58,49.9,86Z"/><path id="Path_40654" data-name="Path 40654" class="cls-staking-2" d="M25.15,100.51c-13.87,0-25.15-7-25.15-15.7s11.28-15.7,25.15-15.7,25.15,7,25.15,15.7S39,100.51,25.15,100.51Zm0-30.6C11.72,69.91.79,76.59.79,84.81s10.93,14.9,24.36,14.9S49.51,93,49.51,84.81s-10.93-14.9-24.36-14.9Z"/></g><g id="Group_55485" data-name="Group 55485"><ellipse id="Ellipse_833" data-name="Ellipse 833" class="cls-staking-3" cx="25.15" cy="84.12" rx="19.77" ry="11.51"/><path id="Path_40655" data-name="Path 40655" class="cls-staking-5" d="M25.15,96C14,96,5,90.68,5,84.13s9-11.91,20.16-11.91,20.17,5.34,20.17,11.91S36.27,96,25.15,96Zm0-23C14.47,73,5.78,78,5.78,84.12s8.69,11.11,19.37,11.11,19.37-5,19.37-11.11S35.83,73,25.15,73Z"/></g><g id="Group_55486" data-name="Group 55486"><path id="Path_40656" data-name="Path 40656" class="cls-staking-3" d="M25.15,72.61c-10.92,0-19.77,5.16-19.77,11.51a7.31,7.31,0,0,0,.23,1.68C7,80.24,15.21,76,25.15,76s18.14,4.27,19.54,9.83a7.31,7.31,0,0,0,.23-1.68C44.92,77.77,36.07,72.61,25.15,72.61Z"/><path id="Path_40657" data-name="Path 40657" class="cls-staking-5" d="M44.45,86.63l-.15-.73c-1.36-5.44-9.6-9.54-19.15-9.54S7.36,80.46,6,85.9l-.22.88-.55-.88A6.63,6.63,0,0,1,5,84.13c0-6.57,9-11.91,20.16-11.91s20.17,5.34,20.17,11.91a7.07,7.07,0,0,1-.25,1.77ZM25.15,73C14.47,73,5.78,78,5.78,84.13v.07C8.19,79.12,16,75.57,25.15,75.57s17,3.55,19.37,8.63v-.07C44.52,78,35.83,73,25.15,73Z"/></g><path id="Path_40658" data-name="Path 40658" class="cls-staking-6" d="M21.87,72.88v3.25l-5.52,1L10.92,79.5,7,82.93,5.61,85.8l-.23-2.87L7,79.49l3-2.78,4.9-2.44,6-1.4Z"/><path id="Path_40659" data-name="Path 40659" class="cls-staking-2" d="M27.93,100v5.26l5.87-1,5.65-1.67,5.86-3.72,3.6-4.5,1-3-.09-4.1-2.76,5.22-5.52,3.77-8.29,3Z"/><path id="Path_40660" data-name="Path 40660" class="cls-staking-2" d="M24.27,100.16v5.15l-2.4-.18V99.72Z"/><g id="Group_55488" data-name="Group 55488"><path id="Path_40661" data-name="Path 40661" class="cls-staking-33" d="M48.43,77.29C45,71.39,35.89,67.15,25.15,67.15S5.3,71.39,1.87,77.29H.4v5.16c0,8.45,11.08,15.3,24.75,15.3s24.76-6.85,24.76-15.3V77.29Z"/><path id="Path_40662" data-name="Path 40662" class="cls-staking-2" d="M25.15,98.15C11.28,98.15,0,91.11,0,82.45V76.89H1.64c3.68-6.07,13.08-10.14,23.51-10.14S45,70.82,48.66,76.89H50.3v5.56C50.3,91.11,39,98.15,25.15,98.15ZM.79,77.69v4.76c0,8.22,10.93,14.9,24.36,14.9s24.36-6.68,24.36-14.9V77.69h-1.3l-.12-.2c-3.45-5.95-12.67-9.95-22.94-9.95s-19.48,4-22.94,9.95l-.11.2Z"/></g><g id="Group_55489" data-name="Group 55489"><ellipse id="Ellipse_834" data-name="Ellipse 834" class="cls-staking-3" cx="25.15" cy="77.29" rx="24.75" ry="15.3"/><ellipse id="Ellipse_835" data-name="Ellipse 835" class="cls-staking-34" cx="25.15" cy="78.51" rx="24.75" ry="15.3"/><path id="Path_40663" data-name="Path 40663" class="cls-staking-2" d="M25.15,93C11.28,93,0,86,0,77.29s11.28-15.7,25.15-15.7,25.15,7,25.15,15.7S39,93,25.15,93Zm0-30.6C11.72,62.39.79,69.08.79,77.29s10.93,14.9,24.36,14.9,24.36-6.69,24.36-14.9-10.93-14.9-24.36-14.9Z"/></g><g id="Group_55490" data-name="Group 55490"><ellipse id="Ellipse_836" data-name="Ellipse 836" class="cls-staking-3" cx="25.15" cy="76.61" rx="19.77" ry="11.51"/><path id="Path_40664" data-name="Path 40664" class="cls-staking-5" d="M25.15,88.51C14,88.51,5,83.17,5,76.61s9-11.9,20.16-11.9,20.17,5.34,20.17,11.9S36.27,88.51,25.15,88.51Zm0-23c-10.68,0-19.37,5-19.37,11.12s8.69,11.12,19.37,11.12,19.37-5,19.37-11.12S35.83,65.49,25.15,65.49Z"/></g><g id="Group_55491" data-name="Group 55491"><path id="Path_40665" data-name="Path 40665" class="cls-staking-3" d="M25.15,65.1c-10.92,0-19.77,5.15-19.77,11.51a6.74,6.74,0,0,0,.24,1.67c1.39-5.56,9.6-9.83,19.53-9.83s18.14,4.27,19.54,9.83a7.23,7.23,0,0,0,.23-1.67C44.92,70.25,36.07,65.1,25.15,65.1Z"/><path id="Path_40666" data-name="Path 40666" class="cls-staking-5" d="M44.45,79.11l-.15-.73c-1.36-5.44-9.6-9.54-19.15-9.54S7.36,72.94,6,78.38l-.22.88-.55-.88A7.06,7.06,0,0,1,5,76.61C5,70,14,64.7,25.15,64.7S45.32,70,45.32,76.61a7.07,7.07,0,0,1-.25,1.77ZM25.15,65.49c-10.68,0-19.37,5-19.37,11.12v.07C8.19,71.6,16,68.05,25.15,68.05s17,3.55,19.37,8.63v-.07c0-6.13-8.69-11.12-19.37-11.12Z"/></g><path id="Path_40667" data-name="Path 40667" class="cls-staking-6" d="M21.87,65.36v3.25l-5.52,1L10.93,72,7,75.41l-1.4,2.87-.23-2.87L7,72l3-2.78,4.9-2.44,6-1.4Z"/><path id="Path_40668" data-name="Path 40668" class="cls-staking-2" d="M27.93,92.5v5.25l5.87-1,5.65-1.67,5.86-3.72,3.6-4.5,1-3-.09-4.1L47.05,85l-5.52,3.76-8.29,3Z"/><path id="Path_40669" data-name="Path 40669" class="cls-staking-2" d="M24.27,92.64V97.8l-2.4-.19V92.2Z"/><g id="Group_55493" data-name="Group 55493"><path id="Path_40670" data-name="Path 40670" class="cls-staking-35" d="M48.43,69.79C45,63.88,35.89,59.64,25.15,59.64S5.3,63.88,1.87,69.79H.4v5.15c0,8.45,11.08,15.3,24.75,15.3s24.76-6.85,24.76-15.3V69.79Z"/><path id="Path_40671" data-name="Path 40671" class="cls-staking-2" d="M25.15,90.64C11.28,90.64,0,83.6,0,74.94V69.39H1.65c3.67-6.08,13.07-10.15,23.5-10.15S45,63.31,48.66,69.39H50.3v5.55C50.3,83.6,39,90.64,25.15,90.64ZM.79,70.18v4.76c0,8.22,10.93,14.9,24.36,14.9s24.36-6.68,24.36-14.9V70.18h-1.3L48.1,70c-3.46-6-12.68-10-22.94-10S5.67,64,2.22,70l-.12.2Z"/></g><g id="Group_55494" data-name="Group 55494"><ellipse id="Ellipse_837" data-name="Ellipse 837" class="cls-staking-3" cx="25.15" cy="69.78" rx="24.75" ry="15.3"/><ellipse id="Ellipse_838" data-name="Ellipse 838" class="cls-staking-36" cx="25.15" cy="71" rx="24.75" ry="15.3"/><path id="Path_40672" data-name="Path 40672" class="cls-staking-2" d="M25.15,85.48C11.28,85.48,0,78.44,0,69.78s11.28-15.7,25.15-15.7S50.3,61.13,50.3,69.79,39,85.48,25.15,85.48Zm0-30.6C11.72,54.88.79,61.57.79,69.78s10.93,14.9,24.36,14.9S49.51,78,49.51,69.78s-10.93-14.9-24.36-14.9Z"/></g><g id="Group_55495" data-name="Group 55495"><ellipse id="Ellipse_839" data-name="Ellipse 839" class="cls-staking-3" cx="25.15" cy="69.1" rx="19.77" ry="11.51"/><path id="Path_40673" data-name="Path 40673" class="cls-staking-5" d="M25.15,81C14,81,5,75.66,5,69.1s9-11.9,20.16-11.9,20.17,5.34,20.17,11.9S36.27,81,25.15,81Zm0-23C14.47,58,5.78,63,5.78,69.1s8.69,11.11,19.37,11.11,19.38-5,19.38-11.11S35.83,58,25.15,58Z"/></g><g id="Group_55496" data-name="Group 55496"><path id="Path_40674" data-name="Path 40674" class="cls-staking-3" d="M25.15,57.59c-10.92,0-19.77,5.15-19.77,11.51a6.74,6.74,0,0,0,.24,1.67c1.4-5.56,9.6-9.83,19.53-9.83s18.14,4.27,19.54,9.83a7.23,7.23,0,0,0,.23-1.67C44.92,62.74,36.07,57.59,25.15,57.59Z"/><path id="Path_40675" data-name="Path 40675" class="cls-staking-5" d="M44.45,71.6l-.15-.73c-1.36-5.44-9.6-9.54-19.15-9.54S7.37,65.43,6,70.87l-.22.88-.55-.88A7.06,7.06,0,0,1,5,69.1c0-6.57,9-11.91,20.16-11.91S45.32,62.53,45.32,69.1a7.07,7.07,0,0,1-.25,1.77ZM25.15,58C14.47,58,5.78,63,5.78,69.1v.07C8.2,64.09,16,60.54,25.15,60.54s17,3.55,19.37,8.63V69.1C44.53,63,35.83,58,25.15,58Z"/></g><path id="Path_40676" data-name="Path 40676" class="cls-staking-6" d="M21.87,57.85V61.1l-5.52,1-5.42,2.33L7,67.9l-1.4,2.87L5.38,67.9l1.67-3.43,3-2.78,4.9-2.44,6-1.4Z"/><path id="Path_40677" data-name="Path 40677" class="cls-staking-2" d="M27.93,85v5.25l5.87-1,5.66-1.67,5.86-3.72,3.6-4.5,1-3-.09-4.1-2.76,5.23-5.52,3.76-8.29,3Z"/><path id="Path_40678" data-name="Path 40678" class="cls-staking-2" d="M24.27,85.13v5.16l-2.4-.19V84.69Z"/><g id="Group_55498" data-name="Group 55498"><path id="Path_40679" data-name="Path 40679" class="cls-staking-37" d="M48.51,62.12C45.08,56.21,36,52,25.23,52S5.37,56.21,2,62.12H.47v5.15c0,8.45,11.09,15.3,24.76,15.3S50,75.72,50,67.27V62.12Z"/><path id="Path_40680" data-name="Path 40680" class="cls-staking-2" d="M25.23,83C11.36,83,.08,75.93.08,67.27V61.73H1.72C5.39,55.65,14.8,51.58,25.23,51.58s19.83,4.07,23.51,10.15h1.64v5.55C50.38,75.93,39.1,83,25.23,83ZM.87,62.51v4.76c0,8.22,10.93,14.9,24.36,14.9s24.36-6.68,24.36-14.9V62.51H48.28l-.11-.2c-3.45-6-12.67-9.94-22.94-9.94s-19.49,4-22.94,9.94l-.12.2Z"/></g><g id="Group_55499" data-name="Group 55499"><path id="Path_40681" data-name="Path 40681" class="cls-staking-38" d="M50,62.12c0,8.45-11.08,15.3-24.75,15.3S.47,70.57.47,62.12s11.09-15.3,24.76-15.3S50,53.67,50,62.12Z"/><path id="Path_40682" data-name="Path 40682" class="cls-staking-2" d="M25.23,77.81c-13.87,0-25.15-7-25.15-15.69s11.28-15.7,25.15-15.7,25.15,7,25.15,15.7S39.1,77.81,25.23,77.81Zm0-30.6C11.8,47.21.87,53.9.87,62.12S11.8,77,25.23,77s24.36-6.69,24.36-14.9S38.66,47.21,25.23,47.21Z"/></g><g id="Group_55500" data-name="Group 55500"><ellipse id="Ellipse_840" data-name="Ellipse 840" class="cls-staking-39" cx="25.23" cy="61.43" rx="19.77" ry="11.51"/><path id="Path_40683" data-name="Path 40683" class="cls-staking-2" d="M25.23,73.33C14.11,73.33,5.06,68,5.06,61.43s9.05-11.91,20.17-11.91,20.16,5.34,20.16,11.91S36.35,73.33,25.23,73.33Zm0-23c-10.68,0-19.38,5-19.38,11.11s8.7,11.11,19.38,11.11,19.37-5,19.37-11.11S35.91,50.32,25.23,50.32Z"/></g><g id="Group_55501" data-name="Group 55501"><path id="Path_40684" data-name="Path 40684" class="cls-staking-40" d="M25.23,49.92c-10.92,0-19.77,5.15-19.77,11.51a7.31,7.31,0,0,0,.23,1.68c1.4-5.56,9.6-9.84,19.54-9.84s18.14,4.28,19.53,9.84A6.81,6.81,0,0,0,45,61.43C45,55.07,36.15,49.92,25.23,49.92Z"/><path id="Path_40685" data-name="Path 40685" class="cls-staking-2" d="M44.53,63.93l-.15-.73c-1.36-5.44-9.6-9.54-19.15-9.54S7.44,57.76,6.08,63.2l-.22.88-.55-.88a7.07,7.07,0,0,1-.25-1.77c0-6.57,9.05-11.91,20.17-11.91s20.16,5.34,20.16,11.91a7.06,7.06,0,0,1-.24,1.77ZM25.23,50.31c-10.69,0-19.38,5-19.38,11.12v.07c2.42-5.08,10.2-8.63,19.38-8.63s17,3.55,19.37,8.63v-.07c0-6.13-8.69-11.11-19.37-11.11Z"/></g><path id="Path_40686" data-name="Path 40686" class="cls-staking-2" d="M22,50.18v3.25l-5.52,1L11,56.8,7.09,60.24l-1.4,2.87-.23-2.87L7.12,56.8l3-2.78L15,51.58l6-1.4Z"/><path id="Path_40687" data-name="Path 40687" class="cls-staking-2" d="M28,77.32v5.25l5.87-1L39.53,80l5.86-3.72,3.6-4.5,1-3-.09-4.1-2.76,5.22-5.52,3.77-8.29,3Z"/><path id="Path_40688" data-name="Path 40688" class="cls-staking-2" d="M24.35,77.46v5.16L22,82.43V77Z"/><ellipse id="Ellipse_841" data-name="Ellipse 841" class="cls-staking-2" cx="25.23" cy="62.68" rx="11.25" ry="5.3"/></g></g></svg>