<svg xmlns="http://www.w3.org/2000/svg" width="40" height="40" viewBox="0 0 72.999 73">
  <g id="Group_51517" data-name="Group 51517" transform="translate(-1201 -5025)">
    <path id="Subtraction_1" data-name="Subtraction 1" d="M36.5,73A36.51,36.51,0,0,1,22.292,2.868,36.51,36.51,0,0,1,50.707,70.132,36.283,36.283,0,0,1,36.5,73ZM16.425,51.029v0a26.973,26.973,0,0,0,13.74,3.718h.393a26.283,26.283,0,0,0,17.886-6.972,22.368,22.368,0,0,0,7.308-16.6c0-.353,0-.719-.028-1.079a18.088,18.088,0,0,0,4.5-4.3,19.017,19.017,0,0,1-5.174,1.281,8.4,8.4,0,0,0,3.942-4.558,18.564,18.564,0,0,1-5.694,2A9.389,9.389,0,0,0,46.743,21.9a9.735,9.735,0,0,0-2.039.216,8.992,8.992,0,0,0-5.763,3.954,7.73,7.73,0,0,0-.96,6.016,26.307,26.307,0,0,1-18.506-8.667A7.735,7.735,0,0,0,18.258,27.6a8.092,8.092,0,0,0,4.007,6.9A9.629,9.629,0,0,1,18.2,33.454v.1a8.51,8.51,0,0,0,7.186,8.138,10.5,10.5,0,0,1-4.05.151,8.937,8.937,0,0,0,8.39,5.749A19.086,19.086,0,0,1,18.61,51.13h-.129C17.788,51.13,17.1,51.1,16.425,51.029Z" transform="translate(1201 5025)" fill="#fff"/>
  </g>
</svg>
