<svg width="72" height="72" viewBox="0 0 72 72" fill="none" xmlns="http://www.w3.org/2000/svg">
<path d="M56.9224 33.8944C56.882 34.0895 56.781 34.2667 56.6338 34.4008C56.487 34.5071 56.3083 34.5599 56.1274 34.5502C55.831 34.5404 55.5358 34.5069 55.2448 34.45C54.8669 34.3861 54.4844 34.3536 54.1012 34.3528C53.6074 34.3447 53.1163 34.4261 52.6516 34.5928C52.2323 34.7484 51.8457 34.9807 51.5116 35.278C51.1604 35.5904 50.8589 35.9546 50.6176 36.358C50.3389 36.8219 50.0964 37.3065 49.8922 37.8076V50.359H44.9866V29.9818H47.8666C48.0466 29.9403 48.2339 29.9414 48.4135 29.9851C48.5931 30.0289 48.7599 30.114 48.9008 30.2336C49.0416 30.3533 49.1525 30.5042 49.2246 30.6744C49.2967 30.8445 49.3281 31.0292 49.3162 31.2136L49.5946 33.5164C50.1495 32.4136 50.9256 31.4369 51.8746 30.6472C52.7548 29.9502 53.8504 29.5817 54.973 29.605C55.7735 29.5653 56.566 29.7802 57.2368 30.2188L56.9224 33.8944ZM37.5184 50.011C37.23 49.7835 37.0044 49.4864 36.8626 49.1476L34.717 43.2892H22.8226L20.677 49.1476C20.5519 49.4772 20.3385 49.7659 20.0602 49.9822C19.7401 50.2394 19.3384 50.3733 18.928 50.3596H14.7598L26.0584 21.6406H31.5004L42.7804 50.3596H38.6518C38.245 50.3779 37.8445 50.2548 37.5184 50.011ZM29.8522 29.9632C29.6812 29.5396 29.5012 29.0404 29.317 28.4632C29.1328 27.886 28.9456 27.2632 28.7614 26.5852C28.5758 27.2616 28.394 27.891 28.216 28.4734C28.038 29.0558 27.8624 29.5652 27.6892 30.0016L24.1924 39.5146H33.3478L29.8522 29.9632Z" fill="#DA3DB0"/>
<path d="M72 72.002H0V0.00195312H72V72.002ZM4.3536 67.6472H67.6464V4.35435H4.3536V67.6472Z" fill="#DA3DB0"/>
</svg>
