<svg xmlns="http://www.w3.org/2000/svg" xmlns:xlink="http://www.w3.org/1999/xlink" width="82.776" height="84" viewBox="0 0 82.776 84">
  <defs>
    <clipPath id="clip-path-cfcd">
      <rect id="Rectangle_20580-cfcd" data-name="Rectangle 20580" width="82.776" height="84" fill="#fff"/>
    </clipPath>
  </defs>
  <g id="Group_86853" data-name="Group 86853" clip-path="url(#clip-path-cfcd)">
    <path id="Path_114402" data-name="Path 114402" d="M28.157,83.988a34.97,34.97,0,0,1-5.792-.223A27.238,27.238,0,0,1,17.8,82.709,34.029,34.029,0,0,1,14.256,81.3,25.94,25.94,0,0,1,3.465,71.186a29.7,29.7,0,0,1-2.337-5.374,22.234,22.234,0,0,1-1.111-6.3,18.011,18.011,0,0,1,.494-4.822,23.96,23.96,0,0,1,2.453-6.375,22.106,22.106,0,0,1,5.275-6.361,30.172,30.172,0,0,1,5.494-3.578,20.562,20.562,0,0,1,3.648-1.484c.156-.045.417,0,.424-.244.005-.2-.216-.285-.371-.355a24.01,24.01,0,0,1-7.753-6.4,16.835,16.835,0,0,1-1.838-3.16A15.9,15.9,0,0,1,6.808,22.4a13.444,13.444,0,0,1,.571-4.83,14.671,14.671,0,0,1,.962-2.686,19.913,19.913,0,0,1,2.6-3.959,26.153,26.153,0,0,1,5.227-4.737,28.477,28.477,0,0,1,6.361-3.509A34.583,34.583,0,0,1,30.506.454,26.023,26.023,0,0,1,35.333.015a34.242,34.242,0,0,1,7.62,1.062,24.972,24.972,0,0,1,4.19,1.512,8.888,8.888,0,0,1,4.627,5.1,4.8,4.8,0,0,1-.519,4.257,17.9,17.9,0,0,1-3.012,3.925,15.625,15.625,0,0,1-4.081,2.975,2.843,2.843,0,0,1-1.689.211c-.537-.1-.756-.451-.722-1.148.017-.361.061-.718.109-1.075a10.694,10.694,0,0,0-1.725-7.123A11.04,11.04,0,0,0,36.891,6.3a8.673,8.673,0,0,0-2.808-1.308,18.951,18.951,0,0,0-7.441-.262,11.775,11.775,0,0,0-6.308,3.053A10.9,10.9,0,0,0,16.8,17.318a14.706,14.706,0,0,0,1.59,5.18,19.756,19.756,0,0,0,6.983,7.486,24,24,0,0,0,5.193,2.481c1.075.406,2.193.688,3.238,1.176a1.557,1.557,0,0,1,.343,2.805,10.623,10.623,0,0,1-4.8,2.072c-1.921.393-3.863.632-5.813.851a15.057,15.057,0,0,0-4.806,1.349,13.812,13.812,0,0,0-3.5,2.1,14.835,14.835,0,0,0-3.535,4.906A14.63,14.63,0,0,0,10.505,55.1a18.643,18.643,0,0,0,1.083,4.988c.429,1.147.887,2.278,1.389,3.394a23.5,23.5,0,0,0,3.394,5.233,25.86,25.86,0,0,0,6.1,5.437,25.269,25.269,0,0,0,8.667,3.6,23.671,23.671,0,0,0,8.161.263,40.451,40.451,0,0,0,5.127-1.03,21.44,21.44,0,0,0,6.014-2.842,22.266,22.266,0,0,0,5.022-4.621,17.765,17.765,0,0,0,3.49-6.677,16.47,16.47,0,0,0-.076-8.951A12.428,12.428,0,0,0,56.4,49.4a19.624,19.624,0,0,0-1.933-1.945,4.25,4.25,0,0,0-2.673-.857,44.355,44.355,0,0,0-5.014-.254,14.75,14.75,0,0,0-4.687.658,4.684,4.684,0,0,0-3.5,4.655,15.615,15.615,0,0,0,.26,3.549,3.9,3.9,0,0,1-1.059,3.429,15.824,15.824,0,0,1-3.26,2.978,12.157,12.157,0,0,1-2.866,1.344,1.135,1.135,0,0,1-1.482-1.073,12.729,12.729,0,0,1,.149-3.277,22.288,22.288,0,0,1,.984-3.582,20.817,20.817,0,0,1,2.847-5.056,22.782,22.782,0,0,1,4.764-4.749,25.414,25.414,0,0,1,4.3-2.556,38.967,38.967,0,0,1,4.973-1.887,22.046,22.046,0,0,1,4.623-.794,35.178,35.178,0,0,1,7.163.212c1.2.156,2.387.331,3.585.468a24.3,24.3,0,0,0,7.742-.175,11.249,11.249,0,0,0,5.924-3.04,6.638,6.638,0,0,0,1.747-6.621,10.065,10.065,0,0,0-4.083-5.791,9.847,9.847,0,0,0-3.554-1.531,15.192,15.192,0,0,0-3.8-.427,14.732,14.732,0,0,0-4.918,1.111,20.516,20.516,0,0,0-4.511,2.4.937.937,0,0,1-1.158.107c-.4-.291-.339-.685-.243-1.08a7.331,7.331,0,0,1,.71-1.742A17.5,17.5,0,0,1,59.3,20.922a18.66,18.66,0,0,1,3.745-3.706,7.635,7.635,0,0,1,2.394-1.072c.591-.15,1.152-.392,1.739-.563a11.116,11.116,0,0,1,4.452-.194,11.308,11.308,0,0,1,3.925,1.434,12.694,12.694,0,0,1,3.564,3.09,10.428,10.428,0,0,1,1.463,2.326A21.459,21.459,0,0,1,82.412,27.4a16.4,16.4,0,0,1-.464,8.633A15.23,15.23,0,0,1,78.786,41.5a15.841,15.841,0,0,1-4.25,3.448,18.272,18.272,0,0,1-6.332,2.05c-1.391.168-1.426.222-.857,1.474a12.383,12.383,0,0,1,1.1,4.7,16.558,16.558,0,0,1-.914,6.052,24.71,24.71,0,0,1-3.19,6.321,36.872,36.872,0,0,1-4.928,5.634,48.063,48.063,0,0,1-8.867,6.473,58.848,58.848,0,0,1-6.985,3.368c-1.125.466-2.329.739-3.488,1.128a42.031,42.031,0,0,1-4.11,1.1c-1.3.295-2.62.469-3.942.635A37.006,37.006,0,0,1,28.157,83.988Z" fill="#FF5B7E"/>
  </g>
</svg>
