<svg width="84" height="84" viewBox="0 0 84 84" fill="none" xmlns="http://www.w3.org/2000/svg">
<path d="M42.273 0C53.396 0.123435 64.0203 4.63409 71.8347 12.5507C79.649 20.4673 84.0212 31.1493 84 42.273C84 65.4549 64.9089 84 41.727 84C18.8181 83.727 0 65.1819 0 42C0 18.5451 18.8181 0 42.273 0Z" fill="#DA3DB0"/>
<path d="M47.0592 65.2175L42.3139 67.8537L32.2969 62.0542L36.7769 59.418H37.0408L47.0592 65.2175Z" fill="#0A0B1D"/>
<path d="M64.7241 29.0999V34.3723L54.9696 28.5721L52.3334 26.9901L49.6972 28.5721L37.3072 35.6904L34.6696 37.2738V40.4371L29.9243 37.537L27.2881 35.955L24.6519 37.537L20.1719 40.1732V28.5721L42.5789 15.6543L64.7241 29.0999Z" fill="#0A0B1D"/>
<path d="M64.7238 40.7003V55.2015L52.3338 62.3198L39.9424 55.2015V40.7003L52.3324 33.582L64.7238 40.7003Z" fill="#0A0B1D"/>
<path d="M34.1429 46.7631V54.9356L27.0246 59.1538L19.9062 54.9356V46.7631L27.0246 42.5449L34.1429 46.7631Z" fill="#0A0B1D"/>
</svg>
