<svg id="Group_71529" data-name="Group 71529" xmlns="http://www.w3.org/2000/svg" xmlns:xlink="http://www.w3.org/1999/xlink" width="84" height="84" viewBox="0 0 84 84">
  <defs>
    <clipPath id="clip-path">
      <path id="Path_64949" data-name="Path 64949" d="M201.715,217.67q-2.069-.08-4.128-.321a51.354,51.354,0,0,1-6.475-1.385,43.742,43.742,0,0,1-11.885-5.712,42.556,42.556,0,0,1-16.122-21.781,32.488,32.488,0,0,1-1.054-4.143c-.357-1.773-.585-3.148-.66-3.988-.018-.2-.059-.589-.09-.868-.075-.648-.115-1.422-.15-3.045a40.118,40.118,0,0,1,1.415-11.769,32.463,32.463,0,0,1,1.3-3.944,3.99,3.99,0,0,0,.192-.513,27.7,27.7,0,0,1,1.248-2.84,41.9,41.9,0,0,1,4.2-6.92,43.859,43.859,0,0,1,9.648-9.327,47.036,47.036,0,0,1,5.961-3.465,22.4,22.4,0,0,1,2.6-1.135,41.231,41.231,0,0,1,5.526-1.754c.544-.155,1.192-.287,2.659-.545a25.153,25.153,0,0,1,3.574-.48c1.547-.078,6.179-.063,7.554.028a32.122,32.122,0,0,1,6.188,1.058,43.666,43.666,0,0,1,10.633,4.224,49.473,49.473,0,0,1,4.16,2.692c.088.078.383.308.648.51a34.96,34.96,0,0,1,4.056,3.556,42.273,42.273,0,0,1,3.829,4.381,40.581,40.581,0,0,1,6.1,11.167,42.6,42.6,0,0,1,2.379,17.431,42.029,42.029,0,0,1-.781,5.538,41,41,0,0,1-2.184,7.137c-.113.265-.276.651-.357.861-.192.478-.388.9-.884,1.9A41.8,41.8,0,0,1,230.534,207.5a44.963,44.963,0,0,1-4.325,3.294,43.279,43.279,0,0,1-15.139,6.16,46.578,46.578,0,0,1-9.356.715Zm12.3-12.479c1.088-.066,1.219-.161,1.55-1.085.059-.172.224-.587.365-.921l.6-1.469c.189-.475.417-1.03.5-1.238s.477-1.173.865-2.146q.986-2.469,2-4.925c.27-.648,1.012-2.5,1.528-3.823.18-.464.5-1.259.709-1.767,1.571-3.8,3.559-8.768,3.692-9.2.015-.044.006-.074-.029-.084a28.888,28.888,0,0,0-3.242-.109,21.906,21.906,0,0,1-2.933-.109c-.074-.021-.1-.133-.062-.256.019-.059.1-.281.184-.5s.449-1.288.813-2.373.992-2.925,1.388-4.088,1.054-3.106,1.465-4.321.983-2.9,1.272-3.746.84-2.461,1.222-3.581c.871-2.555,1.459-4.272,2.091-6.088.273-.781.489-1.438.486-1.466-.029-.153-.973-.177-7.01-.18h-4.782l-.063.15a13.2,13.2,0,0,0-.486,1.45c-.133.442-.307,1.007-.388,1.254q-.276.873-.538,1.754c-.339,1.144-.582,1.947-1.03,3.428-.069.224-.177.545-.243.71a5.312,5.312,0,0,0-.206.722,3.451,3.451,0,0,1-.192.648,4.4,4.4,0,0,0-.178.548q-.323,1.258-.737,2.492c-.165.463-.5,1.539-1.083,3.552q-.183.6-.379,1.2l-.259.788-3.051.019c-1.68.012-5.488.029-8.462.038l-5.413.022-.044-.147-.214-.707c-.1-.309-.312-1.035-.486-1.617s-.385-1.3-.475-1.587q-.2-.657-.393-1.315c-.122-.416-.249-.831-.379-1.244-.231-.725-1.319-4.333-1.872-6.219q-.221-.749-.451-1.5c-.1-.34-.391-1.278-.634-2.084q-.278-.942-.573-1.877l-.136-.41-2.751-.019c-3.454-.027-9.2-.027-9.2,0s.407,1.254.962,2.9c1.039,3.061,4.036,11.829,4.9,14.323,2.09,6.067,3.177,9.333,3.114,9.35-.116.037-1.117.066-3.129.091-1.388.018-2.659.041-2.824.055-.258.018-.3.029-.309.074a37.023,37.023,0,0,0,1.5,4c.472,1.1,2.959,7.228,4.123,10.168.175.441.4.99.5,1.223s.4.961.663,1.617.759,1.894,1.11,2.748.931,2.292,1.292,3.192c.582,1.45,1.223,2.987,1.456,3.5l.084.175,4.328-.015c3.877-.019,5.181-.04,5.236-.094.035-.037-1.715-5.058-4.646-13.313q-1.225-3.433-2.418-6.873c-.352-1.012-.871-2.5-1.157-3.308s-.582-1.662-.663-1.9l-.144-.438.127-.021c.38-.06,6.337-.091,14.2-.074,7.744.019,9.849.037,9.9.085.032.029-.388,1.26-1.958,5.719-.405,1.149-.937,2.656-1.18,3.354s-.643,1.827-.88,2.508-.769,2.184-1.172,3.338q-1.068,3.04-2.153,6.073c-.228.641-.547,1.55-.707,2.025s-.386,1.12-.5,1.435c-.265.725-.48,1.378-.466,1.393.052.052,2.913.13,5.292.141.613,0,1.463.009,1.894.015S213.74,205.206,214.012,205.191Z" transform="translate(-161.138 -133.687)" fill="none"/>
    </clipPath>
  </defs>
  <g id="Group_71530" data-name="Group 71530" transform="translate(0 0)">
    <g id="Group_71529-2" data-name="Group 71529" clip-path="url(#clip-path)">
      <rect id="Rectangle_12270" data-name="Rectangle 12270" width="113.472" height="114.946" transform="translate(-13.467 -14.275)" fill="#da3db0"/>
    </g>
  </g>
</svg>
