<svg xmlns="http://www.w3.org/2000/svg" width="73.113" height="83" viewBox="0 0 73.113 83">
  <path id="Subtraction_18" data-name="Subtraction 18" d="M4.149,82a4.115,4.115,0,0,1-1.561-.308,4.2,4.2,0,0,1-1.325-.859A4.089,4.089,0,0,1,0,77.852V4.149A4.089,4.089,0,0,1,1.263,1.168,4.2,4.2,0,0,1,2.588.309,4.115,4.115,0,0,1,4.149,0,4.053,4.053,0,0,1,5.189.136,4.217,4.217,0,0,1,6.213.561L70.042,37.413a4.211,4.211,0,0,1,.906.7,4.052,4.052,0,0,1,.647.869,4.191,4.191,0,0,1,0,4.036,4.052,4.052,0,0,1-.647.869,4.211,4.211,0,0,1-.906.7L6.213,81.439a4.215,4.215,0,0,1-1.024.425A4.054,4.054,0,0,1,4.149,82ZM9.514,38.87a12.339,12.339,0,0,0-2.361,3.778,12.278,12.278,0,0,0-.86,4.536,12.433,12.433,0,0,0,.251,2.487A12.279,12.279,0,0,0,8.4,54.083a12.375,12.375,0,0,0,5.429,4.471,12.269,12.269,0,0,0,2.316.719,12.44,12.44,0,0,0,5.824-.206,12.286,12.286,0,0,0,2.99-1.287A17.015,17.015,0,0,1,9.405,40.809,17.294,17.294,0,0,1,9.514,38.87ZM26.455,24.216a16.554,16.554,0,0,0-8.043,2.091,16.453,16.453,0,0,0,7.36,30.805c.216.009.435.013.652.013h0a16.55,16.55,0,0,0,8.041-2.09,16.376,16.376,0,0,0,6.13-5.982A16.574,16.574,0,0,0,42,46.029a16.362,16.362,0,0,0,.867-6.323,16.5,16.5,0,0,0-3.192-8.817,16.369,16.369,0,0,0-2.169-2.4,16.586,16.586,0,0,0-6.783-3.71A16.364,16.364,0,0,0,26.455,24.216ZM25.437,55.988h0a15.353,15.353,0,0,1-14.208-17.4,11.237,11.237,0,1,1,14.208,17.4Z" transform="translate(0.5 0.5)" fill="#7efbfa" stroke="rgba(0,0,0,0)" stroke-miterlimit="10" stroke-width="1"/>
</svg>
