<svg width="546" height="314" viewBox="0 0 546 314" fill="none" xmlns="http://www.w3.org/2000/svg">
<path d="M119.078 55.1406L120.022 55.47L120.023 55.4666L119.078 55.1406ZM111.5 66.7812L112.185 67.5101L112.185 67.5098L111.5 66.7812ZM29.7812 77.0938V76.0938H28.7812V77.0938H29.7812ZM29.7812 111V112H30.7812V111H29.7812ZM0.796875 111H-0.203125V112H0.796875V111ZM0.796875 3.65625V2.65625H-0.203125V3.65625H0.796875ZM98.0625 6.39062L97.7489 7.34024L97.7571 7.34284L98.0625 6.39062ZM111.5 13.9688L110.81 14.6921L110.815 14.6975L110.821 14.7027L111.5 13.9688ZM91.0312 34.3594L90.0938 34.7076L90.0999 34.724L90.1066 34.7401L91.0312 34.3594ZM87.5938 29.9062L87.015 30.7218L87.5938 29.9062ZM81.2656 27.4062L81.0508 28.3829L81.0601 28.385L81.0695 28.3868L81.2656 27.4062ZM29.7812 26.5469V25.5469H28.7812V26.5469H29.7812ZM29.7812 54.2031H28.7812V55.2031H29.7812V54.2031ZM81.2656 53.5781L81.4236 54.5656L81.4332 54.564L81.4428 54.5623L81.2656 53.5781ZM87.5938 51.3125L88.1359 52.1528L88.1453 52.1467L88.1546 52.1404L87.5938 51.3125ZM91.0312 47.0938L90.1107 46.7032L90.1056 46.7151L90.1008 46.7272L91.0312 47.0938ZM120.422 40.2969C120.422 45.5636 119.655 50.4 118.133 54.8146L120.023 55.4666C121.626 50.8188 122.422 45.7593 122.422 40.2969H120.422ZM118.134 54.8113C116.625 59.1369 114.188 62.8806 110.815 66.0527L112.185 67.5098C115.791 64.1194 118.406 60.1027 120.022 55.47L118.134 54.8113ZM110.815 66.0524C107.506 69.1614 103.163 71.6222 97.749 73.4098L98.376 75.309C104.004 73.4507 108.619 70.8594 112.185 67.5101L110.815 66.0524ZM97.749 73.4098C92.3584 75.1897 85.7522 76.0938 77.9062 76.0938V78.0938C85.8937 78.0938 92.7249 77.1749 98.376 75.309L97.749 73.4098ZM77.9062 76.0938H29.7812V78.0938H77.9062V76.0938ZM28.7812 77.0938V111H30.7812V77.0938H28.7812ZM29.7812 110H0.796875V112H29.7812V110ZM1.79688 111V3.65625H-0.203125V111H1.79688ZM0.796875 4.65625H77.9062V2.65625H0.796875V4.65625ZM77.9062 4.65625C85.7522 4.65625 92.3584 5.56031 97.749 7.3402L98.376 5.44105C92.7249 3.5751 85.8937 2.65625 77.9062 2.65625V4.65625ZM97.7571 7.34284C103.165 9.07747 107.503 11.5357 110.81 14.6921L112.19 13.2454C108.622 9.83928 104.002 7.24545 98.3679 5.43841L97.7571 7.34284ZM110.821 14.7027C114.191 17.821 116.625 21.5363 118.134 25.8606L120.022 25.2019C118.406 20.5678 115.789 16.5748 112.179 13.2348L110.821 14.7027ZM118.134 25.8606C119.655 30.221 120.422 35.0299 120.422 40.2969H122.422C122.422 34.8346 121.626 29.7998 120.022 25.2019L118.134 25.8606ZM93.125 40.7656C93.125 38.173 92.7475 35.901 91.9559 33.9786L90.1066 34.7401C90.7733 36.3594 91.125 38.3583 91.125 40.7656H93.125ZM91.9687 34.0112C91.2203 31.9964 89.9477 30.3506 88.1725 29.0907L87.015 30.7218C88.469 31.7536 89.488 33.0765 90.0938 34.7076L91.9687 34.0112ZM88.1725 29.0907C86.4114 27.8409 84.1591 26.9651 81.4617 26.4257L81.0695 28.3868C83.5805 28.889 85.547 29.6799 87.015 30.7218L88.1725 29.0907ZM81.4805 26.4296C78.783 25.8361 75.5028 25.5469 71.6562 25.5469V27.5469C75.4139 27.5469 78.54 27.8305 81.0508 28.3829L81.4805 26.4296ZM71.6562 25.5469H29.7812V27.5469H71.6562V25.5469ZM28.7812 26.5469V54.2031H30.7812V26.5469H28.7812ZM29.7812 55.2031H71.6562V53.2031H29.7812V55.2031ZM71.6562 55.2031C75.4903 55.2031 78.7499 54.9934 81.4236 54.5656L81.1076 52.5907C78.573 52.9962 75.4264 53.2031 71.6562 53.2031V55.2031ZM81.4428 54.5623C84.1311 54.0784 86.377 53.2876 88.1359 52.1528L87.0516 50.4722C85.5814 51.4208 83.6085 52.1403 81.0885 52.5939L81.4428 54.5623ZM88.1546 52.1404C89.9262 50.9403 91.2065 49.3773 91.9617 47.4603L90.1008 46.7272C89.5019 48.2477 88.4904 49.4972 87.0329 50.4846L88.1546 52.1404ZM91.9518 47.4843C92.7479 45.6078 93.125 43.3568 93.125 40.7656H91.125C91.125 43.1744 90.7729 45.1422 90.1107 46.7032L91.9518 47.4843ZM236.5 111H235.5V112H236.5V111ZM236.5 100.453H237.5V98.7629L236.019 99.5766L236.5 100.453ZM224.547 105.844L224.203 104.905L224.2 104.906L224.547 105.844ZM211.344 109.828L211.112 108.855L211.344 109.828ZM197.125 112.25L197.019 111.256L197.008 111.257L197.125 112.25ZM165.641 111.469L165.441 112.449L165.443 112.449L165.641 111.469ZM141.266 96.5469L140.42 97.0809L140.425 97.0887L141.266 96.5469ZM143.453 63.9688L144.224 64.6056L144.227 64.6015L143.453 63.9688ZM192.359 44.9844L192.227 43.9932L192.226 43.9933L192.359 44.9844ZM236.5 41.0781L236.555 42.0766L237.5 42.0244V41.0781H236.5ZM235.094 33.5781L234.21 34.0461L234.216 34.057L235.094 33.5781ZM229.938 28.9688L229.453 29.8438L229.464 29.8499L229.476 29.8557L229.938 28.9688ZM219.781 25.6875L219.59 26.669L219.592 26.6694L219.781 25.6875ZM187.75 25.2969L187.852 26.2917L187.86 26.2908L187.75 25.2969ZM172.906 27.4844L172.714 26.503L172.712 26.5034L172.906 27.4844ZM147.75 34.6719H146.75V36.1326L148.112 35.6041L147.75 34.6719ZM147.75 8.89062L147.501 7.92213L146.75 8.11523V8.89062H147.75ZM174.156 3.89062L174.283 4.88263L174.293 4.8812L174.156 3.89062ZM189 2.32812L189.073 3.32553L189.083 3.32467L189 2.32812ZM228.297 3.96875L228.102 4.94961L228.109 4.95085L228.297 3.96875ZM247.906 10.8438L247.41 11.712L247.414 11.714L247.906 10.8438ZM260.797 22.7188L259.955 23.2586L259.959 23.265L260.797 22.7188ZM265.484 111V112H266.484V111H265.484ZM236.5 62.0156H237.5V60.9775L236.463 61.0163L236.5 62.0156ZM208.062 63.8125L207.963 62.8175L207.962 62.8175L208.062 63.8125ZM176.5 69.9062L176.126 68.9789L176.12 68.9812L176.5 69.9062ZM169.938 73.5781L170.588 74.3374L169.938 73.5781ZM167.203 77.3281L166.243 77.0481L166.238 77.0668L166.233 77.0856L167.203 77.3281ZM167.75 84.4375L166.879 84.9296L166.884 84.9379L166.889 84.9462L167.75 84.4375ZM171.266 87.4844L170.796 88.3676L170.808 88.3734L171.266 87.4844ZM215.484 86.3125L215.778 87.2683L215.79 87.2648L215.484 86.3125ZM226.891 81.7812L227.327 82.6809L227.333 82.6783L226.891 81.7812ZM236.5 76.1562L237.076 76.9741L237.5 76.6753V76.1562H236.5ZM237.5 111V100.453H235.5V111H237.5ZM236.019 99.5766C232.368 101.582 228.43 103.358 224.203 104.905L224.89 106.783C229.205 105.204 233.236 103.387 236.981 101.33L236.019 99.5766ZM224.2 104.906C220.02 106.454 215.658 107.771 211.112 108.855L211.576 110.801C216.196 109.698 220.636 108.359 224.894 106.781L224.2 104.906ZM211.112 108.855C206.572 109.939 201.874 110.739 197.019 111.256L197.231 113.244C202.167 112.719 206.949 111.905 211.576 110.801L211.112 108.855ZM197.008 111.257C192.203 111.825 187.347 112.109 182.438 112.109V114.109C187.424 114.109 192.359 113.821 197.242 113.243L197.008 111.257ZM182.438 112.109C176.72 112.109 171.187 111.569 165.839 110.489L165.443 112.449C170.927 113.556 176.593 114.109 182.438 114.109V112.109ZM165.84 110.489C160.57 109.414 155.91 107.679 151.85 105.294L150.837 107.018C155.111 109.529 159.982 111.336 165.441 112.449L165.84 110.489ZM151.85 105.294C147.815 102.923 144.571 99.8284 142.106 96.005L140.425 97.0887C143.064 101.182 146.539 104.493 150.837 107.018L151.85 105.294ZM142.111 96.0129C139.733 92.2468 138.516 87.5982 138.516 82.0156H136.516C136.516 87.8914 137.799 92.9303 140.42 97.0809L142.111 96.0129ZM138.516 82.0156C138.516 74.9682 140.438 69.1893 144.224 64.6056L142.682 63.3319C138.552 68.3315 136.516 74.5838 136.516 82.0156H138.516ZM144.227 64.6015C148.04 59.9366 153.91 56.0629 161.932 53.0291L161.224 51.1584C152.996 54.2705 146.783 58.3134 142.679 63.336L144.227 64.6015ZM161.932 53.0291C169.962 49.992 180.142 47.636 192.493 45.9755L192.226 43.9933C179.785 45.6661 169.444 48.0497 161.224 51.1584L161.932 53.0291ZM192.492 45.9755C204.907 44.3133 219.594 43.0131 236.555 42.0766L236.445 40.0796C219.448 41.0181 204.708 42.3221 192.227 43.9932L192.492 45.9755ZM237.5 41.0781V38.8125H235.5V41.0781H237.5ZM237.5 38.8125C237.5 36.8572 236.981 34.9491 235.972 33.0993L234.216 34.057C235.082 35.6447 235.5 37.2261 235.5 38.8125H237.5ZM235.978 33.1102C234.914 31.1008 233.009 29.4408 230.399 28.0818L229.476 29.8557C231.866 31.1008 233.399 32.5138 234.21 34.046L235.978 33.1102ZM230.422 28.0937C227.844 26.6681 224.345 25.5488 219.971 24.7056L219.592 26.6694C223.864 27.4929 227.135 28.5611 229.453 29.8438L230.422 28.0937ZM219.973 24.706C215.615 23.8557 210.076 23.4375 203.375 23.4375V25.4375C210.007 25.4375 215.406 25.8526 219.59 26.669L219.973 24.706ZM203.375 23.4375C198.078 23.4375 192.833 23.7259 187.64 24.303L187.86 26.2908C192.98 25.722 198.151 25.4375 203.375 25.4375V23.4375ZM187.648 24.302C182.515 24.8258 177.537 25.5593 172.714 26.503L173.098 28.4658C177.859 27.5344 182.776 26.8096 187.852 26.2917L187.648 24.302ZM172.712 26.5034C167.946 27.4462 163.411 28.5468 159.11 29.8059L159.672 31.7254C163.911 30.4844 168.388 29.3976 173.1 28.4654L172.712 26.5034ZM159.11 29.8059C154.816 31.0624 150.909 32.3734 147.388 33.7396L148.112 35.6041C151.57 34.262 155.423 32.9688 159.672 31.7254L159.11 29.8059ZM148.75 34.6719V8.89062H146.75V34.6719H148.75ZM147.999 9.85912C151.622 8.92743 155.691 8.02015 160.207 7.13769L159.824 5.17481C155.277 6.06318 151.169 6.97882 147.501 7.92213L147.999 9.85912ZM160.207 7.13769C164.716 6.25677 169.407 5.50498 174.283 4.88258L174.03 2.89867C169.113 3.52627 164.378 4.2849 159.824 5.17481L160.207 7.13769ZM174.293 4.8812C179.167 4.20711 184.094 3.68851 189.073 3.32548L188.927 1.33077C183.906 1.6969 178.937 2.21997 174.019 2.90005L174.293 4.8812ZM189.083 3.32467C194.058 2.91009 198.822 2.70312 203.375 2.70312V0.703125C198.761 0.703125 193.942 0.912823 188.917 1.33158L189.083 3.32467ZM203.375 2.70312C212.33 2.70312 220.571 3.45377 228.102 4.94959L228.492 2.98791C220.814 1.4629 212.441 0.703125 203.375 0.703125V2.70312ZM228.109 4.95085C235.628 6.39302 242.056 8.65252 247.41 11.712L248.402 9.97551C242.819 6.78498 236.174 4.46115 228.485 2.98665L228.109 4.95085ZM247.414 11.714C252.809 14.7682 256.98 18.6189 259.955 23.2586L261.639 22.1789C258.468 17.2353 254.045 13.1693 248.399 9.97349L247.414 11.714ZM259.959 23.265C262.963 27.87 264.484 33.3765 264.484 39.8281H266.484C266.484 33.0506 264.881 27.1508 261.634 22.1725L259.959 23.265ZM264.484 39.8281V111H266.484V39.8281H264.484ZM265.484 110H236.5V112H265.484V110ZM236.463 61.0163C225.304 61.4335 215.803 62.0335 207.963 62.8175L208.162 64.8075C215.947 64.029 225.404 63.4311 236.537 63.0149L236.463 61.0163ZM207.962 62.8175C200.183 63.6007 193.689 64.5162 188.489 65.5667L188.886 67.5271C193.998 66.4942 200.421 65.5868 208.163 64.8075L207.962 62.8175ZM188.489 65.5667C183.306 66.6138 179.176 67.7481 176.126 68.9789L176.874 70.8336C179.761 69.6686 183.756 68.5633 188.886 67.5271L188.489 65.5667ZM176.12 68.9812C173.16 70.1972 170.861 71.4694 169.287 72.8189L170.588 74.3374C171.931 73.1869 174.007 72.0112 176.88 70.8313L176.12 68.9812ZM169.287 72.8189C167.747 74.1386 166.682 75.5429 166.243 77.0481L168.163 77.6081C168.453 76.6133 169.211 75.5176 170.588 74.3374L169.287 72.8189ZM166.233 77.0856C165.905 78.397 165.734 79.6256 165.734 80.7656H167.734C167.734 79.8223 167.876 78.7592 168.173 77.5707L166.233 77.0856ZM165.734 80.7656C165.734 82.205 166.126 83.597 166.879 84.9296L168.621 83.9454C168.02 82.8821 167.734 81.8262 167.734 80.7656H165.734ZM166.889 84.9462C167.691 86.3035 169.032 87.43 170.796 88.3675L171.735 86.6013C170.166 85.7679 169.163 84.8632 168.611 83.9288L166.889 84.9462ZM170.808 88.3734C172.644 89.3194 175.013 90.0461 177.88 90.577L178.245 88.6105C175.487 88.0998 173.325 87.4202 171.724 86.5954L170.808 88.3734ZM177.88 90.577C180.775 91.113 184.382 91.375 188.688 91.375V89.375C184.451 89.375 180.975 89.1162 178.245 88.6105L177.88 90.577ZM188.688 91.375C193.479 91.375 198.167 91.0064 202.753 90.2685L202.435 88.294C197.958 89.0144 193.376 89.375 188.688 89.375V91.375ZM202.753 90.2685C207.326 89.5326 211.668 88.5329 215.778 87.2683L215.19 85.3567C211.175 86.5921 206.924 87.5716 202.435 88.294L202.753 90.2685ZM215.79 87.2648C219.893 85.9495 223.74 84.4219 227.327 82.6809L226.454 80.8816C222.958 82.5781 219.2 84.0714 215.179 85.3602L215.79 87.2648ZM227.333 82.6783C230.965 80.8882 234.214 78.9874 237.076 76.9741L235.924 75.3384C233.161 77.2834 230.003 79.1327 226.449 80.8842L227.333 82.6783ZM237.5 76.1562V62.0156H235.5V76.1562H237.5ZM397.359 27.9531L397.043 28.9018L398.359 29.3405V27.9531H397.359ZM393.922 26.9375L393.616 27.8895L393.636 27.8959L393.656 27.9015L393.922 26.9375ZM388.766 25.6094L388.535 26.5825L388.547 26.5853L388.56 26.5879L388.766 25.6094ZM382.203 24.4375L382.071 25.4287L382.074 25.4291L382.203 24.4375ZM360.328 25.9219L360.597 26.8851L360.604 26.883L360.328 25.9219ZM347.75 31L348.221 31.8824L348.23 31.8774L347.75 31ZM336.812 38.1875L337.436 38.9696L337.437 38.9684L336.812 38.1875ZM327.594 46.3906L326.887 45.6835L326.594 45.9764V46.3906H327.594ZM327.594 111V112H328.594V111H327.594ZM298.609 111H297.609V112H298.609V111ZM298.609 3.65625V2.65625H297.609V3.65625H298.609ZM327.594 3.65625H328.594V2.65625H327.594V3.65625ZM327.594 21.0781H326.594V23.0722L328.192 21.8796L327.594 21.0781ZM338.297 13.5781L338.846 14.4138L338.849 14.412L338.297 13.5781ZM349.781 7.09375L349.358 6.18785L349.353 6.19001L349.781 7.09375ZM362.438 2.64062L362.677 3.6115L362.688 3.60872L362.438 2.64062ZM382.203 1.23438L382.096 2.22858L382.11 2.23014L382.124 2.23127L382.203 1.23438ZM387.906 1.85938L387.765 2.84933L387.769 2.84987L387.906 1.85938ZM397.359 3.65625H398.359V2.88365L397.612 2.68863L397.359 3.65625ZM397.676 27.0044C396.869 26.7356 395.703 26.3915 394.188 25.9735L393.656 27.9015C395.162 28.3168 396.287 28.6498 397.043 28.9018L397.676 27.0044ZM394.228 25.9855C392.728 25.5034 390.975 25.0525 388.972 24.6308L388.56 26.5879C390.515 26.9996 392.199 27.4341 393.616 27.8895L394.228 25.9855ZM388.996 24.6363C386.978 24.1583 384.756 23.762 382.332 23.4459L382.074 25.4291C384.442 25.738 386.595 26.1229 388.535 26.5825L388.996 24.6363ZM382.335 23.4463C379.945 23.1276 377.479 22.9688 374.938 22.9688V24.9688C377.396 24.9688 379.773 25.1224 382.071 25.4287L382.335 23.4463ZM374.938 22.9688C369.645 22.9688 364.682 23.6303 360.052 24.9608L360.604 26.883C365.037 25.6092 369.813 24.9688 374.938 24.9688V22.9688ZM360.059 24.9587C355.51 26.2282 351.246 27.949 347.27 30.1226L348.23 31.8774C352.066 29.7801 356.188 28.1155 360.597 26.8851L360.059 24.9587ZM347.279 30.1176C343.32 32.2294 339.622 34.659 336.188 37.4066L337.437 38.9684C340.773 36.2993 344.368 33.9373 348.221 31.8824L347.279 30.1176ZM336.189 37.4054C332.829 40.0834 329.727 42.8427 326.887 45.6835L328.301 47.0977C331.085 44.3136 334.13 41.6041 337.436 38.9696L336.189 37.4054ZM326.594 46.3906V111H328.594V46.3906H326.594ZM327.594 110H298.609V112H327.594V110ZM299.609 111V3.65625H297.609V111H299.609ZM298.609 4.65625H327.594V2.65625H298.609V4.65625ZM326.594 3.65625V21.0781H328.594V3.65625H326.594ZM328.192 21.8796C331.665 19.2873 335.217 16.7988 338.846 14.4138L337.748 12.7424C334.085 15.1492 330.501 17.6606 326.996 20.2767L328.192 21.8796ZM338.849 14.412C342.508 11.9899 346.294 9.85191 350.209 7.99749L349.353 6.19001C345.351 8.08559 341.482 10.2705 337.745 12.7443L338.849 14.412ZM350.205 7.99963C354.154 6.15302 358.312 4.69004 362.677 3.61143L362.198 1.66982C357.709 2.77871 353.429 4.28448 349.358 6.18787L350.205 7.99963ZM362.688 3.60872C367.027 2.48573 371.63 1.92188 376.5 1.92188V-0.078125C371.474 -0.078125 366.702 0.503857 362.187 1.67253L362.688 3.60872ZM376.5 1.92188C378.338 1.92188 380.203 2.02398 382.096 2.22858L382.311 0.24017C380.349 0.0281067 378.412 -0.078125 376.5 -0.078125V1.92188ZM382.124 2.23127C384.084 2.38599 385.964 2.5921 387.765 2.84932L388.048 0.869427C386.202 0.605812 384.28 0.395256 382.282 0.237476L382.124 2.23127ZM387.769 2.84987C389.629 3.1082 391.356 3.39185 392.951 3.70053L393.331 1.73697C391.696 1.42065 389.934 1.13138 388.044 0.868881L387.769 2.84987ZM392.951 3.70053C394.551 4.0102 395.935 4.31816 397.107 4.62387L397.612 2.68863C396.388 2.36934 394.96 2.0523 393.331 1.73697L392.951 3.70053ZM396.359 3.65625V27.9531H398.359V3.65625H396.359ZM475.953 27.0156V26.0156H474.953V27.0156H475.953ZM475.953 111V112H476.953V111H475.953ZM446.969 111H445.969V112H446.969V111ZM446.969 27.0156H447.969V26.0156H446.969V27.0156ZM401.422 27.0156H400.422V28.0156H401.422V27.0156ZM401.422 3.65625V2.65625H400.422V3.65625H401.422ZM521.578 3.65625H522.578V2.65625H521.578V3.65625ZM521.578 27.0156V28.0156H522.578V27.0156H521.578ZM474.953 27.0156V111H476.953V27.0156H474.953ZM475.953 110H446.969V112H475.953V110ZM447.969 111V27.0156H445.969V111H447.969ZM446.969 26.0156H401.422V28.0156H446.969V26.0156ZM402.422 27.0156V3.65625H400.422V27.0156H402.422ZM401.422 4.65625H521.578V2.65625H401.422V4.65625ZM520.578 3.65625V27.0156H522.578V3.65625H520.578ZM521.578 26.0156H475.953V28.0156H521.578V26.0156ZM103.062 311H102.062V312H103.062V311ZM102.047 239.984L101.068 240.186L101.068 240.19L102.047 239.984ZM98.2188 231.625L97.4294 232.239L97.437 232.249L97.4448 232.258L98.2188 231.625ZM90.4844 226.234L90.1155 227.164L90.1244 227.167L90.1333 227.171L90.4844 226.234ZM65.25 225.922L65.4843 226.894L65.4925 226.892L65.25 225.922ZM52.3594 230.141L52.7424 231.064L52.3594 230.141ZM40.0938 236.312L39.5792 235.455L39.5742 235.458L40.0938 236.312ZM29.7812 243.656L29.1359 242.892L28.7812 243.192V243.656H29.7812ZM29.7812 311V312H30.7812V311H29.7812ZM0.796875 311H-0.203125V312H0.796875V311ZM0.796875 203.656V202.656H-0.203125V203.656H0.796875ZM29.7812 203.656H30.7812V202.656H29.7812V203.656ZM29.7812 218.344H28.7812V220.067L30.2774 219.212L29.7812 218.344ZM41.4219 212.172L41.8646 213.069L41.8736 213.064L41.4219 212.172ZM105.172 203.578L104.874 204.533L104.885 204.536L105.172 203.578ZM119.703 211L119.071 211.775L119.077 211.78L119.703 211ZM128.766 222.641L127.855 223.054L127.861 223.067L128.766 222.641ZM131.969 311V312H132.969V311H131.969ZM104.062 311V250.844H102.062V311H104.062ZM104.062 250.844C104.062 246.779 103.719 243.088 103.026 239.779L101.068 240.19C101.728 243.339 102.062 246.888 102.062 250.844H104.062ZM103.026 239.782C102.321 236.364 100.983 233.424 98.9927 230.992L97.4448 232.258C99.2047 234.409 100.419 237.042 101.068 240.186L103.026 239.782ZM99.0081 231.011C97.0509 228.495 94.3072 226.6 90.8355 225.298L90.1333 227.171C93.3282 228.369 95.7407 230.068 97.4294 232.239L99.0081 231.011ZM90.8532 225.305C87.4127 223.94 83.0301 223.281 77.75 223.281V225.281C82.8866 225.281 86.9935 225.925 90.1155 227.164L90.8532 225.305ZM77.75 223.281C73.6995 223.281 69.451 223.841 65.0075 224.952L65.4925 226.892C69.799 225.815 73.8838 225.281 77.75 225.281V223.281ZM65.0157 224.95C60.6401 226.004 56.2935 227.427 51.9764 229.217L52.7424 231.064C56.9669 229.313 61.2141 227.923 65.4843 226.894L65.0157 224.95ZM51.9764 229.217C47.6608 231.006 43.5283 233.086 39.5793 235.455L40.6082 237.17C44.4717 234.852 48.5163 232.817 52.7424 231.064L51.9764 229.217ZM39.5742 235.458C35.6818 237.825 32.2013 240.303 29.1359 242.892L30.4266 244.42C33.4029 241.906 36.7973 239.487 40.6133 237.167L39.5742 235.458ZM28.7812 243.656V311H30.7812V243.656H28.7812ZM29.7812 310H0.796875V312H29.7812V310ZM1.79688 311V203.656H-0.203125V311H1.79688ZM0.796875 204.656H29.7812V202.656H0.796875V204.656ZM28.7812 203.656V218.344H30.7812V203.656H28.7812ZM30.2774 219.212C33.9042 217.14 37.7664 215.092 41.8645 213.069L40.9792 211.275C36.8482 213.315 32.95 215.381 29.2851 217.476L30.2774 219.212ZM41.8736 213.064C45.949 211.001 50.286 209.142 54.8852 207.488L54.2085 205.606C49.5369 207.286 45.1239 209.177 40.9701 211.28L41.8736 213.064ZM54.8852 207.488C59.4708 205.839 64.3449 204.498 69.5086 203.465L69.1164 201.504C63.8635 202.554 58.8938 203.921 54.2085 205.606L54.8852 207.488ZM69.5086 203.465C74.647 202.437 80.0757 201.922 85.7969 201.922V199.922C79.9555 199.922 74.3947 200.448 69.1164 201.504L69.5086 203.465ZM85.7969 201.922C92.9566 201.922 99.3117 202.798 104.874 204.533L105.47 202.623C99.6779 200.817 93.1163 199.922 85.7969 199.922V201.922ZM104.885 204.536C110.509 206.223 115.23 208.642 119.071 211.775L120.335 210.225C116.259 206.9 111.293 204.37 105.459 202.62L104.885 204.536ZM119.077 211.78C122.914 214.86 125.837 218.615 127.855 223.054L129.676 222.227C127.527 217.5 124.409 213.494 120.329 210.22L119.077 211.78ZM127.861 223.067C129.926 227.449 130.969 232.379 130.969 237.875H132.969C132.969 232.121 131.876 226.894 129.67 222.214L127.861 223.067ZM130.969 237.875V311H132.969V237.875H130.969ZM131.969 310H103.062V312H131.969V310ZM284.859 305.688L285.174 306.637L285.859 306.41V305.688H284.859ZM258.453 311.938L258.313 310.947L258.306 310.948L258.453 311.938ZM200.25 310.141L199.98 311.104L199.987 311.105L200.25 310.141ZM177.203 299.125L176.595 299.919L177.203 299.125ZM162.906 235.453L162.004 235.022L162.003 235.025L162.906 235.453ZM176.969 217.328L177.614 218.092L177.615 218.092L176.969 217.328ZM199 205.297L199.316 206.246L199.321 206.244L199 205.297ZM254.469 204.906L254.156 205.856L254.164 205.859L254.469 204.906ZM275.328 216.547L274.663 217.293L274.666 217.296L275.328 216.547ZM288.844 235.609L287.922 235.997L287.924 236.003L288.844 235.609ZM293.688 268.891V269.891H294.688V268.891H293.688ZM187.906 268.891V267.891H186.592L186.943 269.158L187.906 268.891ZM192.516 278.188L191.719 278.792L191.726 278.801L192.516 278.188ZM214.938 289.984L214.738 290.964L214.74 290.965L214.938 289.984ZM249.938 290.688L250.059 291.68L250.069 291.679L249.938 290.688ZM264.234 288.109L264.463 289.083L264.474 289.08L264.234 288.109ZM276.188 284.516L275.847 283.575L275.842 283.577L276.188 284.516ZM284.859 280.609H285.859V278.85L284.348 279.75L284.859 280.609ZM264.859 247.641V248.641H265.962L265.855 247.543L264.859 247.641ZM262.438 239.438L261.527 239.851L261.532 239.861L261.536 239.871L262.438 239.438ZM256.188 231.703L256.812 230.922L256.188 231.703ZM244.938 226.078L244.628 227.029L244.637 227.032L244.938 226.078ZM198.766 232.25L198.17 231.447L198.164 231.452L198.766 232.25ZM187.906 247.641L186.93 247.424L186.66 248.641H187.906V247.641ZM284.545 304.738C275.797 307.637 267.053 309.706 258.313 310.947L258.594 312.928C267.457 311.669 276.318 309.571 285.174 306.637L284.545 304.738ZM258.306 310.948C249.606 312.243 240.697 312.891 231.578 312.891V314.891C240.792 314.891 249.8 314.236 258.6 312.927L258.306 310.948ZM231.578 312.891C219.928 312.891 209.577 311.648 200.513 309.176L199.987 311.105C209.257 313.633 219.79 314.891 231.578 314.891V312.891ZM200.52 309.178C191.504 306.653 183.942 303.032 177.812 298.331L176.595 299.919C182.964 304.802 190.767 308.524 199.98 311.104L200.52 309.178ZM177.812 298.331C171.684 293.634 167.021 287.898 163.81 281.119L162.003 281.975C165.354 289.05 170.222 295.033 176.595 299.919L177.812 298.331ZM163.81 281.119C160.601 274.343 158.984 266.654 158.984 258.031H156.984C156.984 266.908 158.649 274.896 162.003 281.975L163.81 281.119ZM158.984 258.031C158.984 250.045 160.596 242.667 163.81 235.881L162.003 235.025C158.654 242.094 156.984 249.767 156.984 258.031H158.984ZM163.809 235.884C167.079 229.036 171.678 223.107 177.614 218.092L176.323 216.564C170.176 221.758 165.4 227.912 162.004 235.022L163.809 235.884ZM177.615 218.092C183.599 213.028 190.827 209.075 199.316 206.246L198.684 204.348C189.985 207.248 182.526 211.316 176.323 216.565L177.615 218.092ZM199.321 206.244C207.796 203.368 217.269 201.922 227.75 201.922V199.922C217.085 199.922 207.391 201.393 198.679 204.35L199.321 206.244ZM227.75 201.922C237.399 201.922 246.198 203.238 254.156 205.856L254.781 203.956C246.594 201.262 237.581 199.922 227.75 199.922V201.922ZM254.164 205.859C262.169 208.424 268.996 212.239 274.663 217.293L275.994 215.801C270.098 210.542 263.019 206.596 254.774 203.954L254.164 205.859ZM274.666 217.296C280.381 222.348 284.8 228.576 287.922 235.997L289.766 235.222C286.533 227.539 281.942 221.059 275.99 215.798L274.666 217.296ZM287.924 236.003C291.091 243.408 292.688 251.968 292.688 261.703H294.688C294.688 251.751 293.055 242.915 289.763 235.216L287.924 236.003ZM292.688 261.703V268.891H294.688V261.703H292.688ZM293.688 267.891H187.906V269.891H293.688V267.891ZM186.943 269.158C187.914 272.666 189.508 275.879 191.719 278.792L193.312 277.583C191.253 274.871 189.773 271.886 188.87 268.624L186.943 269.158ZM191.726 278.801C194.014 281.742 197.072 284.223 200.872 286.257L201.816 284.493C198.22 282.569 195.393 280.258 193.305 277.574L191.726 278.801ZM200.872 286.257C204.677 288.293 209.305 289.857 214.738 290.964L215.137 289.005C209.84 287.925 205.407 286.415 201.816 284.493L200.872 286.257ZM214.74 290.965C220.24 292.075 226.768 292.625 234.312 292.625V290.625C226.857 290.625 220.469 290.081 215.135 289.004L214.74 290.965ZM234.312 292.625C239.664 292.625 244.913 292.31 250.059 291.68L249.816 289.695C244.753 290.315 239.586 290.625 234.312 290.625V292.625ZM250.069 291.679C255.202 290.998 260 290.133 264.463 289.083L264.005 287.136C259.614 288.169 254.882 289.023 249.806 289.696L250.069 291.679ZM264.474 289.08C268.93 287.979 272.95 286.771 276.533 285.454L275.842 283.577C272.341 284.864 268.393 286.052 263.995 287.139L264.474 289.08ZM276.528 285.456C280.155 284.142 283.109 282.815 285.371 281.469L284.348 279.75C282.234 281.008 279.408 282.285 275.847 283.575L276.528 285.456ZM283.859 280.609V305.688H285.859V280.609H283.859ZM265.855 247.543C265.581 244.752 264.735 241.904 263.339 239.004L261.536 239.871C262.848 242.596 263.617 245.217 263.864 247.738L265.855 247.543ZM263.348 239.024C261.971 235.994 259.779 233.296 256.812 230.922L255.563 232.484C258.325 234.694 260.3 237.152 261.527 239.851L263.348 239.024ZM256.812 230.922C253.825 228.533 249.955 226.608 245.238 225.124L244.637 227.032C249.191 228.465 252.821 230.29 255.563 232.484L256.812 230.922ZM245.247 225.127C240.48 223.574 234.586 222.812 227.594 222.812V224.812C234.456 224.812 240.125 225.562 244.628 227.029L245.247 225.127ZM227.594 222.812C221.005 222.812 215.266 223.629 210.396 225.288L211.041 227.181C215.651 225.611 221.162 224.812 227.594 224.812V222.812ZM210.396 225.288C205.582 226.928 201.5 228.976 198.17 231.447L199.361 233.053C202.49 230.732 206.377 228.77 211.041 227.181L210.396 225.288ZM198.164 231.452C194.911 233.904 192.349 236.566 190.502 239.444L192.185 240.524C193.88 237.882 196.266 235.388 199.368 233.048L198.164 231.452ZM190.502 239.444C188.689 242.27 187.484 244.932 186.93 247.424L188.882 247.858C189.37 245.662 190.456 243.22 192.185 240.524L190.502 239.444ZM187.906 248.641H264.859V246.641H187.906V248.641ZM418.766 227.953L418.449 228.902L419.766 229.341V227.953H418.766ZM415.328 226.938L415.022 227.89L415.042 227.896L415.062 227.901L415.328 226.938ZM410.172 225.609L409.941 226.582L409.954 226.585L409.966 226.588L410.172 225.609ZM403.609 224.438L403.477 225.429L403.48 225.429L403.609 224.438ZM381.734 225.922L382.003 226.885L382.011 226.883L381.734 225.922ZM369.156 231L369.627 231.882L369.636 231.877L369.156 231ZM358.219 238.188L358.842 238.97L358.843 238.968L358.219 238.188ZM349 246.391L348.293 245.684L348 245.976V246.391H349ZM349 311V312H350V311H349ZM320.016 311H319.016V312H320.016V311ZM320.016 203.656V202.656H319.016V203.656H320.016ZM349 203.656H350V202.656H349V203.656ZM349 221.078H348V223.072L349.598 221.88L349 221.078ZM359.703 213.578L360.252 214.414L360.255 214.412L359.703 213.578ZM371.188 207.094L370.764 206.188L370.759 206.19L371.188 207.094ZM383.844 202.641L384.084 203.611L384.094 203.609L383.844 202.641ZM403.609 201.234L403.502 202.229L403.516 202.23L403.531 202.231L403.609 201.234ZM409.312 201.859L409.171 202.849L409.175 202.85L409.312 201.859ZM418.766 203.656H419.766V202.884L419.018 202.689L418.766 203.656ZM419.082 227.004C418.275 226.736 417.109 226.391 415.594 225.974L415.062 227.901C416.568 228.317 417.694 228.65 418.449 228.902L419.082 227.004ZM415.634 225.985C414.134 225.503 412.381 225.052 410.378 224.631L409.966 226.588C411.921 227 413.605 227.434 415.022 227.89L415.634 225.985ZM410.402 224.636C408.384 224.158 406.162 223.762 403.739 223.446L403.48 225.429C405.848 225.738 408.001 226.123 409.941 226.582L410.402 224.636ZM403.742 223.446C401.352 223.128 398.885 222.969 396.344 222.969V224.969C398.802 224.969 401.18 225.122 403.477 225.429L403.742 223.446ZM396.344 222.969C391.052 222.969 386.088 223.63 381.458 224.961L382.011 226.883C386.443 225.609 391.219 224.969 396.344 224.969V222.969ZM381.466 224.959C376.916 226.228 372.653 227.949 368.677 230.123L369.636 231.877C373.472 229.78 377.594 228.116 382.003 226.885L381.466 224.959ZM368.686 230.118C364.726 232.229 361.029 234.659 357.594 237.407L358.843 238.968C362.18 236.299 365.774 233.937 369.627 231.882L368.686 230.118ZM357.596 237.405C354.235 240.083 351.134 242.843 348.293 245.684L349.707 247.098C352.491 244.314 355.536 241.604 358.842 238.97L357.596 237.405ZM348 246.391V311H350V246.391H348ZM349 310H320.016V312H349V310ZM321.016 311V203.656H319.016V311H321.016ZM320.016 204.656H349V202.656H320.016V204.656ZM348 203.656V221.078H350V203.656H348ZM349.598 221.88C353.072 219.287 356.623 216.799 360.252 214.414L359.154 212.742C355.492 215.149 351.908 217.661 348.402 220.277L349.598 221.88ZM360.255 214.412C363.914 211.99 367.701 209.852 371.616 207.997L370.759 206.19C366.758 208.086 362.888 210.27 359.151 212.744L360.255 214.412ZM371.611 208C375.561 206.153 379.718 204.69 384.084 203.611L383.604 201.67C379.116 202.779 374.835 204.284 370.764 206.188L371.611 208ZM384.094 203.609C388.433 202.486 393.036 201.922 397.906 201.922V199.922C392.881 199.922 388.108 200.504 383.593 201.673L384.094 203.609ZM397.906 201.922C399.744 201.922 401.609 202.024 403.502 202.229L403.717 200.24C401.755 200.028 399.818 199.922 397.906 199.922V201.922ZM403.531 202.231C405.49 202.386 407.371 202.592 409.171 202.849L409.454 200.869C407.609 200.606 405.687 200.395 403.688 200.237L403.531 202.231ZM409.175 202.85C411.035 203.108 412.762 203.392 414.357 203.701L414.737 201.737C413.103 201.421 411.34 201.131 409.45 200.869L409.175 202.85ZM414.357 203.701C415.957 204.01 417.341 204.318 418.513 204.624L419.018 202.689C417.794 202.369 416.366 202.052 414.737 201.737L414.357 203.701ZM417.766 203.656V227.953H419.766V203.656H417.766ZM536.109 233.891L535.671 234.79L537.109 235.49V233.891H536.109ZM516.734 227.016L516.472 227.981L516.483 227.984L516.734 227.016ZM502.984 224.203L502.828 225.191L502.839 225.192L502.984 224.203ZM477.047 223.422L476.96 222.426L476.958 222.426L477.047 223.422ZM469.625 224.438L469.424 223.458L469.419 223.459L469.625 224.438ZM464.859 225.922L465.273 226.832L465.282 226.828L465.291 226.824L464.859 225.922ZM460.953 229.281L460.013 228.94L459.999 228.978L459.988 229.018L460.953 229.281ZM463.062 234.984L462.454 235.778L462.463 235.784L462.471 235.791L463.062 234.984ZM469.469 238.109L469.142 239.054L469.15 239.057L469.158 239.06L469.469 238.109ZM478.922 240.688L478.696 241.662L478.709 241.665L478.922 240.688ZM490.328 243.188L490.113 244.164L490.12 244.166L490.127 244.167L490.328 243.188ZM502.828 246L502.591 246.972L502.598 246.973L502.605 246.975L502.828 246ZM515.328 249.516L515.008 250.463L515.012 250.464L515.328 249.516ZM526.812 254.281L526.36 255.173L526.37 255.178L526.812 254.281ZM542.281 292.797L541.384 292.355L542.281 292.797ZM534.938 302.172L534.299 301.403L534.292 301.408L534.938 302.172ZM524.391 308.344L524.743 309.28L524.754 309.276L524.391 308.344ZM511.734 311.859L511.549 310.877L511.547 310.877L511.734 311.859ZM498.375 313.5L498.318 312.502L498.317 312.502L498.375 313.5ZM456.031 311.234L456.223 310.253L456.219 310.252L456.031 311.234ZM432.125 304.75H431.125V305.442L431.773 305.686L432.125 304.75ZM432.125 279.125L432.61 278.251L431.125 277.427V279.125H432.125ZM456.5 288.422L456.261 289.393L456.263 289.393L456.5 288.422ZM500.875 290.844L501.035 291.831L501.046 291.829L500.875 290.844ZM510.016 288.344L510.428 289.255L510.437 289.251L510.446 289.247L510.016 288.344ZM513.297 277.094L512.657 277.862L512.664 277.868L512.672 277.875L513.297 277.094ZM506.891 273.734L506.547 274.674L506.555 274.677L506.564 274.679L506.891 273.734ZM497.438 271.078L497.212 272.052L497.225 272.055L497.438 271.078ZM485.953 268.656L485.75 269.635L485.757 269.637L485.764 269.638L485.953 268.656ZM461.031 262.719L460.722 263.67L460.73 263.672L460.737 263.675L461.031 262.719ZM449.625 258.266L449.194 259.168L449.204 259.173L449.625 258.266ZM440.172 252.25L439.517 253.006L439.526 253.013L440.172 252.25ZM433.766 244.203L432.874 244.656L432.877 244.663L433.766 244.203ZM440.641 212.562L441.289 213.324L441.29 213.323L440.641 212.562ZM450.484 206.625L450.111 205.697L450.106 205.699L450.484 206.625ZM499.625 201.547L499.53 202.542L499.531 202.542L499.625 201.547ZM512.672 203.344L512.492 204.327L512.504 204.329L512.672 203.344ZM525.016 205.922L524.773 206.892L524.776 206.893L525.016 205.922ZM536.109 209.047H537.109V208.319L536.417 208.095L536.109 209.047ZM536.547 232.992C534.477 231.983 531.762 230.85 528.414 229.595L527.711 231.468C531.03 232.712 533.68 233.819 535.671 234.79L536.547 232.992ZM528.414 229.595C525.041 228.33 521.231 227.148 516.985 226.048L516.483 227.984C520.675 229.07 524.417 230.232 527.711 231.468L528.414 229.595ZM516.996 226.051C512.734 224.893 508.112 223.948 503.13 223.214L502.839 225.192C507.753 225.917 512.297 226.847 516.472 227.981L516.996 226.051ZM503.14 223.215C498.139 222.426 493.008 222.031 487.75 222.031V224.031C492.908 224.031 497.934 224.418 502.828 225.191L503.14 223.215ZM487.75 222.031C483.565 222.031 479.966 222.162 476.96 222.426L477.134 224.418C480.065 224.161 483.602 224.031 487.75 224.031V222.031ZM476.958 222.426C474.018 222.688 471.504 223.031 469.424 223.458L469.826 225.417C471.809 225.01 474.243 224.676 477.136 224.418L476.958 222.426ZM469.419 223.459C467.398 223.884 465.725 224.4 464.428 225.02L465.291 226.824C466.39 226.298 467.894 225.824 469.831 225.416L469.419 223.459ZM464.446 225.012C463.246 225.557 462.258 226.156 461.527 226.825L462.879 228.3C463.398 227.823 464.181 227.328 465.273 226.832L464.446 225.012ZM461.527 226.825C460.828 227.467 460.294 228.168 460.013 228.94L461.893 229.623C462.029 229.249 462.329 228.804 462.879 228.3L461.527 226.825ZM459.988 229.018C459.815 229.655 459.719 230.266 459.719 230.844H461.719C461.719 230.484 461.779 230.053 461.918 229.544L459.988 229.018ZM459.719 230.844C459.719 232.797 460.715 234.445 462.454 235.778L463.671 234.191C462.285 233.128 461.719 232.016 461.719 230.844H459.719ZM462.471 235.791C464.143 237.017 466.38 238.098 469.142 239.054L469.796 237.164C467.141 236.246 465.107 235.244 463.654 234.178L462.471 235.791ZM469.158 239.06C471.901 239.957 475.081 240.823 478.696 241.662L479.148 239.713C475.575 238.885 472.453 238.033 469.779 237.159L469.158 239.06ZM478.709 241.665C482.302 242.446 486.103 243.279 490.113 244.164L490.544 242.211C486.532 241.325 482.729 240.492 479.134 239.71L478.709 241.665ZM490.127 244.167C494.177 244.998 498.332 245.933 502.591 246.972L503.065 245.028C498.783 243.984 494.604 243.044 490.529 242.208L490.127 244.167ZM502.605 246.975C506.897 247.957 511.031 249.12 515.008 250.463L515.648 248.568C511.604 247.203 507.405 246.022 503.051 245.025L502.605 246.975ZM515.012 250.464C519.031 251.804 522.813 253.374 526.36 255.173L527.265 253.389C523.625 251.543 519.751 249.936 515.644 248.567L515.012 250.464ZM526.37 255.178C529.893 256.914 532.968 258.949 535.603 261.28L536.928 259.782C534.146 257.322 530.92 255.19 527.255 253.384L526.37 255.178ZM535.603 261.28C538.219 263.594 540.274 266.253 541.777 269.26L543.566 268.365C541.945 265.122 539.729 262.26 536.928 259.782L535.603 261.28ZM541.777 269.26C543.261 272.227 544.016 275.637 544.016 279.516H546.016C546.016 275.373 545.208 271.648 543.566 268.365L541.777 269.26ZM544.016 279.516C544.016 284.556 543.125 288.824 541.384 292.355L543.178 293.239C545.084 289.373 546.016 284.788 546.016 279.516H544.016ZM541.384 292.355C539.621 295.931 537.26 298.943 534.299 301.403L535.576 302.941C538.761 300.296 541.295 297.059 543.178 293.239L541.384 292.355ZM534.292 301.408C531.363 303.883 527.944 305.886 524.028 307.412L524.754 309.276C528.858 307.677 532.471 305.565 535.583 302.936L534.292 301.408ZM524.038 307.408C520.085 308.897 515.922 310.053 511.549 310.877L511.919 312.842C516.401 311.999 520.676 310.811 524.743 309.28L524.038 307.408ZM511.547 310.877C507.216 311.702 502.806 312.244 498.318 312.502L498.432 314.498C503.006 314.235 507.503 313.683 511.922 312.842L511.547 310.877ZM498.317 312.502C493.855 312.761 489.604 312.891 485.562 312.891V314.891C489.646 314.891 493.937 314.76 498.433 314.498L498.317 312.502ZM485.562 312.891C474.992 312.891 465.214 312.01 456.223 310.253L455.839 312.216C464.974 314.001 474.883 314.891 485.562 314.891V312.891ZM456.219 310.252C447.252 308.542 439.34 306.394 432.477 303.814L431.773 305.686C438.764 308.314 446.79 310.49 455.844 312.217L456.219 310.252ZM433.125 304.75V279.125H431.125V304.75H433.125ZM431.64 279.999C438.863 284.007 447.073 287.135 456.261 289.393L456.739 287.451C447.698 285.229 439.657 282.16 432.61 278.251L431.64 279.999ZM456.263 289.393C465.515 291.654 475.387 292.781 485.875 292.781V290.781C475.53 290.781 465.819 289.669 456.737 287.45L456.263 289.393ZM485.875 292.781C492.048 292.781 497.107 292.468 501.035 291.831L500.715 289.857C496.935 290.47 491.994 290.781 485.875 290.781V292.781ZM501.046 291.829C504.989 291.146 508.13 290.294 510.428 289.255L509.603 287.433C507.527 288.372 504.574 289.188 500.704 289.858L501.046 291.829ZM510.446 289.247C512.697 288.174 514.377 286.956 515.306 285.531L513.631 284.438C512.998 285.409 511.709 286.43 509.586 287.441L510.446 289.247ZM515.306 285.531C516.161 284.219 516.641 282.886 516.641 281.547H514.641C514.641 282.395 514.339 283.353 513.631 284.438L515.306 285.531ZM516.641 281.547C516.641 279.472 515.678 277.718 513.922 276.313L512.672 277.875C514.041 278.97 514.641 280.184 514.641 281.547H516.641ZM513.937 276.326C512.252 274.921 509.997 273.751 507.218 272.789L506.564 274.679C509.201 275.592 511.217 276.662 512.657 277.862L513.937 276.326ZM507.234 272.795C504.473 271.786 501.277 270.889 497.65 270.101L497.225 272.055C500.786 272.829 503.892 273.703 506.547 274.674L507.234 272.795ZM497.663 270.104C494.056 269.267 490.215 268.458 486.142 267.674L485.764 269.638C489.816 270.417 493.632 271.222 497.212 272.052L497.663 270.104ZM486.157 267.677C482.15 266.845 478.013 265.96 473.746 265.023L473.317 266.977C477.591 267.915 481.735 268.801 485.75 269.635L486.157 267.677ZM473.746 265.023C469.501 264.091 465.361 263.005 461.325 261.763L460.737 263.675C464.827 264.933 469.02 266.034 473.317 266.977L473.746 265.023ZM461.34 261.768C457.365 260.477 453.601 259.007 450.046 257.358L449.204 259.173C452.837 260.857 456.676 262.356 460.722 263.67L461.34 261.768ZM450.056 257.363C446.531 255.677 443.453 253.717 440.818 251.487L439.526 253.013C442.307 255.367 445.532 257.417 449.194 259.168L450.056 257.363ZM440.826 251.494C438.209 249.229 436.155 246.646 434.654 243.744L432.877 244.663C434.501 247.802 436.718 250.584 439.517 253.006L440.826 251.494ZM434.657 243.75C433.177 240.839 432.422 237.457 432.422 233.578H430.422C430.422 237.72 431.23 241.422 432.874 244.656L434.657 243.75ZM432.422 233.578C432.422 228.954 433.235 225.022 434.822 221.749L433.022 220.876C431.276 224.478 430.422 228.723 430.422 233.578H432.422ZM434.822 221.749C436.43 218.431 438.586 215.627 441.289 213.324L439.992 211.801C437.071 214.29 434.747 217.319 433.022 220.876L434.822 221.749ZM441.29 213.323C444.069 210.948 447.257 209.023 450.862 207.551L450.106 205.699C446.316 207.248 442.941 209.281 439.991 211.802L441.29 213.323ZM450.858 207.553C454.549 206.066 458.423 204.911 462.48 204.089L462.083 202.129C457.911 202.974 453.92 204.163 450.111 205.697L450.858 207.553ZM462.48 204.089C466.553 203.265 470.678 202.697 474.855 202.388L474.707 200.393C470.447 200.709 466.239 201.288 462.083 202.129L462.48 204.089ZM474.855 202.388C479.052 202.077 483.038 201.922 486.812 201.922V199.922C482.983 199.922 478.948 200.079 474.707 200.393L474.855 202.388ZM486.812 201.922C490.946 201.922 495.185 202.129 499.53 202.542L499.72 200.551C495.315 200.132 491.012 199.922 486.812 199.922V201.922ZM499.531 202.542C503.93 202.956 508.25 203.552 512.492 204.327L512.852 202.36C508.552 201.573 504.174 200.971 499.719 200.551L499.531 202.542ZM512.504 204.329C516.751 205.055 520.841 205.909 524.773 206.892L525.258 204.952C521.274 203.956 517.134 203.091 512.84 202.358L512.504 204.329ZM524.776 206.893C528.767 207.878 532.442 208.913 535.802 209.998L536.417 208.095C533.006 206.993 529.285 205.945 525.255 204.951L524.776 206.893ZM535.109 209.047V233.891H537.109V209.047H535.109Z" fill="url(#paint0_linear_1855_3216)"/>
<defs>
<linearGradient id="paint0_linear_1855_3216" x1="110.787" y1="-456.312" x2="767.67" y2="-396.198" gradientUnits="userSpaceOnUse">
<stop stop-color="#04C9E4"/>
<stop offset="0.479167" stop-color="#FA41A5" stop-opacity="0.51"/>
<stop offset="1" stop-color="#F3BD2F" stop-opacity="0.22"/>
</linearGradient>
</defs>
</svg>
