<svg xmlns="http://www.w3.org/2000/svg" xmlns:xlink="http://www.w3.org/1999/xlink" width="547.219" height="315.969" viewBox="0 0 547.219 315.969">
  <defs>
    <linearGradient id="linear-gradient-partnetrsss" x1="-0.203" y1="-0.134" x2="0.613" y2="0.678" gradientUnits="objectBoundingBox">
      <stop offset="0" stop-color="#ffc600"/>
      <stop offset="1" stop-color="#ff00b8"/>
    </linearGradient>
  </defs>
  <path id="partners_1_" data-name="partners (1)" d="M119.078,55.141l.944.329v0ZM111.5,66.781l.685.729h0ZM29.781,77.094v-1h-1v1Zm0,33.906v1h1v-1ZM.8,111h-1v1h1ZM.8,3.656v-1h-1v1ZM98.063,6.391l-.314.95.008,0ZM111.5,13.969l-.69.723.005.005.006.005ZM91.031,34.359l-.937.348.006.016.007.016Zm-3.437-4.453-.579.816Zm-6.328-2.5-.215.977.009,0,.009,0Zm-51.484-.859v-1h-1v1Zm0,27.656h-1v1h1Zm51.484-.625.158.988.01,0,.01,0Zm6.328-2.266.542.84.009-.006.009-.006Zm3.437-4.219-.92-.391-.005.012,0,.012Zm29.391-6.8a44.272,44.272,0,0,1-2.289,14.518l1.89.652a46.252,46.252,0,0,0,2.4-15.17Zm-2.288,14.514a27.78,27.78,0,0,1-7.319,11.241l1.37,1.457a29.769,29.769,0,0,0,7.837-12.04Zm-7.319,11.241A34.606,34.606,0,0,1,97.749,73.41l.627,1.9a36.6,36.6,0,0,0,13.809-7.8ZM97.749,73.41q-8.086,2.67-19.843,2.684v2q11.981,0,20.47-2.785ZM77.906,76.094H29.781v2H77.906Zm-49.125,1V111h2V77.094Zm1,32.906H.8v2H29.781ZM1.8,111V3.656h-2V111ZM.8,4.656H77.906v-2H.8Zm77.109,0q11.769,0,19.843,2.684l.627-1.9q-8.477-2.8-20.47-2.785ZM97.757,7.343a33.278,33.278,0,0,1,13.053,7.349l1.38-1.447A35.251,35.251,0,0,0,98.368,5.438Zm13.064,7.36a27.169,27.169,0,0,1,7.313,11.158l1.888-.659a29.154,29.154,0,0,0-7.843-11.967Zm7.313,11.158A43.573,43.573,0,0,1,120.422,40.3h2a45.563,45.563,0,0,0-2.4-15.1Zm-25.009,14.9a17.8,17.8,0,0,0-1.169-6.787l-1.849.762a15.827,15.827,0,0,1,1.018,6.025Zm-1.156-6.754a10.343,10.343,0,0,0-3.8-4.92l-1.158,1.631a8.343,8.343,0,0,1,3.079,3.986Zm-3.8-4.92a17.4,17.4,0,0,0-6.711-2.665l-.392,1.961a15.433,15.433,0,0,1,5.945,2.335ZM81.48,26.43a46.545,46.545,0,0,0-9.824-.883v2a44.6,44.6,0,0,1,9.395.836Zm-9.824-.883H29.781v2H71.656Zm-42.875,1V54.2h2V26.547Zm1,28.656H71.656v-2H29.781Zm41.875,0a63.178,63.178,0,0,0,9.767-.637l-.316-1.975a61.239,61.239,0,0,1-9.451.612Zm9.787-.641a18.281,18.281,0,0,0,6.693-2.41l-1.084-1.681a16.32,16.32,0,0,1-5.963,2.122Zm6.712-2.422a10.009,10.009,0,0,0,3.807-4.68L90.1,46.727a8.011,8.011,0,0,1-3.068,3.757Zm3.8-4.656a17.2,17.2,0,0,0,1.173-6.719h-2A15.232,15.232,0,0,1,90.111,46.7ZM236.5,111h-1v1h1Zm0-10.547h1v-1.69l-1.481.814Zm-11.953,5.391-.344-.939h0Zm-13.2,3.984-.232-.973Zm-14.219,2.422-.106-.994h-.011Zm-31.484-.781-.2.98h0ZM141.266,96.547l-.846.534.005.008Zm2.187-32.578.771.637,0,0Zm48.906-18.984-.132-.991h0ZM236.5,41.078l.055,1,.945-.052v-.946Zm-1.406-7.5-.884.468.006.011Zm-5.156-4.609-.485.875.011.006.012.006Zm-10.157-3.281-.191.982h0ZM187.75,25.3l.1.995h.008Zm-14.844,2.188-.192-.981h0ZM147.75,34.672h-1v1.461l1.362-.528Zm0-25.781-.249-.968-.751.193v.775Zm26.406-5,.127.992h.01ZM189,2.328l.073,1h.01Zm39.3,1.641-.195.981h.007Zm19.609,6.875-.5.868,0,0ZM260.8,22.719l-.842.54,0,.006ZM265.484,111v1h1v-1ZM236.5,62.016h1V60.978l-1.037.039Zm-28.438,1.8-.1-.995h0ZM176.5,69.906l-.374-.927-.006,0Zm-6.562,3.672.65.759Zm-2.735,3.75-.96-.28,0,.019-.005.019Zm.547,7.109-.871.492.005.008.005.008Zm3.516,3.047-.47.883.012.006Zm44.218-1.172.294.956.012,0Zm11.407-4.531.436.9.006,0Zm9.609-5.625.576.818.424-.3v-.519Zm1,34.844V100.453h-2V111Zm-1.481-11.423A85.636,85.636,0,0,1,224.2,104.9l.687,1.878a87.613,87.613,0,0,0,12.091-5.453ZM224.2,104.906a113.364,113.364,0,0,1-13.088,3.949l.464,1.946a115.422,115.422,0,0,0,13.318-4.02Zm-13.088,3.949a111.444,111.444,0,0,1-14.093,2.4l.212,1.988a113.461,113.461,0,0,0,14.345-2.443Zm-14.1,2.4a124,124,0,0,1-14.57.852v2a125.835,125.835,0,0,0,14.8-.866Zm-14.57.852a83.663,83.663,0,0,1-16.6-1.62l-.4,1.96a85.7,85.7,0,0,0,17,1.66Zm-16.6-1.62a45.269,45.269,0,0,1-13.99-5.195l-1.013,1.724a47.238,47.238,0,0,0,14.6,5.431Zm-13.99-5.195A28.7,28.7,0,0,1,142.106,96l-1.681,1.084a30.691,30.691,0,0,0,10.412,9.929Zm-9.739-9.281c-2.378-3.766-3.595-8.415-3.595-14h-2a27.678,27.678,0,0,0,3.9,15.065Zm-3.595-14c0-7.047,1.922-12.826,5.708-17.41l-1.542-1.274c-4.13,5-6.166,11.252-6.166,18.684ZM144.227,64.6c3.813-4.665,9.683-8.539,17.705-11.572l-.708-1.871c-8.228,3.112-14.441,7.155-18.545,12.178Zm17.705-11.572q12.045-4.556,30.561-7.054l-.267-1.982q-18.661,2.509-31,7.165Zm30.56-7.054q18.622-2.493,44.063-3.9l-.11-2q-25.5,1.408-44.218,3.914Zm45.008-4.9V38.813h-2v2.266Zm0-2.266a11.819,11.819,0,0,0-1.528-5.713l-1.756.958a9.823,9.823,0,0,1,1.284,4.756Zm-1.522-5.7a12.61,12.61,0,0,0-5.579-5.028l-.923,1.774a10.658,10.658,0,0,1,4.734,4.19Zm-5.556-5.016a36.133,36.133,0,0,0-10.451-3.388l-.379,1.964a34.2,34.2,0,0,1,9.861,3.174Zm-10.449-3.388a89.248,89.248,0,0,0-16.6-1.268v2a87.327,87.327,0,0,1,16.215,1.232Zm-16.6-1.268a142.355,142.355,0,0,0-15.735.865l.22,1.988a140.4,140.4,0,0,1,15.515-.853Zm-15.727.865q-7.7.786-14.934,2.2l.384,1.963q7.141-1.4,14.754-2.174Zm-14.936,2.2q-7.149,1.414-13.6,3.3l.562,1.92q6.358-1.862,13.428-3.26Zm-13.6,3.3q-6.441,1.885-11.722,3.934l.724,1.864q5.187-2.013,11.56-3.879Zm-10.36,4.866V8.891h-2V34.672ZM148,9.859q5.435-1.4,12.208-2.721l-.383-1.963Q153,6.507,147.5,7.922Zm12.208-2.721q6.764-1.321,14.076-2.255L174.03,2.9q-7.375.941-14.206,2.276Zm14.086-2.256q7.311-1.011,14.78-1.556l-.146-1.995Q181.4,1.88,174.019,2.9Zm14.79-1.557q7.463-.622,14.292-.622V.7q-6.921,0-14.458.628ZM203.375,2.7A127.075,127.075,0,0,1,228.1,4.95l.39-1.962A129.066,129.066,0,0,0,203.375.7Zm24.734,2.248a62.412,62.412,0,0,1,19.3,6.761l.992-1.736a64.382,64.382,0,0,0-19.917-6.989Zm19.305,6.763a35.015,35.015,0,0,1,12.541,11.545l1.684-1.08A37.016,37.016,0,0,0,248.4,9.973Zm12.545,11.551a29.619,29.619,0,0,1,4.525,16.563h2a31.614,31.614,0,0,0-4.85-17.656Zm4.525,16.563V111h2V39.828Zm1,70.172H236.5v2h28.984ZM236.463,61.016q-16.738.626-28.5,1.8l.2,1.99q11.678-1.168,28.375-1.793Zm-28.5,1.8q-11.669,1.175-19.473,2.749l.4,1.96q7.668-1.549,19.277-2.72Zm-19.473,2.749a72.767,72.767,0,0,0-12.363,3.412l.748,1.855a70.874,70.874,0,0,1,12.012-3.307ZM176.12,68.981a25.592,25.592,0,0,0-6.833,3.838l1.3,1.519a23.715,23.715,0,0,1,6.292-3.506Zm-6.833,3.838a9.177,9.177,0,0,0-3.044,4.229l1.92.56a7.238,7.238,0,0,1,2.425-3.271Zm-3.054,4.267a15.251,15.251,0,0,0-.5,3.68h2a13.282,13.282,0,0,1,.439-3.195Zm-.5,3.68a8.38,8.38,0,0,0,1.145,4.164l1.742-.984a6.383,6.383,0,0,1-.887-3.18Zm1.155,4.181a9.607,9.607,0,0,0,3.907,3.421l.939-1.766a7.651,7.651,0,0,1-3.124-2.673Zm3.919,3.427a25.952,25.952,0,0,0,7.072,2.2l.365-1.967a24.022,24.022,0,0,1-6.521-2.015Zm7.072,2.2a60.894,60.894,0,0,0,10.808.8v-2a58.947,58.947,0,0,1-10.443-.765Zm10.808.8a88.4,88.4,0,0,0,14.065-1.106l-.318-1.975a86.4,86.4,0,0,1-13.747,1.081Zm14.065-1.106a96.267,96.267,0,0,0,13.025-3l-.588-1.912a94.265,94.265,0,0,1-12.755,2.937Zm13.037-3a87.719,87.719,0,0,0,11.537-4.584l-.873-1.8a85.734,85.734,0,0,1-11.275,4.479Zm11.543-4.587a73.058,73.058,0,0,0,9.743-5.7l-1.152-1.636a70.907,70.907,0,0,1-9.475,5.546ZM237.5,76.156V62.016h-2V76.156Zm159.859-48.2-.316.949,1.316.439V27.953Zm-3.437-1.016-.306.952.02.006.02.006Zm-5.156-1.328-.231.973.012,0,.013,0ZM382.2,24.438l-.132.991h0Zm-21.875,1.484.269.963.007,0ZM347.75,31l.471.882.009-.005Zm-10.938,7.188.624.782h0Zm-9.218,8.2-.707-.707-.293.293v.414Zm0,64.609v1h1v-1Zm-28.985,0h-1v1h1Zm0-107.344v-1h-1v1Zm28.985,0h1v-1h-1Zm0,17.422h-1v1.994l1.6-1.193Zm10.7-7.5.549.836,0,0Zm11.484-6.484-.423-.906-.005,0Zm12.657-4.453.239.971.011,0ZM382.2,1.234l-.107.994.014,0h.014Zm5.7.625-.141.99h0Zm9.453,1.8h1V2.884l-.747-.2ZM397.676,27c-.807-.269-1.973-.613-3.488-1.031l-.532,1.928c1.506.415,2.631.748,3.387,1Zm-3.448-1.019a53.169,53.169,0,0,0-5.256-1.355l-.412,1.957a51.247,51.247,0,0,1,5.056,1.3ZM389,24.636a66.124,66.124,0,0,0-6.664-1.19l-.258,1.983a64.135,64.135,0,0,1,6.461,1.153Zm-6.661-1.19a55.928,55.928,0,0,0-7.4-.478v2a53.949,53.949,0,0,1,7.133.46Zm-7.4-.478a53.683,53.683,0,0,0-14.886,1.992l.552,1.922a51.694,51.694,0,0,1,14.334-1.914Zm-14.879,1.99a60.415,60.415,0,0,0-12.789,5.164l.96,1.755A58.4,58.4,0,0,1,360.6,26.885Zm-12.78,5.159a71.785,71.785,0,0,0-11.091,7.289l1.249,1.562a69.768,69.768,0,0,1,10.784-7.086Zm-11.09,7.288a110.659,110.659,0,0,0-9.3,8.278L328.3,47.1a108.689,108.689,0,0,1,9.135-8.128Zm-9.6,8.985V111h2V46.391Zm1,63.609H298.609v2h28.985Zm-27.985,1V3.656h-2V111Zm-1-106.344h28.985v-2H298.609Zm27.985-1V21.078h2V3.656Zm1.6,18.223q5.21-3.888,10.654-7.466l-1.1-1.671q-5.494,3.61-10.752,7.534Zm10.657-7.468A91.589,91.589,0,0,1,350.209,8l-.856-1.807a93.58,93.58,0,0,0-11.608,6.554ZM350.2,8a67.714,67.714,0,0,1,12.472-4.388L362.2,1.67a69.7,69.7,0,0,0-12.84,4.518Zm12.483-4.391A54.934,54.934,0,0,1,376.5,1.922v-2a56.923,56.923,0,0,0-14.313,1.751ZM376.5,1.922a52.049,52.049,0,0,1,5.6.307L382.311.24A54.051,54.051,0,0,0,376.5-.078Zm5.624.309q2.94.232,5.641.618l.283-1.98q-2.769-.4-5.766-.632Zm5.645.619q2.79.387,5.182.851l.38-1.964q-2.452-.474-5.287-.868Zm5.182.851q2.4.465,4.156.923l.505-1.935q-1.836-.479-4.281-.952Zm3.408-.044v24.3h2V3.656Zm79.594,23.359v-1h-1v1Zm0,83.984v1h1v-1Zm-28.984,0h-1v1h1Zm0-83.984h1v-1h-1Zm-45.547,0h-1v1h1Zm0-23.359v-1h-1v1Zm120.156,0h1v-1h-1Zm0,23.359v1h1v-1Zm-46.625,0V111h2V27.016Zm1,82.984H446.969v2h28.984Zm-27.984,1V27.016h-2V111Zm-1-84.984H401.422v2h45.547Zm-44.547,1V3.656h-2V27.016Zm-1-22.359H521.578v-2H401.422Zm119.156-1V27.016h2V3.656Zm1,22.359H475.953v2h45.625ZM103.062,311h-1v1h1Zm-1.015-71.016-.979.2v0Zm-3.828-8.359-.789.614.008.01.008.009Zm-7.734-5.391-.369.93.009,0,.009,0Zm-25.234-.312.234.972.008,0Zm-12.891,4.219.383.923Zm-12.266,6.171-.515-.857-.005,0Zm-10.313,7.344-.645-.764-.355.3v.464Zm0,67.344v1h1v-1ZM.8,311h-1v1h1Zm0-107.344v-1h-1v1Zm28.984,0h1v-1h-1Zm0,14.688h-1v1.723l1.5-.855Zm11.641-6.172.443.9.009-.005Zm63.75-8.594-.3.955.011,0ZM119.7,211l-.632.775.006.005Zm9.063,11.641-.911.413.006.013Zm3.2,88.359v1h1v-1Zm-27.907,0V250.844h-2V311Zm0-60.156a54.164,54.164,0,0,0-1.036-11.065l-1.958.411a52.128,52.128,0,0,1,.994,10.654Zm-1.036-11.062a20.021,20.021,0,0,0-4.033-8.79l-1.548,1.266a18.039,18.039,0,0,1,3.623,7.928Zm-4.018-8.771a18.113,18.113,0,0,0-8.173-5.713l-.7,1.873a16.122,16.122,0,0,1,7.3,5.068ZM90.853,225.3a35.966,35.966,0,0,0-13.1-2.024v2a34.02,34.02,0,0,1,12.366,1.883Zm-13.1-2.024a52.556,52.556,0,0,0-12.743,1.671l.485,1.94a50.549,50.549,0,0,1,12.257-1.611ZM65.016,224.95a87.551,87.551,0,0,0-13.039,4.267l.766,1.847a85.668,85.668,0,0,1,12.742-4.17Zm-13.039,4.267a94.14,94.14,0,0,0-12.4,6.238l1.029,1.715a92.245,92.245,0,0,1,12.134-6.106Zm-12.4,6.241a82.908,82.908,0,0,0-10.438,7.434l1.291,1.528a80.832,80.832,0,0,1,10.187-7.253Zm-10.793,8.2V311h2V243.656Zm1,66.344H.8v2H29.781ZM1.8,311V203.656h-2V311ZM.8,204.656H29.781v-2H.8Zm27.984-1v14.688h2V203.656Zm1.5,15.556q5.44-3.108,11.587-6.143l-.885-1.794q-6.2,3.06-11.694,6.2Zm11.6-6.148a114.8,114.8,0,0,1,13.012-5.576l-.677-1.882A116.734,116.734,0,0,0,40.97,211.28Zm13.012-5.576a102.709,102.709,0,0,1,14.623-4.023l-.392-1.961a104.576,104.576,0,0,0-14.908,4.1Zm14.623-4.023A82.906,82.906,0,0,1,85.8,201.922v-2a84.9,84.9,0,0,0-16.68,1.582ZM85.8,201.922a64.038,64.038,0,0,1,19.077,2.611l.6-1.91a66.047,66.047,0,0,0-19.673-2.7Zm19.088,2.614a40.609,40.609,0,0,1,14.186,7.239l1.264-1.55a42.6,42.6,0,0,0-14.876-7.605Zm14.192,7.244a30.4,30.4,0,0,1,8.778,11.274l1.821-.827a32.394,32.394,0,0,0-9.347-12.007Zm8.784,11.287a34.305,34.305,0,0,1,3.108,14.808h2a36.294,36.294,0,0,0-3.3-15.661Zm3.108,14.808V311h2V237.875Zm1,72.125H103.062v2h28.907Zm152.89-4.312.315.949.685-.227v-.722Zm-26.406,6.25-.14-.991h-.007Zm-58.2-1.8-.27.963h.007ZM177.2,299.125l-.608.794Zm-14.3-63.672-.9-.431v0Zm14.063-18.125.645.764h0ZM199,205.3l.316.949.005,0Zm55.469-.391-.313.95.008,0Zm20.859,11.641-.665.746,0,0Zm13.516,19.062-.922.388,0,.006Zm4.844,33.282v1h1v-1Zm-105.782,0v-1h-1.314l.351,1.267Zm4.61,9.3-.8.6.007.009Zm22.422,11.8-.2.98h0Zm35,.7.121.992h.01Zm14.3-2.579.229.974.011,0Zm11.954-3.593-.341-.941,0,0Zm8.671-3.907h1V278.85l-1.511.9Zm-20-32.968v1h1.1l-.107-1.1Zm-2.421-8.2-.911.413.005.01,0,.01Zm-6.25-7.735.624-.781Zm-11.25-5.625-.31.951.009,0Zm-46.172,6.172-.6-.8-.006,0Zm-10.86,15.391-.976-.217-.27,1.217h1.246Zm96.639,57.1a150.588,150.588,0,0,1-26.232,6.209l.281,1.981a152.712,152.712,0,0,0,26.58-6.291Zm-26.239,6.21a181.315,181.315,0,0,1-26.728,1.943v2a183.442,183.442,0,0,0,27.022-1.964Zm-26.728,1.943a118.318,118.318,0,0,1-31.065-3.715l-.526,1.929a120.308,120.308,0,0,0,31.591,3.786Zm-31.058-3.713a66.259,66.259,0,0,1-22.708-10.847l-1.217,1.588A68.26,68.26,0,0,0,199.98,311.1Zm-22.708-10.847a46.549,46.549,0,0,1-14-17.212l-1.807.856A48.555,48.555,0,0,0,176.6,299.919Zm-14-17.212a53.29,53.29,0,0,1-4.826-23.088h-2A55.262,55.262,0,0,0,162,281.975Zm-4.826-23.088a51.07,51.07,0,0,1,4.826-22.15L162,235.025a53.056,53.056,0,0,0-5.019,23.006Zm4.825-22.147a52.939,52.939,0,0,1,13.8-17.792l-1.291-1.528A54.96,54.96,0,0,0,162,235.022Zm13.806-17.792a64.957,64.957,0,0,1,21.7-11.846l-.632-1.9a66.972,66.972,0,0,0-22.361,12.217Zm21.706-11.848a88.093,88.093,0,0,1,28.429-4.322v-2a90.066,90.066,0,0,0-29.071,4.428Zm28.429-4.322a84.122,84.122,0,0,1,26.406,3.934l.625-1.9a86.094,86.094,0,0,0-27.031-4.034Zm26.414,3.937a56.022,56.022,0,0,1,20.5,11.434l1.331-1.492a58.009,58.009,0,0,0-21.22-11.847Zm20.5,11.437A50.9,50.9,0,0,1,287.922,236l1.844-.775A52.9,52.9,0,0,0,275.99,215.8ZM287.924,236q4.75,11.107,4.764,25.7h2q0-14.928-4.925-26.487Zm4.764,25.7v7.188h2V261.7Zm1,6.188H187.906v2H293.688Zm-106.745,1.267a28.283,28.283,0,0,0,4.776,9.634l1.593-1.209a26.281,26.281,0,0,1-4.442-8.959Zm4.783,9.643a28.259,28.259,0,0,0,9.146,7.456l.944-1.764a26.257,26.257,0,0,1-8.511-6.919Zm9.146,7.456a51,51,0,0,0,13.866,4.707l.4-1.959a49.033,49.033,0,0,1-13.321-4.512Zm13.868,4.708a100.258,100.258,0,0,0,19.572,1.66v-2A98.251,98.251,0,0,1,215.135,289Zm19.572,1.66a129.482,129.482,0,0,0,15.747-.945l-.243-1.985a127.442,127.442,0,0,1-15.5.93Zm15.757-.946q7.7-1.021,14.394-2.6l-.458-1.947q-6.586,1.55-14.2,2.56Zm14.4-2.6a115.186,115.186,0,0,0,12.059-3.626l-.691-1.877a113.225,113.225,0,0,1-11.847,3.562Zm12.054-3.624a52.772,52.772,0,0,0,8.843-3.987l-1.023-1.719a50.826,50.826,0,0,1-8.5,3.825Zm7.331-4.847v25.079h2V280.609Zm-18-33.066A25.432,25.432,0,0,0,263.339,239l-1.8.867a23.424,23.424,0,0,1,2.328,7.867Zm-2.507-8.519a22.182,22.182,0,0,0-6.536-8.1l-1.249,1.562a20.2,20.2,0,0,1,5.964,7.367Zm-6.536-8.1a35.41,35.41,0,0,0-11.574-5.8l-.6,1.908a33.433,33.433,0,0,1,10.926,5.452Zm-11.565-5.795a57.7,57.7,0,0,0-17.653-2.315v2a55.753,55.753,0,0,1,17.034,2.217Zm-17.653-2.315a53.473,53.473,0,0,0-17.2,2.476l.645,1.893a51.514,51.514,0,0,1,16.553-2.369Zm-17.2,2.476a44.456,44.456,0,0,0-12.226,6.159l1.191,1.606a42.505,42.505,0,0,1,11.68-5.872Zm-12.232,6.164a31.38,31.38,0,0,0-7.662,7.992l1.683,1.08a29.419,29.419,0,0,1,7.183-7.476Zm-7.662,7.992a25.229,25.229,0,0,0-3.572,7.98l1.952.434a23.271,23.271,0,0,1,3.3-7.334Zm-2.6,9.2h76.953v-2H187.906Zm230.86-20.688-.317.949,1.317.439v-1.388Zm-3.438-1.015-.306.952.02.006.02.005Zm-5.156-1.329-.231.973.013,0,.012,0Zm-6.563-1.171-.132.991h0Zm-21.875,1.484.269.963.008,0ZM369.156,231l.471.882.009-.005Zm-10.937,7.188.623.782v0Zm-9.219,8.2-.707-.707-.293.292v.415ZM349,311v1h1v-1Zm-28.984,0h-1v1h1Zm0-107.344v-1h-1v1Zm28.984,0h1v-1h-1Zm0,17.422h-1v1.994l1.6-1.192Zm10.7-7.5.549.836,0,0Zm11.485-6.484-.424-.906-.005,0Zm12.656-4.453.24.97.01,0Zm19.765-1.407-.107,1h.029Zm5.7.625-.141.99h0Zm9.454,1.8h1v-.772l-.748-.2ZM419.082,227c-.807-.268-1.973-.613-3.488-1.03l-.532,1.927c1.506.416,2.632.749,3.387,1Zm-3.448-1.019a53.018,53.018,0,0,0-5.256-1.354l-.412,1.957a51.159,51.159,0,0,1,5.056,1.3Zm-5.232-1.349a66.13,66.13,0,0,0-6.663-1.19l-.259,1.983a64.34,64.34,0,0,1,6.461,1.153Zm-6.66-1.19a56.066,56.066,0,0,0-7.4-.477v2a53.817,53.817,0,0,1,7.133.46Zm-7.4-.477a53.67,53.67,0,0,0-14.886,1.992l.553,1.922a51.674,51.674,0,0,1,14.333-1.914Zm-14.878,1.99a60.346,60.346,0,0,0-12.789,5.164l.959,1.754A58.45,58.45,0,0,1,382,226.885Zm-12.78,5.159a71.706,71.706,0,0,0-11.092,7.289l1.249,1.561a69.828,69.828,0,0,1,10.784-7.086ZM357.6,237.4a110.641,110.641,0,0,0-9.3,8.279l1.414,1.414a108.616,108.616,0,0,1,9.135-8.128Zm-9.6,8.986V311h2V246.391ZM349,310H320.016v2H349Zm-27.984,1V203.656h-2V311Zm-1-106.344H349v-2H320.016Zm27.984-1v17.422h2V203.656Zm1.6,18.224q5.211-3.89,10.654-7.466l-1.1-1.672q-5.493,3.61-10.752,7.535Zm10.657-7.468A91.694,91.694,0,0,1,371.616,208l-.857-1.807a93.676,93.676,0,0,0-11.608,6.554ZM371.611,208a67.726,67.726,0,0,1,12.473-4.389l-.48-1.941a69.685,69.685,0,0,0-12.84,4.518Zm12.483-4.391a54.933,54.933,0,0,1,13.812-1.687v-2a56.914,56.914,0,0,0-14.313,1.751Zm13.812-1.687a51.947,51.947,0,0,1,5.6.307l.215-1.989a54.065,54.065,0,0,0-5.811-.318Zm5.625.309q2.938.232,5.64.618l.283-1.98q-2.768-.395-5.766-.632Zm5.644.619q2.79.387,5.182.851l.38-1.964q-2.451-.474-5.287-.868Zm5.182.851q2.4.463,4.156.923l.505-1.935q-1.836-.48-4.281-.952Zm3.409-.045v24.3h2v-24.3Zm118.343,30.235-.438.9,1.438.7v-1.6Zm-19.375-6.875-.262.965.011,0Zm-13.75-2.813-.156.988h.011Zm-25.937-.781-.087-1h0Zm-7.422,1.016-.2-.98h-.005Zm-4.766,1.484.414.91.009,0,.009,0Zm-3.906,3.359-.94-.341-.014.038-.011.04Zm2.109,5.7-.608.794.009.006.008.007Zm6.407,3.125-.327.945.008,0,.008,0Zm9.453,2.579-.226.974.013,0Zm11.406,2.5-.215.976.007,0h.007Zm12.5,2.812-.237.972h.007l.007,0Zm12.5,3.516-.32.947h0Zm11.484,4.765-.452.892.01,0ZM542.281,292.8l-.9-.442Zm-7.343,9.375-.639-.769-.007,0Zm-10.547,6.172.352.936.011,0Zm-12.657,3.515-.185-.982h0ZM498.375,313.5l-.057-1h0Zm-42.344-2.266.192-.981h0Zm-23.906-6.484h-1v.692l.648.244Zm0-25.625.485-.874-1.485-.824v1.7Zm24.375,9.3-.239.971h0Zm44.375,2.422.16.987.011,0Zm9.141-2.5.412.911.009,0,.009,0Zm3.281-11.25-.64.768.007.006.008.007Zm-6.406-3.36-.344.94.008,0,.009,0Zm-9.453-2.656-.226.974.013,0Zm-11.485-2.422-.2.979.007,0h.007Zm-24.922-5.937-.309.951.008,0,.007,0Zm-11.406-4.453-.431.9.01.005Zm-9.453-6.016-.655.756.009.007Zm-6.406-8.047-.892.453,0,.007Zm6.875-31.641.648.762h0Zm9.843-5.937-.373-.928-.005,0Zm49.141-5.078-.1,1h0Zm13.047,1.8-.18.983.012,0Zm12.344,2.578-.243.97h0Zm11.093,3.125h1v-.728l-.692-.224Zm.438,23.945q-3.105-1.514-8.133-3.4l-.7,1.873q4.979,1.866,7.96,3.322Zm-8.133-3.4a114.446,114.446,0,0,0-11.429-3.547l-.5,1.936a112.306,112.306,0,0,1,11.228,3.484ZM517,226.051a119.27,119.27,0,0,0-13.866-2.837l-.291,1.978a117.571,117.571,0,0,1,13.633,2.789Zm-13.856-2.836a98.628,98.628,0,0,0-15.39-1.184v2a96.515,96.515,0,0,1,15.078,1.16Zm-15.39-1.184q-6.277,0-10.79.395l.174,1.992q4.4-.386,10.616-.387Zm-10.792.395a68.392,68.392,0,0,0-7.534,1.032l.4,1.959a66.5,66.5,0,0,1,7.31-1Zm-7.539,1.033a22.552,22.552,0,0,0-4.991,1.561l.863,1.8a20.633,20.633,0,0,1,4.54-1.408Zm-4.973,1.553a11.165,11.165,0,0,0-2.919,1.813l1.352,1.475a9.169,9.169,0,0,1,2.394-1.468Zm-2.919,1.813a5.5,5.5,0,0,0-1.514,2.115l1.88.683a3.528,3.528,0,0,1,.986-1.323Zm-1.539,2.193a7.008,7.008,0,0,0-.269,1.826h2a5,5,0,0,1,.2-1.3Zm-.269,1.826a6.157,6.157,0,0,0,2.735,4.934l1.217-1.587a4.183,4.183,0,0,1-1.952-3.347Zm2.752,4.947a25.425,25.425,0,0,0,6.671,3.263l.654-1.89a23.436,23.436,0,0,1-6.142-2.986Zm6.687,3.269q4.115,1.346,9.538,2.6l.452-1.949q-5.359-1.242-9.369-2.554Zm9.551,2.6q5.389,1.172,11.4,2.5l.431-1.953q-6.018-1.329-11.41-2.5Zm11.418,2.5q6.075,1.246,12.464,2.8l.474-1.944q-6.423-1.566-12.536-2.82Zm12.478,2.808a127.911,127.911,0,0,1,12.4,3.488l.64-1.9a130.333,130.333,0,0,0-12.6-3.543Zm12.407,3.489a83.28,83.28,0,0,1,11.348,4.709l.905-1.784a85.266,85.266,0,0,0-11.621-4.822Zm11.358,4.714a41.561,41.561,0,0,1,9.233,6.1l1.325-1.5a43.586,43.586,0,0,0-9.673-6.4Zm9.233,6.1a26.257,26.257,0,0,1,6.174,7.98l1.789-.9a28.263,28.263,0,0,0-6.638-8.583Zm6.174,7.98a22.61,22.61,0,0,1,2.239,10.256h2a24.607,24.607,0,0,0-2.45-11.151Zm2.239,10.256a28.766,28.766,0,0,1-2.632,12.839l1.794.884a30.748,30.748,0,0,0,2.838-13.723Zm-2.632,12.839A27.29,27.29,0,0,1,534.3,301.4l1.277,1.538a29.271,29.271,0,0,0,7.6-9.7Zm-7.092,9.053a36,36,0,0,1-10.264,6l.726,1.864a38.005,38.005,0,0,0,10.829-6.34Zm-10.254,6a74.487,74.487,0,0,1-12.489,3.469l.37,1.965a76.426,76.426,0,0,0,12.824-3.562Zm-12.491,3.469a101.875,101.875,0,0,1-13.229,1.625l.114,2a104.017,104.017,0,0,0,13.49-1.656Zm-13.23,1.625q-6.693.388-12.755.389v2q6.126,0,12.871-.393Zm-12.755.389a153.087,153.087,0,0,1-29.339-2.638l-.384,1.963a155.1,155.1,0,0,0,29.723,2.675Zm-29.343-2.639a144.907,144.907,0,0,1-23.742-6.438l-.7,1.872a146.944,146.944,0,0,0,24.071,6.531Zm-23.094-5.5V279.125h-2V304.75ZM431.64,280a99.434,99.434,0,0,0,24.621,9.394l.478-1.942a97.506,97.506,0,0,1-24.129-9.2Zm24.623,9.394a124.437,124.437,0,0,0,29.612,3.388v-2a122.463,122.463,0,0,1-29.138-3.331Zm29.612,3.388a98.069,98.069,0,0,0,15.16-.95l-.32-1.974a96.166,96.166,0,0,1-14.84.924Zm15.171-.952a40.137,40.137,0,0,0,9.382-2.574l-.825-1.822a38.218,38.218,0,0,1-8.9,2.425Zm9.4-2.582a11.61,11.61,0,0,0,4.86-3.716l-1.675-1.093a9.728,9.728,0,0,1-4.045,3Zm4.86-3.716a7.323,7.323,0,0,0,1.335-3.984h-2a5.343,5.343,0,0,1-1.01,2.891Zm1.335-3.984a6.556,6.556,0,0,0-2.719-5.234l-1.25,1.562a4.57,4.57,0,0,1,1.969,3.672Zm-2.7-5.221a21.366,21.366,0,0,0-6.719-3.537l-.654,1.89a19.435,19.435,0,0,1,6.093,3.183Zm-6.7-3.531a73.724,73.724,0,0,0-9.584-2.694l-.425,1.954a71.688,71.688,0,0,1,9.322,2.619Zm-9.571-2.691q-5.41-1.256-11.521-2.43l-.378,1.964q6.078,1.168,11.448,2.414Zm-11.506-2.427q-6.011-1.248-12.411-2.654l-.429,1.954q6.411,1.407,12.433,2.658Zm-12.411-2.654q-6.367-1.4-12.421-3.26l-.588,1.912q6.135,1.887,12.58,3.3Zm-12.406-3.255a100.846,100.846,0,0,1-11.294-4.41l-.842,1.815a103.058,103.058,0,0,0,11.518,4.5Zm-11.284-4.4a42.792,42.792,0,0,1-9.238-5.876l-1.292,1.526a44.748,44.748,0,0,0,9.668,6.155Zm-9.23-5.869a26,26,0,0,1-6.172-7.75l-1.777.919a28,28,0,0,0,6.64,8.343Zm-6.169-7.744a22.135,22.135,0,0,1-2.235-10.172h-2a24.131,24.131,0,0,0,2.452,11.078Zm-2.235-10.172a26.865,26.865,0,0,1,2.4-11.829l-1.8-.873a28.858,28.858,0,0,0-2.6,12.7Zm2.4-11.829a25.569,25.569,0,0,1,6.467-8.425l-1.3-1.523a27.593,27.593,0,0,0-6.97,9.075Zm6.468-8.426a34.926,34.926,0,0,1,9.572-5.772l-.756-1.852a36.971,36.971,0,0,0-10.115,6.1Zm9.568-5.77a66.216,66.216,0,0,1,11.622-3.464l-.4-1.96a68.228,68.228,0,0,0-11.972,3.568Zm11.622-3.464a99.287,99.287,0,0,1,12.375-1.7l-.148-1.995a101.406,101.406,0,0,0-12.624,1.736Zm12.375-1.7q6.3-.467,11.957-.466v-2q-5.744,0-12.105.471Zm11.957-.466q6.2,0,12.718.62l.19-1.991q-6.607-.628-12.908-.629Zm12.719.62q6.6.621,12.961,1.785l.36-1.967q-6.45-1.181-13.133-1.809Zm12.973,1.787q6.37,1.089,12.269,2.563l.485-1.94q-5.976-1.494-12.418-2.594Zm12.272,2.564q5.987,1.478,11.026,3.1l.615-1.9q-5.117-1.653-11.162-3.144Zm10.333,2.154v24.844h2V209.047Z" transform="translate(0.703 0.578)" stroke="rgba(0,0,0,0)" stroke-miterlimit="10" stroke-width="1" fill="url(#linear-gradient-partnetrsss)"/>
</svg>
