<svg width="140" height="72" viewBox="0 0 140 72" fill="none" xmlns="http://www.w3.org/2000/svg">
<path d="M38.0586 26.7871H101.864V65.1967C101.864 67.0011 101.144 68.7316 99.8627 70.0074C98.5812 71.2833 96.843 72.0001 95.0307 72.0001H44.8897C43.0778 71.9995 41.3402 71.2824 40.0592 70.0066C38.7782 68.7308 38.0586 67.0007 38.0586 65.1967V26.7871Z" fill="#7EFBFA"/>
<path d="M59.284 43.9855C60.9106 43.9855 62.2292 42.6727 62.2292 41.0533C62.2292 39.4339 60.9106 38.1211 59.284 38.1211C57.6575 38.1211 56.3389 39.4339 56.3389 41.0533C56.3389 42.6727 57.6575 43.9855 59.284 43.9855Z" fill="#0A0B1D"/>
<path d="M79.2002 44.0641C81.6742 44.0641 83.6798 42.0674 83.6798 39.6043C83.6798 37.1413 81.6742 35.1445 79.2002 35.1445C76.7263 35.1445 74.7207 37.1413 74.7207 39.6043C74.7207 42.0674 76.7263 44.0641 79.2002 44.0641Z" fill="#0A0B1D"/>
<path d="M62.1862 14.2156C62.1934 17.7346 62.1934 17.7346 58.6739 17.734C54.7723 17.734 54.7723 17.734 54.7687 13.8754C54.7657 10.345 54.7657 10.345 58.2961 10.3438C62.1784 10.342 62.1784 10.342 62.1862 14.2156Z" fill="#7EFBFA"/>
<path d="M50.7362 13.9937C50.6801 18.3371 51.3135 17.7136 46.9635 17.7526C43.2825 17.785 43.2645 17.7628 43.2874 14.116C43.3145 9.79605 42.7516 10.3414 47.0588 10.3396C51.478 10.3378 50.6476 9.91486 50.7362 13.9937Z" fill="#7EFBFA"/>
<path d="M89.2452 14.0551C89.2452 10.3495 89.2452 10.3495 92.9166 10.3459C96.6368 10.3423 96.6368 10.3423 96.6458 14.0317C96.6542 17.7337 96.6542 17.7337 92.934 17.7379C89.244 17.7421 89.244 17.7421 89.2452 14.0551Z" fill="#7EFBFA"/>
<path d="M66.3238 13.9474C66.3298 10.2826 66.3298 10.2826 70 10.2874C73.6575 10.2874 73.6575 10.2874 73.6665 14.0002C73.6756 17.7862 73.6756 17.7862 69.9011 17.7802C66.3171 17.7736 66.3171 17.7736 66.3238 13.9474Z" fill="#7EFBFA"/>
<path d="M85.1075 14.1557C85.1202 17.7629 85.1202 17.7629 81.4916 17.7623C77.7756 17.7623 77.7756 17.7623 77.7774 14.0237C77.7774 10.3037 77.7774 10.3037 81.5283 10.3157C85.0949 10.3283 85.0949 10.3283 85.1075 14.1557Z" fill="#7EFBFA"/>
<path d="M66.3233 3.64682C66.3233 -0.000583076 66.3233 -0.000584901 70.0266 1.5099e-05C73.6353 1.5099e-05 73.6353 5.43594e-06 73.6377 3.56761C73.6377 7.3386 73.6377 7.33859 69.8307 7.33079C66.322 7.32299 66.3221 7.32302 66.3233 3.64682Z" fill="#7EFBFA"/>
<path d="M55.3337 60.2557C54.5394 60.1567 53.9271 59.9023 53.7017 59.2093C53.5462 58.8835 53.5072 58.5146 53.591 58.1637C53.6749 57.8128 53.8765 57.5009 54.1627 57.2797C56.5197 55.5883 58.9002 53.9287 61.259 52.2397C62.0087 51.7033 62.3167 52.3801 62.7301 52.7287C63.713 53.5555 64.2572 55.2487 65.5529 55.2325C66.7787 55.2193 67.6532 53.8015 68.5716 52.9231C69.7167 51.8305 70.4694 51.7495 71.2679 53.1667C71.5056 53.5058 71.7722 53.824 72.0646 54.1177C74.245 56.7637 74.2402 56.7613 76.2663 53.9173C77.1233 52.7173 78.0363 51.5503 78.8578 50.3251C79.3821 49.5451 79.7913 49.3651 80.4211 50.2165C82.252 52.6831 84.1322 55.1143 85.9655 57.5797C86.6164 58.4551 86.661 59.4025 85.6961 60.0607C84.7313 60.7189 83.9147 60.3007 83.2608 59.4241C82.4478 58.3339 81.5245 57.3181 80.7899 56.1799C79.9576 54.8905 79.4176 55.1071 78.6655 56.2537C77.5982 57.8821 76.3754 59.4061 75.2683 61.0117C74.5837 62.0077 74.0082 61.8661 73.3471 61.0189C72.4738 59.9011 71.5445 58.8253 70.69 57.6937C69.9728 56.7439 69.3738 56.5981 68.3957 57.4849C65.398 60.2023 65.3306 60.1945 62.5366 57.3373C61.7086 56.4907 61.1029 56.3443 60.1465 57.1183C59.0015 58.0453 57.7359 58.8271 56.5041 59.6461C56.1265 59.8724 55.7357 60.076 55.3337 60.2557Z" fill="#0A0B1D"/>
<path d="M135.351 52.4892C137.919 52.4892 140 50.417 140 47.8608C140 45.3046 137.919 43.2324 135.351 43.2324C132.784 43.2324 130.702 45.3046 130.702 47.8608C130.702 50.417 132.784 52.4892 135.351 52.4892Z" fill="#7EFBFA"/>
<path d="M135.351 49.1475C136.065 49.1475 136.644 48.571 136.644 47.8599C136.644 47.1487 136.065 46.5723 135.351 46.5723C134.637 46.5723 134.058 47.1487 134.058 47.8599C134.058 48.571 134.637 49.1475 135.351 49.1475Z" fill="#0A0B1D"/>
<path d="M4.64889 49.6552C7.2164 49.6552 9.29778 47.583 9.29778 45.0268C9.29778 42.4706 7.2164 40.3984 4.64889 40.3984C2.08138 40.3984 0 42.4706 0 45.0268C0 47.583 2.08138 49.6552 4.64889 49.6552Z" fill="#7EFBFA"/>
<path d="M4.64877 46.3135C5.36304 46.3135 5.94207 45.737 5.94207 45.0259C5.94207 44.3148 5.36304 43.7383 4.64877 43.7383C3.9345 43.7383 3.35547 44.3148 3.35547 45.0259C3.35547 45.737 3.9345 46.3135 4.64877 46.3135Z" fill="#0A0B1D"/>
<path opacity="0.5" d="M41.5944 23.1934H98.0699C99.0419 23.1934 99.974 23.5778 100.661 24.262C101.349 24.9463 101.735 25.8743 101.735 26.842H37.9297C37.9297 25.8743 38.3158 24.9463 39.0031 24.262C39.6903 23.5778 40.6225 23.1934 41.5944 23.1934V23.1934Z" fill="#7EFBFA"/>
</svg>
