<svg width="75" height="74" viewBox="0 0 75 74" fill="none" xmlns="http://www.w3.org/2000/svg">
<path d="M37.5003 73.4624C57.9096 73.4624 74.4547 57.1379 74.4547 37.0007C74.4547 16.8635 57.9096 0.539062 37.5003 0.539062C17.0909 0.539062 0.545898 16.8635 0.545898 37.0007C0.545898 57.1379 17.0909 73.4624 37.5003 73.4624Z" fill="#F4AC3C"/>
<path d="M37.5 74C27.5578 73.9889 18.0261 70.0871 10.9959 63.1507C3.96573 56.2142 0.0112487 46.8096 0 37C0.0112487 27.1904 3.96573 17.7858 10.9959 10.8493C18.0261 3.91289 27.5578 0.0110987 37.5 0C47.4422 0.0109358 56.974 3.91263 64.0042 10.8491C71.0345 17.7856 74.9889 27.1903 75 37C74.9889 46.8097 71.0345 56.2144 64.0042 63.1509C56.974 70.0874 47.4422 73.9891 37.5 74ZM37.5 1.07608C27.847 1.08685 18.5925 4.87514 11.7667 11.6098C4.94102 18.3446 1.10154 27.4757 1.09062 37C1.10154 46.5243 4.94102 55.6554 11.7667 62.3902C18.5925 69.1249 27.847 72.9132 37.5 72.9239C47.153 72.9132 56.4075 69.1249 63.2333 62.3902C70.059 55.6554 73.8985 46.5243 73.9094 37C73.8985 27.4757 70.059 18.3446 63.2333 11.6098C56.4075 4.87514 47.153 1.08685 37.5 1.07608Z" fill="#0A0B1D"/>
<path d="M26.148 32.9061C27.7928 32.9061 29.1262 31.5906 29.1262 29.9677C29.1262 28.3449 27.7928 27.0293 26.148 27.0293C24.5033 27.0293 23.1699 28.3449 23.1699 29.9677C23.1699 31.5906 24.5033 32.9061 26.148 32.9061Z" fill="#0A0B1D"/>
<path d="M48.8541 32.9061C50.4989 32.9061 51.8322 31.5906 51.8322 29.9677C51.8322 28.3449 50.4989 27.0293 48.8541 27.0293C47.2093 27.0293 45.876 28.3449 45.876 29.9677C45.876 31.5906 47.2093 32.9061 48.8541 32.9061Z" fill="#0A0B1D"/>
<path d="M37.6334 59.8795C37.4077 59.8795 37.1809 59.8794 36.9515 59.8708C27.7834 59.6297 20.9059 54.6039 17.0652 45.3372C17.038 45.2719 17.0242 45.2018 17.0244 45.1312C17.0247 45.0605 17.039 44.9907 17.0666 44.9255C17.0942 44.8604 17.1346 44.8012 17.1854 44.7514C17.2362 44.7016 17.2965 44.6622 17.3627 44.6354C17.429 44.6082 17.5001 44.5942 17.5719 44.5943C17.6436 44.5944 17.7147 44.6085 17.7809 44.6358C17.8472 44.6631 17.9073 44.703 17.9578 44.7534C18.0083 44.8037 18.0482 44.8634 18.0753 44.929C21.739 53.7714 28.2771 58.566 36.9809 58.7941C45.9402 59.0685 52.6565 54.3591 56.9334 44.913C56.9622 44.8482 57.0039 44.7898 57.0558 44.741C57.1078 44.6923 57.169 44.6542 57.2359 44.6289C57.3029 44.6037 57.3743 44.5918 57.4459 44.594C57.5176 44.5962 57.5881 44.6123 57.6533 44.6416C57.7856 44.6998 57.889 44.8075 57.9408 44.941C57.9926 45.0744 57.9886 45.2227 57.9296 45.3532C53.5646 54.9954 46.7371 59.8795 37.6334 59.8795Z" fill="#0A0B1D"/>
</svg>
