<svg width="113" height="70" viewBox="0 0 113 70" fill="none" xmlns="http://www.w3.org/2000/svg">
<path d="M0.000130492 25.7611V1.42383H8.16254V25.7611C8.16254 27.2777 8.65874 28.3202 9.65114 28.8883C10.6435 29.4565 12.3585 29.7412 14.796 29.7423C17.1964 29.7423 18.8725 29.4577 19.8243 28.8883C20.7831 28.3225 21.2626 27.2766 21.2626 25.7611V1.42383H29.4098V25.7611C29.4098 32.2361 24.5008 35.4738 14.683 35.4742C4.86515 35.4746 -0.0291381 32.2369 0.000130492 25.7611Z" fill="#F4AC3C"/>
<path d="M52.4506 15.3748H41.674V7.16092H58.5543C59.3049 5.46139 60.2975 3.87865 61.5016 2.46158C61.8025 2.10225 62.1204 1.75691 62.4499 1.42383H33.5273V34.9573H41.674V21.1148H47.2555C48.6697 18.9383 50.4235 17.0006 52.4506 15.3748Z" fill="#F4AC3C"/>
<path d="M73.7328 9.09472C89.1865 4.74714 103.294 6.73456 105.254 13.5281C106.723 18.6486 100.879 25.0366 91.3056 29.736C91.9284 27.8232 92.0373 26.061 91.73 24.9987C90.8718 22.0056 84.6142 21.1441 77.756 23.0842C70.8978 25.0244 66.0316 29.0051 66.8898 31.9987C67.1965 33.0621 68.2215 34.4931 69.7716 35.826C59.1313 36.8118 50.7646 34.4213 49.2953 29.3189C47.3407 22.4787 58.2836 13.4621 73.7328 9.09472Z" fill="#F4AC3C"/>
<path d="M72.6112 5.34425C76.3746 4.27232 80.2322 3.56092 84.1313 3.21975C82.373 1.76806 80.2874 0.763278 78.0536 0.291665C75.8198 -0.179948 73.5046 -0.104297 71.3066 0.512115C69.1086 1.12853 67.0935 2.26728 65.4344 3.83063C63.7753 5.39398 62.5217 7.33522 61.7812 9.48767C65.2525 7.77045 68.8786 6.38317 72.6112 5.34425Z" fill="#F4AC3C"/>
<path d="M77.5191 69.9997C77.6976 67.9667 70.3711 33.0163 70.3711 33.0163L89.103 27.0039L113 69.9956L77.5191 69.9997Z" fill="url(#paint0_linear_1855_3150)"/>
<path d="M81.1127 34.3846C86.3513 32.8313 90.0411 29.707 89.3541 27.4062C88.6672 25.1055 83.8635 24.4995 78.625 26.0528C73.3864 27.6061 69.6965 30.7304 70.3835 33.0312C71.0705 35.3319 75.8741 35.9379 81.1127 34.3846Z" fill="#F4AC3C"/>
<path d="M8.23052 51.2164H10.9027V55.6293C10.2623 56.0803 9.54973 56.42 8.7954 56.6338C8.02239 56.8646 7.21989 56.9825 6.41294 56.9838C5.36286 57.0002 4.32475 56.7599 3.3895 56.2838C2.51747 55.8307 1.78816 55.1461 1.28216 54.3057C0.78179 53.4347 0.518555 52.4484 0.518555 51.4448C0.518555 50.4411 0.78179 49.4549 1.28216 48.5838C1.79005 47.7434 2.52581 47.0629 3.40472 46.6209C4.35301 46.1342 5.40729 45.8885 6.47382 45.9057C7.39442 45.8912 8.3085 46.062 9.16126 46.408C9.92954 46.7245 10.6103 47.2202 11.1462 47.8535L9.22213 49.5883C8.9021 49.2142 8.50401 48.9141 8.05562 48.7091C7.60723 48.5041 7.11935 48.399 6.62601 48.4012C6.2192 48.3836 5.81305 48.4487 5.43233 48.5926C5.0516 48.7366 4.70429 48.9562 4.41156 49.2383C4.1267 49.5287 3.90507 49.8747 3.76053 50.2544C3.61599 50.6341 3.55166 51.0394 3.57155 51.4451C3.56202 51.9963 3.69336 52.5409 3.95321 53.0276C4.20273 53.4791 4.57266 53.853 5.0221 54.108C5.50466 54.3679 6.04654 54.499 6.59499 54.4883C7.15874 54.4924 7.7165 54.3729 8.22876 54.1383L8.23052 51.2164ZM19.9813 54.7012H15.461L14.621 56.7709H11.5361L16.2548 46.1187H19.2326L23.9688 56.7709H20.8207L19.9813 54.7012ZM19.0956 52.4793L17.7211 49.0709L16.3467 52.4793H19.0956ZM34.4762 56.7703L34.4458 51.1248L31.6945 55.7203H30.3482L27.6145 51.2771V56.7703H24.8246V46.1187H27.3136L31.0699 52.2664L34.7349 46.1187H37.2239L37.2544 56.7709L34.4762 56.7703ZM39.3933 46.1181H42.4168V56.7703H39.3945L39.3933 46.1181ZM54.7371 46.1181V56.7703H52.2492L47.5306 51.0945V56.7703H44.568V46.1187H47.057L51.7757 51.7945V46.1187L54.7371 46.1181ZM64.0322 51.2158H66.7044V55.6287C66.0639 56.0798 65.3514 56.4194 64.597 56.6332C63.824 56.864 63.0215 56.9819 62.2146 56.9832C61.1645 56.9997 60.1264 56.7593 59.1911 56.2832C58.3191 55.8301 57.5898 55.1455 57.0838 54.3051C56.5834 53.4341 56.3202 52.4479 56.3202 51.4442C56.3202 50.4405 56.5834 49.4543 57.0838 48.5832C57.5917 47.7428 58.3275 47.0624 59.2064 46.6203C60.1547 46.1336 61.2089 45.888 62.2755 45.9052C63.1961 45.8906 64.1102 46.0614 64.9629 46.4074C65.7312 46.7239 66.4119 47.2196 66.9479 47.8529L65.0238 49.5877C64.7038 49.2136 64.3057 48.9135 63.8573 48.7085C63.4089 48.5034 62.921 48.3984 62.4277 48.4007C62.0209 48.383 61.6147 48.4481 61.234 48.5921C60.8533 48.736 60.5059 48.9557 60.2132 49.2377C59.9284 49.5282 59.7067 49.8741 59.5622 50.2538C59.4176 50.6335 59.3533 51.0388 59.3732 51.4445C59.3637 51.9957 59.495 52.5403 59.7549 53.0271C60.0044 53.4785 60.3743 53.8524 60.8237 54.1074C61.3063 54.3673 61.8482 54.4984 62.3966 54.4877C62.9604 54.4918 63.5181 54.3723 64.0304 54.1377L64.0322 51.2158Z" fill="#F4AC3C" fill-opacity="0.97"/>
<defs>
<linearGradient id="paint0_linear_1855_3150" x1="78.0442" y1="-467.189" x2="95.6938" y2="-509.95" gradientUnits="userSpaceOnUse">
<stop stop-color="#F4AC3C" stop-opacity="0.647"/>
<stop offset="0.489" stop-color="#F4AC3C" stop-opacity="0.18"/>
<stop offset="1" stop-color="#F4AC3C" stop-opacity="0.012"/>
</linearGradient>
</defs>
</svg>
