<svg width="82" height="64" viewBox="0 0 82 64" fill="none" xmlns="http://www.w3.org/2000/svg">
<path d="M14.8701 44.9643L40.8365 59.9648L66.8029 44.9643V14.9819L40.8365 0L14.8701 14.9819V44.9643Z" fill="#FFB31C"/>
<path opacity="0.56" d="M14.8701 44.9644L40.8173 59.9462V30.0385L14.8701 15.0566V44.9644Z" fill="url(#paint0_linear_1855_3184)"/>
<path opacity="0.56" d="M66.7838 15.0371L40.8174 30.0376V59.9438L40.8361 59.9624L66.8024 44.9619V15.0558L66.7838 15.0371Z" fill="url(#paint1_linear_1855_3184)"/>
<path d="M45.3193 32.485L63.5145 21.9863L81.7097 32.485V53.4823L63.5145 63.9997L45.3193 53.4818V32.485Z" fill="#FFB31C"/>
<path d="M45.3193 32.485L63.5145 21.9863L81.7097 32.485V53.4823L63.5145 63.9997L45.3193 53.4818V32.485Z" fill="white"/>
<path d="M63.5145 21.9863L81.7097 32.485L63.5145 42.9837L45.3193 32.485L63.5145 21.9863Z" fill="url(#paint2_linear_1855_3184)"/>
<path d="M45.3193 32.4844L63.5145 42.983V63.9964L45.3193 53.4817V32.4844Z" fill="url(#paint3_linear_1855_3184)"/>
<path d="M63.5146 42.983L81.7098 32.4844V53.4817L63.5146 63.9985V42.983Z" fill="url(#paint4_linear_1855_3184)"/>
<path d="M0 32.485L18.1952 21.9863L36.3904 32.485V53.4823L18.1952 63.9997L0 53.4818V32.485Z" fill="#FFB31C"/>
<path d="M0 32.4844L18.1952 42.983V63.9964L0 53.4817V32.4844Z" fill="url(#paint5_linear_1855_3184)"/>
<path d="M18.1953 42.983L36.3905 32.4844V53.4817L18.1953 63.9985V42.983Z" fill="url(#paint6_linear_1855_3184)"/>
<path d="M18.1952 21.9863L36.3904 32.485L18.1952 42.9837L0 32.485L18.1952 21.9863Z" fill="url(#paint7_linear_1855_3184)"/>
<defs>
<linearGradient id="paint0_linear_1855_3184" x1="18.2173" y1="122.971" x2="35.6598" y2="119.427" gradientUnits="userSpaceOnUse">
<stop stop-color="white" stop-opacity="0"/>
<stop offset="1" stop-color="white" stop-opacity="0.4"/>
</linearGradient>
<linearGradient id="paint1_linear_1855_3184" x1="43.0781" y1="111.716" x2="64.8006" y2="115.397" gradientUnits="userSpaceOnUse">
<stop stop-color="#231F20" stop-opacity="0.4"/>
<stop offset="1" stop-color="#231F20" stop-opacity="0"/>
</linearGradient>
<linearGradient id="paint2_linear_1855_3184" x1="45.3193" y1="32.485" x2="81.7097" y2="32.485" gradientUnits="userSpaceOnUse">
<stop stop-color="#FFB31C"/>
<stop offset="1" stop-color="#FFB31C" stop-opacity="0"/>
</linearGradient>
<linearGradient id="paint3_linear_1855_3184" x1="51.3419" y1="112.745" x2="63.8553" y2="133.463" gradientUnits="userSpaceOnUse">
<stop stop-color="#FFB31C"/>
<stop offset="1" stop-color="#EAE9F0"/>
</linearGradient>
<linearGradient id="paint4_linear_1855_3184" x1="75.0868" y1="117.383" x2="63.6147" y2="133.334" gradientUnits="userSpaceOnUse">
<stop stop-color="#FFB31C"/>
<stop offset="1" stop-color="#F0F0F0"/>
</linearGradient>
<linearGradient id="paint5_linear_1855_3184" x1="3.58445" y1="36.6755" x2="19.3032" y2="47.6468" gradientUnits="userSpaceOnUse">
<stop stop-color="#FFB31C"/>
<stop offset="1" stop-color="#FFB31C" stop-opacity="0"/>
</linearGradient>
<linearGradient id="paint6_linear_1855_3184" x1="29.7675" y1="117.383" x2="18.2954" y2="133.334" gradientUnits="userSpaceOnUse">
<stop stop-color="#FFB31C"/>
<stop offset="1" stop-color="#F0F0F0"/>
</linearGradient>
<linearGradient id="paint7_linear_1855_3184" x1="0" y1="32.485" x2="36.3904" y2="32.485" gradientUnits="userSpaceOnUse">
<stop stop-color="#FFB31C"/>
<stop offset="1" stop-color="#879BA8" stop-opacity="0.04"/>
</linearGradient>
</defs>
</svg>
