<svg width="64" height="64" viewBox="0 0 64 64" fill="none" xmlns="http://www.w3.org/2000/svg">
<path d="M55.1545 28.5089C55.3259 28.546 55.5031 28.5665 55.6853 28.5665C55.8674 28.5665 56.0446 28.546 56.216 28.5089C57.8234 28.7643 59.0564 30.1593 59.0564 31.838C59.0564 33.2169 60.174 34.3351 61.5534 34.3351C62.9324 34.3351 64.0505 33.2169 64.0505 31.838C64.0505 28.0948 61.5793 24.9181 58.1823 23.8536V14.2833C58.1823 14.275 58.1814 14.2667 58.1809 14.2584C58.1814 14.2501 58.1823 14.2418 58.1823 14.2335C58.1823 12.8541 57.0642 11.7364 55.6853 11.7364C53.8264 11.7364 52.3142 10.2242 52.3142 8.36527C52.3142 6.50637 53.8264 4.99416 55.6853 4.99416C57.5442 4.99416 59.0564 6.50637 59.0564 8.36527C59.0564 9.74418 60.174 10.8623 61.5534 10.8623C62.9324 10.8623 64.0505 9.74418 64.0505 8.36527C64.0505 3.75246 60.2981 0 55.6853 0C51.9421 0 48.7653 2.47169 47.7009 5.86819H40.0719C39.0075 2.47169 35.8307 0 32.0875 0C28.3443 0 25.1681 2.47169 24.1036 5.86819H16.4747C15.4102 2.47169 12.2334 0 8.49026 0C3.87745 0 0.125 3.75246 0.125 8.36527C0.125 12.9781 3.87745 16.7305 8.49026 16.7305C9.86918 16.7305 10.9873 15.6124 10.9873 14.2335C10.9873 12.8541 9.86918 11.7364 8.49026 11.7364C6.63137 11.7364 5.11916 10.2242 5.11916 8.36527C5.11916 6.50637 6.63137 4.99416 8.49026 4.99416C10.3492 4.99416 11.8614 6.50637 11.8614 8.36527C11.8614 9.74418 12.979 10.8623 14.3584 10.8623C14.3667 10.8623 14.3751 10.8614 14.3834 10.8609C14.3917 10.8614 14.4 10.8623 14.4083 10.8623H24.1031C25.1676 14.2588 28.3443 16.7305 32.0875 16.7305C33.4664 16.7305 34.5846 15.6124 34.5846 14.2335C34.5846 12.8541 33.4664 11.7364 32.0875 11.7364C30.2286 11.7364 28.7164 10.2242 28.7164 8.36527C28.7164 6.50637 30.2286 4.99416 32.0875 4.99416C33.9464 4.99416 35.4586 6.50637 35.4586 8.36527C35.4586 9.74418 36.5763 10.8623 37.9557 10.8623C37.9601 10.8623 37.964 10.8619 37.9684 10.8619C37.9723 10.8619 37.9762 10.8623 37.9806 10.8623H47.7009C48.5177 13.4698 50.5803 15.5323 53.1877 16.3497V23.8536C50.5388 24.6837 48.4543 26.7994 47.6642 29.4654H40.0719C39.0075 26.0689 35.8307 23.5973 32.0875 23.5973C28.3443 23.5973 25.1676 26.0689 24.1031 29.4654H16.4742C15.4097 26.0689 12.2334 23.5973 8.49026 23.5973C3.87745 23.5973 0.125 27.3497 0.125 31.9625C0.125 35.7057 2.5962 38.8825 5.99319 39.9469V47.6506C2.5962 48.715 0.125 51.8918 0.125 55.635C0.125 60.2473 3.87745 63.9998 8.49026 63.9998C9.86918 63.9998 10.9873 62.8821 10.9873 61.5027C10.9873 60.1238 9.86918 59.0056 8.49026 59.0056C6.63137 59.0056 5.11916 57.4934 5.11916 55.635C5.11916 53.9563 6.35207 52.5612 7.9595 52.3059C8.13089 52.343 8.30765 52.3635 8.49026 52.3635C8.67239 52.3635 8.84964 52.343 9.02054 52.3059C10.6285 52.5612 11.8614 53.9563 11.8614 55.635C11.8614 56.3371 12.1524 56.9709 12.6192 57.4245C13.0728 57.8908 13.7061 58.1819 14.4083 58.1819H24.1456C25.2481 61.5134 28.3902 63.925 32.0875 63.925C33.4664 63.925 34.5846 62.8074 34.5846 61.428C34.5846 60.0491 33.4664 58.9309 32.0875 58.9309C30.2286 58.9309 28.7164 57.4187 28.7164 55.5598C28.7164 53.7009 30.2286 52.1887 32.0875 52.1887C33.9464 52.1887 35.4586 53.7009 35.4586 55.5598C35.4586 56.9392 36.5763 58.0569 37.9557 58.0569C37.9596 58.0569 37.964 58.0564 37.9679 58.0564C37.9723 58.0564 37.9762 58.0569 37.9806 58.0569H47.7004C48.7648 61.4534 51.9416 63.925 55.6848 63.925C57.0642 63.925 58.1818 62.8074 58.1818 61.428C58.1818 60.0491 57.0642 58.9309 55.6848 58.9309C53.8259 58.9309 52.3137 57.4187 52.3137 55.5598C52.3137 53.7009 53.8259 52.1887 55.6848 52.1887C57.5437 52.1887 59.0559 53.7009 59.0559 55.5598C59.0559 56.9392 60.174 58.0569 61.553 58.0569C62.9324 58.0569 64.05 56.9392 64.05 55.5598C64.05 50.9475 60.2976 47.1945 55.6848 47.1945C51.9416 47.1945 48.7648 49.6662 47.7004 53.0627H40.0719C39.007 49.6662 35.8307 47.1945 32.0875 47.1945C28.2989 47.1945 25.0924 49.7272 24.067 53.1877H16.4893C15.6827 50.5563 13.6114 48.4728 10.9869 47.6506V38.0807C10.9869 38.0382 10.9829 37.9972 10.981 37.9557C10.9829 37.9142 10.9869 37.8732 10.9869 37.8307C10.9869 36.4518 9.86918 35.3336 8.48978 35.3336C6.63137 35.3336 5.11916 33.8214 5.11916 31.9625C5.11916 30.1036 6.63137 28.5914 8.48978 28.5914C10.3487 28.5914 11.8609 30.1036 11.8609 31.9625C11.8609 33.3419 12.979 34.4596 14.358 34.4596C14.3663 34.4596 14.3746 34.4586 14.3829 34.4586C14.3917 34.4586 14.3995 34.4596 14.4083 34.4596H24.1031C25.1676 37.8566 28.3439 40.3278 32.0875 40.3278C33.4664 40.3278 34.5846 39.2101 34.5846 37.8307C34.5846 36.4518 33.4664 35.3336 32.0875 35.3336C30.2286 35.3336 28.7164 33.8214 28.7164 31.9625C28.7164 30.1036 30.2286 28.5914 32.0875 28.5914C33.9459 28.5914 35.4581 30.1036 35.4581 31.9625C35.4581 33.3419 36.5763 34.4596 37.9552 34.4596C37.9596 34.4596 37.9635 34.4591 37.9679 34.4591C37.9723 34.4591 37.9762 34.4596 37.9806 34.4596H47.7428C48.8454 37.7916 51.9875 40.2033 55.6848 40.2033C57.0637 40.2033 58.1818 39.0851 58.1818 37.7062C58.1818 36.3268 57.0637 35.2086 55.6848 35.2086C53.8259 35.2086 52.3137 33.6964 52.3137 31.838C52.3142 30.1593 53.5471 28.7643 55.1545 28.5089Z" fill="#FA41A5"/>
</svg>
