<svg xmlns="http://www.w3.org/2000/svg" width="69" height="63.075" viewBox="0 0 69 63.075">
  <path id="DAO" d="M4681.318,1230.76a2.5,2.5,0,0,1,0-5h3.364V1200.17a2.5,2.5,0,0,1-2.273-2.49v-4.187a3.726,3.726,0,0,1-3.592-3.719v-3.447a3.744,3.744,0,0,1,2.1-3.349l30.779-14.917a3.7,3.7,0,0,1,3.25,0l6.555,3.18a2.5,2.5,0,1,1-2.183,4.5l-6-2.912-29.5,14.3v1.368h59v-1.35l-16.96-8.231a2.5,2.5,0,0,1,2.182-4.5l17.683,8.58a3.742,3.742,0,0,1,2.1,3.347v3.431a3.725,3.725,0,0,1-3.278,3.694v4.212a2.5,2.5,0,0,1-2.274,2.49v25.591h3.048a2.5,2.5,0,0,1,0,5Zm45.4-5V1200.17a2.5,2.5,0,0,1-2.275-2.49v-4.185h-.513v4.185a2.5,2.5,0,0,1-2.275,2.49v25.591Zm-20.605,0V1200.17a2.5,2.5,0,0,1-2.274-2.49v-4.185H4702.5v4.185a2.5,2.5,0,0,1-2.274,2.49v25.591Zm25.6-1.085h5.544v-24.5h-5.544Zm-20.6,0h5.544v-24.5h-5.544Zm-21.434,0h5.544v-24.5h-5.544Zm39.764-29.5h10.092v-1.685h-10.092Zm-20.605,0h10.092v-1.685h-10.092Zm-21.432,0H4697.5v-1.685h-10.091Z" transform="translate(-4678.816 -1167.685)" fill="#fa41a5"/>
</svg>
