<svg width="64" height="63" viewBox="0 0 64 63" fill="none" xmlns="http://www.w3.org/2000/svg">
<path d="M58.9312 37.77C59.04 36.9238 59.125 36.0269 59.125 35.1045C59.125 24.311 52.6099 14.5503 42.7402 10.2852C42.4961 4.57227 37.772 0 32 0C26.228 0 21.5059 4.57275 21.2617 10.2856C11.3882 14.5503 4.875 24.3013 4.875 35.1045C4.875 36.0347 4.95947 36.9399 5.06592 37.772C2.02686 39.6733 0 43.0488 0 46.8901C0 52.8179 4.82227 57.6401 10.75 57.6401C12.4575 57.6401 14.0723 57.2383 15.5073 56.5269C20.2134 60.1514 26.0396 62.1401 32 62.1401C37.9805 62.1401 43.7803 60.1558 48.4922 56.5264C49.9277 57.2383 51.5425 57.6401 53.25 57.6401C54.6309 57.6401 55.75 56.521 55.75 55.1401C55.75 53.7593 54.6309 52.6401 53.25 52.6401C50.0796 52.6401 47.5 50.0605 47.5 46.8901C47.5 43.7197 50.0796 41.1401 53.25 41.1401C56.4204 41.1401 59 43.7197 59 46.8901C59 48.271 60.1191 49.3901 61.5 49.3901C62.8809 49.3901 64 48.271 64 46.8901C64 43.0474 61.9717 39.6709 58.9312 37.77ZM5 46.8901C5 43.7197 7.57959 41.1401 10.75 41.1401C13.9204 41.1401 16.5 43.7197 16.5 46.8901C16.5 50.0605 13.9204 52.6401 10.75 52.6401C7.57959 52.6401 5 50.0605 5 46.8901ZM42.5 46.8901C42.5 49.2505 43.2666 51.4341 44.561 53.2095C40.8906 55.7568 36.5083 57.1401 32 57.1401C27.5068 57.1401 23.1079 55.7539 19.439 53.2095C20.7334 51.4341 21.5 49.2505 21.5 46.8901C21.5 40.9624 16.6777 36.1401 10.75 36.1401C10.4717 36.1401 10.1963 36.1543 9.92285 36.1753C9.89307 35.813 9.875 35.458 9.875 35.1045C9.875 26.6606 14.7646 19.0029 22.2734 15.3223C23.9951 18.9692 27.7065 21.5 32 21.5C33.3809 21.5 34.5 20.3809 34.5 19C34.5 17.6191 33.3809 16.5 32 16.5C28.8296 16.5 26.25 13.9204 26.25 10.75C26.25 7.57959 28.8296 5 32 5C35.1704 5 37.75 7.57959 37.75 10.75V11.9897C37.75 13.0464 38.4146 13.9893 39.4097 14.3442C48.2114 17.4858 54.125 25.8286 54.125 35.1045C54.125 35.4551 54.1055 35.8135 54.0752 36.1753C53.8022 36.1543 53.5278 36.1401 53.25 36.1401C47.3223 36.1401 42.5 40.9624 42.5 46.8901Z" fill="#FA41A5"/>
</svg>
