<svg xmlns="http://www.w3.org/2000/svg" width="32" height="64" viewBox="0 0 32 64">
  <path id="Path_44546" data-name="Path 44546" d="M569.461,343.961a2.388,2.388,0,0,1-.972-.206,2.306,2.306,0,0,1-1.289-2.776l7.358-24.219-3.982,1.163a2.389,2.389,0,0,1-2.4-.647,2.288,2.288,0,0,1-.473-2.4l11.366-29.2a2.346,2.346,0,0,1,1.573-1.406l15.471-4.223a2.387,2.387,0,0,1,2.432.734,2.286,2.286,0,0,1,.341,2.476l-8.717,18.455,3.273-.905a2.384,2.384,0,0,1,2.529.842,2.285,2.285,0,0,1,.111,2.621l-2.792,4.379a2.386,2.386,0,0,1-3.254.734A2.3,2.3,0,0,1,589,306.853l-2.493.69a2.387,2.387,0,0,1-2.437-.729,2.286,2.286,0,0,1-.344-2.479l8.727-18.476-9.4,2.565-9.231,23.714,3.578-1.045a2.39,2.39,0,0,1,2.343.584,2.29,2.29,0,0,1,.592,2.3l-3.628,11.94,8.033-12.6a2.386,2.386,0,0,1,3.254-.734,2.3,2.3,0,0,1,.747,3.2l-17.274,27.091A2.371,2.371,0,0,1,569.461,343.961Z" transform="translate(-567.102 -279.961)" fill="#fa41a5"/>
</svg>
