<svg width="52" height="64" viewBox="0 0 52 64" fill="none" xmlns="http://www.w3.org/2000/svg">
<path d="M48.7513 59H28.4997V52.2864H38.4458C43.9458 52.2864 48.4317 47.812 48.4457 42.3122C48.4492 40.9316 47.3328 39.8095 45.952 39.8059H45.9455C44.5679 39.8059 43.4492 40.921 43.4457 42.2995C43.4387 45.0492 41.1958 47.2864 38.4458 47.2864H13.5535C10.7965 47.2864 8.55355 45.0434 8.55355 42.2864V10C8.55355 7.243 10.7965 5 13.5535 5H31.7585V13.9358C31.7585 15.3165 32.8778 16.4357 34.2585 16.4357H43.4459V29.8059C43.4459 31.1866 44.5652 32.3059 45.9459 32.3059C47.3267 32.3059 48.4459 31.1866 48.4459 29.8059V13.9358C48.4459 13.2747 48.1842 12.6407 47.718 12.1722L36.3377 0.7365C35.8684 0.265125 35.2308 0 34.5655 0H13.5535C8.03955 0 3.55355 4.486 3.55355 10V42.2864C3.55355 47.8004 8.03955 52.2864 13.5535 52.2864H23.4997V59H3.24805C1.8673 59 0.748047 60.1193 0.748047 61.5C0.748047 62.8807 1.8673 64 3.24805 64H48.7512C50.1319 64 51.2512 62.8807 51.2512 61.5C51.2512 60.1193 50.132 59 48.7513 59ZM36.7584 11.4358V8.48512L39.7443 11.4356H36.7584V11.4358ZM36.8674 23.6621C36.8674 25.0429 35.7482 26.1621 34.3674 26.1621H17.6319C16.2512 26.1621 15.1319 25.0429 15.1319 23.6621C15.1319 22.2814 16.2512 21.1621 17.6319 21.1621H34.3675C35.7482 21.1621 36.8674 22.2814 36.8674 23.6621ZM36.8674 33.7819C36.8674 35.1626 35.7482 36.2819 34.3674 36.2819H17.6319C16.2512 36.2819 15.1319 35.1626 15.1319 33.7819C15.1319 32.4011 16.2512 31.2819 17.6319 31.2819H34.3675C35.7482 31.2819 36.8674 32.4011 36.8674 33.7819Z" fill="#FA41A5"/>
</svg>
