<svg width="44" height="64" viewBox="0 0 44 64" fill="none" xmlns="http://www.w3.org/2000/svg">
<path d="M22.0004 16.5758C20.6196 16.5758 19.5004 15.4565 19.5004 14.0758V11.2355C19.5004 9.85475 20.6196 8.7355 22.0004 8.7355C23.3811 8.7355 24.5004 9.85475 24.5004 11.2355V14.0759C24.5004 15.4565 23.3811 16.5758 22.0004 16.5758ZM43.7158 40.6666C43.7158 42.0474 42.5965 43.1666 41.2158 43.1666H8.15378V54.0083C8.15378 56.7607 10.3927 59 13.1444 59H30.8563C33.6081 59 35.8469 56.7607 35.8469 54.0083V53.3429C35.8469 51.9621 36.9661 50.8429 38.3469 50.8429C39.7276 50.8429 40.8469 51.9621 40.8469 53.3429V54.0083C40.8469 59.5176 36.3651 64 30.8563 64H13.1445C7.63565 64 3.1539 59.5177 3.1539 54.0083V43.1666H2.78516C1.40441 43.1666 0.285156 42.0474 0.285156 40.6666C0.285156 39.2859 1.40441 38.1666 2.78516 38.1666H9.41853C8.09615 34.6033 9.1349 30.331 9.29015 29.7389C9.51915 28.8657 10.201 28.1839 11.074 27.9549C11.666 27.7996 15.9375 26.761 19.5004 28.0831V25.066C13.6778 23.9074 9.27728 18.7831 9.27728 12.6558C9.2774 5.67725 14.9849 0 22.0004 0C29.0159 0 34.7234 5.67725 34.7234 12.6556C34.7234 18.7831 30.3229 23.9074 24.5004 25.0659V28.0829C28.0634 26.7606 32.3348 27.7994 32.9268 27.9548C33.7999 28.1838 34.4816 28.8656 34.7106 29.7388C34.8659 30.3309 35.9046 34.6031 34.5824 38.1665H41.2158C42.5965 38.1666 43.7158 39.2859 43.7158 40.6666ZM25.3689 33.2923C24.753 33.9081 24.5274 35.0616 24.501 36.2516C24.5043 36.4294 24.5044 36.605 24.5018 36.778C24.5124 37.2235 24.5469 37.6639 24.5955 38.0726C26.3751 38.2826 28.497 38.1747 29.3733 37.2982C30.3104 36.3611 30.3441 34.1789 30.1466 32.5177C28.3668 32.308 26.245 32.4158 25.3689 33.2923ZM22.0004 20.3113C26.2589 20.3113 29.7234 16.8769 29.7234 12.6556C29.7234 8.43438 26.259 5 22.0004 5C17.7418 5 14.2773 8.43438 14.2773 12.6556C14.2773 16.8769 17.7419 20.3113 22.0004 20.3113ZM17.6089 38.1666H18.0552C18.52 38.1577 18.9804 38.1223 19.4065 38.0714C19.4606 37.612 19.4935 37.13 19.4976 36.6524C19.4971 36.5814 19.497 36.51 19.4975 36.4383C19.4846 35.1415 19.2485 33.9088 18.6322 33.2921C17.7561 32.4161 15.6357 32.3083 13.8533 32.5182C13.6435 34.2987 13.7512 36.4217 14.6277 37.2982C15.247 37.918 16.4111 38.1427 17.6089 38.1666Z" fill="#FA41A5"/>
</svg>
