<svg xmlns="http://www.w3.org/2000/svg" width="24.021" height="65.001" viewBox="0 0 24.021 65.001">
  <path id="The_best_Lps" data-name="The best Lps" d="M4400.479,3333l-.127-.086a2.242,2.242,0,0,1-.855-2.078c0-1.621,0-3.271-.009-4.865-.008-2.905-.016-5.89.009-8.859a1.546,1.546,0,0,1-1.217.558,1.835,1.835,0,0,1-.368-.039,11.171,11.171,0,0,1-5.425-2.695,10.433,10.433,0,0,1-2.983-4.63,12.825,12.825,0,0,1-.364-5.447,1.552,1.552,0,0,1,1.64-1.482c.038,0,.077,0,.116,0a12.014,12.014,0,0,1,2.278.327,10.391,10.391,0,0,1-3.031-3.645,11.448,11.448,0,0,1-1.048-6.533,2.806,2.806,0,0,1,.463-1.45,1.535,1.535,0,0,1,1.274-.514,5.668,5.668,0,0,1,.669.046q.631.075,1.242.2c-.059-.051-.117-.1-.174-.155a10.544,10.544,0,0,1-3.049-4.66,12.7,12.7,0,0,1-.375-5.513,1.551,1.551,0,0,1,1.656-1.457l.114,0a12.831,12.831,0,0,1,6,1.878q.2.118.392.241a3.081,3.081,0,0,1-.153-.313,10.45,10.45,0,0,1-.826-4.328v-.014a13.3,13.3,0,0,1,3.288-8.707,1.615,1.615,0,0,1,2.781,0,13.159,13.159,0,0,1,3.262,8.072,10.587,10.587,0,0,1-.892,5.166l-.043.091.168-.106a14.589,14.589,0,0,1,5.336-1.921,5.547,5.547,0,0,1,.883-.064h.071a1.574,1.574,0,0,1,1.686,1.443,11.6,11.6,0,0,1-1.555,8.013,10.388,10.388,0,0,1-2.013,2.315,15.441,15.441,0,0,1,1.583-.251,1.686,1.686,0,0,1,1.987,1.467,11.963,11.963,0,0,1-.782,6.569,10.351,10.351,0,0,1-3.271,4.135,14.647,14.647,0,0,1,1.691-.319,4.8,4.8,0,0,1,.621-.047,1.6,1.6,0,0,1,1.3.519,2.651,2.651,0,0,1,.483,1.418,11.3,11.3,0,0,1-1.85,7.92,11,11,0,0,1-6.774,4.373,2.633,2.633,0,0,1-.541.061,1.547,1.547,0,0,1-1.236-.541c0,4.97,0,9.334,0,13.724a2.282,2.282,0,0,1-.843,2.077l-.131.093Zm-8.32-26.254a7.5,7.5,0,0,0,5.826,7.666l.088.023a6.358,6.358,0,0,1,.679.207,1.834,1.834,0,0,1,.764.532c0-.065,0-.132,0-.2a7.437,7.437,0,0,0-2.819-6.04,10.532,10.532,0,0,0-4.495-2.227.417.417,0,0,0-.045-.01C4392.159,3306.714,4392.159,3306.73,4392.159,3306.747Zm14.064,1.51a7.932,7.932,0,0,0-3.611,4.965,5.966,5.966,0,0,0-.1,1.26v.661a1.955,1.955,0,0,1,1.045-.6,8.367,8.367,0,0,0,3.986-2.05,7.37,7.37,0,0,0,2.3-5.782A10.079,10.079,0,0,0,4406.223,3308.256Zm-3.708-1a14.691,14.691,0,0,1,1.788-1.474,2.772,2.772,0,0,1-.531.055,1.581,1.581,0,0,1-1.259-.541C4402.513,3305.93,4402.514,3306.587,4402.515,3307.253Zm-3.062-.045q.017-.311.033-.615c.026-.458.051-.913.069-1.36a1.525,1.525,0,0,1-1.276.6,2.492,2.492,0,0,1-.357-.028c-.076-.012-.154-.025-.231-.04A12.078,12.078,0,0,1,4399.452,3307.207Zm-5.89-7.561a7.576,7.576,0,0,0,4.078,2.865c.123.037.246.069.377.1.195.052.4.105.6.172a1.916,1.916,0,0,1,.951.637,11.373,11.373,0,0,0-.38-2.673c-.616-2.219-2.221-3.875-5.049-5.211a9.318,9.318,0,0,0-1.967-.642h-.005A7.49,7.49,0,0,0,4393.562,3299.647Zm11.792-2.551a7.766,7.766,0,0,0-2.737,4.273,5.66,5.66,0,0,0-.1,1.139c0,.267,0,.543,0,.825a2.113,2.113,0,0,1,1.1-.6,8.12,8.12,0,0,0,4.751-2.955,7.428,7.428,0,0,0,1.483-4.882A10.593,10.593,0,0,0,4405.354,3297.1Zm-5.857-1.633c0-.375,0-.753-.007-1.122,0-.193,0-.387-.005-.582a1.565,1.565,0,0,1-1.206.563c-.031,0-.062,0-.094,0A14.555,14.555,0,0,1,4399.5,3295.463Zm3.016-.414v.412a14.2,14.2,0,0,1,1.309-1.142,1.565,1.565,0,0,1-1.31-.58C4402.512,3294.18,4402.512,3294.617,4402.513,3295.049Zm-10.354-11.588a7.485,7.485,0,0,0,5.837,7.6l.1.028a5.635,5.635,0,0,1,.738.231,1.755,1.755,0,0,1,.667.472c0-.085.007-.171.01-.256a7.181,7.181,0,0,0-2.913-6.034,10.388,10.388,0,0,0-4.342-2.136c-.038-.009-.069-.016-.1-.02C4392.16,3283.378,4392.159,3283.416,4392.159,3283.461Zm10.441,6.446a7.566,7.566,0,0,0-.085,1.455c0,.106,0,.213,0,.319v.1a1.6,1.6,0,0,1,.531-.39,5.329,5.329,0,0,1,.955-.314l.136-.035a7.542,7.542,0,0,0,5.714-7.679C4406.764,3283.957,4403.24,3286.542,4402.6,3289.908Zm-1.587-4.141a13.134,13.134,0,0,1,2.443-2.711,1.661,1.661,0,0,1-.314-.007,1.556,1.556,0,0,1-1.345-1.173,1.665,1.665,0,0,1,.129-1.136l.014-.035a4.316,4.316,0,1,0-1.865.007,1.858,1.858,0,0,1,.041,1.443,1.531,1.531,0,0,1-.892.806,1.546,1.546,0,0,1-.547.1c-.034,0-.072,0-.112,0A11.7,11.7,0,0,1,4401.013,3285.766Z" transform="translate(-4389 -3268)" fill="#fa41a5"/>
</svg>
