<svg width="64" height="64" viewBox="0 0 64 64" fill="none" xmlns="http://www.w3.org/2000/svg">
<path d="M39.625 32C39.625 33.3807 38.5057 34.5 37.125 34.5C35.7443 34.5 34.625 33.3807 34.625 32C34.625 30.6215 33.5035 29.5 32.125 29.5C30.7465 29.5 29.625 30.6215 29.625 32C29.625 33.3785 30.7465 34.5 32.125 34.5C33.5057 34.5 34.625 35.6193 34.625 37C34.625 38.3807 33.5057 39.5 32.125 39.5C27.9895 39.5 24.625 36.1355 24.625 32C24.625 27.8645 27.9895 24.5 32.125 24.5C36.2605 24.5 39.625 27.8645 39.625 32ZM64 32C64 33.3807 62.8807 34.5 61.5 34.5H51.3309C51.0994 36.2501 50.635 37.9277 49.9685 39.5H56.5C57.8807 39.5 59 40.6193 59 42C59 43.3807 57.8807 44.5 56.5 44.5H46.882C46.1219 45.3952 45.283 46.2215 44.375 46.9668V56.375C44.375 57.7557 43.2557 58.875 41.875 58.875C40.4943 58.875 39.375 57.7557 39.375 56.375V49.9459C37.8375 50.5725 36.203 51.0085 34.5 51.2225V61.5C34.5 62.8807 33.3807 64 32 64C30.6192 64 29.5 62.8807 29.5 61.5V51.2059C27.7499 50.9744 26.0723 50.51 24.5 49.8435V56.375C24.5 57.7557 23.3808 58.875 22 58.875C20.6192 58.875 19.5 57.7557 19.5 56.375V46.757C18.646 46.032 17.8553 45.2351 17.1373 44.375H7.5C6.11925 44.375 5 43.2557 5 41.875C5 40.4943 6.11925 39.375 7.5 39.375H14.1053C13.4666 37.8389 13.0195 36.204 12.7941 34.5H2.5C1.11925 34.5 0 33.3807 0 32C0 30.6192 1.11925 29.5 2.5 29.5H12.7775C12.9974 27.7509 13.4511 26.0737 14.1054 24.5H7.5C6.11925 24.5 5 23.3808 5 22C5 20.6192 6.11925 19.5 7.5 19.5H17.1373C17.8901 18.598 18.723 17.7651 19.625 17.0123V7.625C19.625 6.24425 20.7442 5.125 22.125 5.125C23.5058 5.125 24.625 6.24425 24.625 7.625V13.9803C26.1611 13.3416 27.796 12.8945 29.5 12.6691V2.5C29.5 1.11925 30.6192 0 32 0C33.3807 0 34.5 1.11925 34.5 2.5V12.6525C36.2491 12.8723 37.9263 13.3261 39.5 13.9804V7.625C39.5 6.24425 40.6193 5.125 42 5.125C43.3807 5.125 44.5 6.24425 44.5 7.625V17.0123C45.4436 17.7999 46.3117 18.6747 47.0916 19.625H56.5C57.8807 19.625 59 20.7442 59 22.125C59 23.5058 57.8807 24.625 56.5 24.625H50.0709C50.6975 26.1625 51.1335 27.797 51.3475 29.5H61.5C62.8807 29.5 64 30.6192 64 32ZM46.5 31.9375C46.5 23.9766 40.0234 17.5 32.0625 17.5C24.1016 17.5 17.625 23.9766 17.625 31.9375C17.625 39.8984 24.1016 46.375 32.0625 46.375C40.0234 46.375 46.5 39.8984 46.5 31.9375Z" fill="#FA41A5"/>
</svg>
