<svg xmlns="http://www.w3.org/2000/svg" width="64" height="62.802" viewBox="0 0 64 62.802">
  <path id="Multi-protocol" d="M4428.032,941.519h-5.785a1.882,1.882,0,0,1-1.882-1.883V915.284a1.866,1.866,0,0,1,.091-.58v-5.146a8,8,0,0,1-3.4-1.628,6.088,6.088,0,0,1,0-9.644,8.007,8.007,0,0,1,3.4-1.626v-5.727a1.883,1.883,0,0,1,1.882-1.883h6.021a6.356,6.356,0,0,1,12.308,0h12.043a6.356,6.356,0,0,1,12.308,0h6.021a1.883,1.883,0,0,1,1.882,1.883V898.1a1.883,1.883,0,1,1-3.765,0v-5.284h-5.608a1.883,1.883,0,0,1-1.863-1.613c-.261-1.8-1.474-3.155-2.822-3.155s-2.56,1.357-2.821,3.155a1.882,1.882,0,0,1-1.863,1.613h-5.608v5.526a1.882,1.882,0,0,1-1.883,1.882,4.568,4.568,0,0,0-2.878.966,2.336,2.336,0,0,0,0,3.84,4.568,4.568,0,0,0,2.878.966,1.882,1.882,0,0,1,1.883,1.882V913.4h5.633a1.881,1.881,0,0,1,1.881,1.827c.059,2.042,1.321,3.706,2.824,3.739,1.5-.033,2.766-1.7,2.824-3.738a1.882,1.882,0,0,1,1.881-1.828h5.542v-7.518a1.883,1.883,0,1,1,3.765,0v15.126a7.983,7.983,0,0,1,3.395,1.627,6.213,6.213,0,0,1,2.372,4.822,6.3,6.3,0,0,1-2.372,4.822,7.994,7.994,0,0,1-3.395,1.626v5.727a1.882,1.882,0,0,1-1.882,1.883h-30.228c-.783,3.235-3.34,5.567-6.391,5.567S4428.815,944.754,4428.032,941.519Zm-3.9-3.765h5.542a1.881,1.881,0,0,1,1.881,1.829c.059,2.062,1.346,3.739,2.869,3.739s2.811-1.677,2.871-3.739a1.881,1.881,0,0,1,1.88-1.829h5.542v-5.526a1.883,1.883,0,0,1,1.86-1.882l.09,0a5.086,5.086,0,0,0,.942-.1,4.552,4.552,0,0,0,1.341-.5l.011-.007.019-.011a3.81,3.81,0,0,0,.519-.365,2.523,2.523,0,0,0,.986-1.869v-.065a2.525,2.525,0,0,0-.986-1.87,3.841,3.841,0,0,0-.519-.365l-.018-.01-.012-.007a4.548,4.548,0,0,0-1.341-.5,5.085,5.085,0,0,0-.941-.1l-.091,0a1.883,1.883,0,0,1-1.858-1.882v-5.526H4440.9a8.367,8.367,0,0,1-.319,1.027,6.643,6.643,0,0,1-6.071,4.541h0c-3.049,0-5.607-2.333-6.389-5.568h-3.994Zm24.442,0h20.585v-5.526a1.883,1.883,0,0,1,1.883-1.883,4.566,4.566,0,0,0,2.877-.965,2.335,2.335,0,0,0,0-3.84,4.566,4.566,0,0,0-2.877-.965,1.883,1.883,0,0,1-1.883-1.883v-5.526h-3.812c-.781,3.236-3.34,5.568-6.39,5.568h-.091c-3.05,0-5.607-2.334-6.39-5.568h-3.9v3.865a7.978,7.978,0,0,1,3.3,1.607,6.222,6.222,0,0,1,2.371,4.694v.01c0,.011,0,.022,0,.032v.086a6.1,6.1,0,0,1-1.82,4.314,6.934,6.934,0,0,1-.552.508,7.989,7.989,0,0,1-3.3,1.606Zm-24.351-39.412a1.882,1.882,0,0,1-1.883,1.882,4.568,4.568,0,0,0-2.878.966,2.334,2.334,0,0,0,0,3.84,4.568,4.568,0,0,0,2.878.966,1.882,1.882,0,0,1,1.883,1.882V913.4h5.542a1.882,1.882,0,0,1,1.882,1.827c.059,2.063,1.347,3.739,2.869,3.74,1.369,0,2.547-1.354,2.815-3.125a5.06,5.06,0,0,0,.055-.615,1.882,1.882,0,0,1,1.881-1.827h5.543v-3.845a8,8,0,0,1-3.4-1.628,6.087,6.087,0,0,1,0-9.643,8,8,0,0,1,3.4-1.627v-3.845h-5.61a1.882,1.882,0,0,1-1.862-1.612c-.262-1.8-1.475-3.156-2.822-3.156s-2.561,1.356-2.822,3.155a1.882,1.882,0,0,1-1.862,1.613h-5.608Z" transform="translate(-4414.69 -884.284)" fill="#fa41a5"/>
</svg>
