<svg width="64" height="64" viewBox="0 0 64 64" fill="none" xmlns="http://www.w3.org/2000/svg">
<path d="M47.375 35.1587V34.3599H56.0356C56.8262 35.4927 58.1387 36.2349 59.625 36.2349C62.041 36.2349 64 34.2759 64 31.8599C64 29.4434 62.041 27.4849 59.625 27.4849C58.1387 27.4849 56.8262 28.2266 56.0356 29.3599H47.375V28.5913C47.375 26.686 46.6533 24.9458 45.4688 23.625C45.6172 23.4595 45.7593 23.2881 45.8926 23.1099H54.625C55.2881 23.1099 55.9238 22.8462 56.3926 22.3774L61.3926 17.3774C61.8618 16.9087 62.125 16.2729 62.125 15.6099V7.96436C63.2578 7.17383 64 5.86133 64 4.375C64 1.95898 62.041 0 59.625 0C57.209 0 55.25 1.95898 55.25 4.375C55.25 5.86133 55.9922 7.17383 57.125 7.96436V14.5742L53.5894 18.1099H47.375V12.0913C47.375 7.97461 44.0107 4.625 39.875 4.625H7.5C3.36426 4.625 0 7.97461 0 12.0913V18.6587C0 20.564 0.72168 22.3042 1.90625 23.625C0.72168 24.9458 0 26.686 0 28.5913V35.1587C0 37.0669 0.723633 38.8091 1.91113 40.1304C0.723633 41.458 0 43.208 0 45.125V51.625C0 55.7607 3.36426 59.125 7.5 59.125H27.375C28.7559 59.125 29.875 58.0059 29.875 56.625C29.875 55.2441 28.7559 54.125 27.375 54.125H7.5C6.12158 54.125 5 53.0034 5 51.625V45.125C5 43.7466 6.12158 42.625 7.5 42.625H18V48.5C18 49.8809 19.1191 51 20.5 51C21.8809 51 23 49.8809 23 48.5V42.625H39.875C41.2534 42.625 42.375 43.7466 42.375 45.125V51.625C42.375 53.0034 41.2534 54.125 39.875 54.125C38.4941 54.125 37.375 55.2441 37.375 56.625C37.375 58.0059 38.4941 59.125 39.875 59.125C44.0107 59.125 47.375 55.7607 47.375 51.625V45.6099H53.7144L57.25 49.145V55.9517C56.0469 56.731 55.25 58.0845 55.25 59.625C55.25 62.041 57.209 64 59.625 64C62.041 64 64 62.041 64 59.625C64 58.1938 63.3125 56.9233 62.25 56.125V48.1099C62.25 47.4463 61.9868 46.8105 61.5176 46.3418L56.5176 41.3418C56.0488 40.873 55.4131 40.6099 54.75 40.6099H45.8589C45.7339 40.4443 45.6021 40.2847 45.4639 40.1309C46.6514 38.8096 47.375 37.0669 47.375 35.1587ZM5 12.0913C5 10.7314 6.12158 9.625 7.5 9.625H18V15.375C18 16.7559 19.1191 17.875 20.5 17.875C21.8809 17.875 23 16.7559 23 15.375V9.625H39.875C41.2534 9.625 42.375 10.7314 42.375 12.0913V18.6587C42.375 20.0186 41.2534 21.125 39.875 21.125H7.5C6.12158 21.125 5 20.0186 5 18.6587V12.0913ZM7.5 37.625C6.12158 37.625 5 36.5186 5 35.1587V28.5913C5 27.2314 6.12158 26.125 7.5 26.125H18V32C18 33.3809 19.1191 34.5 20.5 34.5C21.8809 34.5 23 33.3809 23 32V26.125H39.875C41.2534 26.125 42.375 27.2314 42.375 28.5913V35.1587C42.375 36.5186 41.2534 37.625 39.875 37.625H7.5ZM9.125 15.375C9.125 13.9941 10.2441 12.875 11.625 12.875C13.0059 12.875 14.125 13.9941 14.125 15.375C14.125 16.7559 13.0059 17.875 11.625 17.875C10.2441 17.875 9.125 16.7559 9.125 15.375ZM14.125 32C14.125 33.3809 13.0059 34.5 11.625 34.5C10.2441 34.5 9.125 33.3809 9.125 32C9.125 30.6191 10.2441 29.5 11.625 29.5C13.0059 29.5 14.125 30.6191 14.125 32ZM11.75 46C13.1309 46 14.25 47.1191 14.25 48.5C14.25 49.8809 13.1309 51 11.75 51C10.3691 51 9.25 49.8809 9.25 48.5C9.25 47.1191 10.3691 46 11.75 46Z" fill="#FA41A5"/>
</svg>
