<svg width="64" height="64" viewBox="0 0 64 64" fill="none" xmlns="http://www.w3.org/2000/svg">
<path d="M56.2867 52.7796C59.8803 48.5945 62.3189 43.5987 63.3848 38.1973C65.0392 29.8141 63.3301 21.2885 58.572 14.1908C57.8691 13.1423 57.111 12.1449 56.3042 11.1987L63.2545 4.27778C64.2326 3.30383 64.2359 1.72144 63.262 0.743362C62.2881 -0.23459 60.7057 -0.238089 59.7276 0.735864L52.7748 7.65925C48.6499 4.12833 43.6664 1.69857 38.1939 0.618525C29.8107 -1.03572 21.285 0.673383 14.1872 5.43131C7.08958 10.1892 2.26955 17.4264 0.615055 25.8096C-1.03932 34.1928 0.669788 42.7184 5.42784 49.8162C10.1858 56.9139 17.4229 61.7339 25.8063 63.3884C27.8638 63.7944 29.945 63.9962 32.0206 63.9962C35.7345 63.9962 39.4301 63.3498 42.9383 62.0702C44.2349 61.5972 44.9027 60.1625 44.4297 58.8658C43.9566 57.569 42.5215 56.9013 41.2253 57.3742C36.6143 59.0562 31.617 59.44 26.774 58.4844C12.1723 55.6028 2.63731 41.3791 5.51894 26.7774C8.40056 12.1758 22.6242 2.64041 37.2262 5.52253C41.7069 6.40676 45.7987 8.36416 49.2174 11.2017L30.1116 30.227C29.6406 30.696 29.3758 31.3333 29.3758 31.998C29.3758 32.6626 29.6406 33.2999 30.1116 33.7689L59.7276 63.2599C60.2153 63.7457 60.8531 63.9882 61.491 63.9882C62.1323 63.9882 62.7737 63.7428 63.262 63.2524C64.2359 62.2744 64.2327 60.692 63.2545 59.718L56.2867 52.7796ZM52.7332 49.2411L49.5382 46.0596L58.5065 37.0912C58.4977 37.1373 58.49 37.1835 58.4809 37.2296C57.6068 41.6593 55.6343 45.7679 52.7332 49.2411ZM42.4855 39.0367L57.7115 23.755C58.3272 25.6644 58.7245 27.6335 58.8979 29.6321C58.8941 29.6358 58.8898 29.6389 58.8861 29.6428L45.9962 42.5325L42.4855 39.0367ZM52.75 14.738C53.3402 15.45 53.8983 16.1953 54.4203 16.9739C54.8274 17.5811 55.2066 18.2014 55.5604 18.832L38.9436 35.5096L35.417 31.9978L52.75 14.738Z" fill="#FA41A5"/>
</svg>
