<svg xmlns="http://www.w3.org/2000/svg" width="64" height="60.289" viewBox="0 0 64 60.289">
  <path id="Staking" d="M803.586,1609.472a13.34,13.34,0,0,1-4.053-2.07,4.906,4.906,0,0,1-2.1-3.87v-45.671a2.323,2.323,0,0,1,.078-.6c0-.025,0-.049,0-.072a4.124,4.124,0,0,1,2.342-3.545,14.967,14.967,0,0,1,3.974-1.54,54.706,54.706,0,0,1,23.245,0,14.968,14.968,0,0,1,3.974,1.54,4.126,4.126,0,0,1,2.342,3.545,3.425,3.425,0,0,1-.078.726v6.557a2.322,2.322,0,0,1,.077.594,3.428,3.428,0,0,1-.077.722v6.854a2.318,2.318,0,0,1,.077.594,3.429,3.429,0,0,1-.077.722v6.185a17.158,17.158,0,0,1,23.118.88,16.777,16.777,0,0,1,3.658,5.355,16.713,16.713,0,0,1,0,13.137,16.779,16.779,0,0,1-3.658,5.355,17.163,17.163,0,0,1-23.543.508,5.823,5.823,0,0,1-1.672,2.026,13.365,13.365,0,0,1-4.054,2.069,42.38,42.38,0,0,1-23.58,0Zm-1.511-6.043c.194.3,1.177,1.134,3.759,1.889a38.864,38.864,0,0,0,19.085,0c2.582-.754,3.565-1.592,3.759-1.889v-1.073q-.742.253-1.6.474a54.7,54.7,0,0,1-23.244,0q-.949-.243-1.756-.527Zm33.536-1.861a12.546,12.546,0,0,0,17.565,0,12.075,12.075,0,0,0,0-17.246,12.546,12.546,0,0,0-17.565,0,12.251,12.251,0,0,0-2.3,3.116v1.543a2.323,2.323,0,0,1,.077.594,3.425,3.425,0,0,1-.077.722v6.853a2.323,2.323,0,0,1,.077.594,3.432,3.432,0,0,1-.074.712A12.24,12.24,0,0,0,835.611,1601.569Zm-33.521-4.354a11.639,11.639,0,0,0,4.049,1.39,52.276,52.276,0,0,0,18.628,0,16.7,16.7,0,0,0,3.255-.963,16.528,16.528,0,0,1-.593-3.076l-.354.094a54.666,54.666,0,0,1-23.244,0q-.949-.244-1.756-.527v3.019C802.081,1597.173,802.086,1597.194,802.091,1597.215Zm0-8.169a11.674,11.674,0,0,0,4.049,1.389,52.269,52.269,0,0,0,18.628,0,18.182,18.182,0,0,0,2.917-.823,16.59,16.59,0,0,1,.993-3.192v-.4q-.742.253-1.6.474a54.7,54.7,0,0,1-23.244,0q-.949-.243-1.756-.527v3.02C802.081,1589,802.086,1589.025,802.091,1589.046Zm0-8.17a11.668,11.668,0,0,0,4.049,1.388,52.284,52.284,0,0,0,18.628,0,12.873,12.873,0,0,0,3.91-1.3v-3.123q-.742.253-1.6.474a54.7,54.7,0,0,1-23.244,0q-.949-.244-1.756-.528v3.02C802.081,1580.834,802.086,1580.855,802.091,1580.876Zm0-8.171a11.658,11.658,0,0,0,4.049,1.389,52.276,52.276,0,0,0,18.628,0,12.873,12.873,0,0,0,3.91-1.3v-3.122q-.742.253-1.6.474a54.7,54.7,0,0,1-23.244,0q-.949-.244-1.756-.527v3.019C802.081,1572.663,802.086,1572.684,802.091,1572.705Zm0-8.17a11.656,11.656,0,0,0,4.049,1.389,52.239,52.239,0,0,0,18.628,0,12.871,12.871,0,0,0,3.91-1.3V1561.8q-.742.253-1.6.474a54.711,54.711,0,0,1-23.245,0q-.949-.244-1.756-.527v2.726C802.081,1564.493,802.086,1564.514,802.091,1564.535Zm4.049-6.488a52.234,52.234,0,0,0,18.627,0c.745-.154,1.373-.315,1.9-.473a16.212,16.212,0,0,0-1.805-.631,38.842,38.842,0,0,0-18.966,0,16.394,16.394,0,0,0-1.74.6C804.7,1557.714,805.352,1557.885,806.14,1558.048Zm35.409,41.119v-1.7h7.917l2.9,1.7Zm7.917-1.708-5.11-10.132-5.969,11.829h-2.048l6.994-13.861-.013-.024h.025l.015-.027h2.046l-.016.033-.012.023,6.992,13.857Z" transform="translate(-797.437 -1550.856)" fill="#fa41a5"/>
</svg>
