<svg width="64" height="64" viewBox="0 0 64 64" fill="none" xmlns="http://www.w3.org/2000/svg">
<g clip-path="url(#clip0_55_227)">
<path d="M6.146 58.6187H6.153C4.69327 58.1658 3.32229 57.4653 2.1 56.5477C1.47263 56.1107 0.95605 55.5331 0.591451 54.861C0.226852 54.1889 0.0243192 53.4409 6.79119e-07 52.6767V7.00672C-0.000153858 6.80418 0.0260666 6.60249 0.0780007 6.40672V6.33372C0.109928 5.58592 0.344768 4.86091 0.757344 4.23641C1.16992 3.61191 1.74468 3.11146 2.42 2.78872C3.6645 2.08861 5.00271 1.57003 6.394 1.24872C14.0526 -0.416241 21.9794 -0.416241 29.638 1.24872C31.0295 1.56998 32.3677 2.08891 33.612 2.78972C34.2871 3.11247 34.8617 3.61278 35.2743 4.23708C35.6868 4.86137 35.9218 5.58612 35.954 6.33372C35.9542 6.57782 35.928 6.82123 35.876 7.05972V13.6167C35.9277 13.8105 35.9536 14.0102 35.953 14.2107C35.9529 14.4534 35.9274 14.6954 35.877 14.9327V21.7867C35.9281 21.9806 35.954 22.1802 35.954 22.3807C35.9539 22.6234 35.9284 22.8654 35.878 23.1027V29.2887C39.1472 26.5245 43.3316 25.0822 47.6096 25.245C51.8877 25.4078 55.9504 27.164 59 30.1687C60.5843 31.724 61.8427 33.5794 62.7018 35.6266C63.5609 37.6738 64.0033 39.8716 64.0033 42.0917C64.0033 44.3118 63.5609 46.5097 62.7018 48.5568C61.8427 50.604 60.5843 52.4594 59 54.0147C55.8806 57.0857 51.7057 58.8488 47.3294 58.9432C42.953 59.0376 38.7059 57.4563 35.457 54.5227C35.0613 55.3166 34.4894 56.0096 33.785 56.5487C32.5619 57.4651 31.1907 58.1649 29.731 58.6177C22.0292 60.8479 13.8528 60.8479 6.151 58.6177L6.146 58.6187ZM4.646 52.5747C4.84 52.8747 5.823 53.7087 8.405 54.4637C14.6677 56.0505 21.2273 56.0505 27.49 54.4637C30.072 53.7097 31.055 52.8717 31.249 52.5747V51.5007C30.7543 51.6687 30.221 51.8267 29.649 51.9747C21.9904 53.6397 14.0636 53.6397 6.405 51.9747C5.77233 51.8127 5.187 51.6371 4.649 51.4477L4.646 52.5747ZM55.746 50.7147C56.893 49.5905 57.8042 48.2487 58.4263 46.768C59.0483 45.2873 59.3687 43.6973 59.3687 42.0912C59.3687 40.4851 59.0483 38.8952 58.4263 37.4144C57.8042 35.9337 56.893 34.592 55.746 33.4677C53.4006 31.169 50.2475 29.8815 46.9635 29.8815C43.6795 29.8815 40.5264 31.169 38.181 33.4677C37.254 34.3779 36.4776 35.4297 35.881 36.5837V38.1267C35.9319 38.3206 35.9575 38.5203 35.957 38.7207C35.9574 38.9634 35.9319 39.2054 35.881 39.4427V46.3007C35.9319 46.4946 35.9575 46.6943 35.957 46.8947C35.9576 47.134 35.9328 47.3727 35.883 47.6067C36.4796 48.7596 37.2559 49.8101 38.183 50.7187C40.5287 53.0155 43.6811 54.3014 46.964 54.3004C50.2469 54.2995 53.3986 53.0118 55.743 50.7137L55.746 50.7147ZM8.706 47.7497C14.8653 48.8648 21.1747 48.8648 27.334 47.7497C28.4489 47.5403 29.5396 47.2176 30.589 46.7867C30.2959 45.782 30.0986 44.7517 30 43.7097L29.646 43.8047C21.9866 45.4696 14.0588 45.4682 6.4 43.8007C5.76733 43.6381 5.182 43.4624 4.644 43.2737V46.3007C4.65 46.3217 4.655 46.3427 4.66 46.3637C5.91148 47.0717 7.2833 47.5416 8.706 47.7497ZM8.706 39.5797C14.8649 40.6952 21.1741 40.6952 27.333 39.5797C28.3265 39.3869 29.3022 39.1116 30.25 38.7567C30.473 37.662 30.806 36.5925 31.244 35.5647V35.1647C30.7493 35.3327 30.216 35.4904 29.644 35.6377C21.9855 37.3036 14.0585 37.3036 6.4 35.6377C5.76733 35.4757 5.182 35.3001 4.644 35.1107V38.1307C4.644 38.1447 4.653 38.1697 4.658 38.1907C5.91058 38.8992 7.2823 39.3701 8.706 39.5797ZM8.706 31.4087C14.8649 32.5238 21.1741 32.5238 27.333 31.4087C28.6976 31.1877 30.0177 30.7488 31.243 30.1087V26.9857C30.7483 27.1537 30.215 27.3114 29.643 27.4587C21.9845 29.1246 14.0575 29.1246 6.399 27.4587C5.76633 27.2967 5.181 27.1211 4.643 26.9317V29.9517C4.643 29.9797 4.652 30.0007 4.657 30.0217C5.90989 30.7297 7.28303 31.1996 8.707 31.4077L8.706 31.4087ZM8.706 23.2377C14.8649 24.3537 21.1741 24.3537 27.333 23.2377C28.6977 23.0173 30.018 22.5783 31.243 21.9377V18.8157C30.7483 18.9851 30.215 19.1431 29.643 19.2897C21.9844 20.9547 14.0576 20.9547 6.399 19.2897C5.76633 19.1271 5.181 18.9514 4.643 18.7627V21.7827C4.643 21.8087 4.652 21.8287 4.657 21.8497C5.90953 22.5589 7.28177 23.0295 8.706 23.2377ZM8.705 15.0687C14.8642 16.1847 21.1738 16.1847 27.333 15.0687C28.6977 14.8484 30.018 14.4094 31.243 13.7687V10.9457C30.7483 11.1137 30.215 11.2714 29.643 11.4187C21.9841 13.0837 14.0569 13.0837 6.398 11.4187C5.76533 11.2567 5.18 11.0811 4.642 10.8917V13.6177C4.647 13.6367 4.652 13.6577 4.657 13.6787C5.9093 14.388 7.28211 14.8593 8.706 15.0687H8.705ZM27.333 7.19172C28.078 7.03672 28.706 6.87672 29.233 6.71872C28.6459 6.47314 28.0449 6.26244 27.433 6.08772C21.2078 4.52075 14.6912 4.52075 8.466 6.08772C7.87531 6.25527 7.29441 6.45558 6.726 6.68772C7.37855 6.89061 8.04109 7.05983 8.711 7.19472C14.8684 8.3092 21.176 8.30818 27.333 7.19172ZM42.5 44.4317L44.727 42.2057L48.981 46.4597V50.9117L42.5 44.4317ZM42.5 39.9807L48.979 33.5007V37.9537L44.725 42.2067L42.5 44.4317V39.9807ZM48.3 43.7007L46.81 42.2117L48.3 40.7217L48.975 40.0467L49.65 40.7217L51.139 42.2117L49.654 43.7007L48.979 44.3767L48.3 43.7007Z" fill="#FF00B8"/>
</g>
<defs>
<clipPath id="clip0_55_227">
<rect width="64" height="64" fill="white"/>
</clipPath>
</defs>
</svg>
