<svg width="62" height="64" viewBox="0 0 62 64" fill="none" xmlns="http://www.w3.org/2000/svg">
<path d="M55.25 35.8657V26C55.25 24.6191 54.1309 23.5 52.75 23.5C50.6821 23.5 49 21.8179 49 19.75C49 17.6821 50.6821 16 52.75 16C54.8179 16 56.5 17.6821 56.5 19.75C56.5 21.1309 57.6191 22.25 59 22.25C60.3809 22.25 61.5 21.1309 61.5 19.75C61.5 14.9253 57.5747 11 52.75 11C50.1938 11 47.8901 12.1021 46.2886 13.8564L39.396 10.0977C39.4644 9.6582 39.5 9.2085 39.5 8.75C39.5 3.92529 35.5747 0 30.75 0C25.9253 0 22 3.92529 22 8.75C22 9.20654 22.0352 9.65479 22.103 10.0923L15.1929 13.8369C13.5923 12.0947 11.2969 11 8.75 11C3.92529 11 0 14.9253 0 19.75C0 23.6143 2.51855 26.8989 6 28.0547V35.9453C2.51855 37.1011 0 40.3857 0 44.25C0 49.0747 3.92529 53 8.75 53C11.2935 53 13.5864 51.9082 15.1865 50.1699L22.0967 53.9541C22.0337 54.377 22 54.8096 22 55.25C22 60.0747 25.9253 64 30.75 64C32.1309 64 33.25 62.8809 33.25 61.5C33.25 60.1191 32.1309 59 30.75 59C28.6821 59 27 57.3179 27 55.25C27 53.1821 28.6821 51.5 30.75 51.5C32.8179 51.5 34.5 53.1821 34.5 55.25C34.5 56.6309 35.6191 57.75 37 57.75C38.3809 57.75 39.5 56.6309 39.5 55.25C39.5 54.7856 39.4629 54.3296 39.3926 53.8843L46.2314 50.0791C47.8345 51.8701 50.1626 53 52.75 53C54.1309 53 55.25 51.8809 55.25 50.5C55.25 49.1191 54.1309 48 52.75 48C50.6821 48 49 46.3179 49 44.25C49 42.1821 50.6821 40.5 52.75 40.5C54.8179 40.5 56.5 42.1821 56.5 44.25C56.5 45.6309 57.6191 46.75 59 46.75C60.3809 46.75 61.5 45.6309 61.5 44.25C61.5 40.2939 58.8604 36.9443 55.25 35.8657V35.8657ZM44.1108 18.3638C44.0386 18.8154 44 19.2783 44 19.75C44 20.481 44.0913 21.1909 44.2612 21.8701L33.25 27.7168V17.1343C34.8027 16.6704 36.1763 15.7876 37.2368 14.6157L44.1108 18.3638ZM14.5073 37.6694C13.5112 36.7964 12.3164 36.1455 11 35.7949V28.2056C12.3945 27.834 13.6528 27.126 14.6826 26.1743L25.4194 31.875L14.5073 37.6694ZM30.75 5C32.8179 5 34.5 6.68213 34.5 8.75C34.5 10.8179 32.8179 12.5 30.75 12.5C28.6821 12.5 27 10.8179 27 8.75C27 6.68213 28.6821 5 30.75 5V5ZM24.2593 14.6108C25.3203 15.7852 26.6953 16.6694 28.25 17.1343V27.7168L17.2388 21.8701C17.4087 21.1909 17.5 20.481 17.5 19.75C17.5 19.2686 17.4595 18.7969 17.3843 18.3364L24.2593 14.6108ZM8.75 16C10.8179 16 12.5 17.6821 12.5 19.75C12.5 21.8179 10.8179 23.5 8.75 23.5C6.68213 23.5 5 21.8179 5 19.75C5 17.6821 6.68213 16 8.75 16ZM8.75 48C6.68213 48 5 46.3179 5 44.25C5 42.1821 6.68213 40.5 8.75 40.5C10.8179 40.5 12.5 42.1821 12.5 44.25C12.5 46.3179 10.8179 48 8.75 48ZM24.231 49.4219L17.3828 45.6719C17.459 45.209 17.5 44.7344 17.5 44.25C17.5 43.4399 17.3872 42.6563 17.1802 41.9111L28.25 36.0332V46.8657C26.6812 47.3345 25.2959 48.2314 24.231 49.4219V49.4219ZM37.2236 49.3691C36.165 48.2046 34.7959 47.3276 33.25 46.8657V36.0332L44.3198 41.9111C44.1128 42.6563 44 43.4399 44 44.25C44 44.6899 44.0337 45.1221 44.0962 45.5444L37.2236 49.3691ZM46.9927 37.6694L36.0806 31.875L46.8174 26.1738C47.7852 27.0688 48.9551 27.7471 50.25 28.1343V35.8657C49.0322 36.2295 47.9258 36.8521 46.9927 37.6694Z" fill="#FA41A5"/>
</svg>
