<svg xmlns="http://www.w3.org/2000/svg" width="52" height="52" viewBox="0 0 52 52">
  <g id="Discord_Icon" data-name="Discord Icon" transform="translate(6.08 6)">
    <g id="Rectangle_8687" data-name="Rectangle 8687" transform="translate(-0.08)" fill="none" stroke="#fff" stroke-width="1">
      <rect width="40" height="40" rx="4" stroke="none"/>
      <rect x="0.5" y="0.5" width="39" height="39" rx="3.5" fill="none"/>
    </g>
    <g id="Rectangle_4985" data-name="Rectangle 4985" transform="translate(-0.08)" fill="none" stroke="#fff" stroke-width="1">
      <rect width="40" height="40" rx="4" stroke="none"/>
      <rect x="0.5" y="0.5" width="39" height="39" rx="3.5" fill="none"/>
    </g>
    <path id="Path_34859" data-name="Path 34859" d="M-384.269-755.863a9.923,9.923,0,0,0-5.775-2.249l-.287.342a13.481,13.481,0,0,1,5.117,2.721,16.824,16.824,0,0,0-15.354-.621c-.76.365-1.214.621-1.214.621a13.645,13.645,0,0,1,5.409-2.811l-.2-.252a9.915,9.915,0,0,0-5.773,2.249,29.692,29.692,0,0,0-2.964,12.492,7.358,7.358,0,0,0,6.267,3.256s.76-.964,1.377-1.779a6.382,6.382,0,0,1-3.6-2.528c.3.22.8.507.841.536a14.436,14.436,0,0,0,12.823.75,11.636,11.636,0,0,0,2.363-1.265,6.473,6.473,0,0,1-3.72,2.55c.617.814,1.357,1.735,1.357,1.735a7.413,7.413,0,0,0,6.287-3.256A29.664,29.664,0,0,0-384.269-755.863Zm-12.882,10.5a2.339,2.339,0,0,1-2.121-2.213,2.354,2.354,0,0,1,2.121-2.548h.031a2.234,2.234,0,0,1,2.064,2.379v0A2.246,2.246,0,0,1-397.151-745.362Zm9.6-2.38a2.132,2.132,0,0,1-2.276,2,2.169,2.169,0,0,1-1.917-2.371,2.14,2.14,0,0,1,2.1-2.007,2.247,2.247,0,0,1,2.1,2.376Z" transform="translate(413.311 768.111)" fill="#fff"/>
  </g>
</svg>
