<svg xmlns="http://www.w3.org/2000/svg" width="52" height="52" viewBox="0 0 52 52">
  <g id="Group_68472" data-name="Group 68472" transform="translate(6.08 6)">
    <g id="Rectangle_8687" data-name="Rectangle 8687" transform="translate(-0.08)" fill="none" stroke="#fff" stroke-width="1">
      <rect width="40" height="40" rx="4" stroke="none"/>
      <rect x="0.5" y="0.5" width="39" height="39" rx="3.5" fill="none"/>
    </g>
    <g id="Rectangle_4985" data-name="Rectangle 4985" transform="translate(-0.08)" fill="none" stroke="#fff" stroke-width="1">
      <rect width="40" height="40" rx="4" stroke="none"/>
      <rect x="0.5" y="0.5" width="39" height="39" rx="3.5" fill="none"/>
    </g>
    <path id="Icon_awesome-github" data-name="Icon awesome-github" d="M8.027,19.887c0,.1-.111.179-.252.179-.16.015-.271-.065-.271-.179s.111-.179.252-.179S8.027,19.773,8.027,19.887Zm-1.5-.223c-.034.1.063.213.208.243a.224.224,0,0,0,.3-.1c.029-.1-.063-.213-.208-.258A.246.246,0,0,0,6.523,19.664Zm2.139-.084c-.14.035-.237.129-.223.243s.14.164.285.129.237-.129.223-.228S8.8,19.565,8.661,19.58ZM11.845.563A11.753,11.753,0,0,0,0,12.671,12.424,12.424,0,0,0,8.2,24.542c.619.114.837-.278.837-.6s-.015-2-.015-3.047c0,0-3.387.744-4.1-1.479,0,0-.552-1.444-1.345-1.816,0,0-1.108-.779.077-.764a2.544,2.544,0,0,1,1.868,1.28,2.522,2.522,0,0,0,3.527,1.037,2.786,2.786,0,0,1,.774-1.672c-2.7-.308-5.434-.71-5.434-5.484A3.811,3.811,0,0,1,5.535,9.074,4.8,4.8,0,0,1,5.661,5.7C6.673,5.381,9,7.044,9,7.044a11.156,11.156,0,0,1,6.077,0S17.4,5.376,18.416,5.7a4.8,4.8,0,0,1,.126,3.37A3.9,3.9,0,0,1,19.79,12c0,4.789-2.85,5.171-5.555,5.484a2.975,2.975,0,0,1,.823,2.3c0,1.672-.015,3.742-.015,4.149,0,.323.223.715.837.6A12.312,12.312,0,0,0,24,12.671,12.01,12.01,0,0,0,11.845.563ZM4.7,17.679c-.063.05-.048.164.034.258s.189.114.252.05.048-.164-.034-.258S4.766,17.614,4.7,17.679Zm-.523-.4c-.034.065.015.144.111.194a.142.142,0,0,0,.208-.035c.034-.065-.015-.144-.111-.194C4.292,17.212,4.215,17.227,4.181,17.277Zm1.568,1.767c-.077.065-.048.213.063.308.111.114.252.129.315.05s.034-.213-.063-.308C5.956,18.979,5.811,18.964,5.748,19.044Zm-.552-.73c-.077.05-.077.179,0,.293s.208.164.271.114a.231.231,0,0,0,0-.308C5.4,18.3,5.274,18.25,5.2,18.314Z" transform="translate(7.92 7.438)" fill="#fff"/>
  </g>
</svg>
