<svg xmlns="http://www.w3.org/2000/svg" width="52" height="52" viewBox="0 0 52 52">
  <g id="Medium_Icon" data-name="Medium Icon" transform="translate(6.08 6)">
    <g id="Rectangle_8689" data-name="Rectangle 8689" transform="translate(-0.08)" fill="none" stroke="#fff" stroke-width="1">
      <rect width="40" height="40" rx="4" stroke="none"/>
      <rect x="0.5" y="0.5" width="39" height="39" rx="3.5" fill="none"/>
    </g>
    <g id="Rectangle_4987" data-name="Rectangle 4987" transform="translate(-0.08 0)" fill="none" stroke="#fff" stroke-width="1">
      <rect width="40" height="40" rx="4" stroke="none"/>
      <rect x="0.5" y="0.5" width="39" height="39" rx="3.5" fill="none"/>
    </g>
    <path id="Path_34858" data-name="Path 34858" d="M-388.7-830.377l-1.914,1.926a.606.606,0,0,0-.215.56v14.174a.587.587,0,0,0,.215.56l1.873,1.926v.427h-9.412v-.413l1.938-1.976c.192-.2.192-.26.192-.56v-11.459l-5.386,14.369h-.726l-6.274-14.369v9.629a1.366,1.366,0,0,0,.349,1.106l2.52,3.207v.427H-412.7v-.427l2.518-3.207a1.325,1.325,0,0,0,.327-1.106v-11.136a.974.974,0,0,0-.3-.82l-2.241-2.839v-.427h6.962l5.373,12.393,4.729-12.386h6.635Z" transform="translate(420.702 840.804)" fill="#fff"/>
  </g>
</svg>
